<svg width="62" height="61" viewBox="0 0 62 61" fill="none" xmlns="http://www.w3.org/2000/svg">
<path d="M30.9548 28.7383C38.8776 28.7383 45.3237 22.2922 45.3237 14.3689C45.3237 6.44614 38.8776 0 30.9548 0C23.0321 0 16.5859 6.44614 16.5859 14.3689C16.5859 22.2922 23.0321 28.7383 30.9548 28.7383ZM30.9548 2.39248C37.5587 2.39248 42.9312 7.76504 42.9312 14.3689C42.9312 20.9727 37.5587 26.3459 30.9548 26.3459C24.351 26.3459 18.9784 20.9727 18.9784 14.3689C18.9784 7.76504 24.351 2.39248 30.9548 2.39248Z" fill="black"/>
<path d="M27.1112 9.6123H24.7188V16.5362H27.1112V9.6123Z" fill="black"/>
<path d="M36.3144 9.6123H33.9219V16.5362H36.3144V9.6123Z" fill="black"/>
<path d="M61.9065 28.333C61.9065 24.9867 59.1846 22.2642 55.8383 22.2642C52.492 22.2642 49.7701 24.9867 49.7701 28.333C49.7701 31.2628 51.8568 33.7135 54.6222 34.2782C54.5213 38.5154 53.4649 41.5661 51.454 43.3233C50.4821 44.1731 49.4233 44.5813 48.5162 44.7856C49.3396 40.9576 49.1123 37.4168 48.1825 35.2639C46.4033 31.1437 34.4573 30.9468 30.816 30.9953C27.1689 30.948 15.2281 31.1431 13.4489 35.2639C12.5243 37.4049 12.2963 40.9188 13.1033 44.7221C12.2647 44.4961 11.3212 44.0819 10.4531 43.3239C8.44215 41.5667 7.38574 38.5155 7.2849 34.2782C10.0503 33.7135 12.137 31.2628 12.137 28.333C12.137 24.9867 9.41512 22.2642 6.06881 22.2642C2.72249 22.2642 0 24.9867 0 28.333C0 31.2771 2.10882 33.7335 4.89433 34.2825C5.00567 39.2708 6.34764 42.9377 8.91571 45.1574C10.5911 46.6051 12.4368 47.1284 13.8104 47.2993C14.8324 50.3786 16.546 53.4881 19.1457 56.0877C19.3448 56.288 24.1123 61 30.816 61C37.5793 61 42.2942 56.2828 42.484 56.0894C45.077 53.4964 46.7891 50.3965 47.8124 47.3253C49.209 47.194 51.1931 46.7113 52.9914 45.1574C55.5594 42.9377 56.9014 39.2708 57.0128 34.2825C59.7982 33.7335 61.9065 31.2771 61.9065 28.333ZM2.39248 28.333C2.39248 26.7266 3.43422 25.3726 4.87257 24.8733V28.9632H7.26504V24.8734C8.70295 25.3727 9.74455 26.7267 9.74455 28.333C9.74455 30.3598 8.09564 32.0087 6.06881 32.0087C4.04139 32.0087 2.39248 30.3598 2.39248 28.333ZM30.1314 33.3837C30.3557 33.3837 30.58 33.3854 30.8026 33.3878H30.8294C33.1422 33.3619 35.5646 33.4741 37.7847 33.7038C37.527 37.3278 34.5039 40.1996 30.816 40.1996C27.1273 40.1996 24.1039 37.3275 23.8466 33.7031C25.8554 33.4947 28.029 33.3837 30.1314 33.3837ZM15.6451 36.2125C16.0631 35.2446 18.3919 34.4953 21.4697 34.0109C21.8465 38.4131 25.2706 41.9502 29.6197 42.507V58.5414C24.5434 58.0269 20.8785 54.4375 20.839 54.3979C14.7719 48.3308 14.2392 39.4688 15.6451 36.2125ZM40.7866 54.4031C40.748 54.4422 37.1267 58.0322 32.0122 58.5427V42.507C36.361 41.9502 39.7852 38.4126 40.1617 34.0102C43.241 34.4944 45.5677 35.2436 45.9863 36.2125C47.3922 39.4688 46.8595 48.3308 40.7866 54.4031ZM55.8383 32.0087C53.8114 32.0087 52.1625 30.3598 52.1625 28.333C52.1625 26.7267 53.2041 25.3728 54.642 24.8735V28.9632H57.0345V24.8734C58.4724 25.3727 59.514 26.7267 59.514 28.333C59.514 30.3598 57.8651 32.0087 55.8383 32.0087Z" fill="black"/>
</svg>
