<svg width="65" height="62" viewBox="0 0 65 62" fill="none" xmlns="http://www.w3.org/2000/svg">
<mask id="path-1-outside-1_9354_6430" maskUnits="userSpaceOnUse" x="-0.5" y="-0.5" width="66" height="63" fill="black">
<rect fill="white" x="-0.5" y="-0.5" width="66" height="63"/>
<path d="M16.818 22.5523C16.8713 22.1377 17.2527 21.8435 17.666 21.8997C18.0794 21.9532 18.3728 22.3356 18.3167 22.7502C17.9887 25.264 19.3887 27.6493 21.5701 28.2992C23.1409 28.7672 24.9303 28.2565 26.2369 26.9701C26.5356 26.676 27.0129 26.6813 27.3063 26.9808C27.5996 27.2804 27.5943 27.759 27.2956 28.0532C26.1222 29.2058 24.6369 29.8744 23.1409 29.9707C23.2449 30.8826 22.9755 31.7999 22.3622 32.4952C21.7382 33.2011 20.8448 33.5702 19.9301 33.5702C19.3434 33.5702 18.7461 33.4178 18.2074 33.1022C17.8474 32.8909 17.7247 32.4283 17.9327 32.0646C18.1434 31.7036 18.6048 31.5806 18.9674 31.7892C19.7301 32.2331 20.6821 32.1047 21.2315 31.4843C21.6102 31.0564 21.7355 30.4387 21.5862 29.861C21.4368 29.8289 21.2875 29.7942 21.1408 29.7487C18.2527 28.8903 16.394 25.7962 16.818 22.5494L16.818 22.5523ZM27.5225 35.0436C27.5545 34.6264 27.2425 34.2627 26.8265 34.2306C26.4879 34.2039 23.4584 34.0541 21.5384 36.6134C20.4584 38.0549 20.2984 39.5926 20.373 40.6836C19.661 40.6248 18.9303 40.697 18.2263 40.9109C17.8263 41.0313 17.5996 41.4538 17.7196 41.8549C17.8396 42.2561 18.261 42.4834 18.661 42.363C20.2557 41.8817 22.0024 42.3657 23.1091 43.5959C24.1918 44.7993 24.5092 46.4974 23.9331 48.0271C23.7864 48.4176 23.9838 48.8561 24.3731 49.0033C24.4611 49.0353 24.5518 49.0514 24.6398 49.0514C24.9465 49.0514 25.2318 48.8642 25.3465 48.562C26.1225 46.5002 25.6932 44.2083 24.2292 42.5797C23.5918 41.871 22.7971 41.3469 21.9304 41.026C21.8158 40.2611 21.7784 38.8144 22.7464 37.5254C24.2078 35.5758 26.6106 35.7363 26.7119 35.7443C27.1279 35.7764 27.4906 35.4635 27.5226 35.0463L27.5225 35.0436ZM53.8913 28.4596V33.5407C53.8913 34.8939 52.7953 35.993 51.4459 35.993H47.8512C47.4965 37.2017 47.0138 38.3704 46.4111 39.4748L48.9552 42.0261C49.9072 42.9807 49.9072 44.5372 48.9552 45.4919L45.3711 49.0861C44.9098 49.5487 44.2964 49.8055 43.6431 49.8055H43.6404C42.9871 49.8055 42.3737 49.5514 41.9124 49.0861L39.3683 46.5375C38.2696 47.1419 37.1043 47.6259 35.8962 47.9816V51.5865C35.8962 52.937 34.8002 54.0387 33.4509 54.0387H28.384C27.9547 54.0387 27.5333 53.9237 27.1653 53.7125C26.5333 53.9264 25.8773 54.0414 25.2132 54.0414C24.7439 54.0414 24.2745 53.9852 23.8105 53.8649C21.7304 53.3327 20.0664 51.6292 19.3917 49.4096C17.5436 49.9445 15.5303 49.4016 14.2448 47.9522C12.8848 46.4198 12.6501 44.1815 13.5462 42.3629C11.4714 41.6917 9.90607 39.8866 9.65539 37.7365C9.46605 36.0945 10.0714 34.4177 11.2608 33.2143C11.1141 32.9603 10.9861 32.6929 10.8768 32.4147C9.9301 29.9891 10.6928 27.1919 12.6848 25.5043C12.2235 24.6272 11.8501 23.4585 12.0501 22.1374C12.2688 20.7039 13.1542 19.3294 14.4822 18.3667C15.1996 17.8479 16.0023 17.4788 16.8343 17.2729C16.7383 15.9064 16.8956 14.1226 17.8876 12.3683C19.869 8.86769 23.8612 7.66429 26.9387 8.02261C27.1387 8.04668 27.3361 8.0761 27.5334 8.11354C27.8027 8.01459 28.0907 7.9611 28.3814 7.9611H33.4483C34.7977 7.9611 35.8936 9.06024 35.8936 10.4134V14.0182C37.1043 14.3739 38.2671 14.858 39.3657 15.4623L41.9072 12.9111C42.3685 12.4484 42.9845 12.1917 43.6379 12.1917C44.2913 12.1917 44.9046 12.4458 45.3659 12.9111L48.95 16.5026C49.902 17.46 49.902 19.0164 48.95 19.9711L46.4059 22.5224C47.0086 23.6295 47.494 24.7955 47.846 26.0042H51.4408C52.7902 26.0042 53.8861 27.1033 53.8861 28.4565L53.8913 28.4596ZM31.6719 39.8439C36.2 39.4562 39.7706 35.64 39.7706 31.0002C39.7706 26.3603 36.2025 22.5418 31.6719 22.1564V39.8467V39.8439ZM26.9144 52.1991C26.9624 52.1723 27.0104 52.1536 27.0611 52.1375C28.4424 51.5465 29.6212 50.3137 30.1599 48.7172V40.6491V40.6384V40.6277V21.3758V21.3651V21.3544V20.2553C30.0239 19.8755 29.6158 19.0011 28.6158 18.5304C27.6078 18.0571 26.6504 18.3218 26.3811 18.4154C25.9864 18.5518 25.5571 18.3405 25.4211 17.9448C25.2851 17.549 25.4958 17.1184 25.8905 16.9821C26.4105 16.8029 27.7785 16.4633 29.2559 17.1586C29.6026 17.3217 29.8986 17.5169 30.1573 17.7282V10.8047C29.3652 10.2806 28.2025 9.70293 26.7598 9.53445C25.4371 9.37935 23.8531 9.58794 22.413 10.2432C22.813 10.3047 23.2051 10.4143 23.5837 10.5828C25.6904 11.5081 26.2371 13.5726 26.3251 13.9764C26.4131 14.3855 26.1571 14.7894 25.7491 14.8776C25.6957 14.8883 25.6397 14.8963 25.5864 14.8963C25.2397 14.8963 24.925 14.6556 24.8477 14.3C24.8104 14.1288 24.4424 12.6152 22.9757 11.9707C21.9036 11.5001 20.6476 11.6605 19.6822 12.3852C19.5062 12.6152 19.3436 12.8613 19.1969 13.1233C18.4048 14.5246 18.2635 15.966 18.3329 17.0919C18.6849 17.0892 19.0342 17.116 19.3809 17.1748C22.4584 17.7016 24.7677 20.5738 24.7491 23.8577C24.7464 24.2749 24.4078 24.6119 23.9944 24.6119H23.9917C23.5731 24.6092 23.237 24.2696 23.2397 23.8497C23.253 21.3011 21.485 19.0735 19.1276 18.6697C18.7409 18.6029 18.3436 18.5895 17.9462 18.6243C17.8982 18.643 17.8475 18.659 17.7942 18.6697C17.7142 18.6831 17.6368 18.6858 17.5595 18.6751C16.7862 18.8061 16.0315 19.119 15.3648 19.6031C14.3621 20.3278 13.6981 21.3387 13.5407 22.3709C13.3621 23.553 13.8581 24.6093 14.3061 25.2885C14.5354 25.6362 14.4421 26.1068 14.0928 26.3368C12.266 27.5509 11.506 29.8775 12.2821 31.8644C12.9941 33.6856 14.8181 34.8463 16.8289 34.7499C17.2449 34.7285 17.5996 35.0521 17.621 35.472C17.6423 35.8892 17.3196 36.2448 16.9009 36.2663C16.7996 36.2716 16.6956 36.2743 16.5942 36.2743C14.8982 36.2743 13.3195 35.5924 12.1861 34.4424C11.4128 35.3062 11.0261 36.4508 11.1541 37.5659C11.3675 39.4032 12.9221 40.8927 14.8503 41.1067C15.1249 41.1361 15.3623 41.3179 15.4663 41.5747C15.5703 41.8314 15.5249 42.1282 15.3489 42.3422C14.2342 43.6954 14.2449 45.677 15.3729 46.9499C16.4103 48.1212 18.141 48.4368 19.5837 47.7174C19.7971 47.6105 20.0478 47.6131 20.2611 47.7201C20.4744 47.8271 20.6238 48.0303 20.6638 48.2657C21.0265 50.3222 22.4052 51.9454 24.1812 52.4001C25.0932 52.6327 26.0373 52.5445 26.9093 52.2049L26.9144 52.1991ZM52.3793 28.4596C52.3793 27.9435 51.9606 27.5236 51.4459 27.5236H47.2751C46.9311 27.5236 46.6298 27.2883 46.5418 26.954C46.1658 25.4885 45.5871 24.0872 44.8164 22.7849C44.6404 22.488 44.6884 22.1083 44.9338 21.8622L47.8832 18.9045C48.2459 18.5408 48.2459 17.9471 47.8832 17.5807L44.2991 13.9892C44.1231 13.8127 43.8884 13.7138 43.6404 13.7138C43.3897 13.7138 43.1577 13.81 42.979 13.9892L40.0296 16.9469C39.7843 17.193 39.4056 17.2384 39.1096 17.0619C37.8162 16.2917 36.4188 15.7114 34.9522 15.3317C34.6188 15.2461 34.3841 14.944 34.3841 14.599V10.4164C34.3841 9.90031 33.9655 9.48044 33.4508 9.48044H30.9067C31.0613 9.57939 31.2133 9.68369 31.3627 9.79333C31.5574 9.93507 31.6747 10.1651 31.6747 10.4057V20.6372C37.0375 21.0276 41.2856 25.5257 41.2856 31.0028C41.2856 36.48 37.0401 40.9776 31.6747 41.3685V48.8403C31.6747 48.9179 31.664 48.9954 31.64 49.0703C31.1973 50.4743 30.3573 51.6617 29.3013 52.5254H33.4534C33.9681 52.5254 34.3867 52.1056 34.3867 51.5894V47.4069C34.3867 47.0619 34.6187 46.7597 34.9548 46.6742C36.4214 46.2944 37.8215 45.7115 39.1122 44.944C39.4082 44.7675 39.7869 44.8156 40.0322 45.0589L42.9817 48.0167C43.1577 48.1932 43.3923 48.2921 43.643 48.2921C43.891 48.2921 44.1257 48.1958 44.3017 48.0193L47.8858 44.4251C48.2485 44.0614 48.2485 43.4651 47.8858 43.1014L44.9364 40.1437C44.691 39.9003 44.6457 39.5206 44.819 39.221C45.5871 37.9187 46.1685 36.5147 46.5444 35.0519C46.6297 34.7176 46.9311 34.4823 47.2777 34.4823H51.4486C51.9632 34.4823 52.3819 34.0624 52.3819 33.5463V28.4652L52.3793 28.4596ZM30.3975 59.9837C29.5815 59.9704 28.7575 59.9195 27.9468 59.8366C27.5307 59.7939 27.1601 60.0961 27.1174 60.5132C27.0748 60.9304 27.3761 61.3021 27.7921 61.3449C28.6428 61.4331 29.5095 61.484 30.3682 61.5H30.3815C30.7922 61.5 31.1309 61.1684 31.1362 60.7566C31.1442 60.3367 30.8109 59.9917 30.3949 59.9864L30.3975 59.9837ZM24.32 59.2296C23.5253 59.045 22.7306 58.8204 21.9573 58.569C21.5599 58.438 21.1333 58.6573 21.0053 59.0557C20.8773 59.4542 21.0933 59.8821 21.4906 60.0104C22.3066 60.2778 23.144 60.5105 23.9787 60.7057C24.0373 60.7191 24.0933 60.7244 24.152 60.7244C24.496 60.7244 24.8054 60.4891 24.888 60.1388C24.984 59.7323 24.7307 59.3231 24.3227 59.2295L24.32 59.2296ZM18.5358 57.2025C17.7998 56.8522 17.0691 56.4644 16.365 56.0526C16.005 55.8413 15.541 55.9643 15.3304 56.3253C15.1197 56.6864 15.2424 57.1517 15.6024 57.3629C16.3437 57.7962 17.1117 58.2053 17.8878 58.5717C17.9918 58.6225 18.1038 58.6439 18.2105 58.6439C18.4932 58.6439 18.7652 58.4834 18.8932 58.2107C19.0718 57.8336 18.9118 57.379 18.5332 57.1998L18.5358 57.2025ZM13.3117 53.9934C12.6663 53.496 12.0343 52.9638 11.4316 52.4103C11.1223 52.1295 10.6449 52.1509 10.3649 52.4584C10.0822 52.7686 10.1062 53.2473 10.4129 53.5281C11.0476 54.1084 11.7116 54.6674 12.3916 55.1915C12.5303 55.2985 12.6903 55.3493 12.853 55.3493C13.0796 55.3493 13.3036 55.2476 13.453 55.0524C13.7063 54.7208 13.645 54.2448 13.3143 53.9881L13.3117 53.9934ZM7.3675 47.8133C7.12483 47.4736 6.6528 47.3934 6.31412 47.6368C5.97544 47.8801 5.89544 48.3535 6.13811 48.6931C6.6368 49.3937 7.17013 50.081 7.72482 50.7362C7.87415 50.9127 8.08749 51.0037 8.30083 51.0037C8.47417 51.0037 8.64751 50.9448 8.78885 50.8245C9.10619 50.5544 9.14619 50.0757 8.87685 49.7548C8.34883 49.1317 7.84218 48.4791 7.3675 47.8133ZM4.35945 42.4648C4.19411 42.0797 3.74876 41.9032 3.36477 42.069C2.98076 42.2348 2.80476 42.6814 2.9701 43.0664C3.30877 43.8553 3.68747 44.6416 4.09278 45.3984C4.22878 45.6524 4.49012 45.7995 4.75946 45.7995C4.87947 45.7995 5.00214 45.7701 5.11681 45.7086C5.48482 45.5107 5.62349 45.0507 5.42615 44.6817C5.04214 43.9623 4.68216 43.2162 4.35945 42.4674V42.4648ZM3.12208 38.9882C2.89808 38.202 2.70606 37.3997 2.54873 36.5948C2.46873 36.183 2.07138 35.9155 1.66069 35.9958C1.25001 36.076 0.983336 36.4744 1.06334 36.8863C1.22868 37.7314 1.43135 38.5791 1.66602 39.4054C1.76202 39.7371 2.06337 39.9563 2.39138 39.9563C2.46071 39.9563 2.53005 39.9456 2.59939 39.9269C3.00206 39.8119 3.23407 39.3921 3.1194 38.9883L3.12208 38.9882ZM64.2383 30.8209C63.9209 30.5481 63.4436 30.5855 63.1716 30.9038L61.2568 33.1474C61.3075 32.4334 61.3315 31.7167 61.3315 31.0027C61.3315 22.8545 58.1688 15.1951 52.4218 9.43482C46.6776 3.67446 39.0377 0.5 30.9144 0.5C22.7891 0.5 15.1511 3.67165 9.40702 9.43482C3.66282 15.1952 0.5 22.8545 0.5 31.0027C0.5 31.6793 0.521334 32.3639 0.566668 33.0378C0.593336 33.439 0.924014 33.7465 1.32138 33.7465C1.33738 33.7465 1.35605 33.7465 1.37205 33.7439C1.78806 33.7171 2.10539 33.3561 2.07603 32.9362C2.03337 32.2971 2.01203 31.6473 2.01203 31.0028C2.01203 15.0185 14.9776 2.01647 30.917 2.01647C46.8564 2.01647 59.822 15.0185 59.822 31.0028C59.822 31.8264 59.7846 32.6528 59.718 33.4738L57.8059 30.8022C57.5632 30.4626 57.0912 30.3851 56.7499 30.6284C56.4112 30.8718 56.3338 31.3451 56.5765 31.6874L59.6246 35.9475L59.6272 35.9502C59.6432 35.9716 59.6592 35.993 59.6779 36.0117C59.6806 36.0144 59.6859 36.0197 59.6886 36.0224C59.7046 36.0385 59.7206 36.0545 59.7366 36.0679C59.7419 36.0732 59.7499 36.0786 59.7553 36.0839C59.7686 36.0973 59.7846 36.108 59.8006 36.1187C59.8086 36.124 59.8139 36.1294 59.8219 36.1321C59.8379 36.1428 59.8539 36.1535 59.8699 36.1615C59.8779 36.1668 59.8833 36.1695 59.8913 36.1722C59.9073 36.1802 59.9259 36.1882 59.9419 36.1962C59.9499 36.1989 59.9579 36.2016 59.9633 36.2069C59.9819 36.215 60.0006 36.2203 60.0166 36.2257C60.0246 36.2283 60.0326 36.231 60.0406 36.2337C60.0593 36.239 60.0806 36.2444 60.1019 36.2471C60.1099 36.2471 60.1153 36.2497 60.1233 36.2524H60.1259H60.1366C60.1606 36.2551 60.1846 36.2578 60.2059 36.2604H60.2379H60.2406H60.2459C60.2833 36.2604 60.3233 36.2551 60.3606 36.2497C60.3686 36.2471 60.3793 36.2471 60.3873 36.2444C60.4246 36.2364 60.4593 36.2283 60.4939 36.215C60.5019 36.2123 60.5099 36.2096 60.5179 36.2043C60.5526 36.1909 60.5846 36.1749 60.6166 36.1561C60.6193 36.1535 60.6219 36.1535 60.6246 36.1535C60.6566 36.1347 60.6886 36.1107 60.7179 36.0866C60.7233 36.0813 60.7313 36.0759 60.7366 36.0706C60.7633 36.0465 60.7899 36.0224 60.8113 35.9957L64.318 31.888C64.5901 31.5698 64.5527 31.0911 64.2354 30.8183L64.2383 30.8209ZM36.5041 59.4567C35.7067 59.6118 34.8881 59.7321 34.0774 59.8203C33.6614 59.8658 33.3627 60.2375 33.4053 60.6547C33.448 61.0666 33.8134 61.3661 34.224 61.3287H34.2374C35.0907 61.2377 35.9494 61.1094 36.7894 60.9462C37.2001 60.866 37.4668 60.4702 37.3895 60.0584C37.3095 59.6465 36.9148 59.3764 36.5041 59.4567ZM42.3629 57.6596C41.6135 57.9805 40.8402 58.272 40.0669 58.5287C39.6695 58.6597 39.4535 59.0876 39.5842 59.486C39.6962 59.8283 40.0269 60.0342 40.3682 60.0048C40.4242 59.9995 40.4828 59.9888 40.5388 59.9701C41.3549 59.7 42.1655 59.3924 42.9549 59.0555C43.339 58.8924 43.5176 58.4458 43.3523 58.0607C43.1896 57.6756 42.7443 57.4964 42.3603 57.6622L42.3629 57.6596ZM47.7097 54.6591C47.0431 55.1324 46.3497 55.5817 45.6484 55.9962C45.2884 56.2074 45.1684 56.6727 45.379 57.0337C45.531 57.2932 45.8164 57.4295 46.0991 57.4055C46.2084 57.3948 46.3151 57.3627 46.4137 57.3039C47.1524 56.8679 47.8831 56.3946 48.5818 55.8972C48.9232 55.6538 49.0032 55.1805 48.7605 54.8408C48.5178 54.4985 48.0458 54.4183 47.7071 54.6617L47.7097 54.6591ZM52.3046 50.5915C51.7525 51.1932 51.1712 51.7816 50.5712 52.3351C50.2645 52.6186 50.2431 53.0973 50.5285 53.4075C50.6938 53.5867 50.9258 53.6696 51.1525 53.6482C51.3125 53.6348 51.4698 53.568 51.5978 53.4503C52.2272 52.8673 52.8432 52.2522 53.4219 51.6158C53.7046 51.3082 53.6833 50.8269 53.3766 50.5434C53.0699 50.2599 52.5899 50.2813 52.3072 50.5889L52.3046 50.5915ZM56.9794 45.3821C56.6194 45.1708 56.1554 45.2911 55.9447 45.6522C55.5314 46.3555 55.0834 47.0535 54.614 47.7193C54.374 48.0616 54.454 48.535 54.7954 48.7757C54.9474 48.8827 55.126 48.9281 55.2994 48.9121C55.5127 48.8934 55.7181 48.7837 55.8514 48.5938C56.3474 47.8905 56.8168 47.1577 57.2514 46.417C57.4621 46.056 57.3421 45.5907 56.9821 45.3794L56.9794 45.3821ZM59.4221 39.5736C59.0248 39.4425 58.5981 39.6592 58.4675 40.0549C58.2114 40.8305 57.9208 41.606 57.6008 42.3548C57.4381 42.7399 57.6141 43.1865 57.9981 43.3496C58.1155 43.4004 58.2408 43.4192 58.3608 43.4085C58.6301 43.3844 58.8755 43.2159 58.9902 42.9512C59.3262 42.1596 59.6328 41.3466 59.9022 40.5283C60.0328 40.1298 59.8168 39.7019 59.4221 39.5709L59.4221 39.5736Z"/>
</mask>
<path d="M16.818 22.5523C16.8713 22.1377 17.2527 21.8435 17.666 21.8997C18.0794 21.9532 18.3728 22.3356 18.3167 22.7502C17.9887 25.264 19.3887 27.6493 21.5701 28.2992C23.1409 28.7672 24.9303 28.2565 26.2369 26.9701C26.5356 26.676 27.0129 26.6813 27.3063 26.9808C27.5996 27.2804 27.5943 27.759 27.2956 28.0532C26.1222 29.2058 24.6369 29.8744 23.1409 29.9707C23.2449 30.8826 22.9755 31.7999 22.3622 32.4952C21.7382 33.2011 20.8448 33.5702 19.9301 33.5702C19.3434 33.5702 18.7461 33.4178 18.2074 33.1022C17.8474 32.8909 17.7247 32.4283 17.9327 32.0646C18.1434 31.7036 18.6048 31.5806 18.9674 31.7892C19.7301 32.2331 20.6821 32.1047 21.2315 31.4843C21.6102 31.0564 21.7355 30.4387 21.5862 29.861C21.4368 29.8289 21.2875 29.7942 21.1408 29.7487C18.2527 28.8903 16.394 25.7962 16.818 22.5494L16.818 22.5523ZM27.5225 35.0436C27.5545 34.6264 27.2425 34.2627 26.8265 34.2306C26.4879 34.2039 23.4584 34.0541 21.5384 36.6134C20.4584 38.0549 20.2984 39.5926 20.373 40.6836C19.661 40.6248 18.9303 40.697 18.2263 40.9109C17.8263 41.0313 17.5996 41.4538 17.7196 41.8549C17.8396 42.2561 18.261 42.4834 18.661 42.363C20.2557 41.8817 22.0024 42.3657 23.1091 43.5959C24.1918 44.7993 24.5092 46.4974 23.9331 48.0271C23.7864 48.4176 23.9838 48.8561 24.3731 49.0033C24.4611 49.0353 24.5518 49.0514 24.6398 49.0514C24.9465 49.0514 25.2318 48.8642 25.3465 48.562C26.1225 46.5002 25.6932 44.2083 24.2292 42.5797C23.5918 41.871 22.7971 41.3469 21.9304 41.026C21.8158 40.2611 21.7784 38.8144 22.7464 37.5254C24.2078 35.5758 26.6106 35.7363 26.7119 35.7443C27.1279 35.7764 27.4906 35.4635 27.5226 35.0463L27.5225 35.0436ZM53.8913 28.4596V33.5407C53.8913 34.8939 52.7953 35.993 51.4459 35.993H47.8512C47.4965 37.2017 47.0138 38.3704 46.4111 39.4748L48.9552 42.0261C49.9072 42.9807 49.9072 44.5372 48.9552 45.4919L45.3711 49.0861C44.9098 49.5487 44.2964 49.8055 43.6431 49.8055H43.6404C42.9871 49.8055 42.3737 49.5514 41.9124 49.0861L39.3683 46.5375C38.2696 47.1419 37.1043 47.6259 35.8962 47.9816V51.5865C35.8962 52.937 34.8002 54.0387 33.4509 54.0387H28.384C27.9547 54.0387 27.5333 53.9237 27.1653 53.7125C26.5333 53.9264 25.8773 54.0414 25.2132 54.0414C24.7439 54.0414 24.2745 53.9852 23.8105 53.8649C21.7304 53.3327 20.0664 51.6292 19.3917 49.4096C17.5436 49.9445 15.5303 49.4016 14.2448 47.9522C12.8848 46.4198 12.6501 44.1815 13.5462 42.3629C11.4714 41.6917 9.90607 39.8866 9.65539 37.7365C9.46605 36.0945 10.0714 34.4177 11.2608 33.2143C11.1141 32.9603 10.9861 32.6929 10.8768 32.4147C9.9301 29.9891 10.6928 27.1919 12.6848 25.5043C12.2235 24.6272 11.8501 23.4585 12.0501 22.1374C12.2688 20.7039 13.1542 19.3294 14.4822 18.3667C15.1996 17.8479 16.0023 17.4788 16.8343 17.2729C16.7383 15.9064 16.8956 14.1226 17.8876 12.3683C19.869 8.86769 23.8612 7.66429 26.9387 8.02261C27.1387 8.04668 27.3361 8.0761 27.5334 8.11354C27.8027 8.01459 28.0907 7.9611 28.3814 7.9611H33.4483C34.7977 7.9611 35.8936 9.06024 35.8936 10.4134V14.0182C37.1043 14.3739 38.2671 14.858 39.3657 15.4623L41.9072 12.9111C42.3685 12.4484 42.9845 12.1917 43.6379 12.1917C44.2913 12.1917 44.9046 12.4458 45.3659 12.9111L48.95 16.5026C49.902 17.46 49.902 19.0164 48.95 19.9711L46.4059 22.5224C47.0086 23.6295 47.494 24.7955 47.846 26.0042H51.4408C52.7902 26.0042 53.8861 27.1033 53.8861 28.4565L53.8913 28.4596ZM31.6719 39.8439C36.2 39.4562 39.7706 35.64 39.7706 31.0002C39.7706 26.3603 36.2025 22.5418 31.6719 22.1564V39.8467V39.8439ZM26.9144 52.1991C26.9624 52.1723 27.0104 52.1536 27.0611 52.1375C28.4424 51.5465 29.6212 50.3137 30.1599 48.7172V40.6491V40.6384V40.6277V21.3758V21.3651V21.3544V20.2553C30.0239 19.8755 29.6158 19.0011 28.6158 18.5304C27.6078 18.0571 26.6504 18.3218 26.3811 18.4154C25.9864 18.5518 25.5571 18.3405 25.4211 17.9448C25.2851 17.549 25.4958 17.1184 25.8905 16.9821C26.4105 16.8029 27.7785 16.4633 29.2559 17.1586C29.6026 17.3217 29.8986 17.5169 30.1573 17.7282V10.8047C29.3652 10.2806 28.2025 9.70293 26.7598 9.53445C25.4371 9.37935 23.8531 9.58794 22.413 10.2432C22.813 10.3047 23.2051 10.4143 23.5837 10.5828C25.6904 11.5081 26.2371 13.5726 26.3251 13.9764C26.4131 14.3855 26.1571 14.7894 25.7491 14.8776C25.6957 14.8883 25.6397 14.8963 25.5864 14.8963C25.2397 14.8963 24.925 14.6556 24.8477 14.3C24.8104 14.1288 24.4424 12.6152 22.9757 11.9707C21.9036 11.5001 20.6476 11.6605 19.6822 12.3852C19.5062 12.6152 19.3436 12.8613 19.1969 13.1233C18.4048 14.5246 18.2635 15.966 18.3329 17.0919C18.6849 17.0892 19.0342 17.116 19.3809 17.1748C22.4584 17.7016 24.7677 20.5738 24.7491 23.8577C24.7464 24.2749 24.4078 24.6119 23.9944 24.6119H23.9917C23.5731 24.6092 23.237 24.2696 23.2397 23.8497C23.253 21.3011 21.485 19.0735 19.1276 18.6697C18.7409 18.6029 18.3436 18.5895 17.9462 18.6243C17.8982 18.643 17.8475 18.659 17.7942 18.6697C17.7142 18.6831 17.6368 18.6858 17.5595 18.6751C16.7862 18.8061 16.0315 19.119 15.3648 19.6031C14.3621 20.3278 13.6981 21.3387 13.5407 22.3709C13.3621 23.553 13.8581 24.6093 14.3061 25.2885C14.5354 25.6362 14.4421 26.1068 14.0928 26.3368C12.266 27.5509 11.506 29.8775 12.2821 31.8644C12.9941 33.6856 14.8181 34.8463 16.8289 34.7499C17.2449 34.7285 17.5996 35.0521 17.621 35.472C17.6423 35.8892 17.3196 36.2448 16.9009 36.2663C16.7996 36.2716 16.6956 36.2743 16.5942 36.2743C14.8982 36.2743 13.3195 35.5924 12.1861 34.4424C11.4128 35.3062 11.0261 36.4508 11.1541 37.5659C11.3675 39.4032 12.9221 40.8927 14.8503 41.1067C15.1249 41.1361 15.3623 41.3179 15.4663 41.5747C15.5703 41.8314 15.5249 42.1282 15.3489 42.3422C14.2342 43.6954 14.2449 45.677 15.3729 46.9499C16.4103 48.1212 18.141 48.4368 19.5837 47.7174C19.7971 47.6105 20.0478 47.6131 20.2611 47.7201C20.4744 47.8271 20.6238 48.0303 20.6638 48.2657C21.0265 50.3222 22.4052 51.9454 24.1812 52.4001C25.0932 52.6327 26.0373 52.5445 26.9093 52.2049L26.9144 52.1991ZM52.3793 28.4596C52.3793 27.9435 51.9606 27.5236 51.4459 27.5236H47.2751C46.9311 27.5236 46.6298 27.2883 46.5418 26.954C46.1658 25.4885 45.5871 24.0872 44.8164 22.7849C44.6404 22.488 44.6884 22.1083 44.9338 21.8622L47.8832 18.9045C48.2459 18.5408 48.2459 17.9471 47.8832 17.5807L44.2991 13.9892C44.1231 13.8127 43.8884 13.7138 43.6404 13.7138C43.3897 13.7138 43.1577 13.81 42.979 13.9892L40.0296 16.9469C39.7843 17.193 39.4056 17.2384 39.1096 17.0619C37.8162 16.2917 36.4188 15.7114 34.9522 15.3317C34.6188 15.2461 34.3841 14.944 34.3841 14.599V10.4164C34.3841 9.90031 33.9655 9.48044 33.4508 9.48044H30.9067C31.0613 9.57939 31.2133 9.68369 31.3627 9.79333C31.5574 9.93507 31.6747 10.1651 31.6747 10.4057V20.6372C37.0375 21.0276 41.2856 25.5257 41.2856 31.0028C41.2856 36.48 37.0401 40.9776 31.6747 41.3685V48.8403C31.6747 48.9179 31.664 48.9954 31.64 49.0703C31.1973 50.4743 30.3573 51.6617 29.3013 52.5254H33.4534C33.9681 52.5254 34.3867 52.1056 34.3867 51.5894V47.4069C34.3867 47.0619 34.6187 46.7597 34.9548 46.6742C36.4214 46.2944 37.8215 45.7115 39.1122 44.944C39.4082 44.7675 39.7869 44.8156 40.0322 45.0589L42.9817 48.0167C43.1577 48.1932 43.3923 48.2921 43.643 48.2921C43.891 48.2921 44.1257 48.1958 44.3017 48.0193L47.8858 44.4251C48.2485 44.0614 48.2485 43.4651 47.8858 43.1014L44.9364 40.1437C44.691 39.9003 44.6457 39.5206 44.819 39.221C45.5871 37.9187 46.1685 36.5147 46.5444 35.0519C46.6297 34.7176 46.9311 34.4823 47.2777 34.4823H51.4486C51.9632 34.4823 52.3819 34.0624 52.3819 33.5463V28.4652L52.3793 28.4596ZM30.3975 59.9837C29.5815 59.9704 28.7575 59.9195 27.9468 59.8366C27.5307 59.7939 27.1601 60.0961 27.1174 60.5132C27.0748 60.9304 27.3761 61.3021 27.7921 61.3449C28.6428 61.4331 29.5095 61.484 30.3682 61.5H30.3815C30.7922 61.5 31.1309 61.1684 31.1362 60.7566C31.1442 60.3367 30.8109 59.9917 30.3949 59.9864L30.3975 59.9837ZM24.32 59.2296C23.5253 59.045 22.7306 58.8204 21.9573 58.569C21.5599 58.438 21.1333 58.6573 21.0053 59.0557C20.8773 59.4542 21.0933 59.8821 21.4906 60.0104C22.3066 60.2778 23.144 60.5105 23.9787 60.7057C24.0373 60.7191 24.0933 60.7244 24.152 60.7244C24.496 60.7244 24.8054 60.4891 24.888 60.1388C24.984 59.7323 24.7307 59.3231 24.3227 59.2295L24.32 59.2296ZM18.5358 57.2025C17.7998 56.8522 17.0691 56.4644 16.365 56.0526C16.005 55.8413 15.541 55.9643 15.3304 56.3253C15.1197 56.6864 15.2424 57.1517 15.6024 57.3629C16.3437 57.7962 17.1117 58.2053 17.8878 58.5717C17.9918 58.6225 18.1038 58.6439 18.2105 58.6439C18.4932 58.6439 18.7652 58.4834 18.8932 58.2107C19.0718 57.8336 18.9118 57.379 18.5332 57.1998L18.5358 57.2025ZM13.3117 53.9934C12.6663 53.496 12.0343 52.9638 11.4316 52.4103C11.1223 52.1295 10.6449 52.1509 10.3649 52.4584C10.0822 52.7686 10.1062 53.2473 10.4129 53.5281C11.0476 54.1084 11.7116 54.6674 12.3916 55.1915C12.5303 55.2985 12.6903 55.3493 12.853 55.3493C13.0796 55.3493 13.3036 55.2476 13.453 55.0524C13.7063 54.7208 13.645 54.2448 13.3143 53.9881L13.3117 53.9934ZM7.3675 47.8133C7.12483 47.4736 6.6528 47.3934 6.31412 47.6368C5.97544 47.8801 5.89544 48.3535 6.13811 48.6931C6.6368 49.3937 7.17013 50.081 7.72482 50.7362C7.87415 50.9127 8.08749 51.0037 8.30083 51.0037C8.47417 51.0037 8.64751 50.9448 8.78885 50.8245C9.10619 50.5544 9.14619 50.0757 8.87685 49.7548C8.34883 49.1317 7.84218 48.4791 7.3675 47.8133ZM4.35945 42.4648C4.19411 42.0797 3.74876 41.9032 3.36477 42.069C2.98076 42.2348 2.80476 42.6814 2.9701 43.0664C3.30877 43.8553 3.68747 44.6416 4.09278 45.3984C4.22878 45.6524 4.49012 45.7995 4.75946 45.7995C4.87947 45.7995 5.00214 45.7701 5.11681 45.7086C5.48482 45.5107 5.62349 45.0507 5.42615 44.6817C5.04214 43.9623 4.68216 43.2162 4.35945 42.4674V42.4648ZM3.12208 38.9882C2.89808 38.202 2.70606 37.3997 2.54873 36.5948C2.46873 36.183 2.07138 35.9155 1.66069 35.9958C1.25001 36.076 0.983336 36.4744 1.06334 36.8863C1.22868 37.7314 1.43135 38.5791 1.66602 39.4054C1.76202 39.7371 2.06337 39.9563 2.39138 39.9563C2.46071 39.9563 2.53005 39.9456 2.59939 39.9269C3.00206 39.8119 3.23407 39.3921 3.1194 38.9883L3.12208 38.9882ZM64.2383 30.8209C63.9209 30.5481 63.4436 30.5855 63.1716 30.9038L61.2568 33.1474C61.3075 32.4334 61.3315 31.7167 61.3315 31.0027C61.3315 22.8545 58.1688 15.1951 52.4218 9.43482C46.6776 3.67446 39.0377 0.5 30.9144 0.5C22.7891 0.5 15.1511 3.67165 9.40702 9.43482C3.66282 15.1952 0.5 22.8545 0.5 31.0027C0.5 31.6793 0.521334 32.3639 0.566668 33.0378C0.593336 33.439 0.924014 33.7465 1.32138 33.7465C1.33738 33.7465 1.35605 33.7465 1.37205 33.7439C1.78806 33.7171 2.10539 33.3561 2.07603 32.9362C2.03337 32.2971 2.01203 31.6473 2.01203 31.0028C2.01203 15.0185 14.9776 2.01647 30.917 2.01647C46.8564 2.01647 59.822 15.0185 59.822 31.0028C59.822 31.8264 59.7846 32.6528 59.718 33.4738L57.8059 30.8022C57.5632 30.4626 57.0912 30.3851 56.7499 30.6284C56.4112 30.8718 56.3338 31.3451 56.5765 31.6874L59.6246 35.9475L59.6272 35.9502C59.6432 35.9716 59.6592 35.993 59.6779 36.0117C59.6806 36.0144 59.6859 36.0197 59.6886 36.0224C59.7046 36.0385 59.7206 36.0545 59.7366 36.0679C59.7419 36.0732 59.7499 36.0786 59.7553 36.0839C59.7686 36.0973 59.7846 36.108 59.8006 36.1187C59.8086 36.124 59.8139 36.1294 59.8219 36.1321C59.8379 36.1428 59.8539 36.1535 59.8699 36.1615C59.8779 36.1668 59.8833 36.1695 59.8913 36.1722C59.9073 36.1802 59.9259 36.1882 59.9419 36.1962C59.9499 36.1989 59.9579 36.2016 59.9633 36.2069C59.9819 36.215 60.0006 36.2203 60.0166 36.2257C60.0246 36.2283 60.0326 36.231 60.0406 36.2337C60.0593 36.239 60.0806 36.2444 60.1019 36.2471C60.1099 36.2471 60.1153 36.2497 60.1233 36.2524H60.1259H60.1366C60.1606 36.2551 60.1846 36.2578 60.2059 36.2604H60.2379H60.2406H60.2459C60.2833 36.2604 60.3233 36.2551 60.3606 36.2497C60.3686 36.2471 60.3793 36.2471 60.3873 36.2444C60.4246 36.2364 60.4593 36.2283 60.4939 36.215C60.5019 36.2123 60.5099 36.2096 60.5179 36.2043C60.5526 36.1909 60.5846 36.1749 60.6166 36.1561C60.6193 36.1535 60.6219 36.1535 60.6246 36.1535C60.6566 36.1347 60.6886 36.1107 60.7179 36.0866C60.7233 36.0813 60.7313 36.0759 60.7366 36.0706C60.7633 36.0465 60.7899 36.0224 60.8113 35.9957L64.318 31.888C64.5901 31.5698 64.5527 31.0911 64.2354 30.8183L64.2383 30.8209ZM36.5041 59.4567C35.7067 59.6118 34.8881 59.7321 34.0774 59.8203C33.6614 59.8658 33.3627 60.2375 33.4053 60.6547C33.448 61.0666 33.8134 61.3661 34.224 61.3287H34.2374C35.0907 61.2377 35.9494 61.1094 36.7894 60.9462C37.2001 60.866 37.4668 60.4702 37.3895 60.0584C37.3095 59.6465 36.9148 59.3764 36.5041 59.4567ZM42.3629 57.6596C41.6135 57.9805 40.8402 58.272 40.0669 58.5287C39.6695 58.6597 39.4535 59.0876 39.5842 59.486C39.6962 59.8283 40.0269 60.0342 40.3682 60.0048C40.4242 59.9995 40.4828 59.9888 40.5388 59.9701C41.3549 59.7 42.1655 59.3924 42.9549 59.0555C43.339 58.8924 43.5176 58.4458 43.3523 58.0607C43.1896 57.6756 42.7443 57.4964 42.3603 57.6622L42.3629 57.6596ZM47.7097 54.6591C47.0431 55.1324 46.3497 55.5817 45.6484 55.9962C45.2884 56.2074 45.1684 56.6727 45.379 57.0337C45.531 57.2932 45.8164 57.4295 46.0991 57.4055C46.2084 57.3948 46.3151 57.3627 46.4137 57.3039C47.1524 56.8679 47.8831 56.3946 48.5818 55.8972C48.9232 55.6538 49.0032 55.1805 48.7605 54.8408C48.5178 54.4985 48.0458 54.4183 47.7071 54.6617L47.7097 54.6591ZM52.3046 50.5915C51.7525 51.1932 51.1712 51.7816 50.5712 52.3351C50.2645 52.6186 50.2431 53.0973 50.5285 53.4075C50.6938 53.5867 50.9258 53.6696 51.1525 53.6482C51.3125 53.6348 51.4698 53.568 51.5978 53.4503C52.2272 52.8673 52.8432 52.2522 53.4219 51.6158C53.7046 51.3082 53.6833 50.8269 53.3766 50.5434C53.0699 50.2599 52.5899 50.2813 52.3072 50.5889L52.3046 50.5915ZM56.9794 45.3821C56.6194 45.1708 56.1554 45.2911 55.9447 45.6522C55.5314 46.3555 55.0834 47.0535 54.614 47.7193C54.374 48.0616 54.454 48.535 54.7954 48.7757C54.9474 48.8827 55.126 48.9281 55.2994 48.9121C55.5127 48.8934 55.7181 48.7837 55.8514 48.5938C56.3474 47.8905 56.8168 47.1577 57.2514 46.417C57.4621 46.056 57.3421 45.5907 56.9821 45.3794L56.9794 45.3821ZM59.4221 39.5736C59.0248 39.4425 58.5981 39.6592 58.4675 40.0549C58.2114 40.8305 57.9208 41.606 57.6008 42.3548C57.4381 42.7399 57.6141 43.1865 57.9981 43.3496C58.1155 43.4004 58.2408 43.4192 58.3608 43.4085C58.6301 43.3844 58.8755 43.2159 58.9902 42.9512C59.3262 42.1596 59.6328 41.3466 59.9022 40.5283C60.0328 40.1298 59.8168 39.7019 59.4221 39.5709L59.4221 39.5736Z" fill="black"/>
<path d="M16.818 22.5523C16.8713 22.1377 17.2527 21.8435 17.666 21.8997C18.0794 21.9532 18.3728 22.3356 18.3167 22.7502C17.9887 25.264 19.3887 27.6493 21.5701 28.2992C23.1409 28.7672 24.9303 28.2565 26.2369 26.9701C26.5356 26.676 27.0129 26.6813 27.3063 26.9808C27.5996 27.2804 27.5943 27.759 27.2956 28.0532C26.1222 29.2058 24.6369 29.8744 23.1409 29.9707C23.2449 30.8826 22.9755 31.7999 22.3622 32.4952C21.7382 33.2011 20.8448 33.5702 19.9301 33.5702C19.3434 33.5702 18.7461 33.4178 18.2074 33.1022C17.8474 32.8909 17.7247 32.4283 17.9327 32.0646C18.1434 31.7036 18.6048 31.5806 18.9674 31.7892C19.7301 32.2331 20.6821 32.1047 21.2315 31.4843C21.6102 31.0564 21.7355 30.4387 21.5862 29.861C21.4368 29.8289 21.2875 29.7942 21.1408 29.7487C18.2527 28.8903 16.394 25.7962 16.818 22.5494L16.818 22.5523ZM27.5225 35.0436C27.5545 34.6264 27.2425 34.2627 26.8265 34.2306C26.4879 34.2039 23.4584 34.0541 21.5384 36.6134C20.4584 38.0549 20.2984 39.5926 20.373 40.6836C19.661 40.6248 18.9303 40.697 18.2263 40.9109C17.8263 41.0313 17.5996 41.4538 17.7196 41.8549C17.8396 42.2561 18.261 42.4834 18.661 42.363C20.2557 41.8817 22.0024 42.3657 23.1091 43.5959C24.1918 44.7993 24.5092 46.4974 23.9331 48.0271C23.7864 48.4176 23.9838 48.8561 24.3731 49.0033C24.4611 49.0353 24.5518 49.0514 24.6398 49.0514C24.9465 49.0514 25.2318 48.8642 25.3465 48.562C26.1225 46.5002 25.6932 44.2083 24.2292 42.5797C23.5918 41.871 22.7971 41.3469 21.9304 41.026C21.8158 40.2611 21.7784 38.8144 22.7464 37.5254C24.2078 35.5758 26.6106 35.7363 26.7119 35.7443C27.1279 35.7764 27.4906 35.4635 27.5226 35.0463L27.5225 35.0436ZM53.8913 28.4596V33.5407C53.8913 34.8939 52.7953 35.993 51.4459 35.993H47.8512C47.4965 37.2017 47.0138 38.3704 46.4111 39.4748L48.9552 42.0261C49.9072 42.9807 49.9072 44.5372 48.9552 45.4919L45.3711 49.0861C44.9098 49.5487 44.2964 49.8055 43.6431 49.8055H43.6404C42.9871 49.8055 42.3737 49.5514 41.9124 49.0861L39.3683 46.5375C38.2696 47.1419 37.1043 47.6259 35.8962 47.9816V51.5865C35.8962 52.937 34.8002 54.0387 33.4509 54.0387H28.384C27.9547 54.0387 27.5333 53.9237 27.1653 53.7125C26.5333 53.9264 25.8773 54.0414 25.2132 54.0414C24.7439 54.0414 24.2745 53.9852 23.8105 53.8649C21.7304 53.3327 20.0664 51.6292 19.3917 49.4096C17.5436 49.9445 15.5303 49.4016 14.2448 47.9522C12.8848 46.4198 12.6501 44.1815 13.5462 42.3629C11.4714 41.6917 9.90607 39.8866 9.65539 37.7365C9.46605 36.0945 10.0714 34.4177 11.2608 33.2143C11.1141 32.9603 10.9861 32.6929 10.8768 32.4147C9.9301 29.9891 10.6928 27.1919 12.6848 25.5043C12.2235 24.6272 11.8501 23.4585 12.0501 22.1374C12.2688 20.7039 13.1542 19.3294 14.4822 18.3667C15.1996 17.8479 16.0023 17.4788 16.8343 17.2729C16.7383 15.9064 16.8956 14.1226 17.8876 12.3683C19.869 8.86769 23.8612 7.66429 26.9387 8.02261C27.1387 8.04668 27.3361 8.0761 27.5334 8.11354C27.8027 8.01459 28.0907 7.9611 28.3814 7.9611H33.4483C34.7977 7.9611 35.8936 9.06024 35.8936 10.4134V14.0182C37.1043 14.3739 38.2671 14.858 39.3657 15.4623L41.9072 12.9111C42.3685 12.4484 42.9845 12.1917 43.6379 12.1917C44.2913 12.1917 44.9046 12.4458 45.3659 12.9111L48.95 16.5026C49.902 17.46 49.902 19.0164 48.95 19.9711L46.4059 22.5224C47.0086 23.6295 47.494 24.7955 47.846 26.0042H51.4408C52.7902 26.0042 53.8861 27.1033 53.8861 28.4565L53.8913 28.4596ZM31.6719 39.8439C36.2 39.4562 39.7706 35.64 39.7706 31.0002C39.7706 26.3603 36.2025 22.5418 31.6719 22.1564V39.8467V39.8439ZM26.9144 52.1991C26.9624 52.1723 27.0104 52.1536 27.0611 52.1375C28.4424 51.5465 29.6212 50.3137 30.1599 48.7172V40.6491V40.6384V40.6277V21.3758V21.3651V21.3544V20.2553C30.0239 19.8755 29.6158 19.0011 28.6158 18.5304C27.6078 18.0571 26.6504 18.3218 26.3811 18.4154C25.9864 18.5518 25.5571 18.3405 25.4211 17.9448C25.2851 17.549 25.4958 17.1184 25.8905 16.9821C26.4105 16.8029 27.7785 16.4633 29.2559 17.1586C29.6026 17.3217 29.8986 17.5169 30.1573 17.7282V10.8047C29.3652 10.2806 28.2025 9.70293 26.7598 9.53445C25.4371 9.37935 23.8531 9.58794 22.413 10.2432C22.813 10.3047 23.2051 10.4143 23.5837 10.5828C25.6904 11.5081 26.2371 13.5726 26.3251 13.9764C26.4131 14.3855 26.1571 14.7894 25.7491 14.8776C25.6957 14.8883 25.6397 14.8963 25.5864 14.8963C25.2397 14.8963 24.925 14.6556 24.8477 14.3C24.8104 14.1288 24.4424 12.6152 22.9757 11.9707C21.9036 11.5001 20.6476 11.6605 19.6822 12.3852C19.5062 12.6152 19.3436 12.8613 19.1969 13.1233C18.4048 14.5246 18.2635 15.966 18.3329 17.0919C18.6849 17.0892 19.0342 17.116 19.3809 17.1748C22.4584 17.7016 24.7677 20.5738 24.7491 23.8577C24.7464 24.2749 24.4078 24.6119 23.9944 24.6119H23.9917C23.5731 24.6092 23.237 24.2696 23.2397 23.8497C23.253 21.3011 21.485 19.0735 19.1276 18.6697C18.7409 18.6029 18.3436 18.5895 17.9462 18.6243C17.8982 18.643 17.8475 18.659 17.7942 18.6697C17.7142 18.6831 17.6368 18.6858 17.5595 18.6751C16.7862 18.8061 16.0315 19.119 15.3648 19.6031C14.3621 20.3278 13.6981 21.3387 13.5407 22.3709C13.3621 23.553 13.8581 24.6093 14.3061 25.2885C14.5354 25.6362 14.4421 26.1068 14.0928 26.3368C12.266 27.5509 11.506 29.8775 12.2821 31.8644C12.9941 33.6856 14.8181 34.8463 16.8289 34.7499C17.2449 34.7285 17.5996 35.0521 17.621 35.472C17.6423 35.8892 17.3196 36.2448 16.9009 36.2663C16.7996 36.2716 16.6956 36.2743 16.5942 36.2743C14.8982 36.2743 13.3195 35.5924 12.1861 34.4424C11.4128 35.3062 11.0261 36.4508 11.1541 37.5659C11.3675 39.4032 12.9221 40.8927 14.8503 41.1067C15.1249 41.1361 15.3623 41.3179 15.4663 41.5747C15.5703 41.8314 15.5249 42.1282 15.3489 42.3422C14.2342 43.6954 14.2449 45.677 15.3729 46.9499C16.4103 48.1212 18.141 48.4368 19.5837 47.7174C19.7971 47.6105 20.0478 47.6131 20.2611 47.7201C20.4744 47.8271 20.6238 48.0303 20.6638 48.2657C21.0265 50.3222 22.4052 51.9454 24.1812 52.4001C25.0932 52.6327 26.0373 52.5445 26.9093 52.2049L26.9144 52.1991ZM52.3793 28.4596C52.3793 27.9435 51.9606 27.5236 51.4459 27.5236H47.2751C46.9311 27.5236 46.6298 27.2883 46.5418 26.954C46.1658 25.4885 45.5871 24.0872 44.8164 22.7849C44.6404 22.488 44.6884 22.1083 44.9338 21.8622L47.8832 18.9045C48.2459 18.5408 48.2459 17.9471 47.8832 17.5807L44.2991 13.9892C44.1231 13.8127 43.8884 13.7138 43.6404 13.7138C43.3897 13.7138 43.1577 13.81 42.979 13.9892L40.0296 16.9469C39.7843 17.193 39.4056 17.2384 39.1096 17.0619C37.8162 16.2917 36.4188 15.7114 34.9522 15.3317C34.6188 15.2461 34.3841 14.944 34.3841 14.599V10.4164C34.3841 9.90031 33.9655 9.48044 33.4508 9.48044H30.9067C31.0613 9.57939 31.2133 9.68369 31.3627 9.79333C31.5574 9.93507 31.6747 10.1651 31.6747 10.4057V20.6372C37.0375 21.0276 41.2856 25.5257 41.2856 31.0028C41.2856 36.48 37.0401 40.9776 31.6747 41.3685V48.8403C31.6747 48.9179 31.664 48.9954 31.64 49.0703C31.1973 50.4743 30.3573 51.6617 29.3013 52.5254H33.4534C33.9681 52.5254 34.3867 52.1056 34.3867 51.5894V47.4069C34.3867 47.0619 34.6187 46.7597 34.9548 46.6742C36.4214 46.2944 37.8215 45.7115 39.1122 44.944C39.4082 44.7675 39.7869 44.8156 40.0322 45.0589L42.9817 48.0167C43.1577 48.1932 43.3923 48.2921 43.643 48.2921C43.891 48.2921 44.1257 48.1958 44.3017 48.0193L47.8858 44.4251C48.2485 44.0614 48.2485 43.4651 47.8858 43.1014L44.9364 40.1437C44.691 39.9003 44.6457 39.5206 44.819 39.221C45.5871 37.9187 46.1685 36.5147 46.5444 35.0519C46.6297 34.7176 46.9311 34.4823 47.2777 34.4823H51.4486C51.9632 34.4823 52.3819 34.0624 52.3819 33.5463V28.4652L52.3793 28.4596ZM30.3975 59.9837C29.5815 59.9704 28.7575 59.9195 27.9468 59.8366C27.5307 59.7939 27.1601 60.0961 27.1174 60.5132C27.0748 60.9304 27.3761 61.3021 27.7921 61.3449C28.6428 61.4331 29.5095 61.484 30.3682 61.5H30.3815C30.7922 61.5 31.1309 61.1684 31.1362 60.7566C31.1442 60.3367 30.8109 59.9917 30.3949 59.9864L30.3975 59.9837ZM24.32 59.2296C23.5253 59.045 22.7306 58.8204 21.9573 58.569C21.5599 58.438 21.1333 58.6573 21.0053 59.0557C20.8773 59.4542 21.0933 59.8821 21.4906 60.0104C22.3066 60.2778 23.144 60.5105 23.9787 60.7057C24.0373 60.7191 24.0933 60.7244 24.152 60.7244C24.496 60.7244 24.8054 60.4891 24.888 60.1388C24.984 59.7323 24.7307 59.3231 24.3227 59.2295L24.32 59.2296ZM18.5358 57.2025C17.7998 56.8522 17.0691 56.4644 16.365 56.0526C16.005 55.8413 15.541 55.9643 15.3304 56.3253C15.1197 56.6864 15.2424 57.1517 15.6024 57.3629C16.3437 57.7962 17.1117 58.2053 17.8878 58.5717C17.9918 58.6225 18.1038 58.6439 18.2105 58.6439C18.4932 58.6439 18.7652 58.4834 18.8932 58.2107C19.0718 57.8336 18.9118 57.379 18.5332 57.1998L18.5358 57.2025ZM13.3117 53.9934C12.6663 53.496 12.0343 52.9638 11.4316 52.4103C11.1223 52.1295 10.6449 52.1509 10.3649 52.4584C10.0822 52.7686 10.1062 53.2473 10.4129 53.5281C11.0476 54.1084 11.7116 54.6674 12.3916 55.1915C12.5303 55.2985 12.6903 55.3493 12.853 55.3493C13.0796 55.3493 13.3036 55.2476 13.453 55.0524C13.7063 54.7208 13.645 54.2448 13.3143 53.9881L13.3117 53.9934ZM7.3675 47.8133C7.12483 47.4736 6.6528 47.3934 6.31412 47.6368C5.97544 47.8801 5.89544 48.3535 6.13811 48.6931C6.6368 49.3937 7.17013 50.081 7.72482 50.7362C7.87415 50.9127 8.08749 51.0037 8.30083 51.0037C8.47417 51.0037 8.64751 50.9448 8.78885 50.8245C9.10619 50.5544 9.14619 50.0757 8.87685 49.7548C8.34883 49.1317 7.84218 48.4791 7.3675 47.8133ZM4.35945 42.4648C4.19411 42.0797 3.74876 41.9032 3.36477 42.069C2.98076 42.2348 2.80476 42.6814 2.9701 43.0664C3.30877 43.8553 3.68747 44.6416 4.09278 45.3984C4.22878 45.6524 4.49012 45.7995 4.75946 45.7995C4.87947 45.7995 5.00214 45.7701 5.11681 45.7086C5.48482 45.5107 5.62349 45.0507 5.42615 44.6817C5.04214 43.9623 4.68216 43.2162 4.35945 42.4674V42.4648ZM3.12208 38.9882C2.89808 38.202 2.70606 37.3997 2.54873 36.5948C2.46873 36.183 2.07138 35.9155 1.66069 35.9958C1.25001 36.076 0.983336 36.4744 1.06334 36.8863C1.22868 37.7314 1.43135 38.5791 1.66602 39.4054C1.76202 39.7371 2.06337 39.9563 2.39138 39.9563C2.46071 39.9563 2.53005 39.9456 2.59939 39.9269C3.00206 39.8119 3.23407 39.3921 3.1194 38.9883L3.12208 38.9882ZM64.2383 30.8209C63.9209 30.5481 63.4436 30.5855 63.1716 30.9038L61.2568 33.1474C61.3075 32.4334 61.3315 31.7167 61.3315 31.0027C61.3315 22.8545 58.1688 15.1951 52.4218 9.43482C46.6776 3.67446 39.0377 0.5 30.9144 0.5C22.7891 0.5 15.1511 3.67165 9.40702 9.43482C3.66282 15.1952 0.5 22.8545 0.5 31.0027C0.5 31.6793 0.521334 32.3639 0.566668 33.0378C0.593336 33.439 0.924014 33.7465 1.32138 33.7465C1.33738 33.7465 1.35605 33.7465 1.37205 33.7439C1.78806 33.7171 2.10539 33.3561 2.07603 32.9362C2.03337 32.2971 2.01203 31.6473 2.01203 31.0028C2.01203 15.0185 14.9776 2.01647 30.917 2.01647C46.8564 2.01647 59.822 15.0185 59.822 31.0028C59.822 31.8264 59.7846 32.6528 59.718 33.4738L57.8059 30.8022C57.5632 30.4626 57.0912 30.3851 56.7499 30.6284C56.4112 30.8718 56.3338 31.3451 56.5765 31.6874L59.6246 35.9475L59.6272 35.9502C59.6432 35.9716 59.6592 35.993 59.6779 36.0117C59.6806 36.0144 59.6859 36.0197 59.6886 36.0224C59.7046 36.0385 59.7206 36.0545 59.7366 36.0679C59.7419 36.0732 59.7499 36.0786 59.7553 36.0839C59.7686 36.0973 59.7846 36.108 59.8006 36.1187C59.8086 36.124 59.8139 36.1294 59.8219 36.1321C59.8379 36.1428 59.8539 36.1535 59.8699 36.1615C59.8779 36.1668 59.8833 36.1695 59.8913 36.1722C59.9073 36.1802 59.9259 36.1882 59.9419 36.1962C59.9499 36.1989 59.9579 36.2016 59.9633 36.2069C59.9819 36.215 60.0006 36.2203 60.0166 36.2257C60.0246 36.2283 60.0326 36.231 60.0406 36.2337C60.0593 36.239 60.0806 36.2444 60.1019 36.2471C60.1099 36.2471 60.1153 36.2497 60.1233 36.2524H60.1259H60.1366C60.1606 36.2551 60.1846 36.2578 60.2059 36.2604H60.2379H60.2406H60.2459C60.2833 36.2604 60.3233 36.2551 60.3606 36.2497C60.3686 36.2471 60.3793 36.2471 60.3873 36.2444C60.4246 36.2364 60.4593 36.2283 60.4939 36.215C60.5019 36.2123 60.5099 36.2096 60.5179 36.2043C60.5526 36.1909 60.5846 36.1749 60.6166 36.1561C60.6193 36.1535 60.6219 36.1535 60.6246 36.1535C60.6566 36.1347 60.6886 36.1107 60.7179 36.0866C60.7233 36.0813 60.7313 36.0759 60.7366 36.0706C60.7633 36.0465 60.7899 36.0224 60.8113 35.9957L64.318 31.888C64.5901 31.5698 64.5527 31.0911 64.2354 30.8183L64.2383 30.8209ZM36.5041 59.4567C35.7067 59.6118 34.8881 59.7321 34.0774 59.8203C33.6614 59.8658 33.3627 60.2375 33.4053 60.6547C33.448 61.0666 33.8134 61.3661 34.224 61.3287H34.2374C35.0907 61.2377 35.9494 61.1094 36.7894 60.9462C37.2001 60.866 37.4668 60.4702 37.3895 60.0584C37.3095 59.6465 36.9148 59.3764 36.5041 59.4567ZM42.3629 57.6596C41.6135 57.9805 40.8402 58.272 40.0669 58.5287C39.6695 58.6597 39.4535 59.0876 39.5842 59.486C39.6962 59.8283 40.0269 60.0342 40.3682 60.0048C40.4242 59.9995 40.4828 59.9888 40.5388 59.9701C41.3549 59.7 42.1655 59.3924 42.9549 59.0555C43.339 58.8924 43.5176 58.4458 43.3523 58.0607C43.1896 57.6756 42.7443 57.4964 42.3603 57.6622L42.3629 57.6596ZM47.7097 54.6591C47.0431 55.1324 46.3497 55.5817 45.6484 55.9962C45.2884 56.2074 45.1684 56.6727 45.379 57.0337C45.531 57.2932 45.8164 57.4295 46.0991 57.4055C46.2084 57.3948 46.3151 57.3627 46.4137 57.3039C47.1524 56.8679 47.8831 56.3946 48.5818 55.8972C48.9232 55.6538 49.0032 55.1805 48.7605 54.8408C48.5178 54.4985 48.0458 54.4183 47.7071 54.6617L47.7097 54.6591ZM52.3046 50.5915C51.7525 51.1932 51.1712 51.7816 50.5712 52.3351C50.2645 52.6186 50.2431 53.0973 50.5285 53.4075C50.6938 53.5867 50.9258 53.6696 51.1525 53.6482C51.3125 53.6348 51.4698 53.568 51.5978 53.4503C52.2272 52.8673 52.8432 52.2522 53.4219 51.6158C53.7046 51.3082 53.6833 50.8269 53.3766 50.5434C53.0699 50.2599 52.5899 50.2813 52.3072 50.5889L52.3046 50.5915ZM56.9794 45.3821C56.6194 45.1708 56.1554 45.2911 55.9447 45.6522C55.5314 46.3555 55.0834 47.0535 54.614 47.7193C54.374 48.0616 54.454 48.535 54.7954 48.7757C54.9474 48.8827 55.126 48.9281 55.2994 48.9121C55.5127 48.8934 55.7181 48.7837 55.8514 48.5938C56.3474 47.8905 56.8168 47.1577 57.2514 46.417C57.4621 46.056 57.3421 45.5907 56.9821 45.3794L56.9794 45.3821ZM59.4221 39.5736C59.0248 39.4425 58.5981 39.6592 58.4675 40.0549C58.2114 40.8305 57.9208 41.606 57.6008 42.3548C57.4381 42.7399 57.6141 43.1865 57.9981 43.3496C58.1155 43.4004 58.2408 43.4192 58.3608 43.4085C58.6301 43.3844 58.8755 43.2159 58.9902 42.9512C59.3262 42.1596 59.6328 41.3466 59.9022 40.5283C60.0328 40.1298 59.8168 39.7019 59.4221 39.5709L59.4221 39.5736Z" stroke="black" mask="url(#path-1-outside-1_9354_6430)"/>
</svg>
