<svg width="52" height="62" viewBox="0 0 52 62" fill="none" xmlns="http://www.w3.org/2000/svg">
<path d="M41.2683 23C40.5583 23 39.9583 23.6 39.9583 24.3C39.9583 32 33.5883 38.3 25.7983 38.3C25.0883 38.3 24.4883 38.9 24.4883 39.6C24.4883 40.3 25.0983 40.9 25.7983 40.9C35.0083 40.9 42.5883 33.5 42.5883 24.3C42.5883 23.5 41.9783 23 41.2683 23Z" fill="black"/>
<path d="M27.1117 8.9001C27.1117 8.2001 26.5017 7.6001 25.8017 7.6001C16.5917 7.6001 9.01172 15.0001 9.01172 24.2001C9.01172 24.9001 9.62172 25.5001 10.3217 25.5001C11.0217 25.5001 11.6417 24.9001 11.6417 24.2001C11.6417 16.5001 18.0117 10.2001 25.8017 10.2001C26.5117 10.2001 27.1117 9.6001 27.1117 8.9001Z" fill="black"/>
<path d="M33.48 31.8998V28.0998C33.48 25.1998 31.86 22.6998 29.43 21.3998C30.34 20.4998 30.85 19.2998 30.85 17.8998C30.85 15.0998 28.52 12.7998 25.69 12.7998C22.86 12.7998 20.53 15.0998 20.53 17.8998C20.53 19.2998 21.04 20.4998 21.95 21.3998C19.52 22.6998 18 25.1998 18 28.0998V31.8998C18 32.5998 18.61 33.1998 19.32 33.1998H32.17C32.98 33.0998 33.48 32.5998 33.48 31.8998ZM23.27 17.8998C23.27 16.4998 24.38 15.3998 25.8 15.3998C27.22 15.3998 28.33 16.4998 28.33 17.8998C28.33 19.2998 27.22 20.3998 25.8 20.3998C24.38 20.3998 23.27 19.2998 23.27 17.8998ZM30.95 30.5998H20.63V28.0998C20.63 25.2998 22.96 22.9998 25.79 22.9998C28.62 22.9998 30.95 25.2998 30.95 28.0998V30.5998Z" fill="black"/>
<path d="M25.8003 0C12.2403 0 1.32031 10.9 1.32031 24.2C1.32031 35.3 9.01031 44.8 19.3303 47.6V52.3C19.3303 53 19.9403 53.6 20.6403 53.6H21.9503V60C21.9503 60.7 22.5603 61.3 23.2703 61.3C23.9803 61.3 24.5803 60.7 24.5803 60V53.6H27.1103V60C27.1103 60.7 27.7203 61.3 28.4203 61.3C29.1203 61.3 29.7403 60.7 29.7403 60V53.6H31.0503C31.7603 53.6 32.3603 53 32.3603 52.3V47.6C42.7803 44.8 50.3703 35.4 50.3703 24.2C50.2703 10.9 39.3403 0 25.7903 0L25.8003 0ZM29.6403 51H21.9503V48.1C24.4803 48.5 27.1103 48.5 29.6403 48.1V51ZM25.8003 45.9C13.7603 45.9 3.85031 36.2 3.85031 24.2C3.85031 12.2 13.6603 2.5 25.8003 2.5C37.9403 2.5 47.7503 12.2 47.7503 24.2C47.7503 36.2 37.8403 45.9 25.8003 45.9Z" fill="black"/>
<path d="M2.53 48.3999H0V50.8999H2.53V48.3999Z" fill="black"/>
<path d="M7.69016 48.3999H5.16016V50.8999H7.69016V48.3999Z" fill="black"/>
<path d="M12.8503 48.3999H10.3203V50.8999H12.8503V48.3999Z" fill="black"/>
<path d="M41.1706 48.3999H38.6406V50.8999H41.1706V48.3999Z" fill="black"/>
<path d="M46.3308 48.3999H43.8008V50.8999H46.3308V48.3999Z" fill="black"/>
<path d="M51.4909 48.3999H48.9609V50.8999H51.4909V48.3999Z" fill="black"/>
</svg>
