<svg width="63" height="62" viewBox="0 0 63 62" fill="none" xmlns="http://www.w3.org/2000/svg">
<path d="M62.11 30.7C62.11 26.9 60.09 23.3 56.44 20.3C56.95 15.6 55.73 11.7 53 9C50.27 6.3 46.32 5.2 41.57 5.6C38.54 2 34.89 0 31.05 0C27.21 0 23.56 2 20.53 5.6C15.78 5.1 11.83 6.3 9.1 9C6.37 11.7 5.26 15.6 5.66 20.3C2.02 23.3 0 26.9 0 30.7C0 34.5 2.02 38.1 5.66 41.1C5.15 45.8 6.37 49.7 9.1 52.4C12.13 55.4 16.28 56.2 20.53 55.8C23.56 59.4 27.21 61.4 31.05 61.4C34.89 61.4 38.54 59.4 41.57 55.8C46.83 56.3 50.57 54.8 53 52.4C55.73 49.7 56.84 45.8 56.44 41.1C60.08 38.1 62.11 34.5 62.11 30.7ZM51.19 10.9C53.01 12.7 54.02 15.4 53.92 18.6C51.69 17.2 49.27 16.1 46.74 15.3C45.93 12.8 44.82 10.4 43.4 8.2C43.5 8.2 49.57 9.2 51.19 10.9ZM51.69 27.9C50.78 26.4 49.77 24.9 48.65 23.5C48.45 21.7 48.04 20 47.64 18.3C49.76 19.1 51.79 20.2 53.61 21.5C53.31 23.7 52.6 25.9 51.69 27.9ZM53.72 39.9C51.9 41.2 49.77 42.2 47.75 43.1C48.15 41.4 48.56 39.7 48.76 37.9C49.87 36.5 50.88 35 51.79 33.5C52.6 35.5 53.31 37.7 53.71 39.9H53.72ZM40.46 53C38.23 52.6 36.01 51.9 33.99 51C35.51 50.1 37.03 49.1 38.44 48C40.26 47.8 41.98 47.4 43.7 47C42.89 49.1 41.78 51.2 40.46 53ZM18.61 47C20.33 47.4 22.05 47.8 23.87 48C25.29 49.1 26.8 50.1 28.32 51C26.3 51.9 24.07 52.6 21.85 53C20.54 51.2 19.42 49.1 18.61 47ZM10.62 33.5C11.53 35 12.54 36.5 13.65 37.9C13.85 39.7 14.26 41.4 14.66 43.1C12.54 42.3 10.51 41.2 8.69 39.9C8.99 37.7 9.7 35.5 10.61 33.5H10.62ZM8.6 21.5C10.42 20.2 12.55 19.2 14.57 18.3C14.17 20 13.76 21.7 13.56 23.5C12.45 24.9 11.44 26.4 10.53 27.9C9.72 25.9 9.01 23.7 8.61 21.5H8.6ZM21.85 8.4C24.08 8.8 26.3 9.5 28.32 10.4C26.8 11.3 25.28 12.3 23.87 13.4C22.05 13.6 20.33 14 18.61 14.4C19.42 12.3 20.53 10.2 21.85 8.4ZM43.7 14.4C41.98 14 40.26 13.6 38.44 13.4C37.02 12.3 35.51 11.3 33.99 10.4C36.11 9.5 38.24 8.8 40.46 8.4C41.77 10.2 42.89 12.3 43.7 14.4ZM46.23 36.9C44.41 39.2 42.39 41.3 40.16 43.3V38.3C40.16 34.9 38.24 31.9 35.3 30.4C36.72 29.2 37.53 27.5 37.53 25.6C37.53 22.1 34.6 19.2 31.06 19.2C27.52 19.2 24.59 22.1 24.59 25.6C24.59 27.5 25.5 29.3 26.82 30.4C23.99 31.9 21.96 34.9 21.96 38.3V43.3C19.73 41.3 17.71 39.1 15.89 36.9C15.38 32.9 15.38 28.6 15.89 24.5C18.42 21.3 21.45 18.3 24.69 15.8C28.74 15.3 33.09 15.3 37.23 15.8C40.47 18.3 43.5 21.3 46.03 24.5C46.74 28.6 46.74 32.8 46.23 36.9ZM24.68 45.5V38.4C24.68 34.9 27.61 32 31.15 32C34.69 32 37.62 34.9 37.62 38.4V45.5C37.5533 45.5667 37.4867 45.6333 37.42 45.7C33.27 46.2 29.02 46.2 24.88 45.7C24.88 45.6 24.78 45.5 24.68 45.5ZM27.31 25.6C27.31 23.5 29.03 21.8 31.15 21.8C33.27 21.8 34.99 23.5 34.99 25.6C34.99 27.7 33.27 29.4 31.15 29.4C29.03 29.4 27.31 27.7 27.31 25.6ZM42.49 16.7C43.3 16.9 44.01 17.1 44.82 17.3C45.02 18 45.22 18.8 45.43 19.6C44.42 18.6 43.51 17.6 42.5 16.7H42.49ZM33.18 12.9C31.87 12.9 30.55 12.8 29.03 12.9C29.74 12.5 30.34 12.1 31.05 11.7C31.86 12.1 32.57 12.5 33.17 12.9H33.18ZM19.83 16.7C18.82 17.6 17.91 18.5 16.9 19.6C17.1 18.8 17.3 18.1 17.51 17.3C18.32 17.1 19.13 16.9 19.84 16.7H19.83ZM13.15 28.7C13.15 30 13.05 31.3 13.15 32.8C12.75 32.1 12.34 31.5 11.94 30.8C12.34 30 12.75 29.3 13.15 28.7ZM16.99 41.9C17.9 42.9 18.81 43.8 19.92 44.8C19.11 44.6 18.4 44.4 17.59 44.2C17.39 43.4 17.19 42.6 16.98 41.9H16.99ZM29.13 48.5C30.55 48.6 31.86 48.6 33.28 48.5C32.57 48.9 31.97 49.3 31.26 49.7C30.45 49.3 29.74 48.9 29.14 48.5H29.13ZM42.49 44.7C43.5 43.8 44.41 42.9 45.42 41.8C45.22 42.6 45.02 43.3 44.81 44.1C44 44.3 43.19 44.5 42.48 44.7H42.49ZM49.16 32.7C49.26 31.3 49.26 30 49.16 28.6C49.56 29.3 49.97 29.9 50.37 30.6C49.97 31.4 49.56 32.1 49.16 32.7ZM38.64 6.2C36.11 6.8 33.58 7.7 31.15 8.9C28.82 7.7 26.29 6.8 23.66 6.2C28.31 1.6 33.88 1.4 38.63 6.2H38.64ZM18.92 8.2C17.5 10.4 16.39 12.8 15.58 15.3C13.05 16.1 10.62 17.2 8.4 18.6C8.3 12.2 12.14 8.1 18.92 8.2ZM6.37 23.3C6.98 25.8 7.89 28.3 9.1 30.7C7.89 33 6.98 35.5 6.37 38.1C1.72 33.5 1.51 28 6.37 23.3ZM8.4 42.8C10.63 44.2 13.05 45.3 15.58 46.1C16.39 48.6 17.5 51 18.92 53.2C12.34 53.3 8.3 49.5 8.4 42.8ZM23.67 55.2C26.3 54.6 28.73 53.7 31.16 52.5C33.49 53.7 36.02 54.6 38.65 55.2C34 59.8 28.43 60 23.68 55.2H23.67ZM43.4 53.2C44.82 51 45.93 48.6 46.74 46.1C49.27 45.3 51.7 44.2 53.92 42.8C54.02 49.3 50.18 53.3 43.4 53.2ZM53.21 30.7C54.42 28.3 55.33 25.8 55.94 23.3C60.69 27.8 60.8 33.4 55.94 38C55.33 35.5 54.42 33.1 53.21 30.7Z" fill="black"/>
</svg>
