<svg width="750" height="1050" viewBox="0 0 750 1050" fill="none" xmlns="http://www.w3.org/2000/svg">
<g clip-path="url(#clip0_26_398)">
<rect width="750" height="1050" rx="90" fill="white"/>
<rect x="25" y="25" width="700" height="1000" rx="70" fill="black"/>
<path d="M701.88 873.697V938.337C701.88 949.137 701.35 959.137 696.7 969.087C692.91 977.217 687.09 984.787 679.15 989.207C674.86 991.597 670.19 992.907 665.3 992.907C662.1 992.907 659 992.347 656.04 991.287C656.02 991.277 655.99 991.267 655.98 991.257C652.6 990.057 649.59 988.017 647.07 985.487C643.64 982.067 638.16 976.587 638.16 976.577L620.11 958.527L614 952.417C615.97 953.107 618.01 953.557 620.11 953.737C620.85 953.807 621.6 953.847 622.36 953.847C624.61 953.847 626.8 953.547 628.93 952.977C631.46 952.287 633.89 951.227 636.17 949.827C636.9 949.377 637.62 948.887 638.33 948.367C648.88 940.607 656.05 925.407 656.05 907.917V889.487C656.05 889.437 656.06 889.367 656.05 889.047V888.677V830.137C656.05 829.127 657.28 828.617 657.99 829.337L701.55 872.897C701.76 873.117 701.88 873.397 701.88 873.697Z" fill="#FFFEFE"/>
<path d="M636.21 867.867V916.137C636.21 916.207 636.2 916.277 636.19 916.337C635.21 922.397 632.29 927.317 628.47 929.547C627.05 930.377 625.5 930.837 623.88 930.837C623.26 930.837 622.64 930.767 622.04 930.637C621.66 930.547 621.28 930.437 620.91 930.307C620.45 930.137 620.14 929.717 620.14 929.227V854.077C620.14 853.067 621.36 852.557 622.08 853.277L630.83 862.027H630.84L635.86 867.057C636.09 867.277 636.21 867.567 636.21 867.867Z" fill="white"/>
<path d="M676.95 877.767V890.607L667.86 881.517V868.677L676.95 877.767Z" fill="black"/>
<path d="M667.86 894.357L676.95 903.437V916.287L667.86 907.197V894.357Z" fill="black"/>
<path d="M686.02 899.677V912.517L676.95 903.437V890.607L686.02 899.677Z" fill="black"/>
<path d="M695.1 908.747L686.02 899.677V886.837L695.1 895.917V908.747Z" fill="black"/>
<path d="M686.02 925.357V912.517L695.1 921.597V934.437L686.02 925.357Z" fill="black"/>
<path d="M136.88 98.6973V163.337C136.88 174.137 136.35 184.137 131.7 194.087C127.91 202.217 122.09 209.787 114.15 214.207C109.86 216.597 105.19 217.907 100.3 217.907C97.1 217.907 94 217.347 91.04 216.287C91.02 216.277 90.99 216.267 90.98 216.257C87.6 215.057 84.59 213.017 82.07 210.487C78.64 207.067 73.16 201.587 73.16 201.577L55.11 183.527L49 177.417C50.97 178.107 53.01 178.557 55.11 178.737C55.85 178.807 56.6 178.847 57.36 178.847C59.61 178.847 61.8 178.547 63.93 177.977C66.46 177.287 68.89 176.227 71.17 174.827C71.9 174.377 72.62 173.887 73.33 173.367C83.88 165.607 91.05 150.407 91.05 132.917V114.487C91.05 114.437 91.06 114.367 91.05 114.047V113.677V55.1373C91.05 54.1273 92.28 53.6173 92.99 54.3373L136.55 97.8973C136.76 98.1173 136.88 98.3973 136.88 98.6973Z" fill="#FFFEFE"/>
<path d="M71.21 92.8673V141.137C71.21 141.207 71.2 141.277 71.19 141.337C70.21 147.397 67.29 152.317 63.47 154.547C62.05 155.377 60.5 155.837 58.88 155.837C58.26 155.837 57.64 155.767 57.04 155.637C56.66 155.547 56.28 155.437 55.91 155.307C55.45 155.137 55.14 154.717 55.14 154.227V79.0773C55.14 78.0673 56.36 77.5573 57.08 78.2773L65.83 87.0273H65.84L70.86 92.0573C71.09 92.2773 71.21 92.5673 71.21 92.8673Z" fill="white"/>
<path d="M111.95 102.767V115.607L102.86 106.517V93.6773L111.95 102.767Z" fill="black"/>
<path d="M102.86 119.357L111.95 128.437V141.287L102.86 132.197V119.357Z" fill="black"/>
<path d="M121.02 124.677V137.517L111.95 128.437V115.607L121.02 124.677Z" fill="black"/>
<path d="M130.1 133.747L121.02 124.677V111.837L130.1 120.917V133.747Z" fill="black"/>
<path d="M121.02 150.357V137.517L130.1 146.597V159.437L121.02 150.357Z" fill="black"/>
<g clip-path="url(#clip1_26_398)">
<path d="M380.978 886C388.231 886 394.11 880.122 394.11 872.872C394.11 865.622 388.231 859.744 380.978 859.744C373.725 859.744 367.845 865.622 367.845 872.872C367.845 880.122 373.725 886 380.978 886Z" fill="#F07400"/>
<path d="M167.711 234.383C167.711 240.12 163.058 244.79 157.301 244.79C151.544 244.79 146.89 240.138 146.89 234.383C146.89 228.628 151.544 223.977 157.301 223.977C163.058 223.977 167.711 228.628 167.711 234.383Z" fill="#F07400"/>
<path d="M332.181 212.32C332.181 215.17 329.864 217.486 327.013 217.486C324.162 217.486 321.844 215.17 321.844 212.32C321.844 209.47 324.162 207.153 327.013 207.153C329.864 207.153 332.181 209.47 332.181 212.32Z" fill="#0088C4"/>
<path d="M341.359 217.486C344.214 217.486 346.528 215.173 346.528 212.32C346.528 209.466 344.214 207.153 341.359 207.153C338.505 207.153 336.191 209.466 336.191 212.32C336.191 215.173 338.505 217.486 341.359 217.486Z" fill="#0088C4"/>
<path d="M360.893 212.32C360.893 215.17 358.575 217.486 355.724 217.486C352.873 217.486 350.556 215.17 350.556 212.32C350.556 209.47 352.873 207.153 355.724 207.153C358.575 207.153 360.893 209.47 360.893 212.32Z" fill="#0088C4"/>
<path d="M347.208 799.62V833.01C347.208 839.519 341.929 844.796 335.418 844.796C332.163 844.796 329.22 843.472 327.086 841.339C324.953 839.206 323.628 836.265 323.628 833.01V799.62C323.628 793.112 328.907 787.835 335.418 787.835C338.674 787.835 341.617 789.158 343.75 791.291C345.884 793.424 347.208 796.366 347.208 799.62Z" fill="#0088C4"/>
<path d="M620.289 778.917H584.238C578.61 778.917 574.049 774.357 574.049 768.731C574.049 763.105 578.61 758.545 584.238 758.545H620.289C625.917 758.545 630.478 763.105 630.478 768.731C630.478 774.357 625.917 778.917 620.289 778.917Z" fill="#0088C4"/>
<path d="M542.597 824.056C548.346 824.056 553.007 819.397 553.007 813.649C553.007 807.902 548.346 803.242 542.597 803.242C536.847 803.242 532.187 807.902 532.187 813.649C532.187 819.397 536.847 824.056 542.597 824.056Z" fill="#F07400"/>
<path d="M44.1103 538.385C44.1103 541.235 41.7928 543.552 38.9419 543.552C36.091 543.552 33.7734 541.235 33.7734 538.385C33.7734 535.535 36.091 533.219 38.9419 533.219C41.7928 533.219 44.1103 535.535 44.1103 538.385Z" fill="#F07400"/>
<path d="M53.2884 543.552C56.1429 543.552 58.4569 541.239 58.4569 538.385C58.4569 535.532 56.1429 533.219 53.2884 533.219C50.434 533.219 48.12 535.532 48.12 538.385C48.12 541.239 50.434 543.552 53.2884 543.552Z" fill="#F07400"/>
<path d="M72.8217 538.385C72.8217 541.235 70.5042 543.552 67.6533 543.552C64.8024 543.552 62.4849 541.235 62.4849 538.385C62.4849 535.535 64.8024 533.219 67.6533 533.219C70.5042 533.219 72.8217 535.535 72.8217 538.385Z" fill="#F07400"/>
<path d="M530.79 751.197C536.163 745.826 536.163 737.118 530.79 731.747C525.418 726.376 516.707 726.376 511.334 731.747C505.961 737.118 505.961 745.826 511.334 751.197C516.707 756.568 525.418 756.568 530.79 751.197Z" fill="#0088C4"/>
<path d="M542.597 586.448C548.57 586.448 553.412 581.607 553.412 575.636C553.412 569.666 548.57 564.825 542.597 564.825C536.624 564.825 531.782 569.666 531.782 575.636C531.782 581.607 536.624 586.448 542.597 586.448Z" fill="#F07400"/>
<path d="M688.435 580.435C702.23 580.435 713.394 569.275 713.394 555.485H688.435V580.435Z" fill="#0088C4"/>
<path d="M380.978 698.145V740.214C370.291 740.214 361.61 748.763 361.408 759.391C307.755 756.339 258.885 735.378 220.738 702.356L277.664 641.883C304.113 663.726 338.03 676.854 375.018 676.854C377.023 676.854 379.01 676.817 380.996 676.744V698.127L380.978 698.145Z" fill="#F07400"/>
<path d="M585.066 324.551L545.006 360.588C532.922 348.03 519.477 336.814 504.873 327.18L538.569 285.13L538.661 285.001C548.28 291.584 557.458 298.736 566.177 306.403C572.743 312.158 579.033 318.226 585.048 324.551H585.066Z" fill="#0083EF"/>
<path d="M380.978 641.901V676.762C378.991 676.835 377.005 676.872 375 676.872C338.012 676.872 304.095 663.744 277.646 641.901C243.711 613.862 222.081 571.463 222.081 524.026H263.042C263.042 589.132 315.83 641.901 380.959 641.901H380.978Z" fill="#0083EF"/>
<path d="M380.978 307.801V371.271C378.991 371.197 377.005 371.16 375 371.16C331.593 371.16 292.379 389.253 264.55 418.303C238.248 445.754 222.081 483.005 222.081 524.026H139.128C139.128 398.372 237.457 295.666 361.408 288.624C361.61 299.251 370.291 307.801 380.978 307.801Z" fill="#F07400"/>
<path d="M610.872 524.026H527.919C527.919 467.965 497.718 418.928 452.692 392.342L504.891 327.198C519.477 336.833 532.94 348.049 545.025 360.607C585.802 402.987 610.872 460.592 610.872 524.026Z" fill="#F07400"/>
<path d="M507.154 637.636L553.669 677.957C515.633 722.03 461.557 751.871 400.511 758.435C399.812 748.267 391.333 740.232 380.978 740.232V698.164C431.393 696.472 476.401 673.361 507.154 637.636Z" fill="#0083EF"/>
<path d="M157.301 333.487C157.154 333.487 157.006 333.431 156.896 333.339C156.639 333.119 156.62 332.733 156.841 332.475C165.725 322.363 175.436 312.765 185.663 303.976C196.294 294.82 207.716 286.344 219.616 278.805C235.305 268.84 252.025 260.382 269.296 253.616C302.955 240.451 338.508 233.777 375 233.777C433.931 233.777 490.637 251.317 539.029 284.505C548.593 291.051 557.881 298.276 566.618 305.962C566.876 306.183 566.894 306.569 566.673 306.826C566.453 307.084 566.066 307.102 565.809 306.881C557.109 299.233 547.876 292.043 538.348 285.516C490.177 252.476 433.692 235.009 375.018 235.009C338.692 235.009 303.286 241.646 269.774 254.756C252.576 261.485 235.931 269.906 220.297 279.835C208.433 287.355 197.066 295.794 186.49 304.914C176.301 313.684 166.644 323.227 157.797 333.303C157.669 333.431 157.503 333.505 157.338 333.505L157.301 333.487Z" fill="#3EC46D"/>
<path d="M592.681 715.76C592.534 715.76 592.387 715.705 592.276 715.613C592.019 715.392 592 715.006 592.221 714.748C638.59 662.034 664.119 594.299 664.119 524.007C664.119 487.694 657.479 452.3 644.365 418.8C637.633 401.59 629.191 384.95 619.277 369.34C611.791 357.536 603.349 346.173 594.207 335.546C591.117 331.96 587.899 328.393 584.643 324.974C578.665 318.667 572.32 312.581 565.827 306.863C565.57 306.642 565.551 306.256 565.772 305.999C565.993 305.741 566.379 305.723 566.636 305.944C573.166 311.68 579.53 317.803 585.544 324.128C588.818 327.566 592.055 331.133 595.164 334.755C604.36 345.419 612.84 356.856 620.344 368.697C630.313 384.38 638.792 401.094 645.542 418.358C658.712 452.006 665.388 487.547 665.388 524.026C665.388 594.593 639.749 662.623 593.177 715.576C593.049 715.704 592.883 715.778 592.718 715.778L592.681 715.76Z" fill="#3EC46D"/>
<path d="M375 814.274C304.408 814.274 236.354 788.644 183.382 742.089C183.124 741.868 183.106 741.482 183.327 741.225C183.547 740.968 183.934 740.949 184.191 741.17C236.924 787.522 304.684 813.043 374.982 813.043C411.308 813.043 446.714 806.405 480.226 793.295C497.424 786.566 514.069 778.145 529.703 768.216C541.512 760.715 552.897 752.294 563.51 743.137C573.699 734.367 583.356 724.824 592.203 714.748C592.423 714.491 592.81 714.473 593.067 714.693C593.325 714.914 593.343 715.3 593.122 715.557C584.239 725.67 574.527 735.268 564.301 744.056C553.633 753.231 542.211 761.708 530.347 769.228C514.658 779.193 497.939 787.651 480.668 794.399C447.009 807.563 411.455 814.238 374.963 814.238L375 814.274Z" fill="#3EC46D"/>
<path d="M183.787 742.236C183.639 742.236 183.492 742.181 183.382 742.089C173.266 733.19 163.665 723.5 154.873 713.277C145.676 702.613 137.216 691.195 129.693 679.336C119.724 663.652 111.245 646.939 104.494 629.674C91.3251 596.027 84.6484 560.486 84.6484 524.007C84.6484 453.44 110.288 385.41 156.859 332.457C157.08 332.199 157.466 332.181 157.724 332.402C157.981 332.622 158 333.008 157.779 333.266C111.41 385.98 85.8808 453.716 85.8808 524.007C85.8808 560.32 92.5206 595.714 105.635 629.215C112.367 646.424 120.809 663.064 130.723 678.674C138.209 690.478 146.651 701.841 155.792 712.468C164.566 722.655 174.112 732.307 184.191 741.151C184.449 741.372 184.467 741.758 184.246 742.016C184.118 742.144 183.952 742.218 183.787 742.218V742.236Z" fill="#3EC46D"/>
<path d="M393.228 759.722C392.915 759.722 392.639 759.483 392.621 759.152C392.602 758.821 392.841 758.527 393.191 758.49C395.674 758.306 398.12 758.085 400.456 757.828C459.81 751.448 514.051 722.949 553.228 677.571C590.033 634.933 610.283 580.398 610.283 524.026C610.283 462.927 586.961 405.047 544.602 361.029C532.536 348.49 519.072 337.293 504.579 327.713C473.476 307.157 437.481 294.213 400.456 290.223C398.12 289.966 395.674 289.745 393.191 289.561C392.86 289.543 392.602 289.249 392.621 288.899C392.639 288.568 392.933 288.311 393.283 288.329C395.784 288.513 398.23 288.752 400.585 289.01C437.794 292.999 473.991 306.036 505.241 326.684C519.808 336.318 533.345 347.589 545.466 360.184C588.046 404.44 611.497 462.615 611.497 524.026C611.497 580.693 591.118 635.521 554.129 678.362C514.768 723.978 460.233 752.643 400.566 759.041C398.23 759.299 395.766 759.519 393.264 759.722C393.264 759.722 393.228 759.722 393.209 759.722H393.228Z" fill="#3EC46D"/>
<path d="M368.691 760.328C366.208 760.255 363.744 760.163 361.371 760.016C335.014 758.527 309.319 752.698 285.022 742.696C261.442 732.988 239.683 719.584 220.333 702.834C168.336 657.861 138.521 592.681 138.521 524.007C138.521 398.758 236.409 295.096 361.371 287.998C363.725 287.851 366.171 287.759 368.691 287.686C369.022 287.649 369.317 287.943 369.317 288.274C369.317 288.605 369.059 288.899 368.728 288.899C366.245 288.973 363.799 289.065 361.463 289.212C237.145 296.272 139.772 399.384 139.772 523.989C139.772 592.313 169.44 657.144 221.161 701.878C260.743 736.132 309.263 755.805 361.463 758.766C363.817 758.913 366.263 759.005 368.728 759.078C369.059 759.078 369.335 759.372 369.317 759.703C369.317 760.034 369.041 760.292 368.71 760.292L368.691 760.328Z" fill="#3EC46D"/>
<path d="M375 677.497C339.373 677.497 304.665 665.031 277.26 642.379C241.816 613.09 221.474 569.955 221.474 524.026C221.474 484.274 236.611 446.582 264.109 417.88C278.29 403.079 294.972 391.441 313.678 383.277C333.046 374.838 353.682 370.554 374.982 370.554C376.986 370.554 378.991 370.59 380.978 370.664C406.323 371.638 431.227 378.938 452.986 391.808C475.573 405.157 494.481 424.169 507.705 446.821C521.316 470.153 528.508 496.85 528.508 524.026C528.508 560.725 515.338 596.248 491.446 624.03C477.798 639.897 461.392 652.602 442.686 661.814C423.373 671.32 402.626 676.541 380.996 677.387C379.01 677.461 376.986 677.497 375 677.497ZM375 371.767C333.064 371.767 293.997 388.444 265.01 418.708C237.733 447.17 222.706 484.568 222.706 524.007C222.706 569.569 242.883 612.354 278.051 641.423C305.235 663.891 339.667 676.266 375.018 676.266C377.005 676.266 378.991 676.229 380.978 676.155C423.098 674.537 463.029 655.25 490.545 623.221C514.253 595.659 527.312 560.431 527.312 524.026C527.312 470.429 498.601 420.16 452.379 392.856C430.804 380.096 406.102 372.852 380.959 371.877C378.991 371.804 376.986 371.767 375 371.767Z" fill="#3EC46D"/>
<path d="M380.978 698.771C380.647 698.771 380.371 698.513 380.371 698.182C380.371 697.851 380.628 697.557 380.959 697.557C429.259 695.939 475.076 673.949 506.694 637.249C533.732 605.864 548.648 565.726 548.703 524.246C548.703 523.915 548.979 523.639 549.31 523.639C549.641 523.639 549.917 523.915 549.917 524.246C549.862 566.02 534.854 606.434 507.613 638.04C491.979 656.206 473.163 670.731 451.699 681.211C429.554 692.041 405.753 697.943 380.996 698.771C380.996 698.771 380.996 698.771 380.978 698.771Z" fill="#3EC46D"/>
<path d="M380.978 642.508C315.609 642.508 262.435 589.353 262.435 524.007C262.435 493.817 273.784 465.079 294.402 443.052C305.383 431.321 318.368 422.091 332.991 415.619C348.128 408.908 364.277 405.506 380.978 405.506C446.346 405.506 499.521 458.662 499.521 524.007C499.521 589.353 446.346 642.508 380.978 642.508ZM380.978 406.738C348.643 406.738 317.412 420.271 295.303 443.897C274.906 465.685 263.667 494.148 263.667 524.026C263.667 588.691 316.29 641.294 380.978 641.294C445.666 641.294 498.288 588.691 498.288 524.026C498.288 459.36 445.666 406.757 380.978 406.757V406.738Z" fill="#3EC46D"/>
<path d="M380.978 406.738C380.647 406.738 380.371 406.462 380.371 406.131V300.501C380.371 300.17 380.647 299.894 380.978 299.894C381.309 299.894 381.585 300.17 381.585 300.501V406.131C381.585 406.462 381.309 406.738 380.978 406.738Z" fill="#3EC46D"/>
<path d="M545.025 361.195C544.859 361.195 544.694 361.121 544.565 360.993C544.344 360.735 544.362 360.349 544.602 360.128L584.662 324.091C584.919 323.87 585.305 323.889 585.526 324.128C585.747 324.367 585.747 324.753 585.508 324.992L545.429 361.048C545.319 361.158 545.172 361.213 545.025 361.213V361.195Z" fill="#3EC46D"/>
<path d="M610.871 524.632H498.895C498.564 524.632 498.288 524.356 498.288 524.026C498.288 523.695 498.564 523.419 498.895 523.419H610.871C611.203 523.419 611.478 523.695 611.478 524.026C611.478 524.356 611.203 524.632 610.871 524.632Z" fill="#3EC46D"/>
<path d="M263.042 524.632H139.128C138.797 524.632 138.521 524.356 138.521 524.026C138.521 523.695 138.797 523.419 139.128 523.419H263.042C263.373 523.419 263.649 523.695 263.649 524.026C263.649 524.356 263.373 524.632 263.042 524.632Z" fill="#3EC46D"/>
<path d="M380.978 308.407C370.071 308.407 361.003 299.527 360.801 288.624C360.801 288.495 360.801 288.366 360.801 288.219C360.801 277.095 369.85 268.031 380.996 268.031C392.142 268.031 401.192 277.077 401.192 288.219C401.192 288.66 401.192 289.138 401.136 289.635C400.419 300.17 391.572 308.407 380.996 308.407H380.978ZM380.978 269.263C370.512 269.263 362.014 277.775 362.014 288.219C362.014 288.348 362.014 288.458 362.014 288.587C362.217 298.846 370.714 307.175 380.978 307.175C391.241 307.175 399.223 299.435 399.886 289.543C399.922 289.065 399.941 288.642 399.941 288.219C399.941 277.757 391.425 269.263 380.978 269.263Z" fill="#3EC46D"/>
<path d="M380.978 779.984C370.071 779.984 361.003 771.103 360.801 760.2C360.801 760.071 360.801 759.942 360.801 759.795C360.801 759.648 360.801 759.519 360.801 759.372C361.021 748.488 370.071 739.607 380.978 739.607C391.885 739.607 400.401 747.844 401.118 758.38C401.155 758.876 401.173 759.336 401.173 759.795C401.173 760.255 401.173 760.715 401.118 761.211C400.401 771.746 391.554 779.984 380.978 779.984ZM380.978 740.839C370.733 740.839 362.217 749.168 362.014 759.409C362.014 759.556 362.014 759.667 362.014 759.795C362.014 759.924 362.014 760.034 362.014 760.163C362.217 770.423 370.714 778.752 380.978 778.752C391.241 778.752 399.223 771.011 399.886 761.119C399.922 760.641 399.941 760.218 399.941 759.795C399.941 759.372 399.941 758.95 399.886 758.471C399.205 748.58 390.891 740.839 380.978 740.839Z" fill="#3EC46D"/>
<path d="M183.787 742.236H85.2554C84.9243 742.236 84.6484 741.96 84.6484 741.629V524.007C84.6484 523.676 84.9243 523.4 85.2554 523.4C85.5865 523.4 85.8624 523.676 85.8624 524.007V741.004H183.787C184.118 741.004 184.412 741.28 184.412 741.611C184.412 741.942 184.136 742.218 183.805 742.218L183.787 742.236Z" fill="#3EC46D"/>
<path d="M105.065 742.236C104.734 742.236 104.458 741.96 104.458 741.629V629.454C104.458 629.123 104.734 628.847 105.065 628.847C105.396 628.847 105.672 629.123 105.672 629.454V741.629C105.672 741.96 105.396 742.236 105.065 742.236Z" fill="#3EC46D"/>
<path d="M130.189 742.236C129.858 742.236 129.583 741.96 129.583 741.629V679.023C129.583 678.692 129.858 678.417 130.189 678.417C130.521 678.417 130.796 678.692 130.796 679.023V741.629C130.796 741.96 130.521 742.236 130.189 742.236Z" fill="#3EC46D"/>
<path d="M155.333 742.236C155.002 742.236 154.726 741.96 154.726 741.629V712.891C154.726 712.56 155.002 712.285 155.333 712.285C155.664 712.285 155.94 712.56 155.94 712.891V741.629C155.94 741.96 155.664 742.236 155.333 742.236Z" fill="#3EC46D"/>
<path d="M592.681 814.274H374.981C374.65 814.274 374.375 813.999 374.375 813.668C374.375 813.337 374.65 813.061 374.981 813.061H592.055V715.171C592.055 714.84 592.331 714.565 592.662 714.565C592.993 714.565 593.269 714.84 593.269 715.171V813.668C593.269 813.999 592.993 814.274 592.662 814.274H592.681Z" fill="#3EC46D"/>
<path d="M592.681 794.472H480.465C480.134 794.472 479.858 794.196 479.858 793.865C479.858 793.534 480.134 793.259 480.465 793.259H592.681C593.012 793.259 593.288 793.534 593.288 793.865C593.288 794.196 593.012 794.472 592.681 794.472Z" fill="#3EC46D"/>
<path d="M592.681 769.338H530.053C529.722 769.338 529.446 769.062 529.446 768.731C529.446 768.4 529.722 768.124 530.053 768.124H592.681C593.012 768.124 593.288 768.4 593.288 768.731C593.288 769.062 593.012 769.338 592.681 769.338Z" fill="#3EC46D"/>
<path d="M592.681 744.222H563.933C563.602 744.222 563.326 743.946 563.326 743.615C563.326 743.284 563.602 743.008 563.933 743.008H592.681C593.012 743.008 593.288 743.284 593.288 743.615C593.288 743.946 593.012 744.222 592.681 744.222Z" fill="#3EC46D"/>
<path d="M157.301 333.487C156.97 333.487 156.694 333.211 156.694 332.88V234.383C156.694 234.052 156.97 233.777 157.301 233.777H374.982C375.313 233.777 375.589 234.052 375.589 234.383C375.589 234.714 375.313 234.99 374.982 234.99H157.908V332.88C157.908 333.211 157.632 333.505 157.301 333.505V333.487Z" fill="#3EC46D"/>
<path d="M269.516 254.792H157.301C156.97 254.792 156.694 254.517 156.694 254.186C156.694 253.855 156.97 253.579 157.301 253.579H269.516C269.847 253.579 270.123 253.855 270.123 254.186C270.123 254.517 269.847 254.792 269.516 254.792Z" fill="#3EC46D"/>
<path d="M178.103 279.908H157.319C156.988 279.908 156.712 279.633 156.712 279.302C156.712 278.971 156.988 278.695 157.319 278.695H178.103C178.434 278.695 178.71 278.971 178.71 279.302C178.71 279.633 178.434 279.908 178.103 279.908Z" fill="#3EC46D"/>
<path d="M186.067 305.043H157.319C156.988 305.043 156.712 304.767 156.712 304.436C156.712 304.105 156.988 303.829 157.319 303.829H186.067C186.398 303.829 186.674 304.105 186.674 304.436C186.674 304.767 186.398 305.043 186.067 305.043Z" fill="#3EC46D"/>
<path d="M664.745 524.632C664.414 524.632 664.138 524.356 664.138 524.026V307.028H566.213C565.882 307.028 565.606 306.753 565.606 306.422C565.606 306.091 565.882 305.815 566.213 305.815H664.745C665.076 305.815 665.352 306.091 665.352 306.422V524.026C665.352 524.356 665.076 524.632 664.745 524.632Z" fill="#3EC46D"/>
<path d="M644.935 419.186C644.604 419.186 644.328 418.91 644.328 418.579V306.403C644.328 306.072 644.604 305.797 644.935 305.797C645.266 305.797 645.542 306.072 645.542 306.403V418.579C645.542 418.91 645.266 419.186 644.935 419.186Z" fill="#3EC46D"/>
<path d="M619.792 344.886C619.461 344.886 619.185 344.61 619.185 344.279V306.403C619.185 306.072 619.461 305.797 619.792 305.797C620.123 305.797 620.399 306.072 620.399 306.403V344.279C620.399 344.61 620.123 344.886 619.792 344.886Z" fill="#3EC46D"/>
<path d="M594.667 335.766C594.336 335.766 594.061 335.491 594.061 335.16V306.422C594.061 306.091 594.336 305.815 594.667 305.815C594.999 305.815 595.274 306.091 595.274 306.422V335.16C595.274 335.491 594.999 335.766 594.667 335.766Z" fill="#3EC46D"/>
<path d="M380.978 740.839C380.647 740.839 380.371 740.563 380.371 740.232V641.901C380.371 641.57 380.647 641.294 380.978 641.294C381.309 641.294 381.585 641.57 381.585 641.901V740.232C381.585 740.563 381.309 740.839 380.978 740.839Z" fill="#3EC46D"/>
<path d="M553.669 678.564C553.522 678.564 553.375 678.509 553.265 678.417L490.6 624.085C490.342 623.864 490.324 623.478 490.545 623.221C490.765 622.963 491.152 622.945 491.409 623.165L554.074 677.497C554.331 677.718 554.35 678.104 554.129 678.362C554 678.509 553.835 678.564 553.669 678.564Z" fill="#3EC46D"/>
<path d="M294.862 444.099C294.696 444.099 294.549 444.044 294.42 443.916L264.164 418.763C263.906 418.542 263.87 418.156 264.09 417.899C264.311 417.641 264.697 417.605 264.955 417.825L295.248 443.015C295.248 443.015 295.285 443.051 295.303 443.051C295.542 443.291 295.542 443.677 295.303 443.916C295.174 444.044 295.027 444.099 294.862 444.099Z" fill="#3EC46D"/>
<path d="M380.978 860.351C380.647 860.351 380.371 860.075 380.371 859.744V813.668C380.371 813.337 380.647 813.061 380.978 813.061C381.309 813.061 381.585 813.337 381.585 813.668V859.744C381.585 860.075 381.309 860.351 380.978 860.351Z" fill="#3EC46D"/>
<path d="M380.978 234.99C380.647 234.99 380.371 234.714 380.371 234.383V190.256C380.371 189.925 380.647 189.649 380.978 189.649C381.309 189.649 381.585 189.925 381.585 190.256V234.365C381.585 234.696 381.309 234.972 380.978 234.972V234.99Z" fill="#3EC46D"/>
<path d="M85.2554 524.632H25.607C25.2759 524.632 25 524.356 25 524.026C25 523.695 25.2759 523.419 25.607 523.419H85.2554C85.5865 523.419 85.8624 523.695 85.8624 524.026C85.8624 524.356 85.5865 524.632 85.2554 524.632Z" fill="#3EC46D"/>
<path d="M724.375 524.632H664.726C664.395 524.632 664.119 524.356 664.119 524.026C664.119 523.695 664.395 523.419 664.726 523.419H724.375C724.706 523.419 724.982 523.695 724.982 524.026C724.982 524.356 724.706 524.632 724.375 524.632Z" fill="#3EC46D"/>
<path d="M183.787 742.236C183.64 742.236 183.492 742.181 183.364 742.071C183.124 741.832 183.106 741.446 183.345 741.207L220.278 701.951L277.205 641.478C277.444 641.239 277.83 641.221 278.069 641.46C278.308 641.699 278.327 642.085 278.087 642.324L221.161 702.797L184.228 742.052C184.099 742.181 183.952 742.236 183.787 742.236Z" fill="#3EC46D"/>
<path d="M452.692 392.93C452.563 392.93 452.416 392.893 452.306 392.801C452.048 392.599 451.993 392.213 452.214 391.937L538.109 284.744C538.311 284.487 538.698 284.431 538.973 284.652C539.231 284.854 539.286 285.24 539.065 285.516L453.17 392.709C453.041 392.856 452.876 392.93 452.692 392.93Z" fill="#3EC46D"/>
<path d="M127.743 404.403H99.418C93.5691 404.403 88.8053 399.641 88.8053 393.794C88.8053 390.963 89.9089 388.297 91.9137 386.292C93.9002 384.288 96.5671 383.185 99.3997 383.185H127.725C133.574 383.185 138.338 387.947 138.338 393.794C138.338 396.626 137.234 399.292 135.229 401.296C133.243 403.3 130.576 404.403 127.743 404.403ZM99.418 384.417C96.8982 384.417 94.5623 385.392 92.7966 387.157C91.0125 388.922 90.0376 391.275 90.0376 393.776C90.0376 398.942 94.2496 403.153 99.418 403.153H127.743C130.263 403.153 132.599 402.178 134.365 400.413C136.149 398.648 137.124 396.295 137.124 393.794C137.124 388.628 132.912 384.417 127.743 384.417H99.418Z" fill="#5C6D7D"/>
<path d="M665.425 614.377H640.944C635.849 614.377 631.692 610.221 631.692 605.128C631.692 602.646 632.649 600.329 634.415 598.583C636.162 596.836 638.479 595.88 640.944 595.88H665.425C670.52 595.88 674.677 600.035 674.677 605.128C674.677 607.61 673.72 609.927 671.955 611.674C670.226 613.421 667.89 614.377 665.425 614.377ZM640.962 597.112C638.81 597.112 636.806 597.939 635.297 599.465C633.771 600.973 632.943 602.995 632.943 605.128C632.943 609.559 636.548 613.145 640.962 613.145H665.444C667.595 613.145 669.6 612.317 671.109 610.791C672.635 609.284 673.463 607.261 673.463 605.128C673.463 600.697 669.858 597.112 665.444 597.112H640.962Z" fill="#5C6D7D"/>
<path d="M426.261 397.435C424.33 397.435 422.509 396.681 421.13 395.302C419.769 393.941 419.014 392.121 419.014 390.19V371.399C419.014 367.41 422.27 364.155 426.261 364.155C428.193 364.155 430.013 364.909 431.393 366.288C432.754 367.649 433.508 369.469 433.508 371.399V390.19C433.508 394.18 430.253 397.435 426.261 397.435ZM426.261 365.369C422.951 365.369 420.247 368.071 420.247 371.381V390.172C420.247 391.79 420.872 393.298 422.012 394.419C423.153 395.559 424.661 396.184 426.261 396.184C429.572 396.184 432.276 393.482 432.276 390.172V371.381C432.276 369.763 431.65 368.255 430.51 367.134C429.37 365.994 427.861 365.369 426.261 365.369Z" fill="#5C6D7D"/>
<path d="M701.641 637.636L685.639 629.803V634.326L676.387 629.803V634.326L667.154 629.803V637.636V645.468L676.387 640.927V645.468L685.639 640.927V645.468L701.641 637.636Z" fill="#0088C4"/>
<path d="M648.375 257.753H653.065L644.935 236.314L636.806 257.753H641.514L636.806 270.145H641.514L636.806 282.538H644.935H653.065L648.375 270.145H653.065L648.375 257.753Z" fill="#0088C4"/>
<path d="M461.299 532.331C468.602 487.994 438.567 446.134 394.215 438.834C349.862 431.534 307.987 461.558 300.684 505.895C293.381 550.232 323.416 592.092 367.769 599.392C412.121 606.692 453.997 576.668 461.299 532.331Z" fill="#ED3624"/>
<path d="M462.348 519.098C440.534 538.238 412.099 549.803 380.959 549.803C349.82 549.803 321.403 538.238 299.57 519.098C321.384 499.958 349.82 488.393 380.959 488.393C412.099 488.393 440.516 499.958 462.348 519.098Z" fill="white"/>
<path d="M380.978 548.737C397.139 548.737 410.241 535.467 410.241 519.098C410.241 502.729 397.139 489.459 380.978 489.459C364.816 489.459 351.714 502.729 351.714 519.098C351.714 535.467 364.816 548.737 380.978 548.737Z" fill="#161616"/>
<path d="M467.314 835.676L444.985 829.443V833.047L432.092 829.443V833.047L419.18 829.443V835.676V841.909L432.092 838.305V841.909L444.985 838.305V841.909L467.314 835.676Z" fill="#F07400"/>
<path d="M62.301 644.126L65.6117 632.046H59.8731H54.1345L57.4453 644.126H54.1345L57.4453 656.187H54.1345L59.8731 677.074L65.6117 656.187H62.301L65.6117 644.126H62.301Z" fill="#F07400"/>
<path d="M385.355 618.826C385.539 619.341 385.613 619.856 385.613 620.371C385.613 622.834 383.626 625.022 380.959 625.022C377.759 625.022 375.515 621.86 376.563 618.845L380.959 606.25L385.355 618.845V618.826Z" fill="#0088C4"/>
<path d="M104.513 308.407C101.331 308.407 98.7374 305.815 98.7374 302.634C98.7374 299.453 101.331 296.861 104.513 296.861C107.695 296.861 110.288 299.453 110.288 302.634C110.288 305.815 107.695 308.407 104.513 308.407ZM104.513 298.074C101.993 298.074 99.9514 300.115 99.9514 302.634C99.9514 305.153 101.993 307.194 104.513 307.194C107.033 307.194 109.074 305.153 109.074 302.634C109.074 300.115 107.033 298.074 104.513 298.074Z" fill="#5C6D7D"/>
<path d="M118.878 308.407C115.696 308.407 113.102 305.815 113.102 302.634C113.102 299.453 115.696 296.861 118.878 296.861C122.06 296.861 124.653 299.453 124.653 302.634C124.653 305.815 122.06 308.407 118.878 308.407ZM118.878 298.074C116.358 298.074 114.316 300.115 114.316 302.634C114.316 305.153 116.358 307.194 118.878 307.194C121.398 307.194 123.439 305.153 123.439 302.634C123.439 300.115 121.398 298.074 118.878 298.074Z" fill="#5C6D7D"/>
<path d="M133.224 308.407C130.042 308.407 127.449 305.815 127.449 302.634C127.449 299.453 130.042 296.861 133.224 296.861C136.406 296.861 139 299.453 139 302.634C139 305.815 136.406 308.407 133.224 308.407ZM133.224 298.074C130.704 298.074 128.663 300.115 128.663 302.634C128.663 305.153 130.704 307.194 133.224 307.194C135.744 307.194 137.786 305.153 137.786 302.634C137.786 300.115 135.744 298.074 133.224 298.074Z" fill="#5C6D7D"/>
<path d="M266.831 777.097C264.054 777.097 261.81 774.835 261.81 772.077C261.81 769.319 264.072 767.058 266.831 767.058C269.59 767.058 271.852 769.319 271.852 772.077C271.852 774.835 269.59 777.097 266.831 777.097ZM266.831 768.271C264.734 768.271 263.042 769.981 263.042 772.059C263.042 774.137 264.752 775.847 266.831 775.847C268.909 775.847 270.62 774.137 270.62 772.059C270.62 769.981 268.909 768.271 266.831 768.271Z" fill="#5C6D7D"/>
<path d="M279.081 777.097C276.303 777.097 274.059 774.835 274.059 772.077C274.059 769.319 276.322 767.058 279.081 767.058C281.84 767.058 284.102 769.319 284.102 772.077C284.102 774.835 281.84 777.097 279.081 777.097ZM279.081 768.271C276.984 768.271 275.292 769.981 275.292 772.059C275.292 774.137 277.002 775.847 279.081 775.847C281.159 775.847 282.87 774.137 282.87 772.059C282.87 769.981 281.159 768.271 279.081 768.271Z" fill="#5C6D7D"/>
<path d="M291.33 777.097C288.553 777.097 286.309 774.835 286.309 772.077C286.309 769.319 288.571 767.058 291.33 767.058C294.089 767.058 296.352 769.319 296.352 772.077C296.352 774.835 294.089 777.097 291.33 777.097ZM291.33 768.271C289.234 768.271 287.541 769.981 287.541 772.059C287.541 774.137 289.252 775.847 291.33 775.847C293.409 775.847 295.119 774.137 295.119 772.059C295.119 769.981 293.409 768.271 291.33 768.271Z" fill="#5C6D7D"/>
<path d="M59.8731 585.013C57.0957 585.013 54.8518 582.752 54.8518 579.994C54.8518 577.236 57.1141 574.974 59.8731 574.974C62.632 574.974 64.8944 577.236 64.8944 579.994C64.8944 582.752 62.632 585.013 59.8731 585.013ZM59.8731 576.188C57.7763 576.188 56.0841 577.898 56.0841 579.976C56.0841 582.053 57.7947 583.763 59.8731 583.763C61.9515 583.763 63.662 582.053 63.662 579.976C63.662 577.898 61.9515 576.188 59.8731 576.188Z" fill="#5C6D7D"/>
<path d="M59.8731 597.259C57.0957 597.259 54.8518 594.997 54.8518 592.239C54.8518 589.481 57.1141 587.22 59.8731 587.22C62.632 587.22 64.8944 589.481 64.8944 592.239C64.8944 594.997 62.632 597.259 59.8731 597.259ZM59.8731 588.433C57.7763 588.433 56.0841 590.143 56.0841 592.221C56.0841 594.299 57.7947 596.009 59.8731 596.009C61.9515 596.009 63.662 594.299 63.662 592.221C63.662 590.143 61.9515 588.433 59.8731 588.433Z" fill="#5C6D7D"/>
<path d="M59.8731 609.504C57.0957 609.504 54.8518 607.243 54.8518 604.485C54.8518 601.727 57.1141 599.465 59.8731 599.465C62.632 599.465 64.8944 601.727 64.8944 604.485C64.8944 607.243 62.632 609.504 59.8731 609.504ZM59.8731 600.679C57.7763 600.679 56.0841 602.389 56.0841 604.466C56.0841 606.544 57.7947 608.254 59.8731 608.254C61.9515 608.254 63.662 606.544 63.662 604.466C63.662 602.389 61.9515 600.679 59.8731 600.679Z" fill="#5C6D7D"/>
<path d="M692.445 543.883C690.219 543.883 688.417 542.081 688.417 539.856C688.417 537.631 690.219 535.83 692.445 535.83C694.67 535.83 696.473 537.631 696.473 539.856C696.473 542.081 694.67 543.883 692.445 543.883ZM692.445 537.043C690.9 537.043 689.649 538.293 689.649 539.838C689.649 541.382 690.9 542.633 692.445 542.633C693.99 542.633 695.24 541.382 695.24 539.838C695.24 538.293 693.99 537.043 692.445 537.043Z" fill="#5C6D7D"/>
<path d="M701.935 543.883C699.71 543.883 697.907 542.081 697.907 539.856C697.907 537.631 699.71 535.83 701.935 535.83C704.161 535.83 705.963 537.631 705.963 539.856C705.963 542.081 704.161 543.883 701.935 543.883ZM701.935 537.043C700.39 537.043 699.14 538.293 699.14 539.838C699.14 541.382 700.39 542.633 701.935 542.633C703.48 542.633 704.731 541.382 704.731 539.838C704.731 538.293 703.48 537.043 701.935 537.043Z" fill="#5C6D7D"/>
<path d="M711.426 543.883C709.201 543.883 707.398 542.081 707.398 539.856C707.398 537.631 709.201 535.83 711.426 535.83C713.652 535.83 715.454 537.631 715.454 539.856C715.454 542.081 713.652 543.883 711.426 543.883ZM711.426 537.043C709.881 537.043 708.63 538.293 708.63 539.838C708.63 541.382 709.881 542.633 711.426 542.633C712.971 542.633 714.24 541.382 714.24 539.838C714.24 538.293 712.99 537.043 711.426 537.043Z" fill="#5C6D7D"/>
<path d="M187.557 555.632C190.412 555.632 192.726 553.319 192.726 550.465C192.726 547.612 190.412 545.299 187.557 545.299C184.703 545.299 182.389 547.612 182.389 550.465C182.389 553.319 184.703 555.632 187.557 555.632Z" fill="#0088C4"/>
<path d="M187.557 569.992C184.706 569.992 182.389 567.675 182.389 564.825C182.389 561.975 184.706 559.659 187.557 559.659C190.408 559.659 192.726 561.975 192.726 564.825C192.726 567.675 190.408 569.992 187.557 569.992Z" fill="#0088C4"/>
<path d="M187.557 584.333C190.412 584.333 192.726 582.02 192.726 579.167C192.726 576.313 190.412 574 187.557 574C184.703 574 182.389 576.313 182.389 579.167C182.389 582.02 184.703 584.333 187.557 584.333Z" fill="#0088C4"/>
<path d="M685.896 475.099C683.046 475.099 680.728 472.782 680.728 469.933C680.728 467.083 683.046 464.766 685.896 464.766C688.747 464.766 691.065 467.083 691.065 469.933C691.065 472.782 688.747 475.099 685.896 475.099Z" fill="#F07400"/>
<path d="M685.896 489.441C683.046 489.441 680.728 487.124 680.728 484.274C680.728 481.424 683.046 479.107 685.896 479.107C688.747 479.107 691.065 481.424 691.065 484.274C691.065 487.124 688.747 489.441 685.896 489.441Z" fill="#F07400"/>
<path d="M685.896 503.8C683.046 503.8 680.728 501.484 680.728 498.634C680.728 495.784 683.046 493.467 685.896 493.467C688.747 493.467 691.065 495.784 691.065 498.634C691.065 501.484 688.747 503.8 685.896 503.8Z" fill="#F07400"/>
<path d="M210.07 810.303H169.734C164.75 810.303 160.703 806.258 160.703 801.275C160.703 796.292 164.75 792.247 169.734 792.247H210.07C215.055 792.247 219.101 796.292 219.101 801.275C219.101 806.258 215.055 810.303 210.07 810.303ZM169.716 793.461C165.412 793.461 161.899 796.973 161.899 801.275C161.899 805.578 165.412 809.089 169.716 809.089H210.052C214.356 809.089 217.869 805.578 217.869 801.275C217.869 796.973 214.356 793.461 210.052 793.461H169.716Z" fill="#5C6D7D"/>
<path d="M181.469 632.653H141.133C136.149 632.653 132.102 628.608 132.102 623.625C132.102 618.642 136.149 614.597 141.133 614.597H181.469C186.454 614.597 190.5 618.642 190.5 623.625C190.5 628.608 186.454 632.653 181.469 632.653ZM141.133 615.811C136.829 615.811 133.316 619.323 133.316 623.625C133.316 627.927 136.829 631.439 141.133 631.439H181.469C185.773 631.439 189.286 627.927 189.286 623.625C189.286 619.323 185.773 615.811 181.469 615.811H141.133Z" fill="#5C6D7D"/>
<path d="M242.258 288.697H201.922C196.938 288.697 192.891 284.652 192.891 279.669C192.891 274.687 196.938 270.642 201.922 270.642H242.258C247.242 270.642 251.289 274.687 251.289 279.669C251.289 284.652 247.242 288.697 242.258 288.697ZM201.922 271.855C197.618 271.855 194.105 275.367 194.105 279.669C194.105 283.972 197.618 287.484 201.922 287.484H242.258C246.562 287.484 250.075 283.972 250.075 279.669C250.075 275.367 246.562 271.855 242.258 271.855H201.922Z" fill="#5C6D7D"/>
<path d="M200.248 690.202C196.257 690.202 193.02 686.966 193.02 682.977C193.02 678.987 196.257 675.751 200.248 675.751C204.24 675.751 207.477 678.987 207.477 682.977C207.477 686.966 204.24 690.202 200.248 690.202ZM200.248 676.983C196.938 676.983 194.234 679.685 194.234 682.995C194.234 686.305 196.938 689.007 200.248 689.007C203.559 689.007 206.263 686.305 206.263 682.995C206.263 679.685 203.559 676.983 200.248 676.983Z" fill="#5C6D7D"/>
<path d="M582.068 649.55C575.483 649.55 570.131 644.199 570.131 637.617C570.131 631.035 575.483 625.684 582.068 625.684C588.653 625.684 594.005 631.035 594.005 637.617C594.005 644.199 588.653 649.55 582.068 649.55ZM582.068 626.935C576.164 626.935 571.363 631.733 571.363 637.636C571.363 643.538 576.164 648.336 582.068 648.336C587.972 648.336 592.773 643.538 592.773 637.636C592.773 631.733 587.972 626.935 582.068 626.935Z" fill="#5C6D7D"/>
<path d="M449.069 315.468C442.484 315.468 437.132 310.117 437.132 303.535C437.132 296.953 442.484 291.602 449.069 291.602C455.653 291.602 461.006 296.953 461.006 303.535C461.006 310.117 455.653 315.468 449.069 315.468ZM449.069 292.834C443.164 292.834 438.364 297.633 438.364 303.535C438.364 309.437 443.164 314.236 449.069 314.236C454.973 314.236 459.773 309.437 459.773 303.535C459.773 297.633 454.973 292.834 449.069 292.834Z" fill="#5C6D7D"/>
<path d="M632.152 375.389H598.769C594.686 375.389 591.375 372.061 591.375 367.998C591.375 363.935 594.704 360.607 598.769 360.607H632.152C636.236 360.607 639.546 363.935 639.546 367.998C639.546 372.061 636.217 375.389 632.152 375.389ZM598.787 361.82C595.385 361.82 592.607 364.596 592.607 367.998C592.607 371.399 595.385 374.176 598.787 374.176H632.171C635.573 374.176 638.351 371.399 638.351 367.998C638.351 364.596 635.573 361.82 632.171 361.82H598.787Z" fill="#5C6D7D"/>
<path d="M697.65 327.456H677.509C676.994 327.456 676.59 327.051 676.59 326.536V306.403C676.59 305.888 676.994 305.484 677.509 305.484C689.115 305.484 698.569 314.935 698.569 326.536C698.569 327.051 698.165 327.456 697.65 327.456ZM678.411 325.617H696.693C696.234 315.744 688.288 307.801 678.411 307.341V325.617Z" fill="#D15206"/>
<path d="M72.5642 508.121H52.4239C51.9089 508.121 51.5043 507.717 51.5043 507.202C51.5043 495.6 60.9583 486.149 72.5642 486.149C73.0792 486.149 73.4839 486.554 73.4839 487.069V507.202C73.4839 507.717 73.0792 508.121 72.5642 508.121ZM53.362 506.283H71.6446V488.006C61.7676 488.466 53.8218 496.409 53.362 506.283Z" fill="#D15206"/>
<path d="M417.304 223.315H397.164C396.649 223.315 396.244 222.91 396.244 222.395V202.262C396.244 201.747 396.649 201.343 397.164 201.343C408.77 201.343 418.224 210.794 418.224 222.395C418.224 222.91 417.819 223.315 417.304 223.315ZM398.083 221.476H416.366C415.906 211.603 407.96 203.66 398.083 203.2V221.476Z" fill="#D15206"/>
<path d="M118.823 764.429C110.564 764.429 103.851 757.718 103.851 749.462C103.851 748.947 104.255 748.543 104.77 748.543H118.823C119.338 748.543 119.742 748.947 119.742 749.462V763.509C119.742 764.024 119.338 764.429 118.823 764.429ZM105.727 750.363C106.187 756.872 111.41 762.094 117.921 762.553V750.363H105.727Z" fill="#3464B4"/>
<path d="M571.86 248.523H518.189C513.757 248.523 510.133 244.919 510.133 240.469C510.133 236.02 513.738 232.416 518.189 232.416H571.86C576.293 232.416 579.916 236.02 579.916 240.469C579.916 244.919 576.311 248.523 571.86 248.523ZM518.189 233.63C514.419 233.63 511.366 236.7 511.366 240.451C511.366 244.202 514.419 247.272 518.189 247.272H571.86C575.631 247.272 578.684 244.202 578.684 240.451C578.684 236.7 575.631 233.63 571.86 233.63H518.189Z" fill="#5C6D7D"/>
<path d="M469.519 258.271C477.048 255.134 480.609 246.49 477.471 238.963C474.334 231.437 465.687 227.877 458.157 231.013C450.628 234.15 447.067 242.794 450.205 250.321C453.342 257.848 461.989 261.407 469.519 258.271Z" fill="#F07400"/>
<path d="M663.347 675.971H597.592C593.803 675.971 590.731 679.042 590.731 682.829V683.124C590.731 686.911 593.803 689.982 597.592 689.982H663.347C667.136 689.982 670.207 686.911 670.207 683.124V682.829C670.207 679.042 667.136 675.971 663.347 675.971Z" fill="#F07400"/>
<path d="M380.978 747.531C387.526 747.531 392.878 752.661 393.227 759.115C393.246 759.354 393.246 759.575 393.246 759.814C393.246 760.053 393.246 760.273 393.227 760.512C392.878 766.966 387.526 772.077 380.978 772.077C374.43 772.077 368.746 766.635 368.691 759.887V759.722C368.728 752.974 374.209 747.531 380.978 747.531Z" fill="#F07400"/>
<path d="M380.978 275.955C387.765 275.955 393.246 281.453 393.246 288.237C393.246 288.476 393.246 288.697 393.227 288.936C392.878 295.39 387.526 300.501 380.978 300.501C374.43 300.501 368.746 295.059 368.691 288.311V288.237C368.691 281.453 374.191 275.955 380.978 275.955Z" fill="#F07400"/>
<path d="M595.366 268.656H576.569C572.908 268.656 569.929 265.677 569.929 262.018C569.929 260.18 570.664 258.525 571.878 257.33C573.074 256.135 574.729 255.381 576.569 255.381H595.366C599.026 255.381 602.006 258.359 602.006 262.018C602.006 263.857 601.27 265.512 600.056 266.707C598.861 267.902 597.206 268.656 595.366 268.656Z" fill="#F07400"/>
<path d="M637.578 540.794C628.326 540.794 620.785 533.274 620.785 524.026C620.785 514.777 628.308 507.239 637.578 507.239C646.848 507.239 654.353 514.759 654.353 524.026C654.353 533.292 646.83 540.794 637.578 540.794ZM637.578 508.471C629.007 508.471 622.018 515.439 622.018 524.026C622.018 532.612 628.989 539.581 637.578 539.581C646.168 539.581 653.139 532.612 653.139 524.026C653.139 515.439 646.168 508.471 637.578 508.471Z" fill="#3EC46D"/>
<path d="M637.578 513.876C643.17 513.876 647.713 518.418 647.713 524.007C647.713 529.597 643.17 534.138 637.578 534.138C631.987 534.138 627.444 529.597 627.444 524.007C627.444 518.418 631.987 513.876 637.578 513.876Z" fill="#F07400"/>
<path d="M111.797 513.876C117.388 513.876 121.931 518.418 121.931 524.007C121.931 529.597 117.388 534.138 111.797 534.138C106.205 534.138 101.662 529.597 101.662 524.007C101.662 518.418 106.205 513.876 111.797 513.876Z" fill="#F07400"/>
<path d="M111.796 540.794C102.545 540.794 95.0037 533.274 95.0037 524.026C95.0037 514.777 102.526 507.239 111.796 507.239C121.067 507.239 128.589 514.759 128.589 524.026C128.589 533.292 121.067 540.794 111.796 540.794ZM111.796 508.471C103.225 508.471 96.236 515.439 96.236 524.026C96.236 532.612 103.207 539.581 111.796 539.581C120.386 539.581 127.357 532.612 127.357 524.026C127.357 515.439 120.386 508.471 111.796 508.471Z" fill="#3EC46D"/>
<path d="M146.964 464.141C146.964 464.141 146.872 464.141 146.835 464.141L118.749 457.981C118.584 457.945 118.436 457.834 118.344 457.687C118.252 457.54 118.234 457.356 118.289 457.191L122.74 443.916L98.4248 437.572C98.0937 437.48 97.9098 437.149 97.9834 436.818C98.0754 436.488 98.4064 436.304 98.7375 436.377L123.697 442.886C123.862 442.923 123.991 443.033 124.083 443.18C124.157 443.327 124.175 443.511 124.12 443.658L119.687 456.915L147.111 462.927C147.442 463.001 147.644 463.332 147.571 463.663C147.516 463.957 147.258 464.141 146.964 464.141Z" fill="#3EC46D"/>
<path d="M483.85 793.13C483.611 793.13 483.39 792.983 483.28 792.762L469.356 760.586L448.756 768.235C448.443 768.345 448.094 768.198 447.983 767.885L440.884 750.529C440.755 750.216 440.902 749.867 441.215 749.738C441.527 749.609 441.877 749.756 442.006 750.069L448.866 766.874L469.448 759.225C469.761 759.115 470.092 759.262 470.221 759.556L484.365 792.266C484.493 792.578 484.365 792.928 484.052 793.075C483.978 793.112 483.887 793.13 483.813 793.13H483.85Z" fill="#3EC46D"/>
<path d="M141.354 695.957C141.188 695.957 141.005 695.884 140.894 695.737C140.673 695.479 140.71 695.093 140.968 694.873L182.242 660.012C182.499 659.791 182.885 659.828 183.106 660.085C183.327 660.343 183.29 660.729 183.033 660.95L141.759 695.81C141.648 695.902 141.501 695.957 141.372 695.957H141.354Z" fill="#3EC46D"/>
<path d="M602.006 460.372C601.749 460.372 601.528 460.224 601.436 459.967C601.326 459.654 601.491 459.305 601.804 459.176L622.625 451.583L618.486 441.066C618.431 440.919 618.431 440.735 618.486 440.588C618.56 440.441 618.67 440.312 618.836 440.257L648.798 429.078C649.111 428.967 649.46 429.115 649.589 429.446C649.699 429.758 649.552 430.107 649.221 430.236L619.847 441.194L623.986 451.73C624.041 451.877 624.041 452.061 623.986 452.208C623.912 452.355 623.784 452.484 623.636 452.539L602.227 460.353C602.227 460.353 602.08 460.39 602.025 460.39L602.006 460.372Z" fill="#3EC46D"/>
<path d="M579.622 554.308C579.622 554.308 579.567 554.308 579.53 554.308L547.471 549.344C547.14 549.288 546.901 548.976 546.956 548.645C547.011 548.314 547.324 548.093 547.655 548.13L579.125 553.003L581.461 540.077C581.516 539.783 581.774 539.58 582.068 539.58H610.32C610.651 539.58 610.927 539.856 610.927 540.187C610.927 540.518 610.651 540.794 610.32 540.794H582.583L580.229 553.812C580.174 554.106 579.916 554.308 579.622 554.308Z" fill="#3EC46D"/>
<path d="M380.978 190.256C388.231 190.256 394.11 184.378 394.11 177.128C394.11 169.878 388.231 164 380.978 164C373.725 164 367.845 169.878 367.845 177.128C367.845 184.378 373.725 190.256 380.978 190.256Z" fill="#F07400"/>
</g>
</g>
<defs>
<clipPath id="clip0_26_398">
<rect width="750" height="1050" fill="white"/>
</clipPath>
<clipPath id="clip1_26_398">
<rect width="700" height="722" fill="white" transform="translate(25 164)"/>
</clipPath>
</defs>
</svg>
