<svg width="750" height="1050" viewBox="0 0 750 1050" fill="none" xmlns="http://www.w3.org/2000/svg">
<g clip-path="url(#clip0_26_1094)">
<rect width="750" height="1050" rx="90" fill="white"/>
<mask id="mask0_26_1094" style="mask-type:alpha" maskUnits="userSpaceOnUse" x="25" y="25" width="700" height="1000">
<rect x="25" y="25" width="700" height="1000" rx="70" fill="#FEF102"/>
</mask>
<g mask="url(#mask0_26_1094)">
<path d="M374.905 359.904H0V734.809H374.905V359.904Z" fill="#69BAD8"/>
<path d="M374.905 359.904H0V424.213H374.905V359.904Z" fill="white"/>
<path d="M374.905 483.051H0V547.36H374.905V483.051Z" fill="white"/>
<path d="M374.905 606.927H0V671.236H374.905V606.927Z" fill="white"/>
<path d="M187.448 547.695H375.231V359.912H187.448L187.448 547.695Z" fill="#4242CC"/>
<path d="M374.903 483.051H187.447V547.361H374.903V483.051Z" fill="#5494FC"/>
<path d="M374.903 359.904H187.447V424.213H374.903V359.904Z" fill="#5494FC"/>
<path d="M749.804 359.904H374.898V734.809H749.804V359.904Z" fill="#28286B"/>
<path d="M749.6 359.904V733.89C646.319 733.89 562.604 650.181 562.604 546.9C562.604 495.279 583.521 448.513 617.36 414.668C651.206 380.822 697.978 359.904 749.6 359.904Z" fill="#F4AC4D"/>
<path d="M704.708 411.984C683.979 418.854 664.988 430.516 649.101 446.403C622.264 473.24 607.486 508.93 607.486 546.893C607.486 609.578 648.277 662.905 704.708 681.739C704.708 681.739 730.066 689.321 749.8 688.817V603.716V490.002V404.9C730.072 404.397 704.708 411.984 704.708 411.984Z" fill="#4242CC"/>
<path d="M374.904 359.904V733.89C478.184 733.89 561.9 650.181 561.9 546.9C561.9 495.279 540.982 448.513 507.143 414.668C473.291 380.822 426.519 359.904 374.904 359.904Z" fill="#74509E"/>
<path d="M375.229 446.404V647.391C430.735 647.391 475.726 602.401 475.726 546.894C475.726 519.151 464.486 494.02 446.295 475.829C428.11 457.65 402.973 446.404 375.229 446.404Z" fill="#EDD15A"/>
<path d="M749.602 547.694C749.602 571.905 729.975 591.532 705.764 591.532C681.553 591.532 661.926 571.905 661.926 547.694C661.926 523.483 681.553 503.856 705.764 503.856C729.975 503.856 749.602 523.483 749.602 547.694Z" fill="#28286B"/>
<path d="M749.804 734.809H374.898V1109.71H749.804V734.809Z" fill="#69BAD8"/>
<path d="M374.918 922.599L562.702 734.809H374.918V922.599Z" fill="white"/>
<path d="M562.217 922.599L750 734.809H562.217V922.599Z" fill="#4242CC"/>
<path d="M374.898 1109.71L749.999 734.809L749.804 1109.71H374.898Z" fill="#5494FC"/>
<path d="M562.212 1109.71H749.995V921.93H562.212V1109.71Z" fill="#74509E"/>
<path d="M699.948 1015.82C699.948 1040.03 680.321 1059.66 656.109 1059.66C631.898 1059.66 612.271 1040.03 612.271 1015.82C612.271 991.612 631.898 971.985 656.109 971.985C680.321 971.985 699.948 991.612 699.948 1015.82Z" fill="#28286B"/>
<path d="M749.804 -14.9958H374.898V359.909H749.804V-14.9958Z" fill="#F4AC4D"/>
<path d="M562.212 359.905H749.995V-15H562.212V359.905Z" fill="#5494FC"/>
<path d="M562.216 172.454L749.999 360.244V172.454H562.216Z" fill="white"/>
<path d="M375.212 -12.5529L563.001 175.23V-12.5529H375.212Z" fill="#EDD15A"/>
<path d="M562.688 359.902H374.905V172.119C478.613 172.119 562.688 256.194 562.688 359.902Z" fill="#74509E"/>
<path d="M374.905 -14.9957H0V359.91H374.905V-14.9957Z" fill="#5494FC"/>
<path d="M0.332031 172.124L0.332031 359.907H375.237V172.124L0.332031 172.124Z" fill="#28286B"/>
<path d="M187.115 359.903H374.898V172.12C271.19 172.12 187.115 256.195 187.115 359.903Z" fill="#F0CA30"/>
<path d="M187.783 359.903H0V172.12C103.708 172.12 187.783 256.195 187.783 359.903Z" fill="#F4AC4D"/>
<path d="M187.115 172.787H374.898V-14.9958C271.19 -14.9958 187.115 69.0792 187.115 172.787Z" fill="#4242CC"/>
<path d="M0.00141907 172.788L187.785 172.788L187.785 -14.9955L0.00141907 -14.9955L0.00141907 172.788Z" fill="#5494FC"/>
<path d="M137.731 78.8958C137.731 103.107 118.104 122.734 93.8931 122.734C69.6819 122.734 50.0547 103.107 50.0547 78.8958C50.0547 54.6846 69.6819 35.0575 93.8931 35.0575C118.104 35.0575 137.731 54.6846 137.731 78.8958Z" fill="#28286B"/>
<path d="M374.905 734.809H0V1109.71H374.905V734.809Z" fill="#9C7CDC"/>
<path d="M0.00117493 1109.72H187.784L187.784 734.812H0.00117493L0.00117493 1109.72Z" fill="#28286B"/>
<path d="M187.115 1109.72H374.898V921.932C271.19 921.932 187.115 1006.01 187.115 1109.72Z" fill="#F0CA30"/>
<path d="M187.783 1109.72H0V921.932C103.708 921.932 187.783 1006.01 187.783 1109.72Z" fill="#F4AC4D"/>
<path d="M187.115 734.809L374.898 922.599V734.809H187.115Z" fill="#5494FC"/>
<path d="M579.926 525.037C579.926 411.839 488.161 320.074 374.963 320.074C261.765 320.074 170 411.839 170 525.037C170 638.235 261.765 730 374.963 730C488.161 730 579.926 638.235 579.926 525.037Z" fill="white"/>
</g>
<path d="M418.88 487.697V552.337C418.88 563.137 418.35 573.137 413.7 583.087C409.91 591.217 404.09 598.787 396.15 603.207C391.86 605.597 387.19 606.907 382.3 606.907C379.1 606.907 376 606.347 373.04 605.287C373.02 605.277 372.99 605.267 372.98 605.257C369.6 604.057 366.59 602.017 364.07 599.487C360.64 596.067 355.16 590.587 355.16 590.577L337.11 572.527L331 566.417C332.97 567.107 335.01 567.557 337.11 567.737C337.85 567.807 338.6 567.847 339.36 567.847C341.61 567.847 343.8 567.547 345.93 566.977C348.46 566.287 350.89 565.227 353.17 563.827C353.9 563.377 354.62 562.887 355.33 562.367C365.88 554.607 373.05 539.407 373.05 521.917V503.487C373.05 503.437 373.06 503.367 373.05 503.047V502.677V444.137C373.05 443.127 374.28 442.617 374.99 443.337L418.55 486.897C418.76 487.117 418.88 487.397 418.88 487.697Z" fill="black"/>
<path d="M353.21 481.867V530.137C353.21 530.207 353.2 530.277 353.19 530.337C352.21 536.397 349.29 541.317 345.47 543.547C344.05 544.377 342.5 544.837 340.88 544.837C340.26 544.837 339.64 544.767 339.04 544.637C338.66 544.547 338.28 544.437 337.91 544.307C337.45 544.137 337.14 543.717 337.14 543.227V468.077C337.14 467.067 338.36 466.557 339.08 467.277L347.83 476.027H347.84L352.86 481.057C353.09 481.277 353.21 481.567 353.21 481.867Z" fill="black"/>
<path d="M393.95 491.767V504.607L384.86 495.517V482.677L393.95 491.767Z" fill="white"/>
<path d="M384.86 508.357L393.95 517.437V530.287L384.86 521.197V508.357Z" fill="white"/>
<path d="M403.02 513.677V526.517L393.95 517.437V504.607L403.02 513.677Z" fill="white"/>
<path d="M412.1 522.747L403.02 513.677V500.837L412.1 509.917V522.747Z" fill="white"/>
<path d="M403.02 539.357V526.517L412.1 535.597V548.437L403.02 539.357Z" fill="white"/>
</g>
<defs>
<clipPath id="clip0_26_1094">
<rect width="750" height="1050" fill="white"/>
</clipPath>
</defs>
</svg>
