<svg width="73" height="58" viewBox="0 0 73 58" fill="none" xmlns="http://www.w3.org/2000/svg">
<mask id="path-1-outside-1_9354_5225" maskUnits="userSpaceOnUse" x="-0.5" y="-0.5" width="74" height="59" fill="black">
<rect fill="white" x="-0.5" y="-0.5" width="74" height="59"/>
<path d="M40.966 27.8791V29.8453H44.7073C45.6956 29.8453 46.4897 30.6721 46.4897 31.7012V37.0116C46.4897 37.5261 46.2956 37.9855 45.9779 38.3162C45.6603 38.647 45.2015 38.8675 44.725 38.8675H41.019V40.8337H44.725C45.7132 40.8337 46.5074 41.6605 46.5074 42.6896V48C46.5074 48.5145 46.3133 48.9739 45.9956 49.3046C45.6779 49.6354 45.2191 49.8559 44.7426 49.8559H35.8482C34.8776 49.8559 34.0658 49.0106 34.0658 48V42.6896C34.0658 41.6789 34.8599 40.8337 35.8482 40.8337H39.5895V38.8675H35.8482C34.8776 38.8675 34.0658 38.0222 34.0658 37.0116V31.7012C34.0658 30.6905 34.8599 29.8453 35.8482 29.8453H39.5542V27.8791H35.8482C34.8776 27.8791 34.0658 27.0338 34.0658 26.0232V20.7128C34.0658 19.6837 34.8599 18.8569 35.8482 18.8569H44.7073C45.6956 18.8569 46.4897 19.6837 46.4897 20.7128V26.0232C46.4897 26.5377 46.2956 26.9971 45.9779 27.3279C45.6603 27.6586 45.2015 27.8791 44.725 27.8791H40.966ZM44.7073 42.3037H35.8482C35.6541 42.3037 35.4776 42.4691 35.4776 42.6896V48C35.4776 48.2205 35.6364 48.3859 35.8482 48.3859H44.7073L44.972 48.2756C45.0426 48.2021 45.0779 48.1103 45.0779 48V42.6896C45.0779 42.4874 44.9191 42.3037 44.7073 42.3037ZM44.7073 31.3153H35.8482C35.6541 31.3153 35.4776 31.4807 35.4776 31.7012V37.0116C35.4776 37.2321 35.6364 37.3975 35.8482 37.3975H44.7073L44.972 37.2872C45.0426 37.2137 45.0779 37.1219 45.0779 37.0116V31.7012C45.0779 31.4807 44.9191 31.3153 44.7073 31.3153ZM57.2724 43.9391C55.8783 42.322 53.9194 41.3482 51.8193 41.2379L51.0252 50.2602L57.2724 43.9391ZM52.1017 39.7863C54.4135 39.9516 56.5842 41.0358 58.1725 42.7998L62.1608 34.0716L63.1314 30.1576C63.1491 30.1025 63.1667 30.0658 63.1844 30.029L70.967 13.0319C69.8199 11.5251 68.0904 10.6799 66.2551 10.6983L58.4725 27.6954C58.4548 27.7505 58.4195 27.8056 58.3842 27.8607L56.1077 31.0764L52.1017 39.7863ZM57.2195 26.9787L62.5667 15.3288H12.7828V19.6654H25.2773C27.8538 19.6654 29.9715 21.8704 29.9715 24.5532V45.1151C29.9715 47.7979 27.8715 50.0029 25.2773 50.0029H12.7828V52.0058C12.7828 54.2108 14.5122 56.0116 16.6299 56.0116H61.2608C63.3785 56.0116 65.108 54.2108 65.108 52.0058V29.2756L64.508 30.5986L63.5373 34.4574C63.5197 34.5126 63.502 34.5861 63.4844 34.6412L59.2137 43.9574C59.1784 44.0309 59.1254 44.1045 59.0725 44.1596L50.6722 52.6673C50.2134 53.1451 49.4192 52.7592 49.4898 52.0793L50.5487 39.9884C50.5487 39.8781 50.5663 39.7863 50.6193 39.676L54.89 30.3598L57.2195 26.9787ZM63.2373 13.8588L65.0903 9.81625V5.9942C65.0903 3.78917 63.3609 1.98839 61.2431 1.98839H16.6299C14.5122 1.98839 12.7828 3.78917 12.7828 5.9942V13.8588H63.2373ZM66.5021 9.22824C67.5434 9.26499 68.5669 9.52224 69.4846 9.96325C70.5964 10.5145 71.5847 11.3781 72.3435 12.4807C72.5023 12.7012 72.5553 12.9952 72.4318 13.2708L66.5021 26.207V52.0242C66.5021 55.0377 64.1374 57.5 61.2431 57.5H16.6299C13.7357 57.5 11.3709 55.0377 11.3709 52.0242V50.0213C9.30617 50.0213 7.2414 50.0213 5.19427 50.0213C2.61772 50.0213 0.5 47.8162 0.5 45.1335V24.5532C0.5 21.8704 2.61772 19.6654 5.19427 19.6654H11.3709V5.97582C11.3709 2.96228 13.7357 0.5 16.6299 0.5H61.2608C64.155 0.5 66.5198 2.96228 66.5198 5.97582V9.22824H66.5021ZM15.2358 28.3017C18.2359 28.3017 20.6712 30.8375 20.6712 33.9613C20.6712 35.8356 19.7889 37.5261 18.3947 38.5735C22.8419 39.8046 25.3479 43.6634 25.5773 48.5329C27.2362 48.3675 28.5421 46.8975 28.5421 45.1335V24.5532C28.5421 22.6789 27.0597 21.1354 25.2596 21.1354H5.17662C3.37656 21.1354 1.89416 22.6789 1.89416 24.5532V45.1151C1.89416 46.8791 3.20009 48.3491 4.85897 48.5145C5.08838 43.6451 7.59435 39.7863 12.0416 38.5551C9.32382 36.5155 8.98851 32.4178 11.3709 29.9555C12.3769 28.9449 13.7357 28.3017 15.2358 28.3017ZM18.077 31.0029C15.5534 28.3752 11.2121 30.2495 11.2121 33.9613C11.2121 37.6731 15.5534 39.5658 18.077 36.9381C19.6477 35.3027 19.6477 32.6383 18.077 31.0029ZM15.2358 39.6393C9.85325 39.6393 6.57079 43.1489 6.28842 48.5513H24.1655C23.9008 43.1489 20.6007 39.6393 15.2358 39.6393ZM44.7073 20.3269H35.8482C35.6541 20.3269 35.4776 20.4923 35.4776 20.7128V26.0232C35.4776 26.2437 35.6364 26.4091 35.8482 26.4091H44.7073L44.972 26.2988C45.0426 26.2253 45.0779 26.1335 45.0779 26.0232V20.7128C45.0779 20.4923 44.9191 20.3269 44.7073 20.3269ZM44.9367 5.49806H59.5843C60.802 5.49806 61.8079 6.54545 61.8079 7.81335C61.8079 8.64023 61.7902 9.26499 61.1549 9.9265C60.749 10.3491 60.2019 10.6064 59.5843 10.6064H44.9367C43.7191 10.6064 42.7131 9.55899 42.7131 8.2911C42.7131 7.46422 42.7308 6.83946 43.3661 6.17795C43.772 5.77369 44.3367 5.49806 44.9367 5.49806ZM59.5843 6.96809H44.9367C44.4955 6.96809 44.125 7.35396 44.125 7.81335C44.125 8.23598 44.072 8.58511 44.372 8.87911C44.5308 9.04449 44.725 9.13636 44.9544 9.13636H59.6019C60.0608 9.13636 60.4137 8.75048 60.4137 8.2911C60.4137 7.86847 60.4667 7.51934 60.1666 7.22534C60.0255 7.07834 59.8137 6.96809 59.5843 6.96809ZM32.9716 5.49806C35.1423 5.49806 36.2541 8.25435 34.7011 9.853C33.1481 11.47 30.501 10.3124 30.501 8.05222C30.5186 6.65571 31.6128 5.49806 32.9716 5.49806ZM33.7128 7.29884C33.0599 6.61895 31.9304 7.09671 31.9304 8.0706C31.9304 9.04449 33.0599 9.52224 33.7128 8.84236C34.1187 8.40135 34.1187 7.72147 33.7128 7.29884ZM25.7361 5.49806C27.9244 5.49806 29.0186 8.25435 27.4656 9.853C25.9302 11.47 23.2654 10.3124 23.2654 8.05222C23.2831 6.65571 24.3772 5.49806 25.7361 5.49806ZM26.4773 7.29884C25.8244 6.61895 24.6949 7.09671 24.6949 8.0706C24.6949 9.04449 25.8244 9.52224 26.4773 8.84236C26.8832 8.40135 26.8832 7.72147 26.4773 7.29884ZM18.5182 5.49806C20.6889 5.49806 21.8007 8.25435 20.2477 9.853C18.6947 11.47 16.0476 10.3124 16.0476 8.05222C16.0476 6.65571 17.1594 5.49806 18.5182 5.49806ZM19.2418 7.29884C18.5888 6.61895 17.4594 7.09671 17.4594 8.0706C17.4594 9.04449 18.5888 9.52224 19.2418 8.84236C19.6477 8.40135 19.6477 7.72147 19.2418 7.29884Z"/>
</mask>
<path d="M40.966 27.8791V29.8453H44.7073C45.6956 29.8453 46.4897 30.6721 46.4897 31.7012V37.0116C46.4897 37.5261 46.2956 37.9855 45.9779 38.3162C45.6603 38.647 45.2015 38.8675 44.725 38.8675H41.019V40.8337H44.725C45.7132 40.8337 46.5074 41.6605 46.5074 42.6896V48C46.5074 48.5145 46.3133 48.9739 45.9956 49.3046C45.6779 49.6354 45.2191 49.8559 44.7426 49.8559H35.8482C34.8776 49.8559 34.0658 49.0106 34.0658 48V42.6896C34.0658 41.6789 34.8599 40.8337 35.8482 40.8337H39.5895V38.8675H35.8482C34.8776 38.8675 34.0658 38.0222 34.0658 37.0116V31.7012C34.0658 30.6905 34.8599 29.8453 35.8482 29.8453H39.5542V27.8791H35.8482C34.8776 27.8791 34.0658 27.0338 34.0658 26.0232V20.7128C34.0658 19.6837 34.8599 18.8569 35.8482 18.8569H44.7073C45.6956 18.8569 46.4897 19.6837 46.4897 20.7128V26.0232C46.4897 26.5377 46.2956 26.9971 45.9779 27.3279C45.6603 27.6586 45.2015 27.8791 44.725 27.8791H40.966ZM44.7073 42.3037H35.8482C35.6541 42.3037 35.4776 42.4691 35.4776 42.6896V48C35.4776 48.2205 35.6364 48.3859 35.8482 48.3859H44.7073L44.972 48.2756C45.0426 48.2021 45.0779 48.1103 45.0779 48V42.6896C45.0779 42.4874 44.9191 42.3037 44.7073 42.3037ZM44.7073 31.3153H35.8482C35.6541 31.3153 35.4776 31.4807 35.4776 31.7012V37.0116C35.4776 37.2321 35.6364 37.3975 35.8482 37.3975H44.7073L44.972 37.2872C45.0426 37.2137 45.0779 37.1219 45.0779 37.0116V31.7012C45.0779 31.4807 44.9191 31.3153 44.7073 31.3153ZM57.2724 43.9391C55.8783 42.322 53.9194 41.3482 51.8193 41.2379L51.0252 50.2602L57.2724 43.9391ZM52.1017 39.7863C54.4135 39.9516 56.5842 41.0358 58.1725 42.7998L62.1608 34.0716L63.1314 30.1576C63.1491 30.1025 63.1667 30.0658 63.1844 30.029L70.967 13.0319C69.8199 11.5251 68.0904 10.6799 66.2551 10.6983L58.4725 27.6954C58.4548 27.7505 58.4195 27.8056 58.3842 27.8607L56.1077 31.0764L52.1017 39.7863ZM57.2195 26.9787L62.5667 15.3288H12.7828V19.6654H25.2773C27.8538 19.6654 29.9715 21.8704 29.9715 24.5532V45.1151C29.9715 47.7979 27.8715 50.0029 25.2773 50.0029H12.7828V52.0058C12.7828 54.2108 14.5122 56.0116 16.6299 56.0116H61.2608C63.3785 56.0116 65.108 54.2108 65.108 52.0058V29.2756L64.508 30.5986L63.5373 34.4574C63.5197 34.5126 63.502 34.5861 63.4844 34.6412L59.2137 43.9574C59.1784 44.0309 59.1254 44.1045 59.0725 44.1596L50.6722 52.6673C50.2134 53.1451 49.4192 52.7592 49.4898 52.0793L50.5487 39.9884C50.5487 39.8781 50.5663 39.7863 50.6193 39.676L54.89 30.3598L57.2195 26.9787ZM63.2373 13.8588L65.0903 9.81625V5.9942C65.0903 3.78917 63.3609 1.98839 61.2431 1.98839H16.6299C14.5122 1.98839 12.7828 3.78917 12.7828 5.9942V13.8588H63.2373ZM66.5021 9.22824C67.5434 9.26499 68.5669 9.52224 69.4846 9.96325C70.5964 10.5145 71.5847 11.3781 72.3435 12.4807C72.5023 12.7012 72.5553 12.9952 72.4318 13.2708L66.5021 26.207V52.0242C66.5021 55.0377 64.1374 57.5 61.2431 57.5H16.6299C13.7357 57.5 11.3709 55.0377 11.3709 52.0242V50.0213C9.30617 50.0213 7.2414 50.0213 5.19427 50.0213C2.61772 50.0213 0.5 47.8162 0.5 45.1335V24.5532C0.5 21.8704 2.61772 19.6654 5.19427 19.6654H11.3709V5.97582C11.3709 2.96228 13.7357 0.5 16.6299 0.5H61.2608C64.155 0.5 66.5198 2.96228 66.5198 5.97582V9.22824H66.5021ZM15.2358 28.3017C18.2359 28.3017 20.6712 30.8375 20.6712 33.9613C20.6712 35.8356 19.7889 37.5261 18.3947 38.5735C22.8419 39.8046 25.3479 43.6634 25.5773 48.5329C27.2362 48.3675 28.5421 46.8975 28.5421 45.1335V24.5532C28.5421 22.6789 27.0597 21.1354 25.2596 21.1354H5.17662C3.37656 21.1354 1.89416 22.6789 1.89416 24.5532V45.1151C1.89416 46.8791 3.20009 48.3491 4.85897 48.5145C5.08838 43.6451 7.59435 39.7863 12.0416 38.5551C9.32382 36.5155 8.98851 32.4178 11.3709 29.9555C12.3769 28.9449 13.7357 28.3017 15.2358 28.3017ZM18.077 31.0029C15.5534 28.3752 11.2121 30.2495 11.2121 33.9613C11.2121 37.6731 15.5534 39.5658 18.077 36.9381C19.6477 35.3027 19.6477 32.6383 18.077 31.0029ZM15.2358 39.6393C9.85325 39.6393 6.57079 43.1489 6.28842 48.5513H24.1655C23.9008 43.1489 20.6007 39.6393 15.2358 39.6393ZM44.7073 20.3269H35.8482C35.6541 20.3269 35.4776 20.4923 35.4776 20.7128V26.0232C35.4776 26.2437 35.6364 26.4091 35.8482 26.4091H44.7073L44.972 26.2988C45.0426 26.2253 45.0779 26.1335 45.0779 26.0232V20.7128C45.0779 20.4923 44.9191 20.3269 44.7073 20.3269ZM44.9367 5.49806H59.5843C60.802 5.49806 61.8079 6.54545 61.8079 7.81335C61.8079 8.64023 61.7902 9.26499 61.1549 9.9265C60.749 10.3491 60.2019 10.6064 59.5843 10.6064H44.9367C43.7191 10.6064 42.7131 9.55899 42.7131 8.2911C42.7131 7.46422 42.7308 6.83946 43.3661 6.17795C43.772 5.77369 44.3367 5.49806 44.9367 5.49806ZM59.5843 6.96809H44.9367C44.4955 6.96809 44.125 7.35396 44.125 7.81335C44.125 8.23598 44.072 8.58511 44.372 8.87911C44.5308 9.04449 44.725 9.13636 44.9544 9.13636H59.6019C60.0608 9.13636 60.4137 8.75048 60.4137 8.2911C60.4137 7.86847 60.4667 7.51934 60.1666 7.22534C60.0255 7.07834 59.8137 6.96809 59.5843 6.96809ZM32.9716 5.49806C35.1423 5.49806 36.2541 8.25435 34.7011 9.853C33.1481 11.47 30.501 10.3124 30.501 8.05222C30.5186 6.65571 31.6128 5.49806 32.9716 5.49806ZM33.7128 7.29884C33.0599 6.61895 31.9304 7.09671 31.9304 8.0706C31.9304 9.04449 33.0599 9.52224 33.7128 8.84236C34.1187 8.40135 34.1187 7.72147 33.7128 7.29884ZM25.7361 5.49806C27.9244 5.49806 29.0186 8.25435 27.4656 9.853C25.9302 11.47 23.2654 10.3124 23.2654 8.05222C23.2831 6.65571 24.3772 5.49806 25.7361 5.49806ZM26.4773 7.29884C25.8244 6.61895 24.6949 7.09671 24.6949 8.0706C24.6949 9.04449 25.8244 9.52224 26.4773 8.84236C26.8832 8.40135 26.8832 7.72147 26.4773 7.29884ZM18.5182 5.49806C20.6889 5.49806 21.8007 8.25435 20.2477 9.853C18.6947 11.47 16.0476 10.3124 16.0476 8.05222C16.0476 6.65571 17.1594 5.49806 18.5182 5.49806ZM19.2418 7.29884C18.5888 6.61895 17.4594 7.09671 17.4594 8.0706C17.4594 9.04449 18.5888 9.52224 19.2418 8.84236C19.6477 8.40135 19.6477 7.72147 19.2418 7.29884Z" fill="black"/>
<path d="M40.966 27.8791V29.8453H44.7073C45.6956 29.8453 46.4897 30.6721 46.4897 31.7012V37.0116C46.4897 37.5261 46.2956 37.9855 45.9779 38.3162C45.6603 38.647 45.2015 38.8675 44.725 38.8675H41.019V40.8337H44.725C45.7132 40.8337 46.5074 41.6605 46.5074 42.6896V48C46.5074 48.5145 46.3133 48.9739 45.9956 49.3046C45.6779 49.6354 45.2191 49.8559 44.7426 49.8559H35.8482C34.8776 49.8559 34.0658 49.0106 34.0658 48V42.6896C34.0658 41.6789 34.8599 40.8337 35.8482 40.8337H39.5895V38.8675H35.8482C34.8776 38.8675 34.0658 38.0222 34.0658 37.0116V31.7012C34.0658 30.6905 34.8599 29.8453 35.8482 29.8453H39.5542V27.8791H35.8482C34.8776 27.8791 34.0658 27.0338 34.0658 26.0232V20.7128C34.0658 19.6837 34.8599 18.8569 35.8482 18.8569H44.7073C45.6956 18.8569 46.4897 19.6837 46.4897 20.7128V26.0232C46.4897 26.5377 46.2956 26.9971 45.9779 27.3279C45.6603 27.6586 45.2015 27.8791 44.725 27.8791H40.966ZM44.7073 42.3037H35.8482C35.6541 42.3037 35.4776 42.4691 35.4776 42.6896V48C35.4776 48.2205 35.6364 48.3859 35.8482 48.3859H44.7073L44.972 48.2756C45.0426 48.2021 45.0779 48.1103 45.0779 48V42.6896C45.0779 42.4874 44.9191 42.3037 44.7073 42.3037ZM44.7073 31.3153H35.8482C35.6541 31.3153 35.4776 31.4807 35.4776 31.7012V37.0116C35.4776 37.2321 35.6364 37.3975 35.8482 37.3975H44.7073L44.972 37.2872C45.0426 37.2137 45.0779 37.1219 45.0779 37.0116V31.7012C45.0779 31.4807 44.9191 31.3153 44.7073 31.3153ZM57.2724 43.9391C55.8783 42.322 53.9194 41.3482 51.8193 41.2379L51.0252 50.2602L57.2724 43.9391ZM52.1017 39.7863C54.4135 39.9516 56.5842 41.0358 58.1725 42.7998L62.1608 34.0716L63.1314 30.1576C63.1491 30.1025 63.1667 30.0658 63.1844 30.029L70.967 13.0319C69.8199 11.5251 68.0904 10.6799 66.2551 10.6983L58.4725 27.6954C58.4548 27.7505 58.4195 27.8056 58.3842 27.8607L56.1077 31.0764L52.1017 39.7863ZM57.2195 26.9787L62.5667 15.3288H12.7828V19.6654H25.2773C27.8538 19.6654 29.9715 21.8704 29.9715 24.5532V45.1151C29.9715 47.7979 27.8715 50.0029 25.2773 50.0029H12.7828V52.0058C12.7828 54.2108 14.5122 56.0116 16.6299 56.0116H61.2608C63.3785 56.0116 65.108 54.2108 65.108 52.0058V29.2756L64.508 30.5986L63.5373 34.4574C63.5197 34.5126 63.502 34.5861 63.4844 34.6412L59.2137 43.9574C59.1784 44.0309 59.1254 44.1045 59.0725 44.1596L50.6722 52.6673C50.2134 53.1451 49.4192 52.7592 49.4898 52.0793L50.5487 39.9884C50.5487 39.8781 50.5663 39.7863 50.6193 39.676L54.89 30.3598L57.2195 26.9787ZM63.2373 13.8588L65.0903 9.81625V5.9942C65.0903 3.78917 63.3609 1.98839 61.2431 1.98839H16.6299C14.5122 1.98839 12.7828 3.78917 12.7828 5.9942V13.8588H63.2373ZM66.5021 9.22824C67.5434 9.26499 68.5669 9.52224 69.4846 9.96325C70.5964 10.5145 71.5847 11.3781 72.3435 12.4807C72.5023 12.7012 72.5553 12.9952 72.4318 13.2708L66.5021 26.207V52.0242C66.5021 55.0377 64.1374 57.5 61.2431 57.5H16.6299C13.7357 57.5 11.3709 55.0377 11.3709 52.0242V50.0213C9.30617 50.0213 7.2414 50.0213 5.19427 50.0213C2.61772 50.0213 0.5 47.8162 0.5 45.1335V24.5532C0.5 21.8704 2.61772 19.6654 5.19427 19.6654H11.3709V5.97582C11.3709 2.96228 13.7357 0.5 16.6299 0.5H61.2608C64.155 0.5 66.5198 2.96228 66.5198 5.97582V9.22824H66.5021ZM15.2358 28.3017C18.2359 28.3017 20.6712 30.8375 20.6712 33.9613C20.6712 35.8356 19.7889 37.5261 18.3947 38.5735C22.8419 39.8046 25.3479 43.6634 25.5773 48.5329C27.2362 48.3675 28.5421 46.8975 28.5421 45.1335V24.5532C28.5421 22.6789 27.0597 21.1354 25.2596 21.1354H5.17662C3.37656 21.1354 1.89416 22.6789 1.89416 24.5532V45.1151C1.89416 46.8791 3.20009 48.3491 4.85897 48.5145C5.08838 43.6451 7.59435 39.7863 12.0416 38.5551C9.32382 36.5155 8.98851 32.4178 11.3709 29.9555C12.3769 28.9449 13.7357 28.3017 15.2358 28.3017ZM18.077 31.0029C15.5534 28.3752 11.2121 30.2495 11.2121 33.9613C11.2121 37.6731 15.5534 39.5658 18.077 36.9381C19.6477 35.3027 19.6477 32.6383 18.077 31.0029ZM15.2358 39.6393C9.85325 39.6393 6.57079 43.1489 6.28842 48.5513H24.1655C23.9008 43.1489 20.6007 39.6393 15.2358 39.6393ZM44.7073 20.3269H35.8482C35.6541 20.3269 35.4776 20.4923 35.4776 20.7128V26.0232C35.4776 26.2437 35.6364 26.4091 35.8482 26.4091H44.7073L44.972 26.2988C45.0426 26.2253 45.0779 26.1335 45.0779 26.0232V20.7128C45.0779 20.4923 44.9191 20.3269 44.7073 20.3269ZM44.9367 5.49806H59.5843C60.802 5.49806 61.8079 6.54545 61.8079 7.81335C61.8079 8.64023 61.7902 9.26499 61.1549 9.9265C60.749 10.3491 60.2019 10.6064 59.5843 10.6064H44.9367C43.7191 10.6064 42.7131 9.55899 42.7131 8.2911C42.7131 7.46422 42.7308 6.83946 43.3661 6.17795C43.772 5.77369 44.3367 5.49806 44.9367 5.49806ZM59.5843 6.96809H44.9367C44.4955 6.96809 44.125 7.35396 44.125 7.81335C44.125 8.23598 44.072 8.58511 44.372 8.87911C44.5308 9.04449 44.725 9.13636 44.9544 9.13636H59.6019C60.0608 9.13636 60.4137 8.75048 60.4137 8.2911C60.4137 7.86847 60.4667 7.51934 60.1666 7.22534C60.0255 7.07834 59.8137 6.96809 59.5843 6.96809ZM32.9716 5.49806C35.1423 5.49806 36.2541 8.25435 34.7011 9.853C33.1481 11.47 30.501 10.3124 30.501 8.05222C30.5186 6.65571 31.6128 5.49806 32.9716 5.49806ZM33.7128 7.29884C33.0599 6.61895 31.9304 7.09671 31.9304 8.0706C31.9304 9.04449 33.0599 9.52224 33.7128 8.84236C34.1187 8.40135 34.1187 7.72147 33.7128 7.29884ZM25.7361 5.49806C27.9244 5.49806 29.0186 8.25435 27.4656 9.853C25.9302 11.47 23.2654 10.3124 23.2654 8.05222C23.2831 6.65571 24.3772 5.49806 25.7361 5.49806ZM26.4773 7.29884C25.8244 6.61895 24.6949 7.09671 24.6949 8.0706C24.6949 9.04449 25.8244 9.52224 26.4773 8.84236C26.8832 8.40135 26.8832 7.72147 26.4773 7.29884ZM18.5182 5.49806C20.6889 5.49806 21.8007 8.25435 20.2477 9.853C18.6947 11.47 16.0476 10.3124 16.0476 8.05222C16.0476 6.65571 17.1594 5.49806 18.5182 5.49806ZM19.2418 7.29884C18.5888 6.61895 17.4594 7.09671 17.4594 8.0706C17.4594 9.04449 18.5888 9.52224 19.2418 8.84236C19.6477 8.40135 19.6477 7.72147 19.2418 7.29884Z" stroke="black" mask="url(#path-1-outside-1_9354_5225)"/>
</svg>
