<svg width="63" height="61" viewBox="0 0 63 61" fill="none" xmlns="http://www.w3.org/2000/svg">
<path d="M30.8413 42.5176H43.4305V49.236H29.8771V42.5176H30.8413ZM41.5428 44.4372H31.8056V47.3165H41.5428V44.4372ZM30.8413 33.1394H43.4305V39.8577H29.8771V33.1394H30.8413ZM41.5428 35.0589H31.8056V37.9245H41.5428V35.0589ZM5.50011 15.3014L10.4434 12.4221L12.4533 15.4522C13.0509 15.3151 13.6484 15.2191 14.2595 15.178V9.73477C14.2595 7.12969 16.3781 4.99078 18.9584 4.99078H29.6734C31.5068 1.96066 34.7797 0 38.4464 0H52.7331C58.3826 0 63 4.66172 63 10.3655C63 16.0692 58.3826 20.7309 52.7331 20.7309H51.9455C52.0134 23.5554 50.6146 25.9 48.3874 27.2985V56.256C48.3874 58.8611 46.2688 61 43.6885 61H18.972C16.3917 61 14.2731 58.8748 14.2731 56.256V39.5698C13.662 39.5287 13.0645 39.4327 12.4669 39.2956L10.457 42.3394L4.7396 39.0076L6.3421 35.717C5.09269 34.3596 4.15564 32.7143 3.61242 30.9456L0 30.6988V24.0353L3.61242 23.7885C4.14206 22.0198 5.07911 20.3745 6.3421 19.0171L4.7396 15.7402L5.50011 15.3014ZM16.1744 15.178C16.7719 15.2191 17.3423 15.3151 17.9263 15.4522L19.9362 12.4221L25.6536 15.7539L24.0511 19.0308C24.6758 19.7026 25.219 20.4567 25.6807 21.2657C26.1425 22.0609 26.5092 22.9247 26.7808 23.8159L30.3932 24.0627V30.7262L26.7808 30.973C26.2511 32.7417 25.3141 34.387 24.0511 35.7444L25.6536 39.0213L19.9362 42.3531L17.9263 39.323C17.3423 39.4601 16.7584 39.5424 16.1744 39.5972V52.9517C26.2783 51.6354 36.3958 51.6354 46.4861 52.9517V28.1623C44.8836 28.6559 43.0638 28.6696 41.6922 27.8744L40.6057 27.2436L41.57 26.2976C42.4663 25.4201 44.6256 23.2949 44.2317 20.7309H38.4464C33.1365 20.7309 28.7228 16.6177 28.2203 11.339H25.7215C23.277 11.339 21.2535 9.36458 21.172 6.91032H18.972C17.4374 6.91032 16.1744 8.18543 16.1744 9.73477V15.178ZM9.85945 14.9724L7.22483 16.508L8.65079 19.4147C7.67299 20.3608 7.04829 20.9777 6.35568 22.198C5.64949 23.432 5.41862 24.2958 5.10627 25.612L1.90127 25.8314V28.9164L5.10627 29.1358C5.43221 30.452 5.64949 31.3021 6.35568 32.5361C7.06187 33.7701 7.68657 34.387 8.65079 35.3331L7.22483 38.2398L9.85945 39.7755L11.6521 37.0744C12.983 37.4583 13.7571 37.6914 15.2238 37.6914C16.6361 37.6914 17.4374 37.472 18.7411 37.0744L20.5337 39.7755L23.1819 38.2398L21.756 35.3331C22.7338 34.387 23.3449 33.7701 24.0511 32.5498C24.7573 31.3158 24.9881 30.452 25.3005 29.1358L28.5055 28.9164V25.8314L25.3005 25.612L25.1375 24.9265C24.6758 23.0207 23.6708 21.2657 22.2585 19.8946L21.756 19.4147L23.1819 16.508L20.5337 14.9724L18.7411 17.6734C17.4645 17.3032 16.6361 17.0564 15.2238 17.0564C13.7571 17.0564 12.9966 17.2758 11.6521 17.6734L9.85945 14.9724ZM12.4533 22.5819C13.7706 21.8141 15.2645 21.6633 16.609 22.0335C19.5288 22.8287 21.2671 25.8588 20.493 28.8204C20.1263 30.1778 19.2436 31.4118 17.9263 32.1796C15.2917 33.7152 11.9509 32.8103 10.4298 30.1504C9.66933 28.8204 9.51994 27.3122 9.87303 25.9548C10.2533 24.57 11.136 23.336 12.4533 22.5819ZM16.1201 23.8708C15.2373 23.624 14.2595 23.7336 13.404 24.2272C10.6471 25.8314 11.1903 30.027 14.2595 30.8633C17.3559 31.6997 19.8819 28.3268 18.3065 25.5572C17.8041 24.6934 17.0164 24.1176 16.1201 23.8708ZM36.2328 11.1607H35.2822V9.24118H40.1033V11.1607H36.2328ZM52.0405 11.1607H51.0899V9.24118H55.911V11.1607H52.0405ZM44.1367 11.1607H43.186V9.24118H48.0071V11.1607H44.1367ZM28.2203 9.41942C28.3018 8.55563 28.4919 7.70555 28.7635 6.91032H23.0733C23.1684 8.30883 24.3227 9.41942 25.7215 9.41942H28.2203ZM45.5898 1.90582H38.4464C33.8426 1.90582 30.0673 5.71747 30.0808 10.3929C30.0944 14.9998 33.8562 18.8114 38.4464 18.8114H45.6713L45.8886 19.4695C46.8799 22.5545 45.2774 25.0499 43.933 26.5855C46.0108 26.7363 48.3059 25.4886 49.3516 23.6514C49.922 22.6505 50.1936 21.4028 49.9763 19.9083L49.8133 18.8114H52.7331C57.3369 18.8114 61.0987 14.9998 61.0987 10.3655C61.0987 5.73118 57.3369 1.91953 52.7331 1.91953H45.5898V1.90582ZM46.4861 54.8575C36.4501 53.5275 26.2104 53.5275 16.1744 54.8575V56.2423C16.1744 57.7916 17.4374 59.0668 18.972 59.0668H43.6885C45.2231 59.0668 46.4861 57.7916 46.4861 56.2423V54.8575Z" fill="black"/>
</svg>
