<svg width="660" height="660" viewBox="0 0 660 660" fill="none" xmlns="http://www.w3.org/2000/svg">
<path d="M528.348 319.652C556.875 210.107 491.197 98.1785 381.652 69.6519C272.107 41.1253 160.179 106.803 131.652 216.348C103.125 325.892 168.803 437.821 278.348 466.347C387.892 494.874 499.821 429.196 528.348 319.652Z" fill="#8C0053"/>
<mask id="mask0_42_1307" style="mask-type:alpha" maskUnits="userSpaceOnUse" x="0" y="0" width="660" height="660">
<circle cx="330" cy="330" r="330" fill="#D9D9D9"/>
</mask>
<g mask="url(#mask0_42_1307)">
<path d="M286.432 412.982C286.698 410.152 286.804 407.102 286.804 403.779C286.804 407.1 286.696 410.152 286.432 412.982Z" fill="#EB9077"/>
<path d="M310.488 432.13C333.278 439.187 358.273 425.413 369.991 400.778V384.006C367.56 385.936 365.059 387.802 362.387 389.557C351.208 396.903 343.842 401.351 328.398 401.351C312.954 401.351 305.588 396.903 294.408 389.557C291.737 387.802 289.236 385.936 286.804 384.006V403.776C286.804 407.099 286.696 410.149 286.432 412.979C292.009 422.058 300.243 428.959 310.488 432.13Z" fill="#EB9077"/>
<path d="M127.028 549.356C127.015 548.123 127.006 546.914 127 545.729C127.004 546.912 127.015 548.123 127.028 549.356Z" fill="#FFB197"/>
<path d="M127.648 573.141C128.009 582.521 128.501 592.318 129.074 601.891C130.523 626.072 131.966 641.187 133.004 650.071C131.964 641.187 130.521 626.072 129.074 601.891C128.501 592.318 128.007 582.521 127.648 573.141Z" fill="#FFB197"/>
<path d="M529.111 524.18C523.091 465.072 504.679 464.54 432.242 451.391C377.368 441.432 369.989 432.236 369.989 403.778V400.779C358.27 425.415 333.278 439.188 310.486 432.132C300.24 428.96 292.007 422.06 286.43 412.98C284.425 434.384 273.015 442.593 224.549 451.389C215.505 453.031 207.304 454.476 199.862 455.863C207.779 468.713 212.993 474.854 223.597 484.633C247.311 506.501 273.933 525.14 302.453 540.192C354.495 567.659 412.939 583.086 471.793 584.286C472.821 575.75 473.907 566.515 475.09 556.51C475.09 556.51 475.2 567.787 475.287 584.369C479.756 584.416 484.23 584.403 488.701 584.284C501.668 583.942 514.167 583.713 528.274 582.599C528.452 582.584 528.575 582.608 528.739 582.603C529.862 558.333 530.251 535.364 529.111 524.18Z" fill="#FFB197"/>
<path d="M323.529 174C332.743 179.758 341.366 193.978 346.291 203.786C344.611 200.264 342.863 196.772 341.013 193.337C336.667 185.27 331.317 177.504 324.447 172.537V172.535C316.205 167.469 306.089 165.403 298.234 170.828C308.975 166.467 317.174 170.028 323.529 174Z" fill="#FFB197"/>
<path d="M404.756 339.928C393.581 328.679 385.851 313.199 380.361 298.724C379.31 296.219 378.328 293.69 377.371 291.148C383.303 310.516 390.924 330.152 402.768 344.125C403.43 342.814 404.094 341.421 404.756 339.928Z" fill="#FFB197"/>
<path d="M396.662 354.279C397.077 353.674 397.492 353.105 397.91 352.488C398.857 351.084 399.822 349.538 400.796 347.824C382.838 332.991 378.419 309.766 373.134 287.57C372.846 287.629 372.558 287.696 372.269 287.748C372.305 288.122 372.362 288.494 372.396 288.868C374.521 311.498 377.463 339.82 396.662 354.279Z" fill="#FFB197"/>
<path d="M432.684 297.334C436.379 282.147 438.569 268.739 437.747 254.509C437.47 249.728 433.459 249.858 431.194 251.972C429.541 253.514 428.094 255.189 426.781 256.952C426.844 260.458 426.837 263.978 426.681 267.532C426.35 275.013 425.89 282.496 425.632 289.983C425.918 297.645 426.026 305.963 427.439 313.827C429.941 307.873 431.717 301.308 432.684 297.334Z" fill="#FFB197"/>
<path d="M241.212 327.022C243.324 327.009 244.914 325.637 246.09 323.56C250.246 337.477 254.728 346.335 258.884 352.49C267.669 365.504 276.244 375.626 286.803 384.009C289.233 385.939 291.736 387.806 294.407 389.56C305.587 396.906 312.953 401.354 328.397 401.354C343.841 401.354 351.207 396.906 362.386 389.56C365.058 387.806 367.559 385.939 369.99 384.009C379.814 376.21 387.928 366.861 396.08 355.116C379.098 343.85 373.525 320.99 371.137 301.354C370.596 296.92 370.064 292.489 369.506 288.067C368.262 288.141 367.014 288.121 365.781 287.918C361.177 287.159 354.681 283.847 350.722 285.214C352.106 279.938 355.698 275.183 359.234 272.544C361.287 271.01 363.561 269.924 365.936 269.262C365.229 266.112 364.478 262.924 363.684 259.713C360.857 261.411 358.226 263.438 355.726 265.522C352.792 267.962 347.622 269.522 345.435 268.051C341.82 265.619 343.042 263.2 344.6 261.6C347.674 258.435 353.956 253.751 361.463 251.14C357.595 236.943 352.749 222.712 346.46 210.226C341.459 200.299 335.955 189.861 327.817 182.127C319.289 174.023 306.262 169.755 295.604 176.379C295.063 176.717 294.262 176.466 293.395 175.237C289.877 171.051 287.32 166.536 284.686 158.885C284.554 164.358 287.837 173.807 289.177 176.2C289.914 177.519 288.696 178.032 288.236 178.168C280.666 180.407 266.406 187.248 258.735 204.472C252.593 218.258 250.447 234.249 248.959 249.102C247.869 259.992 247.477 270.921 247.672 281.85C247.724 284.794 247.797 287.741 247.938 290.685C247.996 291.886 246.724 292.059 246.207 290.707C243.804 284.424 241 278.032 238.599 272.559C237.483 270.01 236.444 267.644 235.59 265.615C235.503 264.535 235.406 263.488 235.311 262.424C235.399 263.815 235.477 265.197 235.601 266.608C233.089 261.16 230.048 256.12 225.6 251.969C223.335 249.853 219.324 249.725 219.047 254.506C218.225 268.736 220.414 282.144 224.109 297.331C226.221 306.014 232.183 327.078 241.212 327.022ZM282.178 287.358C275.442 285.774 271.433 282.118 269.274 280.124C261.428 274.642 260.204 270.601 260.204 270.601C260.204 270.601 265.882 273.515 268.338 273.697C270.28 273.842 273.376 271.176 279.463 269.361C285.583 267.538 292.023 268.728 297.135 272.544C300.672 275.183 304.263 279.938 305.648 285.214C301.689 283.847 295.193 287.157 290.589 287.918C287.792 288.379 284.932 288.005 282.178 287.358ZM353.662 352.882C354.648 353.171 355.7 353.42 356.786 353.656C357.05 353.383 357.337 353.107 357.631 352.882C358.164 352.475 358.713 352.302 359.167 352.882C359.282 353.029 359.395 353.206 359.496 353.459C359.769 354.151 359.799 354.999 359.051 355.328C358.421 355.605 357.807 355.095 357.136 354.859C352.866 358.541 348.468 364.79 342.711 368.102C338.365 370.601 332.886 370.398 328.185 370.398C323.484 370.398 318.004 370.603 313.658 368.102C307.902 364.793 303.504 358.541 299.234 354.859C298.563 355.095 297.949 355.603 297.321 355.328C296.571 354.999 296.601 354.151 296.876 353.459C296.977 353.204 297.088 353.029 297.202 352.882C297.657 352.302 298.204 352.475 298.738 352.882C299.035 353.107 299.32 353.386 299.584 353.656C300.67 353.42 301.721 353.169 302.708 352.882C310.9 350.478 315.856 346.541 319.943 345.736C323.687 344.999 325.113 348.587 328.152 348.815C328.159 348.812 328.178 348.812 328.185 348.81C328.194 348.812 328.211 348.812 328.217 348.815C331.259 348.587 332.682 344.999 336.427 345.736C340.516 346.541 345.47 350.478 353.662 352.882ZM332.998 324.153C334.995 323.171 339.295 321.655 341.11 320.259C344.485 317.663 346.369 319.504 344.615 323.829C342.798 328.307 340.267 332.265 336.373 334.414C334.119 335.658 333.431 337.598 330.727 338.171C327.586 338.838 324.278 336.174 321.901 334.472C317.182 331.093 315.101 329.064 311.647 323.764C309.76 320.869 310.892 319.072 313.585 319.437C315.346 319.675 318.21 320.923 320.025 322.206C325.344 325.97 328.579 326.325 332.998 324.153ZM258.86 265.351C264.366 256.165 274.211 250.271 282.687 249.429C294.903 248.218 307.067 255.56 311.936 259.971C313.591 261.47 314.965 263.804 311.512 266.463C309.423 268.07 304.164 266.843 301.081 264.594C294.433 259.741 287.033 255.192 277.802 255.921C273.051 256.295 268.361 258.162 260.249 265.463C258.934 266.647 258.531 265.898 258.86 265.351Z" fill="#FFB197"/>
<path d="M475.094 556.51C473.911 566.515 472.825 575.748 471.798 584.286C472.964 584.31 474.127 584.358 475.291 584.369C475.205 567.787 475.094 556.51 475.094 556.51Z" fill="#EB9077"/>
<path d="M289.177 176.199C287.838 173.806 284.554 164.357 284.686 158.884C284.433 158.146 284.178 157.37 283.92 156.571C283.566 155.468 283.209 154.313 282.845 153.082C274.343 156.087 266.398 160.781 259.291 167.803C241.641 185.248 233.901 210.286 233.901 241.275C233.901 248.249 234.669 255.163 235.311 262.421C235.404 263.483 235.504 264.532 235.59 265.612C236.445 267.641 237.483 270.007 238.6 272.556C240.999 278.029 243.802 284.424 246.208 290.704C246.725 292.056 247.997 291.883 247.938 290.682C247.798 287.738 247.724 284.794 247.672 281.847C247.476 270.918 247.867 259.989 248.959 249.099C250.448 234.246 252.594 218.255 258.735 204.469C266.409 187.245 280.667 180.406 288.236 178.165C288.697 178.031 289.917 177.518 289.177 176.199Z" fill="#FF7281"/>
<path d="M475.256 656.829H475.251C475.24 658.216 475.232 659.626 475.219 660.994H522.246C522.246 660.994 522.768 658.456 523.586 651.763C523.702 650.807 523.826 649.766 523.953 648.635C523.984 648.358 524.018 648.057 524.048 647.77C523.951 648.65 523.856 649.489 523.763 650.268C510.457 653.615 493.248 655.839 475.256 656.829Z" fill="#6FACFF"/>
<path d="M528.743 582.605C528.578 582.609 528.455 582.585 528.278 582.6C514.171 583.712 501.671 583.944 488.705 584.285C484.233 584.404 479.762 584.417 475.29 584.37C474.124 584.357 472.96 584.311 471.797 584.288C412.942 583.087 354.499 567.661 302.457 540.193C273.936 525.141 247.313 506.503 223.601 484.634C212.996 474.856 207.783 468.714 199.865 455.864C196.207 449.928 190.555 456.308 179.911 459.036C168.448 461.971 159.922 464.357 150.577 469.809C144.855 473.147 137.816 479.684 134.482 487.461C133.742 489.185 133.52 490.594 134.115 492.385C134.112 492.391 134.11 492.4 134.106 492.407C133.928 492.876 133.758 493.354 133.589 493.836C133.373 494.455 133.163 495.087 132.957 495.727C132.806 496.203 132.652 496.677 132.505 497.166C132.276 497.934 132.057 498.73 131.841 499.532C131.737 499.924 131.625 500.3 131.523 500.698C131.22 501.893 130.93 503.126 130.655 504.395C130.569 504.8 130.489 505.226 130.404 505.637C130.214 506.567 130.026 507.508 129.849 508.48C129.753 509.001 129.662 509.538 129.572 510.07C129.414 510.989 129.26 511.924 129.113 512.88C129.029 513.431 128.944 513.983 128.862 514.548C128.711 515.59 128.568 516.659 128.429 517.745C128.367 518.24 128.3 518.727 128.239 519.231C128.044 520.836 127.858 522.476 127.685 524.177C127.506 525.944 127.363 528.006 127.257 530.318C127.151 532.633 127.077 535.198 127.038 537.976C127.019 539.365 127.006 540.806 127.002 542.296C126.989 546.763 127.043 551.661 127.153 556.849C127.452 570.681 128.159 586.576 129.076 601.89C130.621 627.683 132.159 643.161 133.21 651.767C134.028 658.46 134.549 660.998 134.549 660.998H181.577C181.326 634.712 181.4 604.724 181.51 583.639C181.596 567.453 184.335 578.845 185.516 588.547C189.676 622.71 192.995 645.236 198.347 661H328.399H458.451C458.724 660.195 458.992 659.367 459.254 658.525C459.312 658.339 459.368 658.151 459.427 657.965C459.485 657.772 459.542 657.573 459.6 657.379C444.148 657.599 428.767 656.9 415.363 655.163C352.758 647.047 294.399 631.274 239.758 599.154C215.184 584.707 192.551 567.362 172.333 547.265C160.232 535.237 148.011 517.581 140.899 503.026C217.985 610.732 360.054 645.039 461.88 648.877C466.442 649.048 470.92 649.158 475.312 649.212C491.074 649.405 505.684 648.866 518.681 647.761C521.15 647.551 523.032 646.785 524.338 645.132C524.256 645.922 524.172 646.698 524.094 647.421C524.113 647.237 524.133 647.066 524.154 646.878C524.215 646.315 524.278 645.729 524.341 645.13C525.403 643.782 526.091 641.855 526.339 639.064C526.897 632.808 527.393 628.397 528.28 621.152C529.669 609.804 529.801 602.332 531.533 591.299C532.466 585.322 532.808 582.492 528.743 582.605Z" fill="#6FACFF"/>
<path d="M518.679 647.758C505.682 648.863 491.071 649.402 475.31 649.209C470.918 649.155 466.44 649.045 461.878 648.874C360.052 645.036 217.985 610.729 140.896 503.023C148.007 517.578 160.228 535.232 172.331 547.262C192.549 567.357 215.181 584.705 239.756 599.151C294.399 631.269 352.755 647.044 415.361 655.161C428.765 656.898 444.146 657.596 459.598 657.376C459.539 657.568 459.483 657.769 459.425 657.962C459.368 658.15 459.31 658.338 459.252 658.522C458.988 659.364 458.722 660.192 458.449 660.997H475.221C475.234 659.63 475.243 658.219 475.254 656.833H475.258C493.248 655.842 510.459 653.618 523.767 650.274C523.858 649.495 523.955 648.653 524.053 647.775C524.066 647.656 524.079 647.539 524.092 647.418C524.172 646.696 524.254 645.919 524.336 645.129C523.03 646.784 521.148 647.548 518.679 647.758Z" fill="#5997E5"/>
<path d="M181.508 583.64C181.398 604.728 181.322 634.715 181.575 660.999H198.347C192.995 645.238 189.675 622.709 185.517 588.547C184.333 578.846 181.593 567.455 181.508 583.64Z" fill="#5997E5"/>
<path d="M311.647 323.762C315.102 329.062 317.183 331.092 321.901 334.471C324.278 336.173 327.586 338.836 330.727 338.17C333.431 337.597 334.119 335.656 336.373 334.412C340.267 332.264 342.798 328.305 344.615 323.827C346.37 319.503 344.486 317.662 341.111 320.258C339.296 321.653 334.995 323.17 332.999 324.152C328.579 326.326 325.347 325.969 320.025 322.205C318.21 320.92 315.346 319.674 313.585 319.436C310.892 319.068 309.761 320.868 311.647 323.762Z" fill="#EB9077"/>
<path d="M356.408 354.753C355.965 354.807 355.919 354.67 355.973 354.525C349.174 357.158 337.598 358.514 328.184 358.218C318.769 358.512 307.193 357.158 300.394 354.525C300.448 354.67 300.403 354.807 299.959 354.753C299.708 354.722 299.466 354.772 299.23 354.856C303.501 358.538 307.899 364.788 313.655 368.1C318.001 370.599 323.481 370.395 328.182 370.395C332.882 370.395 338.362 370.601 342.708 368.1C348.465 364.79 352.862 358.538 357.133 354.856C356.901 354.772 356.661 354.722 356.408 354.753Z" fill="#A2006B"/>
<path d="M353.662 352.878C345.47 350.474 340.514 346.537 336.427 345.733C332.682 344.995 331.257 348.584 328.217 348.811C328.211 348.809 328.191 348.809 328.185 348.807C328.176 348.809 328.159 348.809 328.153 348.811C325.111 348.584 323.688 344.995 319.943 345.733C315.856 346.537 310.9 350.474 302.708 352.878C301.722 353.168 300.668 353.417 299.584 353.652C299.716 353.789 299.842 353.914 299.958 354.027C300.049 354.113 300.138 354.202 300.218 354.265C300.257 354.297 300.357 354.414 300.398 354.524C307.197 357.157 318.773 358.513 328.187 358.217C337.602 358.511 349.177 357.157 355.977 354.524C356.018 354.412 356.117 354.295 356.156 354.265C356.234 354.202 356.325 354.115 356.416 354.027C356.533 353.912 356.658 353.789 356.79 353.652C355.702 353.417 354.648 353.166 353.662 352.878Z" fill="#7F005C"/>
<path d="M300.214 354.267C300.136 354.204 300.045 354.118 299.954 354.029C299.837 353.915 299.712 353.791 299.58 353.655C299.316 353.382 299.028 353.106 298.734 352.881C298.2 352.474 297.653 352.301 297.198 352.881C297.084 353.028 296.971 353.205 296.872 353.458C296.599 354.15 296.569 354.998 297.317 355.327C297.947 355.604 298.561 355.094 299.23 354.858C299.465 354.776 299.706 354.726 299.959 354.754C300.402 354.808 300.447 354.672 300.393 354.527C300.352 354.416 300.255 354.3 300.214 354.267Z" fill="#630040"/>
<path d="M359.496 353.458C359.394 353.203 359.284 353.028 359.167 352.881C358.713 352.301 358.165 352.474 357.631 352.881C357.335 353.106 357.049 353.385 356.785 353.655C356.653 353.791 356.528 353.917 356.411 354.029C356.32 354.116 356.231 354.204 356.151 354.267C356.11 354.3 356.013 354.416 355.972 354.527C355.918 354.672 355.963 354.808 356.407 354.754C356.658 354.724 356.9 354.773 357.136 354.858C357.806 355.094 358.421 355.602 359.05 355.327C359.799 354.998 359.768 354.15 359.496 353.458Z" fill="#630040"/>
<path d="M292.586 278.179C292.586 281.326 290.035 283.879 286.888 283.879C284.912 283.879 283.175 282.873 282.152 281.35C281.239 281.097 280.556 280.296 280.556 279.304C280.556 278.687 280.82 278.14 281.233 277.746C281.384 275.764 282.537 274.079 284.201 273.184C282.691 273.367 281.116 273.711 279.465 274.272C279.437 274.28 279.413 274.291 279.385 274.302C278.78 275.47 278.405 276.775 278.405 278.181C278.405 282.866 282.204 286.665 286.89 286.665C291.575 286.665 295.374 282.866 295.374 278.181C295.374 276.987 295.121 275.853 294.677 274.821C293.17 274.107 291.523 273.564 289.739 273.27C291.43 274.257 292.586 276.074 292.586 278.179Z" fill="#548B63"/>
<path d="M282.687 249.422C274.209 250.264 264.366 256.159 258.861 265.344C258.532 265.891 258.934 266.64 260.252 265.454C268.364 258.153 273.054 256.286 277.805 255.912C287.035 255.183 294.436 259.732 301.084 264.585C304.166 266.834 309.425 268.061 311.515 266.454C314.968 263.795 313.594 261.461 311.939 259.962C307.067 255.555 294.905 248.211 282.687 249.422Z" fill="#D14C60"/>
<path d="M361.461 251.137C353.955 253.748 347.672 258.431 344.598 261.596C343.043 263.197 341.819 265.616 345.433 268.047C347.62 269.518 352.791 267.958 355.724 265.518C358.225 263.437 360.855 261.41 363.683 259.71C362.98 256.863 362.242 254.001 361.461 251.137Z" fill="#D14C60"/>
<path d="M364.723 281.308C363.91 280.999 363.325 280.224 363.325 279.303C363.325 278.81 363.518 278.379 363.797 278.016C363.855 275.98 364.98 274.23 366.633 273.27C364.846 273.564 363.2 274.107 361.694 274.821C361.249 275.852 360.996 276.986 360.996 278.18C360.996 282.812 364.712 286.563 369.322 286.647C369.201 285.706 369.084 284.765 368.961 283.826C367.191 283.664 365.651 282.717 364.723 281.308Z" fill="#548B63"/>
<path d="M372.076 283.223C371.972 283.277 371.877 283.342 371.771 283.389C371.879 284.328 371.994 285.267 372.093 286.208C372.314 286.137 372.545 286.091 372.757 286.002C372.532 285.072 372.305 284.146 372.076 283.223Z" fill="#548B63"/>
<path d="M297.134 272.54C292.022 268.724 285.584 267.535 279.462 269.358C273.377 271.173 270.281 273.836 268.336 273.694C265.881 273.512 260.202 270.598 260.202 270.598C260.202 270.598 261.427 274.639 269.273 280.121C273.065 277.311 274.882 275.837 279.382 274.299C279.41 274.291 279.434 274.28 279.462 274.269C281.113 273.709 282.687 273.365 284.197 273.181C282.536 274.076 281.383 275.762 281.229 277.743C281.617 277.373 282.136 277.14 282.713 277.14C283.908 277.14 284.875 278.107 284.875 279.301C284.875 280.495 283.908 281.462 282.713 281.462C282.514 281.462 282.333 281.399 282.151 281.347C283.174 282.872 284.911 283.876 286.886 283.876C290.034 283.876 292.584 281.323 292.584 278.176C292.584 276.071 291.429 274.252 289.731 273.265C291.518 273.559 293.164 274.102 294.67 274.816C294.746 274.851 294.826 274.879 294.899 274.916C299.369 277.105 301.882 279.74 305.642 285.211C304.262 279.935 300.671 275.18 297.134 272.54Z" fill="black"/>
<path d="M371.568 281.191C371.553 281.202 371.54 281.213 371.525 281.222C371.613 281.944 371.689 282.667 371.771 283.389C371.877 283.342 371.972 283.277 372.076 283.223C371.908 282.543 371.741 281.866 371.568 281.191Z" fill="black"/>
<path d="M366.812 273.246C366.808 273.225 366.802 273.201 366.797 273.179C366.756 272.993 366.715 272.807 366.674 272.621C366.51 271.87 366.347 271.118 366.179 270.363C366.096 269.997 366.016 269.631 365.934 269.264C363.559 269.923 361.285 271.012 359.232 272.545C355.695 275.185 352.104 279.939 350.72 285.216C354.48 279.745 356.993 277.11 361.463 274.921C361.536 274.884 361.618 274.856 361.692 274.821C363.2 274.107 364.846 273.564 366.631 273.27C364.978 274.231 363.853 275.981 363.795 278.016C364.188 277.499 364.783 277.142 365.484 277.142C366.676 277.142 367.645 278.109 367.645 279.304C367.645 280.498 366.678 281.465 365.484 281.465C365.214 281.465 364.958 281.402 364.72 281.311C365.649 282.719 367.189 283.667 368.958 283.829C368.924 283.559 368.887 283.288 368.85 283.018C368.214 279.833 367.533 276.565 366.812 273.246Z" fill="black"/>
<path d="M294.903 274.918C294.83 274.881 294.748 274.853 294.674 274.818C295.12 275.85 295.371 276.983 295.371 278.178C295.371 282.863 291.572 286.662 286.886 286.662C282.201 286.662 278.402 282.863 278.402 278.178C278.402 276.771 278.776 275.467 279.382 274.299C274.882 275.837 273.065 277.31 269.273 280.12C271.432 282.115 275.44 285.771 282.177 287.354C284.933 288.001 287.79 288.375 290.585 287.915C295.189 287.155 301.685 283.843 305.644 285.21C301.886 279.742 299.373 277.107 294.903 274.918Z" fill="white"/>
<path d="M282.151 281.346C282.335 281.396 282.514 281.461 282.713 281.461C283.907 281.461 284.874 280.494 284.874 279.3C284.874 278.106 283.907 277.139 282.713 277.139C282.136 277.139 281.616 277.372 281.229 277.742C280.816 278.136 280.552 278.683 280.552 279.3C280.554 280.295 281.24 281.095 282.151 281.346Z" fill="white"/>
<path d="M360.996 278.178C360.996 276.984 361.249 275.85 361.695 274.818C361.619 274.853 361.539 274.881 361.465 274.918C356.996 277.107 354.482 279.742 350.722 285.213C354.681 283.846 361.178 287.156 365.781 287.917C367.014 288.12 368.262 288.142 369.506 288.066C369.446 287.593 369.385 287.119 369.324 286.647C364.712 286.561 360.996 282.809 360.996 278.178Z" fill="white"/>
<path d="M372.755 286.004C372.543 286.093 372.312 286.138 372.091 286.209C372.145 286.722 372.217 287.235 372.267 287.748C372.556 287.698 372.844 287.631 373.132 287.57C373.009 287.047 372.883 286.525 372.755 286.004Z" fill="white"/>
<path d="M364.724 281.307C364.962 281.398 365.217 281.461 365.487 281.461C366.679 281.461 367.648 280.494 367.648 279.3C367.648 278.106 366.681 277.139 365.487 277.139C364.786 277.139 364.191 277.493 363.798 278.013C363.521 278.376 363.326 278.809 363.326 279.3C363.328 280.223 363.91 280.996 364.724 281.307Z" fill="white"/>
<path d="M439.259 336.975C432.259 330.903 429.025 322.652 427.439 313.819C426.026 305.956 425.918 297.64 425.633 289.976C425.89 282.488 426.351 275.008 426.682 267.525C426.84 263.971 426.844 260.451 426.781 256.944C426.476 239.744 423.647 223.037 418.94 206.068C407.866 166.149 376.942 140.51 343.502 132.091C331.344 129.032 316.45 127.115 303.396 131.887C293.902 135.357 288.632 140.398 282.845 153.077V153.079C283.209 154.31 283.566 155.465 283.92 156.568C284.176 157.366 284.431 158.143 284.686 158.881C287.321 166.532 289.876 171.047 293.396 175.233C294.261 176.462 295.061 176.713 295.604 176.375C306.263 169.753 319.29 174.019 327.818 182.123C335.956 189.857 341.459 200.295 346.461 210.222C352.75 222.706 357.595 236.938 361.463 251.136C362.244 254 362.982 256.862 363.685 259.709C364.479 262.919 365.23 266.11 365.937 269.258C366.019 269.626 366.099 269.991 366.181 270.357C366.35 271.114 366.515 271.865 366.677 272.615C366.718 272.801 366.759 272.99 366.8 273.173C366.804 273.195 366.811 273.219 366.815 273.24C367.536 276.561 368.215 279.828 368.855 283.008C368.892 283.278 368.929 283.548 368.963 283.819C369.087 284.758 369.206 285.699 369.325 286.64C369.385 287.114 369.448 287.585 369.506 288.059C370.064 292.481 370.597 296.909 371.137 301.346C373.526 320.982 379.101 343.841 396.08 355.108C399.027 357.061 402.274 358.71 405.951 359.886C406.133 359.945 406.196 359.677 406.029 359.607C402.538 358.158 399.431 356.358 396.662 354.273C377.463 339.813 374.521 311.492 372.397 288.862C372.362 288.487 372.306 288.115 372.269 287.741C372.219 287.228 372.148 286.716 372.094 286.203C371.996 285.262 371.882 284.323 371.771 283.384C371.687 282.662 371.613 281.939 371.525 281.216C371.54 281.206 371.553 281.195 371.568 281.186C371.741 281.861 371.908 282.54 372.076 283.218C372.306 284.141 372.533 285.067 372.756 285.997C372.881 286.521 373.009 287.042 373.132 287.566C378.417 309.761 382.837 332.986 400.794 347.82C405.711 351.882 411.645 355.315 418.89 357.927C419.026 357.976 419.173 357.795 419.046 357.725C412.848 354.333 407.476 349.676 402.769 344.123C390.925 330.15 383.304 310.514 377.372 291.146C378.328 293.686 379.31 296.217 380.362 298.722C385.85 313.194 393.582 328.677 404.757 339.926C412.662 347.882 422.288 353.725 434.078 355.581C434.303 355.616 434.385 355.324 434.171 355.242C425.884 351.975 419.236 345.263 413.739 336.685C419.591 343.171 426.838 348.203 435.833 350.755C436.352 350.902 436.704 350.247 436.347 349.87C431.69 344.955 428.376 339.24 425.992 332.999C427.742 335.164 429.708 337.075 431.941 338.641C433.336 339.621 433.146 338.721 432.849 338.258C429.178 332.48 427.346 325.356 426.409 317.858C428.612 325.265 432.363 331.987 439.112 337.165C439.22 337.248 439.363 337.064 439.259 336.975ZM323.53 173.998C317.174 170.026 308.978 166.463 298.235 170.826C306.088 165.401 316.205 167.465 324.447 172.533V172.535C331.32 177.502 336.668 185.268 341.014 193.335C342.866 196.771 344.611 200.262 346.292 203.784C341.366 193.976 332.744 179.756 323.53 173.998Z" fill="#FF4562"/>
</g>
</svg>
