<svg width="660" height="660" viewBox="0 0 660 660" fill="none" xmlns="http://www.w3.org/2000/svg">
<path d="M534.348 360.652C562.875 251.107 497.197 139.179 387.652 110.652C278.107 82.1253 166.179 147.803 137.652 257.348C109.125 366.892 174.803 478.821 284.348 507.347C393.892 535.874 505.821 470.196 534.348 360.652Z" fill="#89DDFF"/>
<mask id="mask0_42_673" style="mask-type:alpha" maskUnits="userSpaceOnUse" x="0" y="0" width="660" height="660">
<circle cx="330" cy="330" r="330" fill="#D9D9D9"/>
</mask>
<g mask="url(#mask0_42_673)">
<path d="M259.529 232.987C259.529 232.987 209.957 275.934 207.911 346.727C205.864 417.52 244.357 447.941 208.632 478.362C172.908 508.783 93.4755 541.739 141.641 623.71H337.912V247.668L259.529 232.987Z" fill="#3F2037"/>
<path d="M414.386 232.987C414.386 232.987 463.958 275.934 466.005 346.727C468.052 417.52 429.559 447.941 465.283 478.362C501.008 508.783 580.443 541.739 532.275 623.71H336V247.668L414.386 232.987Z" fill="#3F2037"/>
<path d="M561 659.041H111C111 659.041 115.52 602.896 142.69 592.04C148.309 589.793 157.656 585.408 168.946 579.871C170.51 579.104 172.114 578.317 173.744 577.507C173.754 577.497 173.77 577.497 173.777 577.49C197.287 565.853 227.521 550.169 250.372 538.204C269.835 528.003 283.938 520.509 283.938 520.509L287.379 521.276C319.371 528.443 352.573 528.18 384.441 520.509C384.441 520.509 396.051 526.491 412.825 535.035C422.746 540.096 434.482 546.056 446.693 552.199C479.515 568.73 515.731 586.608 529.313 592.043C556.48 602.896 561 659.041 561 659.041Z" fill="#FF4F4E"/>
<path d="M213.142 659.041H201.134C191.829 638.558 176.283 603.191 168.946 579.868C170.51 579.1 172.114 578.313 173.744 577.503C179.146 591.305 196.831 635.026 213.142 659.041Z" fill="#C42C31"/>
<path d="M450.694 659.042H462.701C472.006 638.559 489.095 600.188 496.428 576.864C494.864 576.097 493.696 575.556 492.066 574.742C486.668 588.544 467.005 635.026 450.694 659.042Z" fill="#C42C31"/>
<path d="M312.397 659.04H214.109C197.562 634.415 182.219 598.703 173.776 577.486C169.499 566.738 166.99 559.705 166.99 559.705C192.34 539.646 250.371 538.199 250.371 538.199C271.025 565.885 297.671 624.732 312.397 659.04Z" fill="#FF4F4E"/>
<path d="M352.363 659.04H450.651C467.198 634.415 482.545 598.704 490.984 577.486C495.261 566.738 497.77 559.706 497.77 559.706C472.42 539.646 412.824 535.031 412.824 535.031C392.171 562.713 367.09 624.733 352.363 659.04Z" fill="#FF4F4E"/>
<path d="M412.825 535.032C411.625 545.636 409.083 564.017 404.324 583.604C396.914 614.084 384.11 647.496 362.577 659.042H327.086C297.442 646.739 277.169 611.398 264.748 581.298C257.073 562.698 252.409 546.112 250.373 538.201C269.835 528 283.939 520.506 283.939 520.506L287.379 521.273C319.371 528.44 352.574 528.178 384.441 520.506C384.441 520.506 396.052 526.488 412.825 535.032Z" fill="#FFB8A1"/>
<path d="M404.323 583.605C396.914 614.085 384.109 647.497 362.577 659.042H327.085C297.442 646.739 277.169 611.398 264.748 581.299C280.304 587.721 303.483 593.569 336.279 593.569C365.086 593.569 387.615 589.056 404.323 583.605Z" fill="#FFF7F1"/>
<path d="M386.73 531.966C386.73 531.966 377.904 559.707 337.352 559.707C290.052 559.707 278.92 534.488 278.92 534.488C283.03 523.592 285.854 513.507 287.76 504.49H287.773C291.279 487.973 291.771 474.998 291.555 467.041L374.65 463.751C375.421 470.786 376.667 479.071 378.081 487.405C381.837 509.535 386.73 531.966 386.73 531.966Z" fill="#FFB8A1"/>
<path d="M337.915 572.538C313.106 572.538 296.877 559.822 287.634 549.156C277.66 537.644 273.58 526.289 273.409 525.813C273.107 524.96 273.554 524.022 274.41 523.721C275.262 523.416 276.2 523.865 276.502 524.718C276.542 524.829 280.586 536.05 290.189 547.096C302.971 561.803 319.029 569.262 337.915 569.262C356.748 569.262 371.868 561.839 382.852 547.198C391.111 536.191 393.814 525.003 393.84 524.892C394.047 524.009 394.932 523.465 395.811 523.671C396.693 523.878 397.241 524.76 397.035 525.643C396.923 526.121 394.184 537.516 385.552 549.068C377.546 559.77 362.786 572.538 337.915 572.538Z" fill="#FFF7F1"/>
<path d="M378.081 487.403C365.207 496.357 337.062 509.683 287.772 504.487C291.278 487.97 291.77 474.995 291.554 467.038L374.65 463.748C375.421 470.787 376.667 479.068 378.081 487.403Z" fill="#3F2037"/>
<path d="M259.832 358.674C259.832 358.674 234.115 323.671 214.114 344.386C194.113 365.102 232.688 437.253 267.691 421.536L259.832 358.674Z" fill="#FFB8A1"/>
<path d="M249.154 400.037C248.282 400.037 247.521 399.394 247.396 398.506C244.015 374.185 224.683 359.259 224.489 359.111C223.709 358.517 223.555 357.402 224.148 356.621C224.742 355.841 225.854 355.687 226.638 356.28C227.481 356.92 247.334 372.257 250.915 398.014C251.05 398.988 250.374 399.883 249.4 400.018C249.318 400.034 249.236 400.037 249.154 400.037Z" fill="#FF8A8A"/>
<path d="M243.765 382.571C243.197 382.571 242.636 382.296 242.292 381.791C239.711 377.973 231.99 377.586 229.245 377.756C228.257 377.825 227.421 377.074 227.362 376.093C227.3 375.113 228.044 374.27 229.025 374.208C229.513 374.178 241 373.535 245.237 379.8C245.788 380.613 245.575 381.715 244.762 382.266C244.453 382.473 244.109 382.571 243.765 382.571Z" fill="#FF8A8A"/>
<path d="M251.798 423.123C251.299 423.047 250.81 422.887 250.286 422.746C247.937 423.713 245.189 423.559 243.27 422.208C237.34 418.039 242.502 407.989 242.571 407.858C243.057 406.933 242.706 405.792 241.781 405.303C240.859 404.818 239.714 405.169 239.226 406.094C238.944 406.625 232.433 419.213 241.095 425.304C242.847 426.534 245.012 427.15 247.216 427.15C249.377 427.15 251.578 426.557 253.467 425.373C254.225 424.897 254.881 424.33 255.471 423.716C254.221 423.533 253.044 423.306 251.798 423.123Z" fill="#FFF7F1"/>
<path d="M416.497 358.674C416.497 358.674 442.214 323.671 462.215 344.386C482.219 365.102 443.641 437.253 408.638 421.536L416.497 358.674Z" fill="#FFB8A1"/>
<path d="M426.841 400.038C426.759 400.038 426.677 400.032 426.595 400.022C425.624 399.887 424.945 398.989 425.08 398.018C428.658 372.258 448.511 356.921 449.354 356.281C450.138 355.688 451.25 355.839 451.844 356.622C452.437 357.403 452.287 358.518 451.506 359.112C451.309 359.259 431.971 374.239 428.599 398.507C428.478 399.395 427.714 400.038 426.841 400.038Z" fill="#FF8A8A"/>
<path d="M432.228 382.571C431.883 382.571 431.539 382.473 431.234 382.266C430.42 381.715 430.207 380.613 430.758 379.8C434.996 373.535 446.482 374.178 446.971 374.208C447.948 374.27 448.693 375.11 448.63 376.09C448.571 377.071 447.718 377.822 446.751 377.756C443.989 377.592 436.272 377.989 433.7 381.794C433.359 382.296 432.798 382.571 432.228 382.571Z" fill="#FF8A8A"/>
<path d="M424.532 423.123C425.031 423.047 425.523 422.887 426.044 422.746C428.393 423.713 431.141 423.559 433.06 422.208C438.99 418.039 433.828 407.989 433.759 407.858C433.273 406.933 433.628 405.792 434.549 405.303C435.474 404.818 436.619 405.169 437.104 406.094C437.386 406.625 443.897 419.213 435.235 425.304C433.483 426.534 431.319 427.15 429.114 427.15C426.953 427.15 424.752 426.557 422.863 425.373C422.105 424.897 421.449 424.33 420.859 423.716C422.109 423.533 423.286 423.306 424.532 423.123Z" fill="#FFF7F1"/>
<path d="M349.731 253.739C273.749 251.522 238.163 292.173 243.958 376.115C247.56 428.255 275.606 491.665 337.346 493.118C401.691 494.634 430.974 421.633 432.374 367.709C433.847 311.003 420.383 273.071 373.465 257.692C370.214 256.626 353.228 253.841 349.731 253.739Z" fill="#FFB8A1"/>
<path d="M282.777 392.411C282.777 393.635 281.786 394.625 280.563 394.625C279.34 394.625 278.349 393.635 278.349 392.411C278.349 391.188 279.34 390.197 280.563 390.197C281.786 390.197 282.777 391.191 282.777 392.411Z" fill="#FF8A8A"/>
<path d="M293.584 397.754C293.584 398.977 292.594 399.968 291.37 399.968C290.147 399.968 289.156 398.977 289.156 397.754C289.156 396.531 290.147 395.54 291.37 395.54C292.594 395.54 293.584 396.531 293.584 397.754Z" fill="#FF8A8A"/>
<path d="M282.777 405.447C282.777 406.671 281.787 407.661 280.563 407.661C279.34 407.661 278.349 406.671 278.349 405.447C278.349 404.224 279.34 403.233 280.563 403.233C281.787 403.237 282.777 404.227 282.777 405.447Z" fill="#FF8A8A"/>
<path d="M299.768 407.664C299.768 408.887 298.777 409.878 297.554 409.878C296.33 409.878 295.34 408.887 295.34 407.664C295.34 406.441 296.33 405.45 297.554 405.45C298.777 405.45 299.768 406.444 299.768 407.664Z" fill="#FF8A8A"/>
<path d="M311.089 405.447C311.089 406.671 310.098 407.661 308.875 407.661C307.651 407.661 306.661 406.671 306.661 405.447C306.661 404.224 307.651 403.233 308.875 403.233C310.098 403.233 311.089 404.227 311.089 405.447Z" fill="#FF8A8A"/>
<path d="M305.943 394.625C305.943 395.848 304.952 396.839 303.729 396.839C302.506 396.839 301.515 395.848 301.515 394.625C301.515 393.402 302.506 392.411 303.729 392.411C304.952 392.411 305.943 393.405 305.943 394.625Z" fill="#FF8A8A"/>
<path d="M395.433 392.411C395.433 393.635 396.424 394.625 397.647 394.625C398.871 394.625 399.861 393.635 399.861 392.411C399.861 391.188 398.871 390.197 397.647 390.197C396.424 390.197 395.433 391.191 395.433 392.411Z" fill="#FF8A8A"/>
<path d="M384.626 397.754C384.626 398.977 385.617 399.968 386.84 399.968C388.064 399.968 389.054 398.977 389.054 397.754C389.054 396.531 388.064 395.54 386.84 395.54C385.62 395.54 384.626 396.531 384.626 397.754Z" fill="#FF8A8A"/>
<path d="M395.433 405.447C395.433 406.671 396.424 407.661 397.647 407.661C398.871 407.661 399.861 406.671 399.861 405.447C399.861 404.224 398.871 403.233 397.647 403.233C396.424 403.237 395.433 404.227 395.433 405.447Z" fill="#FF8A8A"/>
<path d="M378.448 407.664C378.448 408.887 379.438 409.878 380.662 409.878C381.885 409.878 382.876 408.887 382.876 407.664C382.876 406.441 381.885 405.45 380.662 405.45C379.438 405.45 378.448 406.444 378.448 407.664Z" fill="#FF8A8A"/>
<path d="M367.122 405.447C367.122 406.671 368.112 407.661 369.336 407.661C370.559 407.661 371.549 406.671 371.549 405.447C371.549 404.224 370.559 403.233 369.336 403.233C368.112 403.237 367.122 404.227 367.122 405.447Z" fill="#FF8A8A"/>
<path d="M372.271 394.625C372.271 395.848 373.262 396.839 374.485 396.839C375.708 396.839 376.699 395.848 376.699 394.625C376.699 393.402 375.708 392.411 374.485 392.411C373.262 392.411 372.271 393.405 372.271 394.625Z" fill="#FF8A8A"/>
<path d="M246.99 391.042C246.99 391.042 262.203 358.932 257.132 335.271L240.513 330.43C240.513 330.43 237.977 371.045 246.99 391.042Z" fill="#3F2037"/>
<path d="M429.169 391.042C429.169 391.042 413.957 358.932 419.027 335.271L435.646 330.43C435.646 330.43 438.182 371.045 429.169 391.042Z" fill="#3F2037"/>
<path d="M259.529 232.988C241.103 251.188 226.743 281.009 225.776 299.216C224.795 317.649 229.525 335.973 243.349 343.009C286.565 364.997 375.985 282.315 375.985 282.315C375.985 282.315 407.524 346.436 432.372 343.412C457.224 340.385 467.802 268.086 408.639 227.639C349.578 187.26 287.772 205.093 259.529 232.988Z" fill="#3F2037"/>
<path d="M275.045 352.737C275.045 352.737 279.158 342.56 293.101 333.865C310.717 322.88 323.414 341.776 323.414 341.776C323.414 341.776 309.592 336.964 298.978 340.342C288.594 343.649 275.045 352.737 275.045 352.737Z" fill="#3F2037"/>
<path d="M404.86 352.737C404.86 352.737 400.747 342.56 386.804 333.865C369.188 322.88 356.491 341.776 356.491 341.776C356.491 341.776 370.313 336.964 380.926 340.342C391.311 343.649 404.86 352.737 404.86 352.737Z" fill="#3F2037"/>
<path d="M342.484 420.273C339.437 420.273 336.095 419.476 332.415 417.879C331.408 417.442 330.814 416.393 330.955 415.304L336.098 375.798C336.275 374.45 337.515 373.498 338.856 373.676C340.204 373.849 341.152 375.086 340.978 376.431L336.082 414.048C341.179 415.927 345.114 415.77 348.361 413.579C349.49 412.818 351.018 413.116 351.776 414.241C352.537 415.366 352.238 416.898 351.11 417.656C348.525 419.4 345.665 420.273 342.484 420.273Z" fill="#FF8A8A"/>
<path d="M337.603 446.391C335.438 446.391 333.401 446.257 331.522 446.04C320.279 444.745 312.417 440.412 312.089 440.229C310.902 439.566 310.478 438.067 311.141 436.883C311.803 435.699 313.299 435.273 314.486 435.932C315.67 436.591 343.809 451.787 368.165 429.254C369.162 428.329 370.72 428.391 371.642 429.389C372.563 430.386 372.504 431.944 371.507 432.865C359.919 443.581 347.469 446.391 337.603 446.391Z" fill="#FF8A8A"/>
<path d="M341.896 460.817C336.173 460.817 331.585 459.419 331.266 459.318C329.971 458.914 329.246 457.533 329.653 456.238C330.056 454.942 331.437 454.217 332.732 454.621C332.9 454.673 344.137 458.048 352.054 453.571C353.235 452.902 354.737 453.319 355.406 454.503C356.075 455.687 355.659 457.186 354.475 457.855C350.441 460.134 345.891 460.817 341.896 460.817Z" fill="#FF8A8A"/>
<path d="M308.724 367.605C308.842 374.473 306.31 380.088 303.069 380.144C299.826 380.199 297.1 374.679 296.979 367.808C296.861 360.94 299.393 355.325 302.633 355.269C305.88 355.216 308.606 360.74 308.724 367.605Z" fill="#3F2037"/>
<path d="M370.11 367.605C369.992 374.473 372.524 380.088 375.764 380.144C379.008 380.199 381.734 374.679 381.855 367.808C381.973 360.94 379.441 355.325 376.201 355.269C372.957 355.216 370.231 360.74 370.11 367.605Z" fill="#3F2037"/>
</g>
</svg>
