<svg width="660" height="660" viewBox="0 0 660 660" fill="none" xmlns="http://www.w3.org/2000/svg">
<path d="M523.348 337.652C551.875 228.107 486.197 116.179 376.652 87.6519C267.107 59.1253 155.179 124.803 126.652 234.348C98.1254 343.892 163.803 455.821 273.348 484.347C382.892 512.874 494.821 447.196 523.348 337.652Z" fill="#7A4299"/>
<mask id="mask0_42_1203" style="mask-type:alpha" maskUnits="userSpaceOnUse" x="0" y="0" width="660" height="660">
<circle cx="330" cy="330" r="330" fill="#D9D9D9"/>
</mask>
<g mask="url(#mask0_42_1203)">
<path d="M220.065 344.647C222.235 343.545 224.662 342.866 227.26 342.866C227.838 342.866 228.307 343.335 228.307 343.913C228.307 344.492 227.838 344.961 227.26 344.961C225.399 344.961 223.631 345.342 222.005 346.004C222.73 346.444 223.459 346.884 224.175 347.203C228.776 349.243 233.306 348.963 236.7 346.499C235.091 338.252 233.666 329.172 232.434 320.012C232.158 319.245 231.852 318.537 231.538 317.85C230.461 318.34 229.48 319.04 228.676 319.958C227.184 321.655 226.442 323.838 226.589 326.092C226.631 326.67 226.191 327.169 225.617 327.207C225.592 327.211 225.567 327.211 225.546 327.211C224.997 327.211 224.536 326.784 224.502 326.235C224.314 323.419 225.24 320.699 227.1 318.579C228.077 317.46 229.267 316.597 230.574 315.989C228.722 312.742 226.388 310.58 223.664 309.775C220.488 308.832 217.299 309.909 215.799 311.46C215.401 311.87 214.739 311.887 214.32 311.476C213.905 311.074 213.897 310.412 214.303 309.993C216.18 308.061 220.111 306.532 224.259 307.764C226.547 308.439 229.237 310.098 231.605 313.626C231.592 313.517 231.58 313.4 231.563 313.291C228.559 303.905 223.107 298.968 216.947 300.154C211.667 301.147 206.379 306.943 206.979 315.717C207.997 330.563 213.863 339.895 220.065 344.647Z" fill="#AA5D29" stroke="#AA5D29" stroke-width="0.5" stroke-miterlimit="10"/>
<path d="M372.15 351.509C388.911 351.509 402.551 337.869 402.551 321.104C402.551 304.339 388.911 290.699 372.15 290.699C355.385 290.699 341.745 304.339 341.745 321.104C341.745 337.869 355.385 351.509 372.15 351.509ZM362.94 305.252C368.14 305.252 372.355 309.468 372.355 314.668C372.355 319.868 368.14 324.092 362.94 324.092C357.736 324.092 353.52 319.868 353.52 314.668C353.52 309.468 357.736 305.252 362.94 305.252Z" fill="#AA5D29" stroke="#AA5D29" stroke-width="0.5" stroke-miterlimit="10"/>
<path d="M332.164 255.339C333.295 252.041 335.637 240.795 337.389 232.368C342.836 206.22 343.134 206.221 345.468 206.221C348.045 206.246 348.753 207.888 353.928 232.716C355.684 241.142 358.03 252.427 359.249 255.502C362.568 255.548 365.791 255.574 368.896 255.59C369.444 254.329 370.102 251.153 370.521 249.158C371.741 243.288 372.482 239.743 375.277 239.743C378.676 239.751 381.211 244.092 384.14 249.121C385.476 251.413 387.718 255.251 388.732 255.67C401.819 255.595 410.882 255.712 416.384 256.324C415.471 240.765 410.71 226.225 403.021 213.654C391.263 195.77 373.974 182.424 359.652 176.402C359.103 176.172 358.541 175.962 357.992 175.749C345.153 170.733 331.556 169.631 322.283 169.631C318.792 169.631 315.323 169.786 311.966 170.079C299.257 171.743 287.348 175.983 276.797 182.281C266.866 188.739 258.557 195.979 251.886 203.987C240.396 218.305 233.08 236.097 231.773 255.519C231.722 256.349 231.668 257.174 231.634 258.012C231.622 258.385 231.618 258.758 231.609 259.131C244.683 256.789 288.564 254.995 332.164 255.339Z" fill="#282833" stroke="#282833" stroke-width="0.5" stroke-miterlimit="10"/>
<path d="M311.632 165.901C315.7 165.377 319.836 165.079 324.043 165.079C332.637 165.079 340.968 166.219 348.908 168.335C353.58 161.844 356.074 154.218 356.074 146.156C356.074 125.167 339.002 108.096 318.013 108.096C297.024 108.096 279.953 125.167 279.953 146.156C279.953 155.178 283.163 163.814 288.958 170.682C294.854 168.335 302.836 166.659 311.632 165.901Z" fill="#282833" stroke="#282833" stroke-width="0.5" stroke-miterlimit="10"/>
<path d="M431.892 311.463C430.388 309.912 427.212 308.835 424.035 309.778C421.308 310.579 418.974 312.741 417.121 315.992C418.433 316.6 419.619 317.467 420.595 318.582C422.456 320.702 423.382 323.422 423.193 326.238C423.16 326.791 422.699 327.214 422.15 327.214C422.129 327.214 422.104 327.214 422.079 327.21C421.5 327.172 421.064 326.674 421.106 326.095C421.253 323.841 420.511 321.658 419.02 319.961C418.219 319.043 417.239 318.343 416.158 317.853C416.053 318.092 415.948 318.339 415.848 318.586C414.561 328.299 413.057 337.975 411.356 346.703C414.708 348.941 419.066 349.188 423.52 347.206C424.287 346.866 425.062 346.41 425.837 345.924C424.283 345.324 422.607 344.96 420.847 344.96C420.268 344.96 419.799 344.491 419.799 343.912C419.799 343.334 420.268 342.865 420.847 342.865C423.348 342.865 425.686 343.489 427.798 344.516C433.945 339.718 439.711 330.428 440.721 315.716C441.316 307.021 436.284 301.318 431.243 300.367C425.741 299.319 420.742 303.531 417.624 311.63C419.581 309.451 421.643 308.287 423.449 307.754C427.58 306.543 431.511 308.056 433.392 309.988C433.799 310.407 433.79 311.069 433.376 311.471C432.957 311.89 432.294 311.869 431.892 311.463Z" fill="#AA5D29" stroke="#AA5D29" stroke-width="0.5" stroke-miterlimit="10"/>
<path d="M305.727 321.109C305.727 304.428 292.159 290.855 275.473 290.855C258.792 290.855 245.219 304.424 245.219 321.109C245.219 337.791 258.788 351.363 275.473 351.363C292.155 351.363 305.727 337.795 305.727 321.109ZM282.831 305.258C288.032 305.258 292.247 309.473 292.247 314.673C292.247 319.873 288.032 324.097 282.831 324.097C277.627 324.097 273.412 319.873 273.412 314.673C273.412 309.473 277.627 305.258 282.831 305.258Z" fill="#AA5D29" stroke="#AA5D29" stroke-width="0.5" stroke-miterlimit="10"/>
<path d="M251.307 519.075C251.739 520.449 252.17 521.849 252.619 523.286C252.841 524.003 253.059 524.723 253.285 525.457L254.287 527.539C254.978 528.935 255.619 530.388 256.369 531.809C258.271 534.415 259.86 537.374 262.391 539.741C266.874 544.95 273.059 549.035 279.747 552.509C283.204 554.08 286.669 555.782 290.491 556.812C292.372 557.382 294.224 558.09 296.16 558.56C298.117 558.975 300.082 559.389 302.052 559.804C309.95 561.438 318.205 562.126 326.464 562.293L329.561 562.423L330.336 562.457C330.281 562.478 330.772 562.44 330.964 562.436L332.54 562.365L338.838 562.092C343.125 562.096 346.98 561.296 350.919 560.735C354.878 560.374 358.637 558.92 362.434 557.994C364.374 557.592 366.067 556.641 367.856 555.945C369.603 555.157 371.43 554.541 373.077 553.645C376.228 551.621 379.63 550.028 382.266 547.556C383.611 546.374 385.149 545.402 386.31 544.086C387.487 542.787 388.652 541.501 389.8 540.227C393.932 534.822 397.217 529.056 398.654 523.181C399.74 520.349 399.849 517.411 400.452 514.717C400.678 511.981 400.871 509.345 400.85 506.881C400.699 501.936 399.978 497.667 399.128 494.21C398.617 492.508 398.16 490.983 397.758 489.659C397.339 488.343 396.773 487.308 396.421 486.424C395.658 484.673 395.256 483.738 395.256 483.738L395.243 483.709C394.627 483.432 394.02 483.143 393.404 482.867L383.775 478.53C383.377 478.324 383.071 478.312 382.14 477.603C381.529 477.05 381.143 476.464 380.908 475.978C380.355 474.951 380.1 474.038 379.832 473.107C379.337 471.264 379.015 469.47 378.767 467.681C377.795 460.537 377.523 453.468 377.292 446.39C376.944 433.987 377.058 421.613 377.2 409.256C373.223 413.128 368.769 416.87 363.896 420.398C358.323 424.244 352.276 427.886 345.593 430.643C343.954 431.393 342.178 431.854 340.46 432.478L337.858 433.35L335.063 433.953C331.22 434.942 327.767 435.085 324.264 435.349C316.244 435.223 309.297 433.304 302.492 430.656C295.808 427.898 289.761 424.261 284.188 420.41C280.09 417.444 276.265 414.339 272.791 411.12C272.929 423.411 273.042 435.713 272.669 448.045C272.418 455.085 272.125 462.112 271.01 469.244C270.687 471.037 270.352 472.822 269.652 474.712C269.497 475.173 269.254 475.672 268.978 476.179C268.844 476.577 267.783 477.75 267.557 477.817L267.289 478.006L266.903 478.215L266.828 478.249L266.677 478.32L266.078 478.588L264.88 479.125L255.309 483.441C255.141 483.52 254.974 483.596 254.806 483.675C254.71 483.964 254.4 484.878 253.876 486.407C253.26 488.268 252.175 491.038 251.55 494.478C250.67 497.868 250.121 502.23 250.054 507.141C250.176 509.605 250.012 512.245 250.637 514.935C250.859 516.263 251.085 517.654 251.307 519.075Z" fill="#AA5D29" stroke="#AA5D29" stroke-width="0.5" stroke-miterlimit="10"/>
<path d="M247.944 493.438C248.103 492.738 248.287 492.122 248.467 491.506C247.877 492.289 247.273 493.048 246.699 493.856C244.26 497.267 242.077 500.846 240.032 504.5C235.976 511.82 232.674 519.564 230.315 527.546C227.943 535.512 226.372 543.759 226.443 551.942C226.514 560.038 228.174 568.322 232.888 574.415C235.23 577.407 238.231 579.904 241.734 581.341C243.661 582.117 245.643 583.319 247.508 583.776L253.085 585.242L259.073 585.921C261.076 586.064 263.117 585.896 265.132 585.909C267.156 585.997 269.18 585.485 271.2 585.309C273.232 585.138 275.231 584.643 277.234 584.191C279.245 583.793 281.24 583.29 283.205 582.632C285.179 582.02 287.165 581.475 289.088 580.683C292.985 579.284 296.794 577.612 300.544 575.814C304.286 573.983 307.969 572.03 311.54 569.881C312.637 569.24 313.714 568.54 314.795 567.861C310.09 567.404 305.413 566.738 300.829 565.758C298.751 565.301 296.681 564.84 294.623 564.387C292.578 563.868 290.597 563.101 288.598 562.477C284.558 561.337 280.808 559.485 277.095 557.746C275.193 556.983 273.521 555.76 271.79 554.72C270.11 553.589 268.292 552.709 266.8 551.372C263.741 548.812 260.695 546.373 258.323 543.352C255.616 540.649 253.864 537.314 251.87 534.351C251.065 532.751 250.382 531.121 249.662 529.549C249.314 528.762 248.966 527.978 248.622 527.203C248.388 526.386 248.161 525.577 247.935 524.781C247.491 523.184 247.047 521.621 246.624 520.096C246.418 518.529 246.213 516.995 246.016 515.499C245.48 512.524 245.752 509.666 245.744 507.006C246.045 501.697 246.821 497.133 247.944 493.438Z" fill="white" stroke="white" stroke-width="0.5" stroke-miterlimit="10"/>
<path d="M543.39 641.793C542.527 634.912 541.421 628.061 539.707 621.344C538.869 617.984 538.006 614.627 536.87 611.355C535.89 608.028 534.637 604.805 533.367 601.579C532.206 598.314 530.576 595.243 529.206 592.063C527.626 588.987 526.076 585.882 524.341 582.886C520.859 576.894 517.063 571.082 512.805 565.597C508.598 560.078 504.035 554.828 499.158 549.866C494.351 544.842 489.13 540.212 483.83 535.695C478.437 531.278 472.927 526.987 467.169 523.032C446.896 508.89 424.83 497.429 402.308 486.945C412.05 498.414 419.668 511.655 424.868 525.856C427.78 534.052 429.838 542.642 430.257 551.513C430.458 555.942 430.232 560.447 429.297 564.901C428.346 569.334 426.72 573.789 423.925 577.619C422.492 579.534 421.017 581.285 419.023 582.857C418.025 583.724 417.129 584.315 416.249 584.872L415.582 585.308C415.101 585.622 415.017 585.63 414.719 585.811L413.223 586.619C409.18 588.71 404.809 590.139 400.376 590.986C391.459 592.662 382.379 591.983 373.78 590.081C365.157 588.166 356.923 585.048 349.066 581.294C345.135 579.412 341.297 577.355 337.547 575.142C335.674 574.036 333.822 572.896 331.995 571.71L329.267 569.892L327.918 568.945L327.57 568.693L324.792 568.698C321.469 571.061 318.171 573.194 314.718 575.205C310.985 577.422 307.138 579.441 303.224 581.331C299.294 583.187 295.292 584.914 291.169 586.372C289.145 587.185 287.025 587.767 284.925 588.396C282.847 589.079 280.714 589.607 278.544 590.03C276.39 590.5 274.253 591.007 272.028 591.195C269.819 591.384 267.653 591.895 265.407 591.815C263.178 591.799 260.949 591.954 258.711 591.786L252.015 590.981C249.765 590.424 247.51 589.766 245.268 589.133C243.027 588.488 241.321 587.416 239.327 586.561C234.998 584.667 231.277 581.486 228.461 577.74C225.629 573.981 223.844 569.619 222.767 565.232C221.686 560.828 221.292 556.349 221.329 551.924C221.421 543.057 223.207 534.413 225.863 526.145C228.579 517.882 232.237 509.983 236.649 502.541C238.874 498.833 241.237 495.208 243.856 491.768C245.101 490.121 246.417 488.487 247.766 486.891C224.933 497.513 202.557 509.133 182.066 523.547C170.669 531.492 159.996 540.434 150.346 550.344C145.544 555.322 140.989 560.531 136.841 566.045C132.583 571.484 128.9 577.329 125.41 583.267C122.053 589.284 118.986 595.465 116.493 601.885C115.215 605.086 114.008 608.308 113.027 611.61C111.892 614.866 111.066 618.21 110.22 621.55C108.535 628.233 107.433 635.051 106.578 641.893C106.222 645.321 106.009 648.774 105.711 652.21L105.514 659.845L325.001 659.43L544.476 659.832L544.274 652.151C543.969 648.711 543.763 645.246 543.39 641.793Z" fill="#F2A61C" stroke="#F2A61C" stroke-width="0.5" stroke-miterlimit="10"/>
<path d="M273.155 403.879C277.438 407.977 282.353 411.828 287.561 415.582C292.879 419.169 298.603 422.526 304.771 425.002C310.851 427.374 317.719 428.949 323.824 429.071L329.087 428.715C330.918 428.677 332.288 428.124 333.906 427.877L336.252 427.407L338.62 426.628C340.187 426.071 341.804 425.689 343.317 425.006C349.489 422.53 355.218 419.169 360.531 415.582C365.731 411.828 370.663 407.985 374.941 403.883C377.133 401.884 379.182 399.852 381.055 397.786C383.02 395.796 384.738 393.717 386.402 391.735C389.704 387.75 392.536 383.929 394.833 380.413C396.06 378.695 397.003 376.977 397.912 375.406C398.851 373.847 399.66 372.389 400.272 371.019C400.921 369.665 401.508 368.458 402.015 367.407C402.434 366.325 402.786 365.408 403.071 364.658C403.649 363.162 403.955 362.362 403.955 362.362L403.452 362.219C411.33 334.747 416.551 277.575 416.551 261.778C416.551 261.367 416.526 260.969 416.517 260.563C411.363 259.909 401.876 259.842 388.539 259.829C385.526 259.825 383.318 256.033 380.514 251.227C379.333 249.199 377.3 245.717 375.951 244.418C375.494 245.805 374.987 248.252 374.619 250.016C373.349 256.104 372.591 259.783 369.691 259.783C365.982 259.762 362.132 259.729 358.134 259.679C355.578 259.645 354.949 258.191 349.825 233.569C348.509 227.254 346.862 219.356 345.588 214.398C344.386 219.326 342.781 227.049 341.49 233.234C336.013 259.536 335.712 259.54 333.378 259.54C329.707 259.511 326.049 259.494 322.399 259.494C278.175 259.494 240.777 261.485 231.554 263.395C231.868 281.15 237.014 335.611 244.644 362.219L244.146 362.362C244.213 362.533 244.506 363.296 245.026 364.649C245.319 365.42 245.684 366.372 246.115 367.49C246.618 368.525 247.196 369.715 247.846 371.052C248.441 372.393 249.245 373.843 250.188 375.41C251.102 376.977 252.04 378.695 253.268 380.413C255.573 383.925 258.393 387.755 261.699 391.735C263.358 393.722 265.085 395.8 267.046 397.786C268.915 399.848 270.964 401.88 273.155 403.879ZM330.6 386.43C328.676 386.669 326.699 386.787 324.721 386.787C322.127 386.787 319.521 386.581 316.99 386.179C316.416 386.091 316.03 385.55 316.118 384.981C316.21 384.411 316.763 384.025 317.317 384.109C321.591 384.796 326.095 384.872 330.344 384.352C330.897 384.289 331.438 384.687 331.509 385.266C331.58 385.835 331.178 386.359 330.6 386.43ZM347.034 372.008C343.346 376.177 336.181 378.833 327.373 379.294C326.531 379.336 325.659 379.361 324.763 379.361C316.747 379.361 307.025 377.501 301.209 372.163C300.358 371.379 300.3 370.055 301.083 369.204C301.871 368.354 303.195 368.299 304.042 369.079C308.58 373.235 317.668 375.611 327.155 375.113C334.74 374.715 341 372.519 343.904 369.238C344.671 368.362 345.995 368.287 346.858 369.058C347.721 369.816 347.805 371.14 347.034 372.008ZM350.261 276.457C350.457 275.577 351.178 274.948 352.016 274.814C352.016 274.814 354.392 274.449 357.95 274.215C361.507 273.984 366.238 273.947 370.956 274.143C375.679 274.311 380.397 274.73 383.929 275.166C387.462 275.631 389.808 276.088 389.808 276.088C390.957 276.314 391.711 277.424 391.484 278.577C391.304 279.503 390.55 280.165 389.666 280.278C389.666 280.278 387.29 280.571 383.737 280.798C380.179 280.999 375.444 281.095 370.726 280.944C365.999 280.827 361.281 280.467 357.749 279.997C354.216 279.524 351.874 279 351.874 279C350.726 278.749 350.001 277.605 350.261 276.457ZM372.151 286.509C391.225 286.509 406.741 302.026 406.741 321.104C406.741 340.182 391.225 355.699 372.151 355.699C353.072 355.699 337.556 340.182 337.556 321.104C337.556 302.03 353.076 286.509 372.151 286.509ZM312.623 290.758C312.623 289.601 313.562 288.663 314.719 288.663C315.875 288.663 316.814 289.601 316.814 290.758V347.469C316.814 349.082 317.3 352.824 321.796 352.824H336.877C338.033 352.824 338.972 353.763 338.972 354.92C338.972 356.076 338.033 357.015 336.877 357.015H321.796C316.307 357.015 312.623 353.176 312.623 347.469V290.758ZM258.091 276.092C258.091 276.092 260.442 275.639 263.97 275.17C267.502 274.734 272.221 274.315 276.943 274.148C281.67 273.947 286.401 273.988 289.954 274.219C293.512 274.454 295.887 274.818 295.887 274.818C297.048 274.998 297.848 276.088 297.668 277.253C297.534 278.141 296.86 278.82 296.026 279.008C296.026 279.008 293.679 279.532 290.151 280.006C286.614 280.471 281.9 280.831 277.169 280.953C272.447 281.104 267.712 281.007 264.159 280.806C260.605 280.58 258.229 280.286 258.229 280.286C257.069 280.14 256.243 279.08 256.39 277.919C256.511 276.98 257.219 276.264 258.091 276.092ZM241.028 321.104C241.028 302.114 256.482 286.66 275.472 286.66C294.463 286.66 309.917 302.114 309.917 321.104C309.917 340.094 294.463 355.548 275.472 355.548C256.482 355.548 241.028 340.094 241.028 321.104Z" fill="#AA5D29" stroke="#AA5D29" stroke-width="0.5" stroke-miterlimit="10"/>
<path d="M403.376 524.477C401.939 530.951 398.52 537.458 394.044 543.584C392.8 545.034 391.539 546.497 390.269 547.984C388.995 549.476 387.352 550.607 385.877 551.957C382.995 554.794 379.29 556.574 375.817 558.82C374.011 559.818 372.054 560.517 370.151 561.389C368.215 562.164 366.342 563.199 364.285 563.656C360.212 564.704 356.219 566.258 351.894 566.715C347.633 567.373 343.271 568.223 339.143 568.249L338.251 568.295C339.068 568.806 339.872 569.338 340.702 569.828C344.293 571.969 347.964 573.964 351.722 575.791C359.227 579.428 367.046 582.424 375.083 584.247C383.099 586.078 391.388 586.694 399.295 585.249C403.238 584.528 407.051 583.258 410.629 581.507L411.954 580.815C412.113 580.727 412.528 580.522 412.482 580.53L413.156 580.103C414.091 579.529 414.979 578.955 415.574 578.397C416.965 577.362 418.306 575.854 419.446 574.375C421.755 571.337 423.204 567.624 424.105 563.761C424.99 559.876 425.27 555.799 425.153 551.709C424.918 543.505 423.083 535.288 420.464 527.368C416.379 515.082 410.34 503.354 402.618 492.865C402.655 492.974 402.689 493.071 402.727 493.18C403.791 496.833 404.755 501.376 405.136 506.697C405.27 509.346 405.19 512.199 405.056 515.183C404.566 518.137 404.449 521.334 403.376 524.477Z" fill="white" stroke="white" stroke-width="0.5" stroke-miterlimit="10"/>
<path opacity="0.5" d="M271.211 433.036C271.211 433.036 295.812 471.277 322.496 471.277C349.18 471.277 377.062 429.856 377.062 429.856V407.145C377.062 407.145 356.869 433.036 324.989 433.036C293.122 433.036 271.178 407.283 271.178 407.283L271.211 433.036Z" fill="#A0A0A0"/>
<path opacity="0.3" d="M136.921 566.775C120.462 605.364 208.294 644.664 330.944 644.664C453.593 644.664 532.035 605.502 519.703 571.565C519.703 571.565 548.072 605.527 547.271 663.416H102.72C102.72 663.416 101.002 614.088 136.921 566.775Z" fill="#A0A0A0"/>
<path opacity="0.3" d="M224.767 540.914C223.166 575.702 229.451 606.081 264.809 601.103C300.167 596.125 323.812 565.578 323.812 565.578C323.812 565.578 289.41 590.628 259.299 588.926C259.299 588.926 217.53 589.819 224.767 540.914Z" fill="#A0A0A0"/>
<path opacity="0.3" d="M426.168 540.914C427.769 575.702 421.483 606.081 386.126 601.103C350.768 596.125 327.122 565.578 327.122 565.578C327.122 565.578 361.525 590.628 391.636 588.926C391.636 588.926 433.405 589.819 426.168 540.914Z" fill="#A0A0A0"/>
<path opacity="0.5" d="M245.219 259.723C239.7 262.316 245.475 327.195 252.527 358.157C259.579 389.123 273.587 408.427 292.246 422.142C292.246 422.142 248.701 391.972 242.629 362.799C236.558 333.627 229.443 261.784 229.443 261.784L245.219 259.723Z" fill="#A0A0A0"/>
<path opacity="0.5" d="M403.097 259.72C408.616 262.314 402.837 327.192 395.789 358.154C388.737 389.121 374.729 408.425 356.07 422.14C356.07 422.14 399.615 391.97 405.687 362.797C411.759 333.625 418.647 258.773 418.647 258.773L403.097 259.72Z" fill="#A0A0A0"/>
<path opacity="0.5" d="M282.832 260.039C283.657 260.018 336.878 264.988 336.878 264.988L345.468 251.658L353.522 264.988L372.152 263.534L377.067 258.325L384.585 264.988L398.203 259.725L388.54 257.739L375.274 241.841L370.84 256.335L356.07 256.896L345.468 208.318L335.349 255.153L282.832 260.039Z" fill="#A0A0A0"/>
<path d="M244.113 362.288C244.113 362.288 244.427 363.109 245.022 364.651C245.315 365.422 245.68 366.374 246.111 367.492C246.614 368.527 247.192 369.717 247.842 371.054C248.437 372.395 249.242 373.845 250.184 375.412C251.098 376.979 252.036 378.697 253.264 380.415C255.569 383.927 258.389 387.757 261.695 391.737C263.354 393.724 265.081 395.802 267.042 397.788C268.915 399.854 270.964 401.886 273.155 403.885C277.438 407.983 282.353 411.834 287.562 415.588C292.879 419.175 298.603 422.532 304.771 425.008C310.851 427.38 317.719 428.955 323.824 429.077L329.087 428.721C330.918 428.683 332.289 428.13 333.906 427.883L336.253 427.413L338.62 426.634C340.187 426.077 341.805 425.695 343.317 425.012C349.49 422.536 355.218 419.175 360.531 415.588C365.731 411.834 370.663 407.992 374.942 403.889C377.133 401.89 379.182 399.858 381.055 397.792C383.02 395.802 384.738 393.724 386.402 391.742C389.704 387.757 392.537 383.935 394.833 380.419C396.061 378.701 397.003 376.983 397.913 375.412C398.851 373.853 399.66 372.395 400.272 371.025C400.921 369.671 401.508 368.465 402.015 367.413C402.434 366.332 402.786 365.414 403.071 364.664C403.649 363.168 403.955 362.368 403.955 362.368L404.018 362.208C404.328 361.404 405.233 361.002 406.042 361.312C406.813 361.605 407.211 362.452 406.976 363.235C406.976 363.235 406.712 364.098 406.209 365.72C405.958 366.533 405.644 367.534 405.279 368.712C404.814 369.847 404.274 371.146 403.67 372.605C403.096 374.084 402.329 375.647 401.437 377.319C400.565 378.999 399.664 380.855 398.487 382.691C396.283 386.47 393.555 390.598 390.223 394.817C388.56 396.929 386.834 399.137 384.864 401.266C382.979 403.47 380.917 405.649 378.7 407.799C374.367 412.194 369.377 416.431 363.896 420.399C358.323 424.246 352.276 427.887 345.593 430.644C343.954 431.394 342.178 431.855 340.46 432.48L337.858 433.351L335.063 433.954C331.22 434.943 327.767 435.086 324.264 435.35C316.244 435.224 309.297 433.305 302.492 430.657C295.808 427.9 289.762 424.262 284.188 420.411C278.703 416.443 273.704 412.219 269.38 407.815C267.168 405.666 265.106 403.487 263.216 401.279C261.242 399.15 259.52 396.942 257.861 394.83C254.53 390.606 251.797 386.487 249.593 382.699C248.42 380.855 247.519 379.007 246.648 377.323C245.759 375.659 244.993 374.092 244.406 372.579C243.798 371.1 243.254 369.784 242.78 368.64C242.428 367.501 242.131 366.524 241.883 365.737C241.401 364.161 241.142 363.319 241.142 363.319C240.882 362.493 241.351 361.613 242.181 361.354C242.977 361.098 243.819 361.525 244.113 362.288Z" fill="#282833"/>
<path d="M405.464 362.795C413.488 334.816 418.642 277.778 418.642 261.78C418.642 209.531 376.291 167.176 324.038 167.176C271.79 167.176 229.438 209.531 229.438 261.78C229.438 277.778 234.597 334.821 242.625 362.795" stroke="#282833" stroke-miterlimit="10"/>
<path d="M414.821 313.198C422.648 288.329 444.052 297.816 442.812 315.863C440.8 345.141 420.113 356.379 409.365 347.961" stroke="#282833" stroke-miterlimit="10"/>
<path d="M432.641 310.726C428.97 306.955 416.743 305.207 412.649 325.543" stroke="#282833" stroke-width="0.5" stroke-miterlimit="10" stroke-linecap="round"/>
<path d="M413.275 316.055C418.521 316.398 422.493 320.924 422.15 326.17" stroke="#282833" stroke-width="0.5" stroke-miterlimit="10" stroke-linecap="round" stroke-linejoin="round"/>
<path d="M233.624 312.83C225.8 287.961 203.655 297.82 204.891 315.868C206.902 345.146 227.59 356.384 238.338 347.966" stroke="#282833" stroke-miterlimit="10"/>
<path d="M215.053 310.726C218.728 306.955 230.959 305.207 235.045 325.543" stroke="#282833" stroke-width="0.5" stroke-miterlimit="10" stroke-linecap="round"/>
<path d="M234.424 316.055C229.178 316.398 225.206 320.924 225.549 326.17" stroke="#282833" stroke-width="0.5" stroke-miterlimit="10" stroke-linecap="round" stroke-linejoin="round"/>
<path d="M380.389 404.05C380.376 418.146 380.351 432.225 380.9 446.254C381.201 453.252 381.562 460.292 382.568 467.105C382.819 468.802 383.15 470.479 383.582 472.033C383.799 472.796 384.059 473.584 384.361 474.095C384.491 474.409 384.671 474.539 384.684 474.581C384.432 474.451 384.956 474.744 385.371 474.895L395.063 479.131C420.862 490.516 446.557 502.802 469.922 519.082C475.797 523.087 481.433 527.441 486.956 531.933C492.399 536.53 497.754 541.248 502.72 546.385C507.74 551.456 512.458 556.84 516.816 562.518C521.224 568.154 525.171 574.142 528.792 580.323C530.602 583.415 532.215 586.616 533.862 589.801C535.299 593.082 536.992 596.258 538.207 599.631C539.536 602.963 540.839 606.302 541.874 609.738C543.055 613.124 543.965 616.589 544.849 620.063C546.642 627.002 547.816 634.08 548.733 641.174C549.131 644.731 549.358 648.301 549.68 651.863L549.999 662.582C550.045 664.044 548.892 665.268 547.43 665.31H547.367H547.271L324.993 665.716L102.719 665.297H102.636C101.173 665.293 99.9958 664.111 100 662.653V662.578L100.314 651.922C100.628 648.377 100.867 644.832 101.249 641.291C102.158 634.235 103.319 627.199 105.091 620.294C105.98 616.841 106.851 613.388 108.033 610.019C109.064 606.608 110.321 603.273 111.657 599.967C114.259 593.329 117.461 586.943 120.956 580.733C124.584 574.607 128.414 568.586 132.823 562.996C137.113 557.322 141.823 551.984 146.776 546.892C156.724 536.76 167.669 527.667 179.297 519.622C202.469 503.334 228.022 491.086 253.649 479.71L263.291 475.49L264.498 474.966L265.101 474.702L265.252 474.635L265.332 474.602C265.634 474.434 265.005 474.79 265.093 474.736L265.361 474.547C265.625 474.392 265.6 474.325 265.537 474.329C265.508 474.313 265.512 474.392 265.608 474.187C265.751 473.923 265.906 473.642 266.036 473.273C266.572 471.882 266.932 470.215 267.238 468.564C268.37 461.847 268.751 454.84 269.074 447.884C269.652 433.935 269.618 419.935 269.606 405.915C269.606 405.047 270.31 404.343 271.177 404.343C272.036 404.339 272.74 405.039 272.749 405.898C272.912 419.91 273.101 433.948 272.673 448.019C272.422 455.058 272.128 462.085 271.014 469.217C270.691 471.011 270.356 472.796 269.656 474.686C269.501 475.146 269.258 475.645 268.982 476.152C268.847 476.55 267.787 477.723 267.561 477.791L267.293 477.979L266.907 478.189L266.832 478.222L266.681 478.293L266.082 478.561L264.883 479.098L255.313 483.414C229.869 494.987 204.803 507.554 182.058 523.557C170.661 531.502 159.988 540.444 150.338 550.354C145.536 555.332 140.981 560.54 136.833 566.055C132.575 571.494 128.892 577.339 125.401 583.277C122.045 589.294 118.978 595.475 116.485 601.894C115.207 605.096 114 608.318 113.019 611.62C111.884 614.876 111.058 618.219 110.212 621.559C108.527 628.243 107.425 635.06 106.57 641.903C106.214 645.331 106 648.783 105.703 652.219L105.435 662.578L102.719 659.862L324.993 659.443L547.271 659.85L544.543 662.578L544.271 652.165C543.973 648.708 543.768 645.243 543.395 641.794C542.532 634.914 541.425 628.062 539.712 621.345C538.874 617.985 538.01 614.628 536.875 611.356C535.894 608.029 534.641 604.806 533.372 601.58C532.211 598.316 530.581 595.244 529.211 592.064C527.631 588.988 526.081 585.883 524.346 582.887C520.864 576.895 517.067 571.083 512.81 565.598C508.603 560.079 504.04 554.829 499.162 549.868C494.356 544.843 489.135 540.213 483.834 535.696C478.441 531.279 472.931 526.989 467.174 523.033C444.232 507.034 419.006 494.455 393.404 482.852L383.774 478.515C383.376 478.31 383.07 478.298 382.14 477.589C381.528 477.036 381.143 476.45 380.908 475.964C380.355 474.937 380.1 474.023 379.831 473.093C379.337 471.249 379.014 469.456 378.767 467.667C377.795 460.522 377.522 453.453 377.292 446.376C376.894 432.234 377.078 418.121 377.246 404.033C377.254 403.166 377.967 402.47 378.834 402.479C379.697 402.487 380.389 403.191 380.389 404.05Z" fill="#282833"/>
<path d="M314.719 290.766C314.719 290.766 314.719 343.391 314.719 347.477C314.719 351.567 317.066 354.927 321.797 354.927C326.532 354.927 336.877 354.927 336.877 354.927" stroke="#282833" stroke-miterlimit="10" stroke-linecap="round" stroke-linejoin="round"/>
<path d="M302.621 370.627C312.288 379.489 337.623 379.489 345.467 370.627" stroke="#282833" stroke-miterlimit="10" stroke-linecap="round" stroke-linejoin="round"/>
<path d="M317.154 385.145C321.512 385.84 326.155 385.924 330.475 385.392" stroke="#282833" stroke-width="0.5" stroke-miterlimit="10" stroke-linecap="round" stroke-linejoin="round"/>
<path d="M352.013 274.819C352.013 274.819 354.389 274.455 357.946 274.22C361.504 273.99 366.235 273.952 370.953 274.149C375.675 274.316 380.394 274.735 383.926 275.171C387.459 275.636 389.805 276.093 389.805 276.093C390.953 276.319 391.707 277.43 391.481 278.582C391.301 279.508 390.547 280.17 389.663 280.283C389.663 280.283 387.287 280.577 383.733 280.803C380.176 281.004 375.441 281.1 370.723 280.95C365.996 280.832 361.278 280.472 357.745 280.003C354.213 279.529 351.87 279.005 351.87 279.005C350.722 278.745 349.997 277.606 350.253 276.458C350.458 275.582 351.175 274.953 352.013 274.819Z" fill="#282833"/>
<path d="M296.029 279.007C296.029 279.007 293.683 279.531 290.155 280.004C286.618 280.469 281.904 280.83 277.173 280.951C272.451 281.102 267.716 281.006 264.162 280.805C260.609 280.578 258.233 280.285 258.233 280.285C257.072 280.138 256.247 279.078 256.394 277.917C256.511 276.983 257.219 276.267 258.095 276.095C258.095 276.095 260.446 275.642 263.974 275.173C267.506 274.737 272.224 274.318 276.947 274.15C281.674 273.949 286.404 273.991 289.958 274.222C293.515 274.456 295.891 274.821 295.891 274.821C297.052 275.001 297.852 276.091 297.672 277.255C297.534 278.14 296.859 278.818 296.029 279.007Z" fill="#282833"/>
<path d="M372.356 314.675C372.356 319.875 368.14 324.099 362.94 324.099C357.736 324.099 353.52 319.875 353.52 314.675C353.52 309.475 357.736 305.26 362.94 305.26C368.14 305.26 372.356 309.475 372.356 314.675Z" fill="#282833"/>
<path d="M292.245 314.675C292.245 319.875 288.03 324.099 282.829 324.099C277.625 324.099 273.41 319.875 273.41 314.675C273.41 309.475 277.625 305.26 282.829 305.26C288.03 305.26 292.245 309.475 292.245 314.675Z" fill="#282833"/>
<path d="M404.646 321.105C404.646 339.057 390.097 353.605 372.15 353.605C354.199 353.605 339.65 339.057 339.65 321.105C339.65 303.154 354.199 288.605 372.15 288.605C390.097 288.605 404.646 303.154 404.646 321.105Z" stroke="#282833" stroke-miterlimit="10"/>
<path d="M275.473 353.458C293.339 353.458 307.822 338.975 307.822 321.109C307.822 303.243 293.339 288.76 275.473 288.76C257.608 288.76 243.124 303.243 243.124 321.109C243.124 338.975 257.608 353.458 275.473 353.458Z" stroke="#282833" stroke-miterlimit="10"/>
<path d="M359.941 174.236C385.313 184.653 420.201 218.003 418.647 258.77C413.769 257.807 403.256 257.748 388.539 257.736C384.802 257.731 379.53 241.846 375.273 241.838C373.056 241.829 372.038 257.706 369.687 257.689C366 257.668 362.153 257.635 358.164 257.585C355.746 257.551 347.936 208.34 345.467 208.315C343.615 208.294 335.243 257.463 333.37 257.446C285.995 257.069 236.922 259.215 229.438 261.779C229.422 227.905 244.41 196.704 286.313 174.181C299.353 167.175 334.095 163.622 359.941 174.236Z" stroke="#282833" stroke-miterlimit="10"/>
<path d="M288.348 173.225C281.828 166.084 277.852 156.581 277.852 146.155C277.852 123.976 295.828 106 318.007 106C340.186 106 358.163 123.976 358.163 146.155C358.163 155.416 355.028 163.943 349.761 170.736" stroke="#282833" stroke-miterlimit="10"/>
<path d="M254.855 483.511C254.855 483.511 254.52 484.508 253.883 486.381C253.267 488.241 252.182 491.011 251.558 494.451C250.678 497.841 250.129 502.203 250.062 507.114C250.183 509.578 250.02 512.218 250.644 514.908C250.862 516.262 251.084 517.653 251.31 519.074C251.742 520.448 252.174 521.847 252.622 523.285C252.844 524.001 253.062 524.722 253.288 525.455L254.29 527.538C254.981 528.933 255.622 530.387 256.372 531.808C258.275 534.414 259.863 537.373 262.394 539.74C266.877 544.949 273.062 549.034 279.75 552.508C283.207 554.079 286.672 555.78 290.494 556.811C292.375 557.381 294.227 558.089 296.163 558.559C298.12 558.973 300.085 559.388 302.055 559.803C309.953 561.437 318.208 562.124 326.467 562.292L329.564 562.422L330.339 562.456C330.285 562.476 330.775 562.439 330.968 562.435L332.543 562.363L338.841 562.091C343.128 562.095 346.983 561.295 350.922 560.733C354.882 560.373 358.64 558.919 362.437 557.993C364.377 557.591 366.07 556.639 367.859 555.944C369.606 555.156 371.433 554.54 373.08 553.643C376.231 551.619 379.634 550.027 382.269 547.555C383.614 546.373 385.152 545.401 386.313 544.085C387.49 542.786 388.655 541.5 389.803 540.226C393.935 534.821 397.22 529.055 398.657 523.18C399.743 520.347 399.852 517.41 400.455 514.716C400.681 511.979 400.874 509.344 400.853 506.88C400.702 501.935 399.982 497.665 399.131 494.208C398.62 492.507 398.163 490.982 397.761 489.658C397.342 488.342 396.776 487.307 396.424 486.423C395.661 484.671 395.259 483.737 395.259 483.737L395.175 483.544C394.828 482.752 395.192 481.83 395.984 481.487C396.751 481.156 397.635 481.483 398.004 482.216C398.004 482.216 398.494 483.188 399.416 485.006C399.847 485.933 400.51 487.026 401.042 488.401C401.536 489.796 402.106 491.401 402.739 493.199C403.803 496.852 404.767 501.395 405.148 506.716C405.282 509.365 405.203 512.218 405.069 515.202C404.57 518.148 404.453 521.349 403.38 524.492C401.943 530.966 398.523 537.473 394.048 543.599C392.804 545.049 391.542 546.512 390.273 547.999C388.999 549.491 387.356 550.622 385.881 551.971C382.998 554.808 379.294 556.589 375.82 558.835C374.014 559.832 372.057 560.532 370.155 561.404C368.219 562.179 366.346 563.214 364.289 563.671C360.216 564.718 356.222 566.273 351.898 566.73C347.637 567.388 343.274 568.238 339.147 568.263L332.853 568.594L331.278 568.678C330.947 568.687 330.909 568.712 330.331 568.712L329.53 568.682L326.312 568.577C317.751 568.368 309.149 567.555 300.835 565.774C298.757 565.318 296.687 564.857 294.629 564.404C292.585 563.884 290.603 563.118 288.604 562.493C284.564 561.353 280.814 559.501 277.101 557.762C275.199 557 273.527 555.776 271.797 554.737C270.116 553.606 268.298 552.726 266.806 551.389C263.747 548.829 260.701 546.39 258.329 543.369C255.622 540.666 253.871 537.331 251.876 534.368C251.071 532.767 250.388 531.137 249.668 529.566C249.32 528.778 248.972 527.995 248.629 527.219C248.394 526.402 248.168 525.594 247.941 524.797C247.497 523.201 247.053 521.638 246.63 520.113C246.424 518.546 246.219 517.012 246.022 515.516C245.486 512.541 245.758 509.683 245.75 507.022C246.051 501.709 246.827 497.15 247.946 493.454C248.817 489.658 250.07 487.093 250.782 485.245C251.524 483.41 251.918 482.438 251.918 482.438C252.241 481.633 253.158 481.239 253.963 481.562C254.73 481.86 255.119 482.731 254.855 483.511Z" fill="#282833"/>
<path d="M254.554 484.018C251.679 487.22 249.144 490.417 246.697 493.857C244.258 497.268 242.075 500.846 240.03 504.5C235.974 511.821 232.672 519.564 230.313 527.547C227.941 535.513 226.37 543.759 226.441 551.943C226.512 560.038 228.171 568.323 232.886 574.415C235.228 577.407 238.228 579.905 241.731 581.342C243.659 582.117 245.641 583.32 247.506 583.776L253.083 585.243L259.071 585.922C261.074 586.064 263.114 585.897 265.13 585.909C267.154 585.997 269.178 585.486 271.197 585.31C273.23 585.138 275.228 584.644 277.231 584.191C279.243 583.793 281.237 583.29 283.203 582.632C285.176 582.021 287.162 581.476 289.086 580.684C292.983 579.284 296.792 577.613 300.542 575.815C304.284 573.984 307.967 572.031 311.537 569.881C315.112 567.782 318.669 565.448 321.912 563.072L321.954 563.039C322.516 562.628 323.165 562.435 323.806 562.439L328.571 562.444L326.681 568.075L326.668 568.067C328.344 565.834 322.893 573.049 330.427 563.06L330.473 563.093L330.611 563.198L330.913 563.42L331.529 563.868L332.799 564.761L335.384 566.508C337.127 567.648 338.9 568.763 340.697 569.831C344.288 571.972 347.959 573.967 351.718 575.794C359.223 579.431 367.042 582.427 375.079 584.25C383.095 586.081 391.383 586.697 399.29 585.251C403.233 584.531 407.046 583.261 410.625 581.509L411.949 580.818C412.108 580.73 412.523 580.525 412.477 580.533L413.152 580.106C414.086 579.532 414.974 578.958 415.569 578.4C416.961 577.365 418.302 575.857 419.441 574.378C421.75 571.34 423.2 567.627 424.101 563.764C424.985 559.879 425.266 555.802 425.148 551.712C424.914 543.508 423.078 535.291 420.459 527.371C415.188 511.515 406.694 496.551 395.464 484.035C394.878 483.398 394.92 482.401 395.557 481.818C396.181 481.24 397.17 481.286 397.761 481.894C409.703 494.448 418.876 509.525 424.855 525.858C427.767 534.055 429.825 542.645 430.244 551.515C430.445 555.945 430.219 560.449 429.284 564.903C428.333 569.337 426.707 573.791 423.912 577.621C422.479 579.536 421.004 581.287 419.01 582.859C418.012 583.726 417.116 584.317 416.236 584.874L415.569 585.31C415.088 585.624 415.004 585.633 414.706 585.813L413.21 586.622C409.167 588.713 404.796 590.141 400.363 590.988C391.446 592.664 382.366 591.985 373.767 590.083C365.143 588.168 356.91 585.05 349.053 581.296C345.122 579.414 341.284 577.357 337.534 575.144C335.661 574.038 333.809 572.898 331.982 571.713L329.254 569.894L327.905 568.947L327.226 568.461L326.882 568.21L326.702 568.075L326.589 567.987C334.089 557.96 328.705 565.239 330.398 563.018L330.465 563.068C331.848 564.099 332.128 566.06 331.097 567.443C330.49 568.256 329.56 568.691 328.617 568.7H328.571L323.806 568.704L325.7 568.071C322.063 570.707 318.472 573.016 314.701 575.211C310.967 577.428 307.121 579.448 303.207 581.338C299.276 583.194 295.275 584.92 291.151 586.379C289.128 587.192 287.007 587.774 284.908 588.403C282.83 589.086 280.697 589.613 278.526 590.037C276.372 590.506 274.235 591.013 272.01 591.202C269.802 591.39 267.636 591.901 265.39 591.822C263.16 591.805 260.931 591.96 258.693 591.792L251.997 590.988C249.747 590.431 247.493 589.773 245.251 589.14C243.009 588.495 241.304 587.422 239.309 586.567C234.981 584.673 231.26 581.493 228.444 577.747C225.611 573.988 223.826 569.626 222.749 565.239C221.668 560.835 221.274 556.355 221.312 551.93C221.404 543.064 223.189 534.419 225.846 526.152C228.561 517.888 232.219 509.99 236.632 502.548C238.857 498.839 241.22 495.215 243.839 491.775C246.429 488.351 249.299 484.957 252.203 481.911L252.236 481.877C252.836 481.249 253.833 481.228 254.457 481.823C255.082 482.418 255.111 483.39 254.554 484.018Z" fill="#282833"/>
<path d="M420.842 343.914C429.135 343.914 435.856 350.639 435.856 358.928C435.856 367.22 429.135 373.942 420.842 373.942C413.233 373.942 406.943 368.276 405.958 360.935" stroke="#282833" stroke-width="0.5" stroke-miterlimit="10" stroke-linecap="round"/>
<path d="M227.259 343.914C218.967 343.914 212.246 350.639 212.246 358.928C212.246 367.22 218.967 373.942 227.259 373.942C234.869 373.942 241.159 368.276 242.143 360.935" stroke="#282833" stroke-width="0.5" stroke-miterlimit="10" stroke-linecap="round"/>
</g>
</svg>
