<svg width="500" height="702" viewBox="0 0 500 702" fill="none" xmlns="http://www.w3.org/2000/svg">
<path d="M448.348 301.652C476.875 192.107 411.197 80.1785 301.652 51.6519C192.107 23.1253 80.1787 88.8032 51.6521 198.348C23.1254 307.892 88.8034 419.821 198.348 448.347C307.892 476.874 419.821 411.196 448.348 301.652Z" fill="#6263A5"/>
<path d="M244.861 260.762C299.748 260.762 344.243 216.268 344.243 161.381C344.243 106.494 299.748 62 244.861 62C189.975 62 145.48 106.494 145.48 161.381C145.48 216.268 189.975 260.762 244.861 260.762Z" fill="#2A232A"/>
<path d="M151.848 196.441C151.848 196.441 239.253 130.228 337.873 196.441C337.873 196.441 318.331 128.631 244.862 128.631C171.393 128.631 151.848 196.441 151.848 196.441Z" fill="white"/>
<path d="M344.58 402.151C399.658 347.073 399.658 257.774 344.58 202.697C289.502 147.619 200.203 147.619 145.125 202.697C90.0476 257.774 90.0476 347.073 145.125 402.151C200.203 457.229 289.502 457.229 344.58 402.151Z" fill="#2A232A"/>
<path d="M271.554 217.341C271.554 217.341 135.561 188.595 137.773 346.7C137.773 346.7 112.343 326.798 107.921 376.552C103.499 426.305 147.724 428.517 158.781 407.51C158.781 407.51 162.097 452.841 212.956 483.799C212.956 483.799 224.013 564.511 138.879 564.511C53.7457 564.511 28.316 636.517 25 662.429C25 662.429 99.0768 635.272 189.739 676.178C280.401 717.087 435.19 701.607 473.886 667.333C473.886 667.333 491.193 602.655 389.374 570.045C373.683 565.021 357.295 562.66 340.827 562.164C319.652 561.526 281.7 550.776 285.707 481.038C285.707 481.038 330.152 455.051 338.999 408.616C338.999 408.616 338.355 423.379 361.113 416.354C385.225 408.911 389.686 381.414 386.543 357.756C383.904 337.908 361.113 343.384 355.584 348.912C355.584 348.912 382.115 237.242 271.554 217.341Z" fill="#FFC2B3"/>
<path opacity="0.4" d="M230.519 487.387C230.519 487.387 264.476 492.255 285.704 481.039C285.704 481.039 283.945 503.749 289.231 521.633C289.231 521.633 245.341 522.232 230.519 487.387Z" fill="#F48073"/>
<path d="M192.782 546.729C192.782 546.729 204.246 581.111 253.665 581.111C303.084 581.111 311.931 553.909 311.931 553.909C311.931 553.909 330.531 558.58 365.66 564.448C417.453 573.1 482.825 597.421 473.883 667.332C473.883 667.332 421.104 712.298 282.238 698.63C143.369 684.962 161.595 636.315 25 662.428C25 662.428 36.5807 587.005 101.214 567.207C107.241 565.359 113.503 564.426 119.795 564.038C137.589 562.943 183.408 558.964 192.782 546.729Z" fill="#FF9292"/>
<path d="M328.792 235.829C309.432 185.842 217.552 148.382 157.889 204.946C89.054 270.206 116.133 348.404 116.133 348.404C126.229 338.992 137.771 346.705 137.771 346.705L145.372 363.181C159.676 349.773 145.372 338.15 153.417 308.187C161.462 278.223 172.19 283.618 238.345 304.18C283.288 318.148 310.471 292.515 323.294 274.637C356.186 274.927 350.686 315.883 346.417 328.69C341.566 343.244 352.076 363.181 352.076 363.181C356.12 337.033 378.342 345.314 378.342 345.314C377.598 248.892 328.792 235.829 328.792 235.829Z" fill="#2A232A"/>
<path d="M381.413 357.17C381.413 357.17 359.012 360.533 354.724 386.387" stroke="#2A232A" stroke-miterlimit="10" stroke-linejoin="round"/>
<path d="M362.721 376.229C362.721 376.229 373.422 381.704 368.071 388.67" stroke="#2A232A" stroke-miterlimit="10" stroke-linejoin="round"/>
<path d="M118.136 357.17C118.136 357.17 140.537 360.533 144.825 386.387" stroke="#2A232A" stroke-miterlimit="10" stroke-linejoin="round"/>
<path d="M136.831 376.229C136.831 376.229 126.131 381.704 131.481 388.67" stroke="#2A232A" stroke-miterlimit="10" stroke-linejoin="round"/>
<path d="M245.227 334.904L238.765 400.569L267.75 396.213L262.667 384.476" stroke="#2A232A" stroke-miterlimit="10" stroke-linejoin="round"/>
<path d="M208.083 349.417C208.083 355.622 205.277 360.649 201.813 360.649C198.35 360.649 195.544 355.62 195.544 349.417C195.544 343.214 198.35 338.182 201.813 338.182C205.274 338.184 208.083 343.214 208.083 349.417Z" fill="#2A232A"/>
<path d="M292.416 349.417C292.416 355.622 289.607 360.649 286.146 360.649C282.683 360.649 279.877 355.62 279.877 349.417C279.877 343.214 282.683 338.182 286.146 338.182C289.607 338.184 292.416 343.214 292.416 349.417Z" fill="#2A232A"/>
<path d="M314.723 182.24C314.723 182.24 385.506 316.172 244.86 314.578C104.216 312.984 181.143 456.576 181.143 456.576C181.143 456.576 156.7 428.22 146.451 369.79C145.267 363.041 142.19 356.662 137.319 351.842C131.409 345.99 122.777 342.139 113.247 353.19C113.247 353.19 91.5007 301.37 113.247 251.641C134.995 201.913 314.723 182.24 314.723 182.24Z" fill="#2A232A"/>
<path opacity="0.67" d="M279.877 165.76C279.877 165.76 355.91 187.288 328.156 275.025C328.156 275.025 342.222 274.367 348.007 293.536C353.795 312.704 345.229 334.901 345.229 334.901C345.229 334.901 341.434 350.121 352.075 363.174C352.075 363.174 355.369 338.822 378.341 345.306C378.341 345.306 393.497 319.576 382.775 272.818C372.055 226.06 333.534 178.04 279.877 165.76Z" fill="#161516"/>
<path d="M153.732 582.854C153.732 587.446 150.009 591.169 145.417 591.169C140.824 591.169 137.102 587.446 137.102 582.854C137.102 578.262 140.824 574.539 145.417 574.539C150.009 574.536 153.732 578.262 153.732 582.854Z" fill="white"/>
<path d="M202.919 657.237C202.919 661.829 199.196 665.552 194.604 665.552C190.012 665.552 186.289 661.829 186.289 657.237C186.289 652.645 190.012 648.922 194.604 648.922C199.196 648.922 202.919 652.645 202.919 657.237Z" fill="white"/>
<path d="M297.546 591.17C297.546 595.763 293.823 599.485 289.231 599.485C284.639 599.485 280.916 595.763 280.916 591.17C280.916 586.578 284.639 582.855 289.231 582.855C293.823 582.855 297.546 586.578 297.546 591.17Z" fill="white"/>
<path d="M292.795 665.547C292.795 670.14 289.072 673.862 284.48 673.862C279.888 673.862 276.165 670.14 276.165 665.547C276.165 660.955 279.888 657.232 284.48 657.232C289.072 657.232 292.795 660.955 292.795 665.547Z" fill="white"/>
<path d="M367.634 591.17C367.634 595.763 363.911 599.485 359.319 599.485C354.727 599.485 351.004 595.763 351.004 591.17C351.004 586.578 354.727 582.855 359.319 582.855C363.911 582.855 367.634 586.578 367.634 591.17Z" fill="white"/>
<path d="M450.708 621.458C450.708 626.05 446.985 629.773 442.393 629.773C437.801 629.773 434.078 626.05 434.078 621.458C434.078 616.865 437.801 613.143 442.393 613.143C446.985 613.143 450.708 616.865 450.708 621.458Z" fill="white"/>
<path d="M384.263 676.698C384.263 681.29 380.54 685.013 375.948 685.013C371.356 685.013 367.633 681.29 367.633 676.698C367.633 672.106 371.356 668.383 375.948 668.383C380.54 668.383 384.263 672.108 384.263 676.698Z" fill="white"/>
<path d="M375.948 632.288C375.948 634.584 374.087 636.446 371.791 636.446C369.494 636.446 367.633 634.584 367.633 632.288C367.633 629.992 369.494 628.131 371.791 628.131C374.087 628.131 375.948 629.992 375.948 632.288Z" fill="white"/>
<path d="M412.694 587.013C412.694 589.309 410.832 591.17 408.536 591.17C406.24 591.17 404.379 589.309 404.379 587.013C404.379 584.717 406.24 582.855 408.536 582.855C410.832 582.855 412.694 584.717 412.694 587.013Z" fill="white"/>
<path d="M249.997 657.232C249.997 659.528 248.135 661.389 245.839 661.389C243.543 661.389 241.682 659.528 241.682 657.232C241.682 654.936 243.543 653.074 245.839 653.074C248.135 653.074 249.997 654.936 249.997 657.232Z" fill="white"/>
<path d="M305.862 628.13C305.862 630.426 304 632.288 301.704 632.288C299.408 632.288 297.547 630.426 297.547 628.13C297.547 625.834 299.408 623.973 301.704 623.973C304 623.973 305.862 625.834 305.862 628.13Z" fill="white"/>
<path d="M219.068 595.329C219.068 597.625 217.206 599.487 214.91 599.487C212.614 599.487 210.753 597.625 210.753 595.329C210.753 593.033 212.614 591.172 214.91 591.172C217.206 591.172 219.068 593.033 219.068 595.329Z" fill="white"/>
<path d="M219.068 623.974C219.068 626.27 217.206 628.131 214.91 628.131C212.614 628.131 210.753 626.27 210.753 623.974C210.753 621.678 212.614 619.816 214.91 619.816C217.206 619.814 219.068 621.675 219.068 623.974Z" fill="white"/>
<path d="M149.575 632.288C149.575 634.584 147.713 636.446 145.417 636.446C143.121 636.446 141.26 634.584 141.26 632.288C141.26 629.992 143.121 628.131 145.417 628.131C147.713 628.131 149.575 629.992 149.575 632.288Z" fill="white"/>
<path d="M103.246 591.171C103.246 593.467 101.385 595.329 99.0884 595.329C96.7924 595.329 94.931 593.467 94.931 591.171C94.931 588.875 96.7924 587.014 99.0884 587.014C101.385 587.014 103.246 588.875 103.246 591.171Z" fill="white"/>
<path d="M69.3451 640.603C73.9374 640.603 77.6601 636.88 77.6601 632.288C77.6601 627.695 73.9374 623.973 69.3451 623.973C64.7529 623.973 61.0302 627.695 61.0302 632.288C61.0302 636.88 64.7529 640.603 69.3451 640.603Z" fill="white"/>
<path d="M235.31 433.73L244.862 424.471C244.862 424.471 257.371 432.802 257.371 432.34C257.371 431.877 262.924 422.93 262.924 422.93L274.291 430.749C274.291 430.749 272.178 447.303 256.443 447.303C240.708 447.301 237.623 436.049 235.31 433.73Z" fill="white"/>
<path d="M229.899 432.753C229.899 432.753 258.753 450.158 276.618 428.172" stroke="#2A232A" stroke-miterlimit="10" stroke-linejoin="round"/>
<path d="M147.08 407.175C147.08 412.561 142.714 416.928 137.328 416.928C131.941 416.928 127.575 412.561 127.575 407.175C127.575 401.788 131.941 397.422 137.328 397.422C142.714 397.422 147.08 401.788 147.08 407.175Z" fill="white"/>
<path d="M364.049 403.921C364.049 409.307 359.683 413.674 354.296 413.674C348.91 413.674 344.544 409.307 344.544 403.921C344.544 398.534 348.91 394.168 354.296 394.168C359.683 394.168 364.049 398.534 364.049 403.921Z" fill="white"/>
</svg>
