<svg width="660" height="660" viewBox="0 0 660 660" fill="none" xmlns="http://www.w3.org/2000/svg">
<mask id="mask0_42_1259" style="mask-type:alpha" maskUnits="userSpaceOnUse" x="0" y="0" width="660" height="660">
<circle cx="330" cy="330" r="330" fill="#D9D9D9"/>
</mask>
<g mask="url(#mask0_42_1259)">
<path d="M528.348 335.652C556.875 226.107 491.197 114.179 381.652 85.6519C272.107 57.1253 160.179 122.803 131.652 232.348C103.125 341.892 168.803 453.821 278.348 482.347C387.892 510.874 499.821 445.196 528.348 335.652Z" fill="#7C0057"/>
<path d="M266.121 276.14C255.004 278.394 247.395 248.63 250.093 239.06C252.971 228.846 262.889 229.828 268.214 237.54C273.539 245.251 273.281 274.687 266.121 276.14Z" fill="#CC9072"/>
<path d="M385.3 275.918C396.496 277.488 402.529 247.676 399.347 238.394C395.944 228.488 386.109 230.041 381.203 237.962C376.298 245.884 378.084 274.907 385.3 275.918Z" fill="#CC9072"/>
<path d="M370.438 305.358C368.818 330.238 368.437 349.53 378.178 355.546C406.151 372.821 472.839 403.19 472.839 403.19C476.998 466.489 183.008 468.496 182.947 403.19C182.947 403.19 249.446 372.77 276.49 353.446C284.982 347.378 283.45 343.177 285.159 307.672C303.775 292.653 350.909 291.153 370.438 305.358Z" fill="#CC9072"/>
<path d="M369.726 333.404C369.342 326.387 369.655 318.135 370.207 309.044C370.264 307.827 370.33 306.588 370.402 305.333C350.935 291.218 304.178 292.653 285.409 307.479C285.398 307.733 285.386 307.988 285.375 308.238C286.156 310.074 286.989 311.657 287.872 312.885C297.298 325.999 310.932 339.764 342.601 339.803C353.496 339.816 362.471 337.142 369.726 333.404Z" fill="#A56C58"/>
<path d="M328.048 328.588C302.451 328.555 282.598 308.827 277.79 301.669C273.517 295.309 269.552 279.534 268.359 267.434C265.643 239.892 254.223 153.889 326.635 153.727C401.966 153.558 386.509 239.3 382.778 269.164C381.067 282.864 377.945 295.562 373.922 301.759C369.173 309.076 355.57 328.624 328.048 328.588Z" fill="#C28A6C"/>
<path d="M328.524 324.287C309.473 324.244 301.887 318.6 293.346 308.544C289.201 303.663 282.148 293.575 280.68 284.143C279.013 273.427 269.847 256.559 265.453 242.275C257.812 217.437 261.362 183.193 289.2 175.563C301.475 172.198 317.787 179.064 327.405 181.495C344.079 185.711 366.886 174.897 374.396 191.778C385.761 217.323 384 237.94 377.909 248.98C371.305 260.951 375.703 272.826 373.434 284.747C371.538 294.714 365.964 304.075 362.96 308.409C356.201 318.164 349.144 324.333 328.524 324.287Z" fill="#CC9072"/>
<path d="M338.147 271.842C334.022 273.332 323.016 275.218 312.293 272.415C320.812 276.551 327.251 277.295 333.711 277.152C340.178 277.008 343.504 273.026 338.147 271.842Z" fill="#A56C58"/>
<path d="M376.835 225.167C378.706 225.14 378.986 223.235 377.519 222.505C374.458 220.981 370.91 218.502 366.216 218.257C357.78 217.819 348.23 219.832 342.926 220.337C332.873 221.294 336.664 227.589 341.823 228.015C350.141 228.701 366.449 225.314 376.835 225.167Z" fill="#3F3F3F"/>
<path d="M277.661 225.157C275.799 225.157 275.869 223.268 277.309 222.516C279.87 221.179 282.155 218.367 286.023 217.979C294.845 217.095 305.58 219.373 311.305 219.838C321.334 220.651 317.696 227.005 312.575 227.505C304.317 228.31 287.999 225.154 277.661 225.157Z" fill="#3F3F3F"/>
<path d="M351.011 289.741C351.011 289.741 326.945 305.097 302.88 288.861C320.984 295.518 351.011 289.741 351.011 289.741Z" fill="#A56C58"/>
<path d="M341.361 303.018C333.255 308.003 322.884 308.587 314.096 303.212C322.331 305.379 331.852 305.037 341.361 303.018Z" fill="#A56C58"/>
<path d="M341.725 342.08C333.619 347.066 323.248 347.65 314.46 342.274C322.694 344.442 332.216 344.1 341.725 342.08Z" fill="#B2725B"/>
<path d="M284.916 175.494C271.85 182.975 267.744 208.813 265.801 224.936C264.337 237.086 264.711 243.717 262.003 232.818C247.918 173.831 271.891 132 328.042 132C378.455 132 405.202 170.377 387.573 232.891C385.754 242.069 385.508 236.072 384.509 225.005C383.089 209.265 381.437 183.266 370.423 176.059C363.473 171.512 339.495 175.049 328.377 175.336C318.785 175.582 291.947 171.468 284.916 175.494Z" fill="#3F3F3F"/>
<path d="M363.435 238.708C363.435 242.298 359.996 245.207 355.753 245.207C351.511 245.207 348.071 242.297 348.071 238.708C348.071 235.119 351.511 232.209 355.753 232.209C359.996 232.209 363.435 235.119 363.435 238.708Z" fill="#2D2D2D"/>
<path d="M367.211 233.862C367.211 235.2 362.101 235.647 355.797 235.647C349.493 235.647 344.383 235.2 344.383 233.862C344.383 232.524 349.45 232.086 355.754 232.086C362.057 232.086 367.211 232.524 367.211 233.862Z" fill="#2D2D2D"/>
<path d="M352.065 237.962C352.065 238.577 351.548 239.075 350.912 239.075C350.275 239.075 349.759 238.577 349.759 237.962C349.759 237.347 350.275 236.85 350.912 236.85C351.548 236.85 352.065 237.347 352.065 237.962Z" fill="white"/>
<path d="M299.659 245.393C303.902 245.393 307.341 242.483 307.341 238.894C307.341 235.304 303.902 232.395 299.659 232.395C295.417 232.395 291.977 235.304 291.977 238.894C291.977 242.483 295.417 245.393 299.659 245.393Z" fill="#2D2D2D"/>
<path d="M288.201 234.032C288.201 235.37 293.312 235.817 299.615 235.817C305.919 235.817 311.029 235.37 311.029 234.032C311.029 232.694 305.962 232.256 299.659 232.256C293.355 232.256 288.201 232.694 288.201 234.032Z" fill="#2D2D2D"/>
<path d="M293.617 238.13C293.617 238.745 294.133 239.244 294.77 239.244C295.407 239.244 295.923 238.745 295.923 238.13C295.923 237.516 295.407 237.018 294.77 237.018C294.133 237.018 293.617 237.516 293.617 238.13Z" fill="white"/>
<path d="M268.752 355.054C259.715 360.142 245.857 368.087 245.857 368.087C245.857 368.087 294.658 637.595 333.117 635.679C368.994 633.894 409.652 369.672 409.652 369.672C409.652 369.672 395.747 359.736 387.769 355.054C379.784 350.371 358.312 381.209 327.931 381.209C301.245 381.209 277.79 349.966 268.752 355.054Z" fill="white"/>
<path d="M274.202 352.002C262.097 392.123 303.595 412.828 303.595 412.828C303.595 412.828 312.607 398.646 316.747 394.506C351.601 436.636 348.08 615.092 348.08 615.092L361.473 588.822C361.473 588.822 339.251 421.389 342.717 402.344C350.5 418.092 351.556 415.449 351.556 415.449C351.556 415.449 394.272 391.228 379.804 359.777C327.52 408.027 305.18 371.49 274.202 352.002Z" fill="#CCCED0"/>
<path d="M327.572 378.016C319.391 378.284 310.504 391.782 310.504 391.782L320.039 408.026L305.181 599.122L334.158 633.893L361.474 593.328L335.237 408.027L343.248 390.703C343.247 390.703 335.759 377.748 327.572 378.016Z" fill="black"/>
<path d="M327.52 378.016C327.52 378.016 310.176 393.467 301.348 410.798C282.54 398.065 279.629 375.916 278.507 349.308C281.018 346.006 282.825 344.51 282.825 344.51C295.237 366.96 310.719 370.457 327.52 378.016Z" fill="white"/>
<path d="M327.572 378.016C327.572 378.016 341.725 388.359 351.621 410.911C370.43 398.178 373.642 377.135 374.6 349.308C372.095 346.006 371.246 344.51 371.246 344.51C358.834 366.96 344.372 370.457 327.572 378.016Z" fill="white"/>
<path d="M249.547 365.975C249.547 365.975 214.261 383.228 163.271 410.171C145.432 488.235 180.171 662.14 180.171 662.14H333.32C333.32 662.14 339.252 646.731 334.512 614.876C276.44 535.282 249.547 365.975 249.547 365.975Z" fill="#29251F"/>
<path d="M251.554 373.465C236.297 381.277 214.185 392.752 187.899 406.839C170.436 484.338 203.354 654.971 204.752 662.14H333.32C333.32 662.14 339.251 646.513 334.512 614.205C285.56 546.16 258.763 413.466 251.554 373.465Z" fill="black"/>
<path d="M386.778 355.617C386.778 355.617 449.271 383.96 500.26 410.91C505.343 505.953 483.215 662.14 483.215 662.14C483.215 662.14 374.447 662.14 330.735 662.14C327.741 640.616 326.339 633.38 329.025 611.625C387.098 532.031 386.778 355.617 386.778 355.617Z" fill="#28241F"/>
<path d="M386.178 363.461C384.03 416.71 374.18 543.651 329.025 608.891C326.339 631.825 327.74 639.452 330.734 662.141C361.597 662.141 424.889 662.141 459.432 662.141C464.399 622.057 479.145 493.364 474.899 409.66C444.08 392.488 409.063 374.783 386.178 363.461Z" fill="black"/>
<path d="M339.252 580.65C361.474 552.614 400.182 363.461 400.182 363.461C400.182 363.461 417.471 370.437 430.303 394.209C421.703 403.175 414.26 412.783 414.26 412.783L423.743 423.92C423.743 423.92 393.452 546.277 339.252 580.65Z" fill="#393430"/>
<path d="M278.507 349.309C278.507 349.309 285.684 541.371 330.755 608.769C280.295 585.409 234.328 419.949 234.328 419.949L242.993 407.243L226.258 388.795C226.258 388.795 249.444 357.215 278.507 349.309Z" fill="black"/>
<path d="M374.599 349.309C374.599 349.309 367.403 550.922 322.332 618.32C372.798 594.96 417.78 421.834 417.78 421.834L409.121 409.128L425.856 390.679C425.856 390.679 403.662 357.215 374.599 349.309Z" fill="#010101"/>
<path d="M237.679 425.474C239.85 410.361 259.541 387.74 274.288 385.131C258.907 394.757 245.857 407.739 237.679 425.474Z" fill="#393430"/>
<path d="M417.739 421.388C416.199 411.883 397.247 388.66 382.618 385.428C395.459 394.24 406.97 406.929 417.739 421.388Z" fill="#393430"/>
<path d="M333.884 605.897C298.086 579.163 255.984 531.625 237.967 435.297C243.447 533.909 301.984 590.346 333.884 605.897Z" fill="#393430"/>
<path d="M251.031 363.971C246.65 366.488 230.464 378.24 225.959 388.534C231.562 396.756 235.197 400.762 244.852 404.458C233.362 392.981 233.1 387.619 233.1 387.619C233.1 387.619 238.207 375.003 251.031 363.971Z" fill="#393430"/>
<path d="M163.271 410.17C122.942 433.824 87.0432 577.571 80 662.102C103.114 662.138 169.284 662.138 169.284 662.138L178.234 596.116C178.234 596.118 207.624 419.454 163.271 410.17Z" fill="black"/>
<path d="M500.26 410.91C544.394 446.138 572.957 577.608 580 662.14C561.589 662.14 502.56 662.14 502.56 662.14L483.222 588.383C483.222 588.383 456.442 419.076 500.26 410.91Z" fill="black"/>
<path d="M182.161 568.137C182.161 568.137 176.908 605.897 173.977 627.521C175.668 639.98 176.059 647.63 176.933 662.14C178.099 662.295 181.523 661.971 182.798 662.14C187.294 631.806 188.791 608.973 182.161 568.137Z" fill="#191714"/>
<path d="M477.921 544.391C477.921 544.391 481.716 586.101 491.5 616.726C487.571 634.791 487.717 643.781 485.363 662.139C483.85 662.139 483.215 662.139 481.914 662.139C480.168 621.497 473.913 605.312 477.921 544.391Z" fill="#191714"/>
</g>
</svg>
