<svg width="660" height="660" viewBox="0 0 660 660" fill="none" xmlns="http://www.w3.org/2000/svg">
<path d="M528.348 361.652C556.875 252.107 491.197 140.179 381.652 111.652C272.107 83.1253 160.179 148.803 131.652 258.348C103.125 367.892 168.803 479.821 278.348 508.347C387.892 536.874 499.821 471.196 528.348 361.652Z" fill="#6C88A4"/>
<mask id="mask0_42_922" style="mask-type:alpha" maskUnits="userSpaceOnUse" x="0" y="0" width="660" height="660">
<circle cx="330" cy="330" r="330" fill="#D9D9D9"/>
</mask>
<g mask="url(#mask0_42_922)">
<path d="M360.639 314.455H296.872C278.103 314.455 262.143 298.29 259.298 276.4L253.453 231.425C249.924 204.263 267.736 179.773 291.027 179.773H366.992C390.481 179.773 408.347 204.663 404.485 232.001L398.132 276.976C395.078 298.603 379.222 314.455 360.639 314.455Z" fill="#2E2E2E"/>
<path d="M380.451 273.964C372.659 286.479 373.41 301.308 382.134 307.083C390.858 312.857 404.246 307.389 412.041 294.873C419.836 282.358 419.082 267.529 410.357 261.754C401.636 255.98 388.245 261.448 380.451 273.964Z" fill="#F5F5FF" stroke="#2E2E2E" stroke-width="0.5006" stroke-miterlimit="10" stroke-linecap="round" stroke-linejoin="round"/>
<path d="M403.795 267.758C407.573 269.233 410.445 272.822 411.054 276.829C411.667 280.839 409.997 285.119 406.829 287.654" stroke="#2E2E2E" stroke-width="0.5006" stroke-miterlimit="10" stroke-linecap="round" stroke-linejoin="round"/>
<path d="M275.242 273.964C283.033 286.479 282.282 301.308 273.558 307.083C264.834 312.857 251.446 307.389 243.651 294.873C235.856 282.358 236.611 267.529 245.335 261.754C254.059 255.98 267.447 261.448 275.242 273.964Z" fill="#F5F5FF" stroke="#2E2E2E" stroke-width="0.5006" stroke-miterlimit="10" stroke-linecap="round" stroke-linejoin="round"/>
<path d="M251.897 267.758C248.119 269.233 245.247 272.822 244.638 276.829C244.025 280.839 245.695 285.119 248.863 287.654" stroke="#2E2E2E" stroke-width="0.5006" stroke-miterlimit="10" stroke-linecap="round" stroke-linejoin="round"/>
<path d="M371.201 425.065C371.955 447.686 353.85 466.39 331.23 466.39C309.06 466.39 291.221 448.4 291.221 426.419C291.221 425.968 291.221 425.517 291.258 425.065L295.7 365.45L296.828 350.359L299.047 320.738H363.369L366.908 367.558L369.43 401.62L371.201 425.065Z" fill="#F5F5FF" stroke="#2E2E2E" stroke-width="0.5589" stroke-miterlimit="10" stroke-linecap="round" stroke-linejoin="round"/>
<path d="M369.43 401.62C348.315 403.125 325.058 392.623 309.098 372.225C303.717 365.376 299.612 357.962 296.828 350.359L299.047 320.738H363.369L366.908 367.558L369.43 401.62Z" fill="#2E2E2E"/>
<path d="M400.267 294.193C400.267 311.521 393.186 328.111 380.647 340.077L361.532 357.236C355.734 363.573 347.541 367.183 338.945 367.183H321.143C312.614 367.183 304.523 363.644 298.691 357.438L279.172 340.111C266.394 328.111 259.181 311.386 259.181 293.89L259.484 288.597L261.239 258.256L262.552 235.77C262.552 198.382 292.624 168.074 329.709 168.074C348.286 168.074 365.074 175.66 377.213 187.897C389.385 200.136 396.9 217.059 396.9 235.77L398.382 261.361L399.833 286.611L400.267 294.193Z" fill="#F5F5FF" stroke="#2E2E2E" stroke-width="0.5006" stroke-miterlimit="10" stroke-linecap="round" stroke-linejoin="round"/>
<path d="M398.378 261.357H396.287C386.441 246.929 380.104 230.103 378.013 212.776C376.7 201.954 361.326 198.314 350.47 199.493C345.581 206.877 336.985 211.699 328.119 211.968C319.254 212.237 310.556 206.305 305.23 199.19C294.408 198.011 278.966 201.651 277.653 212.473C275.696 228.689 270.033 244.468 261.235 258.256L262.548 235.77C262.548 198.382 292.62 168.074 329.705 168.074C348.282 168.074 365.07 175.66 377.209 187.897C389.381 200.136 396.896 217.059 396.896 235.77L398.378 261.357Z" fill="#2E2E2E"/>
<path d="M400.267 294.194L399.83 286.607C394.57 293.554 388.132 302.049 383.58 307.073C377.007 314.289 365.711 315.066 354.451 314.797C351.518 314.73 347.643 313.383 343.73 311.595C333.952 307.144 321.817 307.144 312.005 311.595C308.129 313.383 304.183 314.73 301.25 314.797C289.991 315.066 278.697 314.285 272.155 307.073C268.175 302.689 263.458 295.375 259.478 288.597L259.175 293.891C259.175 296.877 259.461 299.823 259.872 302.743C259.74 302.524 259.606 302.302 259.478 302.083L259.175 307.376C259.175 324.871 266.39 341.596 279.165 353.596L298.684 370.924C304.516 377.126 312.608 380.668 321.137 380.668H338.938C347.535 380.668 355.727 377.062 361.525 370.722L380.64 353.563C393.183 341.596 400.261 325.006 400.261 307.679L399.877 301.015C400.126 298.759 400.267 296.483 400.267 294.194Z" fill="#2E2E2E"/>
<path d="M317.84 380.491C321.712 380.518 325.584 380.141 329.463 380.08C333.312 379.882 337.275 379.946 341.029 379.754C348.558 379.141 355.757 375.757 361.08 370.312L361.114 370.275L361.121 370.268C364.229 367.635 367.387 365.059 370.616 362.564C367.788 365.507 364.885 368.369 361.935 371.174L361.976 371.134C356.834 377.131 349.113 381.047 341.14 381.414C337.153 381.558 333.359 381.38 329.456 381.255C325.591 381.094 321.702 381.077 317.84 380.491Z" fill="#F5F5FF"/>
<path d="M361.091 328.366C352.293 337.336 340.457 342.36 328.659 341.976C317.938 341.633 307.453 336.801 299.361 328.828H301.25C304.183 328.75 308.126 327.218 312.005 325.184C321.817 320.123 333.952 320.123 343.73 325.184C347.639 327.218 351.518 328.75 354.451 328.828C356.677 328.902 358.902 328.75 361.091 328.366Z" fill="#F5F5FF"/>
<path d="M328.659 337.797C332.386 339.349 334.322 340.905 335.716 342.457C337.04 344.009 337.666 345.565 337.666 347.117C337.686 348.669 337.067 350.225 335.743 351.777C334.353 353.329 332.413 354.885 328.662 356.437C324.911 354.885 322.968 353.329 321.581 351.777C320.258 350.225 319.638 348.669 319.658 347.117C319.655 345.565 320.285 344.009 321.605 342.457C322.999 340.905 324.931 339.349 328.659 337.797Z" fill="#2E2E2E"/>
<path d="M344.453 248.457C347.588 246.575 351.019 245.282 354.628 244.315C358.245 243.386 362.086 242.854 366.05 242.995C369.992 243.123 374.094 244.029 377.69 245.921C381.289 247.783 384.262 250.693 385.835 254.184C382.198 252.986 378.925 252.356 375.797 252.258C372.669 252.157 369.679 252.558 366.646 253.103C360.568 254.188 354.393 256.295 347.443 257.161C344.867 257.481 342.517 255.652 342.197 253.076C341.958 251.174 342.911 249.386 344.453 248.457Z" fill="#2E2E2E"/>
<path d="M311.915 257.161C304.966 256.295 298.79 254.188 292.713 253.103C289.679 252.558 286.689 252.154 283.561 252.258C280.433 252.356 277.16 252.986 273.523 254.184C275.096 250.693 278.069 247.787 281.669 245.921C285.265 244.029 289.366 243.123 293.309 242.995C297.268 242.854 301.11 243.386 304.727 244.315C308.34 245.282 311.767 246.575 314.902 248.457C317.135 249.787 317.862 252.672 316.532 254.905C315.555 256.551 313.703 257.376 311.915 257.161Z" fill="#2E2E2E"/>
<path d="M345.852 277.262C346.822 275.76 347.848 274.316 348.875 272.847C350.04 271.379 351.293 269.925 352.818 268.763C355.815 266.386 359.519 264.888 363.344 264.318C367.176 263.837 371.196 264.248 374.742 265.837C376.55 266.534 378.173 267.642 379.705 268.76C381.112 269.844 382.53 270.911 383.453 272.672C383.665 273.076 383.51 273.575 383.106 273.787C382.944 273.871 382.769 273.898 382.604 273.871C380.634 273.581 379.159 272.598 377.671 271.629C376.254 270.787 374.823 270.036 373.291 269.514C370.26 268.416 367.018 268.016 363.805 268.278C360.617 268.622 357.411 269.558 354.674 271.376C353.236 272.184 351.997 273.299 350.788 274.454C349.525 275.696 348.286 276.982 346.98 278.198C346.68 278.477 346.212 278.46 345.933 278.164C345.697 277.915 345.67 277.538 345.852 277.262Z" fill="#2E2E2E"/>
<path d="M358.121 271.861C358.367 268.447 361.337 265.878 364.751 266.124C368.165 266.369 370.734 269.336 370.488 272.754C370.243 276.168 367.276 278.737 363.859 278.491C360.444 278.245 357.875 275.276 358.121 271.861Z" fill="#2E2E2E"/>
<path d="M347.132 277.795C350.135 279.384 353.617 280.155 357.223 280.027" stroke="#2E2E2E" stroke-width="0.5006" stroke-miterlimit="10" stroke-linecap="round" stroke-linejoin="round"/>
<path d="M346.251 270.316C349.686 265.565 355.11 262.302 360.919 261.504" stroke="#2E2E2E" stroke-width="0.5006" stroke-miterlimit="10" stroke-linecap="round" stroke-linejoin="round"/>
<path d="M315.641 278.204C314.335 276.988 313.096 275.702 311.833 274.459C310.624 273.304 309.385 272.19 307.948 271.382C305.21 269.564 302.001 268.624 298.816 268.284C295.604 268.021 292.365 268.419 289.331 269.52C287.799 270.042 286.371 270.793 284.95 271.634C283.462 272.604 281.987 273.587 280.017 273.877C279.566 273.944 279.148 273.631 279.081 273.18C279.054 273.001 279.088 272.826 279.169 272.678C280.091 270.914 281.509 269.85 282.916 268.766C284.448 267.651 286.071 266.54 287.879 265.843C291.428 264.254 295.445 263.843 299.277 264.324C303.102 264.893 306.806 266.392 309.803 268.769C311.328 269.927 312.581 271.385 313.746 272.853C314.769 274.321 315.796 275.766 316.769 277.268C316.992 277.611 316.894 278.069 316.551 278.291C316.258 278.473 315.881 278.429 315.641 278.204Z" fill="#2E2E2E"/>
<path d="M304.497 271.861C304.251 268.447 301.281 265.878 297.867 266.124C294.453 266.369 291.883 269.336 292.129 272.754C292.375 276.168 295.341 278.737 298.759 278.491C302.173 278.245 304.742 275.276 304.497 271.861Z" fill="#2E2E2E"/>
<path d="M315.487 277.801C312.483 279.39 309.002 280.161 305.396 280.033" stroke="#2E2E2E" stroke-width="0.5006" stroke-miterlimit="10" stroke-linecap="round" stroke-linejoin="round"/>
<path d="M316.365 270.316C312.93 265.565 307.506 262.302 301.698 261.504" stroke="#2E2E2E" stroke-width="0.5006" stroke-miterlimit="10" stroke-linecap="round" stroke-linejoin="round"/>
<path d="M331.058 300.344V270.205" stroke="#2E2E2E" stroke-width="0.4622" stroke-miterlimit="10" stroke-linecap="round" stroke-linejoin="round"/>
<path d="M320.59 305.566L325.765 307.745C329.078 309.139 332.799 309.139 336.112 307.745L341.288 305.566" stroke="#2E2E2E" stroke-width="0.4622" stroke-miterlimit="10" stroke-linecap="round" stroke-linejoin="round"/>
<path d="M335.201 329.458C341.511 329.525 348.12 328.296 353.531 325.047" stroke="#2E2E2E" stroke-width="0.4178" stroke-miterlimit="10" stroke-linecap="round" stroke-linejoin="round"/>
<path d="M323.19 329.727C316.876 329.795 310.27 328.566 304.859 325.316" stroke="#2E2E2E" stroke-width="0.4178" stroke-miterlimit="10" stroke-linecap="round" stroke-linejoin="round"/>
<path d="M323.189 329.732C326.034 331.907 331.388 332.452 335.2 329.459" stroke="#2E2E2E" stroke-width="0.4178" stroke-miterlimit="10" stroke-linecap="round" stroke-linejoin="round"/>
<path d="M329.371 314.949C330.762 312.033 333.546 310.275 336.314 309.508C339.116 308.743 341.927 308.891 344.473 309.37C349.712 310.541 353.47 312.646 356.251 313.811L359.544 315.235C360.406 315.626 361.302 315.959 362.793 316.033C365.753 316.262 370.107 314.767 375.639 314.255C375.103 320.656 373.161 326.185 368.319 330.556C365.948 332.694 362.581 334.165 359.19 334.414C355.79 334.714 352.651 333.852 350.076 332.694C344.884 330.306 341.54 326.73 339.001 323.862C337.664 322.33 336.422 320.814 335.018 319.279C333.593 317.72 332.008 316.215 329.371 314.949Z" fill="#2E2E2E"/>
<path d="M329.402 314.953C326.765 316.219 325.179 317.724 323.752 319.287C322.348 320.826 321.105 322.337 319.768 323.87C317.226 326.742 313.886 330.314 308.694 332.701C306.121 333.86 302.98 334.722 299.579 334.422C296.188 334.173 292.821 332.701 290.451 330.563C285.609 326.193 283.669 320.664 283.131 314.263C288.663 314.775 293.017 316.27 295.976 316.041C297.468 315.97 298.364 315.637 299.225 315.243L302.519 313.819C305.3 312.654 309.058 310.549 314.297 309.377C316.846 308.899 319.654 308.751 322.459 309.515C325.226 310.28 328.011 312.037 329.402 314.953Z" fill="#2E2E2E"/>
<path d="M335.036 198.859C347.534 197.418 360.929 193.219 367.71 182.619C373.418 173.693 373.071 161.881 369.081 152.066C363.141 137.469 349.171 126.284 333.541 124.304C317.907 122.321 301.3 129.934 293.115 143.399C284.929 156.864 285.987 175.504 296.102 187.586C306.216 199.67 324.833 203.913 338.942 196.889" fill="#2E2E2E"/>
<path d="M371.465 150.014C378.351 156.691 378.401 168.452 373.569 176.772C368.737 185.096 360.111 190.453 351.252 194.015C337.635 199.49 322.042 201.399 308.371 196.069C294.701 190.739 283.727 177.055 284.334 162.226" stroke="#2E2E2E" stroke-width="0.4047" stroke-miterlimit="10" stroke-linecap="round" stroke-linejoin="round"/>
<path d="M339.672 190.62C352.528 188.987 363.599 178.596 366.784 166.034C369.969 153.471 365.498 139.464 356.158 130.484C346.814 121.503 333.089 117.581 320.267 119.46C308.664 121.16 297.586 127.679 291.522 137.719C285.458 147.76 285.03 161.279 291.482 171.074C297.933 180.869 311.398 185.799 322.284 181.435" stroke="#2E2E2E" stroke-width="0.4047" stroke-miterlimit="10" stroke-linecap="round" stroke-linejoin="round"/>
<path d="M484.83 583.362C454.131 597.215 426.103 601.484 422.231 592.898C418.359 584.312 440.104 566.126 470.802 552.274C501.5 538.421 529.528 534.152 533.4 542.738C537.276 551.321 515.528 569.51 484.83 583.362Z" fill="#2E2E2E"/>
<path d="M471.343 658.763L456.972 623.853L445.467 595.882L435.769 572.285L414.459 520.499C403.236 493.252 414.267 463.066 438.466 454.776C442.692 453.328 447.019 452.675 451.309 452.708C451.706 452.712 452.1 452.715 452.497 452.752C471.262 453.429 489.391 467.362 496.657 488.636L513.907 539.058L521.631 561.669L554.999 659.373" fill="#F5F5FF"/>
<path d="M471.343 658.763L456.972 623.853L445.467 595.882L435.769 572.285L414.459 520.499C403.236 493.252 414.267 463.066 438.466 454.776C442.692 453.328 447.019 452.675 451.309 452.708C451.706 452.712 452.1 452.715 452.497 452.752C471.262 453.429 489.391 467.362 496.657 488.636L513.907 539.058L521.631 561.669L554.999 659.373" stroke="#2E2E2E" stroke-width="0.535" stroke-miterlimit="10" stroke-linecap="round" stroke-linejoin="round"/>
<path d="M532.723 541.695C527.066 534.527 500.153 539.028 470.825 552.251C440.093 566.124 418.332 584.316 422.258 592.926C422.328 593.105 422.436 593.249 422.581 593.431L422.258 593.576L408.533 561.44C414.658 551.642 433.43 538.203 457.495 527.358C481.849 516.368 504.584 511.145 515.86 513.236L532.723 541.695Z" fill="#F5F5FF" stroke="#2E2E2E" stroke-width="0.5006" stroke-miterlimit="10" stroke-linecap="round" stroke-linejoin="round"/>
<path d="M515.86 513.23C504.584 511.139 481.849 516.364 457.495 527.351C433.426 538.197 414.658 551.635 408.533 561.433L388.32 514.058C375.027 482.858 389.401 447.261 419.628 436.705C425.355 434.688 431.194 433.715 436.992 433.715C457.707 433.715 477.559 446.002 487.755 465.888L515.86 513.23Z" fill="#2E2E2E"/>
<path d="M175.164 583.362C205.862 597.215 233.89 601.484 237.762 592.898C241.634 584.312 219.889 566.126 189.191 552.274C158.493 538.421 130.465 534.152 126.593 542.738C122.721 551.321 144.466 569.51 175.164 583.362Z" fill="#2E2E2E"/>
<path d="M188.653 658.763L203.024 623.853L214.529 595.882L224.23 572.285L245.541 520.499C256.763 493.252 245.732 463.066 221.533 454.776C217.307 453.328 212.98 452.675 208.691 452.708C208.293 452.712 207.899 452.715 207.502 452.752C188.737 453.429 170.605 467.362 163.342 488.636L146.092 539.058L138.368 561.669L105 659.373" fill="#F5F5FF"/>
<path d="M188.653 658.763L203.024 623.853L214.529 595.882L224.23 572.285L245.541 520.499C256.763 493.252 245.732 463.066 221.533 454.776C217.307 453.328 212.98 452.675 208.691 452.708C208.293 452.712 207.899 452.715 207.502 452.752C188.737 453.429 170.605 467.362 163.342 488.636L146.092 539.058L138.368 561.669L105 659.373" stroke="#2E2E2E" stroke-width="0.535" stroke-miterlimit="10" stroke-linecap="round" stroke-linejoin="round"/>
<path d="M127.269 541.695C132.926 534.527 159.84 539.028 189.167 552.251C219.899 566.124 241.661 584.316 237.735 592.926C237.664 593.105 237.556 593.249 237.412 593.431L237.735 593.576L251.463 561.44C245.338 551.642 226.566 538.203 202.501 527.358C178.147 516.368 155.412 511.145 144.135 513.236L127.269 541.695Z" fill="#F5F5FF" stroke="#2E2E2E" stroke-width="0.5006" stroke-miterlimit="10" stroke-linecap="round" stroke-linejoin="round"/>
<path d="M144.133 513.23C155.41 511.139 178.144 516.364 202.499 527.351C226.567 538.197 245.336 551.635 251.46 561.433L271.673 514.058C284.967 482.858 270.592 447.261 240.366 436.705C234.638 434.688 228.8 433.715 223.001 433.715C202.287 433.715 182.434 446.002 172.239 465.888L144.133 513.23Z" fill="#2E2E2E"/>
<path d="M458.656 660.458H201.741L203.074 622.807L204.01 595.641L205.199 562.279L209.017 454.554L209.593 438.524L217.88 435.53L266.05 418.129L275.346 414.779L279.956 413.085L291.99 406.613H295.63H365.165H366.606L380.115 412.832L384.691 414.492L393.987 417.843L443.561 435.749L451.202 438.524L451.74 454.592L453.794 515.264L455.343 561.633L456.461 595.173V595.354L457.468 625.652L458.656 660.458Z" fill="#F5F5FF" stroke="#2E2E2E" stroke-width="0.535" stroke-miterlimit="10" stroke-linecap="round" stroke-linejoin="round"/>
<path d="M369.013 405.102L379.077 412.049L383.464 413.628C380.185 439.794 357.851 459.993 330.775 459.993C303.818 459.993 281.525 439.912 278.087 413.904L282.555 412.284L293.128 404.18" fill="#F5F5FF"/>
<path d="M369.013 405.102L379.077 412.049L383.464 413.628C380.185 439.794 357.851 459.993 330.775 459.993C303.818 459.993 281.525 439.912 278.087 413.904L282.555 412.284L293.128 404.18" stroke="#2E2E2E" stroke-width="0.5156" stroke-miterlimit="10" stroke-linecap="round" stroke-linejoin="round"/>
<path d="M244.348 426.205V659.335" stroke="#2E2E2E" stroke-width="0.4622" stroke-miterlimit="10" stroke-linecap="round" stroke-linejoin="round"/>
<path d="M289.056 440.219V659.331" stroke="#2E2E2E" stroke-width="0.4622" stroke-miterlimit="10" stroke-linecap="round" stroke-linejoin="round"/>
<path d="M330.584 460.383L330.57 659.336" stroke="#2E2E2E" stroke-width="0.4622" stroke-miterlimit="10" stroke-linecap="round" stroke-linejoin="round"/>
<path d="M375.278 436.338V659.336" stroke="#2E2E2E" stroke-width="0.4622" stroke-miterlimit="10" stroke-linecap="round" stroke-linejoin="round"/>
<path d="M416.795 426.205V659.335" stroke="#2E2E2E" stroke-width="0.4622" stroke-miterlimit="10" stroke-linecap="round" stroke-linejoin="round"/>
</g>
</svg>
