<svg width="660" height="660" viewBox="0 0 660 660" fill="none" xmlns="http://www.w3.org/2000/svg">
<path d="M528.348 301.652C556.875 192.107 491.197 80.1785 381.652 51.6519C272.107 23.1253 160.179 88.8032 131.652 198.348C103.125 307.892 168.803 419.821 278.348 448.347C387.892 476.874 499.821 411.196 528.348 301.652Z" fill="#50E9E0"/>
<mask id="mask0_42_1863" style="mask-type:alpha" maskUnits="userSpaceOnUse" x="0" y="0" width="660" height="660">
<circle cx="330" cy="330" r="330" fill="black"/>
</mask>
<g mask="url(#mask0_42_1863)">
<path d="M313.057 287.756C313.057 271.682 299.982 258.607 283.913 258.607C267.839 258.607 254.765 271.682 254.765 287.756C254.765 303.829 267.839 316.904 283.913 316.904C299.986 316.899 313.057 303.825 313.057 287.756ZM280.841 279.33C280.841 275.955 283.576 273.22 286.95 273.22C290.325 273.22 293.06 275.955 293.06 279.33C293.06 282.705 290.325 285.44 286.95 285.44C283.576 285.444 280.841 282.705 280.841 279.33Z" fill="#AA5D29" stroke="#AA5D29" stroke-width="0.5" stroke-miterlimit="10"/>
<path d="M442.226 284.4C440.675 282.806 437.396 281.708 434.129 282.663C431.316 283.493 428.91 285.722 427 289.075C428.344 289.706 429.567 290.596 430.578 291.746C432.496 293.932 433.451 296.736 433.257 299.64C433.222 300.21 432.747 300.651 432.181 300.651C432.159 300.651 432.133 300.651 432.107 300.651C431.511 300.612 431.061 300.098 431.105 299.501C431.256 297.173 430.491 294.926 428.953 293.171C428.141 292.238 427.143 291.525 426.049 291.02C424.87 300.314 423.491 309.733 421.742 319.338C421.651 319.883 421.517 320.414 421.422 320.954C424.835 323.045 429.169 323.24 433.594 321.265C441.323 317.826 450.047 307.491 451.326 288.794C451.94 279.833 446.75 273.952 441.552 272.967C435.883 271.896 430.72 276.23 427.51 284.586C429.528 282.339 431.653 281.138 433.516 280.589C437.811 279.323 441.833 280.9 443.769 282.892C444.188 283.32 444.179 284.003 443.752 284.422C443.328 284.841 442.646 284.828 442.226 284.4Z" fill="#AA5D29" stroke="#AA5D29" stroke-width="0.5" stroke-miterlimit="10"/>
<path d="M181.517 505.28C175.896 509.45 170.313 513.68 165.076 518.312C159.757 522.849 154.754 527.727 149.94 532.769C145.239 537.907 140.616 543.144 136.568 548.804C132.385 554.369 128.695 560.276 125.269 566.32C121.998 572.443 118.895 578.678 116.489 585.198C113.901 591.645 111.969 598.338 110.293 605.074C109.411 608.435 108.897 611.883 108.18 615.28C107.601 618.706 107.208 622.167 106.711 625.606L105.864 636.011L105.674 643.65L258.63 643.365L259.188 462.133L254.949 464.069C229.331 475.825 204.283 488.909 181.517 505.28Z" fill="#282833"/>
<path d="M236.133 292.159C235.973 291.761 235.804 291.372 235.636 290.992C234.525 291.498 233.514 292.219 232.685 293.166C231.147 294.92 230.386 297.167 230.537 299.496C230.576 300.092 230.127 300.602 229.531 300.645C229.509 300.645 229.483 300.645 229.457 300.645C228.895 300.645 228.42 300.204 228.381 299.634C228.191 296.73 229.142 293.926 231.065 291.74C232.076 290.586 233.298 289.696 234.646 289.069C232.737 285.716 230.33 283.487 227.517 282.662C224.255 281.694 220.967 282.804 219.42 284.399C219.005 284.831 218.318 284.839 217.89 284.42C217.463 284.005 217.454 283.323 217.869 282.891C219.809 280.894 223.849 279.33 228.126 280.588C230.369 281.249 232.992 282.826 235.342 286.101C235.303 285.773 235.273 285.449 235.238 285.12C232.067 276.228 226.662 271.583 220.595 272.745C215.151 273.774 209.698 279.749 210.32 288.789C211.599 307.476 220.314 317.816 228.044 321.255C232.629 323.299 237.114 323.044 240.575 320.754C240.488 320.266 240.363 319.773 240.285 319.285C238.604 310.12 237.286 301.086 236.133 292.159Z" fill="#AA5D29" stroke="#AA5D29" stroke-width="0.5" stroke-miterlimit="10"/>
<path d="M557.282 625.503C556.781 622.047 556.396 618.569 555.795 615.129C555.07 611.716 554.573 608.246 553.665 604.876C551.976 598.11 550.027 591.386 547.409 584.914C544.972 578.372 541.844 572.116 538.555 565.963C535.069 559.918 531.379 553.972 527.14 548.403C523.052 542.73 518.395 537.484 513.663 532.321C504.002 522.171 493.239 513.054 481.845 504.806C458.919 488.434 433.724 475.338 407.968 463.56L401.486 460.608L402.299 551.739L402.601 643.348L558.336 643.642L558.142 635.951L557.282 625.503Z" fill="#282833"/>
<path d="M375.266 316.9C391.339 316.9 404.41 303.825 404.41 287.752C404.41 271.678 391.339 258.604 375.266 258.604C359.193 258.604 346.118 271.678 346.118 287.752C346.118 303.825 359.193 316.9 375.266 316.9ZM371.131 273.225C374.501 273.225 377.236 275.96 377.236 279.335C377.236 282.709 374.501 285.444 371.131 285.444C367.756 285.444 365.021 282.709 365.021 279.335C365.021 275.956 367.756 273.225 371.131 273.225Z" fill="#AA5D29" stroke="#AA5D29" stroke-width="0.5" stroke-miterlimit="10"/>
<path d="M297.699 399.401C308.034 403.817 319.714 405.584 330.861 405.679L339.719 405.29C342.648 405.126 345.301 404.526 348.106 404.184C353.641 403.182 359.145 401.579 364.343 399.423C374.812 395.136 383.865 387.985 391.037 379.365C398.296 370.771 403.667 360.721 407.694 350.295C409.729 345.123 411.535 339.726 412.883 334.477C414.261 329.015 415.661 323.592 416.573 318.235C420.687 296.721 423.18 275.368 424.977 255.237C425.444 250.195 425.725 245.222 426.036 240.33C426.122 237.937 426.204 235.56 426.291 233.205C426.178 230.777 426.066 228.37 425.954 225.985C425.202 216.67 423.491 207.842 420.289 199.711C414.469 183.296 404.194 170.437 393.725 161.082C383.13 151.702 371.909 146.007 362.334 142.719C359.983 141.743 357.65 141.164 355.455 140.61C353.256 140.083 351.234 139.396 349.281 139.103C345.379 138.562 342.082 137.824 339.356 137.694C334.033 137.404 331.155 137.245 331.038 137.24C330.736 137.253 327.845 137.417 322.613 137.703C319.839 137.832 316.628 138.571 312.74 139.107C310.804 139.392 308.773 140.092 306.578 140.615C304.383 141.168 302.05 141.747 299.7 142.723C290.129 146.011 278.912 151.702 268.313 161.087C257.844 170.441 247.569 183.3 241.753 199.715C238.564 207.786 236.823 216.752 236.084 226.037C235.976 228.37 235.868 230.721 235.756 233.093C235.838 235.504 235.92 237.932 236.006 240.378C236.322 245.278 236.598 250.186 237.069 255.233C238.871 275.385 241.356 296.669 245.491 318.278C246.42 323.718 247.802 329.041 249.159 334.412C249.76 337.104 250.702 339.735 251.523 342.453C252.447 345.063 253.285 347.698 254.361 350.286C258.393 360.708 263.763 370.758 271.014 379.348C278.19 387.968 287.238 395.123 297.699 399.401ZM341.62 353.333C338.513 353.575 335.329 353.696 332.127 353.696C327.936 353.696 323.723 353.488 319.636 353.078C319.039 353.017 318.607 352.49 318.668 351.898C318.728 351.302 319.281 350.857 319.847 350.93C326.929 351.643 334.396 351.73 341.447 351.181C342.104 351.064 342.566 351.578 342.609 352.17C342.657 352.767 342.212 353.289 341.62 353.333ZM367.32 338.78C360.606 343.568 346.502 345.97 332.045 345.97C317.726 345.97 303.057 343.615 294.886 338.892C293.853 338.296 293.499 336.974 294.095 335.941C294.692 334.904 296.014 334.55 297.047 335.151C312.126 343.866 352.655 343.93 364.814 335.263C365.778 334.576 367.13 334.792 367.826 335.768C368.517 336.736 368.292 338.084 367.32 338.78ZM358.052 247.222C358.255 246.315 358.998 245.667 359.863 245.528C359.863 245.528 362.312 245.152 365.981 244.91C369.649 244.673 374.527 244.634 379.393 244.837C384.262 245.01 389.127 245.438 392.77 245.891C396.412 246.367 398.832 246.842 398.832 246.842C400.016 247.071 400.793 248.22 400.56 249.404C400.374 250.355 399.597 251.042 398.685 251.158C398.685 251.158 396.235 251.465 392.571 251.698C388.903 251.906 384.02 252.005 379.155 251.85C374.281 251.729 369.416 251.357 365.773 250.873C362.131 250.385 359.716 249.845 359.716 249.845C358.532 249.581 357.784 248.406 358.052 247.222ZM375.266 254.287C393.716 254.287 408.731 269.301 408.731 287.756C408.731 306.21 393.716 321.225 375.266 321.225C356.808 321.225 341.797 306.21 341.797 287.756C341.797 269.297 356.808 254.287 375.266 254.287ZM319.243 254.676C319.243 253.483 320.21 252.515 321.403 252.515C322.595 252.515 323.563 253.483 323.563 254.676V313.153C323.563 314.813 324.065 318.675 328.701 318.675H344.251C345.444 318.675 346.412 319.643 346.412 320.836C346.412 322.028 345.444 322.996 344.251 322.996H328.701C323.041 322.996 319.243 319.043 319.243 313.153V254.676ZM263.012 246.842C263.012 246.842 265.435 246.371 269.074 245.891C272.716 245.438 277.581 245.006 282.451 244.837C287.32 244.63 292.199 244.673 295.867 244.91C299.535 245.152 301.985 245.528 301.985 245.528C303.182 245.714 304.007 246.833 303.822 248.034C303.679 248.955 302.983 249.655 302.128 249.845C302.128 249.845 299.708 250.385 296.066 250.873C292.423 251.357 287.558 251.724 282.684 251.85C277.81 252.01 272.932 251.906 269.268 251.698C265.6 251.465 263.154 251.158 263.154 251.158C261.957 251.007 261.106 249.914 261.257 248.717C261.378 247.758 262.108 247.019 263.012 246.842ZM250.442 287.756C250.442 269.301 265.457 254.287 283.911 254.287C302.361 254.287 317.376 269.301 317.376 287.756C317.376 306.21 302.361 321.225 283.911 321.225C265.457 321.22 250.442 306.206 250.442 287.756Z" fill="#AA5D29" stroke="#AA5D29" stroke-width="0.5" stroke-miterlimit="10"/>
<path d="M341.012 498.613C349.442 487.776 380.98 479.722 388.079 478.029C388.71 477.873 389.401 478.024 389.919 478.435C390.438 478.845 390.74 479.472 390.74 480.133V527.662C390.74 528.323 390.438 528.949 389.919 529.36C389.535 529.662 389.064 529.822 388.58 529.822C388.411 529.822 388.243 529.805 388.079 529.762C380.98 528.068 349.446 520.014 341.012 509.177C339.513 511.99 336.894 514.103 333.723 514.881C333.896 517.953 334.241 524.801 334.531 533.918C334.665 540.171 334.959 547.464 335.024 555.28C335.093 563.097 335.166 571.432 335.24 579.766C335.166 588.101 335.097 596.44 335.028 604.257C334.98 612.073 334.669 619.367 334.54 625.619C334.289 633.491 333.995 639.7 333.805 643.23L397.075 643.351L397.377 551.75L398.189 459.816L336.769 494.163C338.571 495.23 340.031 496.764 341.012 498.613Z" fill="white"/>
<path d="M338.06 503.892C338.06 500.194 335.178 497.186 331.545 496.923C331.376 496.962 331.208 497.048 331.039 497.035C330.801 497.018 330.564 496.979 330.326 496.944C326.796 497.307 324.018 500.267 324.018 503.892C324.018 507.764 327.168 510.914 331.039 510.914C334.91 510.914 338.06 507.764 338.06 503.892Z" fill="#282833" stroke="#282833" stroke-width="0.5" stroke-miterlimit="10"/>
<path d="M314.413 484.814L323.059 489.018L327.384 490.997C328.097 491.29 328.832 491.623 329.515 491.865C329.864 491.999 330.219 492.137 330.508 492.215L330.681 492.267L395.109 457.735L393.432 456.988L392.218 456.443L391.92 456.305L391.557 456.115L391.484 456.067L391.35 455.976C391.181 455.864 391 455.76 390.632 455.38C389.362 453.998 389.28 453.254 388.822 452.23C386.601 444.799 386.51 437.756 386.061 430.583C385.547 418.066 385.668 405.583 385.815 393.126C380.15 398.026 373.76 402.152 366.781 405.082C361.121 407.484 355.267 409.251 349.196 410.401C346.154 410.82 343 411.481 340.036 411.671L331.182 412.133C318.712 412.055 306.61 409.986 295.255 405.103C289.067 402.506 283.36 398.95 278.192 394.768C278.339 407.147 278.473 419.552 277.915 432.005C277.743 435.561 277.509 439.121 277.107 442.699C276.611 446.302 276.321 449.811 274.606 453.665C274.299 454.175 274.079 454.659 273.564 455.199C273.318 455.657 272.005 456.387 271.836 456.422L269.416 457.506L265.588 459.226C276.096 464.899 286.643 470.529 297.229 476.042L314.413 484.814Z" fill="#AA5D29" stroke="#AA5D29" stroke-width="0.5" stroke-miterlimit="10"/>
<path d="M357.864 509.116C357.794 509.116 357.725 509.112 357.652 509.095L344.184 506.429C348.837 513.018 369.819 520.679 386.42 524.9V482.885C369.24 487.253 347.407 495.298 343.786 502.039C352.346 497.649 367.689 496.733 368.424 496.694C368.985 496.595 369.525 497.118 369.564 497.709C369.595 498.306 369.137 498.816 368.545 498.85C368.368 498.859 352.195 499.831 344.266 504.243L358.075 506.978C358.659 507.094 359.043 507.66 358.922 508.248C358.818 508.758 358.369 509.116 357.864 509.116Z" fill="#282833" stroke="#282833" stroke-width="0.5" stroke-miterlimit="10"/>
<path d="M329.48 533.916C329.757 525.045 330.094 518.343 330.267 515.159C326.024 514.865 322.424 512.268 320.735 508.574C313.04 519.717 280.439 528.035 273.21 529.759C273.046 529.798 272.873 529.82 272.709 529.82C272.23 529.82 271.754 529.66 271.37 529.357C270.851 528.947 270.549 528.32 270.549 527.659V480.13C270.549 479.469 270.851 478.843 271.37 478.432C271.888 478.026 272.558 477.875 273.21 478.026C280.443 479.75 313.04 488.068 320.735 499.211C321.534 497.457 322.774 495.957 324.304 494.817L321.037 493.391C318.065 492.051 315.152 490.634 312.245 489.217L294.914 480.506C284.725 475.282 274.602 469.955 264.491 464.584L265.04 643.254L283.494 643.314L330.198 643.228C330.012 639.698 329.709 633.493 329.467 625.616C329.338 619.364 329.022 612.071 328.975 604.254C328.91 596.438 328.836 588.103 328.767 579.764C328.841 571.429 328.914 563.09 328.983 555.278C329.052 547.461 329.342 540.168 329.48 533.916Z" fill="white"/>
<path d="M303.641 506.978L317.455 504.243C309.518 499.831 293.349 498.859 293.168 498.85C292.571 498.816 292.118 498.306 292.152 497.709C292.187 497.118 292.692 496.647 293.293 496.694C294.01 496.733 308.675 497.61 317.334 501.745C313.259 495.069 291.802 487.188 274.869 482.885V524.9C291.392 520.7 312.257 513.092 317.049 506.524L304.06 509.095C303.991 509.108 303.918 509.116 303.849 509.116C303.343 509.116 302.894 508.758 302.79 508.244C302.678 507.66 303.058 507.094 303.641 506.978Z" fill="#282833" stroke="#282833" stroke-width="0.5" stroke-miterlimit="10"/>
<path opacity="0.5" d="M261.838 164.41C247.156 187.596 241.638 231.149 250.569 290.777C259.5 350.404 268.298 379.746 302.065 403.243C302.065 403.243 265.77 392.545 252.609 353.523C239.448 314.502 232.893 252.33 235.166 228.985C237.434 205.635 242.572 188.693 261.838 164.41Z" fill="#A0A0A0"/>
<path opacity="0.5" d="M401.659 164.41C416.341 187.596 421.859 231.149 412.928 290.777C404.001 350.404 395.2 379.746 361.433 403.243C361.433 403.243 397.727 392.545 410.889 353.523C424.05 314.502 430.604 252.33 428.332 228.985C426.068 205.635 420.922 188.693 401.659 164.41Z" fill="#A0A0A0"/>
<path opacity="0.5" d="M276.541 408.903C276.541 408.903 301.908 448.339 329.423 448.339C356.938 448.339 385.689 405.628 385.689 405.628V389.632C385.689 389.632 364.867 408.903 331.998 408.903C299.13 408.903 276.51 389.477 276.51 389.477L276.541 408.903Z" fill="#A0A0A0"/>
<path opacity="0.3" d="M138.068 546.814C121.095 586.605 211.664 627.125 338.134 627.125C464.604 627.125 545.49 586.743 532.774 551.749C532.774 551.749 562.025 586.769 561.2 646.457H102.801C102.801 646.457 101.03 595.601 138.068 546.814Z" fill="#A0A0A0"/>
<path opacity="0.5" d="M272.708 527.658L280.473 537.185C280.473 537.185 314.093 527.463 322.67 507.748L321.858 506.408C321.858 506.408 295.73 526.504 272.708 527.658Z" fill="#A0A0A0"/>
<path opacity="0.5" d="M389.794 527.658L382.03 537.185C382.03 537.185 348.41 527.463 339.833 507.748L340.645 506.408C340.645 506.408 366.773 526.504 389.794 527.658Z" fill="#A0A0A0"/>
<path d="M398.192 459.816L332.153 496.746L332.036 496.815C331.721 496.993 331.375 497.062 331.038 497.036C330.675 497.006 330.304 496.958 329.941 496.898L329.206 496.699C328.718 496.569 328.32 496.422 327.91 496.275C327.072 495.99 326.328 495.666 325.546 495.359L321.035 493.393C318.063 492.054 315.151 490.637 312.243 489.22L294.912 480.509C283.414 474.615 271.99 468.618 260.587 462.547L264.476 460.223L265.051 646.458L261.836 643.243L399.838 643.684L397.064 646.454L397.375 551.746L398.192 459.816ZM401.459 457.042L402.297 551.75L402.608 646.458C402.612 647.983 401.381 649.223 399.851 649.228H399.834L261.832 649.673C260.064 649.677 258.626 648.247 258.617 646.48V646.458L259.192 460.223C259.187 458.766 260.367 457.583 261.823 457.583C262.268 457.583 262.713 457.704 263.08 457.902C274.41 464.025 285.791 470.091 297.215 476.041L314.407 484.821L323.053 489.025L327.378 491.004C328.091 491.298 328.826 491.631 329.509 491.872C329.859 492.006 330.213 492.145 330.502 492.223L330.93 492.352C330.965 492.348 330.995 492.361 331.03 492.395L329.915 492.68L399.052 455.625C399.843 455.202 400.828 455.5 401.256 456.291C401.394 456.524 401.454 456.788 401.459 457.042Z" fill="#282833"/>
<path d="M331.104 137.241C331.104 137.241 328.153 137.405 322.618 137.707C319.844 137.837 316.633 138.576 312.745 139.112C310.809 139.397 308.778 140.097 306.583 140.619C304.388 141.173 302.055 141.752 299.704 142.728C290.134 146.016 278.917 151.707 268.318 161.091C257.849 170.446 247.574 183.305 241.758 199.72C238.569 207.791 236.828 216.756 236.089 226.042C235.981 228.375 235.873 230.726 235.761 233.098C235.843 235.509 235.925 237.937 236.011 240.383C236.327 245.282 236.603 250.191 237.074 255.238C238.876 275.39 241.36 296.674 245.495 318.283C246.424 323.722 247.807 329.046 249.164 334.416C249.764 337.108 250.706 339.74 251.527 342.457C252.452 345.067 253.29 347.703 254.366 350.291C258.397 360.713 263.768 370.763 271.018 379.353C278.195 387.969 287.243 395.12 297.704 399.401C308.039 403.817 319.718 405.585 330.866 405.68L339.724 405.291C342.653 405.126 345.306 404.526 348.11 404.185C353.645 403.182 359.15 401.579 364.348 399.423C374.817 395.137 383.869 387.986 391.042 379.366C398.301 370.772 403.672 360.722 407.699 350.295C409.734 345.123 411.54 339.727 412.888 334.477C414.266 329.015 415.666 323.593 416.578 318.235C420.691 296.722 423.184 275.368 424.982 255.238C425.449 250.195 425.729 245.222 426.04 240.331C426.127 237.937 426.209 235.561 426.295 233.206C426.183 230.777 426.071 228.371 425.958 225.986C425.207 216.67 423.496 207.843 420.294 199.711C414.474 183.296 404.199 170.437 393.729 161.083C383.135 151.702 371.914 146.008 362.339 142.719C359.988 141.743 357.655 141.164 355.46 140.611C353.261 140.084 351.239 139.397 349.286 139.103C345.384 138.563 342.087 137.824 339.361 137.694C333.921 137.396 331.017 137.236 331.017 137.236L331.104 137.241ZM331.022 134C331.022 134 334.02 134.138 339.65 134.398C342.463 134.51 345.881 135.231 349.934 135.767C351.96 136.052 354.06 136.744 356.337 137.271C358.614 137.828 361.043 138.412 363.488 139.397C373.443 142.724 385.144 148.531 396.244 158.192C407.219 167.823 418.03 181.127 424.265 198.22C427.652 206.572 429.592 216.074 430.435 225.757C430.564 228.142 430.698 230.548 430.832 232.972C430.767 235.474 430.707 237.993 430.646 240.534C430.37 245.498 430.128 250.532 429.696 255.614C428.05 275.96 425.764 297.257 421.737 319.328C420.821 324.911 419.473 330.325 418.142 335.79C416.729 341.446 414.971 346.843 412.884 352.3C408.788 363.163 403.24 373.814 395.544 383.103C387.94 392.406 378.123 400.309 366.776 405.075C361.116 407.477 355.261 409.244 349.191 410.394C346.149 410.813 342.995 411.474 340.03 411.664L331.177 412.126C318.707 412.048 306.605 409.979 295.25 405.096C283.903 400.33 274.082 392.423 266.477 383.121C258.778 373.827 253.238 363.171 249.138 352.309C248.049 349.617 247.181 346.826 246.243 344.082C245.448 341.369 244.506 338.664 243.897 335.851C242.544 330.299 241.17 324.79 240.276 319.285C236.266 297.309 233.968 275.943 232.326 255.618C231.716 245.369 230.606 235.53 231.595 225.705C232.451 215.987 234.365 206.628 237.761 198.22C244 181.123 254.815 167.819 265.786 158.188C276.89 148.527 288.591 142.719 298.546 139.397C300.996 138.407 303.42 137.828 305.697 137.271C307.983 136.744 310.07 136.057 312.114 135.767C316.18 135.227 319.684 134.501 322.449 134.393C327.984 134.138 330.935 134 330.935 134H331.022Z" fill="#282833"/>
<path d="M424.624 286.198C432.695 260.554 454.766 270.341 453.487 288.942C451.413 319.136 430.081 330.72 418.998 322.039" stroke="#282833" stroke-miterlimit="10"/>
<path d="M442.998 283.645C439.213 279.756 426.605 277.954 422.384 298.928" stroke="#282833" stroke-width="0.5" stroke-miterlimit="10" stroke-linecap="round"/>
<path d="M423.029 289.136C428.439 289.49 432.535 294.161 432.181 299.571" stroke="#282833" stroke-width="0.5" stroke-miterlimit="10" stroke-linecap="round" stroke-linejoin="round"/>
<path d="M237.786 285.811C229.715 260.167 206.88 270.334 208.159 288.939C210.233 319.133 231.56 330.717 242.647 322.037" stroke="#282833" stroke-miterlimit="10"/>
<path d="M218.637 283.645C222.422 279.756 235.034 277.954 239.247 298.928" stroke="#282833" stroke-width="0.5" stroke-miterlimit="10" stroke-linecap="round"/>
<path d="M238.608 289.136C233.198 289.49 229.102 294.161 229.456 299.571" stroke="#282833" stroke-width="0.5" stroke-miterlimit="10" stroke-linecap="round" stroke-linejoin="round"/>
<path d="M278.121 389.498C278.281 403.627 278.545 417.786 277.905 432.001C277.732 435.557 277.499 439.118 277.097 442.695C276.6 446.299 276.311 449.807 274.595 453.662C274.289 454.171 274.068 454.655 273.554 455.195C273.308 455.653 271.994 456.384 271.826 456.418L269.406 457.503L264.571 459.672L254.949 464.062C229.331 475.823 204.279 488.906 181.517 505.278C175.895 509.447 170.313 513.678 165.076 518.309C159.757 522.846 154.753 527.724 149.94 532.767C145.239 537.904 140.616 543.141 136.567 548.801C132.385 554.367 128.695 560.273 125.268 566.318C121.997 572.441 118.895 578.675 116.488 585.196C113.9 591.642 111.969 598.335 110.292 605.071C109.411 608.433 108.897 611.881 108.179 615.277C107.6 618.703 107.207 622.164 106.71 625.604L105.863 636.008L105.604 646.456L102.8 643.652L331.997 643.224L561.195 643.66L558.395 646.456L558.136 635.961L557.276 625.504C556.775 622.048 556.39 618.57 555.789 615.13C555.064 611.717 554.567 608.247 553.659 604.877C551.97 598.111 550.021 591.387 547.403 584.915C544.966 578.373 541.837 572.117 538.549 565.964C535.062 559.919 531.372 553.973 527.134 548.404C523.046 542.731 518.388 537.485 513.657 532.322C503.996 522.172 493.233 513.055 481.839 504.807C458.912 488.435 433.718 475.339 407.962 463.56L398.283 459.153L393.426 456.98L392.212 456.435L391.914 456.297L391.551 456.107L391.478 456.06L391.344 455.969C391.175 455.856 390.994 455.753 390.626 455.373C389.356 453.99 389.274 453.247 388.816 452.223C386.595 444.791 386.504 437.748 386.055 430.575C385.467 416.299 385.709 402.075 385.869 387.882C385.878 386.987 386.612 386.266 387.507 386.278C388.393 386.287 389.11 387.013 389.11 387.899C389.105 402.101 389.023 416.291 389.758 430.394C390.225 437.337 390.57 444.683 392.519 450.87C393.336 452.625 392.791 452.348 395.042 453.312L399.929 455.437L409.69 459.75C435.645 471.338 461.362 484.11 484.725 500.784C496.361 509.136 507.401 518.413 517.369 528.8C522.247 534.08 527.056 539.46 531.303 545.297C535.689 551.022 539.53 557.145 543.155 563.384C546.582 569.736 549.844 576.2 552.393 582.962C555.128 589.65 557.172 596.598 558.944 603.589C559.894 607.076 560.43 610.649 561.195 614.18C561.826 617.731 562.236 621.313 562.768 624.882L563.692 635.654L563.999 646.452C564.042 647.955 562.858 649.208 561.359 649.252H561.298H561.203L332.006 649.688L102.809 649.26H102.722C101.214 649.256 99.9958 648.033 100 646.525V646.452L100.307 635.706L101.223 624.986C101.746 621.434 102.169 617.865 102.783 614.331C103.535 610.818 104.083 607.262 105.008 603.792C106.767 596.827 108.797 589.914 111.502 583.247C114.021 576.511 117.253 570.068 120.662 563.747C124.223 557.512 128.064 551.424 132.398 545.703C136.597 539.879 141.372 534.512 146.229 529.25C151.189 524.091 156.344 519.109 161.796 514.49C167.171 509.776 172.884 505.481 178.626 501.255C201.829 484.586 227.399 471.809 253.225 460.246L262.938 455.947L267.799 453.83L270.231 452.771C270.486 452.676 270.629 452.586 270.551 452.603C270.538 452.629 270.586 452.612 270.65 452.508C270.771 452.421 270.931 452.097 271.091 451.86C272.327 449.25 272.85 445.603 273.304 442.242C273.727 438.802 273.999 435.307 274.207 431.807C274.997 417.782 274.894 403.652 274.894 389.519C274.894 388.62 275.619 387.894 276.514 387.894C277.391 387.894 278.113 388.612 278.121 389.498Z" fill="#282833"/>
<path d="M321.404 254.675C321.404 254.675 321.404 308.94 321.404 313.153C321.404 317.365 323.824 320.835 328.702 320.835C333.584 320.835 344.252 320.835 344.252 320.835" stroke="#282833" stroke-miterlimit="10" stroke-linecap="round" stroke-linejoin="round"/>
<path d="M377.236 279.328C377.236 282.703 374.501 285.438 371.131 285.438C367.756 285.438 365.021 282.703 365.021 279.328C365.021 275.954 367.756 273.219 371.131 273.219C374.501 273.223 377.236 275.954 377.236 279.328Z" fill="#282833"/>
<path d="M280.839 279.328C280.839 282.703 283.574 285.438 286.949 285.438C290.324 285.438 293.059 282.703 293.059 279.328C293.059 275.954 290.324 273.219 286.949 273.219C283.574 273.223 280.839 275.954 280.839 279.328Z" fill="#282833"/>
<path d="M295.966 337.022C311.78 346.161 353.247 346.161 366.067 337.022" stroke="#282833" stroke-miterlimit="10" stroke-linecap="round" stroke-linejoin="round"/>
<path d="M319.744 352.007C326.882 352.724 334.473 352.81 341.534 352.262" stroke="#282833" stroke-width="0.5" stroke-miterlimit="10" stroke-linecap="round" stroke-linejoin="round"/>
<path d="M359.859 245.531C359.859 245.531 362.309 245.155 365.977 244.913C369.645 244.675 374.524 244.636 379.389 244.839C384.258 245.012 389.124 245.44 392.766 245.894C396.409 246.369 398.828 246.844 398.828 246.844C400.012 247.073 400.79 248.222 400.557 249.406C400.371 250.357 399.593 251.044 398.681 251.161C398.681 251.161 396.231 251.467 392.567 251.701C388.899 251.908 384.017 252.007 379.151 251.852C374.277 251.731 369.412 251.359 365.77 250.875C362.127 250.387 359.712 249.847 359.712 249.847C358.528 249.579 357.781 248.404 358.044 247.22C358.256 246.317 358.995 245.664 359.859 245.531Z" fill="#282833"/>
<path d="M302.132 249.849C302.132 249.849 299.712 250.389 296.07 250.877C292.427 251.361 287.562 251.728 282.688 251.854C277.814 252.014 272.936 251.91 269.272 251.702C265.604 251.469 263.158 251.162 263.158 251.162C261.961 251.011 261.11 249.918 261.261 248.721C261.382 247.758 262.112 247.019 263.015 246.846C263.015 246.846 265.439 246.375 269.077 245.895C272.72 245.442 277.585 245.01 282.455 244.841C287.324 244.634 292.202 244.677 295.871 244.914C299.539 245.156 301.989 245.532 301.989 245.532C303.186 245.718 304.011 246.837 303.825 248.038C303.683 248.954 302.987 249.654 302.132 249.849Z" fill="#282833"/>
<path d="M330.381 646.455C330.381 646.455 329.854 638.12 329.465 625.616C329.335 619.364 329.02 612.07 328.972 604.254C328.907 596.437 328.834 588.102 328.765 579.763C328.838 571.428 328.912 563.089 328.981 555.277C329.05 547.461 329.339 540.167 329.478 533.915C329.867 521.411 330.385 513.076 330.385 513.076C330.441 512.182 331.21 511.499 332.105 511.555C332.934 511.607 333.578 512.268 333.626 513.076C333.626 513.076 334.14 521.411 334.533 533.915C334.667 540.167 334.961 547.461 335.026 555.277C335.095 563.094 335.168 571.428 335.242 579.763C335.168 588.098 335.099 596.437 335.03 604.254C334.982 612.07 334.671 619.364 334.542 625.616C334.148 638.12 333.626 646.455 333.626 646.455C333.57 647.349 332.8 648.028 331.906 647.976C331.072 647.924 330.433 647.263 330.381 646.455Z" fill="#282833"/>
<path d="M375.266 255.946C392.83 255.946 407.071 270.183 407.071 287.755C407.071 305.323 392.83 319.563 375.266 319.563C357.698 319.563 343.458 305.323 343.458 287.755C343.458 270.187 357.698 255.946 375.266 255.946Z" stroke="#282833" stroke-miterlimit="10"/>
<path d="M315.215 287.755C315.215 305.047 301.199 319.063 283.911 319.063C266.619 319.063 252.602 305.047 252.602 287.755C252.602 270.463 266.619 256.446 283.911 256.446C301.199 256.446 315.215 270.459 315.215 287.755Z" stroke="#282833" stroke-miterlimit="10"/>
<path d="M272.709 527.658V480.129C272.709 480.129 320.238 491.471 320.238 503.893C320.238 516.316 272.709 527.658 272.709 527.658Z" stroke="#282833" stroke-miterlimit="10" stroke-linecap="round" stroke-linejoin="round"/>
<path d="M388.58 527.658V480.129C388.58 480.129 341.051 491.471 341.051 503.893C341.051 516.316 388.58 527.658 388.58 527.658Z" stroke="#282833" stroke-miterlimit="10" stroke-linecap="round" stroke-linejoin="round"/>
<path d="M331.04 513.075C336.111 513.075 340.221 508.965 340.221 503.894C340.221 498.823 336.111 494.712 331.04 494.712C325.969 494.712 321.858 498.823 321.858 503.894C321.858 508.965 325.969 513.075 331.04 513.075Z" stroke="#282833" stroke-miterlimit="10" stroke-linecap="round" stroke-linejoin="round"/>
<path d="M368.484 497.774C368.484 497.774 348.517 498.889 341.479 504.791" stroke="#282833" stroke-width="0.5" stroke-miterlimit="10" stroke-linecap="round" stroke-linejoin="round"/>
<path d="M357.863 508.038L341.479 504.793" stroke="#282833" stroke-width="0.5" stroke-miterlimit="10" stroke-linecap="round" stroke-linejoin="round"/>
<path d="M293.233 497.774C293.233 497.774 313.195 498.889 320.238 504.791" stroke="#282833" stroke-width="0.5" stroke-miterlimit="10" stroke-linecap="round" stroke-linejoin="round"/>
<path d="M303.853 508.038L320.237 504.793" stroke="#282833" stroke-width="0.5" stroke-miterlimit="10" stroke-linecap="round" stroke-linejoin="round"/>
</g>
</svg>
