<svg width="660" height="660" viewBox="0 0 660 660" fill="none" xmlns="http://www.w3.org/2000/svg">
<mask id="mask0_42_264" style="mask-type:alpha" maskUnits="userSpaceOnUse" x="0" y="0" width="660" height="660">
<circle cx="330" cy="330" r="330" fill="#D9D9D9"/>
</mask>
<g mask="url(#mask0_42_264)">
<path d="M330 539.876C462.514 539.876 569.938 432.452 569.938 299.938C569.938 167.424 462.514 60 330 60C197.486 60 90.0615 167.424 90.0615 299.938C90.0615 432.452 197.486 539.876 330 539.876Z" fill="#FFCE33"/>
<path d="M456.932 311.548C452.586 269.959 443.173 228.912 429.07 189.548C428.654 183.599 427.752 177.796 426.37 172.195C422.044 154.72 413.162 139.101 401.169 126.735C386.967 112.094 368.438 102.008 347.654 98.8458C346.977 98.7547 346.3 98.6122 345.623 98.5212C344.768 98.3827 343.909 98.2877 343.054 98.1966C341.432 98.0106 339.809 97.9196 338.186 97.8246C336.923 97.7335 335.569 97.686 334.311 97.686H333.23C332.914 97.686 332.644 97.686 332.328 97.7335C332.284 97.686 332.237 97.686 332.193 97.7335C287.786 98.1966 250.595 129.712 240.042 172.199C239.46 174.558 238.989 176.957 238.574 179.379C216.075 226.787 208.416 281.45 209.283 334.414C212.762 325.306 218.308 316.99 225.377 310.277C218.814 324.487 218.945 341.555 225.535 355.741L225.468 356.687H225.947C226.03 356.861 226.089 357.047 226.177 357.221L226.264 356.687H439.555L438.74 354.613C441.23 353.92 444.392 354.102 446.553 353.089C446.094 347.607 445.631 342.125 445.172 336.639C447.919 340.878 450.868 342.623 453.615 346.863C451.897 332.886 449.597 316.076 445.659 302.555C450.144 305.266 454.648 306.822 456.932 311.548Z" fill="#2E2E2E"/>
<path d="M378.354 410.178C379.213 436.366 358.678 458.085 333.061 458.085C307.982 458.085 287.767 437.264 287.767 411.718C287.767 411.219 287.767 410.681 287.803 410.178L292.845 341.021L293.491 332.111L296.637 289.145H369.48L372.738 333.722L373.454 343.451L378.354 410.178Z" fill="#F5F5FF" stroke="#2E2E2E" stroke-width="0.5" stroke-miterlimit="10" stroke-linecap="round" stroke-linejoin="round"/>
<path d="M375.825 376.367C352.868 379.177 326.981 368.133 309.446 345.73C302.321 336.666 297.374 326.691 294.524 316.598L296.582 288.692H369.413L372.659 333.262L373.411 342.999L375.825 376.367Z" fill="#2E2E2E"/>
<path d="M394.836 219.819C385.684 234.515 386.571 251.924 396.811 258.704C407.051 265.484 422.773 259.064 431.924 244.367C441.075 229.671 440.189 212.262 429.949 205.486C419.709 198.706 403.987 205.122 394.836 219.819Z" fill="#F5F5FF" stroke="#2E2E2E" stroke-width="0.5" stroke-miterlimit="10" stroke-linecap="round" stroke-linejoin="round"/>
<path d="M422.246 212.54C426.683 214.273 430.051 218.485 430.772 223.191C431.492 227.897 429.529 232.924 425.812 235.901" stroke="#2E2E2E" stroke-width="0.5" stroke-miterlimit="10" stroke-linecap="round" stroke-linejoin="round"/>
<path d="M271.311 219.819C280.463 234.515 279.576 251.924 269.336 258.704C259.096 265.484 243.374 259.064 234.223 244.367C225.072 229.671 225.958 212.262 236.198 205.486C246.442 198.706 262.16 205.122 271.311 219.819Z" fill="#F5F5FF" stroke="#2E2E2E" stroke-width="0.5" stroke-miterlimit="10" stroke-linecap="round" stroke-linejoin="round"/>
<path d="M243.906 212.54C239.468 214.273 236.1 218.485 235.38 223.191C234.659 227.897 236.623 232.924 240.339 235.901" stroke="#2E2E2E" stroke-width="0.5" stroke-miterlimit="10" stroke-linecap="round" stroke-linejoin="round"/>
<path d="M419.047 195.528C419.047 196.913 419.047 198.259 418.968 199.565C418.809 203.523 418.493 207.521 417.978 211.4L417.424 216.942L417.187 219.95L416.791 224.304C416.553 226.956 416.395 229.568 416.197 232.181C416.118 233.843 416.039 235.466 415.92 237.129C415.564 243.699 415.208 250.23 414.337 256.722C414.337 256.84 414.258 256.959 414.258 257.038C414.099 258.265 413.901 259.532 413.664 260.719C413.664 260.759 413.664 260.759 413.664 260.759C413.426 262.105 413.189 263.411 412.833 264.717C412.437 266.696 411.922 268.636 411.289 270.615V270.654C411.131 271.367 410.893 272.04 410.616 272.792C410.181 274.217 409.587 275.681 409.033 277.146C407.489 280.985 405.629 284.706 403.491 288.427C394.664 303.864 381.088 318.034 367.511 327.415C367.432 327.534 367.353 327.573 367.313 327.573C365.651 328.761 363.988 329.83 362.366 330.819C345.781 340.952 326.188 341.506 309.009 332.759C305.447 330.977 302.003 328.919 298.678 326.465C298.639 326.465 298.599 326.465 298.559 326.386C285.418 317.005 274.098 303.389 265.627 288.427C264.994 287.358 264.44 286.329 263.846 285.26C263.569 284.706 263.292 284.112 263.015 283.558C262.54 282.648 262.065 281.658 261.59 280.669C260.244 278.096 259.057 275.404 257.948 272.792C257.671 272.04 257.355 271.327 257.117 270.575C253.119 260.046 251.694 248.291 250.744 236.693C250.586 234.912 250.428 233.052 250.309 231.27C250.151 229.252 249.992 227.193 249.834 225.214L249.359 219.792C249.24 219.198 249.161 218.604 249.082 218.05C248.924 217.377 248.844 216.744 248.765 216.071C248.33 213.617 248.013 211.123 247.736 208.55C247.34 204.355 247.103 200.001 247.103 195.528C247.103 195.172 247.103 194.776 247.142 194.38C247.142 192.322 247.222 190.303 247.34 188.284C247.38 187.572 247.419 186.859 247.459 186.147C247.657 183.812 247.934 181.516 248.29 179.299C250.269 165.564 254.663 152.779 260.996 141.577C262.579 138.767 264.281 136.076 266.142 133.463C272.237 124.716 279.718 117.195 288.07 111.297C288.664 110.822 289.297 110.387 289.891 109.991C290.643 109.477 291.395 108.962 292.147 108.487C295.116 106.666 298.164 105.004 301.291 103.579C310.434 99.383 320.369 96.9686 330.819 96.6915C330.858 96.6123 330.898 96.6123 330.937 96.6915V96.6124C331.452 96.5728 332.006 96.5728 332.521 96.5728H333.035C334.342 96.5728 335.766 96.6124 337.073 96.7311C338.814 96.8103 340.477 96.929 342.179 97.1665C343.089 97.2456 343.999 97.3644 344.87 97.5227C345.583 97.6018 346.295 97.7602 347.008 97.8789C352.945 99.0268 358.645 100.808 364.107 103.302C368.303 105.123 372.38 107.379 376.219 109.991C376.417 110.11 376.615 110.268 376.813 110.387C379.267 112.049 381.602 113.791 383.859 115.73C392.369 122.895 399.652 131.801 405.391 142.013V142.052C405.787 142.646 406.064 143.24 406.42 143.834C406.46 143.834 406.46 143.913 406.46 143.913C412.001 154.481 415.999 166.316 417.82 179.022C417.82 179.101 417.86 179.18 417.86 179.299C418.216 181.516 418.453 183.812 418.651 186.147C418.691 186.543 418.73 186.938 418.73 187.334C418.928 189.63 419.007 192.005 419.007 194.38C419.047 194.78 419.047 195.172 419.047 195.528Z" fill="#F5F5FF" stroke="#2E2E2E" stroke-width="0.5" stroke-miterlimit="10" stroke-linecap="round" stroke-linejoin="round"/>
<path d="M288.315 111.298C282.263 148.596 269.201 184.664 250.016 216.856C249.806 217.216 249.572 217.628 249.315 218.035C249.173 217.386 249.082 216.733 249.01 216.084C248.591 213.602 248.262 211.12 248.005 208.543C247.585 204.375 247.352 199.99 247.352 195.533C247.352 195.173 247.352 194.761 247.399 194.401C247.399 189.243 247.775 184.185 248.543 179.292C250.997 162.114 257.259 146.427 266.371 133.464C272.498 124.721 279.952 117.18 288.315 111.298Z" fill="#2E2E2E"/>
<path d="M419.296 195.532C419.296 196.93 419.296 198.279 419.201 199.558C419.063 203.532 418.734 207.51 418.219 211.389L417.681 216.954L417.424 219.966C416.699 218.81 416.07 217.773 415.532 216.859C396.208 184.406 383.027 148.022 377.07 110.411C379.5 112.05 381.859 113.807 384.127 115.735C393.148 123.323 400.791 132.866 406.654 143.854C406.701 143.854 406.701 143.901 406.701 143.901C412.262 154.478 416.236 166.333 418.081 179.031C418.081 179.125 418.128 179.201 418.128 179.296C418.829 184.188 419.249 189.247 419.249 194.404C419.296 194.76 419.296 195.172 419.296 195.532Z" fill="#2E2E2E"/>
<path d="M418.985 187.338C416.61 189.673 413.799 191.455 410.474 192.246C401.133 194.542 391.436 188.011 386.923 179.501C382.371 171.03 383.796 159.354 383.321 149.735C381.263 165.172 370.892 178.036 357.87 186.626C367.765 176.493 371.051 159.552 368.795 145.579C368.13 148.678 366.867 151.924 365.22 155.186C355.131 175.183 334.148 187.338 311.753 187.227C300.678 187.172 289.868 187.12 286.781 187.105C299.011 180.89 305.938 167.868 312.113 155.597C298.236 171.774 279.921 184.069 259.742 190.873C255.546 192.286 250.789 191.47 247.65 188.347L247.594 188.292C247.583 188.26 247.571 188.233 247.559 188.201C247.753 185.161 248.081 182.169 248.544 179.307C250.524 165.572 254.917 152.787 261.25 141.585C262.834 138.775 264.536 136.083 266.396 133.471C272.492 124.723 279.973 117.203 288.324 111.305C288.918 110.83 289.551 110.395 290.145 109.999C290.897 109.484 291.649 108.97 292.401 108.495C295.37 106.674 298.418 105.011 301.545 103.587C310.688 99.3908 320.623 96.9764 331.073 96.6993C331.112 96.6201 331.152 96.6201 331.192 96.6993V96.6201C331.706 96.5805 332.26 96.5806 332.775 96.5806H333.289C334.596 96.5806 336.021 96.6201 337.327 96.7388C339.069 96.818 340.731 96.9368 342.433 97.1743C343.343 97.2534 344.254 97.3722 345.124 97.5305C345.837 97.6097 346.549 97.768 347.262 97.8867C353.199 99.0346 358.899 100.816 364.361 103.309C368.557 105.13 372.634 107.386 376.473 109.999C376.671 110.118 376.869 110.276 377.067 110.395C379.521 112.057 381.857 113.799 384.113 115.738C392.623 122.903 399.906 131.808 405.645 142.021V142.06C406.041 142.654 406.318 143.248 406.675 143.841C406.714 143.841 406.714 143.921 406.714 143.921C412.256 154.489 416.253 166.324 418.074 179.03C418.074 179.109 418.114 179.188 418.114 179.307C418.529 181.884 418.783 184.571 419 187.302C418.992 187.31 418.988 187.322 418.985 187.338Z" fill="#2E2E2E"/>
<path d="M394.584 166.57C408.018 183.923 415.646 205.697 415.978 227.641C416.311 249.585 409.345 271.577 396.441 289.329C413.089 273.544 423.855 255.831 426.214 233.012C428.574 210.193 422.506 186.598 409.44 167.745C407.761 165.323 405.798 162.849 403.004 161.903C400.205 160.957 395.059 163.661 394.584 166.57Z" fill="#2E2E2E"/>
<path d="M350.424 205.897C353.123 202.276 357.018 200.142 360.885 198.654C364.808 197.225 368.889 196.544 372.946 196.453C377.007 196.366 381.064 196.896 384.999 198.052C388.909 199.271 392.793 200.993 396.062 204.081C391.823 205.264 388.047 205.79 384.271 206.238C380.514 206.637 376.841 206.843 373.184 206.907C369.522 206.978 365.889 206.907 362.192 206.744C358.455 206.539 354.79 206.305 350.424 205.897Z" fill="#2E2E2E"/>
<path d="M315.723 205.897C313.023 202.276 309.129 200.142 305.261 198.654C301.339 197.225 297.258 196.544 293.201 196.453C289.14 196.366 285.082 196.896 281.148 198.052C277.237 199.271 273.354 200.993 270.085 204.081C274.324 205.264 278.1 205.79 281.876 206.238C285.633 206.637 289.306 206.843 292.967 206.907C296.629 206.978 300.262 206.907 303.959 206.744C307.696 206.539 311.357 206.305 315.723 205.897Z" fill="#2E2E2E"/>
<path d="M349.119 238.232C351.233 235.121 353.315 231.958 356.105 229.101C358.801 226.231 362.189 223.828 366.116 222.403C370.022 220.931 374.523 220.812 378.548 222C382.645 223.064 386.148 225.455 389.125 228.194L388.899 228.012C390.569 229.318 392.275 230.577 393.914 231.931L392.766 231.567C392.691 231.677 393.324 231.61 393.807 231.436C394.33 231.266 394.884 231.028 395.434 230.767C396.526 230.233 397.647 229.584 398.628 228.887L398.672 228.855C399.064 228.578 399.602 228.669 399.883 229.057C400.113 229.378 400.089 229.801 399.859 230.094C398.992 231.202 398.078 232.16 397.057 233.106C396.542 233.573 396.004 234.029 395.383 234.456C394.722 234.864 394.148 235.351 392.774 235.533H392.77C392.446 235.56 392.137 235.477 391.876 235.323L391.618 235.169C389.797 234.072 388.048 232.877 386.263 231.733L386.144 231.642L386.037 231.547C383.437 229.263 380.417 227.525 377.242 226.567C374.056 225.546 370.695 225.681 367.469 226.559C364.22 227.458 361.227 229.378 358.449 231.626C355.713 233.882 353.188 236.716 350.445 239.336C350.105 239.673 349.555 239.665 349.218 239.325C348.925 239.028 348.897 238.565 349.119 238.232Z" fill="#2E2E2E"/>
<path d="M364.181 230.917C364.47 226.907 367.953 223.891 371.963 224.18C375.973 224.469 378.989 227.952 378.7 231.962C378.411 235.972 374.928 238.988 370.918 238.699C366.908 238.41 363.892 234.927 364.181 230.917Z" fill="#2E2E2E"/>
<path d="M385.574 237.655C388.25 237.057 390.787 235.842 392.929 234.128" stroke="#2E2E2E" stroke-width="0.5" stroke-miterlimit="10" stroke-linecap="round" stroke-linejoin="round"/>
<path d="M349.879 229.682C353.279 223.697 359.193 219.196 365.87 217.522" stroke="#2E2E2E" stroke-width="0.5" stroke-miterlimit="10" stroke-linecap="round" stroke-linejoin="round"/>
<path d="M315.707 239.339C312.964 236.715 310.443 233.88 307.704 231.628C304.921 229.384 301.929 227.464 298.683 226.562C295.457 225.683 292.096 225.548 288.91 226.57C285.735 227.528 282.711 229.265 280.115 231.549L280.012 231.64L279.885 231.735C278.1 232.879 276.347 234.07 274.53 235.171L274.272 235.325C273.995 235.495 273.683 235.559 273.378 235.535H273.374C272.004 235.353 271.427 234.866 270.766 234.458C270.144 234.027 269.606 233.572 269.091 233.109C268.07 232.163 267.156 231.209 266.289 230.096C265.992 229.72 266.059 229.174 266.439 228.877C266.748 228.636 267.172 228.636 267.476 228.854L267.52 228.885C268.497 229.582 269.618 230.231 270.714 230.765C271.264 231.031 271.818 231.268 272.341 231.434C272.824 231.608 273.453 231.676 273.382 231.565L272.234 231.929C273.873 230.575 275.579 229.321 277.249 228.01L277.023 228.193C280 225.453 283.503 223.063 287.6 221.998C291.625 220.814 296.122 220.929 300.032 222.402C303.959 223.823 307.347 226.225 310.043 229.099C312.833 231.957 314.915 235.123 317.029 238.231C317.298 238.626 317.195 239.165 316.799 239.434C316.459 239.667 315.996 239.612 315.707 239.339Z" fill="#2E2E2E"/>
<path d="M301.973 230.915C301.684 226.906 298.201 223.889 294.191 224.178C290.181 224.467 287.165 227.95 287.454 231.96C287.743 235.97 291.226 238.986 295.236 238.697C299.246 238.408 302.262 234.925 301.973 230.915Z" fill="#2E2E2E"/>
<path d="M280.574 237.653C277.899 237.055 275.361 235.84 273.22 234.126" stroke="#2E2E2E" stroke-width="0.5" stroke-miterlimit="10" stroke-linecap="round" stroke-linejoin="round"/>
<path d="M316.273 229.682C312.873 223.697 306.959 219.196 300.282 217.522" stroke="#2E2E2E" stroke-width="0.5" stroke-miterlimit="10" stroke-linecap="round" stroke-linejoin="round"/>
<path d="M333.597 303.019C337.151 302.853 340.698 302.429 344.284 301.962C345.135 301.852 356.487 300.537 356.388 299.825L356.056 297.43C353.368 297.6 350.736 295.906 348.773 294.398L347.898 293.694C345.792 291.992 343.615 290.23 340.892 289.363C338.232 288.552 334.693 288.967 332.683 291.148C330.668 288.967 327.133 288.552 324.457 289.367C321.75 290.23 319.577 291.992 317.467 293.694L316.604 294.39C314.637 295.894 312.009 297.553 309.309 297.43L308.977 299.825C313.552 301.555 319.375 302.097 324.212 302.71C327.378 303.11 330.49 303.166 333.597 303.019Z" fill="#2E2E2E"/>
<path d="M352.513 299.533C355.121 299.026 357.69 298.23 360.168 297.158" stroke="#2E2E2E" stroke-width="0.5778" stroke-miterlimit="10" stroke-linecap="round" stroke-linejoin="round"/>
<path d="M313.632 299.533C311.024 299.026 308.455 298.23 305.977 297.158" stroke="#2E2E2E" stroke-width="0.5778" stroke-miterlimit="10" stroke-linecap="round" stroke-linejoin="round"/>
<path d="M319.74 309.622C328.329 311.652 337.346 311.874 346.023 310.267" stroke="#2E2E2E" stroke-width="0.5" stroke-miterlimit="10" stroke-linecap="round" stroke-linejoin="round"/>
<path d="M323.781 270.817C328.741 275.373 337.002 275.761 342.369 271.692" stroke="#2E2E2E" stroke-width="0.6139" stroke-miterlimit="10" stroke-linecap="round" stroke-linejoin="round"/>
<path d="M333.076 229.501V259.528" stroke="#2E2E2E" stroke-width="0.5" stroke-miterlimit="10" stroke-linecap="round" stroke-linejoin="round"/>
<path d="M156.347 555.083C188.491 569.586 217.841 574.059 221.898 565.07C225.956 556.08 203.184 537.034 171.039 522.527C138.895 508.02 109.545 503.551 105.492 512.54C101.431 521.533 124.202 540.58 156.347 555.083Z" fill="#2E2E2E"/>
<path d="M80 659.786C80.1187 659.39 80.2771 659.034 80.3958 658.638L123.224 536.29L132.565 509.612L151.406 455.78C157.383 438.641 170.089 426.133 184.615 421.027C189.325 419.365 194.234 418.494 199.142 418.494C203.654 418.494 208.167 419.246 212.6 420.789C237.853 429.656 249.174 461.321 237.259 489.781L212.718 548.204L203.813 569.38L196.569 586.638L165.814 659.786" fill="#F5F5FF"/>
<path d="M80 659.786C80.1187 659.39 80.2771 659.034 80.3958 658.638L123.224 536.29L132.565 509.612L151.406 455.78C157.383 438.641 170.089 426.133 184.615 421.027C189.325 419.365 194.234 418.494 199.142 418.494C203.654 418.494 208.167 419.246 212.6 420.789C237.853 429.656 249.174 461.321 237.259 489.781L212.718 548.204L203.813 569.38L196.569 586.638L165.814 659.786" stroke="#2E2E2E" stroke-width="0.5" stroke-miterlimit="10" stroke-linecap="round" stroke-linejoin="round"/>
<path d="M106.181 511.452C112.122 503.951 140.28 508.673 171.02 522.511C203.172 537.03 225.971 556.077 221.879 565.089C221.78 565.283 221.685 565.43 221.538 565.624L221.879 565.77L257.392 482.513C271.325 449.827 256.271 412.556 224.606 401.501C218.613 399.407 212.526 398.382 206.434 398.382C184.755 398.382 163.954 411.242 153.283 432.094L106.181 511.452Z" fill="#2E2E2E"/>
<path d="M503.643 555.083C471.499 569.586 442.149 574.059 438.096 565.07C434.038 556.08 456.81 537.034 488.954 522.527C521.099 508.02 550.449 503.551 554.506 512.54C558.563 521.533 535.792 540.58 503.643 555.083Z" fill="#2E2E2E"/>
<path d="M494.187 659.786L461.571 582.245L456.188 569.38L447.282 548.204L441.384 534.192L431.37 510.284L422.741 489.781C410.787 461.321 422.148 429.656 447.401 420.789C451.794 419.246 456.346 418.494 460.819 418.494C464.817 418.494 468.775 419.087 472.654 420.196C488.289 424.589 502.222 437.612 508.595 455.78L527.436 509.612L536.777 536.29L579.605 658.638C579.724 659.034 579.882 659.39 580.001 659.786" fill="#F5F5FF"/>
<path d="M494.187 659.786L461.571 582.245L456.188 569.38L447.282 548.204L441.384 534.192L431.37 510.284L422.741 489.781C410.787 461.321 422.148 429.656 447.401 420.789C451.794 419.246 456.346 418.494 460.819 418.494C464.817 418.494 468.775 419.087 472.654 420.196C488.289 424.589 502.222 437.612 508.595 455.78L527.436 509.612L536.777 536.29L579.605 658.638C579.724 659.034 579.882 659.39 580.001 659.786" stroke="#2E2E2E" stroke-width="0.5" stroke-miterlimit="10" stroke-linecap="round" stroke-linejoin="round"/>
<path d="M553.809 511.452C547.868 503.951 519.709 508.673 488.97 522.511C456.817 537.03 434.018 556.077 438.111 565.089C438.21 565.283 438.305 565.43 438.451 565.624L438.111 565.77L402.598 482.513C388.665 449.827 403.718 412.556 435.384 401.501C441.376 399.407 447.464 398.382 453.556 398.382C475.235 398.382 496.035 411.242 506.703 432.094L553.809 511.452Z" fill="#2E2E2E"/>
<path d="M475.033 470.9L464.9 519.348C466.919 523.782 468.502 528.452 469.571 533.321C470.679 538.387 471.273 543.612 471.273 548.995C471.273 555.408 470.442 561.662 468.819 567.599C467.473 572.745 465.573 577.653 463.158 582.244C459.2 589.844 453.975 596.692 447.682 602.431L435.768 659.785H221.352L209.438 600.808C205.123 596.613 201.323 591.823 198.157 586.638C194.397 580.463 191.507 573.695 189.726 566.491C188.341 560.91 187.588 555.051 187.588 548.995C187.588 542.86 188.38 536.883 189.805 531.183C190.715 527.581 191.863 524.098 193.249 520.734L183.195 470.9C178.88 452.534 179.712 434.564 186.203 421.027C191.547 409.785 200.809 401.632 214.267 398.742C217.671 398.03 221.391 397.634 225.389 397.634H438.103C442.061 397.634 445.703 398.03 449.028 398.742C461.773 401.513 469.887 409.39 474.241 420.196C479.823 433.855 479.427 452.182 475.033 470.9Z" fill="#2E2E2E"/>
<path d="M475.021 470.884C473.532 478.998 472.163 487.14 470.556 495.231C468.996 503.333 467.46 511.435 465.782 519.514L465.723 518.972C468.889 525.93 471.007 533.396 471.83 541.015C472.63 548.639 472.182 556.365 470.615 563.85C469.063 571.347 466.122 578.507 462.275 585.074C458.412 591.652 453.365 597.455 447.693 602.443C453.128 597.174 457.656 591.067 461.29 584.512C464.923 577.941 467.417 570.809 468.929 563.502C471.87 548.856 470.176 533.352 464.12 519.7C464.04 519.526 464.025 519.332 464.06 519.158C465.75 511.083 467.579 503.04 469.392 494.993C471.141 486.926 473.14 478.915 475.021 470.884Z" fill="white"/>
<path d="M209.43 600.824C204.166 595.876 199.499 590.2 195.921 583.847C192.362 577.498 189.667 570.615 188.19 563.442C186.742 556.274 186.294 548.892 187.003 541.597C187.68 534.298 189.591 527.138 192.437 520.401L192.386 520.923C189.069 504.295 186.061 487.603 183.211 470.884C187.066 487.405 190.759 503.954 194.143 520.571C194.179 520.753 194.155 520.935 194.092 521.098C188.685 534.306 187.129 549.078 189.872 563.11C191.254 570.116 193.557 576.96 196.902 583.316C200.239 589.661 204.411 595.607 209.43 600.824Z" fill="white"/>
<path d="M382.902 379.894H275.991V412.43H382.902V379.894Z" fill="#2E2E2E"/>
<path d="M384.605 396.652C384.941 400.693 385.116 404.822 385.116 409.013C385.116 459.025 360.4 499.565 329.914 499.565C299.428 499.565 274.713 459.025 274.713 409.013C274.713 405.439 274.84 401.916 275.085 398.453" stroke="white" stroke-width="0.5" stroke-miterlimit="10" stroke-linecap="round" stroke-linejoin="round"/>
</g>
</svg>
