<svg width="660" height="660" viewBox="0 0 660 660" fill="none" xmlns="http://www.w3.org/2000/svg">
<path d="M524.348 348.653C552.875 239.108 487.197 127.18 377.652 98.6529C268.107 70.1263 156.179 135.804 127.652 245.349C99.1254 354.893 164.803 466.822 274.348 495.348C383.892 523.875 495.821 458.197 524.348 348.653Z" fill="#04609D"/>
<mask id="mask0_42_820" style="mask-type:alpha" maskUnits="userSpaceOnUse" x="0" y="0" width="660" height="660">
<circle cx="330" cy="330" r="330" fill="#D9D9D9"/>
</mask>
<g mask="url(#mask0_42_820)">
<path d="M539.63 526.532V690.915H112.37V526.532C116.74 459.405 171.673 448.942 171.673 448.942C200.449 445.019 266.265 431.051 266.265 431.051C283.713 424.954 282.849 411.875 282.849 411.875V283.694H369.15V411.874C369.15 411.874 368.287 424.954 385.734 431.05C385.734 431.05 451.552 445.019 480.326 448.941C480.326 448.941 535.262 459.405 539.63 526.532Z" fill="#FBD7CC"/>
<path d="M369.15 283.694V369.6C356.41 373.76 341.683 376.116 325.988 376.116C310.293 376.116 295.589 373.76 282.85 369.6V283.694H369.15Z" fill="#F27E80"/>
<path d="M550.313 631.329L550.217 631.847V631.86C550.069 632.253 549.742 632.649 549.239 633.029C547.621 634.322 544.237 635.517 539.627 636.536V626.993C538.947 626.885 538.241 626.789 537.493 626.706C536.718 626.613 535.916 626.518 535.073 626.449C534.883 626.422 534.679 626.409 534.474 626.396C534.121 626.353 533.768 626.327 533.4 626.3C532.613 626.231 531.797 626.165 530.953 626.122C530.11 626.069 529.254 626.026 528.384 625.987C527.446 625.934 526.48 625.904 525.502 625.878C524.999 625.865 524.496 625.851 523.966 625.851C523.463 625.838 522.96 625.838 522.443 625.838C521.097 625.811 519.711 625.825 518.297 625.838C517.631 625.851 516.951 625.864 516.258 625.878C515.361 625.891 514.462 625.921 513.552 625.96C511.676 626.027 509.827 626.122 508.019 626.244C507.053 626.314 506.088 626.382 505.137 626.462C500.827 626.815 496.818 627.293 493.269 627.877C492.779 627.959 492.317 628.039 491.842 628.121C491.379 628.203 490.931 628.283 490.482 628.365C490.265 628.405 490.046 628.447 489.842 628.487C489.422 628.57 489.027 628.652 488.62 628.745C488.117 628.841 487.626 628.95 487.151 629.072C486.879 629.141 486.607 629.21 486.349 629.263C486.077 629.332 485.818 629.385 485.574 629.468C485.192 629.563 484.84 629.659 484.5 629.752C484.079 629.874 483.671 629.998 483.29 630.121C483.031 630.2 482.787 630.283 482.543 630.365C482.053 630.527 481.591 630.705 481.169 630.88C480.992 630.949 480.815 631.032 480.639 631.098C480.463 631.167 480.3 631.249 480.136 631.329C479.716 631.533 479.348 631.738 479.008 631.942C478.668 632.144 478.37 632.361 478.125 632.592C478.043 632.662 477.962 632.744 477.894 632.839C477.894 632.839 477.866 632.839 477.866 632.853C477.84 632.866 477.825 632.879 477.812 632.906C477.744 632.975 477.689 633.057 477.649 633.123C477.622 633.15 477.594 633.163 477.594 633.193V633.205L477.513 634.756L474.441 690.914H177.558L174.485 634.756L174.404 633.205V633.193C174.404 633.163 174.378 633.15 174.35 633.123C174.308 633.057 174.254 632.974 174.187 632.906C174.173 632.879 174.16 632.853 174.117 632.839C174.051 632.757 173.968 632.675 173.873 632.592C173.629 632.361 173.33 632.144 172.99 631.942C172.65 631.737 172.283 631.533 171.862 631.329L171.848 631.315C171.224 631.017 170.488 630.731 169.673 630.444C169.416 630.338 169.129 630.242 168.832 630.16C168.558 630.078 168.274 629.982 167.987 629.89C167.308 629.685 166.588 629.494 165.813 629.303C165.5 629.224 165.175 629.154 164.848 629.072C162.945 628.623 160.797 628.204 158.458 627.835C157.656 627.7 156.841 627.577 155.983 627.468C155.752 627.428 155.521 627.386 155.277 627.373C154.911 627.32 154.557 627.264 154.175 627.224C151.865 626.923 149.417 626.666 146.863 626.462C145.91 626.382 144.959 626.313 143.979 626.244C142.771 626.165 141.56 626.095 140.323 626.042C139.697 626.013 139.072 625.987 138.447 625.96C135.374 625.838 132.397 625.796 129.556 625.838C129.039 625.838 128.536 625.838 128.033 625.851C125.966 625.878 123.983 625.947 122.105 626.056C121.208 626.109 120.339 626.165 119.495 626.231C119.183 626.244 118.884 626.274 118.598 626.301C118.231 626.327 117.878 626.354 117.525 626.397C117.32 626.409 117.116 626.423 116.926 626.45C116.518 626.476 116.124 626.519 115.743 626.572C114.562 626.694 113.434 626.832 112.371 626.994V636.537C107.75 635.517 104.366 634.309 102.76 633.042C102.257 632.649 101.93 632.254 101.782 631.847L101.686 631.329L112.371 526.527C116.736 459.411 171.673 448.941 171.673 448.941C200.453 445.014 266.265 431.05 266.265 431.05C266.563 430.942 266.863 430.836 267.163 430.726C267.229 430.697 267.298 430.671 267.366 430.644C267.582 430.562 267.787 430.48 267.991 430.4C268.196 430.318 268.399 430.235 268.602 430.14C280.457 447.828 299.286 470.789 326 488.87C352.714 470.788 371.542 447.828 383.396 430.14C383.601 430.235 383.804 430.318 384.008 430.4C384.212 430.48 384.416 430.562 384.633 430.644C384.701 430.671 384.77 430.697 384.838 430.726C385.136 430.835 385.435 430.941 385.735 431.05C385.735 431.05 451.546 445.014 480.326 448.941C480.326 448.941 535.263 459.411 539.626 526.527L550.313 631.329Z" fill="#321212"/>
<path d="M475.085 691.595H176.915L173.718 633.427L173.589 633.267C173.546 633.213 173.491 633.162 173.43 633.108C173.205 632.896 172.948 632.708 172.643 632.527C172.279 632.308 171.927 632.117 171.565 631.941L171.466 631.888C170.932 631.638 170.27 631.376 169.447 631.086C169.189 630.981 168.931 630.894 168.65 630.816C168.429 630.75 168.218 630.681 168.004 630.611L167.778 630.537C167.174 630.355 166.474 630.167 165.65 629.963C165.49 629.922 165.333 629.886 165.173 629.849C165.01 629.811 164.846 629.772 164.681 629.731C162.76 629.278 160.628 628.865 158.352 628.506C157.515 628.365 156.714 628.247 155.897 628.143L155.813 628.128C155.625 628.096 155.438 628.062 155.24 628.051L154.973 628.015C154.687 627.973 154.405 627.93 154.105 627.9C151.745 627.593 149.296 627.338 146.808 627.139C145.855 627.06 144.908 626.99 143.931 626.922C142.731 626.843 141.525 626.773 140.293 626.721C139.666 626.692 139.042 626.665 138.418 626.639C135.34 626.517 132.372 626.476 129.566 626.517C129.045 626.517 128.548 626.517 128.051 626.53C126.004 626.557 124.019 626.625 122.145 626.734C121.252 626.787 120.389 626.842 119.549 626.908C119.25 626.921 118.986 626.946 118.732 626.969L118.66 626.976C118.291 627.003 117.949 627.028 117.606 627.07C117.38 627.086 117.193 627.097 117.02 627.122C116.58 627.152 116.202 627.193 115.837 627.244C114.804 627.351 113.891 627.461 113.05 627.58V637.382L112.225 637.2C108.873 636.46 104.438 635.231 102.339 633.576C101.729 633.099 101.337 632.61 101.143 632.081L101.114 631.971L101 631.358L101.01 631.261L111.695 526.459C113.964 491.561 130.104 472.156 143.244 462.028C157.488 451.049 171.407 448.301 171.546 448.274C199.691 444.433 264.017 430.832 266.079 430.396L266.931 430.088C266.956 430.075 267.025 430.048 267.094 430.02L267.745 429.766C267.93 429.691 268.121 429.614 268.312 429.524L268.841 429.275L269.167 429.761C280.206 446.232 299.013 469.681 326 488.048C352.99 469.679 371.794 446.231 382.832 429.761L383.157 429.277L383.685 429.523C383.878 429.614 384.07 429.691 384.263 429.769L384.875 430.008C384.975 430.048 385.042 430.074 385.108 430.103L385.923 430.395C387.976 430.83 452.307 444.432 480.419 448.268C480.594 448.3 494.513 451.048 508.756 462.027C521.896 472.155 538.035 491.559 540.306 526.483L551 631.357L550.854 632.101C550.657 632.622 550.251 633.117 549.649 633.571C547.996 634.892 544.669 636.117 539.775 637.199L538.948 637.382V627.576C538.451 627.504 537.946 627.44 537.42 627.382C536.687 627.294 535.863 627.195 535.019 627.126C534.807 627.098 534.62 627.086 534.434 627.074C534.052 627.029 533.71 627.003 533.353 626.978C532.589 626.911 531.774 626.844 530.921 626.801C530.073 626.748 529.221 626.705 528.355 626.665C527.416 626.612 526.457 626.583 525.485 626.557C524.989 626.544 524.492 626.53 523.968 626.53C523.453 626.517 522.956 626.517 522.445 626.517C521.082 626.49 519.731 626.504 518.334 626.517L516.273 626.557C515.38 626.57 514.488 626.599 513.584 626.638C511.735 626.703 509.881 626.799 508.067 626.922C507.107 626.99 506.145 627.06 505.195 627.139C500.892 627.491 496.917 627.965 493.381 628.547C492.895 628.628 492.434 628.708 491.96 628.79L490.607 629.033C490.397 629.072 490.188 629.112 489.991 629.151C489.561 629.235 489.174 629.315 488.773 629.407C488.261 629.505 487.781 629.611 487.323 629.729C487.037 629.801 486.756 629.872 486.489 629.927L486.284 629.978C486.114 630.019 485.95 630.057 485.793 630.11C485.365 630.22 485.016 630.314 484.681 630.406C484.276 630.524 483.874 630.647 483.5 630.767C483.24 630.847 483.002 630.927 482.764 631.008C482.333 631.15 481.9 631.313 481.431 631.507C481.344 631.541 481.27 631.572 481.196 631.604C481.09 631.649 480.985 631.693 480.88 631.733C480.75 631.784 480.622 631.847 480.495 631.91C480.073 632.115 479.721 632.306 479.36 632.523C479.052 632.706 478.795 632.895 478.593 633.086C478.577 633.1 478.561 633.114 478.547 633.126V633.271L478.353 633.369L478.259 633.5L478.193 634.79L475.085 691.595ZM178.203 690.235H473.798L476.916 633.171C476.915 633.054 476.953 632.863 477.123 632.687C477.142 632.657 477.164 632.627 477.188 632.595V632.173L477.585 632.166C477.618 632.134 477.654 632.103 477.69 632.072C477.934 631.839 478.271 631.59 478.662 631.358C479.055 631.121 479.442 630.911 479.84 630.717C480.057 630.611 480.22 630.532 480.393 630.464C480.489 630.428 480.576 630.391 480.663 630.354C480.75 630.317 480.836 630.28 480.922 630.246C481.409 630.044 481.873 629.87 482.33 629.719C482.577 629.635 482.827 629.551 483.091 629.47C483.471 629.348 483.884 629.222 484.311 629.098C484.666 629.001 485.024 628.904 485.409 628.808C485.552 628.758 485.755 628.707 485.965 628.657L486.182 628.604C486.459 628.546 486.721 628.48 486.984 628.413C487.469 628.288 487.977 628.175 488.493 628.077C488.883 627.988 489.284 627.904 489.712 627.82C489.931 627.777 490.146 627.736 490.361 627.697L491.723 627.452C492.203 627.369 492.666 627.289 493.156 627.206C496.731 626.618 500.742 626.14 505.081 625.784C506.034 625.705 507.002 625.636 507.969 625.566C509.801 625.443 511.67 625.347 513.529 625.281C514.44 625.241 515.344 625.211 516.248 625.198L518.284 625.158C519.755 625.143 521.113 625.131 522.457 625.158C522.974 625.158 523.476 625.158 523.984 625.171C524.513 625.189 525.012 625.184 525.521 625.198C526.506 625.224 527.478 625.254 528.424 625.307C529.29 625.347 530.15 625.39 530.997 625.443C531.863 625.487 532.693 625.555 533.46 625.623C533.828 625.649 534.192 625.677 534.556 625.721C534.742 625.731 534.963 625.746 535.168 625.776C535.998 625.842 536.836 625.943 537.574 626.032C538.318 626.113 539.027 626.209 539.735 626.322L540.307 626.414V635.685C545.557 634.459 547.83 633.284 548.815 632.498C549.191 632.214 549.441 631.935 549.558 631.678L549.628 631.301L538.952 526.596C536.714 492.187 520.872 473.1 507.977 463.143C493.986 452.34 480.336 449.635 480.2 449.609C451.761 445.729 386.254 431.855 385.595 431.715L385.505 431.689L383.763 431.033C383.724 431.018 383.686 431.003 383.647 430.987C372.448 447.611 353.503 471.077 326.382 489.434L326 489.691L325.619 489.434C298.5 471.078 279.553 447.611 268.352 430.987C268.317 431.001 268.281 431.016 268.245 431.03L267.607 431.279C267.538 431.306 267.486 431.326 267.437 431.349L266.406 431.715C265.748 431.855 200.24 445.729 171.765 449.615C171.664 449.635 158.014 452.34 144.023 463.143C131.127 473.1 115.285 492.187 113.049 526.571L102.372 631.301L102.438 631.659C102.551 631.925 102.799 632.21 103.179 632.506C104.569 633.604 107.574 634.723 111.691 635.684V626.409L112.268 626.321C113.288 626.166 114.402 626.026 115.673 625.895C116.075 625.838 116.478 625.797 116.881 625.77C117.036 625.746 117.257 625.731 117.478 625.717C117.807 625.676 118.171 625.649 118.548 625.621L118.605 625.616C118.881 625.59 119.168 625.564 119.466 625.551C120.29 625.486 121.162 625.43 122.064 625.377C123.96 625.267 125.965 625.197 128.024 625.171C128.523 625.157 129.032 625.157 129.555 625.157C132.347 625.116 135.369 625.156 138.473 625.28C139.101 625.307 139.728 625.333 140.354 625.362C141.594 625.416 142.81 625.485 144.023 625.565C145.009 625.634 145.963 625.704 146.918 625.784C149.426 625.984 151.898 626.242 154.262 626.549C154.565 626.58 154.867 626.625 155.17 626.67L155.374 626.699C155.565 626.708 155.805 626.747 156.045 626.788C156.904 626.899 157.722 627.02 158.571 627.164C160.873 627.527 163.04 627.947 165.003 628.41C165.169 628.451 165.326 628.488 165.481 628.524C165.649 628.563 165.816 628.602 165.98 628.643C166.822 628.851 167.544 629.046 168.183 629.238L168.427 629.318C168.63 629.384 168.831 629.45 169.027 629.509C169.347 629.598 169.656 629.702 169.932 629.816C170.813 630.125 171.547 630.419 172.14 630.702L172.248 630.76C172.615 630.942 172.974 631.139 173.341 631.359C173.729 631.589 174.066 631.838 174.34 632.098C174.415 632.162 174.493 632.237 174.563 632.314C174.627 632.364 174.684 632.423 174.732 632.494C174.788 632.559 174.835 632.624 174.875 632.682C175.045 632.855 175.084 633.052 175.084 633.192L175.164 634.72L178.203 690.235Z" fill="#321212"/>
<path d="M539.627 636.536V626.993C538.947 626.884 538.241 626.788 537.493 626.706C536.718 626.613 535.916 626.518 535.073 626.448C534.883 626.422 534.678 626.408 534.474 626.395C534.12 626.352 533.768 626.326 533.4 626.299C532.613 626.23 531.796 626.164 530.953 626.121C530.11 626.068 529.253 626.025 528.384 625.986C527.445 625.933 526.48 625.904 525.502 625.877C524.999 625.864 524.496 625.851 523.966 625.851C523.463 625.837 522.96 625.837 522.443 625.837C521.097 625.811 519.711 625.824 518.297 625.837C517.631 625.851 516.951 625.864 516.257 625.877C515.36 625.891 514.462 625.92 513.552 625.96C511.676 626.026 509.827 626.121 508.018 626.244C507.053 626.313 506.088 626.382 505.136 626.461C500.827 626.814 496.818 627.292 493.269 627.876C492.779 627.959 492.317 628.038 491.841 628.12C491.379 628.203 490.93 628.282 490.482 628.364C490.264 628.405 490.046 628.447 489.842 628.487C489.421 628.569 489.027 628.651 488.619 628.744C488.116 628.84 487.626 628.949 487.151 629.071C486.879 629.141 486.607 629.209 486.349 629.262C486.077 629.332 485.818 629.385 485.573 629.467C485.192 629.563 484.839 629.658 484.499 629.751C484.079 629.873 483.671 629.998 483.29 630.12C483.031 630.2 482.787 630.282 482.542 630.364C482.052 630.526 481.591 630.704 481.169 630.879C480.992 630.949 480.815 631.031 480.639 631.097C480.462 631.166 480.299 631.249 480.136 631.328C479.715 631.533 479.348 631.737 479.008 631.941C478.668 632.143 478.37 632.361 478.125 632.592C478.043 632.661 477.962 632.743 477.894 632.838C477.894 632.838 477.866 632.838 477.866 632.852C477.839 632.865 477.824 632.879 477.811 632.905C477.743 632.974 477.689 633.057 477.648 633.123C477.622 633.149 477.594 633.163 477.594 633.192V633.205L477.513 634.755L474.441 690.913H177.558L174.485 634.755L174.404 633.205V633.192C174.404 633.163 174.377 633.149 174.35 633.123C174.308 633.056 174.254 632.974 174.186 632.905C174.173 632.879 174.16 632.852 174.117 632.838C174.05 632.756 173.968 632.674 173.873 632.592C173.629 632.361 173.33 632.143 172.99 631.941C172.65 631.737 172.282 631.532 171.862 631.328L171.847 631.314C171.223 631.017 170.488 630.731 169.673 630.444C169.415 630.338 169.128 630.242 168.831 630.16C168.558 630.077 168.274 629.982 167.987 629.889C167.307 629.684 166.588 629.493 165.813 629.302C165.499 629.223 165.174 629.154 164.847 629.071C162.945 628.623 160.797 628.203 158.458 627.834C157.656 627.699 156.841 627.577 155.983 627.468C155.752 627.428 155.521 627.386 155.277 627.372C154.91 627.319 154.557 627.263 154.175 627.223C151.865 626.923 149.417 626.666 146.862 626.461C145.909 626.382 144.958 626.312 143.979 626.244C142.771 626.164 141.56 626.095 140.322 626.042C139.697 626.013 139.072 625.986 138.446 625.96C135.373 625.837 132.397 625.795 129.555 625.837C129.039 625.837 128.536 625.837 128.033 625.851C125.966 625.877 123.982 625.947 122.105 626.055C121.208 626.108 120.339 626.164 119.495 626.231C119.183 626.244 118.884 626.274 118.597 626.3C118.231 626.327 117.877 626.353 117.525 626.396C117.32 626.409 117.116 626.422 116.926 626.449C116.518 626.475 116.124 626.518 115.743 626.571C114.562 626.694 113.433 626.832 112.371 626.993V636.536C107.749 635.517 104.366 634.309 102.76 633.042L112.371 538.763C116.736 471.647 171.673 461.177 171.673 461.177C200.453 457.25 266.265 443.286 266.265 443.286C266.563 443.177 266.863 443.071 267.162 442.962C267.229 442.932 267.298 442.906 267.366 442.879C267.582 442.797 267.786 442.715 267.991 442.635C268.196 442.553 268.399 442.471 268.601 442.375C280.457 460.064 299.285 483.024 325.999 501.106C352.714 483.023 371.542 460.064 383.396 442.375C383.6 442.471 383.804 442.553 384.007 442.635C384.212 442.715 384.415 442.797 384.633 442.879C384.701 442.906 384.769 442.932 384.837 442.962C385.136 443.07 385.435 443.176 385.735 443.286C385.735 443.286 451.546 457.25 480.326 461.177C480.326 461.177 535.262 471.646 539.626 538.763L549.238 633.029C547.621 634.321 544.237 635.516 539.627 636.536Z" fill="#682222"/>
<path d="M475.085 691.594H176.915L173.718 633.427L173.589 633.267C173.546 633.213 173.491 633.161 173.43 633.108C173.205 632.896 172.948 632.708 172.643 632.527C172.279 632.308 171.927 632.117 171.565 631.941L171.466 631.888C170.932 631.638 170.27 631.376 169.447 631.086C169.189 630.981 168.931 630.894 168.65 630.816C168.429 630.75 168.218 630.68 168.004 630.61L167.778 630.536C167.174 630.355 166.474 630.166 165.65 629.963C165.49 629.922 165.333 629.886 165.173 629.848C165.01 629.81 164.846 629.772 164.681 629.731C162.76 629.277 160.628 628.865 158.352 628.506C157.515 628.365 156.714 628.246 155.897 628.142L155.813 628.128C155.625 628.095 155.438 628.061 155.24 628.05L154.973 628.014C154.687 627.972 154.405 627.93 154.105 627.9C151.745 627.593 149.296 627.338 146.808 627.139C145.855 627.059 144.908 626.99 143.931 626.921C142.731 626.843 141.525 626.773 140.293 626.721C139.666 626.692 139.042 626.665 138.418 626.639C135.34 626.516 132.372 626.476 129.566 626.517C129.045 626.517 128.548 626.517 128.051 626.53C126.004 626.556 124.019 626.625 122.145 626.734C121.252 626.787 120.389 626.842 119.549 626.908C119.25 626.921 118.986 626.946 118.732 626.969L118.66 626.976C118.291 627.002 117.949 627.028 117.606 627.07C117.38 627.085 117.193 627.097 117.02 627.121C116.58 627.152 116.202 627.193 115.837 627.244C114.804 627.351 113.891 627.461 113.05 627.58V637.382L112.225 637.2C108.873 636.46 104.438 635.231 102.339 633.575L102.046 633.344L111.694 538.693C113.963 503.795 130.104 484.39 143.244 474.262C157.487 463.283 171.407 460.535 171.545 460.508C199.691 456.667 264.016 443.066 266.078 442.63L266.93 442.322C266.955 442.309 267.025 442.282 267.093 442.255L267.744 442.001C267.929 441.926 268.121 441.848 268.312 441.759L268.84 441.51L269.166 441.995C280.206 458.467 299.012 481.915 326 500.283C352.989 481.913 371.794 458.466 382.831 441.995L383.156 441.511L383.684 441.758C383.877 441.848 384.069 441.926 384.262 442.003L384.874 442.243C384.974 442.282 385.041 442.308 385.108 442.337L385.922 442.629C387.976 443.064 452.307 456.666 480.419 460.502C480.593 460.534 494.512 463.282 508.756 474.262C521.895 484.39 538.035 503.794 540.306 538.717L549.952 633.327L549.663 633.558C547.995 634.891 544.668 636.116 539.773 637.198L538.947 637.381V627.575C538.449 627.503 537.944 627.438 537.419 627.38C536.685 627.293 535.861 627.193 535.017 627.125C534.805 627.096 534.619 627.085 534.433 627.072C534.051 627.027 533.709 627.002 533.351 626.976C532.587 626.909 531.772 626.843 530.919 626.799C530.072 626.746 529.219 626.703 528.354 626.664C527.414 626.611 526.456 626.582 525.484 626.555C524.988 626.542 524.49 626.529 523.967 626.529C523.452 626.515 522.955 626.515 522.444 626.515C521.081 626.488 519.729 626.502 518.332 626.515L516.272 626.555C515.378 626.569 514.487 626.597 513.583 626.637C511.733 626.702 509.88 626.797 508.066 626.92C507.105 626.989 506.143 627.058 505.194 627.137C500.891 627.49 496.916 627.963 493.38 628.545C492.894 628.627 492.432 628.706 491.959 628.789L490.606 629.031C490.396 629.07 490.186 629.111 489.989 629.149C489.56 629.233 489.172 629.313 488.772 629.405C488.259 629.503 487.78 629.61 487.321 629.727C487.036 629.799 486.755 629.871 486.487 629.926L486.283 629.976C486.113 630.017 485.949 630.056 485.791 630.109C485.364 630.218 485.014 630.313 484.679 630.404C484.275 630.522 483.873 630.645 483.499 630.765C483.238 630.846 483 630.926 482.762 631.006C482.332 631.148 481.898 631.311 481.43 631.505C481.342 631.54 481.268 631.571 481.194 631.603C481.089 631.648 480.983 631.692 480.878 631.731C480.749 631.782 480.621 631.845 480.493 631.908C480.071 632.113 479.719 632.304 479.358 632.522C479.05 632.705 478.793 632.893 478.591 633.084C478.575 633.099 478.56 633.113 478.546 633.125V633.269L478.352 633.367L478.258 633.499L478.192 634.789L475.085 691.594ZM178.203 690.235H473.798L476.916 633.17C476.915 633.053 476.953 632.863 477.123 632.687C477.142 632.657 477.164 632.626 477.188 632.595V632.173L477.585 632.166C477.618 632.134 477.653 632.102 477.69 632.072C477.934 631.839 478.271 631.59 478.662 631.357C479.055 631.121 479.442 630.911 479.84 630.717C480.057 630.611 480.22 630.532 480.393 630.464C480.489 630.428 480.576 630.391 480.663 630.353C480.75 630.317 480.836 630.28 480.922 630.246C481.409 630.044 481.873 629.869 482.33 629.719C482.577 629.635 482.827 629.551 483.091 629.47C483.471 629.348 483.884 629.222 484.311 629.098C484.666 629.001 485.024 628.904 485.409 628.808C485.552 628.757 485.755 628.707 485.965 628.657L486.182 628.604C486.459 628.546 486.721 628.479 486.984 628.413C487.469 628.288 487.977 628.175 488.493 628.077C488.883 627.988 489.284 627.904 489.712 627.82C489.931 627.777 490.146 627.736 490.361 627.696L491.723 627.452C492.203 627.369 492.666 627.288 493.156 627.206C496.731 626.618 500.742 626.14 505.081 625.784C506.034 625.705 507.002 625.635 507.969 625.566C509.801 625.442 511.67 625.346 513.529 625.281C514.44 625.24 515.344 625.211 516.248 625.198L518.284 625.158C519.755 625.143 521.113 625.131 522.457 625.158C522.974 625.158 523.476 625.157 523.984 625.171C524.513 625.189 525.012 625.184 525.521 625.198C526.506 625.224 527.478 625.254 528.424 625.307C529.29 625.347 530.15 625.389 530.997 625.443C531.863 625.487 532.693 625.555 533.46 625.622C533.828 625.649 534.192 625.677 534.556 625.72C534.742 625.731 534.963 625.746 535.168 625.775C535.998 625.842 536.836 625.943 537.574 626.032C538.318 626.113 539.027 626.208 539.735 626.322L540.307 626.414V635.685C545.094 634.567 547.407 633.491 548.524 632.713L538.951 538.831C536.713 504.422 520.871 485.335 507.976 475.378C493.986 464.575 480.336 461.87 480.2 461.844C451.76 457.964 386.253 444.09 385.594 443.95L385.504 443.924L383.762 443.268C383.723 443.253 383.685 443.238 383.646 443.222C372.447 459.846 353.502 483.312 326.381 501.669L326 501.926L325.618 501.669C298.499 483.313 279.552 459.846 268.352 443.222C268.316 443.236 268.28 443.251 268.244 443.266L267.607 443.514C267.537 443.541 267.486 443.561 267.436 443.584L266.406 443.95C265.747 444.09 200.239 457.964 171.764 461.85C171.664 461.87 158.014 464.575 144.023 475.378C131.127 485.335 115.285 504.422 113.048 538.806L103.475 632.724C104.968 633.75 107.844 634.786 111.69 635.685V626.41L112.267 626.321C113.287 626.166 114.401 626.026 115.672 625.895C116.074 625.839 116.477 625.797 116.881 625.771C117.036 625.747 117.257 625.732 117.477 625.718C117.806 625.677 118.17 625.65 118.547 625.622L118.605 625.616C118.881 625.59 119.167 625.564 119.465 625.552C120.289 625.486 121.162 625.431 122.064 625.377C123.96 625.267 125.964 625.198 128.023 625.171C128.523 625.157 129.032 625.158 129.554 625.158C132.346 625.116 135.368 625.157 138.473 625.281C139.101 625.307 139.727 625.334 140.353 625.363C141.593 625.416 142.809 625.485 144.023 625.565C145.008 625.635 145.962 625.704 146.918 625.784C149.425 625.985 151.898 626.242 154.262 626.55C154.565 626.581 154.866 626.625 155.17 626.67L155.373 626.7C155.565 626.708 155.805 626.747 156.044 626.789C156.903 626.9 157.722 627.021 158.57 627.164C160.872 627.528 163.039 627.947 165.002 628.41C165.169 628.452 165.325 628.488 165.48 628.524C165.649 628.564 165.815 628.602 165.979 628.644C166.821 628.851 167.543 629.046 168.182 629.239L168.426 629.318C168.629 629.385 168.83 629.451 169.026 629.51C169.346 629.598 169.656 629.703 169.932 629.816C170.813 630.126 171.546 630.419 172.139 630.702L172.247 630.761C172.615 630.943 172.973 631.139 173.341 631.359C173.728 631.589 174.065 631.839 174.34 632.098C174.415 632.162 174.492 632.237 174.562 632.314C174.627 632.364 174.683 632.424 174.731 632.495C174.788 632.559 174.835 632.624 174.874 632.683C175.044 632.856 175.083 633.053 175.083 633.192L175.164 634.72L178.203 690.235Z" fill="#682222"/>
<path d="M390.285 243.599C400.526 226.395 430.419 242.244 425.74 259.394C421.949 273.294 399.326 287.078 384.347 282.434L390.285 243.599Z" fill="#F27E80"/>
<path d="M261.711 243.599C251.475 226.395 221.58 242.244 226.259 259.394C230.05 273.294 252.676 287.078 267.65 282.434L261.711 243.599Z" fill="#F27E80"/>
<path d="M404.172 219.659C404.172 244.708 401.74 265.292 397.759 282.269V282.295C389.242 318.582 373.541 338.164 358.993 348.705C341.686 361.331 325.986 361.134 325.986 361.134C325.986 361.134 310.281 361.331 292.975 348.679C278.435 338.137 262.761 318.553 254.269 282.323C250.263 265.345 247.83 244.736 247.83 219.659C247.83 219.659 240.912 154.024 325.986 158.631C411.089 154.024 404.172 219.659 404.172 219.659Z" fill="#FBD7CC"/>
<path d="M345.906 242.021C345.906 242.021 346.206 241.517 346.855 240.726C347.17 240.321 347.588 239.864 348.076 239.341C348.586 238.847 349.139 238.249 349.825 237.698C350.491 237.12 351.234 236.512 352.083 235.955C352.898 235.346 353.838 234.824 354.806 234.272C355.296 234.007 355.817 233.784 356.335 233.532C356.856 233.29 357.374 233.017 357.941 232.852C359.055 232.473 360.178 232.054 361.36 231.82C361.948 231.7 362.532 231.56 363.122 231.468C363.717 231.407 364.31 231.346 364.898 231.286C366.071 231.097 367.242 231.245 368.362 231.267C369.487 231.243 370.549 231.554 371.554 231.717C372.053 231.83 372.551 231.868 373.004 232.035C373.458 232.194 373.896 232.347 374.316 232.494C375.148 232.802 375.926 233.019 376.555 233.376C377.192 233.706 377.733 234.018 378.178 234.268C379.063 234.776 379.548 235.085 379.548 235.085C379.548 235.085 378.964 234.984 377.979 234.771C377.487 234.661 376.893 234.536 376.228 234.364C375.566 234.181 374.77 234.164 373.949 234.011C373.119 233.886 372.231 233.737 371.275 233.728C370.323 233.71 369.335 233.568 368.307 233.661C367.28 233.71 366.225 233.719 365.163 233.899C364.631 233.967 364.096 234.035 363.557 234.105C363.024 234.202 362.497 234.353 361.965 234.47C360.887 234.646 359.851 235.006 358.82 235.323C357.797 235.658 356.801 236.048 355.838 236.425C354.912 236.885 353.955 237.223 353.119 237.69C352.261 238.118 351.459 238.546 350.725 238.965C349.259 239.803 348.05 240.561 347.218 241.122C346.374 241.671 345.906 242.021 345.906 242.021Z" fill="#F27E80"/>
<path d="M306.095 242.021C306.095 242.021 305.627 241.671 304.783 241.123C303.95 240.562 302.742 239.803 301.276 238.966C300.543 238.547 299.739 238.119 298.882 237.691C298.046 237.224 297.089 236.886 296.163 236.426C295.2 236.049 294.204 235.659 293.181 235.324C292.15 235.007 291.115 234.647 290.035 234.471C289.504 234.354 288.977 234.202 288.443 234.106C287.906 234.036 287.369 233.968 286.838 233.9C285.775 233.72 284.721 233.711 283.694 233.662C282.665 233.569 281.677 233.71 280.726 233.729C279.77 233.738 278.882 233.887 278.052 234.012C277.23 234.165 276.434 234.182 275.772 234.365C275.107 234.537 274.512 234.662 274.021 234.772C273.037 234.984 272.452 235.086 272.452 235.086C272.452 235.086 272.937 234.777 273.822 234.269C274.267 234.019 274.808 233.707 275.446 233.377C276.074 233.021 276.852 232.803 277.684 232.495C278.105 232.348 278.543 232.195 278.996 232.037C279.45 231.869 279.947 231.831 280.446 231.718C281.452 231.555 282.513 231.244 283.638 231.268C284.757 231.246 285.93 231.098 287.102 231.287C287.69 231.347 288.284 231.408 288.879 231.469C289.469 231.561 290.053 231.701 290.642 231.821C291.823 232.055 292.947 232.474 294.06 232.853C294.627 233.018 295.145 233.291 295.666 233.533C296.184 233.785 296.706 234.008 297.195 234.273C298.163 234.825 299.104 235.346 299.919 235.956C300.767 236.513 301.51 237.121 302.176 237.699C302.862 238.249 303.415 238.847 303.925 239.342C304.413 239.866 304.831 240.322 305.147 240.727C305.794 241.517 306.095 242.021 306.095 242.021Z" fill="#F27E80"/>
<path d="M324.622 294.004C310.529 292.541 305.844 277.728 305.651 277.098L305.397 276.264L306.047 275.684C320.905 262.462 316.046 226.624 315.995 226.263L318.688 225.883C318.9 227.391 323.66 262.487 308.534 277.085C309.669 280.018 314.35 290.203 324.903 291.298L324.622 294.004Z" fill="#F27E80"/>
<path d="M333.832 293.664L332.016 291.639C332.296 291.388 338.946 285.524 345.621 288.645L344.47 291.108C339.408 288.742 333.887 293.615 333.832 293.664Z" fill="#F27E80"/>
<path d="M397.744 282.296C389.229 318.582 373.52 338.165 358.981 348.706C359.127 338.138 365.245 322.271 376.165 306.432C382.96 296.555 390.53 288.233 397.744 282.296Z" fill="#F8BDBD"/>
<path d="M292.961 348.68C278.416 338.138 262.746 318.554 254.258 282.324C261.438 288.289 269.009 296.582 275.777 306.433C286.7 322.243 292.814 338.112 292.961 348.68Z" fill="#F8BDBD"/>
<path d="M341.415 228.688C341.415 228.688 369.501 215.163 387.533 228.688C387.533 228.688 392.388 231.347 389.268 225.686C389.268 225.686 372.97 204.415 339.334 218.632C339.334 218.632 335.172 227.3 341.415 228.688Z" fill="#221F1F"/>
<path d="M310.585 228.688C310.585 228.688 282.498 215.163 264.466 228.688C264.466 228.688 259.612 231.347 262.733 225.686C262.733 225.686 279.03 204.415 312.666 218.632C312.666 218.632 316.827 227.3 310.585 228.688Z" fill="#221F1F"/>
<path d="M377.888 249.849C377.888 249.849 376.75 263.495 364.711 266.048C364.711 266.048 354.557 268.822 348.317 256.089C348.317 256.089 350.037 252.541 353.146 249.183C357.028 244.966 363.076 241.058 370.647 244.525C372.922 245.553 375.336 247.268 377.888 249.849Z" fill="white"/>
<path d="M374.532 254.878C374.532 248.561 369.418 243.447 363.105 243.447C356.791 243.447 351.673 248.561 351.673 254.878C351.673 261.192 356.791 266.306 363.105 266.306C369.418 266.306 374.532 261.193 374.532 254.878Z" fill="#59595C"/>
<path d="M368.246 254.877C368.246 257.72 365.942 260.019 363.101 260.019C360.261 260.019 357.958 257.719 357.958 254.877C357.958 252.039 360.261 249.734 363.101 249.734C365.942 249.734 368.246 252.039 368.246 254.877Z" fill="#221F1F"/>
<path d="M377.888 249.977C377.888 249.977 377.434 249.615 376.639 248.983C376.251 248.658 375.777 248.26 375.193 247.877C374.612 247.486 373.996 247.007 373.25 246.586C372.885 246.368 372.504 246.14 372.111 245.905C371.698 245.711 371.271 245.51 370.832 245.305C369.994 244.92 368.92 244.57 367.973 244.333C367.48 244.203 366.948 244.146 366.428 244.055C365.898 244.042 365.365 243.948 364.825 243.987C363.745 243.967 362.66 244.182 361.605 244.468C359.483 245.056 357.545 246.227 355.887 247.522C355.073 248.191 354.298 248.865 353.603 249.551C352.942 250.281 352.317 250.971 351.741 251.608C351.144 252.247 350.732 252.895 350.277 253.431C349.833 253.971 349.485 254.474 349.208 254.896C348.624 255.722 348.318 256.217 348.318 256.217C348.318 256.217 348.515 255.668 348.979 254.762C349.201 254.303 349.482 253.751 349.86 253.143C350.239 252.544 350.602 251.786 351.152 251.119C351.686 250.424 352.265 249.67 352.878 248.874C353.538 248.106 354.28 247.329 355.124 246.599C355.979 245.886 356.892 245.165 357.925 244.584C358.959 244.012 360.058 243.488 361.232 243.159C362.407 242.857 363.62 242.637 364.822 242.674C366.026 242.66 367.187 242.876 368.285 243.178C369.43 243.508 370.327 243.902 371.262 244.412C371.704 244.666 372.135 244.912 372.552 245.15C372.94 245.426 373.316 245.694 373.676 245.95C374.417 246.432 374.991 247.017 375.522 247.493C376.064 247.962 376.477 248.414 376.821 248.789C377.5 249.547 377.888 249.977 377.888 249.977Z" fill="#221F1F"/>
<path d="M274.111 249.849C274.111 249.849 275.249 263.495 287.288 266.048C287.288 266.048 297.442 268.822 303.684 256.089C303.684 256.089 301.964 252.541 298.854 249.183C294.974 244.966 288.926 241.058 281.353 244.525C279.077 245.553 276.662 247.268 274.111 249.849Z" fill="white"/>
<path d="M277.466 254.878C277.466 248.561 282.583 243.447 288.896 243.447C295.208 243.447 300.327 248.561 300.327 254.878C300.327 261.192 295.208 266.306 288.896 266.306C282.583 266.306 277.466 261.193 277.466 254.878Z" fill="#59595C"/>
<path d="M283.753 254.877C283.753 257.72 286.058 260.019 288.898 260.019C291.739 260.019 294.041 257.719 294.041 254.877C294.041 252.039 291.739 249.734 288.898 249.734C286.058 249.734 283.753 252.039 283.753 254.877Z" fill="#221F1F"/>
<path d="M303.684 256.219C303.684 256.219 303.378 255.721 302.793 254.896C302.517 254.474 302.171 253.972 301.724 253.428C301.27 252.891 300.841 252.226 300.254 251.6C299.681 250.967 299.06 250.282 298.404 249.557C297.686 248.844 296.935 248.198 296.114 247.522C294.457 246.227 292.517 245.057 290.395 244.469C289.339 244.185 288.255 243.969 287.174 243.99C286.635 243.949 286.103 244.047 285.572 244.058C285.05 244.15 284.525 244.205 284.023 244.337C283.023 244.593 282.041 244.913 281.182 245.301C280.732 245.513 280.293 245.719 279.87 245.918C279.481 246.151 279.104 246.376 278.743 246.592C278.009 247.005 277.384 247.493 276.803 247.883C276.215 248.267 275.746 248.662 275.359 248.985C274.565 249.617 274.111 249.978 274.111 249.978C274.111 249.978 274.489 249.539 275.18 248.79C275.524 248.414 275.942 247.956 276.481 247.491C277.013 247.016 277.577 246.438 278.33 245.948C278.694 245.689 279.075 245.421 279.468 245.141C279.874 244.908 280.293 244.668 280.725 244.42C281.64 243.915 282.628 243.49 283.721 243.178C284.809 242.88 285.977 242.659 287.179 242.677C288.381 242.641 289.595 242.858 290.769 243.163C291.943 243.492 293.041 244.015 294.076 244.588C295.108 245.171 296.022 245.89 296.877 246.604C297.714 247.326 298.479 248.132 299.117 248.875C299.734 249.676 300.318 250.434 300.857 251.133C301.416 251.811 301.763 252.552 302.143 253.151C302.518 253.754 302.801 254.306 303.023 254.767C303.488 255.672 303.684 256.219 303.684 256.219Z" fill="#221F1F"/>
<path d="M351.162 314.424C350.495 314.867 349.885 315.368 349.304 315.924C347.362 317.752 345.947 320.085 343.923 321.886C341.649 323.882 338.927 325.548 336.074 326.242C332.827 327.074 329.137 326.823 326.028 325.352C322.894 326.823 319.203 327.073 315.959 326.242C313.104 325.548 310.384 323.881 308.107 321.886C306.083 320.085 304.668 317.751 302.729 315.924C302.116 315.368 301.506 314.867 300.839 314.424C303.892 314.675 306.889 314.313 309.44 312.566C311.548 311.124 313.269 309.239 315.432 307.962C317.456 306.767 319.706 305.381 322.199 306.074C323.339 306.38 324.782 307.35 326 308.572C327.25 307.35 328.719 306.38 329.832 306.074C332.327 305.381 334.573 306.768 336.599 307.962C338.763 309.239 340.482 311.124 342.591 312.566C345.141 314.313 348.11 314.675 351.162 314.424Z" fill="#F1986A"/>
<path d="M301.23 314.453C301.23 314.453 301.994 314.658 303.331 315.018C303.997 315.206 304.806 315.433 305.734 315.696C306.653 316.004 307.733 316.128 308.883 316.371C310.034 316.594 311.281 316.836 312.6 317.091C313.941 317.233 315.355 317.383 316.817 317.538C317.547 317.621 318.288 317.706 319.039 317.791C319.795 317.818 320.559 317.844 321.33 317.872C322.862 317.929 324.418 317.988 325.973 318.046C327.551 317.988 329.13 317.928 330.684 317.87C331.461 317.842 332.23 317.815 332.992 317.788C333.74 317.702 334.478 317.617 335.204 317.534C336.66 317.379 338.069 317.23 339.404 317.088C340.728 316.832 341.979 316.59 343.134 316.367C344.286 316.123 345.371 315.995 346.279 315.692C347.202 315.432 348.008 315.205 348.671 315.019C350.01 314.659 350.775 314.454 350.775 314.454C350.775 314.454 350.042 314.75 348.759 315.268C348.112 315.52 347.326 315.826 346.423 316.178C345.532 316.578 344.466 316.812 343.313 317.111C342.156 317.407 340.903 317.727 339.577 318.065C338.227 318.291 336.796 318.519 335.311 318.727C334.568 318.834 333.814 318.943 333.05 319.053C332.288 319.115 331.518 319.145 330.741 319.181C329.189 319.255 327.611 319.33 326.033 319.404C324.432 319.33 322.831 319.254 321.255 319.181C320.473 319.143 319.696 319.111 318.931 319.05C318.17 318.939 317.418 318.831 316.679 318.724C315.2 318.516 313.776 318.287 312.429 318.063C311.099 317.723 309.841 317.403 308.681 317.106C307.525 316.806 306.455 316.57 305.575 316.173C304.677 315.823 303.894 315.519 303.249 315.268C301.963 314.749 301.23 314.453 301.23 314.453Z" fill="#D8764A"/>
<path d="M413.991 222.908C412.443 246.291 414.286 259.6 399.918 279.945C402.991 247.385 395.925 225.137 365.486 211.189C352.244 205.302 337.236 205.085 323.016 201.836C326.523 209.123 331.948 215.567 338.623 219.768C323.247 221.1 306.065 219.943 291.477 214.533C293.896 219.537 296.833 224.295 300.505 228.115C285.29 228.1 270.228 226.346 256.81 219.197C252.976 242.592 249.573 258.497 252.357 281.744C236.37 259.992 229.444 239.425 227.621 213.092C217.032 199.769 209.254 184.013 213.224 167.686C216.623 152.052 232.937 143.215 246.531 137.777C267.712 128.043 296.139 121.681 321.22 123.176C316.449 119.764 311.406 116.679 306.375 114.503C331.703 111.159 353.006 112.261 373.098 129.703C372.378 123.843 370.815 118.174 368.069 113.483C383.241 120.158 391.738 129.132 398.605 144.902C408.718 143.283 419.377 145.54 429.219 149.551C424.475 151.876 420.069 154.947 416.235 158.592C427.506 162.166 438 168.68 439.577 181.281C441.93 196.819 427.002 210.401 413.991 222.908Z" fill="#352937"/>
</g>
</svg>
