<svg width="660" height="660" viewBox="0 0 660 660" fill="none" xmlns="http://www.w3.org/2000/svg">
<mask id="mask0_42_607" style="mask-type:alpha" maskUnits="userSpaceOnUse" x="0" y="0" width="660" height="660">
<circle cx="330" cy="330" r="330" fill="#D9D9D9"/>
</mask>
<g mask="url(#mask0_42_607)">
<path d="M528.348 371.652C556.875 262.107 491.197 150.179 381.652 121.652C272.107 93.1253 160.179 158.803 131.652 268.348C103.125 377.892 168.803 489.821 278.348 518.347C387.892 546.874 499.821 481.196 528.348 371.652Z" fill="#4FDAEF"/>
<path d="M334.565 562.277L335.34 562.311C335.285 562.332 335.776 562.298 335.968 562.294L337.544 562.223L343.842 561.946C348.129 561.95 351.984 561.154 355.923 560.589C359.887 560.224 363.641 558.774 367.438 557.848C369.378 557.446 371.071 556.495 372.86 555.799C374.607 555.011 376.434 554.395 378.081 553.499C381.232 551.475 384.634 549.882 387.27 547.41C388.615 546.228 390.153 545.256 391.318 543.941C392.491 542.637 393.66 541.351 394.804 540.081C398.936 534.676 402.221 528.91 403.658 523.035C404.744 520.203 404.853 517.261 405.456 514.571C405.682 511.83 405.875 509.199 405.854 506.735C405.703 501.791 404.982 497.516 404.132 494.059C403.621 492.354 403.164 490.833 402.762 489.513C402.343 488.197 401.777 487.158 401.425 486.274C401.391 486.194 401.366 486.144 401.333 486.069C397.385 484.237 393.417 482.436 389.466 480.604C385.368 498.329 361.496 516.687 331.145 517.512V522.855C336.773 523.949 341.039 528.902 341.039 534.843C341.039 541.581 335.558 547.067 328.816 547.067C322.078 547.067 316.593 541.581 316.593 534.843C316.593 528.742 321.101 523.714 326.955 522.809V517.483C309.44 516.871 290.236 508.725 278.557 496.699C273.567 491.558 270.504 486.249 269.481 481.12C265.995 482.746 262.488 484.33 258.989 485.939C258.951 486.048 258.926 486.127 258.888 486.24C258.272 488.105 257.187 490.871 256.563 494.311C255.683 497.701 255.134 502.063 255.067 506.978C255.188 509.438 255.025 512.078 255.649 514.772C255.867 516.13 256.089 517.517 256.315 518.941C256.747 520.312 257.179 521.715 257.627 523.148C257.849 523.865 258.067 524.59 258.293 525.319L259.295 527.406C259.986 528.801 260.627 530.251 261.377 531.671C263.275 534.278 264.868 537.24 267.399 539.604C271.882 544.812 278.067 548.893 284.755 552.367C288.212 553.939 291.677 555.64 295.499 556.671C297.38 557.241 299.232 557.949 301.168 558.422C303.125 558.837 305.09 559.248 307.06 559.667C314.958 561.297 323.213 561.988 331.472 562.152L334.565 562.277Z" fill="#FFB5B3"/>
<path d="M330.014 170.981L330.106 175.653C330.286 178.75 330.781 181.813 331.263 184.847C333.726 196.852 340.003 207.927 348.128 215.976C350.295 217.958 352.834 220.133 354.862 221.83C357.297 223.506 359.706 225.17 362.09 226.813C366.717 230.249 371.896 232.972 376.606 235.952C381.416 238.931 386.277 241.835 390.744 244.755C392.881 246.318 394.98 247.856 397.042 249.369C398.072 250.123 399.091 250.869 400.1 251.611C400.654 252.034 401.01 252.227 401.714 252.834L403.147 254.137C410.983 260.854 415.625 269.734 417.712 277.703C419.824 285.745 420.084 292.881 420.31 298.638C420.365 301.743 420.407 304.454 420.444 306.809C420.507 306.696 420.562 306.57 420.625 306.457C421.299 304.337 422.02 301.881 422.598 299.057C423.223 296.292 424.019 293.249 424.698 289.906C425.238 286.537 425.82 282.891 426.441 278.998C426.855 275.08 427.166 270.898 427.534 266.507C427.48 262.095 427.891 257.456 427.551 252.633C427.308 242.97 425.682 232.574 422.837 221.952C419.912 211.359 415.336 200.544 408.598 190.78L406.009 187.147C405.104 185.966 404.069 184.893 403.105 183.753C401.211 181.365 398.986 179.563 396.874 177.535C395.793 176.542 394.364 175.666 393.12 174.719L391.184 173.324L389.332 172.263L385.296 169.934L381.098 167.885C369.905 162.55 357.112 159.458 344.915 160.811C341.872 161.117 338.96 161.888 336.283 162.94C334.996 163.543 333.739 164.159 332.733 164.977C331.736 165.681 330.814 166.845 330.605 167.252C330.307 167.269 330.186 168.387 330.026 169.117L329.972 169.381L329.98 169.808L330.014 170.981Z" fill="#282833" stroke="#282833" stroke-width="0.5" stroke-miterlimit="10"/>
<path d="M252.946 493.3C253.067 492.764 253.21 492.303 253.348 491.812C250.184 496.183 246.296 502.33 242.499 510.111C238.422 518.538 234.655 528.938 232.82 540.369C231.919 546.072 231.546 552.052 232.25 557.927C232.912 563.789 234.777 569.546 238.179 574.059C239.834 576.351 241.934 578.262 244.318 579.737L244.993 580.181L246.07 580.684L248.223 581.69C249.64 582.276 251.119 583.223 252.472 583.5C255.229 584.158 257.798 585.193 260.777 585.352C262.223 585.507 263.648 585.754 265.077 585.842C266.522 585.83 267.96 585.821 269.38 585.809C272.229 585.956 275.029 585.281 277.782 585.101C280.518 584.686 283.191 584.082 285.789 583.538C290.943 582.168 295.766 580.592 300.112 578.807C308.811 575.258 315.8 571.558 320.543 568.746C321.055 568.449 321.52 568.168 321.985 567.891C316.546 567.447 311.132 566.743 305.84 565.608C303.761 565.151 301.691 564.694 299.634 564.237C297.589 563.722 295.607 562.955 293.608 562.327C289.569 561.187 285.819 559.335 282.106 557.596C280.204 556.833 278.532 555.61 276.801 554.566C275.121 553.439 273.302 552.559 271.81 551.222C268.751 548.658 265.705 546.219 263.334 543.202C260.627 540.499 258.875 537.164 256.88 534.201C256.076 532.601 255.393 530.971 254.672 529.399C254.32 528.612 253.977 527.828 253.633 527.053C253.398 526.24 253.172 525.431 252.946 524.631C252.502 523.034 252.057 521.476 251.634 519.946C251.429 518.375 251.224 516.845 251.027 515.353C250.49 512.374 250.763 509.516 250.754 506.856C251.048 501.559 251.823 496.992 252.946 493.3Z" fill="white"/>
<path d="M428.449 308.33C432.619 307.102 436.516 308.632 438.393 310.563C438.799 310.978 438.791 311.64 438.376 312.047C437.957 312.453 437.295 312.441 436.893 312.026C435.388 310.48 432.208 309.415 429.04 310.341C426.312 311.146 423.978 313.308 422.126 316.56C423.429 317.171 424.615 318.035 425.596 319.149C427.456 321.27 428.382 323.989 428.194 326.805C428.16 327.358 427.699 327.785 427.15 327.785C427.129 327.785 427.104 327.785 427.079 327.785C426.501 327.748 426.065 327.249 426.107 326.671C426.254 324.412 425.512 322.233 424.02 320.532C423.22 319.614 422.239 318.919 421.158 318.429C420.743 319.338 420.366 320.318 420.018 321.358C419.717 323.654 419.306 326.755 418.791 330.652C418.502 332.839 418.179 335.261 417.827 337.897C417.517 340.545 417.106 343.394 416.432 346.361C416.373 346.638 416.314 346.935 416.26 347.216C419.629 349.516 424.029 349.776 428.521 347.773C436.017 344.438 444.477 334.414 445.717 316.283C446.312 307.592 441.28 301.89 436.239 300.934C430.737 299.895 425.734 304.098 422.621 312.202C424.582 310.027 426.647 308.862 428.449 308.33Z" fill="#FFB5B3"/>
<path d="M320.783 534.84C320.783 539.269 324.387 542.873 328.816 542.873C333.245 542.873 336.848 539.269 336.848 534.84C336.848 530.411 333.245 526.808 328.816 526.808C324.387 526.808 320.783 530.411 320.783 534.84Z" fill="#F2A61C"/>
<path d="M409.809 459.258C409.252 456.182 408.9 453.077 408.439 449.989C407.986 446.897 407.839 443.788 407.525 440.691C407.207 437.59 407.219 434.481 407.073 431.38C406.913 428.275 406.947 425.178 406.955 422.078C406.918 415.88 407.182 409.691 407.529 403.527C407.873 397.355 408.326 391.199 408.979 385.069C409.444 380.485 410.006 375.93 410.559 371.371C410.379 371.803 410.207 372.234 409.997 372.649C408.866 375.167 407.655 377.644 406.297 380.045C404.969 382.459 403.54 384.818 402.011 387.106C400.511 389.414 398.847 391.619 397.171 393.802C395.667 395.704 394.095 397.556 392.474 399.375C392.436 399.421 392.398 399.463 392.361 399.509C392.185 399.706 392.029 399.919 391.849 400.116C391.589 400.401 391.321 400.674 391.062 400.954C389.7 402.505 388.3 404.039 386.838 405.547L386.469 422.509C386.343 425.556 386.507 428.585 386.528 431.623L386.624 440.729C386.72 443.754 386.947 446.767 387.097 449.784C387.206 452.813 387.491 455.809 387.877 458.776L388.38 463.243L389.18 467.597C389.402 469.076 389.771 470.459 390.161 471.812C390.366 472.47 390.504 473.245 390.768 473.79L391.103 474.641C400.071 478.722 409.021 482.82 417.963 486.943L417.703 486.432L414.318 477.557L411.732 468.472L409.809 459.258Z" fill="#282833" stroke="#282833" stroke-width="0.5" stroke-miterlimit="10"/>
<path d="M362.326 578.829C366.675 580.615 371.507 582.19 376.669 583.56C379.275 584.092 381.945 584.717 384.689 585.115C387.447 585.299 390.25 585.957 393.108 585.815C394.532 585.823 395.97 585.836 397.415 585.848C398.848 585.735 400.277 585.505 401.719 585.341C404.702 585.182 407.254 584.118 410.024 583.472C411.386 583.15 412.861 582.232 414.285 581.637L416.439 580.627L417.403 580.179V580.175L417.512 580.103L417.73 579.957L418.165 579.668C420.516 578.167 422.611 576.261 424.199 573.939C427.468 569.359 429.157 563.543 429.571 557.648C430.07 551.744 429.437 545.764 428.36 540.082C426.114 528.697 422.083 518.381 417.822 510.008C414.315 503.149 410.799 497.567 407.807 493.331C408.838 496.939 409.768 501.368 410.141 506.551C410.275 509.204 410.196 512.053 410.061 515.037C409.563 517.987 409.445 521.184 408.373 524.327C406.935 530.801 403.52 537.304 399.041 543.434C397.797 544.88 396.539 546.346 395.266 547.83C393.996 549.322 392.349 550.453 390.874 551.806C387.991 554.643 384.287 556.42 380.813 558.67C379.007 559.667 377.05 560.367 375.148 561.235C373.212 562.01 371.339 563.045 369.282 563.506C365.209 564.553 361.215 566.108 356.891 566.565C352.629 567.227 348.267 568.073 344.14 568.102L341.031 568.262C341.307 568.425 341.563 568.58 341.852 568.752C346.612 571.576 353.61 575.28 362.326 578.829Z" fill="white"/>
<path d="M238.292 386.398L239.457 395.332L240.182 404.311L240.903 413.295C241.209 416.287 241.251 419.296 241.335 422.296L241.825 440.335C241.708 446.353 241.364 452.366 241.125 458.383L240.71 467.405L239.629 476.384L238.133 488.762C248.362 484.011 258.603 479.263 268.877 474.603C268.986 474.339 269.108 474.042 269.217 473.765C269.481 473.195 269.69 472.559 269.87 471.871C270.227 470.518 270.742 469.261 270.972 467.828L271.836 463.629C272.175 462.25 272.255 460.771 272.468 459.351C272.812 456.468 273.306 453.618 273.411 450.685L273.985 441.94C274.073 439.011 274.056 436.07 274.103 433.136C274.094 430.199 274.233 427.266 274.115 424.324L273.596 407.877C267.377 401.806 261.967 395.311 257.471 388.673C255.024 385.019 252.749 381.386 250.867 377.665C249.845 375.88 249.024 373.936 248.202 372.046C247.306 370.148 246.681 368.325 246.124 366.553C244.603 361.411 243.681 356.597 242.814 352.101C242.613 352.189 242.424 352.298 242.219 352.373C241.582 352.624 240.953 352.897 240.27 353.048C239.596 353.207 238.95 353.45 238.255 353.529L236.172 353.768C235.476 353.814 234.76 353.71 234.06 353.68C233.549 353.693 233.055 353.55 232.56 353.429C233.679 358.449 234.76 363.527 235.59 368.594L237.098 377.473L238.292 386.398Z" fill="#282833" stroke="#282833" stroke-width="0.5" stroke-miterlimit="10"/>
<path d="M224.65 296.406C224.776 296.411 224.902 296.406 225.031 296.411C225.773 296.461 226.511 296.532 227.219 296.721C228.664 297.018 229.993 297.659 231.242 298.38C232.453 299.172 233.521 300.115 234.472 301.141C235.26 302.084 235.968 303.061 236.567 304.096C236.848 304.515 237.125 304.967 237.397 305.42C237.875 301.749 238.872 298.17 240.167 294.739C243.276 286.794 247.936 279.662 253.044 273.066C258.193 266.479 263.867 260.412 269.557 254.428L286.637 236.64C297.758 224.711 308.548 212.312 315.592 197.993C319.082 190.857 321.521 183.26 322.376 175.471C322.669 173.535 322.602 171.565 322.741 169.617L322.774 168.921L322.77 168.904L322.72 168.523C322.678 168.305 322.661 167.928 322.602 167.844C322.535 167.807 322.497 167.773 322.472 167.731C322.397 167.534 321.907 166.788 321.391 166.327C319.166 164.19 315.496 162.657 311.85 161.747C304.421 159.895 296.384 159.912 288.657 161.136C280.909 162.46 273.379 165.108 266.528 168.997C259.668 172.881 253.471 177.926 248.229 183.876C242.97 189.818 238.495 196.439 235.034 203.738C231.133 211.055 228.539 218.312 226.041 226.085C223.992 233.862 222.186 241.757 221.512 249.819C220.741 257.856 220.59 265.968 221.172 274.043C221.692 281.569 222.79 289.191 224.65 296.406Z" fill="#282833" stroke="#282833" stroke-width="0.5" stroke-miterlimit="10"/>
<path d="M241.792 347.027C241.734 346.763 241.683 346.478 241.625 346.214C240.942 343.193 240.539 340.364 240.233 337.749C239.89 335.135 239.576 332.73 239.286 330.559C238.926 327.814 238.616 325.485 238.356 323.523C237.849 321.638 237.237 319.945 236.542 318.424C235.461 318.914 234.484 319.614 233.68 320.532C232.188 322.233 231.446 324.412 231.593 326.67C231.635 327.249 231.195 327.743 230.621 327.785C230.596 327.785 230.571 327.785 230.55 327.785C230.001 327.785 229.54 327.358 229.506 326.804C229.318 323.989 230.244 321.269 232.104 319.149C233.085 318.03 234.271 317.167 235.578 316.559C233.726 313.308 231.392 311.145 228.664 310.345C225.505 309.415 222.312 310.483 220.803 312.03C220.405 312.444 219.743 312.457 219.324 312.05C218.909 311.644 218.901 310.982 219.307 310.567C221.184 308.631 225.106 307.106 229.259 308.334C231.631 309.033 234.447 310.777 236.877 314.594C236.823 314.393 236.785 314.188 236.735 313.991L236.63 314.024C233.638 304.521 228.153 299.563 221.951 300.724C216.672 301.721 211.383 307.517 211.983 316.287C213.227 334.414 221.683 344.437 229.18 347.777C233.822 349.843 238.385 349.537 241.792 347.027Z" fill="#FFB5B3"/>
<path d="M290.575 240.399C279.072 252.275 266.979 263.442 256.617 275.929C251.475 282.172 246.862 288.852 243.753 296.168C242.248 299.83 241.075 303.639 240.652 307.553C240.409 309.049 240.35 310.524 240.358 312.003C240.446 312.263 240.539 312.497 240.627 312.766L240.358 312.849C240.4 314.098 240.488 315.368 240.631 316.658C240.811 317.698 241.615 322.416 242.914 329.996C243.283 332.154 243.694 334.543 244.138 337.141C244.549 339.755 245.056 342.559 245.839 345.458C246.078 346.422 246.321 347.44 246.568 348.446C246.585 348.509 246.635 348.567 246.648 348.63L246.661 348.706L246.765 349.259C247.197 351.044 247.645 352.871 248.106 354.773C248.341 355.758 248.584 356.789 248.827 357.803C249.472 359.961 250.302 362.068 251.069 364.185C252.192 366.648 253.231 369.146 254.538 371.53C255.741 373.961 257.153 376.29 258.49 378.654C261.314 383.305 264.415 387.805 267.721 392.146C270.298 395.503 273.047 398.767 275.867 401.889C277.023 403.049 278.184 404.214 279.399 405.35C286.112 411.585 293.688 417.376 302.069 421.872C310.42 426.347 319.706 429.519 329.025 429.616C331.028 429.41 333.999 429.398 336.178 428.987C338.407 428.409 340.607 428.279 342.874 427.408C347.403 426.037 351.816 424.181 355.985 421.901C364.37 417.405 371.954 411.619 378.663 405.383C385.363 399.127 391.284 392.435 396.141 385.58C401.001 378.742 404.915 371.765 407.308 364.993C407.593 364.185 407.878 363.384 408.154 362.588C408.368 361.696 408.573 360.811 408.774 359.936C409.189 358.188 409.591 356.483 409.985 354.819C410.79 351.496 411.557 348.345 412.277 345.383C413.069 342.424 413.572 339.642 413.97 337.065C414.41 334.484 414.812 332.116 415.181 329.979C416.384 322.952 417.151 318.448 417.389 317.031C417.314 316.872 417.213 316.73 417.226 316.541C417.239 316.348 417.343 316.202 417.436 316.051C417.348 314.148 417.071 308.144 416.639 298.787C416.258 293.134 415.768 286.233 413.597 278.866C411.397 271.55 407.115 263.865 399.887 257.802L398.563 256.633C398.34 256.415 397.624 255.954 397.175 255.623C396.153 254.902 395.118 254.169 394.079 253.431C391.992 251.956 389.864 250.456 387.701 248.927C383.255 246.136 378.654 243.504 373.848 240.634C369 237.68 363.854 235.095 358.91 231.566C356.412 229.878 353.89 228.172 351.338 226.45C348.732 224.309 346.632 222.52 344.256 220.383C335.369 211.725 328.954 200.6 325.853 188.201C324.554 192.479 322.894 196.632 320.925 200.6C313.315 215.895 302.052 228.558 290.575 240.399ZM287.834 324.666C282.63 324.666 278.415 320.446 278.415 315.246C278.415 310.046 282.63 305.831 287.834 305.831C293.034 305.831 297.25 310.046 297.25 315.246C297.25 320.446 293.034 324.666 287.834 324.666ZM301.034 292.149C301.034 292.149 298.687 292.673 295.159 293.147C291.622 293.612 286.908 293.972 282.177 294.094C277.455 294.249 272.72 294.148 269.167 293.947C265.613 293.721 263.237 293.423 263.237 293.423C262.077 293.277 261.251 292.217 261.398 291.056C261.515 290.121 262.223 289.405 263.099 289.233C263.099 289.233 265.45 288.776 268.978 288.311C272.51 287.875 277.229 287.456 281.951 287.289C286.678 287.088 291.409 287.129 294.962 287.356C298.52 287.59 300.895 287.959 300.895 287.959C302.056 288.139 302.856 289.225 302.676 290.39C302.538 291.286 301.863 291.965 301.034 292.149ZM335.603 387.009C333.68 387.248 331.702 387.365 329.725 387.365C327.131 387.365 324.524 387.164 321.993 386.758C321.419 386.665 321.034 386.129 321.122 385.555C321.214 384.985 321.767 384.612 322.32 384.683C326.594 385.366 331.099 385.45 335.348 384.926C335.901 384.847 336.442 385.266 336.513 385.836C336.584 386.414 336.182 386.938 335.603 387.009ZM367.944 324.666C362.74 324.666 358.524 320.446 358.524 315.246C358.524 310.046 362.74 305.831 367.944 305.831C373.144 305.831 377.36 310.046 377.36 315.246C377.36 320.446 373.144 324.666 367.944 324.666ZM355.264 289.606C355.461 288.726 356.182 288.097 357.02 287.963C357.02 287.963 359.396 287.595 362.953 287.36C366.511 287.134 371.242 287.092 375.96 287.293C380.683 287.456 385.401 287.875 388.933 288.315C392.466 288.78 394.812 289.237 394.812 289.237C395.96 289.464 396.715 290.574 396.488 291.726C396.308 292.648 395.554 293.314 394.67 293.428C394.67 293.428 392.294 293.725 388.74 293.951C385.183 294.148 380.448 294.249 375.73 294.098C371.003 293.981 366.285 293.62 362.752 293.151C359.22 292.677 356.878 292.154 356.878 292.154C355.73 291.894 355.005 290.754 355.264 289.606ZM348.903 369.804C349.67 368.932 350.994 368.857 351.858 369.619C352.725 370.386 352.809 371.71 352.038 372.578C348.35 376.751 341.185 379.404 332.377 379.865C331.535 379.911 330.663 379.932 329.767 379.932C321.751 379.932 312.029 378.067 306.213 372.737C305.362 371.953 305.304 370.629 306.087 369.779C306.875 368.928 308.199 368.873 309.046 369.649C313.584 373.81 322.672 376.202 332.159 375.683C339.739 375.285 346 373.089 348.903 369.804ZM321.818 291.332V348.044C321.818 349.653 322.304 353.399 326.8 353.399H341.881C343.037 353.399 343.976 354.337 343.976 355.494C343.976 356.65 343.037 357.589 341.881 357.589H326.8C321.31 357.589 317.627 353.751 317.627 348.044V291.332C317.627 290.176 318.566 289.237 319.722 289.237C320.883 289.237 321.818 290.176 321.818 291.332Z" fill="#FFB5B3"/>
<path d="M279.92 442.153L279.392 451.158C279.3 454.158 278.814 457.171 278.47 460.176C278.253 461.68 278.181 463.184 277.829 464.693L276.933 469.214C276.694 470.714 276.124 472.239 275.726 473.752C275.529 474.502 275.282 475.269 274.938 476.057C274.611 476.845 274.397 477.549 273.786 478.596C273.689 478.772 273.501 478.839 273.367 478.977C273.903 483.65 276.756 488.825 281.563 493.773C292.969 505.514 312.051 513.405 329.047 513.405C359.167 513.405 383.625 494.398 385.763 477.658C385.457 477.004 385.327 476.522 385.054 475.898C384.686 475.043 384.568 474.293 384.325 473.488C383.877 471.904 383.479 470.325 383.253 468.77L382.427 464.089L381.933 459.434C381.555 456.329 381.287 453.232 381.195 450.144C381.057 447.052 380.852 443.959 380.768 440.875L380.747 431.631C380.793 428.552 380.692 425.463 380.881 422.396L381.375 410.818C374.717 416.94 367.267 422.656 358.861 427.244C354.415 429.712 349.651 431.774 344.652 433.32C342.255 434.259 339.41 434.569 336.795 435.189C334.063 435.654 331.993 435.637 329.022 435.901C318.228 435.746 308.096 432.063 299.187 427.236C291.9 423.251 285.342 418.42 279.376 413.215L279.929 424.19C280.071 427.169 279.954 430.173 279.979 433.165C279.958 436.165 279.991 439.157 279.92 442.153Z" fill="#FFB5B3"/>
<path d="M548.395 642.362C547.531 635.482 546.425 628.626 544.711 621.913C543.873 618.553 543.01 615.196 541.875 611.924C540.894 608.601 539.641 605.374 538.372 602.152C537.215 598.884 535.581 595.816 534.211 592.636C532.631 589.56 531.08 586.455 529.346 583.459C525.864 577.471 522.067 571.655 517.81 566.17C513.603 560.652 509.04 555.401 504.162 550.44C499.356 545.416 494.135 540.79 488.834 536.273C483.441 531.856 477.931 527.565 472.173 523.609C457.39 513.297 441.651 504.418 425.477 496.293C424.765 496.494 424.019 496.507 423.365 496.218C419.015 494.252 414.695 492.224 410.354 490.226C413.794 494.5 418.073 500.253 422.167 507.716C426.809 516.281 431.611 526.794 434.117 538.942C435.332 545.005 436.112 551.45 435.634 558.112C435.219 564.72 433.447 571.718 429.294 577.614C427.224 580.547 424.475 583.019 421.45 584.896L420.884 585.253L420.604 585.433L420.465 585.521L420.39 585.567L420.088 585.722L419.003 586.216L416.837 587.201C415.336 587.813 414.088 588.609 412.391 589.062C409.064 589.925 405.711 591.115 402.493 591.262C400.872 591.429 399.262 591.655 397.666 591.76C396.069 591.731 394.486 591.706 392.914 591.676C389.755 591.769 386.75 591.094 383.771 590.746C380.834 590.218 378.014 589.464 375.265 588.802C369.855 587.172 364.86 585.349 360.398 583.346C351.456 579.382 344.588 575.037 339.857 571.936C337.795 570.557 336.232 569.43 335.038 568.542L334.523 568.525L331.304 568.42C330.11 568.391 328.916 568.32 327.718 568.265C326.502 569.175 324.784 570.419 322.53 571.928C317.803 575.024 310.944 579.361 302.014 583.325C297.56 585.328 292.574 587.151 287.172 588.781C284.432 589.46 281.612 590.193 278.683 590.738C275.708 591.077 272.712 591.769 269.552 591.672C267.985 591.697 266.405 591.727 264.809 591.756C263.212 591.676 261.603 591.433 259.99 591.27C256.772 591.123 253.432 589.967 250.105 589.091C248.379 588.668 247.159 587.855 245.651 587.251L243.485 586.267L242.399 585.772C241.57 585.366 241.524 585.253 241.046 584.976C238.012 583.141 235.276 580.694 233.156 577.832C228.877 572.078 226.883 565.185 226.2 558.607C225.487 551.978 225.982 545.508 227.013 539.411C229.083 527.18 233.625 516.54 238.1 507.888C242.072 500.307 246.313 494.483 249.728 490.184C245.056 492.321 240.392 494.491 235.712 496.62C235.012 496.938 234.262 496.938 233.574 496.737C217.45 504.871 201.762 513.775 187.05 524.125C175.652 532.07 164.98 541.012 155.329 550.922C150.527 555.896 145.972 561.104 141.824 566.623C137.567 572.062 133.883 577.907 130.393 583.845C127.037 589.862 123.969 596.043 121.476 602.462C120.198 605.664 118.991 608.886 118.011 612.188C116.875 615.444 116.05 618.792 115.203 622.127C113.519 628.811 112.417 635.628 111.562 642.471C111.206 645.903 110.992 649.351 110.694 652.787L110.498 660.426L329.984 660.016L549.459 660.414L549.258 652.733C548.973 649.276 548.768 645.811 548.395 642.362Z" fill="#5265FF"/>
<path opacity="0.5" d="M276.216 432.769C276.216 432.769 300.817 471.014 327.5 471.014C354.184 471.014 382.066 429.593 382.066 429.593V406.882C382.066 406.882 361.873 432.774 329.994 432.774C298.126 432.774 276.182 407.024 276.182 407.024L276.216 432.769Z" fill="#A0A0A0"/>
<path opacity="0.3" d="M141.925 566.518C125.466 605.106 213.298 644.402 335.948 644.402C458.597 644.402 537.039 605.24 524.707 571.303C524.707 571.303 553.076 605.265 552.275 663.15H107.724C107.724 663.15 106.006 613.83 141.925 566.518Z" fill="#A0A0A0"/>
<path opacity="0.5" d="M230.533 526.808C226.213 558.608 227.533 602.312 262.467 602.312C297.402 602.312 327.727 568.27 327.727 568.27C327.727 568.27 291.644 594.644 255.063 590.445C218.486 586.247 229.314 541.394 230.533 526.808Z" fill="#A0A0A0"/>
<path opacity="0.5" d="M430.932 526.808C435.252 558.608 433.932 602.312 398.998 602.312C364.064 602.312 333.739 568.27 333.739 568.27C333.739 568.27 369.821 594.644 406.402 590.445C442.979 586.247 432.152 541.394 430.932 526.808Z" fill="#A0A0A0"/>
<path opacity="0.5" d="M327.726 182.452C317.447 200.982 304.512 222.876 272.879 257.513C241.247 292.145 235.967 293.369 243.338 332.489C250.709 371.61 261.528 390.164 272.217 401.26C272.217 401.26 248.697 347.403 250.348 317.023C252.004 286.643 268.765 271.454 291.811 247.36C314.858 223.265 326.662 200.479 327.726 182.452Z" fill="#A0A0A0"/>
<path opacity="0.5" d="M326.855 188.214C332.366 204.757 338.257 214.667 361.283 229.186C384.308 243.706 412.136 257.844 416.263 280.618C420.391 303.392 420.143 341.951 410.468 363.363C400.793 384.776 382.837 407.252 372.827 414.376C362.812 421.499 400.231 385.727 405.209 353.164C410.711 317.207 412.283 282.189 389.135 265.814C365.641 249.191 325.762 221.258 326.855 188.214Z" fill="#A0A0A0"/>
<path d="M385.393 404.62C385.38 418.716 385.355 432.796 385.904 446.825C386.206 453.822 386.566 460.862 387.572 467.676C387.823 469.373 388.154 471.049 388.586 472.603C388.804 473.362 389.064 474.15 389.365 474.665C389.495 474.979 389.671 475.109 389.688 475.151C389.436 475.021 389.96 475.314 390.371 475.465L400.063 479.702C425.863 491.087 451.557 503.377 474.922 519.652C480.797 523.658 486.433 528.011 491.956 532.503C497.399 537.1 502.754 541.818 507.72 546.956C512.74 552.026 517.458 557.415 521.816 563.088C526.224 568.724 530.171 574.716 533.792 580.897C535.602 583.989 537.215 587.191 538.862 590.371C540.299 593.656 541.992 596.828 543.207 600.206C544.536 603.533 545.839 606.872 546.874 610.309C548.055 613.694 548.965 617.16 549.849 620.633C551.642 627.572 552.816 634.65 553.733 641.744C554.131 645.297 554.358 648.867 554.68 652.429L554.999 663.148C555.045 664.61 553.893 665.834 552.43 665.876H552.367H552.271L329.993 666.278L107.719 665.863H107.636C106.173 665.859 104.996 664.677 105 663.219V663.144L105.314 652.488C105.629 648.943 105.867 645.394 106.249 641.857C107.158 634.796 108.319 627.761 110.091 620.855C110.98 617.407 111.851 613.95 113.033 610.581C114.059 607.166 115.321 603.835 116.657 600.528C119.26 593.891 122.461 587.501 125.956 581.295C129.584 575.169 133.414 569.147 137.823 563.558C142.113 557.884 146.823 552.546 151.776 547.454C161.724 537.322 172.669 528.229 184.297 520.184C207.473 503.901 233.022 491.648 258.654 480.272L268.295 476.052L269.502 475.524L270.106 475.26L270.256 475.193L270.332 475.159C270.634 474.992 270.005 475.348 270.093 475.294L270.361 475.105C270.625 474.954 270.6 474.883 270.537 474.891C270.508 474.874 270.512 474.95 270.608 474.745C270.755 474.481 270.906 474.2 271.036 473.831C271.572 472.44 271.933 470.772 272.238 469.121C273.37 462.404 273.751 455.398 274.074 448.442C274.652 434.493 274.619 420.493 274.606 406.472C274.606 405.605 275.31 404.901 276.177 404.901C277.036 404.901 277.74 405.597 277.749 406.456C277.912 420.464 278.101 434.505 277.673 448.572C277.422 455.616 277.129 462.639 276.014 469.771C275.691 471.564 275.356 473.349 274.656 475.239C274.505 475.704 274.262 476.203 273.982 476.71C273.852 477.104 272.792 478.281 272.565 478.344L272.297 478.537L271.916 478.746L271.84 478.78L271.689 478.847L271.086 479.115L269.892 479.651L260.317 483.963C234.874 495.537 209.812 508.103 187.063 524.11C175.665 532.055 164.992 540.997 155.342 550.907C150.54 555.881 145.985 561.089 141.837 566.608C137.58 572.047 133.896 577.893 130.406 583.83C127.049 589.847 123.982 596.028 121.489 602.448C120.211 605.649 119.004 608.871 118.023 612.173C116.888 615.429 116.062 618.777 115.216 622.113C113.531 628.796 112.429 635.614 111.575 642.456C111.218 645.888 111.005 649.337 110.707 652.773L110.439 663.131L107.724 660.416L329.997 660.001L552.275 660.403L549.547 663.131L549.275 652.718C548.977 649.261 548.772 645.796 548.399 642.347C547.536 635.467 546.43 628.612 544.716 621.899C543.878 618.538 543.015 615.182 541.879 611.909C540.898 608.586 539.646 605.36 538.376 602.137C537.219 598.869 535.585 595.802 534.215 592.621C532.635 589.546 531.085 586.441 529.35 583.445C525.868 577.457 522.071 571.641 517.814 566.156C513.607 560.637 509.044 555.387 504.166 550.425C499.36 545.401 494.139 540.775 488.838 536.258C483.445 531.841 477.935 527.55 472.178 523.595C449.236 507.592 424.01 495.017 398.408 483.414L388.774 479.077C388.381 478.876 388.07 478.859 387.14 478.151C386.533 477.598 386.143 477.012 385.912 476.53C385.355 475.499 385.104 474.585 384.836 473.655C384.341 471.816 384.018 470.018 383.771 468.229C382.799 461.08 382.527 454.015 382.296 446.938C381.898 432.796 382.083 418.679 382.25 404.591C382.259 403.719 382.971 403.024 383.838 403.036C384.701 403.057 385.393 403.761 385.393 404.62Z" fill="#282833"/>
<path d="M377.36 315.24C377.36 320.444 373.144 324.66 367.944 324.66C362.74 324.66 358.524 320.44 358.524 315.24C358.524 310.04 362.74 305.824 367.944 305.824C373.144 305.828 377.36 310.044 377.36 315.24Z" fill="#282833"/>
<path d="M297.249 315.24C297.249 320.444 293.034 324.66 287.833 324.66C282.629 324.66 278.414 320.44 278.414 315.24C278.414 310.04 282.629 305.824 287.833 305.824C293.034 305.828 297.249 310.044 297.249 315.24Z" fill="#282833"/>
<path d="M240.593 316.439C240.593 316.439 241.436 321.371 242.915 329.998C243.284 332.156 243.694 334.545 244.138 337.143C244.549 339.758 245.056 342.561 245.84 345.461C246.552 348.385 247.31 351.495 248.107 354.78C248.496 356.422 248.894 358.103 249.301 359.825C249.502 360.688 249.703 361.56 249.913 362.44C250.089 363.081 250.499 364.116 250.784 364.95C251.388 366.747 252.054 368.528 252.883 370.141C253.659 371.813 254.413 373.523 255.44 375.228C257.283 378.694 259.534 382.113 261.939 385.545C266.799 392.396 272.708 399.096 279.404 405.361C286.117 411.596 293.693 417.387 302.073 421.883C310.425 426.358 319.71 429.53 329.029 429.627C331.032 429.421 334.003 429.409 336.182 428.998C338.411 428.42 340.611 428.29 342.878 427.418C347.408 426.048 351.82 424.192 355.99 421.912C364.374 417.416 371.959 411.629 378.667 405.394C385.368 399.138 391.289 392.446 396.145 385.591C401.006 378.752 404.92 371.776 407.312 365.004C407.597 364.195 407.882 363.395 408.159 362.599C408.372 361.706 408.578 360.822 408.779 359.946C409.194 358.199 409.596 356.494 409.99 354.83C410.794 351.507 411.561 348.356 412.282 345.394C413.074 342.435 413.577 339.653 413.975 337.076C414.415 334.495 414.817 332.127 415.186 329.99C416.652 321.417 417.486 316.518 417.486 316.518L417.499 316.447C417.645 315.592 418.458 315.018 419.313 315.161C420.147 315.303 420.713 316.083 420.608 316.916C420.608 316.916 419.95 321.907 418.794 330.648C418.504 332.835 418.182 335.257 417.83 337.893C417.52 340.541 417.109 343.391 416.434 346.357C415.827 349.345 415.186 352.525 414.507 355.878C414.159 357.554 413.799 359.272 413.434 361.027C413.25 361.907 413.061 362.796 412.873 363.693C412.563 364.836 412.261 365.582 411.951 366.567C409.491 374.005 405.515 381.413 400.583 388.688C395.638 395.958 389.675 403.102 382.673 409.66C375.701 416.226 367.802 422.365 358.86 427.247C354.414 429.715 349.65 431.776 344.651 433.322C342.254 434.261 339.409 434.571 336.794 435.191C334.062 435.656 331.992 435.64 329.021 435.904C318.227 435.749 308.095 432.065 299.186 427.238C290.244 422.348 282.345 416.209 275.377 409.639C268.379 403.077 262.4 395.945 257.476 388.662C255.029 385.008 252.754 381.376 250.872 377.655C249.85 375.869 249.028 373.925 248.207 372.035C247.31 370.137 246.686 368.314 246.129 366.542C243.92 359.087 242.969 352.257 241.62 346.206C240.937 343.185 240.535 340.357 240.229 337.742C239.885 335.127 239.571 332.722 239.282 330.552C238.138 321.869 237.48 316.912 237.48 316.912C237.367 316.049 237.966 315.257 238.825 315.144C239.672 315.031 240.447 315.613 240.593 316.439Z" fill="#282833"/>
<path d="M419.825 313.77C427.652 288.9 449.056 298.391 447.816 316.43C445.805 345.712 425.117 356.946 414.369 348.528" stroke="#282833" stroke-miterlimit="10"/>
<path d="M437.647 311.299C433.976 307.528 421.749 305.78 417.655 326.12" stroke="#282833" stroke-width="0.5" stroke-miterlimit="10" stroke-linecap="round"/>
<path d="M418.279 316.618C423.525 316.962 427.498 321.491 427.154 326.738" stroke="#282833" stroke-width="0.5" stroke-miterlimit="10" stroke-linecap="round" stroke-linejoin="round"/>
<path d="M238.628 313.398C230.805 288.528 208.659 298.388 209.895 316.432C211.906 345.713 232.594 356.947 243.342 348.529" stroke="#282833" stroke-miterlimit="10"/>
<path d="M220.057 311.299C223.732 307.528 235.963 305.78 240.049 326.12" stroke="#282833" stroke-width="0.5" stroke-miterlimit="10" stroke-linecap="round"/>
<path d="M239.428 316.618C234.182 316.962 230.21 321.491 230.553 326.738" stroke="#282833" stroke-width="0.5" stroke-miterlimit="10" stroke-linecap="round" stroke-linejoin="round"/>
<path d="M385.393 404.62C385.38 418.716 385.355 432.796 385.904 446.825C386.206 453.822 386.566 460.862 387.572 467.676C387.823 469.373 388.154 471.049 388.586 472.603C388.804 473.362 389.064 474.15 389.365 474.665C389.495 474.979 389.671 475.109 389.688 475.151C389.436 475.021 389.96 475.314 390.371 475.465L400.063 479.702C425.863 491.087 451.557 503.377 474.922 519.652C480.797 523.658 486.433 528.011 491.956 532.503C497.399 537.1 502.754 541.818 507.72 546.956C512.74 552.026 517.458 557.415 521.816 563.088C526.224 568.724 530.171 574.716 533.792 580.897C535.602 583.989 537.215 587.191 538.862 590.371C540.299 593.656 541.992 596.828 543.207 600.206C544.536 603.533 545.839 606.872 546.874 610.309C548.055 613.694 548.965 617.16 549.849 620.633C551.642 627.572 552.816 634.65 553.733 641.744C554.131 645.297 554.358 648.867 554.68 652.429L554.999 663.148C555.045 664.61 553.893 665.834 552.43 665.876H552.367H552.271L329.993 666.278L107.719 665.863H107.636C106.173 665.859 104.996 664.677 105 663.219V663.144L105.314 652.488C105.629 648.943 105.867 645.394 106.249 641.857C107.158 634.796 108.319 627.761 110.091 620.855C110.98 617.407 111.851 613.95 113.033 610.581C114.059 607.166 115.321 603.835 116.657 600.528C119.26 593.891 122.461 587.501 125.956 581.295C129.584 575.169 133.414 569.147 137.823 563.558C142.113 557.884 146.823 552.546 151.776 547.454C161.724 537.322 172.669 528.229 184.297 520.184C207.473 503.901 233.022 491.648 258.654 480.272L268.295 476.052L269.502 475.524L270.106 475.26L270.256 475.193L270.332 475.159C270.634 474.992 270.005 475.348 270.093 475.294L270.361 475.105C270.625 474.954 270.6 474.883 270.537 474.891C270.508 474.874 270.512 474.95 270.608 474.745C270.755 474.481 270.906 474.2 271.036 473.831C271.572 472.44 271.933 470.772 272.238 469.121C273.37 462.404 273.751 455.398 274.074 448.442C274.652 434.493 274.619 420.493 274.606 406.472C274.606 405.605 275.31 404.901 276.177 404.901C277.036 404.901 277.74 405.597 277.749 406.456C277.912 420.464 278.101 434.505 277.673 448.572C277.422 455.616 277.129 462.639 276.014 469.771C275.691 471.564 275.356 473.349 274.656 475.239C274.505 475.704 274.262 476.203 273.982 476.71C273.852 477.104 272.792 478.281 272.565 478.344L272.297 478.537L271.916 478.746L271.84 478.78L271.689 478.847L271.086 479.115L269.892 479.651L260.317 483.963C234.874 495.537 209.812 508.103 187.063 524.11C175.665 532.055 164.992 540.997 155.342 550.907C150.54 555.881 145.985 561.089 141.837 566.608C137.58 572.047 133.896 577.893 130.406 583.83C127.049 589.847 123.982 596.028 121.489 602.448C120.211 605.649 119.004 608.871 118.023 612.173C116.888 615.429 116.062 618.777 115.216 622.113C113.531 628.796 112.429 635.614 111.575 642.456C111.218 645.888 111.005 649.337 110.707 652.773L110.439 663.131L107.724 660.416L329.997 660.001L552.275 660.403L549.547 663.131L549.275 652.718C548.977 649.261 548.772 645.796 548.399 642.347C547.536 635.467 546.43 628.612 544.716 621.899C543.878 618.538 543.015 615.182 541.879 611.909C540.898 608.586 539.646 605.36 538.376 602.137C537.219 598.869 535.585 595.802 534.215 592.621C532.635 589.546 531.085 586.441 529.35 583.445C525.868 577.457 522.071 571.641 517.814 566.156C513.607 560.637 509.044 555.387 504.166 550.425C499.36 545.401 494.139 540.775 488.838 536.258C483.445 531.841 477.935 527.55 472.178 523.595C449.236 507.592 424.01 495.017 398.408 483.414L388.774 479.077C388.381 478.876 388.07 478.859 387.14 478.151C386.533 477.598 386.143 477.012 385.912 476.53C385.355 475.499 385.104 474.585 384.836 473.655C384.341 471.816 384.018 470.018 383.771 468.229C382.799 461.08 382.527 454.015 382.296 446.938C381.898 432.796 382.083 418.679 382.25 404.591C382.259 403.719 382.971 403.024 383.838 403.036C384.701 403.057 385.393 403.761 385.393 404.62Z" fill="#282833"/>
<path d="M319.723 291.33C319.723 291.33 319.723 343.956 319.723 348.041C319.723 352.127 322.07 355.492 326.801 355.492C331.536 355.492 341.882 355.492 341.882 355.492" stroke="#282833" stroke-miterlimit="10" stroke-linecap="round" stroke-linejoin="round"/>
<path d="M307.625 371.19C317.292 380.053 342.627 380.053 350.471 371.19" stroke="#282833" stroke-miterlimit="10" stroke-linecap="round" stroke-linejoin="round"/>
<path d="M322.158 385.722C326.516 386.417 331.159 386.501 335.479 385.969" stroke="#282833" stroke-width="0.5" stroke-miterlimit="10" stroke-linecap="round" stroke-linejoin="round"/>
<path d="M357.017 287.964C357.017 287.964 359.393 287.595 362.951 287.36C366.508 287.134 371.239 287.092 375.957 287.293C380.68 287.457 385.398 287.876 388.93 288.316C392.463 288.781 394.809 289.238 394.809 289.238C395.957 289.464 396.712 290.574 396.485 291.727C396.305 292.649 395.551 293.315 394.667 293.428C394.667 293.428 392.291 293.726 388.738 293.952C385.18 294.149 380.445 294.249 375.727 294.098C371 293.981 366.282 293.621 362.749 293.151C359.217 292.678 356.875 292.154 356.875 292.154C355.727 291.899 355.002 290.759 355.257 289.611C355.463 288.726 356.179 288.098 357.017 287.964Z" fill="#282833"/>
<path d="M301.033 292.15C301.033 292.15 298.687 292.674 295.159 293.148C291.622 293.613 286.908 293.973 282.177 294.095C277.455 294.25 272.72 294.149 269.166 293.948C265.613 293.722 263.237 293.424 263.237 293.424C262.076 293.277 261.251 292.217 261.397 291.057C261.515 290.122 262.223 289.406 263.099 289.234C263.099 289.234 265.449 288.777 268.978 288.312C272.51 287.876 277.228 287.457 281.951 287.29C286.677 287.088 291.408 287.13 294.962 287.357C298.519 287.591 300.895 287.96 300.895 287.96C302.056 288.14 302.856 289.225 302.676 290.39C302.538 291.287 301.863 291.966 301.033 292.15Z" fill="#282833"/>
<path d="M237.875 319.863C237.619 317.788 237.079 315.899 237.058 313.669L236.945 310.384C236.961 309.299 237.104 308.243 237.179 307.17C237.523 302.884 238.667 298.71 240.171 294.734C243.28 286.789 247.94 279.657 253.048 273.061C258.198 266.474 263.871 260.407 269.562 254.423L286.641 236.635C297.762 224.706 308.552 212.307 315.596 197.988C319.087 190.852 321.526 183.255 322.38 175.466C322.674 173.53 322.607 171.56 322.745 169.612L322.778 168.878L322.783 168.786C322.783 168.669 322.829 169.482 322.803 169.092L322.774 168.904L322.724 168.522C322.682 168.304 322.665 167.927 322.607 167.843C322.54 167.806 322.502 167.772 322.477 167.73C322.401 167.533 321.911 166.788 321.396 166.327C319.171 164.19 315.5 162.656 311.854 161.747C304.425 159.895 296.388 159.911 288.661 161.135C280.913 162.459 273.383 165.107 266.532 168.996C259.673 172.88 253.475 177.925 248.233 183.875C242.974 189.817 238.499 196.438 235.038 203.737C231.137 211.054 228.543 218.311 226.046 226.084C223.997 233.861 222.191 241.756 221.516 249.818C220.745 257.855 220.594 265.967 221.177 274.042C221.734 282.079 222.915 290.242 225.015 297.88L222.664 296.552C223.619 296.385 224.269 296.385 225.036 296.414C225.777 296.464 226.515 296.535 227.223 296.724C228.669 297.021 229.997 297.663 231.246 298.383C232.457 299.175 233.525 300.118 234.476 301.145C235.369 302.213 236.19 303.319 236.831 304.514C237.556 305.666 237.975 306.927 238.533 308.134C238.918 309.383 239.392 310.619 239.681 311.88C239.945 313.146 240.288 314.403 240.477 315.668L240.997 319.469L237.875 319.863ZM237.871 319.821L237.271 316.242C237.062 315.052 236.706 313.912 236.438 312.748C235.776 310.464 234.933 308.247 233.739 306.311C233.169 305.314 232.474 304.451 231.753 303.617C230.982 302.842 230.165 302.163 229.268 301.61C228.346 301.132 227.403 300.688 226.393 300.52C225.899 300.395 225.388 300.369 224.889 300.349C224.42 300.328 223.816 300.386 223.552 300.441L223.456 300.462C222.463 300.654 221.495 300.055 221.202 299.112C218.704 290.946 217.313 282.766 216.479 274.419C215.733 266.089 215.759 257.696 216.421 249.344C216.99 240.972 218.721 232.73 220.737 224.584C222.086 220.595 223.037 216.522 224.726 212.596C226.284 208.623 227.873 204.651 229.83 201.089C233.387 193.501 238.151 186.306 243.766 179.911C249.373 173.484 256.065 167.965 263.511 163.695C270.949 159.425 279.145 156.484 287.613 154.992C296.095 153.588 304.861 153.538 313.413 155.729C317.658 156.894 321.965 158.42 325.737 161.981C326.68 162.958 327.492 163.871 328.205 165.56C328.372 165.996 328.523 166.44 328.653 166.88C328.754 167.278 328.741 167.429 328.787 167.718L328.838 168.099L328.863 168.292L328.896 168.786L328.892 168.887L328.854 169.696C328.699 171.845 328.749 174.016 328.418 176.149C327.43 184.726 324.702 193.002 320.93 200.607C313.317 215.889 302.053 228.552 290.576 240.394C279.074 252.269 266.981 263.436 256.618 275.923C251.477 282.167 246.863 288.846 243.754 296.162C242.25 299.825 241.076 303.634 240.653 307.547C240.024 311.465 240.389 315.216 240.984 319.41C241.106 320.269 240.511 321.065 239.652 321.187C238.805 321.304 238.022 320.73 237.883 319.892L237.871 319.821Z" fill="#282833"/>
<path d="M417.473 316.777C417.473 316.777 417.171 310.24 416.643 298.8C416.261 293.148 415.771 286.246 413.601 278.88C411.401 271.563 407.118 263.878 399.89 257.815L398.566 256.646C398.344 256.428 397.627 255.967 397.179 255.636C396.156 254.915 395.122 254.182 394.082 253.445C391.996 251.97 389.867 250.47 387.705 248.94C383.259 246.149 378.658 243.518 373.852 240.648C369.004 237.693 363.858 235.108 358.913 231.58C356.416 229.891 353.893 228.186 351.341 226.463C348.735 224.322 346.636 222.533 344.26 220.396C334.861 211.236 328.173 199.34 325.311 186.073C324.75 182.763 324.197 179.407 323.987 176.038L323.853 170.963L323.82 169.694L323.807 169.057C323.908 168.022 323.853 168.684 323.882 168.416L323.912 168.265L323.97 167.963C324.176 167.117 324.096 166.534 324.779 165.193C325.32 164.003 325.99 162.821 326.698 162.185C327.406 161.435 328.094 160.588 328.907 160.089C330.461 158.837 332.129 157.998 333.813 157.211C337.203 155.84 340.681 154.923 344.159 154.579C358.096 153.129 371.74 156.666 383.69 162.398L388.149 164.607L392.423 167.1L394.702 168.457L396.63 169.865C397.908 170.846 399.203 171.638 400.46 172.765C402.941 175.078 405.555 177.316 407.537 179.838C408.581 181.079 409.7 182.264 410.663 183.538L413.425 187.452C420.64 197.932 425.178 209.43 428.07 220.534C430.865 231.676 432.356 242.487 432.448 252.477C432.7 257.467 432.26 262.248 432.168 266.787C431.661 271.304 431.217 275.586 430.676 279.588C429.922 283.556 429.214 287.269 428.564 290.705C427.772 294.103 426.871 297.183 426.151 299.986C424.822 305.626 422.974 309.812 422.073 312.771C421.064 315.695 420.523 317.254 420.523 317.254C420.242 318.071 419.354 318.507 418.533 318.222C417.912 318.009 417.51 317.439 417.481 316.818L417.473 316.777ZM417.573 316.177C417.573 316.177 418.055 314.627 418.964 311.719C419.76 308.782 421.466 304.625 422.601 299.056C423.226 296.29 424.022 293.248 424.701 289.904C425.241 286.535 425.824 282.89 426.444 278.997C426.859 275.079 427.169 270.897 427.537 266.506C427.483 262.093 427.894 257.455 427.554 252.632C427.311 242.969 425.685 232.573 422.84 221.951C419.915 211.357 415.34 200.542 408.602 190.779L406.012 187.146C405.107 185.964 404.072 184.892 403.108 183.752C401.214 181.363 398.989 179.562 396.877 177.534C395.796 176.54 394.367 175.665 393.123 174.718L391.187 173.322L389.335 172.262L385.299 169.932L381.101 167.883C369.909 162.549 357.116 159.457 344.918 160.81C341.876 161.116 338.963 161.887 336.286 162.939C334.999 163.542 333.742 164.158 332.737 164.975C331.739 165.679 330.817 166.844 330.608 167.251C330.31 167.267 330.189 168.386 330.03 169.115L329.967 169.417L329.937 169.568C329.954 169.396 329.854 170.159 329.971 169.228L329.983 169.811L330.013 170.98L330.105 175.652C330.285 178.749 330.78 181.812 331.262 184.846C333.726 196.851 340.003 207.926 348.127 215.975C350.294 217.957 352.833 220.132 354.861 221.829C357.296 223.505 359.705 225.169 362.09 226.811C366.716 230.247 371.895 232.971 376.605 235.95C381.415 238.93 386.276 241.833 390.743 244.754C392.88 246.317 394.979 247.855 397.041 249.368C398.071 250.122 399.09 250.868 400.099 251.609C400.653 252.033 401.009 252.225 401.713 252.833L403.146 254.136C410.982 260.853 415.625 269.732 417.711 277.702C419.823 285.743 420.083 292.879 420.309 298.637C420.502 310.106 420.611 316.663 420.611 316.663L417.573 316.177Z" fill="#282833"/>
<path d="M232.566 353.423C233.685 358.443 234.766 363.522 235.596 368.588L237.104 377.467L238.294 386.392L239.459 395.326L240.184 404.306L240.905 413.29C241.211 416.282 241.253 419.29 241.336 422.29L241.827 440.33C241.709 446.347 241.366 452.36 241.127 458.377L240.712 467.399L239.631 476.379L237.46 494.342L233.161 491.049C245.384 485.367 257.607 479.693 269.889 474.133L268.577 475.281C268.711 475.042 268.992 474.342 269.223 473.76C269.487 473.19 269.696 472.553 269.877 471.866C270.233 470.512 270.748 469.255 270.979 467.822L271.842 463.623C272.181 462.245 272.261 460.766 272.474 459.345C272.818 456.462 273.312 453.613 273.417 450.68L273.991 441.934C274.079 439.005 274.063 436.064 274.109 433.131C274.1 430.193 274.239 427.26 274.121 424.319L273.56 406.652L274.327 408.391C270.421 404.147 266.956 399.797 263.604 395.246C260.281 390.7 257.18 385.99 254.347 381.104C252.998 378.619 251.586 376.172 250.429 373.578C249.155 371.048 248.154 368.382 247.077 365.759C246.193 363.052 245.179 360.396 244.575 357.588C244.253 356.197 243.821 354.835 243.654 353.402L243 349.153L245.933 350.406C245.267 350.85 244.726 351.19 244.098 351.5C243.482 351.814 242.874 352.124 242.229 352.359C241.592 352.61 240.963 352.883 240.28 353.034C239.606 353.193 238.961 353.436 238.265 353.515L236.182 353.754C235.487 353.8 234.77 353.696 234.07 353.666C233.559 353.687 233.061 353.545 232.566 353.423ZM231.12 349.79C232.21 349.954 233.207 350.507 234.33 350.402C234.883 350.398 235.428 350.477 235.973 350.419L237.628 350.163C238.177 350.088 238.709 349.849 239.254 349.711C239.799 349.577 240.314 349.321 240.838 349.095C241.869 348.667 242.916 348.026 243.729 347.456C244.575 346.861 245.749 347.071 246.344 347.917C246.499 348.139 246.604 348.382 246.65 348.63L246.662 348.705L247.425 352.652C247.622 353.976 248.079 355.259 248.431 356.553C249.084 359.16 250.153 361.661 251.075 364.192C252.198 366.656 253.237 369.154 254.544 371.538C255.747 373.968 257.159 376.298 258.496 378.661C261.32 383.312 264.421 387.813 267.727 392.154C271.037 396.466 274.586 400.723 278.274 404.57L278.307 404.603C278.764 405.081 279.011 405.693 279.041 406.309L279.937 424.193C280.08 427.172 279.962 430.177 279.988 433.168C279.962 436.16 279.996 439.152 279.925 442.148L279.397 451.153C279.305 454.153 278.818 457.166 278.475 460.171C278.257 461.675 278.186 463.179 277.834 464.688L276.937 469.209C276.698 470.709 276.128 472.234 275.73 473.747C275.533 474.497 275.286 475.264 274.942 476.052C274.616 476.84 274.402 477.543 273.79 478.591C273.505 479.09 273.078 479.458 272.596 479.685L272.479 479.739C260.268 485.446 248.003 491.032 235.734 496.613C234.192 497.317 232.369 496.63 231.669 495.092C231.426 494.556 231.351 493.99 231.414 493.446L231.431 493.324L233.672 475.712L234.8 466.904L235.265 458.029L236.153 440.267L236.036 422.462C236.015 419.496 236.04 416.525 235.797 413.558L235.265 404.666L234.732 395.766L233.874 386.891L233.019 378.012L231.85 369.17C231.1 363.245 230.123 357.454 229.004 351.575C228.841 350.725 229.402 349.903 230.253 349.74C230.429 349.706 230.601 349.702 230.773 349.727L231.12 349.79Z" fill="#282833"/>
<path d="M416.447 348.738C415.509 360.999 414.268 373.239 413.501 385.445C413.137 391.55 412.714 397.651 412.538 403.752C412.324 409.849 412.198 415.955 412.362 422.035C412.421 425.077 412.45 428.119 412.672 431.149C412.881 434.178 412.94 437.22 413.305 440.225C413.631 443.233 413.791 446.267 414.256 449.251C414.725 452.23 415.085 455.234 415.643 458.193L417.549 467.009L420.068 475.628L423.307 483.946L427.342 491.845L427.409 491.979C428.184 493.504 427.585 495.369 426.06 496.148C425.192 496.592 424.204 496.58 423.374 496.215C411.394 490.806 399.481 485.241 387.547 479.718L387.396 479.647C386.927 479.429 386.554 479.085 386.302 478.67C385.523 477.384 385.448 476.797 385.054 475.897C384.685 475.042 384.568 474.292 384.325 473.487C383.876 471.903 383.478 470.323 383.252 468.769L382.426 464.088L381.932 459.433C381.555 456.328 381.287 453.231 381.194 450.143C381.056 447.051 380.851 443.958 380.767 440.874L380.746 431.63C380.792 428.551 380.692 425.462 380.88 422.395L381.672 403.975C381.706 403.254 382.028 402.617 382.531 402.173L382.569 402.139C384.434 400.488 386.369 398.603 388.155 396.696C389.973 394.785 391.7 392.791 393.38 390.754C395.039 388.701 396.644 386.606 398.173 384.456C399.72 382.319 401.174 380.111 402.527 377.852C403.914 375.602 405.159 373.285 406.324 370.922C406.965 369.765 407.421 368.529 407.966 367.331C408.482 366.12 409.06 364.93 409.454 363.672C410.371 361.204 411.197 358.711 411.8 356.147C412.588 353.624 412.802 350.993 413.321 348.411L413.346 348.298C413.518 347.448 414.344 346.899 415.194 347.071C415.982 347.238 416.51 347.959 416.447 348.738ZM416.447 348.755C416.011 351.475 415.873 354.265 415.153 356.939C414.62 359.658 413.858 362.306 412.986 364.934C412.613 366.27 412.06 367.536 411.57 368.822C411.05 370.1 410.61 371.42 409.99 372.648C408.859 375.166 407.648 377.643 406.29 380.044C404.962 382.457 403.533 384.817 402.003 387.104C400.503 389.413 398.84 391.617 397.164 393.801C395.458 395.959 393.698 398.075 391.838 400.115C389.981 402.181 388.096 404.113 385.963 406.078L386.86 404.243L386.462 422.508C386.336 425.554 386.499 428.584 386.52 431.622L386.617 440.728C386.713 443.753 386.939 446.766 387.09 449.783C387.199 452.812 387.484 455.808 387.87 458.775L388.372 463.242L389.173 467.596C389.395 469.075 389.764 470.458 390.153 471.811C390.359 472.469 390.497 473.244 390.761 473.789L391.331 475.222L390.09 474.178C402.054 479.63 414.038 485.035 425.951 490.6L421.987 494.966L417.704 486.431L414.319 477.556L411.733 468.471L409.81 459.265C409.253 456.19 408.901 453.085 408.44 449.996C407.987 446.904 407.84 443.795 407.526 440.698C407.208 437.597 407.22 434.488 407.074 431.387C406.914 428.282 406.948 425.186 406.956 422.085C406.919 415.887 407.183 409.698 407.53 403.535C407.874 397.362 408.327 391.207 408.98 385.076C410.225 372.795 411.922 360.643 413.326 348.449L416.447 348.755Z" fill="#282833"/>
<path d="M259.859 483.371C259.859 483.371 259.524 484.369 258.887 486.238C258.271 488.102 257.186 490.868 256.561 494.308C255.682 497.698 255.133 502.06 255.065 506.975C255.187 509.435 255.024 512.075 255.648 514.769C255.866 516.127 256.088 517.514 256.314 518.939C256.746 520.309 257.177 521.713 257.626 523.146C257.848 523.862 258.066 524.587 258.292 525.316L259.293 527.403C259.985 528.798 260.626 530.248 261.376 531.669C263.274 534.275 264.867 537.238 267.398 539.601C271.881 544.809 278.066 548.891 284.754 552.364C288.211 553.936 291.676 555.637 295.498 556.668C297.379 557.238 299.231 557.946 301.167 558.419C303.124 558.834 305.089 559.245 307.059 559.664C314.957 561.294 323.212 561.985 331.471 562.149L334.568 562.279L335.343 562.312C335.289 562.333 335.779 562.3 335.972 562.295L337.547 562.224L343.845 561.948C348.132 561.952 351.987 561.156 355.926 560.59C359.89 560.225 363.644 558.776 367.441 557.85C369.381 557.447 371.073 556.496 372.863 555.8C374.61 555.013 376.437 554.397 378.084 553.5C381.235 551.476 384.637 549.884 387.273 547.412C388.618 546.23 390.156 545.258 391.321 543.942C392.494 542.639 393.663 541.352 394.807 540.083C398.939 534.677 402.224 528.911 403.661 523.037C404.747 520.204 404.856 517.263 405.459 514.572C405.685 511.832 405.878 509.2 405.857 506.736C405.706 501.792 404.985 497.518 404.135 494.061C403.624 492.355 403.167 490.834 402.765 489.514C402.346 488.199 401.78 487.16 401.428 486.275C400.665 484.524 400.263 483.589 400.263 483.589L400.179 483.401C399.831 482.609 400.196 481.683 400.988 481.339C401.755 481.008 402.639 481.335 403.008 482.068C403.008 482.068 403.498 483.036 404.42 484.859C404.851 485.781 405.513 486.87 406.046 488.249C406.54 489.644 407.11 491.249 407.743 493.043C408.807 496.701 409.771 501.243 410.152 506.561C410.286 509.213 410.207 512.062 410.072 515.046C409.574 517.996 409.457 521.193 408.384 524.336C406.947 530.81 403.531 537.313 399.052 543.443C397.807 544.889 396.55 546.356 395.277 547.839C394.007 549.331 392.36 550.462 390.885 551.816C388.002 554.652 384.298 556.429 380.824 558.679C379.018 559.677 377.061 560.376 375.159 561.244C373.223 562.019 371.35 563.054 369.293 563.515C365.22 564.562 361.226 566.117 356.902 566.574C352.64 567.236 348.278 568.082 344.151 568.112L337.857 568.438L336.282 568.522C335.951 568.535 335.913 568.56 335.335 568.556L334.534 568.531L331.316 568.426C322.755 568.216 314.153 567.403 305.839 565.623C303.761 565.166 301.691 564.709 299.633 564.252C297.589 563.737 295.606 562.97 293.608 562.342C289.568 561.202 285.818 559.35 282.105 557.611C280.203 556.848 278.531 555.624 276.801 554.581C275.12 553.454 273.302 552.574 271.81 551.237C268.751 548.673 265.705 546.234 263.333 543.217C260.626 540.514 258.874 537.179 256.88 534.216C256.075 532.616 255.392 530.986 254.672 529.414C254.32 528.627 253.976 527.843 253.632 527.068C253.398 526.255 253.172 525.446 252.945 524.646C252.501 523.049 252.057 521.49 251.634 519.961C251.428 518.39 251.223 516.86 251.026 515.369C250.49 512.389 250.762 509.531 250.754 506.871C251.055 501.557 251.831 496.994 252.949 493.302C253.821 489.502 255.074 486.942 255.786 485.09C256.528 483.258 256.922 482.282 256.922 482.282C257.245 481.478 258.162 481.088 258.967 481.41C259.733 481.721 260.123 482.588 259.859 483.371Z" fill="#282833"/>
<path d="M259.559 483.876C259.559 483.876 257.393 486.315 254.166 490.66C250.881 495.056 246.616 501.672 242.501 510.111C238.424 518.538 234.656 528.938 232.821 540.369C231.92 546.072 231.547 552.052 232.251 557.927C232.913 563.789 234.778 569.546 238.18 574.059C239.836 576.351 241.935 578.262 244.319 579.737L244.994 580.181L246.071 580.684L248.225 581.69C249.641 582.276 251.12 583.223 252.474 583.5C255.231 584.158 257.799 585.193 260.779 585.352C262.224 585.507 263.649 585.754 265.078 585.842C266.524 585.83 267.961 585.821 269.381 585.809C272.231 585.955 275.03 585.281 277.783 585.101C280.519 584.686 283.192 584.082 285.79 583.538C290.945 582.167 295.768 580.592 300.113 578.807C308.812 575.258 315.801 571.558 320.545 568.746C325.309 565.955 327.869 564.178 327.869 564.178C328.586 563.684 329.562 563.86 330.061 564.572C330.526 565.247 330.388 566.165 329.772 566.68C329.772 566.68 327.249 568.771 322.544 571.918C317.817 575.015 310.957 579.351 302.028 583.315C297.574 585.318 292.587 587.141 287.186 588.771C284.445 589.45 281.625 590.183 278.696 590.728C275.721 591.067 272.725 591.759 269.566 591.663C267.999 591.688 266.419 591.717 264.822 591.746C263.226 591.667 261.617 591.424 260.004 591.26C256.785 591.114 253.446 589.957 250.119 589.081C248.392 588.658 247.173 587.845 245.664 587.242L243.498 586.257L242.413 585.763C241.583 585.356 241.537 585.243 241.059 584.966C238.025 583.131 235.289 580.684 233.169 577.822C228.891 572.069 226.896 565.176 226.213 558.597C225.501 551.968 225.995 545.498 227.026 539.401C229.096 527.17 233.638 516.531 238.113 507.878C242.656 499.212 247.613 492.709 251.212 488.322C253.048 486.139 254.59 484.458 255.625 483.415C256.668 482.338 257.221 481.764 257.221 481.764L257.259 481.73C257.862 481.106 258.855 481.089 259.48 481.693C260.083 482.292 260.112 483.252 259.559 483.876Z" fill="#282833"/>
<path d="M402.795 481.774C402.795 481.774 403.353 482.348 404.4 483.425C405.435 484.473 406.986 486.145 408.829 488.319C412.45 492.686 417.474 499.134 422.176 507.712C426.818 516.277 431.621 526.79 434.126 538.938C435.341 545.001 436.121 551.446 435.643 558.108C435.228 564.717 433.456 571.714 429.303 577.61C427.233 580.543 424.484 583.015 421.459 584.893L420.893 585.249L420.613 585.429L420.474 585.517L420.399 585.563L420.097 585.718L419.012 586.213L416.845 587.197C415.345 587.809 414.097 588.605 412.4 589.058C409.073 589.921 405.72 591.111 402.502 591.258C400.88 591.425 399.272 591.652 397.675 591.756C396.079 591.727 394.495 591.702 392.923 591.673C389.764 591.765 386.759 591.09 383.78 590.742C380.843 590.214 378.023 589.46 375.274 588.798C369.864 587.168 364.869 585.345 360.407 583.342C351.465 579.378 344.597 575.033 339.866 571.932C335.156 568.781 332.625 566.686 332.625 566.686C331.955 566.133 331.858 565.14 332.416 564.473C332.935 563.841 333.861 563.728 334.523 564.184C334.523 564.184 337.088 565.965 341.856 568.76C346.608 571.572 353.606 575.28 362.322 578.829C366.671 580.614 371.502 582.19 376.665 583.56C379.271 584.092 381.94 584.717 384.685 585.115C387.442 585.299 390.246 585.957 393.103 585.815C394.528 585.823 395.965 585.836 397.411 585.848C398.844 585.735 400.273 585.504 401.714 585.341C404.698 585.182 407.25 584.117 410.02 583.472C411.381 583.15 412.856 582.232 414.281 581.637L416.435 580.627L417.516 580.12C417.432 580.162 417.797 579.978 417.348 580.208L417.403 580.17L417.512 580.099L417.73 579.952L418.165 579.663C420.516 578.163 422.611 576.257 424.199 573.935C427.468 569.355 429.157 563.539 429.571 557.643C430.07 551.739 429.437 545.76 428.36 540.078C426.114 528.693 422.083 518.376 417.822 510.004C413.539 501.623 409.194 495.036 405.879 490.645C402.611 486.304 400.453 483.865 400.453 483.865C399.875 483.216 399.938 482.222 400.587 481.648C401.216 481.091 402.171 481.133 402.754 481.728L402.795 481.774Z" fill="#282833"/>
<path d="M271.177 476.943C270.666 494.55 300.484 515.502 329.045 515.502C362.153 515.502 388.065 493.407 388.065 475.321" stroke="#282833" stroke-miterlimit="10" stroke-linecap="round" stroke-linejoin="round"/>
<path d="M329.049 515.502V524.13" stroke="#282833" stroke-miterlimit="10" stroke-linecap="round" stroke-linejoin="round"/>
<path d="M338.944 534.841C338.944 540.435 334.41 544.969 328.816 544.969C323.222 544.969 318.688 540.435 318.688 534.841C318.688 529.247 323.222 524.713 328.816 524.713C334.41 524.713 338.944 529.247 338.944 534.841Z" stroke="#282833" stroke-miterlimit="10" stroke-linecap="round" stroke-linejoin="round"/>
</g>
</svg>
