<svg width="660" height="660" viewBox="0 0 660 660" fill="none" xmlns="http://www.w3.org/2000/svg">
<mask id="mask0_42_455" style="mask-type:alpha" maskUnits="userSpaceOnUse" x="0" y="0" width="660" height="660">
<circle cx="330" cy="330" r="330" fill="#D9D9D9"/>
</mask>
<g mask="url(#mask0_42_455)">
<path d="M330 495.583C462.514 495.583 569.938 388.159 569.938 255.645C569.938 123.131 462.514 15.707 330 15.707C197.485 15.707 90.0615 123.131 90.0615 255.645C90.0615 388.159 197.485 495.583 330 495.583Z" fill="#008F65"/>
<path d="M433.126 206.704C417.93 184.661 391.644 171.655 385.319 144.323C382.619 132.666 384.191 120.273 383.019 108.272C380.177 79.2543 360.35 56.4867 335.544 55.0697C335.058 55.042 334.571 55.0223 334.084 55.0104C332.79 54.9827 331.495 55.0104 330.201 55.0935C328.907 55.0104 327.608 54.9827 326.318 55.0104C325.831 55.0223 325.34 55.042 324.857 55.0697C300.051 56.4867 280.225 79.2543 277.383 108.272C276.207 120.273 277.779 132.666 275.083 144.323C268.758 171.655 242.467 184.661 227.276 206.704C212.836 227.651 209.215 258.062 218.208 282.833C225.237 302.192 239.499 319.537 238.113 340.511C237.116 355.588 227.941 368.745 227.296 383.846C226.433 403.997 242.558 421.706 259.765 423.119C276.971 424.532 383.447 424.532 400.653 423.119C417.855 421.706 433.985 403.997 433.122 383.846C432.473 368.741 423.298 355.588 422.304 340.511C420.919 319.541 435.18 302.196 442.21 282.833C451.187 258.062 447.565 227.655 433.126 206.704Z" fill="#2E2E2E"/>
<path d="M337.861 63.5355C362.627 60.741 387.643 82.6417 392.341 111.228C394.467 124.167 392.888 137.831 396.284 150.394C403.951 178.751 433.538 191.599 444.15 218.626C450.673 235.234 448.845 255.184 442.049 271.642C435.252 288.1 423.975 301.479 411.768 312.89" stroke="#2E2E2E" stroke-width="0.4623" stroke-miterlimit="10" stroke-linecap="round" stroke-linejoin="round"/>
<path d="M360.213 151.817C398.722 192.939 421.114 253.951 420.081 314.931C419.911 324.937 419.218 335.414 422.808 344.503C425.721 351.877 431.144 357.47 434.758 364.408C444.451 383.036 437.533 410.636 420.778 420.187" stroke="#2E2E2E" stroke-width="0.4623" stroke-miterlimit="10" stroke-linecap="round" stroke-linejoin="round"/>
<path d="M313.062 108.716L304.667 100.902C296.461 93.2667 303.056 83.0625 317.175 81.7602C322.403 81.2773 327.608 80.9686 332.065 81.024C337.528 81.0913 343.022 81.3922 348.425 81.9186C363.58 83.391 370.994 94.7668 361.851 102.228L352.276 110.042C348.551 113.081 342.709 114.787 336.495 114.657L329.516 114.506C322.961 114.368 316.806 112.203 313.062 108.716Z" fill="#F5F5FF"/>
<path d="M271.611 127.408C275.688 122.101 280.568 117.319 285.849 113.175C287.191 112.114 288.568 111.105 289.957 110.131L294.355 107.566L298.776 105.005C300.284 104.209 301.84 103.509 303.407 102.84C309.721 100.275 316.355 98.3632 323.171 97.5636C329.971 96.7205 336.945 96.7918 343.733 98.1495L343.583 98.1258C349.069 98.9926 354.116 100.441 359.123 102.472C364.082 104.483 368.753 107.083 373.198 110.072C375.518 111.421 377.501 113.155 379.563 114.817C381.617 116.476 383.711 118.087 385.52 120.03C389.217 123.807 392.629 127.84 395.515 132.222C392.012 128.327 388.358 124.602 384.352 121.301C382.381 119.619 380.26 118.123 378.142 116.63C376.036 115.138 373.97 113.539 371.67 112.395C367.257 109.826 362.61 107.602 357.836 105.777C353.091 104.043 347.988 102.725 343.148 101.973L342.997 101.949C330.256 99.6615 316.873 101.395 304.603 105.911C303.059 106.462 301.527 107.044 300.035 107.72L295.637 109.933L291.224 112.154C289.819 113.02 288.445 113.907 287.103 114.837C281.503 118.467 276.412 122.722 271.611 127.408Z" fill="#F5F5FF"/>
<path d="M376.618 410.97C377.489 437.134 356.946 458.865 331.336 458.865C306.241 458.865 286.054 438.044 286.054 412.514C286.054 411.999 286.054 411.445 286.094 410.97L291.121 341.821L291.754 332.915L292.863 317.834L294.921 289.929H367.752L370.997 334.498L371.749 344.235L374.164 377.603L376.618 410.97Z" fill="#F5F5FF" stroke="#2E2E2E" stroke-width="0.5" stroke-miterlimit="10"/>
<path d="M374.165 377.603C351.207 380.413 325.321 369.37 307.786 346.966C300.661 337.902 295.713 327.927 292.864 317.834L294.922 289.929H367.753L370.998 334.498L371.75 344.235L374.165 377.603Z" fill="#2E2E2E"/>
<path d="M394.783 220.607C385.632 235.304 386.519 252.712 396.759 259.492C406.998 266.272 422.72 259.852 431.872 245.155C441.023 230.459 440.136 213.051 429.897 206.274C419.657 199.494 403.935 205.91 394.783 220.607Z" fill="#F5F5FF" stroke="#2E2E2E" stroke-width="0.5" stroke-miterlimit="10"/>
<path d="M422.193 213.327C426.63 215.061 429.998 219.272 430.719 223.979C431.439 228.685 429.476 233.712 425.759 236.688" stroke="#2E2E2E" stroke-width="0.5" stroke-miterlimit="10" stroke-linecap="round" stroke-linejoin="round"/>
<path d="M271.258 220.607C280.41 235.304 279.523 252.712 269.283 259.492C259.043 266.272 243.321 259.852 234.17 245.155C225.019 230.459 225.905 213.051 236.145 206.274C246.389 199.494 262.107 205.91 271.258 220.607Z" fill="#F5F5FF" stroke="#2E2E2E" stroke-width="0.5" stroke-miterlimit="10"/>
<path d="M243.851 213.327C239.414 215.061 236.046 219.272 235.325 223.979C234.609 228.685 236.568 233.712 240.285 236.688" stroke="#2E2E2E" stroke-width="0.5" stroke-miterlimit="10" stroke-linecap="round" stroke-linejoin="round"/>
<path d="M417.547 200.279C417.547 201.664 417.547 203.01 417.468 204.316C417.31 208.274 416.993 212.272 416.479 216.151L415.924 221.692L415.687 224.701L415.529 226.482L415.291 229.055C415.054 231.707 414.895 234.319 414.737 236.931C414.697 237.604 414.658 238.238 414.618 238.911C414.539 239.9 414.499 240.89 414.46 241.879C414.064 248.45 413.708 254.981 412.837 261.472C412.837 261.591 412.797 261.71 412.797 261.789C412.599 263.016 412.402 264.283 412.164 265.51C411.927 266.855 411.729 268.162 411.372 269.468C410.937 271.447 410.422 273.387 409.829 275.405C409.631 276.118 409.393 276.791 409.156 277.543C408.681 278.968 408.127 280.432 407.533 281.897C405.989 285.736 404.129 289.457 402.031 293.177C393.165 308.614 379.588 322.785 366.012 332.166C365.972 332.285 365.853 332.324 365.814 332.324C364.151 333.512 362.489 334.58 360.866 335.57C344.281 345.703 324.688 346.257 307.509 337.509C303.947 335.728 300.543 333.67 297.218 331.216C297.178 331.216 297.099 331.216 297.06 331.137C283.918 321.756 272.638 308.139 264.128 293.177C263.494 292.109 262.94 291.08 262.346 290.011C262.069 289.457 261.792 288.863 261.515 288.309C261.04 287.399 260.605 286.409 260.09 285.419C258.744 282.847 257.557 280.155 256.488 277.543C256.211 276.791 255.855 276.078 255.617 275.326C251.62 264.797 250.195 253.041 249.245 241.444C249.126 240.296 249.047 239.108 248.928 237.921C248.928 237.288 248.849 236.654 248.809 236.021C248.651 234.002 248.493 231.944 248.334 229.965L247.859 224.542C247.741 223.949 247.661 223.355 247.582 222.801C247.424 222.128 247.345 221.494 247.266 220.822C246.83 218.368 246.514 215.874 246.276 213.301C246.157 212.153 246.039 210.966 245.959 209.778C245.722 206.691 245.603 203.524 245.603 200.279C245.603 199.922 245.603 199.527 245.643 199.131C245.643 196.36 245.761 193.589 245.999 190.898C246.157 188.562 246.434 186.267 246.791 184.05C248.77 170.315 253.163 157.53 259.496 146.328C261.119 143.518 262.821 140.826 264.642 138.214C270.738 129.466 278.219 121.946 286.57 116.048C287.164 115.573 287.798 115.138 288.391 114.742C289.143 114.227 289.895 113.713 290.647 113.238C293.616 111.417 296.664 109.755 299.791 108.33C313.09 102.274 328.923 99.5028 343.371 102.274C344.083 102.353 344.796 102.511 345.508 102.63C351.485 103.778 357.185 105.559 362.607 108.053C364.349 108.805 366.051 109.636 367.714 110.546C370.128 111.813 372.463 113.198 374.759 114.742C374.917 114.861 375.155 115.019 375.313 115.138C377.767 116.8 380.103 118.542 382.398 120.481C389.167 126.181 395.183 133.029 400.21 140.747C401.517 142.726 402.744 144.745 403.891 146.803C404.287 147.397 404.564 147.991 404.96 148.664C410.502 159.232 414.499 171.067 416.32 183.773C416.32 183.852 416.399 183.931 416.399 184.05C416.716 186.267 416.954 188.562 417.151 190.898C417.389 193.589 417.508 196.36 417.508 199.131C417.547 199.527 417.547 199.922 417.547 200.279Z" fill="#F5F5FF" stroke="#2E2E2E" stroke-width="0.5" stroke-miterlimit="10"/>
<path d="M417.547 200.279C417.547 201.664 417.547 203.01 417.468 204.316C417.31 208.274 416.993 212.272 416.478 216.151L415.924 221.692L415.687 224.701L415.528 226.482L415.291 229.055C415.053 231.707 414.895 234.319 414.737 236.931C414.697 237.604 414.658 238.238 414.618 238.911C405.356 216.824 401.121 192.639 402.427 168.732C395.698 156.303 385.604 147.476 372.74 141.539C364.072 137.541 354.651 135.483 345.152 135.483C340.6 135.483 336.048 135.958 331.575 136.908C317.721 133.939 303.234 135.602 290.37 141.539C277.546 147.476 267.452 156.303 260.723 168.732C262.03 192.283 257.913 216.111 248.928 237.921C248.928 237.288 248.849 236.654 248.809 236.021C248.651 234.002 248.493 231.944 248.334 229.965L247.859 224.542C247.74 223.949 247.661 223.355 247.582 222.801C247.424 222.128 247.345 221.494 247.265 220.822C246.83 218.368 246.513 215.874 246.276 213.301C246.157 212.153 246.038 210.966 245.959 209.778C245.722 206.691 245.603 203.524 245.603 200.279C245.603 199.922 245.603 199.527 245.643 199.131C245.643 196.36 245.761 193.589 245.999 190.898C246.157 188.562 246.434 186.267 246.79 184.05C248.77 170.315 253.163 157.53 259.496 146.328C261.119 143.518 262.821 140.826 264.642 138.214C270.738 129.466 278.219 121.946 286.57 116.048C287.164 115.573 287.797 115.138 288.391 114.742C289.143 114.227 289.895 113.713 290.647 113.238C293.616 111.417 296.664 109.755 299.791 108.33C313.09 102.274 328.923 99.5028 343.371 102.274C344.083 102.353 344.795 102.511 345.508 102.63C351.485 103.778 357.185 105.559 362.607 108.053C364.349 108.805 366.051 109.636 367.713 110.546C370.128 111.813 372.463 113.198 374.759 114.742C374.917 114.861 375.155 115.019 375.313 115.138C377.767 116.8 380.103 118.542 382.398 120.481C389.167 126.181 395.183 133.029 400.21 140.747C401.516 142.726 402.743 144.745 403.891 146.803C404.287 147.397 404.564 147.991 404.96 148.664C410.502 159.232 414.499 171.067 416.32 183.773C416.32 183.852 416.399 183.931 416.399 184.05C416.716 186.267 416.953 188.562 417.151 190.898C417.389 193.589 417.508 196.36 417.508 199.131C417.547 199.527 417.547 199.922 417.547 200.279Z" fill="#2E2E2E"/>
<path d="M380.617 140.665C382.18 151.993 391.589 161.576 402.351 162.799" stroke="#2E2E2E" stroke-width="0.4822" stroke-miterlimit="10" stroke-linecap="round" stroke-linejoin="round"/>
<path d="M377.395 134.033C377.814 143.905 381.697 153.571 388.121 160.747C394.545 167.923 403.455 172.55 412.753 173.536" stroke="#2E2E2E" stroke-width="0.4822" stroke-miterlimit="10" stroke-linecap="round" stroke-linejoin="round"/>
<path d="M377.893 139.843C378.313 149.715 382.196 159.38 388.62 166.557C395.044 173.733 403.954 178.36 413.252 179.346" stroke="#2E2E2E" stroke-width="0.4822" stroke-miterlimit="10" stroke-linecap="round" stroke-linejoin="round"/>
<path d="M282.513 140.665C280.949 151.993 271.541 161.576 260.778 162.799" stroke="#2E2E2E" stroke-width="0.4822" stroke-miterlimit="10" stroke-linecap="round" stroke-linejoin="round"/>
<path d="M285.739 134.033C285.32 143.905 281.437 153.571 275.017 160.747C268.592 167.923 259.683 172.55 250.385 173.536" stroke="#2E2E2E" stroke-width="0.4822" stroke-miterlimit="10" stroke-linecap="round" stroke-linejoin="round"/>
<path d="M285.236 139.843C284.817 149.715 280.934 159.38 274.514 166.557C268.09 173.733 259.18 178.36 249.882 179.346" stroke="#2E2E2E" stroke-width="0.4822" stroke-miterlimit="10" stroke-linecap="round" stroke-linejoin="round"/>
<path d="M354.624 208.449C356.025 203.739 359.445 200.006 363.478 197.386C367.547 194.777 372.329 193.289 377.165 192.996C382.002 192.691 386.93 193.598 391.284 195.696C395.603 197.809 399.45 201.114 401.398 205.631C396.549 205.144 392.63 204.807 388.818 204.7C385.038 204.574 381.46 204.645 377.878 204.843C374.3 205.057 370.733 205.417 366.997 205.999C363.221 206.561 359.369 207.372 354.624 208.449Z" fill="#2E2E2E"/>
<path d="M312.572 208.448C307.826 207.371 303.975 206.56 300.203 206.002C296.462 205.42 292.9 205.06 289.318 204.846C285.739 204.644 282.161 204.577 278.377 204.703C274.565 204.81 270.647 205.151 265.798 205.633C267.745 201.113 271.589 197.808 275.911 195.698C280.265 193.601 285.193 192.694 290.03 192.999C294.867 193.292 299.648 194.784 303.717 197.389C307.751 200.005 311.171 203.737 312.572 208.448Z" fill="#2E2E2E"/>
<path d="M351.817 234.081C352.969 232.328 354.196 230.645 355.399 228.928C356.765 227.206 358.249 225.516 360.038 224.166C363.521 221.32 367.895 219.673 372.356 218.933C376.853 218.411 381.535 218.854 385.755 220.611C387.88 221.431 389.839 222.65 391.684 223.924C393.323 225.211 395.001 226.446 396.612 227.776L395.464 227.412C395.393 227.522 396.022 227.455 396.505 227.281C397.027 227.115 397.582 226.873 398.132 226.612C399.224 226.078 400.344 225.429 401.322 224.732L401.366 224.7C401.758 224.423 402.296 224.514 402.577 224.902C402.806 225.223 402.783 225.646 402.553 225.939C401.686 227.047 400.772 228.005 399.751 228.951C399.236 229.418 398.698 229.873 398.076 230.301C397.415 230.709 396.841 231.196 395.468 231.378C395.143 231.405 394.831 231.322 394.573 231.168L394.316 231.014C392.527 229.937 390.809 228.761 389.052 227.641C387.433 226.62 385.806 225.658 384.009 225.044C380.502 223.647 376.667 223.137 372.89 223.493C369.118 223.821 365.382 225.037 362.128 227.119C360.438 228.08 358.997 229.406 357.576 230.768C356.096 232.229 354.659 233.753 353.139 235.193C352.791 235.522 352.24 235.51 351.912 235.162C351.631 234.861 351.603 234.414 351.817 234.081Z" fill="#2E2E2E"/>
<path d="M366.225 227.744C366.514 223.735 369.997 220.718 374.007 221.007C378.017 221.296 381.033 224.78 380.744 228.789C380.455 232.799 376.972 235.815 372.962 235.526C368.952 235.237 365.936 231.754 366.225 227.744Z" fill="#2E2E2E"/>
<path d="M388.276 233.503C390.951 232.906 393.489 231.69 395.63 229.977" stroke="#2E2E2E" stroke-width="0.5" stroke-miterlimit="10" stroke-linecap="round" stroke-linejoin="round"/>
<path d="M352.289 225.928C356.318 220.351 362.691 216.519 369.511 215.581" stroke="#2E2E2E" stroke-width="0.5" stroke-miterlimit="10" stroke-linecap="round" stroke-linejoin="round"/>
<path d="M314.052 235.191C312.532 233.75 311.095 232.226 309.614 230.765C308.194 229.404 306.753 228.082 305.063 227.116C301.809 225.034 298.072 223.819 294.3 223.49C290.528 223.138 286.689 223.644 283.182 225.042C281.389 225.655 279.758 226.617 278.139 227.638C276.381 228.762 274.66 229.934 272.874 231.011L272.617 231.165C272.336 231.335 272.027 231.399 271.723 231.375C270.353 231.193 269.771 230.706 269.11 230.298C268.489 229.867 267.95 229.412 267.436 228.948C266.415 228.002 265.5 227.045 264.634 225.936C264.337 225.56 264.404 225.014 264.784 224.717C265.093 224.476 265.516 224.476 265.821 224.693L265.865 224.725C266.842 225.422 267.962 226.071 269.059 226.605C269.609 226.87 270.163 227.108 270.686 227.274C271.165 227.448 271.798 227.516 271.727 227.405L270.579 227.769C272.19 226.439 273.864 225.204 275.507 223.918C277.351 222.643 279.307 221.42 281.436 220.605C285.656 218.847 290.338 218.404 294.835 218.926C299.295 219.666 303.669 221.313 307.152 224.159C308.942 225.509 310.426 227.199 311.795 228.921C312.999 230.642 314.226 232.321 315.378 234.074C315.643 234.474 315.528 235.012 315.128 235.278C314.784 235.511 314.341 235.46 314.052 235.191Z" fill="#2E2E2E"/>
<path d="M300.969 227.744C300.68 223.735 297.197 220.718 293.187 221.007C289.177 221.296 286.161 224.78 286.45 228.789C286.739 232.799 290.222 235.815 294.232 235.526C298.242 235.237 301.258 231.754 300.969 227.744Z" fill="#2E2E2E"/>
<path d="M278.919 233.503C276.243 232.906 273.706 231.69 271.565 229.977" stroke="#2E2E2E" stroke-width="0.5" stroke-miterlimit="10" stroke-linecap="round" stroke-linejoin="round"/>
<path d="M314.908 225.928C310.878 220.351 304.506 216.519 297.686 215.581" stroke="#2E2E2E" stroke-width="0.5" stroke-miterlimit="10" stroke-linecap="round" stroke-linejoin="round"/>
<path d="M337.012 276.645C338.987 275.758 340.737 274.373 342.059 272.655" stroke="#2E2E2E" stroke-width="0.5" stroke-miterlimit="10" stroke-linecap="round" stroke-linejoin="round"/>
<path d="M330.181 276.645C328.206 275.758 326.456 274.373 325.134 272.655" stroke="#2E2E2E" stroke-width="0.5" stroke-miterlimit="10" stroke-linecap="round" stroke-linejoin="round"/>
<path d="M332.888 241.747V267.764" stroke="#2E2E2E" stroke-width="0.5" stroke-miterlimit="10"/>
<path d="M359.305 296.431L358.592 297.12L358.553 297.155C356.217 298.319 353.407 298.319 350.755 298.026C348.103 297.737 345.411 297.191 342.759 297.444C339.553 297.733 336.664 299.115 333.576 299.839H333.537C330.41 299.111 327.52 297.733 324.354 297.444C321.662 297.191 319.01 297.733 316.358 298.026C313.706 298.315 310.856 298.315 308.521 297.12L307.888 296.502C310.579 296.613 315.487 294.76 317.427 293.379L318.298 292.762C320.396 291.198 322.573 289.567 325.304 288.803C327.956 288.039 331.518 288.439 333.497 290.438C335.516 288.439 339.078 288.043 341.73 288.803C344.461 289.567 346.638 291.198 348.736 292.762L349.607 293.415C351.586 294.796 356.613 296.573 359.305 296.431Z" fill="#2E2E2E"/>
<path d="M324.948 311.606C325.384 311.753 325.859 311.86 326.294 311.935C327.719 312.335 329.223 312.588 330.688 312.699C331.123 312.77 331.558 312.77 331.994 312.806C332.31 312.806 332.667 312.841 332.983 312.841C333.181 312.841 333.379 312.841 333.577 312.841C333.617 312.841 333.656 312.841 333.696 312.841" stroke="#2E2E2E" stroke-width="0.3808" stroke-miterlimit="10" stroke-linecap="round" stroke-linejoin="round"/>
<path d="M358.553 297.154C356.019 303 351.27 307.865 345.016 310.517C341.493 312.041 337.574 312.805 333.695 312.84C333.656 312.84 333.616 312.84 333.576 312.84C333.378 312.84 333.181 312.84 332.983 312.84C332.666 312.84 332.31 312.805 331.993 312.805C331.558 312.769 331.122 312.734 330.687 312.698C329.222 312.552 327.718 312.298 326.293 311.934C324.829 311.57 323.404 311.099 322.058 310.517C315.844 307.865 311.015 302.965 308.521 297.119C310.856 298.318 313.706 298.318 316.358 298.025C319.01 297.736 321.662 297.19 324.354 297.443C327.52 297.732 330.41 299.114 333.537 299.838H333.576C336.664 299.11 339.553 297.732 342.759 297.443C345.411 297.19 348.103 297.732 350.755 298.025C353.407 298.318 356.217 298.318 358.553 297.154ZM358.553 297.154L358.592 297.119L359.305 296.43C356.613 296.576 351.586 294.795 349.607 293.418L348.736 292.765C346.638 291.201 344.461 289.57 341.73 288.806C339.078 288.042 335.516 288.442 333.497 290.441C331.518 288.442 327.956 288.046 325.304 288.806C322.573 289.57 320.396 291.201 318.298 292.765L317.427 293.382C315.487 294.759 310.579 296.612 307.888 296.505L308.521 297.123" stroke="#2E2E2E" stroke-width="0.3808" stroke-miterlimit="10" stroke-linecap="round" stroke-linejoin="round"/>
<path d="M358.148 297.978C355.204 299.988 351.004 301.631 345.882 302.644C342.035 303.42 337.756 303.808 333.517 303.824C333.473 303.824 333.429 303.824 333.386 303.824C333.168 303.824 332.954 303.824 332.737 303.824C332.392 303.824 332.001 303.804 331.656 303.804C331.181 303.784 330.706 303.768 330.231 303.749C328.632 303.673 326.989 303.547 325.434 303.361C323.835 303.175 322.279 302.937 320.807 302.64C316.203 301.726 312.297 300.289 309.411 298.528" stroke="#2E2E2E" stroke-width="0.2837" stroke-miterlimit="10" stroke-linecap="round" stroke-linejoin="round"/>
<path d="M156.346 555.867C188.49 570.37 217.84 574.842 221.894 565.853C225.951 556.864 203.179 537.817 171.035 523.31C138.89 508.808 109.54 504.335 105.487 513.324C101.43 522.317 124.201 541.364 156.346 555.867Z" fill="#2E2E2E"/>
<path d="M80 660.574C80.1187 660.178 80.2771 659.822 80.3958 659.426L123.224 537.078L132.565 510.4L151.406 456.568C157.383 439.429 170.089 426.921 184.615 421.815C189.325 420.153 194.234 419.282 199.142 419.282C203.654 419.282 208.166 420.034 212.6 421.578C237.853 430.444 249.173 462.11 237.259 490.569L212.718 548.992L203.812 570.169L196.569 587.426L165.814 660.574" fill="#F5F5FF"/>
<path d="M80 660.574C80.1187 660.178 80.2771 659.822 80.3958 659.426L123.224 537.078L132.565 510.4L151.406 456.568C157.383 439.429 170.089 426.921 184.615 421.815C189.325 420.153 194.234 419.282 199.142 419.282C203.654 419.282 208.166 420.034 212.6 421.578C237.853 430.444 249.173 462.11 237.259 490.569L212.718 548.992L203.812 570.169L196.569 587.426L165.814 660.574" stroke="#2E2E2E" stroke-width="0.5" stroke-miterlimit="10"/>
<path d="M106.179 512.236C112.12 504.735 140.278 509.457 171.018 523.295C203.17 537.814 225.969 556.861 221.877 565.874C221.778 566.067 221.683 566.214 221.536 566.408L221.877 566.554L257.39 483.298C271.323 450.611 256.269 413.34 224.604 402.285C218.611 400.191 212.523 399.166 206.432 399.166C184.753 399.166 163.952 412.026 153.281 432.878L106.179 512.236Z" fill="#2E2E2E"/>
<path d="M503.647 555.867C471.503 570.37 442.153 574.842 438.095 565.853C434.038 556.864 456.81 537.817 488.954 523.31C521.099 508.808 550.449 504.335 554.506 513.324C558.563 522.317 535.792 541.364 503.647 555.867Z" fill="#2E2E2E"/>
<path d="M494.186 660.574L461.571 583.033L456.188 570.169L447.282 548.992L441.384 534.98L431.37 511.073L422.741 490.569C410.787 462.11 422.147 430.444 447.401 421.578C451.794 420.034 456.346 419.282 460.819 419.282C464.817 419.282 468.775 419.876 472.654 420.984C488.289 425.378 502.222 438.4 508.594 456.568L527.435 510.4L536.777 537.078L579.604 659.426C579.723 659.822 579.881 660.178 580 660.574" fill="#F5F5FF"/>
<path d="M494.186 660.574L461.571 583.033L456.188 570.169L447.282 548.992L441.384 534.98L431.37 511.073L422.741 490.569C410.787 462.11 422.147 430.444 447.401 421.578C451.794 420.034 456.346 419.282 460.819 419.282C464.817 419.282 468.775 419.876 472.654 420.984C488.289 425.378 502.222 438.4 508.594 456.568L527.435 510.4L536.777 537.078L579.604 659.426C579.723 659.822 579.881 660.178 580 660.574" stroke="#2E2E2E" stroke-width="0.5" stroke-miterlimit="10"/>
<path d="M553.813 512.236C547.868 504.735 519.713 509.457 488.974 523.295C456.821 537.814 434.022 556.861 438.115 565.874C438.214 566.067 438.309 566.214 438.455 566.408L438.115 566.554L402.602 483.298C388.669 450.611 403.722 413.34 435.388 402.285C441.38 400.191 447.468 399.166 453.56 399.166C475.239 399.166 496.039 412.026 506.71 432.878L553.813 512.236Z" fill="#2E2E2E"/>
<path d="M473.628 471.08L463.495 519.528C465.513 523.961 467.097 528.632 468.165 533.501C469.274 538.567 469.867 543.792 469.867 549.175C469.867 555.587 469.036 561.841 467.413 567.779C466.068 572.924 464.168 577.832 461.753 582.424C457.795 590.024 452.57 596.871 446.277 602.611L434.362 659.965H219.947L208.033 600.988C203.718 596.792 199.918 592.003 196.752 586.818C192.992 580.643 190.102 573.874 188.321 566.67C186.936 561.089 186.183 555.231 186.183 549.175C186.183 543.04 186.975 537.063 188.4 531.363C189.31 527.761 190.458 524.278 191.844 520.914L181.79 471.08C177.475 452.714 178.307 434.743 184.798 421.206C190.142 409.965 199.404 401.811 212.862 398.922C216.266 398.209 219.986 397.813 223.984 397.813H436.698C440.656 397.813 444.298 398.209 447.622 398.922C460.368 401.693 468.482 409.569 472.836 420.375C478.417 434.035 478.021 452.361 473.628 471.08Z" fill="#F5F5FF" stroke="#2E2E2E" stroke-width="0.5" stroke-miterlimit="10" stroke-linecap="round" stroke-linejoin="round"/>
<path d="M375.171 395.285L392.045 397.818C382.466 422.676 357.885 441.873 331.049 443.021C302.233 444.288 274.209 424.576 264.037 397.818L287.98 395.285" fill="#F5F5FF"/>
<path d="M375.171 395.285L392.045 397.818C382.466 422.676 357.885 441.873 331.049 443.021C302.233 444.288 274.209 424.576 264.037 397.818L287.98 395.285" stroke="#2E2E2E" stroke-width="0.5" stroke-miterlimit="10" stroke-linecap="round" stroke-linejoin="round"/>
</g>
</svg>
