<svg width="500" height="610" viewBox="0 0 500 610" fill="none" xmlns="http://www.w3.org/2000/svg">
<path d="M448.348 301.652C476.875 192.107 411.197 80.1785 301.652 51.6519C192.107 23.1253 80.1787 88.8032 51.6521 198.348C23.1254 307.892 88.8034 419.821 198.348 448.347C307.892 476.874 419.821 411.196 448.348 301.652Z" fill="#6DA8D6"/>
<path d="M245.979 414.491C324.244 414.491 387.69 351.044 387.69 272.779C387.69 194.515 324.244 131.068 245.979 131.068C167.714 131.068 104.268 194.515 104.268 272.779C104.268 351.044 167.714 414.491 245.979 414.491Z" fill="#2A232A"/>
<path d="M125.12 241.994C144.515 241.994 160.238 226.271 160.238 206.876C160.238 187.481 144.515 171.759 125.12 171.759C105.726 171.759 90.0029 187.481 90.0029 206.876C90.0029 226.271 105.726 241.994 125.12 241.994Z" fill="#2A232A"/>
<path d="M194.879 165.9C198 146.757 185.01 128.709 165.866 125.588C146.722 122.468 128.673 135.456 125.553 154.599C122.432 173.741 135.422 191.79 154.566 194.911C173.71 198.031 191.759 185.043 194.879 165.9Z" fill="#2A232A"/>
<path d="M215.037 169.864C233.365 163.514 243.075 143.509 236.725 125.183C230.375 106.857 210.37 97.1485 192.042 103.499C173.715 109.849 164.005 129.853 170.355 148.18C176.705 166.506 196.71 176.214 215.037 169.864Z" fill="#2A232A"/>
<path d="M258.401 166.183C277.796 166.183 293.519 150.461 293.519 131.066C293.519 111.671 277.796 95.9482 258.401 95.9482C239.006 95.9482 223.284 111.671 223.284 131.066C223.284 150.461 239.006 166.183 258.401 166.183Z" fill="#2A232A"/>
<path d="M310.585 179.255C329.979 179.255 345.702 163.532 345.702 144.137C345.702 124.742 329.979 109.02 310.585 109.02C291.19 109.02 275.467 124.742 275.467 144.137C275.467 163.532 291.19 179.255 310.585 179.255Z" fill="#2A232A"/>
<path d="M382.653 187.376C387.137 168.507 375.476 149.575 356.607 145.091C337.737 140.607 318.806 152.269 314.322 171.138C309.838 190.007 321.499 208.939 340.368 213.423C359.238 217.907 378.169 206.245 382.653 187.376Z" fill="#2A232A"/>
<path d="M409.081 239.801C412.201 220.658 399.212 202.61 380.068 199.489C360.924 196.368 342.875 209.356 339.754 228.499C336.634 247.642 349.623 265.69 368.767 268.811C387.911 271.932 405.96 258.943 409.081 239.801Z" fill="#2A232A"/>
<path d="M409.083 302.943C412.204 283.8 399.214 265.752 380.07 262.631C360.926 259.511 342.877 272.499 339.757 291.642C336.636 310.784 349.625 328.833 368.77 331.954C387.914 335.074 405.963 322.086 409.083 302.943Z" fill="#2A232A"/>
<path d="M362.097 380.087C381.492 380.087 397.214 364.364 397.214 344.969C397.214 325.574 381.492 309.852 362.097 309.852C342.702 309.852 326.979 325.574 326.979 344.969C326.979 364.364 342.702 380.087 362.097 380.087Z" fill="#2A232A"/>
<path d="M326.98 422.115C346.374 422.115 362.097 406.392 362.097 386.997C362.097 367.603 346.374 351.88 326.98 351.88C307.585 351.88 291.862 367.603 291.862 386.997C291.862 406.392 307.585 422.115 326.98 422.115Z" fill="#2A232A"/>
<path d="M296.322 449.609C315.717 449.609 331.44 433.886 331.44 414.492C331.44 395.097 315.717 379.374 296.322 379.374C276.927 379.374 261.205 395.097 261.205 414.492C261.205 433.886 276.927 449.609 296.322 449.609Z" fill="#2A232A"/>
<path d="M208.86 452.494C228.255 452.494 243.978 436.771 243.978 417.376C243.978 397.981 228.255 382.259 208.86 382.259C189.465 382.259 173.743 397.981 173.743 417.376C173.743 436.771 189.465 452.494 208.86 452.494Z" fill="#2A232A"/>
<path d="M184.392 427.096C201.663 418.271 208.511 397.117 199.686 379.846C190.861 362.574 169.707 355.727 152.435 364.552C135.164 373.376 128.317 394.531 137.142 411.802C145.966 429.074 167.121 435.921 184.392 427.096Z" fill="#2A232A"/>
<path d="M125.12 397.658C144.515 397.658 160.238 381.935 160.238 362.54C160.238 343.146 144.515 327.423 125.12 327.423C105.726 327.423 90.0029 343.146 90.0029 362.54C90.0029 381.935 105.726 397.658 125.12 397.658Z" fill="#2A232A"/>
<path d="M106.301 344.964C125.696 344.964 141.418 329.241 141.418 309.846C141.418 290.451 125.696 274.729 106.301 274.729C86.9059 274.729 71.1832 290.451 71.1832 309.846C71.1832 329.241 86.9059 344.964 106.301 344.964Z" fill="#2A232A"/>
<path d="M104.266 295.064C123.661 295.064 139.383 279.341 139.383 259.947C139.383 240.552 123.661 224.829 104.266 224.829C84.8708 224.829 69.1482 240.552 69.1482 259.947C69.1482 279.341 84.8708 295.064 104.266 295.064Z" fill="#2A232A"/>
<path d="M268.363 197.161C268.363 197.161 152.333 172.635 154.221 307.53C154.221 307.53 132.524 290.55 128.751 333C124.978 375.449 162.711 377.337 172.145 359.413C172.145 359.413 174.974 398.09 218.367 424.504C218.367 424.504 227.801 493.367 155.165 493.367C82.5286 493.367 60.8319 554.803 58.0027 576.911C58.0027 576.911 121.205 553.74 198.558 588.641C275.911 623.545 407.977 610.338 440.993 581.095C440.993 581.095 455.759 525.912 368.887 498.088C355.499 493.802 341.517 491.788 327.467 491.365C309.4 490.821 277.019 481.648 280.438 422.148C280.438 422.148 318.359 399.975 325.907 360.357C325.907 360.357 325.358 372.953 344.775 366.959C365.347 360.609 369.153 337.148 366.471 316.964C364.22 300.029 344.774 304.701 340.058 309.418C340.058 309.418 362.696 214.141 268.363 197.161Z" fill="#724747"/>
<path opacity="0.7" d="M233.354 427.562C233.354 427.562 262.326 431.716 280.437 422.146C280.437 422.146 278.937 441.523 283.447 456.781C283.447 456.781 245.997 457.293 233.354 427.562Z" fill="#4C2727"/>
<path d="M201.154 478.192C201.154 478.192 210.935 507.528 253.099 507.528C295.264 507.528 302.812 484.319 302.812 484.319C302.812 484.319 318.682 488.304 348.654 493.311C392.844 500.693 448.62 521.443 440.99 581.091C440.99 581.091 395.959 619.456 277.478 607.795C158.995 596.134 174.546 554.628 58.0002 576.907C58.0002 576.907 67.8809 512.556 123.026 495.664C128.169 494.088 133.511 493.292 138.879 492.961C154.066 492.027 193.157 488.632 201.154 478.192Z" fill="#FFDF4E"/>
<path d="M320.12 233.109C320.12 233.109 296.477 288.789 240.033 271.246C183.59 253.702 174.437 249.1 167.573 274.664C160.709 300.229 172.913 310.146 160.709 321.586L154.223 307.528C154.223 307.528 144.376 300.947 135.762 308.978C135.762 308.978 112.658 242.26 171.389 186.579C230.117 130.902 325.46 182.005 320.12 233.109Z" fill="#2A232A"/>
<path d="M337.066 321.583C337.066 321.583 328.098 304.572 332.237 292.154C336.377 279.737 341.895 236.277 299.124 248.005C256.354 259.733 317.198 212.928 317.198 212.928C317.198 212.928 358.839 224.073 359.476 306.338C359.476 306.338 340.516 299.275 337.066 321.583Z" fill="#2A232A"/>
<path d="M362.097 316.458C362.097 316.458 342.985 319.328 339.326 341.386" stroke="#2A232A" stroke-miterlimit="10" stroke-linejoin="round"/>
<path d="M346.147 332.72C346.147 332.72 355.276 337.391 350.711 343.335" stroke="#2A232A" stroke-miterlimit="10" stroke-linejoin="round"/>
<path d="M137.469 316.458C137.469 316.458 156.581 319.328 160.24 341.386" stroke="#2A232A" stroke-miterlimit="10" stroke-linejoin="round"/>
<path d="M153.417 332.72C153.417 332.72 144.287 337.391 148.852 343.335" stroke="#2A232A" stroke-miterlimit="10" stroke-linejoin="round"/>
<path d="M325.434 362.542C325.434 362.542 302.905 438.918 236.194 427.887" stroke="#2A232A" stroke-miterlimit="10" stroke-linejoin="round"/>
<path d="M249.973 297.351L236.194 351.935H261.202L258.401 341.388" stroke="#2A232A" stroke-miterlimit="10" stroke-linejoin="round"/>
<path d="M214.209 309.85C214.209 315.144 211.815 319.433 208.86 319.433C205.905 319.433 203.511 315.142 203.511 309.85C203.511 304.557 205.905 300.264 208.86 300.264C211.815 300.266 214.209 304.557 214.209 309.85Z" fill="#2A232A"/>
<path d="M286.162 309.85C286.162 315.144 283.768 319.433 280.813 319.433C277.858 319.433 275.464 315.142 275.464 309.85C275.464 304.557 277.858 300.264 280.813 300.264C283.768 300.266 286.162 304.557 286.162 309.85Z" fill="#2A232A"/>
<path d="M296.322 262.229C315.717 262.229 331.44 246.507 331.44 227.112C331.44 207.717 315.717 191.994 296.322 191.994C276.927 191.994 261.205 207.717 261.205 227.112C261.205 246.507 276.927 262.229 296.322 262.229Z" fill="#2A232A"/>
<path d="M266.843 290.68C286.238 290.68 301.961 274.958 301.961 255.563C301.961 236.168 286.238 220.445 266.843 220.445C247.448 220.445 231.726 236.168 231.726 255.563C231.726 274.958 247.448 290.68 266.843 290.68Z" fill="#2A232A"/>
<path d="M255.178 270.757C265.793 254.525 261.24 232.762 245.008 222.147C228.777 211.532 207.013 216.086 196.399 232.317C185.784 248.549 190.337 270.312 206.569 280.927C222.8 291.542 244.563 286.988 255.178 270.757Z" fill="#2A232A"/>
<path d="M173.742 295.064C193.137 295.064 208.86 279.341 208.86 259.947C208.86 240.552 193.137 224.829 173.742 224.829C154.348 224.829 138.625 240.552 138.625 259.947C138.625 279.341 154.348 295.064 173.742 295.064Z" fill="#2A232A"/>
<path d="M148.853 304.819C148.853 304.819 144.535 206.872 249.971 206.872C355.409 206.872 345.702 304.819 345.702 304.819C345.702 304.819 368.021 166.182 243.98 166.182C128.713 166.184 148.853 304.819 148.853 304.819Z" fill="white"/>
<path d="M280.671 390.059C285.808 384.921 287.073 376.764 282.879 370.83C281.284 368.572 278.93 366.681 275.469 365.892C263.931 363.255 253.38 378.419 232.941 368.859C212.502 359.299 207.557 373.804 215.797 386.992C224.04 400.18 234.945 406.114 255.372 403.147C267.172 401.43 275.628 395.102 280.671 390.059Z" fill="white"/>
<path d="M232.2 336.999C247.188 322.011 247.188 297.711 232.2 282.723C217.212 267.735 192.912 267.735 177.924 282.723C162.936 297.711 162.936 322.011 177.924 336.999C192.912 351.987 217.212 351.987 232.2 336.999Z" stroke="white" stroke-miterlimit="10"/>
<path d="M321.749 336.999C336.737 322.011 336.737 297.711 321.749 282.723C306.762 267.735 282.461 267.735 267.473 282.723C252.485 297.711 252.485 322.011 267.473 336.999C282.461 351.987 306.762 351.987 321.749 336.999Z" stroke="white" stroke-miterlimit="10"/>
<path d="M230.028 280.709H268.65" stroke="white" stroke-miterlimit="10"/>
<path d="M171.823 290.678L150.497 300.261" stroke="white" stroke-miterlimit="10"/>
<path d="M325.433 286.969L345.701 295.074" stroke="white" stroke-miterlimit="10"/>
<path d="M168.391 368.003C168.391 374.572 163.065 379.895 156.499 379.895C149.93 379.895 144.607 374.57 144.607 368.003C144.607 361.434 149.932 356.111 156.499 356.111C163.068 356.111 168.391 361.437 168.391 368.003Z" fill="white"/>
<path d="M351.218 368.003C351.218 374.572 345.892 379.895 339.326 379.895C332.759 379.895 327.433 374.57 327.433 368.003C327.433 361.434 332.759 356.111 339.326 356.111C345.892 356.111 351.218 361.437 351.218 368.003Z" fill="white"/>
</svg>
