<svg width="660" height="660" viewBox="0 0 660 660" fill="none" xmlns="http://www.w3.org/2000/svg">
<path d="M528.348 371.652C556.875 262.107 491.197 150.179 381.652 121.652C272.107 93.1253 160.179 158.803 131.652 268.348C103.125 377.892 168.803 489.821 278.348 518.347C387.892 546.874 499.821 481.196 528.348 371.652Z" fill="#997AB3"/>
<mask id="mask0_42_1058" style="mask-type:alpha" maskUnits="userSpaceOnUse" x="0" y="0" width="660" height="660">
<circle cx="330" cy="330" r="330" fill="#D9D9D9"/>
</mask>
<g mask="url(#mask0_42_1058)">
<path d="M207.362 572.5C207.362 572.5 173.969 544.405 193.724 498.542C213.479 452.676 271.191 445.903 326.759 445.887C411.528 445.86 512.784 475.038 445.232 572.5C445.232 572.5 361.126 628.124 207.362 572.5Z" fill="#FF9A40"/>
<path d="M290.973 517.576C289.904 517.576 288.907 516.894 288.563 515.818C282.367 496.63 265.266 484.567 265.095 484.446C263.947 483.645 263.662 482.068 264.459 480.916C265.256 479.769 266.834 479.48 267.985 480.277C268.742 480.802 286.651 493.4 293.387 514.256C293.817 515.588 293.086 517.018 291.754 517.448C291.495 517.536 291.233 517.576 290.973 517.576Z" fill="#E96D17"/>
<path d="M326.929 551.668C326.096 551.668 325.276 551.258 324.794 550.503C302.688 516.071 236.906 506.094 236.244 505.998C234.86 505.795 233.899 504.509 234.102 503.122C234.305 501.738 235.588 500.777 236.975 500.98C239.77 501.387 305.702 511.384 329.061 547.765C329.819 548.942 329.478 550.51 328.297 551.267C327.874 551.54 327.398 551.668 326.929 551.668Z" fill="#E96D17"/>
<path d="M555 660.09H105C105 660.09 109.52 603.955 136.69 593.086C147.668 588.691 172.825 576.178 198.926 562.809C235.398 544.133 273.694 523.811 277.607 521.732C277.827 521.614 277.938 521.555 277.938 521.555L281.379 522.332C285.679 523.296 289.999 524.123 294.335 524.808C298.618 525.5 302.921 526.058 307.221 526.481C330.974 528.813 355.009 527.183 378.332 521.581C378.365 521.571 378.408 521.565 378.441 521.555C378.441 521.555 407.874 536.724 440.696 553.245C444.898 555.357 449.155 557.502 453.415 559.634C482.426 574.151 511.479 588.35 523.316 593.089C550.47 603.955 555 660.09 555 660.09Z" fill="#FF9A40"/>
<path d="M350.882 588.635C326.125 588.635 305.577 582.118 291.001 575.421C267.921 564.82 254.772 551.845 254.224 551.297C253.299 550.372 253.296 548.876 254.221 547.948C255.142 547.02 256.641 547.017 257.569 547.942C257.701 548.07 270.787 560.956 293.15 571.196C313.714 580.606 346.592 589.649 386.436 579.271C387.705 578.94 388.994 579.701 389.326 580.967C389.654 582.233 388.896 583.525 387.63 583.856C374.605 587.248 362.293 588.635 350.882 588.635Z" fill="#E96D17"/>
<path d="M339.213 611.462C331.23 611.462 322.466 610.661 312.994 608.684C311.711 608.418 310.891 607.162 311.157 605.883C311.426 604.6 312.686 603.783 313.961 604.046C360.739 613.813 389.986 593.301 390.274 593.094C391.337 592.33 392.816 592.573 393.581 593.635C394.345 594.698 394.102 596.177 393.039 596.942C392.029 597.666 372.35 611.462 339.213 611.462Z" fill="#E96D17"/>
<path d="M380.727 533.018C380.727 533.018 371.9 560.759 331.348 560.759C284.049 560.759 272.917 535.54 272.917 535.54C277.027 524.644 279.851 514.559 281.756 505.542H281.769C285.275 489.025 285.767 476.049 285.551 468.092L368.647 464.803C369.418 471.838 370.664 480.123 372.078 488.457C375.836 510.587 380.727 533.018 380.727 533.018Z" fill="#FFB8A1"/>
<path d="M372.079 488.451C359.205 497.405 331.061 510.732 281.771 505.536C285.277 489.019 285.769 476.044 285.552 468.087L368.648 464.797C369.419 471.836 370.669 480.117 372.079 488.451Z" fill="#3F2037"/>
<path d="M253.833 359.723C253.833 359.723 228.115 324.721 208.115 345.436C188.114 366.152 226.689 438.303 261.691 422.586L253.833 359.723Z" fill="#FFB8A1"/>
<path d="M241.569 401.083C240.697 401.083 239.936 400.44 239.811 399.551C236.43 375.231 217.098 360.304 216.905 360.157C216.124 359.563 215.97 358.448 216.564 357.667C217.157 356.887 218.272 356.733 219.053 357.326C219.896 357.966 239.749 373.303 243.327 399.06C243.462 400.034 242.786 400.929 241.812 401.064C241.733 401.08 241.651 401.083 241.569 401.083Z" fill="#FF8A8A"/>
<path d="M236.184 383.618C235.613 383.618 235.056 383.343 234.711 382.838C232.13 379.02 224.409 378.633 221.664 378.803C220.676 378.872 219.84 378.121 219.778 377.14C219.715 376.16 220.46 375.317 221.441 375.254C221.929 375.225 233.416 374.582 237.653 380.847C238.204 381.66 237.991 382.762 237.178 383.313C236.873 383.52 236.525 383.618 236.184 383.618Z" fill="#FF8A8A"/>
<path d="M410.494 359.723C410.494 359.723 436.212 324.721 456.212 345.436C476.213 366.152 437.638 438.303 402.635 422.586L410.494 359.723Z" fill="#FFB8A1"/>
<path d="M422.761 401.084C422.679 401.084 422.597 401.078 422.515 401.068C421.541 400.933 420.865 400.035 421 399.064C424.578 373.304 444.431 357.967 445.274 357.327C446.058 356.734 447.17 356.884 447.764 357.668C448.357 358.449 448.207 359.564 447.426 360.158C447.229 360.305 427.894 375.285 424.519 399.552C424.395 400.441 423.634 401.084 422.761 401.084Z" fill="#FF8A8A"/>
<path d="M428.148 383.618C427.803 383.618 427.459 383.52 427.154 383.313C426.34 382.762 426.127 381.66 426.678 380.847C430.916 374.582 442.402 375.225 442.891 375.254C443.868 375.317 444.613 376.156 444.55 377.137C444.491 378.118 443.638 378.869 442.671 378.803C439.909 378.639 432.192 379.036 429.62 382.841C429.276 383.343 428.718 383.618 428.148 383.618Z" fill="#FF8A8A"/>
<path d="M353.854 257.684C281.916 240.134 216.804 305.164 233.029 377.413C244.483 428.405 269.607 492.717 331.347 494.17C395.692 495.686 421.511 425.624 430.701 372.467C439.111 323.817 410.747 275.92 363.831 260.541C360.577 259.472 357.252 258.514 353.854 257.684Z" fill="#FFB8A1"/>
<path d="M336.481 421.397C333.424 421.397 330.069 420.596 326.379 418.996C325.343 418.546 324.729 417.464 324.874 416.342L330.017 376.836C330.197 375.449 331.476 374.468 332.857 374.648C334.244 374.829 335.225 376.101 335.045 377.489L330.154 415.047C335.199 416.897 339.095 416.733 342.31 414.565C343.471 413.781 345.045 414.089 345.829 415.25C346.613 416.411 346.304 417.985 345.143 418.769C342.552 420.521 339.679 421.397 336.481 421.397Z" fill="#FF8A8A"/>
<path d="M331.781 447.441C317.258 447.441 306.237 441.445 306.05 441.34C304.827 440.658 304.391 439.113 305.073 437.89C305.755 436.667 307.3 436.23 308.523 436.913C309.753 437.592 337.819 452.715 362.11 430.245C363.137 429.293 364.741 429.356 365.692 430.386C366.643 431.412 366.581 433.016 365.551 433.967C354.288 444.387 342.142 447.441 331.781 447.441Z" fill="#FF8A8A"/>
<path d="M335.894 461.936C330.157 461.936 325.562 460.535 325.241 460.433C323.906 460.017 323.158 458.593 323.578 457.258C323.995 455.923 325.415 455.182 326.75 455.592C326.864 455.628 338.105 459.02 346.016 454.549C347.233 453.86 348.781 454.29 349.469 455.507C350.158 456.727 349.729 458.272 348.512 458.961C344.461 461.253 339.899 461.936 335.894 461.936Z" fill="#FF8A8A"/>
<path d="M282.364 349.296C287.822 346.363 295.788 342.742 303.539 341.611C307.701 341.004 310.318 336.819 308.898 332.857L308.613 332.057C307.589 329.197 304.746 327.399 301.725 327.721C294.811 328.455 282.561 330.876 274.571 338.839C272.839 340.565 272.239 343.126 272.974 345.458C274.21 349.401 278.726 351.25 282.364 349.296Z" fill="#3F2037"/>
<path d="M387.28 349.296C381.822 346.363 373.855 342.742 366.105 341.611C361.943 341.004 359.326 336.819 360.746 332.857L361.031 332.057C362.054 329.197 364.898 327.399 367.919 327.721C374.833 328.455 387.083 330.876 395.073 338.839C396.805 340.565 397.405 343.126 396.67 345.458C395.431 349.401 390.917 351.25 387.28 349.296Z" fill="#3F2037"/>
<g opacity="0.5">
<path d="M300.934 394.876C300.934 401.094 289.454 406.136 275.295 406.136C261.136 406.136 249.656 401.094 249.656 394.876C249.656 388.657 261.136 383.619 275.295 383.619C289.454 383.619 300.934 388.66 300.934 394.876Z" fill="#FF8A8A"/>
</g>
<g opacity="0.5">
<path d="M421.562 394.876C421.562 401.094 410.082 406.136 395.923 406.136C381.764 406.136 370.284 401.094 370.284 394.876C370.284 388.657 381.764 383.619 395.923 383.619C410.082 383.619 421.562 388.66 421.562 394.876Z" fill="#FF8A8A"/>
</g>
<path d="M235.701 388.514C235.701 388.514 222.188 314.074 226.363 297.051C230.538 280.028 239.263 283.144 239.263 283.144C239.263 283.144 166.387 223.421 202.63 189.566C228.866 165.059 259.047 217.497 259.047 217.497C259.047 217.497 244.11 165.944 265.351 158.863C291.829 150.037 303.811 211.823 303.811 211.823C303.811 211.823 301.626 165.731 323.146 166.64C352.989 167.899 336.177 202.367 368.539 215.815C400.902 229.266 449.795 236.094 432.169 290.317C432.169 290.317 455.912 289.281 426.374 386.038C418.748 375.434 414.923 362.563 415.556 349.519C416.042 339.512 415.989 327.911 413.936 320.784C413.936 320.784 395.441 307.865 396.284 288.953C396.284 288.953 331.136 327.623 271.032 293.158C271.032 293.158 274.813 315.435 255.902 318.797C255.902 318.797 249.722 333.287 247.682 353.905C246.501 365.856 242.687 377.398 236.301 387.573L235.701 388.514Z" fill="#3F2037"/>
<path d="M426.133 256.308C426.133 256.308 436.425 221.171 453.051 230.164C464.918 236.58 437.271 263.314 437.271 263.314C437.271 263.314 460.532 250.739 472.002 259.601C483.472 268.46 453.028 278.929 435.481 275.932C417.933 272.937 426.133 256.308 426.133 256.308Z" fill="#3F2037"/>
<path d="M302.725 368.654C302.843 375.522 300.311 381.138 297.07 381.193C293.826 381.249 291.101 375.729 290.979 368.858C290.861 361.99 293.393 356.374 296.634 356.319C299.878 356.266 302.603 361.79 302.725 368.654Z" fill="#3F2037"/>
<path d="M364.112 368.654C363.994 375.522 366.526 381.138 369.766 381.193C373.01 381.249 375.736 375.729 375.857 368.858C375.975 361.99 373.443 356.374 370.203 356.319C366.956 356.266 364.23 361.79 364.112 368.654Z" fill="#3F2037"/>
<path d="M264.222 589.514V660.09H259.151V589.514C259.151 588.946 259.338 588.431 259.65 588.008C260.116 587.382 260.857 586.979 261.687 586.979C262.913 586.979 263.933 587.848 264.17 589.005C264.206 589.166 264.222 589.333 264.222 589.514Z" fill="white"/>
<path d="M405.176 589.514V660.09H400.105V589.514C400.105 588.12 401.236 586.979 402.64 586.979C403.755 586.979 404.71 587.713 405.041 588.72C405.133 588.963 405.176 589.235 405.176 589.514Z" fill="white"/>
</g>
</svg>
