<svg width="660" height="660" viewBox="0 0 660 660" fill="none" xmlns="http://www.w3.org/2000/svg">
<mask id="mask0_42_351" style="mask-type:alpha" maskUnits="userSpaceOnUse" x="0" y="0" width="660" height="660">
<circle cx="330" cy="330" r="330" fill="#D9D9D9"/>
</mask>
<g mask="url(#mask0_42_351)">
<path d="M528.348 369.652C556.875 260.107 491.197 148.179 381.652 119.652C272.107 91.1253 160.179 156.803 131.652 266.348C103.125 375.892 168.803 487.821 278.348 516.347C387.892 544.874 499.821 479.196 528.348 369.652Z" fill="#FFCE33"/>
<path d="M369.768 352.963C383.278 352.963 394.267 341.97 394.267 328.46C394.267 314.95 383.278 303.957 369.768 303.957C356.257 303.957 345.265 314.95 345.265 328.46C345.261 341.97 356.254 352.963 369.768 352.963ZM365.01 311.126C369.13 311.126 372.471 314.463 372.471 318.588C372.471 322.712 369.13 326.053 365.01 326.053C360.885 326.053 357.544 322.712 357.544 318.588C357.544 314.463 360.885 311.126 365.01 311.126Z" fill="#FFB5B3"/>
<path d="M308.379 328.46C308.379 314.95 297.39 303.957 283.88 303.957C270.365 303.957 259.377 314.95 259.377 328.46C259.377 341.97 270.369 352.963 283.88 352.963C297.39 352.963 308.379 341.97 308.379 328.46ZM280.428 318.584C280.428 314.459 283.769 311.122 287.889 311.122C292.01 311.122 295.355 314.459 295.355 318.584C295.355 322.708 292.01 326.049 287.889 326.049C283.769 326.049 280.428 322.708 280.428 318.584Z" fill="#FFB5B3"/>
<path d="M240.144 321.045C236.138 301.633 236.166 284.465 240.219 268.623C240.259 268.473 244.213 253.704 247.103 253.704C247.44 253.704 247.772 253.791 248.069 253.953C250.796 255.477 254.466 256.285 258.678 256.285C271.57 256.285 289.498 248.095 289.621 232.72C289.629 231.853 290.199 231.093 291.022 230.84C291.842 230.586 292.744 230.903 293.231 231.619C297.178 237.403 305.13 240.854 314.512 240.854C325.037 240.854 334.368 236.524 337.724 230.076C338.045 229.462 338.659 229.058 339.351 229.015C340.032 228.983 340.705 229.288 341.101 229.858C344.026 234.046 349.247 236.449 355.423 236.449C358.265 236.449 361.143 235.95 363.973 234.968C364.183 234.897 364.4 234.861 364.622 234.861C365.046 234.861 365.469 235 365.818 235.265C366.344 235.665 366.637 236.302 366.597 236.959C365.972 247.437 374.099 255.026 382.97 261.664C384.474 262.792 385.998 263.889 387.518 264.985C393.016 268.952 398.701 273.053 403.36 278.405C414.064 290.712 417.939 303.232 416.312 320.274C416.253 320.879 416.185 321.469 416.114 322.043C418.548 319.502 421.636 317.76 424.838 315.955C430.42 312.808 436.187 309.554 439.774 301.364C442.481 295.185 441.033 288.42 436.255 284.912C435.815 284.588 435.526 284.097 435.463 283.559C435.396 283.016 435.554 282.47 435.906 282.05C445.074 271.026 447.639 254.032 442.295 239.762C437.49 226.933 427.293 218.643 413.581 216.423C413.054 216.34 412.583 216.043 412.274 215.603C411.966 215.164 411.851 214.618 411.954 214.095C416.87 188.579 407.025 168.153 384.953 158.055C379.106 155.383 372.341 153.966 365.39 153.966C350.245 153.966 336.794 160.565 330.29 171.193C329.986 171.692 329.479 172.028 328.901 172.115C328.319 172.199 327.737 172.032 327.298 171.648C310.363 156.848 292.97 152.596 275.96 159.207C260.344 165.267 248.869 181.731 247.404 200.169C247.356 200.759 247.048 201.297 246.565 201.638C246.078 201.978 245.468 202.073 244.898 201.919C242.42 201.222 239.883 200.87 237.365 200.87C223.158 200.87 209.909 212.072 205.151 228.108C201.098 241.765 203.694 265.433 222.157 272.859C222.818 273.124 223.285 273.726 223.38 274.43C223.475 275.135 223.182 275.84 222.616 276.271C215.02 282.054 211.394 289.532 211.532 299.127C211.71 311.268 218.436 313.121 226.954 315.464C231.515 316.727 236.217 318.021 240.144 321.045Z" fill="#282833" stroke="#282833" stroke-width="0.5" stroke-miterlimit="10"/>
<path d="M244.218 352.808C243.909 350.061 243.624 347.492 243.355 345.069C243.311 344.986 243.236 344.934 243.216 344.843C242.642 341.985 241.847 339.507 240.881 337.39C237.947 338.731 235.98 341.768 236.202 345.172C236.237 345.718 235.822 346.189 235.279 346.225C235.26 346.229 235.236 346.229 235.216 346.229C234.698 346.229 234.262 345.825 234.23 345.303C233.957 341.091 236.364 337.326 239.978 335.632C238.228 332.556 236.024 330.51 233.443 329.75C230.442 328.859 227.438 329.88 226.017 331.341C225.633 331.737 225.007 331.745 224.615 331.361C224.223 330.977 224.215 330.351 224.595 329.959C226.377 328.131 230.082 326.702 234.001 327.85C236.479 328.582 239.464 330.498 241.902 334.963C242.013 334.939 242.132 334.927 242.242 334.908C242.219 334.666 242.191 334.413 242.167 334.179L241.716 334.322C238.26 323.337 231.808 320.408 226.947 321.33C222.05 322.256 217.138 327.489 217.68 335.363C218.852 352.483 226.836 361.956 233.922 365.107C238.316 367.066 242.638 366.777 245.86 364.39C245.777 363.82 245.69 363.231 245.607 362.668C245.116 359.201 244.653 355.903 244.218 352.808Z" fill="#FFB5B3"/>
<path d="M414.902 333.858C415.013 333.684 415.123 333.53 415.234 333.367L414.965 333.284C414.945 333.474 414.925 333.66 414.902 333.858Z" fill="#FF9184"/>
<path d="M416.672 331.503C418.516 329.449 420.46 328.352 422.166 327.85C426.081 326.694 429.786 328.131 431.563 329.96C431.944 330.351 431.936 330.977 431.544 331.361C431.16 331.745 430.526 331.737 430.142 331.341C428.721 329.88 425.717 328.871 422.72 329.75C420.139 330.51 417.934 332.552 416.185 335.632C419.795 337.326 422.206 341.087 421.929 345.303C421.893 345.825 421.458 346.229 420.943 346.229C420.923 346.229 420.899 346.229 420.88 346.225C420.333 346.189 419.922 345.718 419.957 345.172C420.179 341.768 418.216 338.732 415.282 337.39C414.886 338.257 414.526 339.195 414.194 340.188C413.628 344.511 412.955 349.673 412.183 355.587C411.708 358.421 411.257 361.469 410.734 364.632C413.913 366.754 418.029 366.987 422.241 365.115C429.323 361.964 437.311 352.491 438.487 335.367C439.049 327.153 434.295 321.766 429.533 320.867C424.335 319.889 419.617 323.856 416.672 331.503Z" fill="#FFB5B3"/>
<path d="M535.496 643.484C534.685 637.008 533.648 630.559 532.044 624.242C531.245 621.083 530.457 617.92 529.388 614.84C528.462 611.713 527.31 608.669 526.103 605.645C523.739 599.572 520.842 593.718 517.655 588.037C514.437 582.547 511.005 577.167 507.098 572.12L502.665 566.725C501.374 565.201 500.139 563.633 498.829 562.129C498.263 561.5 497.685 560.882 497.115 560.261L492.44 555.625L487.068 550.293C486.435 549.66 485.797 549.034 485.156 548.405C483.977 547.344 482.781 546.291 481.574 545.25C481.546 545.226 481.522 545.203 481.495 545.183L471.721 537.226C469.196 535.295 466.631 533.402 464.014 531.585C442.48 516.468 418.765 504.593 394.689 493.655L392.473 492.658L392.773 524.227C392.904 530.576 393.058 537.515 393.094 544.823C393.153 554.956 393.221 565.763 393.284 576.574C393.28 576.981 393.276 577.385 393.276 577.797L393.704 660.201L412.593 660.236C453.892 660.157 495.191 660.011 536.49 660.153L536.308 653.246C536.038 649.992 535.837 646.726 535.496 643.484Z" fill="#FF9184"/>
<path d="M299.624 433.795C308.008 438.621 317.438 442.025 327.001 442.35L327.896 442.421C327.959 442.429 328.391 442.449 328.145 442.453L328.624 442.417L330.532 442.294L334.348 442.037C336.66 441.538 338.908 441.229 341.216 440.568C345.844 439.187 350.384 437.417 354.623 435.062C363.166 430.478 370.802 424.441 377.444 417.886C384.059 411.299 389.806 404.233 394.374 397.009C398.943 389.741 402.339 382.509 403.899 375.186C405.878 367.748 406.97 360.967 408.209 354.93C409.227 348.819 410.113 343.486 410.846 339.1C411.519 334.497 412.037 330.954 412.382 328.591C411.677 326.148 411.914 323.841 412.188 321.604C412.255 321.054 412.322 320.488 412.378 319.902C413.89 304.048 410.303 292.418 400.379 281.006C396.021 275.998 390.772 272.21 385.211 268.204C383.671 267.092 382.127 265.979 380.607 264.839C371.597 258.094 363.289 250.367 362.651 239.501C360.256 240.107 357.838 240.412 355.435 240.412C349.074 240.412 343.492 238.23 339.704 234.347C334.879 240.784 325.362 244.817 314.524 244.817C305.847 244.817 298.168 242.118 293.077 237.427C290.017 251.642 273.772 260.244 258.686 260.244C254.716 260.244 251.109 259.598 248.117 258.359C246.854 261.593 244.4 268.279 244.059 269.601C240.026 285.372 240.152 302.58 244.447 322.202C244.594 322.871 244.463 323.516 244.218 324.126C244.447 325.82 244.851 328.773 245.405 332.858C245.437 332.953 245.473 333.036 245.5 333.127L245.445 333.143C245.583 334.148 245.726 335.213 245.88 336.349C246.533 340.751 247.325 346.099 248.232 352.235C248.77 355.279 249.34 358.517 249.946 361.933C250.239 363.639 250.543 365.393 250.856 367.182C251.264 368.936 251.679 370.729 252.103 372.558C252.53 374.386 252.97 376.251 253.421 378.151C253.785 379.833 254.672 381.884 255.293 383.788C256.069 385.625 256.912 387.39 257.748 389.235C258.745 391.048 259.759 392.884 260.788 394.753C265.174 402.08 270.755 409.276 277.223 416.014C283.711 422.727 291.209 428.95 299.624 433.795ZM337.978 394.495C335.132 394.717 332.211 394.828 329.277 394.828C325.438 394.828 321.582 394.638 317.837 394.262C317.291 394.207 316.895 393.724 316.951 393.181C317.006 392.635 317.537 392.231 318.031 392.295C324.519 392.948 331.363 393.027 337.82 392.524C338.362 392.469 338.841 392.888 338.885 393.435C338.928 393.977 338.524 394.452 337.978 394.495ZM353.028 286.199C353.214 285.368 353.895 284.774 354.691 284.648C354.691 284.648 356.935 284.303 360.296 284.082C363.657 283.868 368.126 283.828 372.587 284.018C377.048 284.177 381.505 284.572 384.842 284.984C388.179 285.423 390.4 285.855 390.4 285.855C391.485 286.069 392.197 287.118 391.984 288.206C391.813 289.081 391.101 289.707 390.266 289.813C390.266 289.813 388.021 290.094 384.664 290.304C381.308 290.494 376.834 290.585 372.369 290.443C367.904 290.332 363.447 289.992 360.11 289.548C356.773 289.105 354.556 288.606 354.556 288.606C353.468 288.365 352.783 287.284 353.028 286.199ZM369.769 299.999C385.46 299.999 398.226 312.769 398.226 328.46C398.226 344.152 385.46 356.922 369.769 356.922C354.073 356.922 341.307 344.152 341.307 328.46C341.303 312.769 354.073 299.999 369.769 299.999ZM317.473 296.614C317.473 295.522 318.36 294.635 319.452 294.635C320.545 294.635 321.432 295.522 321.432 296.614V357.686C321.432 359.206 321.891 362.745 326.138 362.745H340.385C341.477 362.745 342.364 363.631 342.364 364.724C342.364 365.816 341.477 366.703 340.385 366.703H326.138C320.957 366.703 317.473 363.081 317.473 357.686V296.614ZM359.227 377.937C360.118 377.304 361.353 377.51 361.986 378.4C362.62 379.291 362.414 380.526 361.523 381.159C355.368 385.545 342.447 387.746 329.202 387.746C316.107 387.746 302.708 385.593 295.215 381.29L294.071 383.198C293.885 383.507 293.56 383.681 293.224 383.681C293.049 383.681 292.875 383.637 292.717 383.538C292.246 383.257 292.095 382.648 292.376 382.181L294.304 378.966C294.348 378.828 294.368 378.689 294.443 378.559C294.53 378.404 294.66 378.297 294.775 378.179L296.85 374.719C297.131 374.248 297.74 374.093 298.207 374.378C298.678 374.66 298.829 375.269 298.548 375.736L297.257 377.89C311.144 385.811 348.112 385.858 359.227 377.937ZM265.958 285.855C265.958 285.855 268.178 285.423 271.515 284.984C274.852 284.572 279.31 284.173 283.771 284.018C288.232 283.828 292.701 283.868 296.062 284.082C299.419 284.303 301.663 284.648 301.663 284.648C302.763 284.814 303.516 285.843 303.349 286.944C303.219 287.787 302.581 288.428 301.798 288.602C301.798 288.602 299.577 289.101 296.244 289.544C292.907 289.988 288.45 290.328 283.984 290.439C279.523 290.585 275.05 290.49 271.693 290.3C268.337 290.091 266.092 289.809 266.092 289.809C264.992 289.671 264.212 288.669 264.35 287.573C264.465 286.694 265.134 286.017 265.958 285.855ZM255.42 328.46C255.42 312.769 268.19 299.999 283.882 299.999C299.573 299.999 312.339 312.769 312.339 328.46C312.339 344.152 299.573 356.922 283.882 356.922C268.186 356.922 255.42 344.152 255.42 328.46Z" fill="#FFB5B3"/>
<path d="M202.732 525.913L200.174 527.639C198.829 528.589 197.447 529.5 196.066 530.406C195.484 530.81 194.886 531.186 194.308 531.594C192.539 532.821 190.821 534.123 189.095 535.406C188.707 535.726 188.299 536.019 187.927 536.356L176.297 545.864C175.335 546.668 174.337 547.432 173.411 548.259L170.763 550.915L165.467 556.215L160.17 561.512C158.389 563.266 156.976 565.34 155.361 567.232L150.658 573.043C150.42 573.332 150.187 573.629 149.949 573.922C146.593 578.454 143.521 583.185 140.679 588.038C137.492 593.722 134.594 599.569 132.231 605.641C131.024 608.669 129.876 611.714 128.946 614.841C127.877 617.916 127.085 621.079 126.29 624.242C124.69 630.56 123.653 637.012 122.838 643.48C122.497 646.722 122.295 649.984 122.014 653.238L121.943 655.977C122.038 657.406 122.224 658.772 122.402 660.145C163.198 660.003 203.994 660.149 244.79 660.229L263.276 660.193L263.466 623.403C263.375 618.673 263.288 613.677 263.257 608.495C263.193 598.393 263.126 587.622 263.059 576.847C263.126 566.072 263.189 555.301 263.249 545.199C263.292 535.101 263.581 525.672 263.7 517.593C263.953 506.137 264.27 497.412 264.432 493.288L263.629 493.652C242.657 503.196 221.958 513.436 202.732 525.913Z" fill="#FF9184"/>
<path d="M323.358 540.227C323.809 540.65 324.098 541.201 324.201 541.771L328.385 564.12L333.096 540.936C333.211 540.35 333.511 539.835 333.919 539.451C343.111 530.786 352.5 522.342 361.791 513.784C370.341 505.939 378.986 498.204 387.663 490.489L385.645 489.578L384.509 489.072L384.227 488.945L384.085 488.881L384.014 488.846C384.053 488.874 383.408 488.513 383.65 488.644C383.463 488.501 383.349 488.45 383.107 488.236C382.81 487.951 382.529 487.627 382.284 487.286C382.086 486.989 382.015 486.799 381.872 486.55C381.599 486.059 381.484 485.632 381.302 485.18C380.7 483.411 380.396 481.725 380.107 480.03C379.085 473.293 378.816 466.643 378.583 459.984C378.23 448.141 378.341 436.321 378.48 424.521C372.241 430.375 365.247 435.802 357.33 440.117C352.801 442.662 347.881 444.641 342.786 446.181C340.225 446.941 337.407 447.377 334.739 447.911L330.927 448.188L329.019 448.327L328.54 448.362C327.978 448.386 328.092 448.351 327.835 448.347L326.822 448.279C315.924 447.872 305.656 443.965 296.733 438.767C290.558 435.153 284.965 430.874 279.854 426.266C279.981 437.488 280.072 448.727 279.736 459.984C279.502 466.647 279.237 473.293 278.212 480.03C277.923 481.725 277.618 483.407 277.016 485.18C276.664 486.079 276.395 486.977 275.449 488.038C275.195 488.3 274.78 488.585 274.415 488.794L273.814 489.075L272.678 489.582L268.925 491.276C277.78 499.043 286.611 506.837 295.336 514.75C304.686 523.233 314.115 531.629 323.358 540.227Z" fill="#FFB5B3"/>
<path d="M388.004 517.125C388.238 506.552 388.523 498.302 388.693 493.825C380.843 501.659 372.974 509.477 365.005 517.192C356.134 525.75 347.355 534.404 338.393 542.863L331.176 580.183C330.864 581.791 329.308 582.844 327.705 582.531C326.466 582.293 325.559 581.308 325.349 580.144L318.873 543.658C309.876 535.263 301.044 526.689 292.142 518.19C283.904 510.32 275.774 502.336 267.663 494.332C267.833 498.781 268.118 507.027 268.351 517.6C268.47 525.679 268.759 535.108 268.803 545.206C268.862 555.308 268.929 566.079 268.993 576.854C268.925 587.629 268.858 598.4 268.795 608.502C268.763 613.684 268.676 618.676 268.585 623.41L268.775 660.188L329.161 660.081L388.218 660.192L388.285 646.832C388.194 643.602 388.099 639.976 388.012 636.018C387.889 627.911 387.62 618.45 387.557 608.32C387.494 598.187 387.426 587.38 387.359 576.569C387.426 565.763 387.49 554.952 387.549 544.818C387.596 534.693 387.881 525.232 388.004 517.125Z" fill="#282833" stroke="#282833" stroke-width="0.5" stroke-miterlimit="10"/>
<path opacity="0.5" d="M278.354 445.006C278.354 445.006 301.594 481.135 326.802 481.135C352.009 481.135 378.353 442.006 378.353 442.006V420.547C378.353 420.547 359.273 445.006 329.165 445.006C299.057 445.006 278.33 420.681 278.33 420.681L278.354 445.006Z" fill="#A0A0A0"/>
<path opacity="0.3" d="M151.493 571.352C135.945 607.806 218.918 644.932 334.783 644.932C450.647 644.932 524.75 607.936 513.096 575.877C513.096 575.877 539.895 607.956 539.143 662.643H119.184C119.184 662.643 117.557 616.047 151.493 571.352Z" fill="#A0A0A0"/>
<path opacity="0.5" d="M268.933 491.272L328.263 537.59L390.328 490.104L335.823 541.47L328.263 577.009L321.826 542.044L268.933 491.272Z" fill="#A0A0A0"/>
<path opacity="0.5" d="M293.068 237.431C292.138 251.095 279.174 264.542 259.378 267.919C259.378 267.919 245.503 289.528 249.956 328.42C254.41 367.312 259.378 403.497 295.356 434.603C295.356 434.603 263.3 412.411 254.58 388.399C245.855 364.391 243.73 328.785 242.51 322.629C241.287 316.478 232.749 273.14 247.106 255.683C247.106 255.683 273.335 269.403 293.068 237.431Z" fill="#A0A0A0"/>
<path opacity="0.5" d="M339.694 234.351C339.694 234.351 342.861 245.866 353.252 245.371C353.252 245.371 351.78 250.601 365.994 261.486C380.209 272.372 400.991 281.267 405.449 298.609C414.597 334.283 398.062 403.279 369.759 428.503C369.767 428.495 390.113 410.365 396.241 398.925C402.373 387.481 406.446 377.541 410.389 351.483C414.335 325.424 415.349 304.1 410.389 292.509C405.429 280.915 388.011 267.796 375.384 258.149C364.609 249.916 364.375 237.245 364.375 237.245C364.375 237.245 352.615 242.842 339.694 234.351Z" fill="#A0A0A0"/>
<path d="M437.425 283.33C455.207 261.942 448.774 220.133 413.896 214.48C418.686 189.609 409.831 167.271 385.775 156.266C366.695 147.538 339.596 152.217 328.603 170.169C313.513 156.983 295.308 149.581 275.247 157.371C257.968 164.08 246.869 181.957 245.436 200.02C226.752 194.778 208.895 208.554 203.258 227.551C198.955 242.043 202.003 266.89 221.423 274.7C213.605 280.65 209.406 288.69 209.56 299.16C209.873 320.682 229.895 313.77 240.4 323.861C241.342 324.763 242.783 323.857 242.514 322.63C238.647 304.951 237.629 286.762 242.142 269.111C242.633 267.191 246.96 255.597 247.11 255.68C260.509 263.173 291.433 254.017 291.607 232.736C301.741 247.585 332.063 245.257 339.489 230.995C344.583 238.29 355.038 240.17 364.629 236.845C363.944 248.273 372.578 256.361 381.793 263.252C388.756 268.462 396.115 273.085 401.874 279.704C411.193 290.419 416.07 302.045 414.348 320.088C414.055 323.136 413.433 325.709 414.375 328.456C418.813 316.656 434.397 318.584 441.586 302.164C444.63 295.213 442.963 287.391 437.425 283.33Z" stroke="#282833" stroke-miterlimit="10" stroke-linecap="round" stroke-linejoin="round"/>
<path d="M396.246 328.46C396.246 343.087 384.39 354.942 369.768 354.942C355.141 354.942 343.285 343.087 343.285 328.46C343.285 313.834 355.141 301.978 369.768 301.978C384.39 301.978 396.246 313.834 396.246 328.46Z" stroke="#282833" stroke-miterlimit="10"/>
<path d="M310.358 328.46C310.358 343.087 298.502 354.942 283.879 354.942C269.253 354.942 257.397 343.087 257.397 328.46C257.397 313.834 269.253 301.978 283.879 301.978C298.502 301.978 310.358 313.834 310.358 328.46Z" stroke="#282833" stroke-miterlimit="10"/>
<path d="M392.474 491.823L393.277 576.274L393.729 663.044L390.966 660.285C440.648 660.237 490.335 659.968 540.018 660.154L537.176 662.517C537.837 657.941 537.932 652.815 537.686 647.914C537.694 645.432 537.267 642.966 537.029 640.492L536.61 636.783L535.881 633.117C535.359 630.683 534.999 628.209 534.349 625.802L532.232 618.618C531.867 617.422 531.559 616.215 531.151 615.035L529.746 611.556L526.943 604.601C524.952 600.017 522.371 595.694 520.119 591.225C517.645 586.871 514.656 582.817 511.96 578.585C511.252 577.552 510.622 576.46 509.846 575.474L507.452 572.561L502.662 566.73C501.035 564.814 499.539 562.779 497.805 560.954L492.437 555.63L487.065 550.298C485.288 548.513 483.523 546.708 481.492 545.188L469.735 535.616C465.943 532.251 461.549 529.686 457.389 526.808L444.793 518.302L431.504 510.883C427.043 508.465 422.697 505.824 418.14 503.58L392.474 491.823ZM391.52 488.126L419.724 500.354C424.367 502.523 428.813 505.1 433.373 507.455L446.974 514.692L459.914 523.083C464.174 525.965 468.663 528.518 472.573 531.903L484.675 541.53C486.757 543.058 488.585 544.883 490.434 546.692L495.996 552.083L501.557 557.479C503.355 559.331 504.926 561.402 506.62 563.353L511.616 569.299L514.114 572.276C514.925 573.289 515.594 574.405 516.338 575.466C519.181 579.805 522.32 583.957 524.889 588.47C527.252 593.097 529.932 597.57 532.026 602.328L534.971 609.565L536.443 613.183C536.871 614.41 537.204 615.672 537.591 616.915L539.824 624.409C540.513 626.926 540.909 629.515 541.463 632.068L542.235 635.908L542.698 639.807C542.959 642.408 543.406 644.993 543.414 647.625C543.676 652.91 543.664 658.04 542.872 663.57C542.678 664.94 541.502 665.929 540.16 665.933H540.03C490.347 666.119 440.66 665.846 390.977 665.803C389.461 665.811 388.222 664.587 388.214 663.071V663.044L388.666 576.274L389.493 489.504V489.448C389.501 488.645 390.162 487.999 390.966 488.007C391.152 488.007 391.346 488.051 391.52 488.126Z" fill="#282833"/>
<path d="M267.508 490.67L268.335 576.854L268.787 663.038C268.795 664.558 267.567 665.793 266.051 665.801H266.024C217.291 665.845 168.554 666.114 119.821 665.928H119.687C118.333 665.924 117.213 664.938 116.991 663.648C116.057 658.177 115.91 653.091 116.041 647.846C115.982 645.233 116.374 642.66 116.571 640.075L116.948 636.2L117.632 632.372C118.131 629.831 118.46 627.25 119.113 624.748L121.195 617.27C121.563 616.027 121.848 614.765 122.28 613.549L123.685 609.939L126.495 602.719C128.546 597.989 131.127 593.504 133.423 588.892C135.98 584.427 139.016 580.251 141.807 575.928C143.141 573.719 144.831 571.779 146.474 569.804L151.39 563.874C153.073 561.943 154.565 559.833 156.41 558.048L161.904 552.676L167.398 547.308L170.145 544.624C171.107 543.781 172.129 543.017 173.118 542.21L185.093 532.638C188.952 529.265 193.457 526.803 197.653 523.914L210.486 515.601L223.969 508.432C228.489 506.1 232.887 503.519 237.503 501.406L265.462 489.289C266.202 488.968 267.061 489.309 267.381 490.045C267.461 490.227 267.496 490.417 267.5 490.603V490.67H267.508ZM264.515 492.986L239.086 504.632C234.554 506.821 230.259 509.469 225.837 511.86L212.663 519.207L200.174 527.631C196.081 530.52 191.668 532.99 187.927 536.347L176.297 545.855C175.335 546.659 174.337 547.423 173.411 548.25L170.763 550.906L165.467 556.207L160.17 561.503C158.389 563.257 156.976 565.331 155.361 567.223L150.658 573.034C149.086 574.962 147.463 576.862 146.205 579.016C143.564 583.227 140.679 587.293 138.216 591.596C136.035 596.045 133.557 600.368 131.606 604.916L128.938 611.847L127.6 615.315C127.188 616.479 126.923 617.69 126.578 618.874L124.611 626.027C123.994 628.417 123.705 630.88 123.234 633.298L122.588 636.944L122.252 640.625C122.078 643.076 121.702 645.526 121.777 647.98C121.646 652.841 121.876 657.916 122.656 662.421L119.829 660.141C168.562 659.955 217.299 660.224 266.032 660.267L263.269 663.03L263.72 576.846L264.515 492.986Z" fill="#282833"/>
<path d="M267.038 489.581C276.534 497.906 285.999 506.262 295.345 514.741C304.687 523.232 314.116 531.628 323.359 540.226C323.81 540.65 324.099 541.2 324.202 541.77L331.185 579.079L325.354 579.035L333.097 540.931C333.211 540.345 333.512 539.83 333.92 539.446C343.112 530.781 352.501 522.338 361.792 513.78C371.098 505.241 380.503 496.81 389.952 488.425C390.566 487.879 391.504 487.935 392.05 488.548C392.573 489.134 392.537 490.033 391.991 490.583C383.061 499.521 374.087 508.412 365.01 517.2C355.921 525.968 346.932 534.839 337.74 543.504L338.563 542.019L331.181 580.195C330.868 581.802 329.312 582.855 327.709 582.542C326.47 582.305 325.564 581.319 325.354 580.155L318.719 542.783L319.563 544.323C310.328 535.721 301.278 526.922 292.146 518.205C283.018 509.485 274.005 500.645 265.023 491.767C264.441 491.189 264.433 490.25 265.011 489.669C265.557 489.095 266.452 489.071 267.038 489.581Z" fill="#282833"/>
<path d="M243.979 322.455C243.979 322.455 244.668 327.51 245.871 336.357C246.524 340.759 247.316 346.107 248.223 352.242C248.761 355.286 249.331 358.525 249.937 361.941C250.23 363.647 250.534 365.4 250.847 367.19C251.255 368.943 251.67 370.736 252.094 372.565C252.522 374.394 252.961 376.259 253.412 378.159C253.776 379.841 254.663 381.891 255.285 383.795C256.06 385.632 256.904 387.398 257.739 389.242C258.736 391.055 259.75 392.892 260.779 394.76C265.165 402.088 270.746 409.284 277.214 416.021C283.71 422.727 291.212 428.95 299.627 433.795C308.011 438.62 317.44 442.025 327.004 442.349L327.899 442.421C327.962 442.429 328.394 442.448 328.148 442.452L328.627 442.417L330.535 442.294L334.351 442.037C336.663 441.538 338.911 441.229 341.219 440.568C345.846 439.186 350.387 437.417 354.626 435.062C363.169 430.478 370.805 424.441 377.447 417.886C384.062 411.299 389.809 404.233 394.377 397.009C398.945 389.741 402.342 382.509 403.901 375.186C405.881 367.748 406.973 360.967 408.212 354.93C409.23 348.818 410.116 343.486 410.849 339.1C412.135 330.281 412.875 325.242 412.875 325.242V325.218C412.994 324.406 413.746 323.844 414.558 323.963C415.349 324.078 415.904 324.806 415.816 325.598C415.816 325.598 415.254 330.677 414.277 339.567C413.695 344.009 412.994 349.396 412.187 355.583C411.153 361.77 410.255 368.892 408.398 376.282C406.918 383.989 403.347 392.069 398.736 399.697C394.077 407.372 388.277 414.901 381.354 421.817C374.442 428.72 366.47 435.133 357.342 440.113C352.813 442.658 347.893 444.637 342.798 446.177C340.237 446.937 337.419 447.373 334.751 447.907L330.939 448.184L329.031 448.323L328.552 448.358C327.99 448.382 328.105 448.346 327.847 448.343L326.834 448.275C315.936 447.867 305.668 443.96 296.746 438.763C287.784 433.518 279.974 426.927 273.216 419.865C266.451 412.799 260.795 405.155 256.334 397.345C255.288 395.35 254.255 393.383 253.238 391.443C252.351 389.397 251.437 387.346 250.661 385.363C250.047 383.336 249.307 381.638 248.828 379.433C248.401 377.45 247.981 375.506 247.573 373.602C247.174 371.698 246.782 369.834 246.398 368.009C246.129 366.188 245.863 364.407 245.606 362.669C245.119 359.197 244.66 355.904 244.225 352.805C243.532 346.613 242.93 341.21 242.431 336.765C241.545 327.882 241.034 322.807 241.034 322.807C240.951 321.992 241.545 321.263 242.36 321.18C243.156 321.101 243.872 321.671 243.979 322.455Z" fill="#282833"/>
<path d="M414.019 332.986C421.413 309.492 441.629 318.458 440.462 335.5C438.561 363.162 419.018 373.774 408.865 365.822" stroke="#282833" stroke-miterlimit="10"/>
<path d="M430.855 330.65C427.388 327.087 415.833 325.436 411.969 344.651" stroke="#282833" stroke-width="0.5" stroke-miterlimit="10" stroke-linecap="round"/>
<path d="M412.559 335.681C417.515 336.006 421.267 340.285 420.943 345.237" stroke="#282833" stroke-width="0.5" stroke-miterlimit="10" stroke-linecap="round" stroke-linejoin="round"/>
<path d="M243.603 333.73C236.208 310.236 214.528 318.458 215.7 335.499C217.596 363.161 237.139 373.774 247.3 365.821" stroke="#282833" stroke-miterlimit="10"/>
<path d="M225.302 330.65C228.774 327.087 240.329 325.436 244.188 344.651" stroke="#282833" stroke-width="0.5" stroke-miterlimit="10" stroke-linecap="round"/>
<path d="M243.602 335.681C238.646 336.006 234.893 340.285 235.214 345.237" stroke="#282833" stroke-width="0.5" stroke-miterlimit="10" stroke-linecap="round" stroke-linejoin="round"/>
<path d="M279.807 420.139C279.962 433.392 280.14 446.672 279.744 459.977C279.51 466.639 279.245 473.285 278.22 480.022C277.931 481.717 277.626 483.399 277.024 485.172C276.672 486.071 276.403 486.97 275.457 488.031C275.204 488.292 274.788 488.577 274.424 488.787L273.822 489.068L272.686 489.574L263.629 493.656C239.561 504.601 215.842 516.468 194.308 531.586C188.909 535.334 183.715 539.36 178.676 543.544C173.669 547.776 168.824 552.198 164.283 556.904C159.731 561.603 155.42 566.531 151.493 571.744C147.472 576.894 143.968 582.409 140.675 588.03C137.488 593.714 134.591 599.561 132.227 605.633C131.02 608.661 129.872 611.705 128.942 614.833C127.873 617.908 127.081 621.071 126.286 624.234C124.687 630.552 123.649 637.004 122.834 643.472C122.494 646.714 122.292 649.976 122.011 653.23L121.757 663.031L119.18 660.454L329.158 660.07L539.135 660.466L536.57 663.031L536.312 653.23C536.031 649.98 535.833 646.718 535.493 643.472C534.682 636.996 533.644 630.548 532.041 624.23C531.242 621.071 530.454 617.908 529.385 614.829C528.459 611.701 527.307 608.657 526.1 605.633C523.736 599.561 520.839 593.706 517.652 588.026C514.359 582.405 510.851 576.887 506.834 571.741C502.903 566.527 498.596 561.595 494.04 556.904C489.499 552.194 484.654 547.772 479.647 543.544C474.604 539.352 469.414 535.33 464.015 531.582C442.481 516.464 418.766 504.589 394.69 493.652L385.633 489.57L384.497 489.064L384.216 488.937L384.073 488.874L384.002 488.838C384.042 488.866 383.397 488.506 383.638 488.636C383.452 488.494 383.337 488.442 383.096 488.228C382.799 487.943 382.518 487.619 382.272 487.278C382.074 486.982 382.003 486.792 381.861 486.542C381.588 486.051 381.473 485.624 381.291 485.172C380.689 483.403 380.384 481.717 380.095 480.022C379.074 473.285 378.805 466.635 378.571 459.977C378.175 446.672 378.35 433.388 378.508 420.139C378.516 419.319 379.185 418.662 380.004 418.67C380.82 418.678 381.473 419.343 381.477 420.154C381.461 433.415 381.433 446.656 381.972 459.854C382.268 466.433 382.625 473.063 383.666 479.425C383.947 480.992 384.267 482.58 384.75 483.945C384.881 484.254 384.992 484.634 385.142 484.86L385.324 485.208C385.336 485.2 385.308 485.2 385.269 485.244C385.316 485.315 385.574 485.469 385.716 485.576C386.001 485.738 385.396 485.406 385.487 485.454L385.558 485.485L385.7 485.549L385.985 485.671L387.129 486.166L396.25 490.156C420.499 500.911 444.67 512.49 466.608 527.869C472.118 531.661 477.426 535.746 482.596 540.009C487.73 544.316 492.71 548.821 497.393 553.638C502.083 558.44 506.537 563.495 510.606 568.855C514.766 574.147 518.416 579.828 521.84 585.627C525.157 591.489 528.182 597.538 530.652 603.816C531.911 606.943 533.114 610.094 534.088 613.32C535.204 616.507 536.035 619.773 536.874 623.039C538.553 629.566 539.653 636.224 540.512 642.906C540.876 646.251 541.098 649.604 541.399 652.957L541.696 663.039C541.739 664.417 540.655 665.564 539.277 665.604H539.218H539.127L329.15 666L119.172 665.616L119.093 665.612C117.712 665.612 116.592 664.492 116.595 663.106V663.035L116.896 652.953C117.193 649.6 117.415 646.243 117.779 642.898C118.638 636.224 119.742 629.566 121.417 623.031C122.256 619.769 123.087 616.503 124.204 613.317C125.177 610.086 126.377 606.935 127.64 603.808C130.11 597.53 133.134 591.485 136.451 585.619C139.875 579.82 143.525 574.139 147.685 568.847C151.759 563.487 156.208 558.432 160.903 553.627C165.586 548.809 170.565 544.308 175.699 540.001C180.869 535.738 186.181 531.657 191.688 527.861C213.626 512.482 237.792 500.888 262.046 490.148L271.166 486.158L272.306 485.663C272.476 485.584 272.734 485.485 272.829 485.422C272.797 485.386 272.749 485.465 272.789 485.442C272.971 485.263 273.315 484.583 273.541 483.937C274.028 482.572 274.349 480.992 274.63 479.421C275.671 473.056 276.027 466.429 276.324 459.85C276.862 446.652 276.834 433.407 276.827 420.15C276.827 419.331 277.488 418.666 278.311 418.666C279.134 418.67 279.795 419.327 279.807 420.139Z" fill="#282833"/>
<path d="M319.452 296.614C319.452 296.614 319.452 353.822 319.452 357.686C319.452 361.545 321.668 364.724 326.138 364.724C330.611 364.724 340.384 364.724 340.384 364.724" stroke="#282833" stroke-miterlimit="10" stroke-linecap="round" stroke-linejoin="round"/>
<path d="M372.472 318.584C372.472 322.709 369.131 326.049 365.01 326.049C360.885 326.049 357.545 322.709 357.545 318.584C357.545 314.459 360.885 311.122 365.01 311.122C369.131 311.126 372.472 314.463 372.472 318.584Z" fill="#282833"/>
<path d="M280.429 318.584C280.429 322.709 283.77 326.049 287.891 326.049C292.012 326.049 295.356 322.709 295.356 318.584C295.356 314.459 292.012 311.122 287.891 311.122C283.77 311.126 280.429 314.463 280.429 318.584Z" fill="#282833"/>
<path d="M296.151 379.549C310.639 387.922 348.628 387.922 360.377 379.549" stroke="#282833" stroke-miterlimit="10" stroke-linecap="round" stroke-linejoin="round"/>
<path d="M317.938 393.276C324.47 393.933 331.433 394.012 337.901 393.509" stroke="#282833" stroke-width="0.5" stroke-miterlimit="10" stroke-linecap="round" stroke-linejoin="round"/>
<path d="M354.685 284.651C354.685 284.651 356.929 284.307 360.29 284.085C363.651 283.871 368.12 283.832 372.581 284.022C377.042 284.18 381.5 284.576 384.837 284.987C388.174 285.427 390.394 285.858 390.394 285.858C391.479 286.072 392.192 287.121 391.978 288.21C391.808 289.085 391.095 289.71 390.26 289.817C390.26 289.817 388.015 290.098 384.659 290.308C381.302 290.498 376.829 290.589 372.364 290.446C367.898 290.335 363.441 289.995 360.104 289.552C356.767 289.108 354.55 288.61 354.55 288.61C353.466 288.368 352.781 287.291 353.026 286.207C353.212 285.367 353.893 284.774 354.685 284.651Z" fill="#282833"/>
<path d="M301.8 288.607C301.8 288.607 299.579 289.105 296.246 289.549C292.909 289.992 288.452 290.332 283.986 290.443C279.525 290.59 275.052 290.495 271.695 290.305C268.339 290.095 266.094 289.814 266.094 289.814C264.994 289.675 264.214 288.674 264.352 287.577C264.463 286.695 265.132 286.018 265.96 285.855C265.96 285.855 268.18 285.424 271.517 284.985C274.854 284.573 279.311 284.173 283.773 284.019C288.234 283.829 292.703 283.868 296.064 284.082C299.42 284.304 301.665 284.648 301.665 284.648C302.765 284.814 303.517 285.844 303.351 286.944C303.221 287.791 302.583 288.428 301.8 288.607Z" fill="#282833"/>
<path d="M297.692 375.229L293.219 382.691" stroke="#282833" stroke-width="0.5" stroke-miterlimit="10" stroke-linecap="round" stroke-linejoin="round"/>
<path d="M391.812 490.104C391.812 490.104 392.294 500.911 392.651 517.125C392.77 525.232 393.058 534.692 393.102 544.822C393.161 554.956 393.229 565.763 393.292 576.573C393.225 587.38 393.157 598.19 393.094 608.324C393.031 618.458 392.766 627.915 392.639 636.022C392.283 652.236 391.812 663.042 391.812 663.042C391.776 663.862 391.083 664.495 390.26 664.459C389.488 664.424 388.874 663.798 388.843 663.042C388.843 663.042 388.372 652.236 388.011 636.022C387.889 627.915 387.62 618.454 387.556 608.324C387.493 598.19 387.426 587.384 387.358 576.573C387.426 565.767 387.489 554.956 387.548 544.822C387.592 534.692 387.877 525.232 388 517.125C388.356 500.911 388.839 490.104 388.839 490.104C388.874 489.285 389.571 488.651 390.39 488.687C391.166 488.719 391.772 489.348 391.812 490.104Z" fill="#282833"/>
<path d="M267.508 490.67C267.508 490.67 267.991 501.445 268.348 517.603C268.466 525.683 268.755 535.112 268.799 545.21C268.858 555.312 268.926 566.083 268.989 576.858C268.922 587.633 268.854 598.404 268.791 608.506C268.728 618.604 268.462 628.033 268.336 636.113C267.98 652.271 267.508 663.046 267.508 663.046C267.473 663.865 266.78 664.499 265.957 664.463C265.185 664.428 264.571 663.802 264.54 663.046C264.54 663.046 264.069 652.271 263.708 636.113C263.586 628.033 263.316 618.604 263.253 608.506C263.19 598.404 263.122 587.633 263.055 576.858C263.122 566.083 263.186 555.312 263.245 545.21C263.289 535.112 263.578 525.683 263.696 517.603C264.053 501.445 264.536 490.67 264.536 490.67C264.571 489.851 265.268 489.217 266.087 489.253C266.863 489.285 267.473 489.91 267.508 490.67Z" fill="#282833"/>
</g>
</svg>
