<svg width="660" height="660" viewBox="0 0 660 660" fill="none" xmlns="http://www.w3.org/2000/svg">
<mask id="mask0_42_1455" style="mask-type:alpha" maskUnits="userSpaceOnUse" x="0" y="0" width="660" height="660">
<circle cx="330" cy="330" r="330" fill="#D9D9D9"/>
</mask>
<g mask="url(#mask0_42_1455)">
<path d="M528.348 319.652C556.875 210.107 491.197 98.1785 381.652 69.6519C272.107 41.1253 160.179 106.803 131.652 216.348C103.125 325.892 168.803 437.821 278.348 466.347C387.892 494.874 499.821 429.196 528.348 319.652Z" fill="#A60036"/>
<path d="M580 660.739H80C80 660.739 80.4227 655.473 81.7638 647.696C82.4417 643.808 83.3418 639.293 84.5335 634.497C86.2609 627.565 88.6006 620.047 91.7347 612.995C93.473 609.081 95.4519 605.306 97.7259 601.851C102.318 594.836 108.054 589.158 115.208 586.293C121.45 583.797 131.837 578.924 144.38 572.773C146.119 571.92 147.901 571.045 149.712 570.145C149.723 570.134 149.741 570.134 149.749 570.127C153.196 568.418 156.764 566.636 160.434 564.795C164.632 562.693 168.95 560.506 173.335 558.279C194.206 547.678 216.64 536.016 234.854 526.479C237.726 524.978 240.488 523.52 243.127 522.132H243.138C244.876 521.22 246.545 520.339 248.171 519.493C248.181 519.482 248.189 519.482 248.189 519.482C262.62 511.876 272.15 506.814 272.15 506.814L275.973 507.667C311.52 515.63 348.411 515.339 383.819 506.814C383.819 506.814 393.677 511.895 408.615 519.518C410.765 520.615 413.017 521.763 415.357 522.955C416.352 523.462 417.358 523.968 418.382 524.486C418.382 524.497 418.393 524.497 418.393 524.497C428.739 529.774 440.645 535.812 452.992 542.026C463.932 547.536 475.208 553.181 486.042 558.542C490.623 560.816 495.12 563.032 499.486 565.16C519.224 574.832 536.141 582.831 544.789 586.297C551.888 589.143 557.595 594.766 562.176 601.705C564.486 605.207 566.512 609.048 568.28 613.039C571.425 620.109 573.754 627.649 575.481 634.588C576.655 639.293 577.536 643.724 578.203 647.554C579.57 655.408 580 660.739 580 660.739Z" fill="#3F2037"/>
<path d="M258.681 528.409C258.681 533.405 254.635 537.45 249.639 537.45C244.643 537.45 240.598 533.405 240.598 528.409C240.598 525.967 241.563 523.751 243.134 522.126H243.145C244.883 521.215 246.552 520.333 248.178 519.487C248.189 519.476 248.196 519.476 248.196 519.476C248.666 519.4 249.154 519.363 249.643 519.363C254.632 519.367 258.681 523.412 258.681 528.409Z" fill="#734669"/>
<path d="M298.826 528.407C298.826 533.4 294.777 537.445 289.788 537.445C284.796 537.445 280.75 533.396 280.75 528.407C280.75 523.418 284.799 519.369 289.788 519.369C294.777 519.365 298.826 523.414 298.826 528.407Z" fill="#734669"/>
<path d="M338.973 528.407C338.973 533.4 334.927 537.445 329.935 537.445C324.942 537.445 320.897 533.396 320.897 528.407C320.897 523.418 324.946 519.369 329.935 519.369C334.924 519.369 338.973 523.414 338.973 528.407Z" fill="#734669"/>
<path d="M379.12 528.407C379.12 533.4 375.072 537.445 370.082 537.445C365.09 537.445 361.045 533.396 361.045 528.407C361.045 523.418 365.093 519.369 370.082 519.369C375.075 519.365 379.12 523.414 379.12 528.407Z" fill="#734669"/>
<path d="M419.274 528.412C419.274 533.408 415.229 537.453 410.232 537.453C405.236 537.453 401.191 533.408 401.191 528.412C401.191 523.969 404.394 520.27 408.618 519.52C410.768 520.616 413.02 521.764 415.36 522.956C416.355 523.463 417.361 523.969 418.385 524.487C418.385 524.498 418.396 524.498 418.396 524.498C418.953 525.678 419.274 527.012 419.274 528.412Z" fill="#734669"/>
<path d="M178.381 566.377C178.381 571.373 174.325 575.418 169.339 575.418C164.343 575.418 160.298 571.369 160.298 566.377C160.298 565.834 160.345 565.305 160.44 564.791C164.638 562.689 168.957 560.502 173.341 558.275C176.326 559.755 178.381 562.827 178.381 566.377Z" fill="#734669"/>
<path d="M218.527 566.38C218.527 571.372 214.478 575.418 209.489 575.418C204.496 575.418 200.451 571.369 200.451 566.38C200.451 561.391 204.5 557.342 209.489 557.342C214.478 557.342 218.527 561.387 218.527 566.38Z" fill="#734669"/>
<path d="M258.677 566.38C258.677 571.372 254.628 575.418 249.639 575.418C244.646 575.418 240.601 571.369 240.601 566.38C240.601 561.391 244.646 557.342 249.639 557.342C254.628 557.342 258.677 561.387 258.677 566.38Z" fill="#734669"/>
<path d="M298.826 566.38C298.826 571.372 294.777 575.418 289.788 575.418C284.795 575.418 280.75 571.369 280.75 566.38C280.75 561.391 284.799 557.342 289.788 557.342C294.777 557.342 298.826 561.387 298.826 566.38Z" fill="#734669"/>
<path d="M338.971 566.38C338.971 571.372 334.926 575.418 329.933 575.418C324.94 575.418 320.895 571.369 320.895 566.38C320.895 561.391 324.944 557.342 329.933 557.342C334.922 557.342 338.971 561.387 338.971 566.38Z" fill="#734669"/>
<path d="M379.12 566.38C379.12 571.372 375.071 575.418 370.082 575.418C365.09 575.418 361.044 571.369 361.044 566.38C361.044 561.391 365.093 557.342 370.082 557.342C375.075 557.342 379.12 561.387 379.12 566.38Z" fill="#734669"/>
<path d="M419.27 566.38C419.27 571.372 415.224 575.418 410.232 575.418C405.239 575.418 401.194 571.369 401.194 566.38C401.194 561.391 405.243 557.342 410.232 557.342C415.224 557.342 419.27 561.387 419.27 566.38Z" fill="#734669"/>
<path d="M459.42 566.38C459.42 571.372 455.371 575.418 450.382 575.418C445.389 575.418 441.344 571.369 441.344 566.38C441.344 561.391 445.393 557.342 450.382 557.342C455.375 557.342 459.42 561.387 459.42 566.38Z" fill="#734669"/>
<path d="M499.572 566.378C499.572 571.374 495.527 575.42 490.53 575.42C485.534 575.42 481.489 571.371 481.489 566.378C481.489 563.025 483.318 560.095 486.044 558.539C490.625 560.813 495.122 563.029 499.488 565.157C499.543 565.562 499.572 565.966 499.572 566.378Z" fill="#734669"/>
<path d="M98.0744 604.359C98.0744 608.415 95.4068 611.841 91.7369 612.996C93.4753 609.082 95.4541 605.306 97.7282 601.852C97.9505 602.65 98.0744 603.484 98.0744 604.359Z" fill="#734669"/>
<path d="M138.227 604.356C138.227 609.349 134.178 613.394 129.189 613.394C124.197 613.394 120.151 609.349 120.151 604.356C120.151 599.364 124.197 595.318 129.189 595.318C134.178 595.318 138.227 599.364 138.227 604.356Z" fill="#734669"/>
<path d="M178.377 604.356C178.377 609.349 174.328 613.394 169.339 613.394C164.35 613.394 160.301 609.349 160.301 604.356C160.301 599.364 164.35 595.318 169.339 595.318C174.328 595.318 178.377 599.364 178.377 604.356Z" fill="#734669"/>
<path d="M218.527 604.356C218.527 609.349 214.478 613.394 209.489 613.394C204.496 613.394 200.451 609.349 200.451 604.356C200.451 599.364 204.5 595.318 209.489 595.318C214.478 595.318 218.527 599.364 218.527 604.356Z" fill="#734669"/>
<path d="M258.676 604.356C258.676 609.349 254.628 613.394 249.638 613.394C244.646 613.394 240.601 609.349 240.601 604.356C240.601 599.364 244.646 595.318 249.638 595.318C254.628 595.318 258.676 599.364 258.676 604.356Z" fill="#734669"/>
<path d="M298.826 604.356C298.826 609.349 294.777 613.394 289.788 613.394C284.795 613.394 280.75 609.349 280.75 604.356C280.75 599.364 284.799 595.318 289.788 595.318C294.777 595.318 298.826 599.364 298.826 604.356Z" fill="#734669"/>
<path d="M338.971 604.356C338.971 609.349 334.925 613.394 329.933 613.394C324.94 613.394 320.895 609.349 320.895 604.356C320.895 599.364 324.944 595.318 329.933 595.318C334.922 595.318 338.971 599.364 338.971 604.356Z" fill="#734669"/>
<path d="M379.12 604.356C379.12 609.349 375.071 613.394 370.082 613.394C365.089 613.394 361.044 609.349 361.044 604.356C361.044 599.364 365.093 595.318 370.082 595.318C375.075 595.318 379.12 599.364 379.12 604.356Z" fill="#734669"/>
<path d="M419.27 604.356C419.27 609.349 415.224 613.394 410.232 613.394C405.239 613.394 401.194 609.349 401.194 604.356C401.194 599.364 405.243 595.318 410.232 595.318C415.224 595.318 419.27 599.364 419.27 604.356Z" fill="#734669"/>
<path d="M459.42 604.356C459.42 609.349 455.371 613.394 450.382 613.394C445.389 613.394 441.344 609.349 441.344 604.356C441.344 599.364 445.393 595.318 450.382 595.318C455.375 595.318 459.42 599.364 459.42 604.356Z" fill="#734669"/>
<path d="M499.569 604.356C499.569 609.349 495.52 613.394 490.531 613.394C485.542 613.394 481.493 609.349 481.493 604.356C481.493 599.364 485.542 595.318 490.531 595.318C495.52 595.318 499.569 599.364 499.569 604.356Z" fill="#734669"/>
<path d="M539.717 604.356C539.717 609.349 535.669 613.394 530.68 613.394C525.687 613.394 521.642 609.349 521.642 604.356C521.642 599.364 525.691 595.318 530.68 595.318C535.672 595.318 539.717 599.364 539.717 604.356Z" fill="#734669"/>
<path d="M568.282 613.037C564.525 611.94 561.784 608.474 561.784 604.36C561.784 603.431 561.926 602.538 562.178 601.703C564.488 605.205 566.518 609.046 568.282 613.037Z" fill="#734669"/>
<path d="M98.0751 642.335C98.0751 647.332 94.03 651.377 89.0409 651.377C86.0562 651.377 83.4177 649.93 81.7632 647.707C82.441 643.819 83.3412 639.303 84.5329 634.507C85.8557 633.746 87.3973 633.305 89.0409 633.305C94.0263 633.301 98.0751 637.35 98.0751 642.335Z" fill="#734669"/>
<path d="M138.23 642.335C138.23 647.328 134.181 651.373 129.192 651.373C124.199 651.373 120.154 647.324 120.154 642.335C120.154 637.346 124.199 633.297 129.192 633.297C134.181 633.293 138.23 637.342 138.23 642.335Z" fill="#734669"/>
<path d="M178.377 642.335C178.377 647.328 174.328 651.373 169.339 651.373C164.35 651.373 160.301 647.324 160.301 642.335C160.301 637.346 164.35 633.297 169.339 633.297C174.328 633.297 178.377 637.342 178.377 642.335Z" fill="#734669"/>
<path d="M218.527 642.335C218.527 647.328 214.478 651.373 209.489 651.373C204.496 651.373 200.451 647.324 200.451 642.335C200.451 637.346 204.5 633.297 209.489 633.297C214.478 633.293 218.527 637.342 218.527 642.335Z" fill="#734669"/>
<path d="M258.676 642.335C258.676 647.328 254.628 651.373 249.638 651.373C244.646 651.373 240.601 647.324 240.601 642.335C240.601 637.346 244.646 633.297 249.638 633.297C254.628 633.293 258.676 637.342 258.676 642.335Z" fill="#734669"/>
<path d="M298.826 642.335C298.826 647.328 294.777 651.373 289.788 651.373C284.795 651.373 280.75 647.324 280.75 642.335C280.75 637.346 284.799 633.297 289.788 633.297C294.777 633.293 298.826 637.342 298.826 642.335Z" fill="#734669"/>
<path d="M338.973 642.335C338.973 647.328 334.927 651.373 329.935 651.373C324.942 651.373 320.897 647.324 320.897 642.335C320.897 637.346 324.946 633.297 329.935 633.297C334.924 633.297 338.973 637.342 338.973 642.335Z" fill="#734669"/>
<path d="M379.12 642.335C379.12 647.328 375.071 651.373 370.082 651.373C365.09 651.373 361.044 647.324 361.044 642.335C361.044 637.346 365.093 633.297 370.082 633.297C375.075 633.293 379.12 637.342 379.12 642.335Z" fill="#734669"/>
<path d="M419.27 642.335C419.27 647.328 415.224 651.373 410.232 651.373C405.239 651.373 401.194 647.324 401.194 642.335C401.194 637.346 405.243 633.297 410.232 633.297C415.224 633.293 419.27 637.342 419.27 642.335Z" fill="#734669"/>
<path d="M459.42 642.335C459.42 647.328 455.371 651.373 450.382 651.373C445.389 651.373 441.344 647.324 441.344 642.335C441.344 637.346 445.393 633.297 450.382 633.297C455.375 633.293 459.42 637.342 459.42 642.335Z" fill="#734669"/>
<path d="M499.569 642.335C499.569 647.328 495.521 651.373 490.532 651.373C485.542 651.373 481.494 647.324 481.494 642.335C481.494 637.346 485.542 633.297 490.532 633.297C495.521 633.297 499.569 637.342 499.569 642.335Z" fill="#734669"/>
<path d="M539.719 642.335C539.719 647.328 535.67 651.373 530.681 651.373C525.688 651.373 521.643 647.324 521.643 642.335C521.643 637.346 525.692 633.297 530.681 633.297C535.674 633.293 539.719 637.342 539.719 642.335Z" fill="#734669"/>
<path d="M578.206 647.554C576.573 649.864 573.876 651.377 570.826 651.377C565.83 651.377 561.785 647.332 561.785 642.335C561.785 637.35 565.83 633.305 570.826 633.305C572.524 633.305 574.121 633.775 575.484 634.591C576.657 639.292 577.539 643.724 578.206 647.554Z" fill="#734669"/>
<path d="M407.415 518.9C398.403 539.566 389.369 560.23 380.316 580.889C368.655 607.526 356.945 634.155 345.171 660.747H324.974C309.577 634.224 293.811 607.912 278.279 581.465C271.996 570.769 265.754 560.047 259.595 549.289C254.347 540.117 249.267 530.849 244.478 521.432C260.976 512.755 272.149 506.822 272.149 506.822L275.972 507.675C311.519 515.638 348.41 515.346 383.819 506.822C383.819 506.815 393.152 511.622 407.415 518.9Z" fill="#FFB8A1"/>
<path d="M380.318 580.883C368.656 607.519 356.947 634.148 345.172 660.741H324.975C309.578 634.217 293.813 607.905 278.281 581.459C301.805 588.011 338.441 593.146 380.318 580.883Z" fill="#FFF7F1"/>
<path d="M386.366 519.539C386.366 519.539 376.559 550.362 331.501 550.362C278.946 550.362 266.577 522.341 266.577 522.341C271.144 510.235 274.281 499.028 276.399 489.01H276.413C280.309 470.657 280.856 456.24 280.615 447.399L372.944 443.744C373.8 451.561 375.185 460.767 376.756 470.027C380.929 494.615 386.366 519.539 386.366 519.539Z" fill="#FFB8A1"/>
<path d="M332.127 564.622C304.561 564.622 286.529 550.493 276.259 538.642C265.177 525.854 260.643 513.234 260.454 512.705C260.119 511.758 260.614 510.715 261.565 510.38C262.513 510.045 263.555 510.541 263.89 511.488C263.934 511.612 268.431 524.079 279.098 536.353C293.3 552.694 311.143 560.982 332.127 560.982C382.138 560.982 394.149 512.177 394.266 511.685C394.495 510.705 395.479 510.096 396.456 510.326C397.436 510.555 398.045 511.535 397.815 512.516C397.691 513.048 394.648 525.708 385.057 538.543C376.161 550.438 359.758 564.622 332.127 564.622Z" fill="#FFF7F1"/>
<path d="M376.756 470.027C362.452 479.976 331.18 494.783 276.413 489.01C280.309 470.657 280.855 456.24 280.615 447.399L372.944 443.744C373.8 451.561 375.185 460.767 376.756 470.027Z" fill="#3F2037"/>
<path d="M245.371 326.994C245.371 326.994 216.796 288.102 194.573 311.12C172.35 334.137 215.211 414.305 254.103 396.841L245.371 326.994Z" fill="#FFB8A1"/>
<path d="M221.289 384.462C225.681 384.462 229.241 380.902 229.241 376.511C229.241 372.119 225.681 368.559 221.289 368.559C216.898 368.559 213.337 372.119 213.337 376.511C213.337 380.902 216.898 384.462 221.289 384.462Z" fill="#FFF7F1"/>
<path d="M233.501 372.958C232.532 372.958 231.686 372.244 231.548 371.256C227.791 344.233 206.311 327.648 206.096 327.484C205.229 326.825 205.057 325.585 205.717 324.718C206.377 323.851 207.612 323.679 208.483 324.339C209.42 325.05 231.479 342.091 235.455 370.709C235.604 371.792 234.853 372.787 233.771 372.936C233.687 372.951 233.592 372.958 233.501 372.958Z" fill="#FF8A8A"/>
<path d="M227.517 353.549C226.883 353.549 226.26 353.243 225.881 352.681C223.012 348.439 214.434 348.009 211.384 348.199C210.287 348.275 209.357 347.441 209.292 346.351C209.222 345.261 210.05 344.325 211.139 344.259C211.682 344.223 224.445 343.512 229.15 350.473C229.762 351.377 229.525 352.601 228.621 353.213C228.282 353.439 227.9 353.549 227.517 353.549Z" fill="#FF8A8A"/>
<path d="M419.441 326.994C419.441 326.994 448.016 288.102 470.239 311.12C492.466 334.137 449.601 414.305 410.709 396.841L419.441 326.994Z" fill="#FFB8A1"/>
<path d="M441.34 384.462C445.732 384.462 449.292 380.902 449.292 376.511C449.292 372.119 445.732 368.559 441.34 368.559C436.948 368.559 433.388 372.119 433.388 376.511C433.388 380.902 436.948 384.462 441.34 384.462Z" fill="#FFF7F1"/>
<path d="M430.934 372.959C430.843 372.959 430.752 372.952 430.661 372.941C429.579 372.791 428.828 371.793 428.977 370.714C432.953 342.092 455.012 325.051 455.949 324.34C456.82 323.681 458.055 323.848 458.715 324.719C459.375 325.587 459.207 326.826 458.34 327.485C458.121 327.649 436.638 344.293 432.888 371.257C432.753 372.245 431.904 372.959 430.934 372.959Z" fill="#FF8A8A"/>
<path d="M436.92 353.551C436.537 353.551 436.154 353.441 435.815 353.212C434.912 352.599 434.675 351.375 435.287 350.471C439.996 343.514 452.758 344.225 453.301 344.258C454.387 344.327 455.214 345.26 455.145 346.349C455.079 347.439 454.132 348.274 453.057 348.201C449.988 348.019 441.413 348.459 438.556 352.687C438.173 353.248 437.554 353.551 436.92 353.551Z" fill="#FF8A8A"/>
<path d="M345.258 210.402C260.834 207.939 221.293 253.106 227.732 346.375C231.734 404.309 262.896 474.764 331.497 476.379C402.991 478.062 435.528 396.951 437.084 337.035C438.716 274.028 423.756 231.882 371.628 214.794C368.013 213.609 349.143 210.515 345.258 210.402Z" fill="#FFB8A1"/>
<path d="M398.814 180.109C398.336 181.293 397.808 182.485 397.246 183.677C392.006 194.726 383.117 206.231 369.728 217.817H303.814C303.814 217.817 280.162 204.755 267.826 183.575C267.177 182.456 266.55 181.301 265.967 180.138C257.378 162.984 256.784 141.078 280.727 116.76C328.11 68.6185 425.067 115.707 398.814 180.109Z" fill="#FF4F4E"/>
<path d="M397.246 183.674C392.005 194.723 383.117 206.228 369.728 217.814H303.813C303.813 217.814 280.161 204.752 267.825 183.572C275.533 178.889 303.175 169.432 330.617 176.013C330.617 176.013 366.608 166.943 397.246 183.674Z" fill="#C42C31"/>
<path d="M242.365 300.991C242.365 300.991 332.124 277.762 332.124 230.922C332.124 230.922 352.766 295.612 422.252 300.991L437.197 312.245C437.197 312.245 445.178 305.805 451.286 304.067C451.286 304.067 469.267 161.702 331.898 180.743C331.898 180.743 289.241 171.181 254.099 195.506C203.232 230.718 223.531 308.006 223.531 308.006L242.365 300.991Z" fill="#FF4F4E"/>
<path d="M270.864 364.483C270.864 365.843 269.763 366.943 268.404 366.943C267.044 366.943 265.944 365.843 265.944 364.483C265.944 363.124 267.044 362.023 268.404 362.023C269.763 362.023 270.864 363.124 270.864 364.483Z" fill="#FF8A8A"/>
<path d="M282.872 370.421C282.872 371.78 281.771 372.881 280.412 372.881C279.052 372.881 277.952 371.78 277.952 370.421C277.952 369.061 279.052 367.961 280.412 367.961C281.771 367.961 282.872 369.061 282.872 370.421Z" fill="#FF8A8A"/>
<path d="M270.864 378.97C270.864 380.329 269.763 381.429 268.404 381.429C267.044 381.429 265.944 380.329 265.944 378.97C265.944 377.61 267.044 376.51 268.404 376.51C269.763 376.51 270.864 377.61 270.864 378.97Z" fill="#FF8A8A"/>
<path d="M289.742 381.433C289.742 382.792 288.641 383.892 287.282 383.892C285.922 383.892 284.822 382.792 284.822 381.433C284.822 380.073 285.922 378.973 287.282 378.973C288.641 378.973 289.742 380.073 289.742 381.433Z" fill="#FF8A8A"/>
<path d="M302.321 378.97C302.321 380.329 301.22 381.429 299.861 381.429C298.502 381.429 297.401 380.329 297.401 378.97C297.401 377.61 298.502 376.51 299.861 376.51C301.22 376.51 302.321 377.61 302.321 378.97Z" fill="#FF8A8A"/>
<path d="M296.603 366.946C296.603 368.306 295.503 369.406 294.143 369.406C292.784 369.406 291.683 368.306 291.683 366.946C291.683 365.587 292.784 364.486 294.143 364.486C295.499 364.486 296.603 365.587 296.603 366.946Z" fill="#FF8A8A"/>
<path d="M396.037 364.483C396.037 365.843 397.138 366.943 398.497 366.943C399.857 366.943 400.957 365.843 400.957 364.483C400.957 363.124 399.857 362.023 398.497 362.023C397.138 362.023 396.037 363.124 396.037 364.483Z" fill="#FF8A8A"/>
<path d="M384.03 370.421C384.03 371.78 385.131 372.881 386.49 372.881C387.849 372.881 388.95 371.78 388.95 370.421C388.95 369.061 387.849 367.961 386.49 367.961C385.131 367.961 384.03 369.061 384.03 370.421Z" fill="#FF8A8A"/>
<path d="M396.037 378.97C396.037 380.329 397.138 381.429 398.497 381.429C399.857 381.429 400.957 380.329 400.957 378.97C400.957 377.61 399.857 376.51 398.497 376.51C397.138 376.51 396.037 377.61 396.037 378.97Z" fill="#FF8A8A"/>
<path d="M377.161 381.433C377.161 382.792 378.261 383.892 379.621 383.892C380.98 383.892 382.08 382.792 382.08 381.433C382.08 380.073 380.98 378.973 379.621 378.973C378.261 378.973 377.161 380.073 377.161 381.433Z" fill="#FF8A8A"/>
<path d="M364.581 378.97C364.581 380.329 365.681 381.429 367.04 381.429C368.4 381.429 369.5 380.329 369.5 378.97C369.5 377.61 368.4 376.51 367.04 376.51C365.681 376.51 364.581 377.61 364.581 378.97Z" fill="#FF8A8A"/>
<path d="M370.301 366.946C370.301 368.306 371.402 369.406 372.761 369.406C374.12 369.406 375.221 368.306 375.221 366.946C375.221 365.587 374.12 364.486 372.761 364.486C371.402 364.486 370.301 365.587 370.301 366.946Z" fill="#FF8A8A"/>
<path d="M231.1 362.96C231.1 362.96 248.003 327.282 242.369 300.992L220.182 286.889C220.182 286.889 223.626 340.905 231.1 362.96Z" fill="#FF4F4E"/>
<path d="M433.519 362.962C433.519 362.962 416.617 327.284 422.251 300.994L440.717 295.615C440.717 295.615 443.534 340.739 433.519 362.962Z" fill="#FF4F4E"/>
<path d="M262.273 320.398C262.273 320.398 266.843 309.09 282.335 299.429C301.909 287.224 316.016 308.219 316.016 308.219C316.016 308.219 300.659 302.872 288.866 306.626C277.328 310.299 262.273 320.398 262.273 320.398Z" fill="#FF4F4E"/>
<path d="M406.511 320.398C406.511 320.398 401.941 309.09 386.449 299.429C366.876 287.224 352.769 308.219 352.769 308.219C352.769 308.219 368.126 302.872 379.919 306.626C391.457 310.299 406.511 320.398 406.511 320.398Z" fill="#FF4F4E"/>
<path d="M337.201 395.437C333.815 395.437 330.102 394.551 326.013 392.777C324.894 392.292 324.235 391.126 324.391 389.916L330.109 346.02C330.306 344.522 331.68 343.465 333.174 343.662C334.672 343.855 335.725 345.229 335.532 346.723L330.091 388.52C335.754 390.608 340.127 390.433 343.735 387.999C344.989 387.153 346.687 387.485 347.529 388.739C348.375 389.989 348.043 391.691 346.793 392.532C343.918 394.471 340.74 395.437 337.201 395.437Z" fill="#FF8A8A"/>
<path d="M331.781 424.461C329.376 424.461 327.113 424.312 325.024 424.071C312.532 422.632 303.796 417.818 303.432 417.614C302.113 416.878 301.642 415.212 302.379 413.893C303.115 412.577 304.777 412.104 306.096 412.836C307.411 413.569 338.676 430.449 365.739 405.416C366.847 404.392 368.574 404.458 369.602 405.566C370.626 406.674 370.56 408.405 369.452 409.429C356.577 421.338 342.743 424.461 331.781 424.461Z" fill="#FF8A8A"/>
<path d="M336.552 440.483C330.192 440.483 325.094 438.931 324.74 438.818C323.301 438.37 322.496 436.835 322.944 435.396C323.392 433.956 324.926 433.151 326.366 433.599C326.552 433.654 339.037 437.407 347.834 432.433C349.146 431.689 350.816 432.152 351.559 433.468C352.302 434.783 351.84 436.449 350.524 437.192C346.041 439.725 340.99 440.483 336.552 440.483Z" fill="#FF8A8A"/>
<path d="M299.693 336.918C299.824 344.549 297.011 350.788 293.41 350.85C289.806 350.912 286.778 344.778 286.643 337.144C286.512 329.512 289.325 323.273 292.926 323.211C296.534 323.149 299.562 329.287 299.693 336.918Z" fill="#3F2037"/>
<path d="M367.9 336.918C367.768 344.549 370.582 350.788 374.182 350.85C377.787 350.912 380.815 344.778 380.95 337.144C381.081 329.512 378.268 323.273 374.667 323.211C371.063 323.149 368.035 329.287 367.9 336.918Z" fill="#3F2037"/>
<path d="M286.162 390.444C262.929 390.444 244.03 371.544 244.03 348.312C244.03 325.083 262.929 306.184 286.162 306.184C309.394 306.184 328.294 325.083 328.294 348.312C328.294 371.544 309.394 390.444 286.162 390.444ZM286.162 309.828C264.941 309.828 247.674 327.091 247.674 348.312C247.674 369.533 264.941 386.799 286.162 386.799C307.383 386.799 324.65 369.533 324.65 348.312C324.65 327.091 307.383 309.828 286.162 309.828Z" fill="white"/>
<path d="M380.955 390.444C357.722 390.444 338.823 371.544 338.823 348.312C338.823 325.083 357.722 306.184 380.955 306.184C404.187 306.184 423.087 325.083 423.087 348.312C423.087 371.544 404.187 390.444 380.955 390.444ZM380.955 309.828C359.734 309.828 342.467 327.091 342.467 348.312C342.467 369.533 359.734 386.799 380.955 386.799C402.176 386.799 419.442 369.533 419.442 348.312C419.442 327.091 402.179 309.828 380.955 309.828Z" fill="white"/>
<path d="M250.62 331.112C250.007 331.112 249.41 330.802 249.063 330.241C248.947 330.051 237.281 311.29 219.53 304.559C218.59 304.202 218.116 303.153 218.473 302.209C218.83 301.268 219.88 300.791 220.824 301.152C239.763 308.331 251.673 327.522 252.172 328.335C252.697 329.191 252.427 330.314 251.571 330.838C251.275 331.024 250.944 331.112 250.62 331.112Z" fill="white"/>
<path d="M419.726 331.111C419.383 331.111 419.041 331.016 418.735 330.816C417.893 330.265 417.652 329.139 418.203 328.294C418.757 327.445 431.945 307.434 450.859 300.262C451.8 299.904 452.853 300.378 453.21 301.318C453.567 302.259 453.093 303.312 452.153 303.669C434.372 310.411 421.388 330.083 421.26 330.283C420.903 330.819 420.32 331.111 419.726 331.111Z" fill="white"/>
<path d="M340.645 344.402C339.723 344.402 338.932 343.705 338.834 342.769C338.772 342.226 338.08 337.379 333.215 337.379C328.415 337.379 327.919 342.16 327.879 342.707C327.803 343.705 326.939 344.474 325.933 344.394C324.935 344.325 324.177 343.465 324.242 342.466C324.435 339.449 326.56 333.738 333.215 333.738C339.814 333.738 342.147 339.402 342.457 342.394C342.559 343.396 341.833 344.289 340.831 344.394C340.773 344.402 340.707 344.402 340.645 344.402Z" fill="white"/>
</g>
</svg>
