<svg width="660" height="660" viewBox="0 0 660 660" fill="none" xmlns="http://www.w3.org/2000/svg">
<mask id="mask0_42_1400" style="mask-type:alpha" maskUnits="userSpaceOnUse" x="0" y="0" width="660" height="660">
<circle cx="330" cy="330" r="330" fill="#D9D9D9"/>
</mask>
<g mask="url(#mask0_42_1400)">
<path d="M528.348 349.652C556.875 240.107 491.197 128.179 381.652 99.6519C272.107 71.1253 160.179 136.803 131.652 246.348C103.125 355.892 168.803 467.821 278.348 496.347C387.892 524.874 499.821 459.196 528.348 349.652Z" fill="#A10321"/>
<path d="M276.992 431.061C277.045 430.23 277.072 429.389 277.072 428.539C277.072 429.403 277.037 430.238 276.992 431.061Z" fill="#CC723B"/>
<path d="M312.816 456.84C340.079 461.146 367.057 442.884 382.926 412.881V397.113C375.094 404.215 366.376 412.716 359.966 416.89C351.855 422.172 338.236 422.172 329.999 422.172C321.762 422.172 308.143 422.172 300.033 416.89C293.622 412.716 284.902 404.215 277.072 397.113V428.54C277.072 429.39 277.045 430.231 276.993 431.061C276.935 432.119 276.849 433.154 276.723 434.154C286.065 446.33 298.431 454.567 312.816 456.84Z" fill="#CC723B"/>
<path d="M382.926 428.538V412.879C367.057 442.882 340.078 461.144 312.816 456.839C298.431 454.565 286.065 446.328 276.723 434.154C276.849 433.154 276.934 432.119 276.993 431.061C276.237 443.271 269.918 453.36 257.684 461.424C256.127 462.451 253.73 463.662 250.74 464.99L250.742 464.988C250.717 468.586 250.917 473.212 251.301 478.63C273.308 519.798 302.449 551.653 329.999 566.953C357.546 551.653 386.69 519.798 408.697 478.632C409.079 473.214 409.281 468.588 409.256 464.99C409.256 464.99 409.26 464.992 409.264 464.992C406.272 463.662 403.873 462.451 402.316 461.424C389.245 452.81 382.926 441.886 382.926 428.538Z" fill="#E08D4F"/>
<path d="M268.454 277.672C267.111 278.058 266.733 277.938 267.934 276.08C272.607 268.855 288.518 266.111 305.765 268.54C308.731 268.957 316.961 270.829 317.17 274.888C317.316 277.734 315.957 281.495 314.437 282.506C314.356 282.56 314.237 282.584 314.148 282.632C317.667 283.962 321.164 285.535 324.59 287.455C326.411 287.604 329.997 287.455 329.997 287.455C329.997 287.455 333.583 287.604 335.403 287.455C338.83 285.535 342.326 283.962 345.846 282.632C345.757 282.584 345.638 282.56 345.557 282.506C344.037 281.495 342.678 277.734 342.823 274.888C343.033 270.829 351.262 268.957 354.229 268.54C371.477 266.111 387.389 268.855 392.061 276.08C393.263 277.938 392.885 278.058 391.541 277.672C386.845 276.319 382.143 276.366 377.457 277.082C386.88 277.07 395.505 278.35 402.384 280.066C402.364 279.726 402.352 279.386 402.331 279.049C401.855 270.868 400.485 255.188 399.227 244.324C370.588 246.488 326.508 231.282 303.775 218.1C304.395 218.687 304.992 219.294 305.625 219.865C317.856 230.853 331.965 237.43 347.818 241.435C348.032 241.489 347.989 241.837 347.766 241.823C331.692 240.808 315.866 233.091 303.67 222.802C298.815 218.706 294.449 213.979 290.642 208.867C285.818 204.812 282.455 200.974 280.048 196.326C281.364 200.566 284.259 207 288.778 210.589C290.483 211.942 290.271 212.49 289.106 212.387C283.003 211.845 276.789 212.946 271.887 216.633C265.463 221.461 263.448 227.498 262.079 234.796C260.656 242.382 258.315 267.814 257.663 279.049C257.643 279.388 257.63 279.728 257.612 280.066C264.49 278.35 273.114 277.07 282.539 277.082C277.851 276.366 273.151 276.319 268.454 277.672Z" fill="#E08D4F"/>
<path d="M372.489 282.021C358.49 282.021 344.858 285.974 343.478 292.877C342.307 298.727 341.895 310.957 351.282 320.677C359.412 329.095 376.515 330.57 385.181 327.274C397.555 322.564 399.064 305.498 399.064 294.295C399.064 289.923 397.251 287.818 394.236 286.234C389.311 283.646 381.172 282.021 372.489 282.021ZM383.741 298.47C380.299 299.627 376.83 300.456 372.834 301.167H372.831C372.033 301.309 371.215 301.448 370.371 301.582C370.349 301.586 370.328 301.59 370.307 301.592C369.472 301.724 368.616 301.854 367.727 301.982C367.701 301.986 367.678 301.99 367.653 301.994C367.245 302.052 366.88 302.103 366.494 302.157C365.333 302.322 364.24 302.472 363.219 302.605C363.186 302.609 363.149 302.615 363.118 302.619C358.503 303.223 355.085 303.52 351.117 303.518C350.581 303.601 349.016 303.759 349.043 303.708C350.14 301.711 350.699 300.536 351.806 298.946C353.64 296.31 356.682 294.953 362.019 294.452C367.725 293.916 380.578 294.434 386.68 297.618C387.538 298.067 385.201 298.554 383.741 298.47Z" fill="#E08D4F"/>
<path d="M287.509 282.021C278.825 282.021 270.687 283.644 265.762 286.232C262.747 287.816 260.934 289.921 260.934 294.293C260.934 305.496 262.442 322.564 274.816 327.272C283.484 330.57 300.587 329.093 308.716 320.675C318.104 310.955 317.691 298.725 316.52 292.876C315.138 285.976 301.508 282.021 287.509 282.021ZM308.877 303.52C304.911 303.522 301.49 303.225 296.876 302.621C296.843 302.617 296.806 302.611 296.773 302.607C295.775 302.475 294.705 302.33 293.573 302.169C293.164 302.11 292.774 302.058 292.341 301.994C292.315 301.99 292.292 301.986 292.267 301.982C291.378 301.854 290.524 301.724 289.687 301.592C289.665 301.588 289.644 301.584 289.623 301.582C288.778 301.448 287.961 301.309 287.163 301.167H287.159C283.164 300.454 279.695 299.626 276.255 298.47C274.795 298.552 272.457 298.067 273.312 297.62C279.411 294.436 292.267 293.918 297.971 294.454C303.307 294.955 306.349 296.312 308.184 298.948C309.29 300.538 309.85 301.711 310.946 303.71C310.977 303.761 309.413 303.603 308.877 303.52Z" fill="#E08D4F"/>
<path d="M417.336 274.206C415.581 276.592 414.309 278.924 413.28 281.224C412.983 287.139 412.411 292.451 412.411 292.451C412.411 292.451 412.112 292.462 411.648 292.567C410.881 292.742 409.662 293.179 408.571 294.256C407.748 295.072 406.998 296.252 406.581 297.972C406.474 298.415 406.362 298.867 406.253 299.315C405.42 302.722 404.542 306.215 403.667 309.247C403.29 310.554 402.869 312.157 402.316 313.899C400.875 318.436 398.511 323.949 393.467 327.884C380.542 337.967 358.876 335.554 348.523 325.737C342.816 320.325 336.481 309.016 335.945 296.363C335.864 294.447 335.095 293.524 333.856 293.524C331.651 293.524 330.001 293.524 330.001 293.524C330.001 293.524 328.353 293.524 326.146 293.524C324.907 293.524 324.138 294.447 324.057 296.363C323.519 309.018 317.186 320.327 311.479 325.737C301.125 335.554 279.458 337.969 266.535 327.884C261.491 323.949 259.127 318.436 257.686 313.899C257.133 312.157 256.712 310.554 256.335 309.247C255.459 306.215 254.582 302.722 253.749 299.315C253.638 298.867 253.528 298.417 253.421 297.972C253.004 296.252 252.254 295.072 251.431 294.256C250.342 293.177 249.121 292.74 248.356 292.567C247.892 292.462 247.593 292.451 247.593 292.451C247.593 292.451 247.018 287.139 246.721 281.224C245.692 278.922 244.421 276.592 242.666 274.206C235.887 264.989 229.987 266.464 228.519 273.991C226.24 285.681 229.079 299.308 231.094 311.074C232.738 320.674 235.914 334.527 239.76 340.249C244.235 346.909 248.073 344.428 251.08 338.476C252.142 347.777 253.411 356.779 254.691 366.849C255.617 374.144 264.737 386.037 275.706 395.87C276.16 396.276 276.618 396.691 277.078 397.108C284.908 404.21 293.628 412.711 300.038 416.885C308.149 422.167 321.768 422.167 330.005 422.167C338.242 422.167 351.86 422.167 359.971 416.885C366.382 412.711 375.102 404.21 382.932 397.108C383.392 396.691 383.85 396.276 384.304 395.87C395.273 386.037 404.393 374.144 405.319 366.849C406.598 356.779 407.868 347.777 408.93 338.476C411.937 344.428 415.775 346.907 420.25 340.249C424.096 334.527 427.272 320.674 428.916 311.074C430.931 299.306 433.769 285.679 431.49 273.991C430.015 266.464 424.115 264.989 417.336 274.206ZM314.556 341.666C315.344 338.484 320.684 339.157 322.309 339.09C324.367 339.002 326.444 339.095 328.504 339.103C329.323 339.105 331.104 339.253 332.672 339.501C333.812 339.528 334.951 339.559 336.093 339.567C337.328 339.575 341.866 339.519 343.107 340.052C343.478 340.212 343.87 340.289 344.225 340.491C344.87 340.86 345.415 341.303 345.514 342.093C345.631 343.017 344.986 343.588 344.365 344.143C343.045 345.329 336.431 353.195 334.181 353.98C334.177 353.983 334.175 353.991 334.171 353.995C332.527 355.523 328.85 354.548 326.967 353.98C323.841 353.034 320.451 350.114 317.873 348.156C316.423 347.055 313.993 343.939 314.556 341.666ZM291.826 370.761C292.521 370.357 293.651 371.219 294.502 371.842C304.892 369.974 320.238 366.956 329.999 366.872C339.76 366.956 355.108 369.974 365.496 371.842C366.345 371.217 367.475 370.355 368.17 370.761C368.641 371.036 369.294 371.391 369.369 371.902C369.49 372.715 368.608 373.191 367.95 373.354C367.018 373.585 366.088 373.084 365.143 373.005C364.9 373.026 364.658 373.047 364.419 373.071C361.788 374.439 350.752 379.403 344.771 380.444C339.877 381.294 334.924 381.395 329.997 381.626C325.07 381.395 320.118 381.294 315.223 380.444C309.242 379.403 298.206 374.441 295.575 373.071C295.336 373.047 295.096 373.024 294.851 373.005C293.906 373.082 292.976 373.585 292.044 373.354C291.386 373.191 290.506 372.715 290.625 371.902C290.703 371.391 291.355 371.034 291.826 370.761ZM339.182 387.052C336.728 387.706 334.284 388.464 331.94 389.45C330.863 389.902 329.817 390.626 328.605 390.657C326.182 390.721 322.597 388.367 320.436 387.34C319.921 387.095 320.03 386.247 320.661 386.311C321.125 386.359 321.589 386.375 322.053 386.417C322.104 386.348 322.173 386.289 322.271 386.291C327.902 386.332 333.497 385.975 339.133 386.142C339.682 386.157 339.653 386.926 339.182 387.052Z" fill="#E08D4F"/>
<path d="M250.742 464.988L250.74 464.99C230.768 473.87 163.079 490.412 157.331 491.878C157.071 491.944 156.82 492.018 156.562 492.085C156.216 492.177 155.873 492.27 155.531 492.365C154.904 492.54 154.289 492.722 153.677 492.907C153.37 493 153.062 493.091 152.759 493.188C152.017 493.425 151.287 493.672 150.569 493.926C150.418 493.98 150.262 494.029 150.113 494.083C149.251 494.396 148.408 494.722 147.579 495.062C147.346 495.157 147.123 495.258 146.894 495.355C146.3 495.605 145.714 495.861 145.139 496.127C144.854 496.259 144.574 496.395 144.293 496.531C143.778 496.78 143.27 497.034 142.769 497.294C142.489 497.44 142.212 497.585 141.936 497.735C141.419 498.016 140.913 498.306 140.412 498.601C140.179 498.737 139.944 498.87 139.715 499.01C139.012 499.439 138.321 499.878 137.649 500.336C137.634 500.346 137.618 500.356 137.603 500.367C136.915 500.835 136.25 501.322 135.595 501.823C135.39 501.98 135.19 502.145 134.986 502.307C134.539 502.658 134.099 503.017 133.668 503.384C133.439 503.578 133.215 503.778 132.99 503.976C132.588 504.333 132.192 504.698 131.804 505.069C131.588 505.275 131.373 505.479 131.163 505.688C130.748 506.1 130.344 506.525 129.944 506.954C129.781 507.129 129.612 507.3 129.451 507.478C128.9 508.09 128.36 508.717 127.838 509.363C127.756 509.464 127.681 509.571 127.601 509.672C127.162 510.225 126.731 510.79 126.312 511.369C126.147 511.598 125.988 511.833 125.827 512.066C125.499 512.536 125.178 513.009 124.864 513.495C124.693 513.761 124.524 514.028 124.355 514.298C124.054 514.782 123.761 515.277 123.474 515.778C123.32 516.045 123.163 516.311 123.014 516.583C122.689 517.168 122.377 517.767 122.07 518.373C121.971 518.569 121.868 518.757 121.769 518.956C121.369 519.765 120.985 520.594 120.612 521.442C120.525 521.642 120.441 521.852 120.356 522.056C120.076 522.712 119.801 523.378 119.537 524.057C119.416 524.368 119.3 524.686 119.181 525.003C118.958 525.603 118.741 526.208 118.527 526.826C118.411 527.167 118.294 527.509 118.182 527.855C117.974 528.489 117.774 529.134 117.578 529.786C117.479 530.118 117.376 530.444 117.281 530.78C117.044 531.603 116.817 532.446 116.598 533.298C116.555 533.467 116.508 533.628 116.465 533.797C116.207 534.824 115.963 535.876 115.73 536.946C115.662 537.257 115.6 537.579 115.536 537.893C115.375 538.67 115.215 539.452 115.066 540.25C114.99 540.654 114.918 541.062 114.846 541.471C114.714 542.215 114.588 542.966 114.468 543.729C114.4 544.154 114.332 544.581 114.268 545.012C114.146 545.824 114.033 546.649 113.922 547.482C113.872 547.866 113.817 548.246 113.769 548.635C113.618 549.858 113.474 551.098 113.344 552.368C112.051 565.064 105 659.578 105 659.578H180.549C180.471 624.694 180.803 591.022 180.803 591.022C184.304 620.627 186.853 642.718 189.77 659.578H228.673H277.971C271.212 628.907 254.561 524.712 251.301 478.628C250.919 473.212 250.717 468.586 250.742 464.988Z" fill="#181A1A"/>
<path d="M555 659.582C555 659.582 547.949 565.068 546.656 552.372C546.526 551.102 546.382 549.862 546.231 548.639C546.182 548.248 546.128 547.87 546.077 547.485C545.967 546.653 545.854 545.828 545.732 545.016C545.668 544.585 545.6 544.158 545.532 543.733C545.412 542.972 545.285 542.221 545.153 541.479C545.082 541.067 545.008 540.656 544.932 540.25C544.783 539.45 544.623 538.666 544.462 537.889C544.396 537.579 544.336 537.26 544.268 536.954C544.035 535.882 543.79 534.828 543.532 533.801C543.49 533.632 543.443 533.473 543.4 533.304C543.181 532.448 542.954 531.605 542.717 530.78C542.62 530.446 542.519 530.12 542.42 529.792C542.224 529.14 542.024 528.495 541.816 527.862C541.702 527.513 541.585 527.167 541.467 526.824C541.257 526.21 541.038 525.607 540.816 525.011C540.698 524.692 540.581 524.372 540.459 524.059C540.197 523.382 539.923 522.72 539.644 522.066C539.556 521.86 539.473 521.646 539.382 521.44C539.011 520.594 538.625 519.765 538.227 518.958C538.13 518.76 538.027 518.573 537.928 518.377C537.619 517.769 537.306 517.17 536.982 516.583C536.833 516.311 536.677 516.047 536.524 515.782C536.235 515.281 535.942 514.786 535.641 514.3C535.474 514.03 535.303 513.763 535.132 513.497C534.82 513.011 534.497 512.539 534.171 512.072C534.008 511.837 533.847 511.6 533.68 511.371C533.261 510.79 532.828 510.223 532.387 509.67C532.309 509.571 532.236 509.468 532.156 509.371C531.634 508.725 531.094 508.098 530.543 507.486C530.382 507.308 530.211 507.135 530.048 506.958C529.648 506.529 529.244 506.106 528.831 505.694C528.619 505.485 528.405 505.281 528.19 505.075C527.802 504.704 527.406 504.339 527.004 503.982C526.779 503.782 526.553 503.582 526.324 503.388C525.893 503.021 525.455 502.664 525.008 502.312C524.804 502.151 524.604 501.984 524.397 501.827C523.742 501.328 523.076 500.839 522.389 500.371C522.37 500.358 522.35 500.346 522.331 500.334C521.663 499.88 520.976 499.441 520.277 499.016C520.048 498.876 519.811 498.742 519.578 498.606C519.077 498.311 518.571 498.022 518.054 497.741C517.78 497.591 517.503 497.446 517.225 497.302C516.724 497.042 516.216 496.785 515.699 496.537C515.418 496.401 515.136 496.265 514.851 496.133C514.278 495.867 513.692 495.613 513.102 495.363C512.871 495.264 512.646 495.163 512.411 495.067C511.584 494.728 510.739 494.402 509.879 494.089C509.73 494.035 509.572 493.986 509.423 493.932C508.705 493.677 507.975 493.431 507.233 493.194C506.93 493.097 506.622 493.006 506.313 492.913C505.703 492.726 505.088 492.546 504.463 492.371C504.121 492.276 503.776 492.183 503.43 492.091C503.172 492.023 502.923 491.95 502.661 491.884C496.913 490.418 429.234 473.878 409.256 464.998L409.248 464.996C409.273 468.593 409.071 473.22 408.689 478.638C405.429 524.723 388.78 628.917 382.019 659.588H431.319H470.222C473.139 642.727 475.686 620.637 479.189 591.032C479.189 591.032 479.521 624.704 479.443 659.588H555V659.582Z" fill="#181A1A"/>
<path d="M180.548 659.584H189.769C186.851 642.723 184.304 620.633 180.802 591.027C180.802 591.027 180.47 624.698 180.548 659.584Z" fill="black"/>
<path d="M479.194 591.023C475.694 620.629 473.145 642.719 470.227 659.58H479.449C479.526 624.696 479.194 591.023 479.194 591.023Z" fill="black"/>
<path d="M317.87 348.157C320.448 350.117 323.838 353.035 326.963 353.981C328.846 354.551 332.525 355.526 334.167 353.996C334.171 353.992 334.173 353.984 334.177 353.981C336.427 353.196 343.041 345.33 344.361 344.144C344.981 343.587 345.625 343.016 345.511 342.094C345.412 341.304 344.866 340.859 344.222 340.492C343.866 340.29 343.474 340.213 343.103 340.053C341.863 339.52 337.324 339.578 336.089 339.568C334.948 339.56 333.808 339.529 332.669 339.502C331.1 339.254 329.32 339.106 328.501 339.104C326.441 339.098 324.364 339.005 322.306 339.091C320.681 339.159 315.34 338.485 314.552 341.667C313.993 343.94 316.424 347.056 317.87 348.157Z" fill="#CC723B"/>
<path d="M328.604 390.659C329.815 390.628 330.861 389.904 331.939 389.451C334.282 388.467 336.728 387.708 339.18 387.054C339.654 386.928 339.681 386.159 339.131 386.143C333.494 385.978 327.901 386.336 322.269 386.293C322.172 386.293 322.104 386.349 322.052 386.419C321.588 386.376 321.124 386.361 320.66 386.312C320.029 386.246 319.92 387.095 320.434 387.341C322.595 388.37 326.181 390.723 328.604 390.659Z" fill="#CC723B"/>
<path d="M372.836 301.168V301.166L372.831 301.168H372.836Z" fill="#5E0E13"/>
<path d="M366.497 302.159C366.883 302.105 367.248 302.054 367.656 301.996C367.248 302.054 366.887 302.103 366.497 302.159Z" fill="#5E0E13"/>
<path d="M370.371 301.586C370.35 301.59 370.329 301.594 370.307 301.596C370.331 301.592 370.35 301.588 370.371 301.586Z" fill="#5E0E13"/>
<path d="M374.525 296.577C373.652 296.493 372.782 296.426 371.908 296.381C371.916 297.08 371.782 297.753 371.508 298.365C371.708 298.557 371.864 298.798 371.908 299.093C372.017 299.807 371.526 300.475 370.812 300.584C370.458 300.638 370.116 300.543 369.849 300.349C369.274 300.743 368.614 301.032 367.878 301.143C365.275 301.539 362.844 299.749 362.448 297.146C362.417 296.942 362.433 296.746 362.429 296.548C361.53 296.639 360.645 296.769 359.779 296.952C359.789 297.15 359.794 297.346 359.823 297.546C360.155 299.722 361.414 301.508 363.122 302.622C363.155 302.618 363.19 302.613 363.223 302.609C364.244 302.475 365.341 302.323 366.498 302.16C366.886 302.106 367.249 302.055 367.657 301.997C367.682 301.993 367.705 301.989 367.731 301.986C368.62 301.857 369.478 301.727 370.311 301.595C370.332 301.591 370.353 301.588 370.375 301.586C371.217 301.452 372.036 301.314 372.834 301.17L372.838 301.168C373.892 299.902 374.49 298.295 374.525 296.577Z" fill="#5E0E13"/>
<path d="M362.761 296.508C362.65 296.518 362.541 296.533 362.429 296.545C362.433 296.745 362.417 296.941 362.448 297.143C362.844 299.746 365.275 301.534 367.878 301.14C368.614 301.027 369.274 300.74 369.849 300.346C369.575 300.148 369.375 299.845 369.321 299.484C369.212 298.77 369.703 298.102 370.417 297.993C370.837 297.929 371.225 298.088 371.508 298.362C371.782 297.75 371.916 297.077 371.908 296.378C368.482 296.199 365.152 296.283 362.761 296.508Z" fill="black"/>
<path d="M292.343 301.996C292.776 302.058 293.166 302.112 293.575 302.171C293.164 302.112 292.776 302.06 292.343 301.996Z" fill="#5E0E13"/>
<path d="M289.689 301.596C289.668 301.592 289.649 301.588 289.625 301.586C289.647 301.588 289.668 301.592 289.689 301.596Z" fill="#5E0E13"/>
<path d="M300.174 297.544C300.205 297.344 300.209 297.148 300.219 296.95C299.351 296.767 298.466 296.639 297.567 296.546C297.563 296.746 297.579 296.942 297.548 297.144C297.48 297.592 297.332 298.004 297.153 298.396C297.425 298.679 297.582 299.066 297.518 299.483C297.41 300.198 296.742 300.689 296.027 300.58C295.827 300.549 295.653 300.469 295.497 300.363C294.538 301.011 293.352 301.325 292.118 301.139C289.739 300.778 288.062 298.714 288.087 296.377C287.214 296.424 286.344 296.49 285.47 296.573C285.505 298.289 286.103 299.899 287.161 301.164H287.165C287.963 301.306 288.782 301.444 289.625 301.58C289.646 301.584 289.668 301.587 289.689 301.589C290.522 301.721 291.38 301.852 292.269 301.98C292.294 301.984 292.318 301.987 292.343 301.991C292.776 302.053 293.164 302.108 293.576 302.166C294.703 302.325 295.775 302.473 296.775 302.605C296.808 302.609 296.845 302.614 296.878 302.618C298.584 301.504 299.844 299.718 300.174 297.544Z" fill="#5E0E13"/>
<path d="M288.09 296.378C288.065 298.715 289.742 300.779 292.12 301.14C293.353 301.328 294.541 301.012 295.5 300.363C295.096 300.09 294.854 299.606 294.933 299.09C295.042 298.376 295.71 297.884 296.424 297.993C296.721 298.038 296.964 298.195 297.156 298.397C297.334 298.005 297.482 297.591 297.55 297.145C297.581 296.941 297.566 296.745 297.569 296.547C297.459 296.535 297.35 296.52 297.237 296.51C294.844 296.283 291.516 296.199 288.09 296.378Z" fill="black"/>
<path d="M329.999 566.954C302.451 551.654 273.308 519.799 251.301 478.631C254.56 524.714 271.209 628.91 277.971 659.581H329.999H382.027C388.786 628.91 405.437 524.716 408.697 478.631C386.69 519.799 357.546 551.654 329.999 566.954Z" fill="white"/>
<path d="M363.223 302.611C364.244 302.477 365.34 302.325 366.497 302.162C365.337 302.325 364.244 302.477 363.223 302.611Z" fill="white"/>
<path d="M382.96 298.337C380.643 297.417 377.626 296.877 374.525 296.578C374.49 298.294 373.893 299.904 372.834 301.169C376.83 300.457 380.299 299.628 383.741 298.473C383.428 298.455 383.153 298.413 382.96 298.337Z" fill="white"/>
<path d="M359.823 297.547C359.792 297.347 359.788 297.151 359.779 296.953C357.383 297.458 355.147 298.401 353.293 300.366C352.27 301.451 352.283 302.278 351.309 303.486C351.301 303.494 351.223 303.509 351.12 303.525C355.087 303.526 358.507 303.229 363.122 302.626C361.412 301.507 360.153 299.721 359.823 297.547Z" fill="white"/>
<path d="M370.811 300.586C371.526 300.478 372.017 299.81 371.908 299.095C371.864 298.8 371.708 298.56 371.508 298.367C371.225 298.094 370.837 297.934 370.417 297.999C369.703 298.107 369.212 298.775 369.32 299.489C369.375 299.851 369.575 300.153 369.848 300.351C370.116 300.546 370.458 300.641 370.811 300.586Z" fill="white"/>
<path d="M293.575 302.17C294.703 302.329 295.775 302.477 296.775 302.609C295.775 302.477 294.707 302.331 293.575 302.17Z" fill="white"/>
<path d="M308.877 303.521C308.774 303.505 308.695 303.49 308.689 303.482C307.712 302.274 307.728 301.449 306.705 300.362C304.853 298.397 302.614 297.454 300.219 296.949C300.207 297.147 300.203 297.343 300.174 297.543C299.844 299.72 298.584 301.506 296.878 302.62C301.49 303.226 304.911 303.523 308.877 303.521Z" fill="white"/>
<path d="M285.47 296.578C282.37 296.877 279.353 297.415 277.035 298.337C276.843 298.413 276.567 298.455 276.255 298.473C279.695 299.63 283.164 300.459 287.159 301.169C286.103 299.904 285.505 298.296 285.47 296.578Z" fill="white"/>
<path d="M295.497 300.366C295.652 300.473 295.829 300.552 296.027 300.583C296.741 300.692 297.409 300.201 297.518 299.486C297.582 299.069 297.425 298.681 297.153 298.399C296.961 298.197 296.718 298.042 296.421 297.996C295.707 297.887 295.039 298.378 294.93 299.092C294.852 299.609 295.093 300.092 295.497 300.366Z" fill="white"/>
<path d="M417.004 237.483C411.782 204.193 407.115 193.871 386.469 177.593C364.695 160.426 336.819 151.717 299.951 156.141C288.193 157.553 273.299 165.217 274.363 183.609C272.348 179.385 271.672 174.765 273.202 169.092C273.272 168.834 272.883 168.651 272.757 168.904C270.113 174.215 270.16 181.782 273.008 187.496C272.687 187.352 272.367 187.212 272.049 187.038C268.434 185.056 265.935 181.594 264.792 177.688C264.745 177.527 264.51 177.595 264.543 177.756C265.403 182.039 268.129 186.38 271.792 189.057C266.949 189.099 261.925 191.043 258.199 193.667C250.255 199.262 246.501 208.52 245.06 217.851C243.288 229.322 243.833 241.368 244.742 252.894C245.237 259.164 246.299 271.676 247.483 280.148C247.737 280.142 247.997 280.138 248.23 280.133C250.535 280.09 251.936 280.103 254.973 280.138C255.629 280.146 256.337 280.154 257.174 280.164C257.316 280.127 257.471 280.096 257.613 280.061C257.632 279.721 257.644 279.381 257.663 279.043C258.318 267.807 260.659 242.377 262.08 234.791C263.446 227.495 265.464 221.456 271.887 216.628C276.789 212.943 283.004 211.84 289.107 212.382C290.272 212.485 290.483 211.937 288.779 210.584C284.26 206.997 281.365 200.563 280.049 196.321C282.456 200.969 285.818 204.807 290.643 208.862C294.45 213.974 298.814 218.701 303.671 222.797C315.867 233.086 331.694 240.803 347.767 241.818C347.99 241.832 348.033 241.484 347.819 241.43C331.964 237.425 317.856 230.848 305.626 219.86C304.991 219.291 304.393 218.681 303.776 218.095C326.509 231.275 370.589 246.481 399.228 244.319C400.486 255.182 401.856 270.863 402.332 279.043C402.351 279.383 402.365 279.723 402.384 280.061C402.526 280.096 402.683 280.129 402.823 280.164C404.947 280.138 406.395 280.119 407.608 280.111C409.09 280.1 410.225 280.103 411.767 280.133H411.769C411.906 280.135 412.052 280.138 412.198 280.14C413.89 262.216 414.762 249.896 414.457 240.908C416.309 240.265 417.338 239.617 417.004 237.483Z" fill="#241A1A"/>
<path d="M354.231 268.542C351.265 268.96 343.035 270.831 342.826 274.89C342.68 277.736 344.039 281.497 345.559 282.508C345.641 282.563 345.759 282.586 345.848 282.634C356.53 278.6 367.438 277.096 377.457 277.082C382.144 276.366 386.848 276.319 391.542 277.672C392.885 278.059 393.264 277.938 392.062 276.08C387.391 268.857 371.48 266.114 354.231 268.542Z" fill="#241A1A"/>
<path d="M362.024 294.455C356.687 294.956 353.645 296.313 351.81 298.949C350.704 300.539 350.145 301.712 349.048 303.711C349.021 303.762 350.585 303.604 351.121 303.521C351.224 303.505 351.304 303.49 351.31 303.482C352.284 302.275 352.27 301.45 353.294 300.362C355.148 298.398 357.382 297.454 359.78 296.95C360.645 296.767 361.531 296.639 362.43 296.546C362.54 296.534 362.651 296.519 362.761 296.509C365.153 296.284 368.483 296.2 371.909 296.379C372.783 296.425 373.652 296.491 374.526 296.575C377.626 296.874 380.643 297.412 382.961 298.334C383.153 298.409 383.427 298.452 383.742 298.47C385.201 298.551 387.539 298.066 386.685 297.619C380.585 294.437 367.729 293.919 362.024 294.455Z" fill="#241A1A"/>
<path d="M305.766 268.542C288.52 266.114 272.606 268.857 267.936 276.082C266.734 277.94 267.112 278.061 268.456 277.674C273.152 276.321 277.854 276.368 282.542 277.084C292.561 277.098 303.47 278.602 314.151 282.636C314.24 282.588 314.359 282.565 314.44 282.51C315.96 281.499 317.319 277.738 317.174 274.892C316.962 270.833 308.733 268.96 305.766 268.542Z" fill="#241A1A"/>
<path d="M297.973 294.455C292.268 293.919 279.414 294.437 273.314 297.621C272.46 298.068 274.798 298.553 276.257 298.472C276.57 298.454 276.846 298.411 277.038 298.336C279.356 297.415 282.373 296.876 285.473 296.577C286.347 296.493 287.216 296.425 288.09 296.381C291.516 296.202 294.846 296.286 297.237 296.511C297.348 296.52 297.459 296.536 297.569 296.548C298.468 296.639 299.354 296.769 300.221 296.951C302.617 297.456 304.853 298.4 306.707 300.364C307.73 301.45 307.717 302.277 308.691 303.484C308.697 303.492 308.777 303.507 308.88 303.523C309.415 303.606 310.98 303.764 310.953 303.713C309.856 301.716 309.295 300.541 308.19 298.951C306.352 296.315 303.31 294.958 297.973 294.455Z" fill="#241A1A"/>
<path d="M329.999 373.536C319.215 373.684 306.233 374.109 295.577 373.074C298.208 374.443 309.244 379.407 315.225 380.447C320.12 381.298 325.072 381.399 329.999 381.63C334.926 381.399 339.878 381.298 344.773 380.447C350.754 379.407 361.79 374.445 364.421 373.074C353.765 374.107 340.783 373.684 329.999 373.536Z" fill="#DB726B"/>
<path d="M295.059 372.98C294.989 372.98 294.921 373.002 294.851 373.008C295.093 373.029 295.334 373.05 295.575 373.074C306.231 374.108 319.215 373.683 329.997 373.536C340.781 373.683 353.763 374.108 364.419 373.074C364.657 373.05 364.898 373.027 365.143 373.008C365.073 373.002 365.005 372.982 364.935 372.98C364.558 372.977 364.539 372.464 364.817 372.309C365.001 372.206 365.236 372.035 365.494 371.845C355.104 369.977 339.758 366.958 329.997 366.875C320.236 366.958 304.889 369.977 294.499 371.845C294.758 372.035 294.992 372.206 295.177 372.309C295.456 372.464 295.437 372.979 295.059 372.98Z" fill="#C7534D"/>
<path d="M294.502 371.844C293.653 371.219 292.522 370.357 291.827 370.763C291.355 371.039 290.703 371.394 290.627 371.904C290.506 372.718 291.388 373.193 292.046 373.356C292.978 373.588 293.908 373.087 294.853 373.007C294.921 373.001 294.991 372.982 295.061 372.98C295.437 372.976 295.457 372.463 295.179 372.308C294.995 372.205 294.76 372.034 294.502 371.844Z" fill="#B5403D"/>
<path d="M368.17 370.762C367.475 370.358 366.345 371.22 365.497 371.843C365.238 372.034 365.004 372.204 364.819 372.307C364.541 372.463 364.561 372.977 364.938 372.979C365.007 372.979 365.075 373 365.145 373.006C366.091 373.084 367.021 373.587 367.952 373.356C368.611 373.193 369.49 372.717 369.372 371.904C369.294 371.393 368.642 371.036 368.17 370.762Z" fill="#B5403D"/>
<path d="M412.197 280.144C412.054 280.142 411.906 280.138 411.768 280.136H411.766C410.227 280.109 409.089 280.103 407.608 280.114C406.395 280.124 404.947 280.144 402.823 280.167C402.681 280.13 402.526 280.099 402.384 280.064C395.506 278.348 386.882 277.069 377.457 277.08C367.436 277.094 356.53 278.598 345.848 282.632C342.329 283.962 338.832 285.535 335.406 287.455C333.585 287.604 329.999 287.455 329.999 287.455C329.999 287.455 326.414 287.604 324.593 287.455C321.166 285.535 317.668 283.962 314.15 282.632C303.469 278.598 292.561 277.094 282.541 277.08C273.118 277.069 264.493 278.348 257.615 280.064C257.473 280.099 257.316 280.132 257.176 280.167C256.339 280.157 255.631 280.149 254.974 280.142C251.938 280.105 250.536 280.093 248.232 280.136C247.999 280.14 247.739 280.146 247.485 280.151C247.219 280.157 246.966 280.163 246.669 280.169C246.685 280.522 246.702 280.875 246.72 281.225C247.017 287.14 247.591 292.452 247.591 292.452C247.591 292.452 247.89 292.463 248.354 292.568C249.121 292.741 250.34 293.18 251.43 294.257C252.253 295.072 253.002 296.253 253.419 297.973C253.526 298.417 253.639 298.868 253.747 299.316C254.58 302.723 255.458 306.216 256.333 309.248C256.71 310.555 257.131 312.158 257.684 313.9C259.125 318.436 261.489 323.95 266.533 327.885C279.458 337.968 301.124 335.555 311.477 325.738C317.185 320.325 323.519 309.017 324.055 296.363C324.136 294.447 324.905 293.525 326.144 293.525C328.349 293.525 329.999 293.525 329.999 293.525C329.999 293.525 331.647 293.525 333.855 293.525C335.093 293.525 335.862 294.447 335.944 296.363C336.48 309.019 342.814 320.327 348.522 325.738C358.875 335.555 380.542 337.97 393.466 327.885C398.509 323.95 400.874 318.436 402.314 313.9C402.867 312.158 403.289 310.555 403.665 309.248C404.541 306.216 405.418 302.723 406.251 299.316C406.36 298.868 406.472 298.417 406.579 297.973C406.997 296.253 407.746 295.072 408.569 294.257C409.66 293.178 410.879 292.741 411.646 292.568C412.11 292.463 412.409 292.452 412.409 292.452C412.409 292.452 412.984 287.14 413.279 281.225C413.296 280.874 413.314 280.522 413.329 280.169C412.918 280.159 412.555 280.151 412.197 280.144ZM308.715 320.677C300.584 329.094 283.481 330.57 274.815 327.273C262.441 322.564 260.932 305.497 260.932 294.294C260.932 289.922 262.745 287.818 265.76 286.234C270.688 283.646 278.824 282.023 287.507 282.023C301.506 282.023 315.138 285.975 316.519 292.879C317.689 298.728 318.103 310.958 308.715 320.677ZM385.182 327.273C376.514 330.572 359.411 329.094 351.282 320.677C341.894 310.956 342.307 298.726 343.478 292.877C344.858 285.973 358.49 282.021 372.489 282.021C381.173 282.021 389.311 283.644 394.236 286.232C397.251 287.816 399.064 289.92 399.064 294.292C399.064 305.497 397.558 322.564 385.182 327.273Z" fill="#0077B3"/>
</g>
</svg>
