<svg width="660" height="660" viewBox="0 0 660 660" fill="none" xmlns="http://www.w3.org/2000/svg">
<mask id="mask0_42_407" style="mask-type:alpha" maskUnits="userSpaceOnUse" x="0" y="0" width="660" height="660">
<circle cx="330" cy="330" r="330" fill="#D9D9D9"/>
</mask>
<g mask="url(#mask0_42_407)">
<path d="M528.348 343.651C556.875 234.107 491.197 122.178 381.652 93.6515C272.107 65.1249 160.179 130.803 131.652 240.347C103.125 349.892 168.803 461.82 278.348 490.347C387.892 518.873 499.821 453.195 528.348 343.651Z" fill="#0B5B32"/>
<path d="M244.522 344.423C244.589 344.749 244.643 345.046 244.71 345.385C244.765 345.715 244.848 346.075 244.907 346.413C247.031 356.916 250.869 369.953 257.785 382.655C260.31 386.744 263.253 390.846 266.527 394.931C271.423 400.981 277.126 406.96 283.624 412.391C290.109 417.814 297.388 422.756 305.374 426.377C313.301 429.994 322.136 432.172 330.657 431.721C332.957 431.553 335.369 431.512 337.334 430.968C339.408 430.533 341.478 430.245 343.581 429.454C347.795 428.238 351.859 426.457 355.756 424.437C363.541 420.36 370.679 415.18 376.904 409.427C389.339 397.941 399.148 384.976 404.621 372.667C405.352 371.149 405.996 369.635 406.477 368.117C406.745 367.365 407.008 366.621 407.272 365.885L407.468 365.337C407.485 365.287 407.564 365.057 407.539 365.161L407.614 364.873L407.907 363.715C408.685 360.646 409.421 357.732 410.115 354.997C410.784 352.263 411.515 349.704 411.996 347.329C412.439 344.954 412.849 342.763 413.217 340.794C414.154 335.797 414.831 332.164 415.207 330.157C415.303 329.191 415.391 328.188 415.475 327.168L415.922 316.807C415.872 312.931 416.018 309.051 415.818 305.187C415.579 301.324 415.508 297.452 414.969 293.635C414.743 291.808 414.58 289.977 414.308 288.162C414.283 287.995 414.258 287.827 414.233 287.66L413.238 282.237C412.949 280.339 412.423 278.499 411.959 276.647C411.436 274.812 411.131 272.905 410.432 271.136L408.572 265.743C407.865 263.983 407.037 262.277 406.281 260.542C405.578 258.773 404.562 257.171 403.651 255.52C402.743 253.86 401.811 252.221 400.67 250.716C398.625 247.534 396.133 244.703 393.675 241.848C390.982 239.197 388.327 236.521 385.308 234.217C383.887 232.967 382.335 231.872 380.768 230.801C379.2 229.739 377.711 228.531 376.064 227.619L371.226 224.697L366.037 221.979C362.747 220.244 358.967 218.488 355.555 216.502C348.611 212.567 341.867 208.064 335.963 202.328C333.546 199.986 331.263 197.327 329.315 194.4C328.88 196.006 328.454 197.616 327.923 199.179C326.936 201.153 326.137 203.256 324.954 205.096C322.617 208.817 319.853 212.208 316.738 215.122C313.665 218.095 310.328 220.712 306.896 223.079C303.484 225.504 299.943 227.665 296.401 229.747C292.864 231.855 289.277 233.824 285.752 235.823C282.227 237.813 278.678 239.828 275.412 241.91C273.756 242.885 272.071 244.11 270.395 245.251C268.864 246.296 267.368 247.672 265.85 248.859C262.902 251.414 260.113 254.178 257.684 257.238C256.371 258.693 255.284 260.32 254.185 261.942C253.018 263.518 252.04 265.216 251.103 266.939C250.083 268.619 249.226 270.384 248.444 272.194C247.574 273.963 246.834 275.786 246.207 277.663C245.496 279.499 244.865 281.376 244.38 283.299C243.82 285.193 243.297 287.104 242.946 289.061C242.126 292.598 241.599 296.211 241.219 299.836C240.738 307.215 241.023 315.41 242.252 324.579C242.268 324.876 242.36 332.904 244.522 344.423ZM278.046 301.052C278.046 296.7 281.575 293.171 285.928 293.171C290.28 293.171 293.813 296.7 293.813 301.052C293.813 305.405 290.28 308.938 285.928 308.938C281.575 308.938 278.046 305.405 278.046 301.052ZM338.831 381.234C335.825 381.468 332.739 381.585 329.641 381.585C325.585 381.585 321.513 381.384 317.558 380.987C316.981 380.928 316.562 380.414 316.621 379.837C316.68 379.26 317.24 378.842 317.762 378.901C324.615 379.595 331.844 379.678 338.664 379.147C339.237 379.064 339.743 379.532 339.789 380.105C339.835 380.686 339.408 381.188 338.831 381.234ZM367.384 308.938C363.027 308.938 359.498 305.405 359.498 301.052C359.498 296.7 363.027 293.171 367.384 293.171C371.736 293.171 375.265 296.7 375.265 301.052C375.265 305.405 371.736 308.938 367.384 308.938ZM354.728 266.842C354.924 265.964 355.643 265.337 356.484 265.203C356.484 265.203 358.854 264.84 362.404 264.605C365.954 264.376 370.674 264.338 375.386 264.539C380.099 264.702 384.806 265.124 388.331 265.559C391.856 266.019 394.201 266.479 394.201 266.479C395.347 266.704 396.1 267.812 395.874 268.962C395.694 269.886 394.941 270.547 394.059 270.66C394.059 270.66 391.689 270.952 388.143 271.178C384.597 271.379 379.873 271.475 375.156 271.32C370.44 271.203 365.732 270.844 362.208 270.375C358.683 269.903 356.342 269.38 356.342 269.38C355.192 269.129 354.468 267.992 354.728 266.842ZM317.173 277.843C317.173 276.689 318.11 275.752 319.263 275.752C320.417 275.752 321.354 276.689 321.354 277.843V342.349C321.354 343.955 321.839 347.689 326.325 347.689H341.373C342.527 347.689 343.464 348.625 343.464 349.779C343.464 350.933 342.527 351.87 341.373 351.87H326.325C320.852 351.87 317.173 348.044 317.173 342.349V277.843ZM361.275 363.74C362.216 363.075 363.52 363.292 364.189 364.229C364.858 365.17 364.641 366.474 363.7 367.143C357.199 371.776 343.552 374.097 329.562 374.097C315.735 374.097 301.582 371.826 293.663 367.277L292.454 369.297C292.258 369.623 291.915 369.802 291.56 369.802C291.376 369.802 291.192 369.752 291.024 369.656C290.527 369.359 290.368 368.715 290.665 368.218L292.701 364.827C292.747 364.681 292.768 364.534 292.847 364.392C292.939 364.233 293.077 364.116 293.198 363.991L295.389 360.336C295.686 359.839 296.33 359.688 296.823 359.977C297.321 360.274 297.48 360.918 297.183 361.415L295.82 363.685C310.487 372.056 349.535 372.106 361.275 363.74ZM262.76 266.483C262.76 266.483 265.106 266.027 268.63 265.563C272.155 265.128 276.863 264.706 281.575 264.543C286.287 264.342 291.008 264.38 294.557 264.61C298.103 264.844 300.474 265.208 300.474 265.208C301.636 265.387 302.43 266.474 302.255 267.637C302.117 268.523 301.444 269.201 300.616 269.389C300.616 269.389 298.274 269.911 294.75 270.384C291.225 270.848 286.517 271.207 281.801 271.329C277.089 271.483 272.364 271.387 268.818 271.187C265.273 270.961 262.902 270.668 262.902 270.668C261.74 270.522 260.916 269.464 261.063 268.306C261.18 267.369 261.89 266.654 262.76 266.483Z" fill="#AA5D29" stroke="#AA5D29" stroke-width="0.5" stroke-miterlimit="10"/>
<path d="M229.01 310.848C231.489 311.58 234.458 313.403 236.954 317.6C236.92 317.187 236.904 316.777 236.874 316.363L236.36 316.526C233.379 307.047 227.906 302.063 221.714 303.255C216.445 304.25 211.169 310.028 211.771 318.784C213.009 336.863 221.442 346.868 228.926 350.201C233.55 352.262 238.091 351.965 241.49 349.469C241.519 349.381 241.561 349.293 241.586 349.206C241.398 348.093 241.235 347.035 241.11 346.032C240.503 342.068 240.027 338.953 239.701 336.809C238.927 333.02 238.233 329.182 237.706 325.239C237.677 324.988 237.656 324.733 237.623 324.478C237.221 323.199 236.774 322.012 236.281 320.92C233.182 322.338 231.109 325.54 231.339 329.136C231.376 329.717 230.937 330.211 230.364 330.248C230.343 330.253 230.318 330.253 230.297 330.253C229.75 330.253 229.29 329.826 229.256 329.278C228.968 324.83 231.514 320.853 235.327 319.068C233.479 315.819 231.15 313.658 228.424 312.855C225.268 311.922 222.082 312.989 220.581 314.536C220.175 314.95 219.514 314.958 219.1 314.552C218.686 314.151 218.678 313.49 219.08 313.072C220.957 311.145 224.866 309.619 229.01 310.848ZM233.408 341.922C235.139 341.922 236.544 343.327 236.544 345.058C236.544 346.789 235.139 348.194 233.408 348.194C231.677 348.194 230.272 346.789 230.272 345.058C230.272 343.327 231.677 341.922 233.408 341.922Z" fill="#AA5D29" stroke="#AA5D29" stroke-width="0.5" stroke-miterlimit="10"/>
<path d="M262.275 398.302C257.345 391.842 253.11 385.382 250.037 378.927C246.809 372.387 244.911 366.166 243.903 360.501C243.623 359.213 243.351 357.971 243.088 356.758C242.824 355.797 242.578 354.848 242.343 353.907C240.119 355.136 237.636 355.768 235.027 355.768C232.501 355.768 229.859 355.182 227.22 354.012C218.632 350.182 208.966 338.993 207.598 319.062C206.925 309.265 212.662 300.702 220.936 299.134C225.903 298.198 232.016 300.054 236.574 307.028C236.586 304.846 236.653 302.663 236.808 300.485C237.008 297.378 237.376 294.276 237.861 291.186C237.987 290.35 238.112 289.514 238.254 288.698C238.292 288.502 238.309 288.305 238.346 288.109C238.614 286.482 238.999 284.881 239.417 283.284C239.981 281.009 240.625 278.818 241.353 276.723C241.436 276.485 241.486 276.243 241.57 276.004C241.821 275.218 242.18 274.474 242.465 273.701C242.469 273.692 242.469 273.684 242.473 273.676C242.912 272.492 243.309 271.292 243.849 270.138C244.647 268.194 245.534 266.287 246.591 264.46C247.57 262.596 248.59 260.748 249.811 259.021C250.969 257.252 252.115 255.475 253.499 253.874C256.066 250.516 259.034 247.468 262.174 244.646C263.83 243.295 265.314 241.87 267.117 240.582C268.789 239.407 270.361 238.19 272.205 237.082C275.788 234.762 279.309 232.751 282.858 230.719C286.4 228.678 289.937 226.713 293.378 224.635C296.836 222.574 300.235 220.467 303.442 218.154C306.687 215.892 309.76 213.438 312.515 210.737C315.329 208.082 317.7 205.088 319.681 201.919C320.693 200.339 321.304 198.578 322.157 196.931C322.721 195.175 323.189 193.39 323.67 191.608C323.821 189.765 324.088 187.929 324.184 186.081L323.854 180.462C323.85 180.428 323.846 180.403 323.842 180.37L323.817 180.181C323.603 178.471 324.816 176.908 326.526 176.694C328.236 176.477 329.8 177.69 330.013 179.404L330.03 179.592L330.038 179.684C330.423 182.954 331.593 186.11 333.274 189.087C335.791 193.055 339.742 197.876 345.864 202.847C346.834 203.617 347.795 204.39 348.807 205.118C348.836 205.139 348.861 205.159 348.891 205.18C350.204 206.125 351.558 207.016 352.921 207.898C355.748 209.617 359.009 211.327 362.647 213.229C371.995 218.117 383.184 224.012 393.127 233.524C393.344 233.733 393.562 233.934 393.775 234.139C394.314 234.666 394.845 235.205 395.376 235.753C396.158 236.539 396.944 237.321 397.718 238.111C400.314 241.226 402.927 244.32 405.068 247.773C406.26 249.417 407.23 251.189 408.17 252.983C409.12 254.769 410.165 256.508 410.88 258.394C411.657 260.254 412.498 262.094 413.217 263.967L415.082 269.699C415.776 271.589 416.069 273.579 416.579 275.515C417.034 277.464 417.544 279.404 417.774 281.381L418.665 287.293C418.857 288.84 418.958 290.396 419.079 291.951C419.773 297.65 420.124 303.182 420.233 308.454C424.82 300.518 431.192 298.373 436.293 299.339C444.287 300.844 449.814 309.324 449.149 319.049C447.778 338.985 438.107 350.173 429.519 353.999C426.885 355.17 424.243 355.755 421.717 355.755C419.451 355.755 417.294 355.241 415.303 354.313C414.471 357.791 413.539 361.132 412.494 364.285C412.456 364.452 412.423 364.611 412.389 364.778L412.142 365.944L412.08 366.237L411.963 366.638L411.766 367.241C411.503 368.039 411.235 368.854 410.968 369.674C410.474 371.338 409.826 372.973 409.086 374.603C406.281 381.193 402.501 387.966 397.709 394.543C393.938 399.761 389.631 404.937 384.773 409.875C384.769 413.973 384.785 418.07 384.798 422.168L385.22 437.287L400.042 432.378L405.946 416.126C406.26 415.24 407.108 414.483 408.024 414.483C409.508 414.483 410.42 414.483 419.2 433.022C437.794 434.841 452.954 437.366 458.16 438.282C486.453 325.634 462.077 241.034 429.678 199.31C410.031 174.006 384.936 160.07 359.017 160.07C348.197 160.07 337.271 162.458 326.538 167.162C326.028 167.392 325.447 167.4 324.925 167.191C288.62 152.728 254.23 164.406 228.299 199.59C187.107 255.467 175.354 354.956 200.127 436.802L216.145 434.828L220.66 389.777C220.761 388.765 221.576 387.971 222.588 387.9C223.612 387.808 224.519 388.489 224.766 389.476L235.938 434.038L273.56 443.722L273.974 411.514C269.65 407.279 265.745 402.805 262.275 398.302Z" fill="#122CFE"/>
<path d="M415.827 348.233C415.756 348.681 415.647 349.166 415.559 349.626C418.921 351.938 423.332 352.197 427.835 350.203C435.315 346.87 443.753 336.869 444.994 318.782C445.588 310.106 440.567 304.415 435.537 303.466C430.055 302.425 425.067 306.623 421.956 314.697C423.905 312.527 425.958 311.373 427.756 310.842C431.895 309.608 435.804 311.143 437.686 313.066C438.087 313.484 438.079 314.145 437.665 314.546C437.259 314.956 436.59 314.943 436.185 314.529C434.688 312.986 431.51 311.916 428.345 312.848C425.623 313.647 423.294 315.805 421.442 319.049C422.751 319.655 423.934 320.521 424.912 321.633C426.769 323.749 427.689 326.462 427.509 329.272C427.471 329.824 427.011 330.246 426.468 330.246C426.447 330.246 426.422 330.246 426.401 330.242C425.824 330.204 425.389 329.707 425.427 329.13C425.573 326.88 424.837 324.702 423.349 323.009C422.546 322.093 421.568 321.395 420.489 320.906C419.849 322.306 419.272 323.841 418.791 325.555L418.599 328.151C418.662 328.36 418.687 328.586 418.658 328.812C418.658 328.812 417.989 333.432 416.814 341.519C416.508 343.551 416.182 345.792 415.827 348.233ZM423.457 341.92C425.188 341.92 426.593 343.325 426.593 345.056C426.593 346.787 425.188 348.191 423.457 348.191C421.726 348.191 420.322 346.787 420.322 345.056C420.322 343.325 421.726 341.92 423.457 341.92Z" fill="#AA5D29" stroke="#AA5D29" stroke-width="0.5" stroke-miterlimit="10"/>
<path d="M547.461 644.224C546.604 637.388 545.509 630.573 543.815 623.9C542.971 620.563 542.139 617.222 541.01 613.97C540.031 610.671 538.815 607.447 537.539 604.253C535.043 597.843 531.983 591.659 528.617 585.659C525.138 579.722 521.434 573.898 517.19 568.458C513.038 562.951 508.489 557.742 503.677 552.783C498.881 547.808 493.763 543.141 488.474 538.672C483.147 534.248 477.666 530 471.963 526.036C457.062 515.579 441.169 506.607 424.838 498.399C424.57 500.264 423.947 504.056 422.684 509.391C420.799 517.093 417.738 528.135 411.563 540.411C405.404 552.57 396.155 566.347 382.036 576.758C375.028 581.925 366.917 586.203 358.149 588.904C355.937 589.497 353.738 590.187 351.493 590.697C349.222 591.12 346.981 591.634 344.677 591.973L337.687 592.75L330.963 593.018C321.389 592.909 312.253 591.166 303.577 588.067C294.901 584.999 287.162 580.224 280.213 575.081C273.197 569.93 267.561 563.675 262.456 557.667C257.66 551.395 253.475 545.207 250.318 539.107C248.721 536.067 247.145 533.182 246.012 530.268C244.812 527.383 243.57 524.694 242.759 522.027C241.889 519.384 240.973 516.959 240.317 514.639C239.707 512.297 239.146 510.152 238.64 508.212C237.566 504.336 237.261 501.318 236.801 499.24C236.65 498.428 236.537 497.81 236.441 497.304C219.328 505.808 202.662 515.111 187.087 526.045C181.384 530.004 175.899 534.256 170.576 538.68C165.287 543.145 160.169 547.816 155.374 552.791C150.565 557.75 146.012 562.956 141.864 568.462C137.616 573.902 133.916 579.726 130.438 585.663C127.072 591.667 124.011 597.843 121.515 604.257C120.24 607.455 119.027 610.671 118.045 613.974C116.916 617.222 116.08 620.567 115.239 623.904C113.55 630.581 112.455 637.392 111.593 644.224C111.234 647.653 111.02 651.094 110.724 654.531L110.527 662.153L329.521 661.751L548.527 662.165L548.331 654.531C548.034 651.094 547.821 647.648 547.461 644.224Z" fill="#F2A61C"/>
<path d="M242.21 507.362C242.775 509.202 243.402 511.238 244.084 513.454C244.807 515.653 245.81 517.986 246.755 520.499C247.642 523.041 248.963 525.592 250.238 528.322C251.438 531.09 252.998 533.845 254.612 536.726C257.781 542.521 261.945 548.341 266.653 554.215C271.666 559.814 277.152 565.588 283.75 570.405C290.322 575.184 297.585 579.591 305.646 582.359C313.62 585.168 322.333 586.665 330.729 586.753L337.452 586.536L343.816 585.871C345.931 585.574 348.047 585.106 350.158 584.734C352.249 584.274 354.293 583.646 356.35 583.12C364.504 580.674 372.025 576.781 378.586 572.023C391.773 562.477 401.046 549.779 407.218 538.156C413.41 526.47 417.048 515.921 419.142 508.462C420.196 504.728 420.882 501.755 421.312 499.727C421.592 498.276 421.772 497.336 421.856 496.909C419.54 495.763 417.219 494.622 414.89 493.506C414.593 495.404 414.083 498.234 413.239 501.847C411.554 508.75 408.811 518.647 403.283 529.668C397.773 540.572 389.498 552.961 376.813 562.327C370.516 566.972 363.228 570.819 355.351 573.252C353.365 573.787 351.387 574.402 349.368 574.866C347.332 575.246 345.317 575.707 343.243 576.016L336.954 576.71L330.938 576.957C322.308 576.86 314.113 575.288 306.307 572.5C298.513 569.74 291.56 565.45 285.318 560.822C279.021 556.193 273.966 550.574 269.392 545.172C265.098 539.536 261.347 533.979 258.525 528.506C257.095 525.78 255.686 523.192 254.67 520.574C253.596 517.986 252.483 515.574 251.76 513.182C250.982 510.811 250.163 508.637 249.573 506.551C249.03 504.452 248.528 502.524 248.072 500.785C247.098 497.306 246.872 494.597 246.467 492.74C246.446 492.628 246.433 492.544 246.412 492.439C244.058 493.56 241.709 494.685 239.371 495.835C239.48 496.311 239.685 497.206 239.999 498.561C240.546 500.572 241.015 503.708 242.21 507.362Z" fill="#F2A61C"/>
<path d="M251.723 499.926C252.229 501.57 252.789 503.384 253.399 505.362C254.047 507.327 254.942 509.409 255.787 511.654C256.581 513.925 257.764 516.199 258.902 518.637C259.976 521.108 261.373 523.566 262.819 526.138C265.658 531.306 269.384 536.499 273.59 541.733C278.072 546.717 282.972 551.86 288.855 556.154C294.717 560.41 301.194 564.341 308.373 566.803C315.472 569.304 323.245 570.629 330.7 570.708L336.716 570.512L342.377 569.922C344.263 569.659 346.149 569.245 348.026 568.915C349.891 568.505 351.71 567.949 353.545 567.476C360.812 565.306 367.51 561.84 373.359 557.605C385.113 549.109 393.412 537.799 398.935 527.426C404.484 517.002 407.732 507.574 409.61 500.909C410.546 497.572 411.203 494.93 411.591 493.119C411.675 492.71 411.742 492.363 411.809 492.045C407.465 489.988 403.108 487.952 398.735 485.966L389.168 481.655L387.968 481.12L387.671 480.986L387.521 480.919L387.446 480.881C387.487 480.911 386.806 480.53 387.061 480.668C386.864 480.518 386.743 480.459 386.488 480.233C386.175 479.932 385.878 479.589 385.618 479.234C385.409 478.916 385.334 478.715 385.184 478.448C384.895 477.934 384.774 477.478 384.582 477.001C383.946 475.132 383.624 473.351 383.319 471.562C382.24 464.441 381.956 457.421 381.709 450.384C381.621 447.386 381.642 444.397 381.6 441.403C381.337 441.06 381.14 440.667 381.128 440.22L380.4 414.125C374.02 420.042 366.707 425.44 358.563 429.788C354.394 431.987 350.008 433.952 345.371 435.336C343.143 436.189 340.63 436.62 338.171 437.118C335.642 437.741 333.396 437.774 331.076 437.962C321.054 438.447 311.441 435.851 302.853 431.895C294.249 427.915 286.602 422.605 279.824 416.852C279.234 416.358 278.695 415.831 278.122 415.33L277.721 446.446C277.717 446.851 277.562 447.215 277.345 447.545C277.319 448.494 277.336 449.439 277.311 450.388C277.064 457.425 276.784 464.445 275.701 471.566C275.396 473.355 275.074 475.132 274.439 477.005C274.067 477.954 273.782 478.904 272.783 480.024C272.515 480.3 272.076 480.601 271.692 480.823L271.056 481.12L269.856 481.659L260.29 485.966C256.661 487.617 253.04 489.294 249.432 490.991C249.507 491.309 249.59 491.66 249.687 492.066C250.201 493.864 250.661 496.673 251.723 499.926Z" fill="#AA5D29" stroke="#AA5D29" stroke-width="0.5" stroke-miterlimit="10"/>
<path d="M419.891 316.758C419.808 317.017 419.787 317.264 419.845 317.502C419.824 317.548 419.808 317.59 419.782 317.632C419.996 317.272 420.217 316.996 420.439 316.67L419.941 316.516C419.929 316.595 419.904 316.674 419.891 316.758Z" fill="white"/>
<path opacity="0.5" d="M275.858 434.572C275.858 434.572 300.405 472.733 327.031 472.733C353.656 472.733 381.481 431.402 381.481 431.402V408.736C381.481 408.736 361.328 434.572 329.527 434.572C297.725 434.572 275.833 408.878 275.833 408.878L275.858 434.572Z" fill="#A0A0A0"/>
<path opacity="0.3" d="M141.86 568.033C125.436 606.537 213.077 645.751 335.458 645.751C457.839 645.751 536.109 606.675 523.8 572.812C523.8 572.812 552.106 606.7 551.311 664.458H107.734C107.734 664.458 106.015 615.242 141.86 568.033Z" fill="#A0A0A0"/>
<path opacity="0.5" d="M330.597 190.7C323.569 226.42 287.21 243.428 271.823 254.546C256.437 265.659 246.854 297.315 250.863 331.658C254.873 366.006 269.131 418.132 317.138 432.31C317.138 432.31 268.353 419.412 249.952 373.035C231.551 326.658 238.546 306.241 243.053 279.156C247.556 252.071 278.392 236.914 293.026 227.507C307.66 218.099 328.787 200.756 330.597 190.7Z" fill="#A0A0A0"/>
<path opacity="0.5" d="M330.627 194.394C330.627 194.394 338.872 213.33 364.03 228.256C389.192 243.179 406.962 267.354 409.052 297.337C411.143 327.324 412.251 369.21 373.019 417.256C373.019 417.256 403.613 393.611 411.101 360.886C418.589 328.16 424.665 297.475 408.705 256.655C400.167 234.817 372.229 221.655 356.408 212.297C340.587 202.936 330.656 198.094 330.627 194.394Z" fill="#A0A0A0"/>
<path d="M275.643 446.429L234.242 435.772L222.769 390.005L218.086 436.721L198.669 439.112C155.871 300.914 219.825 123.108 325.728 165.266C417.098 125.198 507.084 255.511 459.733 440.706C459.733 440.706 441.574 437.273 417.847 435.011C417.847 435.011 407.937 414.013 407.937 416.861L401.691 434.062L383.24 440.174L382.349 408.327C382.349 408.327 405.349 389.483 413.711 352.2C413.711 352.2 424.904 310.735 412.164 268.836C399.425 226.942 364.454 218.801 348.712 207.646C329.529 194.049 326.958 180.029 326.958 180.029C326.958 180.029 332.477 205.016 302.114 222.915C271.746 240.815 231.139 257.259 240.196 324.851C240.196 324.851 240.279 377.261 276.124 409.594L275.643 446.429Z" stroke="#282833" stroke-miterlimit="10" stroke-linecap="round" stroke-linejoin="round"/>
<path d="M242.264 332.892C242.264 332.892 243.154 337.441 244.709 345.394C245.378 349.42 246.633 354.12 248.042 359.496C249.233 364.911 251.366 370.857 254.405 376.731C257.445 382.764 261.66 388.869 266.522 394.94C271.418 400.99 277.121 406.969 283.619 412.4C290.104 417.823 297.383 422.765 305.369 426.386C313.296 430.003 322.131 432.181 330.652 431.729C332.952 431.562 335.364 431.52 337.329 430.977C339.403 430.542 341.473 430.254 343.576 429.463C347.79 428.247 351.855 426.465 355.751 424.446C363.537 420.369 370.674 415.189 376.899 409.436C389.334 397.95 399.143 384.985 404.616 372.675C405.348 371.158 405.992 369.644 406.472 368.126C406.74 367.374 407.003 366.629 407.267 365.894L407.463 365.346C407.48 365.296 407.559 365.066 407.534 365.17L407.61 364.882L407.902 363.724C408.68 360.655 409.416 357.74 410.11 355.006C410.779 352.271 411.511 349.713 411.991 347.338C412.435 344.963 412.844 342.772 413.212 340.803C414.692 332.896 415.537 328.376 415.537 328.376L415.55 328.31C415.708 327.461 416.528 326.896 417.381 327.055C418.209 327.21 418.761 327.996 418.644 328.824C418.644 328.824 417.975 333.444 416.8 341.53C416.507 343.55 416.181 345.791 415.826 348.232C415.437 350.666 414.81 353.221 414.253 355.993C413.672 358.752 413.053 361.696 412.405 364.794L412.159 365.961L412.096 366.253L411.979 366.655L411.782 367.257C411.519 368.055 411.251 368.871 410.984 369.69C410.49 371.354 409.842 372.989 409.102 374.62C406.297 381.209 402.517 387.982 397.725 394.559C392.963 401.149 387.377 407.701 380.851 413.746C374.37 419.822 366.898 425.353 358.569 429.802C354.401 432.001 350.015 433.966 345.378 435.35C343.149 436.203 340.637 436.634 338.178 437.131C335.649 437.754 333.403 437.788 331.083 437.976C321.061 438.461 311.448 435.865 302.86 431.909C294.256 427.929 286.608 422.619 279.831 416.866C273.007 411.142 267.221 404.745 262.266 398.31C257.336 391.85 253.101 385.39 250.028 378.935C246.8 372.395 244.902 366.174 243.894 360.508C242.669 354.906 241.599 350.035 241.101 346.029C239.876 338.014 239.178 333.435 239.178 333.435C239.044 332.578 239.625 331.78 240.482 331.642C241.314 331.512 242.1 332.077 242.264 332.892Z" fill="#282833"/>
<path d="M419.155 316.258C426.965 291.443 448.318 300.909 447.085 318.917C445.078 348.131 424.435 359.345 413.711 350.945" stroke="#282833" stroke-miterlimit="10"/>
<path d="M436.933 313.79C433.271 310.027 421.066 308.284 416.985 328.575" stroke="#282833" stroke-width="0.5" stroke-miterlimit="10" stroke-linecap="round"/>
<path d="M417.613 319.106C422.848 319.449 426.811 323.965 426.468 329.2" stroke="#282833" stroke-width="0.5" stroke-miterlimit="10" stroke-linecap="round" stroke-linejoin="round"/>
<path d="M238.349 315.89C230.539 291.075 208.442 300.913 209.675 318.921C211.678 348.134 232.32 359.348 243.053 350.948" stroke="#282833" stroke-miterlimit="10"/>
<path d="M219.82 313.79C223.487 310.027 235.692 308.284 239.768 328.575" stroke="#282833" stroke-width="0.5" stroke-miterlimit="10" stroke-linecap="round"/>
<path d="M239.152 319.106C233.917 319.449 229.953 323.965 230.292 329.2" stroke="#282833" stroke-width="0.5" stroke-miterlimit="10" stroke-linecap="round" stroke-linejoin="round"/>
<path d="M277.391 408.319C277.554 422.317 277.742 436.345 277.324 450.397C277.078 457.434 276.798 464.454 275.715 471.575C275.409 473.364 275.087 475.141 274.452 477.014C274.08 477.964 273.796 478.913 272.796 480.033C272.529 480.309 272.09 480.61 271.705 480.832L271.069 481.129L269.869 481.668L260.303 485.975C234.882 497.535 209.829 510.07 187.084 526.038C181.38 529.998 175.895 534.25 170.572 538.673C165.283 543.139 160.166 547.809 155.37 552.785C150.562 557.744 146.008 562.949 141.861 568.455C137.613 573.895 133.912 579.719 130.434 585.657C127.068 591.661 124.007 597.836 121.511 604.25C120.236 607.449 119.023 610.664 118.041 613.967C116.912 617.216 116.076 620.561 115.235 623.897C113.546 630.574 112.451 637.385 111.589 644.217C111.23 647.646 111.017 651.087 110.72 654.524L110.452 664.876L107.73 662.154L329.517 661.749L551.304 662.167L548.595 664.876L548.323 654.524C548.026 651.091 547.817 647.642 547.457 644.217C546.6 637.381 545.505 630.566 543.811 623.893C542.967 620.556 542.135 617.216 541.006 613.963C540.027 610.664 538.811 607.44 537.536 604.246C535.039 597.836 531.979 591.652 528.613 585.652C525.134 579.715 521.43 573.891 517.186 568.451C513.034 562.945 508.485 557.735 503.673 552.776C498.877 547.801 493.759 543.135 488.47 538.665C483.144 534.241 477.662 529.993 471.959 526.03C449.214 510.066 424.165 497.519 398.735 485.966L389.169 481.656L387.969 481.12L387.672 480.987L387.522 480.92L387.446 480.882C387.488 480.911 386.807 480.531 387.062 480.669C386.865 480.518 386.744 480.46 386.489 480.234C386.175 479.933 385.878 479.59 385.619 479.235C385.41 478.917 385.335 478.716 385.184 478.449C384.896 477.934 384.775 477.479 384.582 477.002C383.947 475.133 383.625 473.352 383.32 471.562C382.241 464.442 381.957 457.422 381.71 450.385C381.292 436.332 381.476 422.3 381.643 408.306C381.651 407.441 382.358 406.747 383.223 406.755C384.085 406.763 384.775 407.466 384.779 408.323C384.762 422.33 384.733 436.315 385.301 450.255C385.615 457.204 385.991 464.204 387.091 470.927C387.388 472.582 387.726 474.259 388.237 475.702C388.375 476.028 388.492 476.429 388.65 476.672L388.843 477.04C388.855 477.031 388.826 477.031 388.784 477.077C388.834 477.157 389.106 477.315 389.257 477.428C389.558 477.6 388.918 477.249 389.014 477.299L389.089 477.332L389.24 477.399L389.541 477.529L390.749 478.051L400.383 482.266C425.996 493.626 451.526 505.856 474.698 522.1C480.518 526.109 486.125 530.42 491.585 534.923C497.008 539.472 502.268 544.23 507.214 549.319C512.169 554.39 516.873 559.725 521.171 565.391C525.565 570.981 529.42 576.981 533.037 583.106C536.54 589.303 539.735 595.687 542.344 602.314C543.673 605.622 544.944 608.95 545.973 612.357C547.152 615.723 548.03 619.173 548.917 622.622C550.689 629.521 551.852 636.549 552.759 643.603C553.144 647.14 553.378 650.681 553.695 654.223L554.009 664.872C554.055 666.327 552.909 667.54 551.454 667.582H551.392H551.296L329.509 668L107.722 667.594H107.638C106.179 667.59 104.996 666.402 105 664.943V664.868L105.318 654.219C105.631 650.677 105.865 647.132 106.25 643.599C107.157 636.545 108.324 629.517 110.093 622.618C110.979 619.168 111.857 615.719 113.036 612.353C114.065 608.941 115.332 605.613 116.665 602.31C119.274 595.679 122.469 589.294 125.972 583.098C129.589 576.972 133.444 570.973 137.838 565.382C142.141 559.721 146.84 554.382 151.799 549.31C156.745 544.218 162.005 539.464 167.428 534.915C172.889 530.411 178.5 526.097 184.316 522.091C207.487 505.843 233.013 493.605 258.631 482.258L268.264 478.043L269.468 477.52C269.648 477.437 269.92 477.332 270.02 477.269C269.987 477.228 269.936 477.311 269.978 477.286C270.17 477.098 270.534 476.379 270.773 475.697C271.287 474.255 271.626 472.587 271.922 470.927C273.022 464.204 273.398 457.204 273.712 450.255C274.28 436.315 274.251 422.325 274.243 408.323C274.243 407.457 274.941 406.755 275.811 406.755C276.68 406.768 277.379 407.462 277.391 408.319Z" fill="#282833"/>
<path d="M319.266 277.844C319.266 277.844 319.266 338.27 319.266 342.351C319.266 346.427 321.607 349.78 326.328 349.78C331.052 349.78 341.376 349.78 341.376 349.78" stroke="#282833" stroke-miterlimit="10" stroke-linecap="round" stroke-linejoin="round"/>
<path d="M375.267 301.059C375.267 305.412 371.738 308.945 367.385 308.945C363.029 308.945 359.5 305.412 359.5 301.059C359.5 296.707 363.029 293.178 367.385 293.178C371.738 293.178 375.267 296.707 375.267 301.059Z" fill="#282833"/>
<path d="M278.049 301.059C278.049 305.412 281.578 308.945 285.93 308.945C290.283 308.945 293.816 305.412 293.816 301.059C293.816 296.707 290.283 293.178 285.93 293.178C281.578 293.178 278.049 296.707 278.049 301.059Z" fill="#282833"/>
<path d="M294.652 365.446C309.955 374.289 350.081 374.289 362.49 365.446" stroke="#282833" stroke-miterlimit="10" stroke-linecap="round" stroke-linejoin="round"/>
<path d="M317.667 379.954C324.566 380.648 331.921 380.731 338.752 380.2" stroke="#282833" stroke-width="0.5" stroke-miterlimit="10" stroke-linecap="round" stroke-linejoin="round"/>
<path d="M356.479 265.214C356.479 265.214 358.85 264.85 362.4 264.616C365.95 264.386 370.67 264.349 375.382 264.549C380.094 264.712 384.802 265.135 388.327 265.57C391.851 266.03 394.197 266.489 394.197 266.489C395.343 266.715 396.095 267.823 395.87 268.973C395.69 269.897 394.937 270.558 394.055 270.671C394.055 270.671 391.684 270.963 388.139 271.189C384.593 271.39 379.868 271.486 375.152 271.331C370.436 271.214 365.728 270.855 362.203 270.386C358.679 269.914 356.337 269.391 356.337 269.391C355.192 269.132 354.468 267.995 354.727 266.849C354.924 265.971 355.643 265.344 356.479 265.214Z" fill="#282833"/>
<path d="M300.623 269.392C300.623 269.392 298.282 269.915 294.757 270.387C291.232 270.851 286.524 271.211 281.808 271.332C277.096 271.487 272.371 271.391 268.826 271.19C265.28 270.964 262.909 270.672 262.909 270.672C261.747 270.525 260.923 269.467 261.07 268.309C261.187 267.377 261.893 266.662 262.767 266.49C262.767 266.49 265.113 266.035 268.638 265.571C272.162 265.136 276.87 264.713 281.582 264.55C286.294 264.35 291.015 264.387 294.565 264.617C298.11 264.851 300.481 265.215 300.481 265.215C301.643 265.395 302.438 266.482 302.262 267.644C302.124 268.522 301.451 269.204 300.623 269.392Z" fill="#282833"/>
<path d="M296.281 360.885L291.556 368.767" stroke="#282833" stroke-width="0.5" stroke-miterlimit="10" stroke-linecap="round" stroke-linejoin="round"/>
<path d="M239.795 337.353C238.976 333.385 238.248 329.363 237.696 325.232C237.19 321.134 236.806 317.033 236.647 312.902C236.5 308.771 236.505 304.623 236.797 300.484C237.061 296.349 237.525 292.205 238.336 288.112C238.67 286.055 239.181 284.027 239.737 282.012C240.213 279.975 240.84 277.977 241.56 276.007C242.191 274.005 242.948 272.052 243.838 270.146C244.637 268.201 245.523 266.295 246.581 264.468C247.56 262.603 248.58 260.755 249.801 259.028C250.959 257.259 252.104 255.482 253.488 253.881C256.056 250.524 259.024 247.476 262.164 244.653C263.82 243.303 265.304 241.877 267.106 240.589C268.779 239.414 270.351 238.198 272.195 237.09C275.778 234.769 279.298 232.758 282.848 230.726C286.389 228.686 289.927 226.72 293.368 224.642C296.826 222.581 300.225 220.474 303.432 218.162C306.676 215.9 309.749 213.445 312.505 210.744C315.319 208.089 317.689 205.096 319.671 201.926C320.683 200.346 321.293 198.586 322.146 196.938C322.711 195.182 323.179 193.397 323.66 191.616C323.81 189.772 324.078 187.936 324.174 186.088L323.844 180.469L330.036 179.695C330.835 186.494 334.949 192.816 340.234 197.975C345.531 203.193 351.87 207.512 358.493 211.313C361.842 213.278 365.157 214.829 368.774 216.757L373.963 219.516L379.151 222.681C380.92 223.685 382.48 224.956 384.14 226.093C385.795 227.231 387.405 228.447 388.914 229.798C392.079 232.315 394.889 235.233 397.716 238.127C400.312 241.241 402.925 244.336 405.066 247.789C406.258 249.432 407.228 251.205 408.168 252.999C409.118 254.784 410.163 256.523 410.878 258.409C411.655 260.27 412.496 262.11 413.215 263.983L415.08 269.715C415.774 271.605 416.067 273.595 416.577 275.531C417.032 277.479 417.542 279.419 417.772 281.397L418.663 287.309C418.905 289.283 419.014 291.264 419.194 293.242C419.625 297.193 419.574 301.157 419.687 305.108C419.767 309.059 419.499 312.998 419.42 316.941L418.533 328.715C418.471 329.576 417.718 330.224 416.853 330.161C416.008 330.094 415.372 329.375 415.406 328.531L415.41 328.451L415.916 316.807C415.866 312.931 416.012 309.051 415.811 305.187C415.573 301.324 415.502 297.452 414.963 293.635C414.724 291.724 414.565 289.801 414.269 287.903L413.232 282.241C412.943 280.343 412.416 278.504 411.952 276.651C411.43 274.816 411.124 272.909 410.426 271.141L408.566 265.747C407.859 263.987 407.031 262.281 406.274 260.546C405.572 258.777 404.556 257.176 403.644 255.524C402.737 253.864 401.805 252.225 400.663 250.72C398.619 247.538 396.127 244.708 393.668 241.852C390.976 239.201 388.321 236.525 385.302 234.221C383.88 232.971 382.329 231.876 380.761 230.805C379.193 229.743 377.705 228.535 376.057 227.624L371.22 224.701L366.031 221.983C362.741 220.248 358.961 218.492 355.549 216.506C348.604 212.572 341.86 208.068 335.956 202.332C330.128 196.683 324.948 189.287 323.835 180.381L323.81 180.193C323.597 178.483 324.81 176.919 326.52 176.706C328.23 176.488 329.794 177.701 330.007 179.415L330.023 179.603L330.437 186.168C330.325 188.367 330.003 190.579 329.777 192.778C329.217 194.923 328.623 197.081 327.916 199.175C326.929 201.149 326.131 203.252 324.948 205.092C322.61 208.813 319.847 212.204 316.732 215.118C313.659 218.091 310.322 220.708 306.889 223.074C303.478 225.5 299.936 227.661 296.395 229.743C292.858 231.851 289.27 233.82 285.746 235.819C282.221 237.809 278.671 239.824 275.406 241.906C273.75 242.881 272.065 244.106 270.388 245.247C268.858 246.292 267.361 247.668 265.843 248.855C262.896 251.41 260.107 254.174 257.678 257.234C256.365 258.689 255.278 260.316 254.178 261.938C253.012 263.514 252.033 265.212 251.097 266.934C250.077 268.615 249.219 270.38 248.438 272.19C247.568 273.959 246.828 275.782 246.201 277.659C245.49 279.495 244.859 281.372 244.374 283.295C243.813 285.189 243.291 287.1 242.939 289.057C242.045 292.92 241.472 296.871 241.091 300.835C240.682 304.803 240.548 308.804 240.56 312.81C240.581 316.815 240.828 320.829 241.192 324.822C241.589 328.773 242.174 332.779 242.872 336.809C243.023 337.662 242.45 338.469 241.597 338.624C240.761 338.766 239.967 338.218 239.795 337.399V337.353Z" fill="#282833"/>
<path d="M423.456 348.184C425.188 348.184 426.592 346.78 426.592 345.048C426.592 343.316 425.188 341.912 423.456 341.912C421.724 341.912 420.32 343.316 420.32 345.048C420.32 346.78 421.724 348.184 423.456 348.184Z" fill="#282833"/>
<path d="M233.408 348.184C235.139 348.184 236.543 346.78 236.543 345.048C236.543 343.316 235.139 341.912 233.408 341.912C231.676 341.912 230.272 343.316 230.272 345.048C230.272 346.78 231.676 348.184 233.408 348.184Z" fill="#282833"/>
<path d="M249.034 489.261C249.034 489.261 249.268 490.235 249.703 492.071C250.196 493.865 250.66 496.674 251.718 499.927C252.224 501.57 252.784 503.385 253.395 505.363C254.043 507.328 254.937 509.41 255.782 511.655C256.576 513.926 257.76 516.2 258.897 518.638C259.971 521.109 261.368 523.567 262.815 526.139C265.654 531.306 269.379 536.499 273.585 541.734C278.067 546.718 282.968 551.861 288.85 556.155C294.712 560.411 301.189 564.341 308.368 566.804C315.467 569.304 323.24 570.63 330.695 570.709L336.711 570.513L342.373 569.923C344.258 569.66 346.144 569.246 348.021 568.916C349.886 568.506 351.705 567.95 353.54 567.477C360.807 565.307 367.505 561.841 373.355 557.606C385.108 549.11 393.407 537.8 398.931 527.426C404.479 517.003 407.728 507.574 409.605 500.91C410.541 497.573 411.198 494.931 411.587 493.12C411.946 491.327 412.139 490.373 412.139 490.373L412.147 490.327C412.318 489.478 413.146 488.931 413.995 489.098C414.789 489.257 415.32 490.001 415.245 490.787C415.245 490.787 414.848 494.906 413.226 501.85C411.541 508.754 408.798 518.65 403.27 529.672C397.76 540.576 389.485 552.965 376.8 562.33C370.503 566.976 363.215 570.822 355.338 573.256C353.352 573.791 351.375 574.405 349.355 574.869C347.319 575.25 345.304 575.71 343.23 576.019L336.941 576.713L330.925 576.96C322.295 576.864 314.1 575.292 306.294 572.503C298.5 569.744 291.547 565.454 285.305 560.825C279.008 556.197 273.953 550.577 269.379 545.175C265.085 539.539 261.334 533.982 258.512 528.509C257.082 525.783 255.673 523.195 254.657 520.578C253.583 517.99 252.471 515.577 251.747 513.185C250.969 510.815 250.15 508.641 249.56 506.554C249.017 504.455 248.515 502.528 248.059 500.788C247.085 497.31 246.859 494.6 246.454 492.744C246.124 490.888 245.948 489.897 245.948 489.897C245.797 489.044 246.366 488.233 247.219 488.078C248.059 487.936 248.845 488.462 249.034 489.261Z" fill="#282833"/>
<path d="M239.275 495.417C239.275 495.417 239.526 496.513 239.998 498.562C240.542 500.568 241.006 503.704 242.202 507.359C242.766 509.198 243.393 511.235 244.075 513.451C244.798 515.65 245.802 517.983 246.747 520.496C247.633 523.038 248.954 525.588 250.229 528.319C251.429 531.086 252.989 533.842 254.603 536.723C257.772 542.518 261.937 548.338 266.644 554.212C271.658 559.811 277.143 565.585 283.741 570.402C290.314 575.181 297.576 579.588 305.637 582.355C313.611 585.165 322.324 586.662 330.72 586.75L337.443 586.532L343.807 585.868C345.922 585.571 348.038 585.102 350.149 584.73C352.24 584.27 354.285 583.643 356.342 583.116C364.495 580.67 372.017 576.778 378.577 572.02C391.764 562.474 401.038 549.776 407.209 538.153C413.401 526.466 417.039 515.917 419.134 508.458C420.187 504.725 420.873 501.752 421.303 499.724C421.692 497.709 421.897 496.638 421.897 496.638L421.906 496.588C422.069 495.735 422.888 495.179 423.741 495.342C424.548 495.497 425.087 496.249 425.004 497.052C425.004 497.052 424.502 501.635 422.675 509.374C420.789 517.076 417.729 528.118 411.553 540.394C405.394 552.552 396.146 566.329 382.026 576.74C375.019 581.908 366.907 586.185 358.14 588.886C355.928 589.48 353.729 590.17 351.483 590.68C349.213 591.102 346.972 591.617 344.668 591.955L337.677 592.733L330.954 593C321.379 592.892 312.244 591.148 303.568 588.05C294.892 584.981 287.153 580.206 280.204 575.063C273.188 569.912 267.552 563.657 262.447 557.649C257.651 551.378 253.466 545.189 250.309 539.089C248.712 536.049 247.135 533.165 246.002 530.25C244.802 527.365 243.561 524.677 242.749 522.009C241.88 519.367 240.964 516.942 240.308 514.621C239.697 512.28 239.137 510.135 238.631 508.195C237.557 504.319 237.251 501.3 236.791 499.222C236.407 497.153 236.202 496.049 236.202 496.049C236.043 495.196 236.607 494.38 237.456 494.217C238.292 494.075 239.091 494.606 239.275 495.417Z" fill="#282833"/>
</g>
</svg>
