<svg width="660" height="660" viewBox="0 0 660 660" fill="none" xmlns="http://www.w3.org/2000/svg">
<mask id="mask0_42_100" style="mask-type:alpha" maskUnits="userSpaceOnUse" x="0" y="0" width="660" height="660">
<circle cx="330" cy="330" r="330" fill="#D9D9D9"/>
</mask>
<g mask="url(#mask0_42_100)">
<path d="M528.348 367.652C556.875 258.107 491.197 146.179 381.652 117.652C272.107 89.1256 160.179 154.803 131.652 264.348C103.125 373.892 168.803 485.821 278.348 514.348C387.892 542.874 499.821 477.196 528.348 367.652Z" fill="#91A100"/>
<path d="M301.028 425.721C310.172 428.875 320.314 430.03 330.059 429.968L337.76 429.613C340.243 429.363 342.587 428.908 345.007 428.583C347.422 428.362 349.775 427.465 352.149 426.931C354.556 426.426 356.8 425.475 359.066 424.607C368.098 421.078 376.107 415.592 382.569 408.954C389.036 402.313 394.109 394.724 398.026 387.053C401.951 379.368 404.788 371.629 407.008 364.354C408.038 360.837 408.889 357.095 409.815 353.749C410.629 350.353 411.242 347.141 411.909 344.112C413.211 338.063 414.008 332.64 414.838 328.243C415.493 323.955 416.01 320.575 416.373 318.206C413.762 314.626 411.843 303.988 407.738 277.518C405.848 265.341 403.704 251.541 401.242 238.813C398.969 227.052 395.364 215.73 392.732 207.458C390.542 200.591 389.236 196.419 389.127 193.866C388.56 193.432 387.93 192.944 387.213 192.389C385.748 191.138 383.879 189.882 381.723 188.539C380.655 187.846 379.516 187.108 378.318 186.336C377.088 185.602 375.724 184.909 374.347 184.146C372.945 183.407 371.535 182.556 369.996 181.83C368.427 181.163 366.808 180.47 365.148 179.757C364.322 179.402 363.479 179.044 362.628 178.676C361.748 178.397 360.851 178.105 359.95 177.821C358.152 177.216 356.321 176.603 354.46 175.977C350.609 175.185 346.73 173.887 342.604 173.52C340.56 173.278 338.507 172.878 336.43 172.761L330.164 172.511L328.595 172.423C328.357 172.385 327.598 172.448 327.127 172.456L323.889 172.586C321.741 172.678 319.546 172.682 317.586 173.036C315.575 173.299 313.581 173.562 311.607 173.821C309.634 174.267 307.686 174.705 305.771 175.139C303.831 175.493 302.008 176.144 300.198 176.691C298.4 177.279 296.577 177.705 294.908 178.385C291.583 179.79 288.321 180.896 285.567 182.465C282.739 183.883 280.144 185.197 277.987 186.615C275.78 187.95 273.82 189.089 272.372 190.249C270.937 191.28 269.819 192.085 269.009 192.66C269.406 195.009 268.046 199.364 265.472 207.437C262.839 215.705 259.231 227.036 256.953 238.804C254.492 251.537 252.347 265.341 250.458 277.523C245.835 307.33 243.979 317.05 240.796 319.224C241.171 321.401 241.885 325.556 242.894 331.409C243.77 335.802 244.317 341.33 245.969 347.283C246.703 350.287 247.483 353.486 248.305 356.857C249.144 360.261 249.823 363.736 251.117 367.412C253.47 374.625 256.486 382.28 260.637 389.835C264.783 397.373 270.107 404.787 276.84 411.145C283.556 417.511 291.829 422.617 301.028 425.721ZM285.993 315.761C281.775 315.765 278.354 312.349 278.346 308.131C278.342 303.917 281.75 300.501 285.968 300.492C290.181 300.488 293.606 303.897 293.615 308.11C293.619 312.328 290.21 315.753 285.993 315.761ZM340.643 379.51C337.639 379.744 334.565 379.86 331.478 379.86C327.431 379.86 323.364 379.66 319.421 379.264C318.846 379.205 318.428 378.692 318.487 378.117C318.541 377.541 319.092 377.124 319.626 377.182C326.467 377.87 333.685 377.954 340.48 377.428C341.106 377.328 341.557 377.816 341.598 378.384C341.644 378.963 341.219 379.464 340.643 379.51ZM365.603 315.761C361.385 315.765 357.964 312.349 357.96 308.131C357.952 303.917 361.36 300.501 365.578 300.492C369.791 300.488 373.216 303.897 373.225 308.11C373.229 312.328 369.82 315.753 365.603 315.761ZM354.581 277.009C354.777 276.133 355.49 275.508 356.325 275.37C356.325 275.37 358.69 275.003 362.232 274.765C365.77 274.527 370.484 274.486 375.181 274.673C379.883 274.828 384.58 275.241 388.097 275.666C391.614 276.121 393.95 276.576 393.95 276.576C395.097 276.801 395.848 277.902 395.623 279.049C395.448 279.971 394.697 280.635 393.816 280.747C393.816 280.747 391.451 281.044 387.913 281.277C384.372 281.482 379.662 281.586 374.96 281.44C370.254 281.331 365.561 280.981 362.04 280.518C358.523 280.055 356.191 279.538 356.191 279.538C355.048 279.287 354.326 278.157 354.581 277.009ZM321.294 284.264L321.378 338.397C321.382 339.999 321.87 343.716 326.33 343.716C326.338 343.716 326.346 343.716 326.346 343.716L341.365 343.691L341.373 347.863L326.355 347.888C326.355 347.888 326.342 347.888 326.334 347.888C320.886 347.888 317.223 344.079 317.206 338.405L317.123 284.277L321.294 284.264ZM358.156 362.018C359.049 361.313 360.367 361.455 361.085 362.372C361.794 363.278 361.64 364.588 360.73 365.301C354.773 369.982 342.212 372.33 329.371 372.33C316.768 372.33 303.89 370.065 296.693 365.518C295.721 364.905 295.429 363.611 296.043 362.639C296.66 361.672 297.945 361.388 298.921 361.993C312.121 370.336 347.551 370.353 358.156 362.018ZM262.969 280.964C261.813 280.822 260.987 279.767 261.133 278.607C261.25 277.677 261.951 276.959 262.823 276.793C262.823 276.793 265.163 276.338 268.676 275.866C272.193 275.424 276.886 274.999 281.587 274.828C286.289 274.623 290.999 274.657 294.541 274.878C298.083 275.107 300.448 275.466 300.448 275.466C301.608 275.645 302.405 276.73 302.225 277.886C302.092 278.774 301.42 279.45 300.594 279.638C300.594 279.638 298.258 280.163 294.745 280.639C291.228 281.106 286.531 281.473 281.829 281.598C277.124 281.757 272.414 281.669 268.876 281.473C265.334 281.256 262.969 280.964 262.969 280.964Z" fill="#FFB5B3"/>
<path d="M276.723 465.875C276.36 468.528 276.11 471.127 275.28 473.859C284.349 480.906 293.339 488.043 302.234 495.307C311.228 502.532 320.106 509.912 328.958 517.308C338.282 509.891 347.623 502.503 357.092 495.265C366.141 488.235 375.29 481.323 384.505 474.498C382.469 467.477 382.34 460.806 381.906 454.014C381.393 441.924 381.493 429.881 381.614 417.853C375.69 422.939 368.828 427.223 361.31 430.223C358.853 431.182 356.408 432.221 353.818 432.792C351.235 433.401 348.757 434.349 346.054 434.636C343.405 435.029 340.697 435.529 338.078 435.8L330.376 436.209C319.592 436.263 309.055 434.924 299.038 431.437C291.187 428.729 283.965 424.607 277.699 419.605C277.858 431.553 278.008 443.531 277.487 455.545C277.32 458.979 277.103 462.42 276.723 465.875Z" fill="#FFB5B3"/>
<path d="M238.285 324.617C237.772 322.711 237.155 320.996 236.454 319.465C235.382 319.953 234.406 320.654 233.605 321.568C232.124 323.261 231.389 325.435 231.54 327.684C231.577 328.259 231.143 328.756 230.568 328.793C230.547 328.797 230.522 328.797 230.497 328.797C229.954 328.797 229.495 328.372 229.458 327.825C229.27 325.022 230.184 322.314 232.036 320.199C233.008 319.081 234.193 318.222 235.495 317.613C233.642 314.384 231.319 312.231 228.599 311.439C225.445 310.517 222.27 311.589 220.776 313.128C220.376 313.545 219.717 313.558 219.3 313.153C218.887 312.749 218.874 312.089 219.275 311.681C221.148 309.749 225.053 308.239 229.183 309.436C231.577 310.141 234.431 311.897 236.88 315.802C236.829 315.539 236.796 315.281 236.742 315.018L236.529 315.089C233.534 305.64 228.052 300.717 221.894 301.877C216.638 302.878 211.382 308.656 211.995 317.388C213.263 335.426 221.698 345.397 229.166 348.709C233.801 350.762 238.356 350.457 241.74 347.933C240.309 341.784 239.983 336.407 239.274 331.989C238.886 329.098 238.561 326.661 238.285 324.617Z" fill="#FFB5B3"/>
<path d="M240.187 311.363C242.094 304.18 244.313 289.887 246.328 276.892C248.226 264.673 250.375 250.827 252.849 238.024C255.172 226.013 258.823 214.553 261.489 206.185C262.815 202.021 264.171 197.749 264.709 195.305C257.955 199.339 236.099 219.042 230.905 244.749C225.424 271.886 231.535 287.818 236.45 300.621C237.864 304.288 239.224 307.838 240.187 311.363Z" fill="#282833" stroke="#282833" stroke-width="0.5" stroke-miterlimit="10"/>
<path d="M421.71 312.974C423.649 310.805 425.698 309.645 427.492 309.111C431.622 307.889 435.526 309.399 437.404 311.318C437.808 311.731 437.8 312.39 437.387 312.795C436.974 313.195 436.315 313.195 435.91 312.778C434.408 311.243 431.23 310.187 428.084 311.114C425.368 311.919 423.049 314.076 421.205 317.313C422.511 317.918 423.695 318.773 424.671 319.887C426.528 321.994 427.45 324.697 427.271 327.5C427.237 328.055 426.778 328.477 426.232 328.477C426.211 328.477 426.186 328.477 426.165 328.472C425.589 328.435 425.151 327.943 425.193 327.367C425.335 325.118 424.592 322.949 423.107 321.259C422.498 320.571 421.78 320.025 421.004 319.578L421.021 320.225L419.895 319.995C419.678 320.513 419.465 321.038 419.273 321.597C419.044 323.6 418.773 325.974 418.451 328.764C417.776 333.241 417.179 338.664 416.078 344.917C415.902 345.885 415.727 346.908 415.556 347.917C418.894 350.116 423.22 350.349 427.634 348.376C435.093 345.043 443.495 335.051 444.704 317.004C445.288 308.348 440.261 302.674 435.247 301.74C429.694 300.688 424.78 304.91 421.71 312.974Z" fill="#FFB5B3"/>
<path d="M405.343 238.02C407.817 250.819 409.966 264.665 411.864 276.88C413.808 289.404 415.94 303.142 417.8 310.551C418.63 307.451 419.89 304.159 421.25 300.593C426.031 288.077 432.585 270.94 427.291 244.741C422.243 219.785 401.518 200.512 394.084 195.722C394.05 195.768 394.067 195.827 394.025 195.868C393.929 195.969 393.783 195.964 393.671 196.035C394.28 198.555 395.494 202.381 396.708 206.194C399.369 214.558 403.02 226.022 405.343 238.02Z" fill="#282833" stroke="#282833" stroke-width="0.5" stroke-miterlimit="10"/>
<path d="M292.247 535.78L307.695 527.515L322.609 519.739C314.662 512.964 306.723 506.181 298.897 499.256C291.258 492.597 283.724 485.814 276.223 478.998C278.968 488.163 281.688 497.333 284.242 506.548C286.995 516.268 289.661 526.013 292.247 535.78Z" fill="white"/>
<path d="M305.726 609.321C307.441 600.61 309.189 591.904 311.128 583.235C312.964 574.825 314.733 566.398 316.748 558.025C313.415 550.349 310.181 542.631 307.065 534.855L291.751 542.81L291.73 542.823C290.27 543.582 288.472 543.015 287.712 541.551C287.608 541.35 287.529 541.129 287.47 540.925C284.629 529.924 281.934 518.885 279.314 507.822C276.953 498.11 274.734 488.365 272.581 478.594C272.172 478.87 271.743 479.107 271.651 479.124L269.319 480.171L264.655 482.278L255.364 486.533C230.651 497.93 206.484 510.596 184.532 526.436C179.113 530.47 173.727 534.563 168.679 539.039C163.552 543.428 158.729 548.146 154.09 553.023C149.556 557.991 145.104 563.052 141.204 568.525C137.174 573.907 133.619 579.614 130.324 585.454C127.178 591.374 124.191 597.398 121.88 603.697C119.389 609.926 117.533 616.388 115.927 622.9C115.08 626.142 114.592 629.475 113.904 632.754C113.353 636.066 112.973 639.408 112.502 642.729L111.701 652.778L111.53 660.154L296.669 659.516C297.916 651.485 299.243 643.471 300.724 635.491C302.255 626.742 303.957 618.023 305.726 609.321Z" fill="white"/>
<path d="M321.871 555.308C323.281 554.908 325.158 554.653 327.036 554.645C328.913 554.657 330.79 554.92 332.2 555.317C332.392 555.375 332.551 555.429 332.722 555.488C336.727 547.311 340.823 539.18 345.091 531.12L328.959 523.227L310.603 533.023L310.102 533.285C313.965 540.632 317.703 548.037 321.35 555.479C321.521 555.421 321.679 555.367 321.871 555.308Z" fill="#5265FF"/>
<path d="M547.522 641.949C547.03 638.611 546.654 635.257 546.07 631.937C545.361 628.641 544.877 625.295 543.993 622.041C542.353 615.508 540.463 609.021 537.923 602.78C535.566 596.464 532.529 590.432 529.346 584.495C525.971 578.663 522.395 572.927 518.303 567.558C514.348 562.084 509.838 557.032 505.266 552.051C495.921 542.264 485.517 533.483 474.499 525.54C452.339 509.766 427.997 497.159 403.112 485.824L393.759 481.586L389.066 479.491L388.039 479.037C385.991 488.649 383.888 498.24 381.64 507.81C379.091 518.861 376.525 529.908 373.776 540.913C373.38 542.502 371.769 543.466 370.18 543.074C369.988 543.024 369.809 542.961 369.638 542.877L369.6 542.861L349.067 533.078L347.953 532.532C344.553 541.105 340.986 549.59 337.319 558.029C339.338 566.402 341.103 574.833 342.942 583.244C344.882 591.913 346.63 600.619 348.345 609.33C350.118 618.032 351.816 626.751 353.351 635.495C354.832 643.442 356.146 651.419 357.393 659.412L548.561 659.474L548.365 652.044L547.522 641.949Z" fill="white"/>
<path d="M368.936 535.91C371.447 526.106 374.076 516.34 376.733 506.574C379.228 497.254 381.894 487.976 384.584 478.707C376.554 485.64 368.494 492.532 360.33 499.294C352.136 506.186 343.847 512.953 335.533 519.698L351.773 527.47L368.936 535.91Z" fill="white"/>
<path d="M342.462 610.546C340.56 601.873 338.691 593.192 337.005 584.473C335.403 576.388 333.755 568.311 332.304 560.197C332.262 560.21 332.233 560.218 332.199 560.23C330.789 560.627 328.912 560.89 327.035 560.902C325.157 560.894 323.28 560.635 321.87 560.239C321.832 560.226 321.803 560.214 321.766 560.201C320.314 568.315 318.662 576.388 317.064 584.473C315.383 593.192 313.51 601.873 311.607 610.546C309.759 619.232 307.84 627.901 305.763 636.536C303.994 644.221 302.058 651.863 300.068 659.498L330.034 659.398L353.984 659.406C351.998 651.805 350.075 644.192 348.315 636.541C346.229 627.901 344.31 619.232 342.462 610.546Z" fill="#5265FF"/>
<path opacity="0.5" d="M276.102 434.681C276.102 434.681 300.594 472.753 327.16 472.753C353.726 472.753 381.485 431.51 381.485 431.51V416.071C381.485 416.071 361.381 434.681 329.646 434.681C297.912 434.681 276.072 415.925 276.072 415.925L276.102 434.681Z" fill="#A0A0A0"/>
<path opacity="0.2" d="M142.405 567.832C126.018 606.25 213.463 645.372 335.571 645.372C457.679 645.372 535.774 606.383 523.497 572.596C523.497 572.596 551.74 606.408 550.943 664.041H108.355C108.355 664.041 106.644 614.935 142.405 567.832Z" fill="#A0A0A0"/>
<path opacity="0.3" d="M272.581 478.602L285.981 557.774L328.954 523.232L375.073 555.488L388.306 477.042L370.893 540.178L329.943 520.362L290.357 540.178L272.581 478.602Z" fill="#A0A0A0"/>
<path opacity="0.5" d="M258.73 230.677C258.73 230.677 248.346 301.406 256.168 344.07C263.991 386.735 274.562 413.58 300.565 428.837C300.565 428.837 264.258 423.017 250.395 369.051L239.323 317.667C239.323 317.667 241.997 328.576 258.73 230.677Z" fill="#A0A0A0"/>
<path opacity="0.5" d="M399.519 230.677C399.519 230.677 409.903 301.406 402.081 344.07C394.259 386.735 383.687 413.58 357.681 428.837C357.681 428.837 393.988 423.017 407.85 369.051L418.922 317.667C418.931 317.663 416.252 328.576 399.519 230.677Z" fill="#A0A0A0"/>
<path d="M391.932 196.036C391.932 196.036 390.218 194.709 387.214 192.394C385.75 191.142 383.881 189.887 381.724 188.543C380.656 187.851 379.517 187.113 378.32 186.341C377.089 185.606 375.725 184.914 374.348 184.151C372.947 183.412 371.537 182.561 369.997 181.835C368.429 181.168 366.81 180.475 365.149 179.762C364.323 179.407 363.481 179.048 362.63 178.681C361.75 178.402 360.853 178.11 359.952 177.826C358.154 177.221 356.322 176.608 354.461 175.982C350.611 175.19 346.731 173.892 342.605 173.525C340.561 173.283 338.509 172.883 336.431 172.766L330.165 172.515L328.596 172.428C328.359 172.39 327.599 172.453 327.128 172.461L323.891 172.591C321.742 172.682 319.548 172.687 317.587 173.041C315.576 173.304 313.582 173.567 311.609 173.825C309.636 174.272 307.688 174.71 305.773 175.144C303.833 175.498 302.01 176.149 300.199 176.696C298.401 177.284 296.578 177.709 294.909 178.389C291.584 179.795 288.322 180.901 285.569 182.469C282.74 183.888 280.145 185.202 277.989 186.62C275.782 187.955 273.821 189.094 272.373 190.254C269.345 192.432 267.613 193.666 267.613 193.666L267.501 193.75C266.8 194.255 265.824 194.092 265.319 193.391C264.848 192.736 264.964 191.835 265.553 191.314C265.553 191.314 267.205 189.849 270.096 187.296C271.51 185.965 273.437 184.622 275.627 183.041C276.733 182.265 277.864 181.372 279.144 180.554C280.454 179.791 281.835 178.994 283.274 178.156C286.099 176.366 289.465 175.027 292.919 173.371C294.659 172.565 296.553 172.011 298.435 171.297C300.324 170.592 302.268 169.912 304.321 169.483C306.357 168.99 308.422 168.49 310.516 167.985C312.681 167.664 314.871 167.342 317.082 167.013C319.331 166.604 321.438 166.575 323.595 166.441L326.828 166.262C327.437 166.241 327.758 166.178 328.601 166.195L330.274 166.258L336.961 166.617C339.176 166.779 341.362 167.238 343.536 167.534C347.92 168.01 352.046 169.432 356.122 170.367C360.027 171.856 363.956 172.945 367.327 174.793C369.042 175.632 370.719 176.454 372.329 177.242C373.919 178.085 375.362 179.057 376.797 179.904C378.211 180.792 379.601 181.56 380.852 182.44C382.066 183.375 383.217 184.263 384.302 185.098C386.496 186.741 388.328 188.21 389.646 189.545C392.395 192.156 393.968 193.646 393.968 193.646C394.594 194.242 394.619 195.235 394.027 195.861C393.468 196.462 392.558 196.516 391.932 196.036Z" fill="#282833"/>
<path d="M240.487 317.481C240.487 317.481 241.359 322.55 242.886 331.419C243.762 335.812 244.309 341.339 245.961 347.292C246.695 350.296 247.475 353.496 248.297 356.867C249.136 360.271 249.816 363.746 251.109 367.421C253.462 374.634 256.478 382.289 260.629 389.844C264.776 397.383 270.099 404.796 276.832 411.154C283.557 417.507 291.83 422.614 301.028 425.718C310.173 428.871 320.314 430.027 330.06 429.964L337.761 429.61C340.243 429.36 342.588 428.905 345.007 428.579C347.423 428.358 349.775 427.461 352.149 426.927C354.556 426.423 356.801 425.471 359.066 424.604C368.098 421.074 376.108 415.588 382.57 408.951C389.036 402.31 394.109 394.721 398.026 387.049C401.952 379.365 404.789 371.626 407.008 364.351C408.039 360.834 408.89 357.092 409.816 353.746C410.629 350.35 411.242 347.138 411.91 344.109C413.212 338.06 414.008 332.637 414.838 328.24C416.194 319.371 416.97 314.298 416.97 314.298L416.974 314.264C417.104 313.409 417.905 312.821 418.76 312.954C419.59 313.08 420.17 313.851 420.074 314.682C420.074 314.682 419.482 319.805 418.451 328.766C417.775 333.242 417.179 338.665 416.078 344.919C415.51 348.031 414.993 351.397 414.288 354.864C413.483 358.327 412.728 361.81 411.689 365.719C409.565 373.232 406.804 381.309 402.853 389.452C398.907 397.571 393.738 405.826 386.758 413.014C379.833 420.232 371.106 426.306 361.306 430.211C358.849 431.17 356.404 432.209 353.814 432.78C351.231 433.389 348.753 434.336 346.05 434.624C343.401 435.016 340.694 435.517 338.074 435.788L330.373 436.197C319.589 436.251 309.051 434.912 299.034 431.425C289.068 427.987 280.044 422.326 272.815 415.388C265.527 408.484 260.041 400.407 255.856 392.393C251.66 384.359 248.702 376.328 246.428 368.835C245.239 365.193 244.513 361.41 243.796 357.955C243.082 354.468 242.407 351.16 241.768 348.052C240.308 341.844 239.991 336.425 239.273 331.969C238.08 323.046 237.396 317.952 237.396 317.952C237.279 317.097 237.876 316.304 238.731 316.188C239.566 316.083 240.341 316.659 240.487 317.481Z" fill="#282833"/>
<path d="M418.919 314.54C426.67 289.768 447.992 299.18 446.787 317.147C444.83 346.3 424.255 357.522 413.542 349.157" stroke="#282833" stroke-miterlimit="10"/>
<path d="M436.657 312.053C432.994 308.306 420.817 306.583 416.774 326.837" stroke="#282833" stroke-width="0.5" stroke-miterlimit="10" stroke-linecap="round"/>
<path d="M417.383 317.385C422.606 317.719 426.57 322.216 426.236 327.439" stroke="#282833" stroke-width="0.5" stroke-miterlimit="10" stroke-linecap="round" stroke-linejoin="round"/>
<path d="M243.271 349.433C232.579 357.831 211.966 346.675 209.918 317.531C208.654 299.564 230.693 289.718 238.52 314.461" stroke="#282833" stroke-miterlimit="10"/>
<path d="M220.031 312.4C223.681 308.637 235.858 306.876 239.959 327.118" stroke="#282833" stroke-width="0.5" stroke-miterlimit="10" stroke-linecap="round"/>
<path d="M239.323 317.664C234.1 318.014 230.153 322.528 230.504 327.751" stroke="#282833" stroke-width="0.5" stroke-miterlimit="10" stroke-linecap="round" stroke-linejoin="round"/>
<path d="M277.629 414.508C277.805 428.15 278.08 441.821 277.483 455.546C277.321 458.979 277.1 462.421 276.72 465.875C276.244 469.354 275.973 472.742 274.321 476.463C274.029 476.955 273.816 477.423 273.32 477.948C273.078 478.386 271.814 479.096 271.651 479.129L269.319 480.176L264.655 482.283L255.365 486.538C230.651 497.935 206.484 510.601 184.532 526.441C179.113 530.475 173.727 534.568 168.679 539.044C163.552 543.433 158.73 548.151 154.091 553.028C149.556 557.996 145.105 563.057 141.204 568.53C137.174 573.912 133.62 579.619 130.324 585.459C127.178 591.379 124.191 597.403 121.88 603.702C119.39 609.931 117.533 616.393 115.927 622.905C115.08 626.146 114.592 629.48 113.904 632.759C113.353 636.071 112.974 639.413 112.502 642.733L111.701 652.783L111.467 662.871L108.756 660.167L330.044 659.404L551.344 659.475L548.645 662.178L548.373 652.041L547.531 641.949C547.038 638.612 546.663 635.258 546.079 631.937C545.37 628.641 544.886 625.295 544.001 622.041C542.362 615.508 540.472 609.021 537.932 602.78C535.574 596.464 532.537 590.432 529.354 584.495C525.979 578.663 522.404 572.927 518.312 567.558C514.357 562.085 509.847 557.033 505.275 552.051C495.93 542.265 485.526 533.483 474.508 525.54C452.348 509.766 428.005 497.159 403.121 485.825L393.767 481.586L389.074 479.492L387.906 478.97L387.614 478.841L387.264 478.653L387.193 478.607L387.063 478.52C386.901 478.411 386.725 478.315 386.371 477.948C385.14 476.617 385.061 475.9 384.615 474.911C382.458 467.736 382.362 460.936 381.915 454.011C381.327 440.227 381.54 426.494 381.669 412.789C381.678 411.926 382.383 411.229 383.246 411.237C384.106 411.246 384.794 411.942 384.798 412.798C384.819 426.51 384.756 440.21 385.491 453.831C385.954 460.531 386.292 467.627 388.186 473.597C388.978 475.287 388.448 475.02 390.626 475.946L395.349 477.99L404.777 482.141C429.857 493.288 454.709 505.578 477.291 521.643C488.533 529.691 499.213 538.627 508.846 548.643C513.568 553.737 518.216 558.922 522.321 564.55C526.568 570.069 530.285 575.977 533.793 582.001C537.11 588.125 540.272 594.362 542.742 600.886C545.395 607.34 547.381 614.044 549.095 620.79C550.021 624.157 550.543 627.607 551.281 631.011C551.89 634.436 552.299 637.898 552.816 641.344L553.726 651.74L554.039 662.166C554.085 663.617 552.941 664.827 551.494 664.869H551.436H551.344L330.056 665.641L108.756 665.578H108.672C107.216 665.578 106.04 664.398 106.04 662.942V662.871L106.32 652.495L107.187 642.145C107.688 638.716 108.093 635.27 108.677 631.853C109.394 628.462 109.92 625.028 110.808 621.674C112.494 614.949 114.446 608.266 117.045 601.829C119.469 595.321 122.577 589.093 125.856 582.985C129.285 576.957 132.986 571.079 137.162 565.543C141.208 559.911 145.81 554.721 150.486 549.632C155.271 544.642 160.236 539.824 165.496 535.36C170.682 530.796 176.188 526.645 181.729 522.557C204.102 506.429 228.77 494.051 253.688 482.846L263.057 478.682L267.746 476.63L270.091 475.608C270.692 475.303 270.224 475.587 270.5 475.345C270.617 475.266 270.771 474.949 270.925 474.719C272.114 472.2 272.611 468.679 273.045 465.429C273.449 462.104 273.704 458.733 273.9 455.354C274.642 441.812 274.521 428.171 274.501 414.525C274.501 413.661 275.197 412.96 276.061 412.956C276.924 412.965 277.621 413.653 277.629 414.508Z" fill="#282833"/>
<path d="M319.21 284.269C319.21 284.269 319.289 334.326 319.293 338.402C319.302 342.47 321.642 345.811 326.348 345.803C331.066 345.795 341.366 345.778 341.366 345.778" stroke="#282833" stroke-miterlimit="10" stroke-linecap="round" stroke-linejoin="round"/>
<path d="M278.348 308.132C278.356 312.35 281.777 315.767 285.995 315.762C290.212 315.754 293.621 312.329 293.616 308.111C293.608 303.898 290.183 300.489 285.97 300.494C281.756 300.502 278.343 303.919 278.348 308.132Z" fill="#282833"/>
<path d="M357.962 308.132C357.966 312.35 361.387 315.767 365.605 315.762C369.822 315.754 373.231 312.329 373.226 308.111C373.218 303.898 369.793 300.489 365.58 300.494C361.366 300.502 357.954 303.919 357.962 308.132Z" fill="#282833"/>
<path d="M297.807 363.757C311.729 372.555 348.186 372.505 359.446 363.661" stroke="#282833" stroke-miterlimit="10" stroke-linecap="round" stroke-linejoin="round"/>
<path d="M356.325 275.375C356.325 275.375 358.691 275.008 362.232 274.77C365.77 274.532 370.484 274.49 375.182 274.678C379.883 274.833 384.581 275.245 388.097 275.671C391.614 276.126 393.95 276.58 393.95 276.58C395.098 276.806 395.849 277.907 395.623 279.054C395.448 279.976 394.697 280.64 393.817 280.752C393.817 280.752 391.451 281.048 387.914 281.282C384.372 281.486 379.662 281.591 374.96 281.445C370.255 281.336 365.561 280.986 362.04 280.523C358.524 280.06 356.192 279.542 356.192 279.542C355.044 279.284 354.327 278.153 354.577 277.01C354.777 276.134 355.491 275.508 356.325 275.375Z" fill="#282833"/>
<path d="M300.595 279.633C300.595 279.633 298.259 280.159 294.746 280.634C291.229 281.102 286.532 281.469 281.83 281.594C277.124 281.752 272.414 281.665 268.877 281.469C265.335 281.252 262.97 280.96 262.97 280.96C261.814 280.818 260.988 279.762 261.134 278.603C261.251 277.672 261.952 276.955 262.823 276.788C262.823 276.788 265.164 276.333 268.676 275.862C272.193 275.42 276.887 274.994 281.588 274.823C286.29 274.619 291 274.652 294.541 274.873C298.083 275.103 300.449 275.461 300.449 275.461C301.608 275.641 302.405 276.725 302.226 277.881C302.092 278.77 301.421 279.445 300.595 279.633Z" fill="#282833"/>
<path d="M239.324 317.665C237.397 300.494 220.764 284.42 228.861 244.333C234.902 214.43 263.471 191.414 266.587 192.503C269.207 193.417 259.478 214.743 254.898 238.418C248.014 274.024 243.817 316.751 239.324 317.665Z" stroke="#282833" stroke-miterlimit="10"/>
<path d="M418.873 317.665C418.523 303.472 437.434 284.42 429.336 244.333C423.291 214.43 394.723 191.414 391.611 192.503C388.987 193.417 398.715 214.743 403.296 238.418C410.179 274.024 414.376 316.751 418.873 317.665Z" stroke="#282833" stroke-miterlimit="10"/>
<path d="M274.209 473.004C283.646 480.325 292.991 487.755 302.235 495.306C311.538 502.782 320.72 510.408 329.873 518.063C331.146 519.127 331.312 521.021 330.249 522.293C329.994 522.594 329.694 522.836 329.368 523.015L329.335 523.032L310.595 533.032L291.747 542.823L291.726 542.835C290.266 543.595 288.468 543.027 287.709 541.563C287.605 541.363 287.525 541.142 287.467 540.937C284.626 529.936 281.931 518.898 279.311 507.834C276.625 496.796 274.109 485.707 271.681 474.598C271.493 473.742 272.036 472.896 272.891 472.708C273.371 472.599 273.85 472.724 274.209 473.004ZM276.224 478.995C278.969 488.16 281.689 497.33 284.242 506.545C287.342 517.479 290.366 528.43 293.245 539.427L288.969 537.537L307.696 527.517L326.532 517.696L325.998 522.661C316.907 514.926 307.842 507.162 298.902 499.253C291.259 492.599 283.725 485.815 276.224 478.995Z" fill="#282833"/>
<path d="M384.586 478.707C376.556 485.641 368.496 492.532 360.332 499.295C350.92 507.213 341.388 514.977 331.83 522.711L331.254 517.651L351.771 527.467L372.188 537.5L368.012 539.448C370.79 528.455 373.756 517.509 376.735 506.566C379.23 497.251 381.9 487.977 384.586 478.707ZM388.996 474.581C386.651 485.682 384.232 496.763 381.637 507.805C379.088 518.856 376.522 529.903 373.773 540.908C373.377 542.498 371.766 543.461 370.177 543.069C369.985 543.019 369.806 542.957 369.635 542.873L369.597 542.857L349.064 533.074L328.63 523.078L328.609 523.07C327.12 522.34 326.503 520.542 327.229 519.048C327.429 518.639 327.725 518.285 328.059 518.018C337.679 510.363 347.324 502.741 357.094 495.269C366.802 487.722 376.61 480.296 386.505 472.983C387.206 472.458 388.199 472.608 388.721 473.309C389 473.684 389.083 474.152 388.996 474.581Z" fill="#282833"/>
<path d="M319.521 378.226C326.405 378.918 333.743 379.001 340.56 378.472" stroke="#282833" stroke-width="0.5" stroke-miterlimit="10" stroke-linecap="round" stroke-linejoin="round"/>
<path d="M308.704 530.595C313.281 539.206 317.657 547.908 321.933 556.661C322.171 557.145 322.233 557.674 322.146 558.167L322.121 558.313C320.598 567.065 318.787 575.759 317.065 584.47C315.383 593.189 313.51 601.87 311.608 610.543C309.76 619.229 307.841 627.898 305.763 636.534C303.769 645.19 301.621 653.813 299.343 662.407C299.122 663.241 298.262 663.742 297.428 663.521C296.648 663.316 296.164 662.553 296.281 661.773C297.624 652.983 299.097 644.218 300.72 635.482C302.259 626.734 303.957 618.019 305.73 609.317C307.444 600.606 309.192 591.9 311.132 583.231C313.026 574.558 314.837 565.864 316.935 557.232L317.123 558.884C313.235 549.953 309.455 540.975 305.872 531.906C305.555 531.1 305.947 530.191 306.752 529.874C307.494 529.578 308.333 529.899 308.704 530.595Z" fill="#282833"/>
<path d="M348.203 531.91C344.62 540.979 340.836 549.957 336.952 558.884L337.14 557.236C339.238 565.868 341.049 574.562 342.943 583.235C344.883 591.904 346.631 600.61 348.345 609.321C350.118 618.023 351.816 626.742 353.351 635.486C354.978 644.222 356.447 652.983 357.794 661.777C357.924 662.632 357.34 663.429 356.48 663.563C355.683 663.683 354.932 663.175 354.728 662.415C352.45 653.817 350.302 645.198 348.312 636.542C346.23 627.906 344.311 619.237 342.463 610.552C340.561 601.879 338.692 593.197 337.006 584.478C335.283 575.763 333.473 567.069 331.95 558.321L331.925 558.175C331.833 557.641 331.917 557.12 332.138 556.669C336.41 547.917 340.79 539.214 345.362 530.604C345.771 529.84 346.718 529.548 347.482 529.957C348.195 530.329 348.495 531.175 348.203 531.91Z" fill="#282833"/>
<path d="M319.523 556.21C319.523 556.21 320.462 555.722 321.872 555.309C323.282 554.909 325.159 554.654 327.037 554.646C328.914 554.659 330.791 554.921 332.201 555.318C333.611 555.731 334.55 556.21 334.55 556.21C335.413 556.648 335.756 557.708 335.317 558.572C335.142 558.914 334.871 559.177 334.55 559.339C334.55 559.339 333.611 559.819 332.201 560.232C330.791 560.628 328.914 560.891 327.037 560.904C325.159 560.895 323.282 560.637 321.872 560.24C320.466 559.827 319.523 559.339 319.523 559.339C318.66 558.893 318.322 557.825 318.772 556.961C318.947 556.628 319.214 556.373 319.523 556.21Z" fill="#282833"/>
</g>
</svg>
