<svg width="660" height="660" viewBox="0 0 660 660" fill="none" xmlns="http://www.w3.org/2000/svg">
<mask id="mask0_42_1357" style="mask-type:alpha" maskUnits="userSpaceOnUse" x="0" y="0" width="660" height="660">
<circle cx="330" cy="330" r="330" fill="#D9D9D9"/>
</mask>
<g mask="url(#mask0_42_1357)">
<path d="M528.348 360.652C556.875 251.107 491.197 139.179 381.652 110.652C272.107 82.1253 160.179 147.803 131.652 257.348C103.125 366.892 168.803 478.821 278.348 507.347C387.892 535.874 499.821 470.196 528.348 360.652Z" fill="#E8B8CE"/>
<path d="M270.767 356.161C272.841 357.033 275.527 357.988 277.786 358.617L281.272 359.505L284.859 360.13C289.662 360.779 294.497 360.586 299.304 359.681C304.115 358.776 308.917 357.238 313.924 355.91C318.919 354.569 324.166 353.509 329.5 353.27L331.503 353.186C332.387 353.14 332.844 353.207 333.536 353.211C334.826 353.27 336.033 353.236 337.437 353.421C340.194 353.668 342.813 354.095 345.395 354.686C350.57 355.834 355.477 357.599 360.225 358.96C364.968 360.31 369.632 361.06 374.279 360.649C378.918 360.268 383.494 358.755 387.865 356.614C390.308 355.583 392.122 354.297 394.175 353.132C396.099 351.698 398.089 350.353 399.799 348.677C403.319 345.45 406.315 341.671 408.674 337.489C413.468 329.087 415.505 319.373 416.678 309.404C416.77 308.57 417.198 307.854 417.81 307.368C418.719 299.657 419.523 292.022 420.186 284.597C420.638 279.707 420.91 274.879 421.212 270.14C421.296 267.818 421.376 265.514 421.459 263.23C421.35 260.879 421.241 258.541 421.133 256.228C420.403 247.193 418.744 238.632 415.639 230.746C409.994 214.826 400.03 202.355 389.876 193.283C379.601 184.186 368.719 178.663 359.432 175.474C357.153 174.527 354.89 173.969 352.761 173.429C350.628 172.917 348.667 172.251 346.773 171.966C342.989 171.438 339.792 170.722 337.148 170.6C331.985 170.319 329.194 170.164 329.081 170.16C328.788 170.177 325.984 170.332 320.91 170.604C318.22 170.734 315.106 171.451 311.335 171.97C309.457 172.247 307.488 172.922 305.359 173.429C303.23 173.965 300.968 174.527 298.688 175.474C289.406 178.663 278.528 184.181 268.249 193.283C258.095 202.355 248.13 214.826 242.49 230.746C239.397 238.573 237.709 247.268 236.992 256.274C236.887 258.537 236.783 260.816 236.674 263.117C236.753 265.451 236.833 267.806 236.917 270.182C237.223 274.934 237.491 279.694 237.947 284.593C239.079 297.265 240.55 310.431 242.494 323.815C242.544 323.983 242.57 324.15 242.616 324.318C244.028 329.078 245.964 333.663 248.562 337.816C253.708 346.163 261.661 352.474 270.767 356.161ZM367.956 313.88C364.683 313.88 362.031 311.227 362.031 307.954C362.031 304.682 364.683 302.029 367.956 302.029C371.225 302.029 373.877 304.682 373.877 307.954C373.877 311.227 371.225 313.88 367.956 313.88ZM355.271 276.811C355.468 275.931 356.189 275.303 357.027 275.168C357.027 275.168 359.403 274.8 362.961 274.565C366.519 274.339 371.25 274.297 375.968 274.498C380.691 274.666 385.409 275.08 388.942 275.52C392.474 275.986 394.821 276.442 394.821 276.442C395.969 276.664 396.723 277.779 396.497 278.927C396.317 279.849 395.563 280.515 394.678 280.629C394.678 280.629 392.302 280.926 388.749 281.148C385.191 281.345 380.456 281.446 375.738 281.295C371.011 281.177 366.292 280.817 362.76 280.348C359.227 279.874 356.885 279.35 356.885 279.35C355.737 279.103 355.012 277.959 355.271 276.811ZM317.633 284.04C317.633 282.883 318.572 281.944 319.728 281.944C320.885 281.944 321.823 282.883 321.823 284.04V338.411C321.823 340.02 322.309 343.766 326.806 343.766H341.887C343.044 343.766 343.982 344.705 343.982 345.861C343.982 347.018 343.044 347.956 341.887 347.956H326.806C321.316 347.956 317.633 344.122 317.633 338.411V284.04ZM286.314 313.88C283.041 313.88 280.388 311.227 280.388 307.954C280.388 304.682 283.041 302.029 286.314 302.029C289.586 302.029 292.239 304.682 292.239 307.954C292.243 311.227 289.59 313.88 286.314 313.88ZM263.099 276.442C263.099 276.442 265.449 275.986 268.978 275.52C272.51 275.08 277.229 274.666 281.951 274.498C286.674 274.297 291.405 274.339 294.963 274.565C298.52 274.8 300.896 275.168 300.896 275.168C302.057 275.344 302.857 276.434 302.677 277.599C302.539 278.491 301.864 279.17 301.035 279.355C301.035 279.355 298.688 279.883 295.155 280.352C291.623 280.817 286.904 281.178 282.178 281.299C277.451 281.454 272.72 281.354 269.166 281.152C265.609 280.926 263.237 280.633 263.237 280.633C262.076 280.486 261.25 279.426 261.397 278.265C261.514 277.331 262.223 276.614 263.099 276.442Z" fill="#AA5D29" stroke="#AA5D29" stroke-width="0.5" stroke-miterlimit="10"/>
<path d="M309.016 427.705C312.402 428.456 315.779 429.327 319.182 429.654C320.9 429.851 322.53 430.19 324.319 430.278L327.575 430.454C328.015 430.463 328.46 430.488 328.895 430.492L337.486 430.115C340.327 429.956 342.9 429.373 345.619 429.038C350.987 428.074 356.326 426.511 361.367 424.42C371.52 420.267 380.299 413.324 387.256 404.968C388.907 403.015 390.436 400.97 391.886 398.875C392.297 398.272 392.686 397.656 393.08 397.044C393.65 396.185 394.178 395.301 394.715 394.421C395.389 393.285 396.06 392.158 396.693 390.997C399.814 385.369 402.4 379.444 404.642 373.368C404.99 372.413 405.35 371.466 405.677 370.502C406.083 369.341 406.431 368.155 406.808 366.986C407.386 365.13 407.969 363.265 408.447 361.429C409.783 356.133 411.141 350.874 412.025 345.677C412.231 344.617 412.381 343.561 412.578 342.497C410.123 346.365 407.181 349.948 403.783 353.036C401.826 354.922 399.592 356.447 397.409 358.035C395.046 359.41 392.611 360.973 390.336 361.907C385.567 364.216 380.291 365.98 374.751 366.42C369.207 366.894 363.663 365.859 358.643 364.363C353.615 362.854 348.926 361.107 344.153 359.996C341.781 359.418 339.355 359.007 337.046 358.764C335.923 358.58 334.573 358.588 333.32 358.517C332.738 358.504 331.925 358.421 331.531 358.471L329.712 358.53C324.856 358.693 320.041 359.59 315.188 360.83C310.332 362.054 305.391 363.583 300.166 364.505C294.944 365.431 289.476 365.595 284.179 364.803C281.548 364.367 278.937 363.789 276.347 362.967C273.732 362.15 271.608 361.354 269.01 360.218C259.317 356.074 250.677 348.933 245.309 339.765C245.174 339.543 245.07 339.312 244.94 339.086C245.33 341.298 245.669 343.499 246.092 345.719C246.993 350.995 248.334 356.158 249.65 361.367C250.232 363.977 251.146 366.529 251.942 369.165C252.839 371.696 253.652 374.252 254.695 376.762C258.094 385.55 262.552 394.002 268.26 401.549C269.902 403.548 271.545 405.555 273.351 407.399C278.258 412.318 283.831 416.504 289.807 419.97C295.766 423.544 302.37 425.828 309.016 427.705ZM307.776 369.077C308.593 368.256 309.925 368.251 310.738 369.064C314.853 373.154 323.092 375.48 331.736 375.053C338.747 374.688 344.538 372.509 347.212 369.228C347.949 368.331 349.269 368.201 350.162 368.93C351.059 369.664 351.188 370.984 350.459 371.88C346.994 376.125 340.243 378.807 331.95 379.239C331.229 379.276 330.483 379.297 329.725 379.297C322.283 379.297 313.198 377.42 307.784 372.044C306.967 371.227 306.963 369.898 307.776 369.077Z" fill="#282833" stroke="#282833" stroke-width="0.5" stroke-miterlimit="10"/>
<path d="M236.66 319.532C236.623 319.448 236.585 319.356 236.547 319.268C233.442 320.689 231.364 323.899 231.598 327.507C231.636 328.085 231.2 328.579 230.622 328.621C230.601 328.625 230.576 328.625 230.555 328.625C230.006 328.625 229.545 328.198 229.507 327.645C229.214 323.186 231.766 319.201 235.588 317.408C233.736 314.152 231.397 311.985 228.669 311.181C225.506 310.242 222.317 311.319 220.816 312.865C220.414 313.284 219.748 313.293 219.333 312.886C218.918 312.484 218.91 311.822 219.312 311.403C221.194 309.471 225.112 307.946 229.26 309.169C231.435 309.81 233.979 311.34 236.258 314.516C236.221 314.194 236.191 313.883 236.158 313.565C233.082 304.941 227.84 300.42 221.956 301.564C216.676 302.561 211.388 308.356 211.991 317.123C213.232 335.246 221.684 345.274 229.181 348.61C233.132 350.365 236.996 350.345 240.172 348.773C239.036 343.02 238.106 337.228 237.503 331.408C237.101 327.456 236.828 323.501 236.66 319.532Z" fill="#AA5D29" stroke="#AA5D29" stroke-width="0.5" stroke-miterlimit="10"/>
<path d="M251.983 522.606C255.646 532.89 261.341 542.427 268.997 550.075C272.785 553.938 277.13 557.228 281.79 559.985C286.416 562.805 291.428 564.997 296.624 566.665C301.779 568.467 307.205 569.456 312.632 570.306C315.343 570.679 318.054 570.855 320.77 571.14L329.146 571.387C331.912 571.291 334.682 571.278 337.443 571.119C340.184 570.834 342.958 570.721 345.678 570.298C348.393 569.841 351.146 569.552 353.794 568.856L357.813 567.943L361.735 566.749C366.957 565.114 372.01 562.977 376.679 560.199C381.389 557.492 385.784 554.227 389.619 550.389C397.383 542.787 403.124 533.212 406.724 522.866C408.543 517.691 409.85 512.327 410.726 506.896C411.585 501.495 412.037 495.855 411.857 490.562V490.478C411.857 490.466 411.861 490.457 411.861 490.445C409.142 489.158 406.414 487.889 403.678 486.636L394.291 482.361L389.585 480.254L388.408 479.726L388.114 479.591L387.762 479.407L387.695 479.361L387.561 479.273C387.398 479.164 387.222 479.064 386.865 478.695C385.633 477.354 385.554 476.633 385.11 475.64C382.956 468.432 382.868 461.598 382.432 454.642C381.942 442.741 382.046 430.873 382.185 419.031C379.067 421.717 375.761 424.181 372.228 426.318C365.871 430.266 358.769 432.998 351.494 434.578C347.878 435.55 344.156 435.797 340.473 436.283C338.386 436.308 336.312 436.43 334.229 436.48L329.205 436.744C317.111 436.669 305.374 434.657 294.361 429.926C288.361 427.408 282.825 423.959 277.813 419.903C277.956 431.908 278.086 443.943 277.541 456.02C277.373 459.465 277.147 462.922 276.762 466.392C276.28 469.886 275.999 473.293 274.335 477.027C274.038 477.517 273.824 477.991 273.325 478.515C273.082 478.963 271.813 479.667 271.649 479.7L269.303 480.752L264.614 482.856L255.277 487.117C252.331 488.467 249.394 489.841 246.469 491.233C246.448 496.261 246.947 501.616 247.831 506.733C248.774 512.134 250.14 517.465 251.983 522.606Z" fill="#AA5D29" stroke="#AA5D29" stroke-width="0.5" stroke-miterlimit="10"/>
<path d="M484.524 644.12C481.306 637.792 477.358 631.77 473.419 625.744C465.466 613.726 457.232 601.691 450.607 588.638C448.926 585.395 447.376 582.072 445.947 578.694C444.484 575.333 443.202 571.889 442.016 568.407C440.83 564.924 439.866 561.367 438.961 557.796C438.173 554.197 437.432 550.576 436.979 546.91C436.543 543.251 436.137 539.564 436.112 535.872C435.932 532.176 436.149 528.488 436.305 524.797C436.669 521.126 436.975 517.442 437.662 513.818C438.065 510.838 438.785 507.926 439.46 505.001L416.932 494.387C416.869 498.887 416.45 503.262 415.784 507.679C414.883 513.403 413.525 519.068 411.627 524.566C407.856 535.558 401.742 545.912 393.365 554.18C389.225 558.35 384.481 561.911 379.411 564.853C374.378 567.874 368.964 570.192 363.416 571.952L359.238 573.242L354.989 574.227C352.173 574.973 349.29 575.296 346.432 575.782C343.57 576.239 340.683 576.373 337.804 576.679C334.929 576.855 332.046 576.888 329.163 576.993L320.594 576.783C317.69 576.503 314.748 576.318 311.865 575.933C306.133 575.061 300.383 574.03 294.844 572.132C289.275 570.376 283.852 568.03 278.811 564.991C273.745 562.02 268.984 558.446 264.832 554.255C256.438 545.95 250.249 535.621 246.293 524.65C244.299 519.161 242.828 513.508 241.801 507.784C241.085 503.656 240.582 499.579 240.368 495.367L220.753 505.307C221.398 508.089 222.068 510.872 222.445 513.713C223.133 517.355 223.443 521.059 223.799 524.751C223.962 528.455 224.197 532.168 224.017 535.876C224 539.589 223.61 543.285 223.229 546.968L222.45 552.475L221.377 557.926C220.56 561.534 219.684 565.134 218.557 568.65C217.522 572.199 216.239 575.664 214.907 579.092C213.578 582.528 212.078 585.889 210.536 589.221C204.292 602.534 196.402 614.883 188.469 626.964C184.514 633.011 180.528 639.007 177.017 645.15C175.265 648.218 173.635 651.335 172.403 654.508C171.532 656.708 170.836 658.954 170.476 661.166L330.001 660.869L490.097 661.17C489.833 658.66 489.393 656.314 488.656 653.837C487.537 650.527 486.167 647.275 484.524 644.12Z" fill="#625339"/>
<path d="M427.162 328.623C427.141 328.623 427.116 328.623 427.091 328.619C426.512 328.581 426.076 328.082 426.118 327.504C426.265 325.245 425.523 323.066 424.032 321.365C423.504 320.762 422.888 320.28 422.23 319.856C421.924 323.774 421.53 327.663 421.035 331.569C420.273 337.427 419.242 343.252 418.031 349.043C421.111 350.371 424.79 350.275 428.532 348.607C436.029 345.271 444.489 335.244 445.73 317.116C446.325 308.425 441.292 302.722 436.251 301.766C430.753 300.723 425.745 304.93 422.632 313.034C424.589 310.855 426.651 309.69 428.457 309.158C432.622 307.93 436.523 309.46 438.401 311.392C438.807 311.807 438.799 312.469 438.384 312.875C437.969 313.286 437.307 313.269 436.9 312.854C435.396 311.308 432.216 310.239 429.048 311.17C426.437 311.941 424.191 313.944 422.376 316.952C422.364 317.128 422.36 317.309 422.347 317.485C426.051 319.324 428.49 323.259 428.201 327.634C428.172 328.2 427.711 328.623 427.162 328.623Z" fill="#AA5D29" stroke="#AA5D29" stroke-width="0.5" stroke-miterlimit="10"/>
<path d="M548.487 643.684C548.001 640.327 547.628 636.958 547.045 633.623C546.341 630.312 545.859 626.947 544.979 623.679C543.341 617.117 541.451 610.596 538.912 604.323C536.548 597.974 533.514 591.911 530.325 585.94C526.944 580.077 523.365 574.311 519.258 568.914C515.29 563.408 510.773 558.325 506.188 553.317C496.814 543.469 486.376 534.632 475.326 526.632C465.298 519.471 454.809 512.98 444.036 506.941C443.432 509.489 442.816 512.041 442.456 514.635C441.781 518.113 441.48 521.641 441.111 525.157C440.952 528.686 440.721 532.218 440.885 535.746C440.889 539.283 441.266 542.807 441.668 546.311C442.096 549.822 442.741 553.296 443.458 556.766C444.287 560.206 445.171 563.638 446.273 567.011C447.376 570.385 448.574 573.733 449.953 577.018C451.298 580.308 452.769 583.564 454.374 586.753C460.689 599.579 468.659 611.577 476.503 623.742C480.392 629.851 484.319 635.99 487.579 642.59C489.234 645.871 490.638 649.312 491.79 652.857C492.578 655.48 493.173 658.405 493.437 661.175L549.518 661.28L549.329 653.816L548.487 643.684Z" fill="#AA5D29" stroke="#AA5D29" stroke-width="0.5" stroke-miterlimit="10"/>
<path d="M183.688 623.847C191.558 611.758 199.214 599.635 205.202 586.728C206.681 583.497 208.11 580.25 209.375 576.939C210.645 573.637 211.865 570.31 212.837 566.912C213.901 563.543 214.718 560.111 215.485 556.674L216.482 551.487L217.199 546.261C217.543 542.762 217.903 539.259 217.899 535.743C218.058 532.227 217.811 528.716 217.647 525.208C217.291 521.709 216.985 518.206 216.319 514.749C215.988 512.323 215.426 509.947 214.861 507.562C204.255 513.559 193.925 519.991 184.057 527.086C178.605 531.13 173.187 535.232 168.112 539.724C162.954 544.128 158.101 548.855 153.433 553.745C148.874 558.732 144.386 563.806 140.459 569.3C136.403 574.697 132.824 580.426 129.501 586.288C126.333 592.23 123.325 598.273 120.991 604.596C118.481 610.848 116.607 617.339 114.982 623.872C114.127 627.132 113.628 630.476 112.932 633.77C112.371 637.097 111.99 640.454 111.508 643.789L110.686 653.88L110.502 661.289L164.865 661.188C165.242 658.104 166.155 655.213 167.207 652.489C168.582 648.919 170.308 645.608 172.118 642.398C175.764 635.97 179.766 629.907 183.688 623.847Z" fill="#AA5D29" stroke="#AA5D29" stroke-width="0.5" stroke-miterlimit="10"/>
<path opacity="0.5" d="M261.959 198.092C247.72 220.578 242.368 262.817 251.03 320.645C259.692 378.474 268.223 406.931 300.972 429.718C300.972 429.718 265.772 419.343 253.008 381.499C240.244 343.655 233.887 283.359 236.091 260.718C238.291 238.077 243.274 221.646 261.959 198.092Z" fill="#A0A0A0"/>
<path opacity="0.5" d="M397.561 198.092C411.8 220.578 417.152 262.817 408.49 320.645C399.833 378.474 391.297 406.931 358.548 429.718C358.548 429.718 393.748 419.343 406.512 381.499C419.276 343.655 425.633 283.359 423.429 260.718C421.233 238.077 416.242 221.646 397.561 198.092Z" fill="#A0A0A0"/>
<path opacity="0.5" d="M276.217 435.221C276.217 435.221 300.82 473.463 327.504 473.463C354.189 473.463 382.072 432.036 382.072 432.036V416.528C382.072 416.528 361.878 435.221 330.002 435.221C298.125 435.221 276.188 416.381 276.188 416.381L276.217 435.221Z" fill="#A0A0A0"/>
<path opacity="0.3" d="M141.923 568.971C125.462 607.56 213.298 646.858 335.953 646.858C458.607 646.858 537.052 607.695 524.719 573.756C524.719 573.756 553.089 607.72 552.288 665.611H107.72C107.72 665.611 106.002 616.285 141.923 568.971Z" fill="#A0A0A0"/>
<path d="M239.659 309.583C240.3 314.662 241.185 319.515 242.605 324.313C244.017 329.073 245.953 333.658 248.551 337.81C253.706 346.17 261.659 352.477 270.765 356.164C272.839 357.036 275.525 357.991 277.784 358.62L281.27 359.508L284.857 360.133C289.66 360.782 294.495 360.589 299.302 359.684C304.112 358.779 308.915 357.241 313.922 355.913C318.917 354.572 324.164 353.512 329.498 353.273L331.501 353.189C332.385 353.143 332.842 353.21 333.533 353.214C334.824 353.273 336.031 353.239 337.435 353.424C340.192 353.671 342.811 354.098 345.392 354.689C350.568 355.838 355.475 357.602 360.222 358.964C364.966 360.313 369.63 361.063 374.277 360.652C378.916 360.271 383.492 358.758 387.862 356.617C390.305 355.586 392.12 354.3 394.173 353.135C396.097 351.702 398.087 350.356 399.797 348.68C403.317 345.454 406.313 341.674 408.672 337.492C413.466 329.09 415.503 319.376 416.676 309.407C416.869 307.735 418.377 306.529 420.049 306.721C421.621 306.897 422.773 308.268 422.756 309.814C422.605 317.223 421.956 324.372 421.038 331.592C420.104 338.787 418.851 345.94 417.233 353.026C413.948 367.168 409.246 381.131 402.072 393.987C398.485 400.395 394.341 406.563 389.367 412.086C384.384 417.588 378.635 422.457 372.236 426.329C365.879 430.277 358.777 433.009 351.502 434.589C347.886 435.561 344.165 435.808 340.481 436.294C336.768 436.34 333.098 436.73 329.351 436.374C325.794 436.202 322.223 435.976 318.481 435.322C314.748 434.907 311.19 433.956 307.595 433.113C300.521 431.035 293.498 428.491 287.162 424.611C280.801 420.831 274.901 416.272 269.747 410.984C264.647 405.654 260.213 399.737 256.434 393.468C248.824 380.909 244.135 366.93 240.941 352.837C239.378 345.764 238.251 338.611 237.505 331.424C236.776 324.225 236.353 317.051 236.533 309.739C236.554 308.871 237.275 308.188 238.142 308.209C238.922 308.217 239.563 308.825 239.659 309.583ZM239.672 309.831C239.647 316.841 240.204 323.986 241.067 331.009C241.947 338.049 243.192 345.043 244.868 351.915C248.237 365.639 253.199 379.032 260.561 390.945C264.24 396.891 268.51 402.444 273.371 407.409C278.278 412.329 283.852 416.515 289.827 419.981C295.773 423.543 302.377 425.826 309.024 427.704C312.409 428.454 315.787 429.325 319.19 429.652C320.908 429.849 322.538 430.188 324.327 430.276L329.687 430.566C333.085 430.888 336.584 430.49 340.02 430.457C343.431 429.975 346.884 429.753 350.199 428.831C356.891 427.356 363.348 424.846 369.14 421.213C380.885 414.122 390.062 403.215 396.7 391.004C403.468 378.801 407.931 365.316 411.119 351.609C412.72 344.741 413.969 337.785 414.899 330.779C415.821 323.802 416.483 316.669 416.655 309.759L422.731 310.166C421.487 320.344 419.282 331.038 413.877 340.429C411.207 345.114 407.792 349.405 403.79 353.043C401.833 354.928 399.6 356.454 397.417 358.042C395.053 359.416 392.619 360.979 390.343 361.914C385.575 364.223 380.299 365.987 374.759 366.427C369.215 366.9 363.671 365.865 358.651 364.369C353.622 362.861 348.933 361.113 344.16 360.003C341.789 359.425 339.362 359.014 337.053 358.771C335.93 358.586 334.581 358.595 333.328 358.524C332.746 358.511 331.933 358.427 331.539 358.478L329.72 358.536C324.863 358.7 320.049 359.596 315.196 360.837C310.339 362.06 305.399 363.59 300.173 364.512C294.952 365.438 289.483 365.601 284.187 364.809C281.555 364.373 278.945 363.795 276.355 362.974C273.74 362.157 271.615 361.361 269.017 360.225C259.325 356.081 250.684 348.94 245.316 339.771C239.86 330.636 237.585 320.135 236.537 309.977L239.672 309.831Z" fill="#282833"/>
<path d="M329.134 170.147C329.134 170.147 326.272 170.306 320.904 170.595C318.214 170.725 315.1 171.442 311.329 171.961C309.452 172.238 307.482 172.913 305.353 173.42C303.225 173.956 300.962 174.518 298.682 175.465C289.4 178.654 278.522 184.172 268.243 193.274C258.089 202.346 248.125 214.817 242.484 230.737C239.392 238.564 237.703 247.26 236.986 256.265C236.882 258.528 236.777 260.807 236.668 263.108C236.748 265.442 236.827 267.797 236.911 270.173C237.217 274.925 237.485 279.685 237.942 284.584C239.689 304.128 242.099 324.77 246.109 345.727C247.01 351.002 248.351 356.165 249.667 361.374C250.249 363.984 251.163 366.536 251.959 369.172C252.856 371.703 253.669 374.259 254.712 376.769C258.622 386.877 263.83 396.624 270.862 404.954C277.822 413.306 286.597 420.241 296.742 424.398C306.766 428.68 318.092 430.399 328.904 430.487L337.494 430.109C340.335 429.95 342.908 429.368 345.628 429.032C350.996 428.069 356.334 426.506 361.375 424.415C371.529 420.262 380.308 413.318 387.264 404.963C394.304 396.628 399.513 386.881 403.418 376.769C405.392 371.753 407.143 366.519 408.451 361.428C409.788 356.131 411.145 350.872 412.029 345.676C416.019 324.812 418.437 304.103 420.18 284.58C420.632 279.689 420.905 274.862 421.207 270.123C421.29 267.801 421.37 265.496 421.454 263.212C421.345 260.862 421.236 258.523 421.127 256.21C420.398 247.176 418.738 238.615 415.633 230.728C409.989 214.809 400.024 202.338 389.87 193.266C379.595 184.168 368.713 178.645 359.427 175.456C357.147 174.509 354.884 173.952 352.756 173.411C350.623 172.9 348.662 172.234 346.768 171.949C342.984 171.421 339.786 170.704 337.142 170.583C331.866 170.294 329.05 170.139 329.05 170.139L329.134 170.147ZM329.055 167.008C329.055 167.008 331.963 167.142 337.423 167.394C340.151 167.503 343.466 168.203 347.396 168.722C349.361 168.999 351.398 169.669 353.606 170.181C355.815 170.721 358.17 171.287 360.542 172.242C370.196 175.469 381.544 181.101 392.309 190.466C402.953 199.811 413.438 212.713 419.484 229.291C422.77 237.391 424.651 246.606 425.468 255.997C425.594 258.31 425.724 260.644 425.854 262.995C425.791 265.421 425.732 267.864 425.674 270.328C425.405 275.143 425.171 280.025 424.752 284.953C423.155 304.685 420.938 325.34 417.033 346.745C416.144 352.159 414.837 357.409 413.546 362.706C412.176 368.196 410.471 373.425 408.447 378.718C404.474 389.253 399.094 399.582 391.63 408.592C384.255 417.614 374.735 425.278 363.73 429.9C358.241 432.23 352.563 433.948 346.675 435.058C343.725 435.465 340.666 436.106 337.792 436.29L329.205 436.735C317.112 436.659 305.374 434.648 294.362 429.917C283.358 425.295 273.833 417.626 266.458 408.604C258.99 399.59 253.618 389.257 249.642 378.718C248.586 376.107 247.743 373.404 246.834 370.743C246.063 368.112 245.149 365.489 244.559 362.761C243.247 357.376 241.914 352.029 241.047 346.695C237.158 325.382 234.929 304.66 233.336 284.948C232.746 275.009 231.669 265.467 232.628 255.942C233.458 246.518 235.314 237.441 238.608 229.282C244.659 212.701 255.148 199.799 265.787 190.458C276.557 181.088 287.904 175.456 297.559 172.234C299.935 171.274 302.286 170.713 304.494 170.172C306.711 169.661 308.735 168.995 310.717 168.714C314.66 168.186 318.059 167.482 320.741 167.381C326.109 167.134 328.971 167 328.971 167L329.055 167.008Z" fill="#282833"/>
<path d="M419.832 314.612C427.66 289.746 449.065 299.233 447.825 317.273C445.813 346.556 425.125 357.791 414.376 349.372" stroke="#282833" stroke-miterlimit="10"/>
<path d="M437.653 312.134C433.982 308.363 421.755 306.615 417.661 326.956" stroke="#282833" stroke-width="0.5" stroke-miterlimit="10" stroke-linecap="round"/>
<path d="M418.287 317.463C423.533 317.807 427.506 322.336 427.162 327.583" stroke="#282833" stroke-width="0.5" stroke-miterlimit="10" stroke-linecap="round" stroke-linejoin="round"/>
<path d="M243.347 349.372C232.595 357.79 211.906 346.556 209.899 317.273C208.659 299.229 230.805 289.369 238.633 314.239" stroke="#282833" stroke-miterlimit="10"/>
<path d="M220.061 312.134C223.732 308.363 235.964 306.615 240.05 326.956" stroke="#282833" stroke-width="0.5" stroke-miterlimit="10" stroke-linecap="round"/>
<path d="M239.429 317.463C234.183 317.807 230.21 322.336 230.554 327.583" stroke="#282833" stroke-width="0.5" stroke-miterlimit="10" stroke-linecap="round" stroke-linejoin="round"/>
<path d="M277.751 414.805C277.906 428.508 278.162 442.24 277.537 456.026C277.37 459.471 277.143 462.928 276.758 466.398C276.276 469.893 275.995 473.299 274.332 477.033C274.034 477.523 273.82 477.997 273.322 478.521C273.079 478.969 271.809 479.673 271.645 479.707L269.299 480.758L264.61 482.862L255.273 487.124C230.432 498.53 206.132 511.214 184.057 527.092C178.605 531.136 173.187 535.238 168.112 539.73C162.954 544.135 158.101 548.861 153.433 553.752C148.874 558.738 144.386 563.813 140.459 569.307C136.403 574.704 132.825 580.432 129.502 586.295C126.334 592.237 123.325 598.279 120.991 604.603C118.481 610.855 116.607 617.346 114.982 623.879C114.127 627.139 113.628 630.483 112.932 633.776C112.371 637.104 111.99 640.46 111.508 643.796L110.686 653.886L110.435 664.019L107.715 661.299L329.997 660.884L552.279 661.308L549.564 664.019L549.312 653.836L548.479 643.7C547.992 640.343 547.62 636.974 547.037 633.638C546.333 630.328 545.851 626.963 544.971 623.694C543.333 617.132 541.443 610.612 538.903 604.339C536.54 597.99 533.506 591.926 530.317 585.955C526.935 580.093 523.357 574.327 519.25 568.929C515.282 563.423 510.765 558.34 506.18 553.333C496.806 543.485 486.368 534.647 475.318 526.648C453.083 510.766 428.649 498.069 403.669 486.646L394.283 482.372L389.577 480.264L388.4 479.736L388.106 479.602L387.754 479.417L387.687 479.371L387.553 479.283C387.39 479.174 387.214 479.074 386.857 478.705C385.625 477.364 385.546 476.643 385.102 475.65C382.948 468.443 382.86 461.608 382.424 454.652C381.854 440.807 382.089 427.012 382.244 413.246C382.252 412.379 382.965 411.683 383.832 411.691C384.691 411.7 385.387 412.404 385.387 413.263C385.382 427.037 385.303 440.798 386.015 454.476C386.468 461.21 386.803 468.338 388.693 474.339C389.485 476.036 388.957 475.767 391.14 476.702L395.884 478.764L405.346 482.946C430.522 494.185 455.463 506.571 478.117 522.738C489.402 530.842 500.113 539.831 509.776 549.905C514.511 555.03 519.171 560.247 523.29 565.904C527.543 571.456 531.268 577.394 534.784 583.445C538.107 589.605 541.271 595.874 543.743 602.428C546.396 608.919 548.378 615.653 550.096 622.437C551.018 625.819 551.538 629.284 552.279 632.704C552.891 636.144 553.289 639.622 553.805 643.083L554.701 653.53L554.999 664.002C555.041 665.46 553.893 666.676 552.439 666.713H552.38H552.288L330.006 667.137L107.724 666.722H107.64C106.177 666.718 104.996 665.532 105 664.069V663.998L105.298 653.576L106.186 643.18C106.693 639.735 107.104 636.274 107.699 632.846C108.428 629.439 108.96 625.991 109.857 622.626C111.558 615.875 113.532 609.166 116.155 602.7C118.598 596.167 121.732 589.919 125.039 583.789C128.496 577.738 132.221 571.833 136.424 566.285C140.497 560.637 145.128 555.428 149.833 550.328C154.644 545.325 159.643 540.493 164.936 536.013C170.149 531.437 175.684 527.276 181.258 523.178C203.76 507.011 228.559 494.62 253.606 483.407L263.026 479.237L267.74 477.184L270.095 476.157C270.703 475.851 270.233 476.14 270.506 475.897C270.623 475.814 270.778 475.499 270.933 475.269C272.132 472.742 272.639 469.205 273.079 465.945C273.489 462.605 273.753 459.219 273.954 455.825C274.721 442.223 274.621 428.52 274.621 414.813C274.621 413.946 275.325 413.242 276.192 413.242C277.043 413.25 277.743 413.946 277.751 414.805Z" fill="#282833"/>
<path d="M319.727 284.037C319.727 284.037 319.727 334.318 319.727 338.408C319.727 342.494 322.074 345.859 326.805 345.859C331.54 345.859 341.887 345.859 341.887 345.859" stroke="#282833" stroke-miterlimit="10" stroke-linecap="round" stroke-linejoin="round"/>
<path d="M373.875 307.953C373.875 311.225 371.223 313.878 367.954 313.878C364.681 313.878 362.029 311.225 362.029 307.953C362.029 304.68 364.681 302.027 367.954 302.027C371.223 302.027 373.875 304.68 373.875 307.953Z" fill="#282833"/>
<path d="M280.387 307.953C280.387 311.225 283.039 313.878 286.312 313.878C289.585 313.878 292.237 311.225 292.237 307.953C292.237 304.68 289.585 302.027 286.312 302.027C283.039 302.027 280.387 304.68 280.387 307.953Z" fill="#282833"/>
<path d="M309.264 370.547C318.193 379.41 341.601 379.41 348.838 370.547" stroke="#AA5D29" stroke-miterlimit="10" stroke-linecap="round" stroke-linejoin="round"/>
<path d="M357.023 275.171C357.023 275.171 359.398 274.802 362.956 274.568C366.514 274.341 371.245 274.299 375.963 274.5C380.686 274.668 385.404 275.083 388.937 275.523C392.469 275.988 394.816 276.445 394.816 276.445C395.964 276.667 396.719 277.782 396.492 278.93C396.312 279.852 395.558 280.518 394.674 280.631C394.674 280.631 392.298 280.929 388.744 281.151C385.186 281.348 380.451 281.448 375.733 281.297C371.006 281.18 366.287 280.82 362.755 280.35C359.222 279.877 356.88 279.353 356.88 279.353C355.732 279.097 355.007 277.958 355.262 276.809C355.468 275.929 356.184 275.301 357.023 275.171Z" fill="#282833"/>
<path d="M301.037 279.357C301.037 279.357 298.69 279.885 295.158 280.354C291.625 280.82 286.907 281.18 282.18 281.302C277.453 281.457 272.722 281.356 269.168 281.155C265.611 280.929 263.239 280.635 263.239 280.635C262.078 280.489 261.253 279.428 261.399 278.268C261.517 277.333 262.225 276.617 263.101 276.445C263.101 276.445 265.452 275.988 268.98 275.523C272.512 275.083 277.231 274.668 281.954 274.5C286.676 274.299 291.407 274.341 294.965 274.568C298.523 274.802 300.899 275.171 300.899 275.171C302.059 275.347 302.86 276.436 302.679 277.601C302.541 278.494 301.867 279.169 301.037 279.357Z" fill="#282833"/>
<path d="M490.262 662.427C490.035 659.405 489.52 656.736 488.657 653.84C487.534 650.53 486.164 647.278 484.525 644.127C481.307 637.8 477.359 631.778 473.42 625.752C465.467 613.734 457.233 601.699 450.608 588.646C448.927 585.402 447.377 582.079 445.948 578.702C444.485 575.341 443.203 571.896 442.017 568.414C440.831 564.932 439.867 561.374 438.962 557.804C438.175 554.204 437.433 550.584 436.98 546.917C436.544 543.259 436.138 539.571 436.113 535.88C435.933 532.184 436.151 528.496 436.306 524.804C436.67 521.133 436.976 517.45 437.663 513.825C438.154 510.167 439.143 506.609 439.914 503.01L441.234 505.847L413.292 492.676L416.887 490.237C417.113 496.238 416.648 501.92 415.777 507.682C414.876 513.406 413.518 519.072 411.62 524.57C407.848 535.561 401.734 545.916 393.358 554.183C389.218 558.353 384.474 561.915 379.404 564.856C374.371 567.878 368.957 570.195 363.409 571.955L359.231 573.246L354.982 574.23C352.166 574.976 349.283 575.299 346.425 575.785C343.563 576.242 340.676 576.376 337.797 576.682C334.922 576.858 332.039 576.891 329.156 576.996L320.587 576.787C317.683 576.506 314.741 576.322 311.858 575.936C306.125 575.064 300.376 574.033 294.836 572.135C289.267 570.379 283.845 568.033 278.804 564.995C273.737 562.024 268.977 558.449 264.824 554.259C256.431 545.953 250.242 535.624 246.286 524.653C244.291 519.164 242.82 513.511 241.794 507.787C240.792 502.017 240.185 496.351 240.243 490.275L244.731 493.158L218.566 506.417L220.179 502.838C220.955 506.458 221.944 510.037 222.438 513.72C223.125 517.362 223.435 521.066 223.792 524.758C223.955 528.462 224.19 532.175 224.01 535.884C223.993 539.596 223.603 543.292 223.222 546.976L222.442 552.482L221.37 557.934C220.552 561.542 219.677 565.141 218.549 568.657C217.514 572.207 216.232 575.672 214.9 579.1C213.571 582.536 212.071 585.897 210.529 589.228C204.285 602.541 196.394 614.89 188.462 626.971C184.506 633.018 180.521 639.015 177.01 645.158C175.258 648.225 173.628 651.343 172.396 654.515C171.151 657.671 170.213 660.918 170.196 664.011L167.43 661.245L329.713 661.584L490.262 662.427ZM492.005 665.578L329.722 666.433L167.439 666.772C165.917 666.776 164.681 665.549 164.673 664.032V664.006C164.69 659.833 165.842 656.024 167.212 652.479C168.587 648.908 170.313 645.598 172.123 642.388C175.757 635.972 179.758 629.905 183.685 623.845C191.555 611.756 199.21 599.633 205.199 586.726C206.678 583.496 208.107 580.248 209.372 576.938C210.642 573.635 211.861 570.308 212.834 566.91C213.898 563.541 214.715 560.109 215.482 556.672L216.479 551.485L217.196 546.259C217.539 542.76 217.9 539.257 217.896 535.741C218.055 532.225 217.808 528.714 217.644 525.207C217.288 521.708 216.982 518.204 216.316 514.747C215.842 511.257 214.874 507.858 214.133 504.418L214.103 504.284C213.797 502.863 214.51 501.459 215.75 500.839L241.945 487.639C243.474 486.868 245.335 487.484 246.106 489.01C246.336 489.466 246.441 489.957 246.437 490.434L246.433 490.522C246.357 495.748 246.898 501.38 247.824 506.735C248.771 512.136 250.133 517.463 251.977 522.608C255.639 532.892 261.334 542.429 268.99 550.077C272.778 553.94 277.123 557.23 281.783 559.987C286.409 562.807 291.421 564.999 296.617 566.667C301.772 568.469 307.198 569.458 312.625 570.308C315.336 570.681 318.047 570.857 320.763 571.142L329.139 571.389C331.905 571.293 334.675 571.28 337.436 571.121C340.177 570.836 342.951 570.723 345.671 570.3C348.386 569.843 351.139 569.554 353.787 568.858L357.806 567.945L361.728 566.751C366.95 565.116 372.003 562.979 376.671 560.201C381.382 557.494 385.777 554.229 389.612 550.391C397.376 542.79 403.117 533.214 406.717 522.868C408.536 517.693 409.843 512.329 410.719 506.898C411.578 501.497 412.03 495.857 411.85 490.564V490.48C411.8 489.093 412.889 487.928 414.281 487.882C414.696 487.87 415.094 487.958 415.446 488.129L443.329 501.417C444.381 501.916 444.913 503.064 444.674 504.158L444.649 504.254C443.899 507.711 442.931 511.135 442.445 514.638C441.77 518.116 441.468 521.645 441.1 525.16C440.94 528.689 440.71 532.221 440.873 535.75C440.877 539.286 441.255 542.811 441.657 546.314C442.084 549.825 442.73 553.299 443.446 556.769C444.276 560.209 445.16 563.641 446.262 567.015C447.364 570.388 448.563 573.736 449.941 577.021C451.286 580.311 452.757 583.567 454.362 586.756C460.677 599.583 468.648 611.58 476.492 623.745C480.381 629.854 484.307 635.993 487.567 642.593C489.222 645.875 490.626 649.315 491.779 652.86C492.83 656.367 493.547 660.415 493.568 663.914L493.572 663.99C493.581 664.861 492.877 665.574 492.005 665.578Z" fill="#282833"/>
</g>
</svg>
