<svg width="660" height="660" viewBox="0 0 660 660" fill="none" xmlns="http://www.w3.org/2000/svg">
<mask id="mask0_42_157" style="mask-type:alpha" maskUnits="userSpaceOnUse" x="0" y="0" width="660" height="660">
<circle cx="330" cy="330" r="330" fill="#D9D9D9"/>
</mask>
<g mask="url(#mask0_42_157)">
<path d="M528.348 368.652C556.875 259.107 491.197 147.179 381.652 118.652C272.107 90.1256 160.179 155.803 131.652 265.348C103.125 374.892 168.803 486.821 278.348 515.348C387.892 543.874 499.821 478.196 528.348 368.652Z" fill="#FFCE33"/>
<path d="M455.215 327.072C462.992 320.489 462.316 309.337 458.275 299.981C454.238 290.628 443.712 284.529 433.588 285.675C441.71 279.974 440.615 268.302 436.009 259.514C431.404 250.722 419.88 246.289 410.568 249.721C419.228 242.817 419.515 231.405 413.895 221.859C411.545 217.869 407.89 214.799 403.694 212.865C401.32 203.698 396.035 195.279 388.37 189.693C382.213 185.206 374.784 182.761 367.203 182.244C358.381 176.279 347.135 172.803 337.735 177.405C311.073 167.829 279.015 175.752 259.883 196.645C256.675 200.148 253.723 204.175 252.942 208.862C252.16 213.548 254.162 218.978 258.538 220.828C246.646 215.039 236.109 219.563 227 229.153C217.887 238.739 215.879 254.357 222.266 265.938C212.055 266.276 203.821 278.276 201.41 288.207C198.996 298.138 203.902 309.385 212.822 314.372C200.23 315.66 195.567 332.973 199.365 345.051C201.85 352.956 209.559 358.386 217.688 359.485C210.706 362.951 204.484 369.602 201.634 376.142C197.119 386.499 200.765 399.774 209.938 406.374C219.108 412.971 232.857 412.21 241.239 404.636C238.375 412.565 244.306 423.331 251.809 427.172C259.315 431.014 268.526 430.182 276.313 426.946C284.1 423.71 290.762 418.317 297.301 412.998C294.596 414.611 298.62 418.692 299.823 421.603C301.027 424.511 303.651 426.591 306.383 428.16C321.565 436.884 343.141 431.734 352.748 417.096C352.254 427.551 360.295 437.35 370.757 437.651C381.218 437.952 390.97 428.569 391.075 418.104C397.811 428.241 410.193 430.845 419.799 423.372C429.402 415.899 430.789 399.99 422.619 390.969C431.475 398.871 446.958 403.666 454.272 394.323C461.589 384.977 459.212 369.626 449.416 362.928C460.341 365.257 473.008 360.977 474.421 349.896C475.838 338.805 466.377 327.566 455.215 327.072Z" fill="#2E2E2E"/>
<path d="M368.075 453.986C368.808 476.357 351.266 494.91 329.382 494.91C307.958 494.91 290.69 477.124 290.69 455.301C290.69 454.875 290.69 454.416 290.72 453.986L295.028 394.908L295.579 387.297L298.267 350.593H360.494L363.277 388.673L363.889 396.987L368.075 453.986Z" fill="#F5F5FF" stroke="#2E2E2E" stroke-width="0.5" stroke-miterlimit="10" stroke-linecap="round" stroke-linejoin="round"/>
<path d="M366.224 424.646C346.613 427.047 324.499 417.613 309.52 398.475C303.433 390.732 299.207 382.211 296.772 373.588L298.53 349.75H360.747L363.519 387.824L364.162 396.142L366.224 424.646Z" fill="#2E2E2E"/>
<path d="M386.962 294.757C379.145 307.311 379.902 322.183 388.65 327.975C397.397 333.767 410.828 328.282 418.645 315.728C426.463 303.173 425.705 288.302 416.958 282.513C408.207 276.717 394.78 282.202 386.962 294.757Z" fill="#F5F5FF" stroke="#2E2E2E" stroke-width="0.5" stroke-miterlimit="10" stroke-linecap="round" stroke-linejoin="round"/>
<path d="M410.374 288.535C414.164 290.016 417.042 293.614 417.657 297.634C418.273 301.655 416.596 305.949 413.42 308.492" stroke="#2E2E2E" stroke-width="0.5" stroke-miterlimit="10" stroke-linecap="round" stroke-linejoin="round"/>
<path d="M271.298 294.757C279.116 307.311 278.358 322.182 269.611 327.975C260.863 333.767 247.433 328.282 239.615 315.727C231.797 303.173 232.555 288.302 241.302 282.513C250.05 276.717 263.48 282.202 271.298 294.757Z" fill="#F5F5FF" stroke="#2E2E2E" stroke-width="0.5" stroke-miterlimit="10" stroke-linecap="round" stroke-linejoin="round"/>
<path d="M247.886 288.535C244.095 290.016 241.218 293.614 240.602 297.634C239.987 301.655 241.664 305.949 244.839 308.492" stroke="#2E2E2E" stroke-width="0.5" stroke-miterlimit="10" stroke-linecap="round" stroke-linejoin="round"/>
<path d="M407.193 271.277C407.193 272.433 407.193 273.549 407.108 274.604C406.98 277.891 406.682 281.177 406.212 284.386L405.722 288.988L405.485 291.48L405.123 295.085C404.91 297.276 404.761 299.43 404.613 301.58C404.528 302.956 404.44 304.309 404.356 305.665C404.014 311.122 403.693 316.502 402.885 321.882C402.885 321.963 402.841 322.061 402.841 322.142C402.668 323.156 402.499 324.194 402.286 325.209C402.073 326.325 401.86 327.42 401.539 328.495C401.154 330.108 400.684 331.742 400.129 333.395C399.957 333.994 399.744 334.551 399.51 335.15C399.084 336.347 398.57 337.541 398.06 338.775C396.629 341.923 394.942 345.01 393.001 348.08C384.913 360.872 372.538 372.564 360.118 380.334C360.074 380.416 359.989 380.453 359.946 380.453C358.431 381.43 356.916 382.326 355.421 383.141C340.293 391.51 322.389 391.966 306.707 384.754C303.464 383.259 300.326 381.565 297.297 379.553C297.253 379.553 297.212 379.553 297.168 379.476C285.154 371.705 274.848 360.449 267.081 348.077C266.527 347.221 266.013 346.362 265.482 345.466C265.225 345.01 264.971 344.53 264.714 344.073C264.288 343.296 263.862 342.481 263.412 341.683C262.175 339.552 261.086 337.321 260.105 335.147C259.849 334.548 259.551 333.95 259.314 333.314C255.666 324.607 254.364 314.886 253.512 305.323C253.363 303.829 253.235 302.314 253.106 300.819C252.957 299.146 252.805 297.472 252.68 295.819L252.254 291.335C252.146 290.838 252.061 290.358 251.977 289.881C251.848 289.343 251.764 288.806 251.7 288.268C251.314 286.216 251.017 284.163 250.783 282.033C250.401 278.587 250.185 274.959 250.185 271.274C250.185 270.976 250.185 270.635 250.229 270.337C250.229 268.024 250.333 265.755 250.526 263.503C250.695 261.59 250.952 259.699 251.273 257.846C253.066 246.492 257.076 235.932 262.882 226.667C264.332 224.338 265.888 222.106 267.555 219.952C284.133 198.508 312.468 186.031 341.436 190.697C364.608 194.43 383.419 208.706 394.729 227.063C395.071 227.54 395.348 228.04 395.689 228.578C400.768 237.325 404.396 247.124 406.08 257.623C406.08 257.701 406.124 257.762 406.124 257.843C406.422 259.696 406.658 261.59 406.827 263.5C407.04 265.752 407.149 268.021 407.149 270.334C407.193 270.641 407.193 270.979 407.193 271.277Z" fill="#F5F5FF" stroke="#2E2E2E" stroke-width="0.5086" stroke-miterlimit="10" stroke-linecap="round" stroke-linejoin="round"/>
<path d="M338.451 179.478C346.762 187.1 348.801 200.213 343.161 209.805C337.521 219.395 324.726 224.585 313.565 221.809C317.024 226.992 314.305 234.942 310.582 239.956C306.856 244.971 299.819 247.52 293.54 246.131C298.856 262.686 288.012 282.091 272.279 290.744C276.532 298.95 274.257 312.043 269.77 320.137C265.283 328.232 256.566 334.065 247.054 335.336C253.343 342.413 255.572 353.717 252.248 362.434C248.927 371.151 240.467 377.897 230.881 379.479C223.057 380.768 211.114 378.762 207.706 371.929C204.297 365.095 206.482 356.145 212.703 351.442C209.102 344.104 206.877 337.237 206.424 329.145C205.86 319.113 207.942 308.742 213.701 300.326C219.459 291.91 229.174 285.706 239.703 285.192C230.621 272.302 228.379 256.975 234.996 242.787C241.617 228.599 256.217 218.073 272.346 215.868C272.184 206.992 275.616 198.437 282.825 192.811C290.031 187.188 299.989 184.912 309.088 186.812C311.427 181.49 319.793 178.356 325.768 177.426C331.742 176.499 338.15 178.694 342.14 183.035" fill="#2E2E2E"/>
<path d="M345.422 183.458C339.326 194.126 339.671 208.165 346.291 218.519C352.912 228.872 365.507 235.08 377.751 234.022C372.054 240.369 373.037 250.878 378.343 257.556C383.648 264.237 393.954 266.307 401.427 262.192C397.606 265.401 393.701 270.246 393.342 275.223C392.98 280.201 395.834 285.55 400.592 287.061C405.349 288.573 411.324 284.992 411.365 280.001C411.473 265.959 420.078 252.758 415.348 239.534C410.621 226.309 399.983 215.323 386.921 210.17C382.265 192.094 364.087 183.208 345.422 183.458Z" fill="#2E2E2E"/>
<path d="M291.965 329.678C307.19 329.678 319.532 317.336 319.532 302.111C319.532 286.885 307.19 274.543 291.965 274.543C276.739 274.543 264.397 286.885 264.397 302.111C264.397 317.336 276.739 329.678 291.965 329.678Z" stroke="#2E2E2E" stroke-width="0.5" stroke-miterlimit="10" stroke-linecap="round" stroke-linejoin="round"/>
<path d="M367.858 329.678C383.083 329.678 395.425 317.336 395.425 302.111C395.425 286.885 383.083 274.543 367.858 274.543C352.632 274.543 340.29 286.885 340.29 302.111C340.29 317.336 352.632 329.678 367.858 329.678Z" stroke="#2E2E2E" stroke-width="0.5" stroke-miterlimit="10" stroke-linecap="round" stroke-linejoin="round"/>
<path d="M319.546 298.861C322.593 297.085 326.133 296.071 329.91 296.071C333.741 296.071 337.329 297.116 340.402 298.935" stroke="#2E2E2E" stroke-width="0.5" stroke-miterlimit="10" stroke-linecap="round" stroke-linejoin="round"/>
<path d="M264.397 302.11L248.806 281.349" stroke="#2E2E2E" stroke-width="0.5" stroke-miterlimit="10" stroke-linecap="round" stroke-linejoin="round"/>
<path d="M394.916 302.11L410.511 281.349" stroke="#2E2E2E" stroke-width="0.5" stroke-miterlimit="10" stroke-linecap="round" stroke-linejoin="round"/>
<path d="M342.905 274.144C344.501 270.262 347.669 267.405 351.182 265.43C354.736 263.476 358.763 262.411 362.838 262.276C366.912 262.137 370.99 262.952 374.656 264.656C378.287 266.384 381.628 268.998 383.532 272.741L372.671 272.447C369.381 272.386 366.253 272.399 363.156 272.49C360.058 272.589 356.944 272.764 353.675 273.042C350.381 273.305 347.027 273.681 342.905 274.144Z" fill="#2E2E2E"/>
<path d="M316.412 274.144C312.287 273.681 308.936 273.305 305.64 273.041C302.373 272.764 299.259 272.585 296.162 272.49C293.061 272.402 289.937 272.385 286.647 272.446L275.786 272.741C277.69 268.997 281.03 266.384 284.662 264.656C288.327 262.948 292.405 262.133 296.48 262.275C300.554 262.411 304.581 263.476 308.135 265.43C311.648 267.405 314.816 270.262 316.412 274.144Z" fill="#2E2E2E"/>
<path d="M344.802 301.526C345.535 299.896 346.354 298.317 347.128 296.711L347.192 296.613C349.123 293.712 351.544 290.909 354.78 289.076C357.955 287.189 361.776 286.236 365.482 286.466C369.164 286.648 372.792 287.754 375.92 289.657C377.482 290.597 378.906 291.723 380.221 292.941C381.529 294.134 382.706 295.588 383.19 297.353L383.196 297.384C383.315 297.817 383.061 298.259 382.628 298.378C382.442 298.429 382.253 298.408 382.091 298.337C380.349 297.573 379.217 296.565 377.962 295.575C376.718 294.604 375.389 293.762 374.009 293.056C371.281 291.622 368.278 290.794 365.242 290.554C362.222 290.31 359.206 290.851 356.464 292.183C353.738 293.543 351.277 295.612 349.167 298.074L349.231 297.979C348.173 299.413 347.162 300.877 346.063 302.29C345.813 302.615 345.346 302.672 345.021 302.422C344.748 302.202 344.663 301.83 344.802 301.526Z" fill="#2E2E2E"/>
<path d="M357.262 295.264C357.509 291.838 360.484 289.262 363.91 289.509C367.335 289.755 369.912 292.731 369.665 296.156C369.418 299.581 366.442 302.158 363.017 301.911C359.592 301.664 357.015 298.689 357.262 295.264Z" fill="#2E2E2E"/>
<path d="M376.011 300.938C378.297 300.427 380.464 299.389 382.293 297.925" stroke="#2E2E2E" stroke-width="0.5" stroke-miterlimit="10" stroke-linecap="round" stroke-linejoin="round"/>
<path d="M313.25 302.286C312.155 300.873 311.14 299.412 310.082 297.975L310.146 298.07C308.036 295.612 305.575 293.542 302.849 292.18C300.107 290.848 297.094 290.303 294.071 290.55C291.035 290.793 288.032 291.618 285.304 293.052C283.927 293.759 282.599 294.601 281.351 295.571C280.093 296.562 278.96 297.573 277.222 298.334C276.813 298.513 276.336 298.327 276.157 297.918C276.079 297.742 276.069 297.553 276.117 297.38L276.127 297.35C276.61 295.585 277.784 294.131 279.096 292.937C280.411 291.723 281.834 290.597 283.397 289.654C286.521 287.75 290.152 286.648 293.835 286.465C297.541 286.235 301.361 287.189 304.537 289.076C307.772 290.908 310.193 293.712 312.124 296.613L312.188 296.711C312.963 298.317 313.781 299.896 314.515 301.526C314.684 301.901 314.518 302.337 314.143 302.506C313.822 302.652 313.456 302.55 313.25 302.286Z" fill="#2E2E2E"/>
<path d="M302.055 295.263C301.808 291.838 298.832 289.262 295.407 289.508C291.982 289.755 289.405 292.731 289.652 296.156C289.899 299.581 292.875 302.158 296.3 301.911C299.725 301.664 302.302 298.689 302.055 295.263Z" fill="#2E2E2E"/>
<path d="M283.304 300.937C281.018 300.427 278.851 299.389 277.022 297.925" stroke="#2E2E2E" stroke-width="0.5" stroke-miterlimit="10" stroke-linecap="round" stroke-linejoin="round"/>
<path d="M318.884 329.347C321.471 326.02 325.525 323.981 329.633 323.947C333.742 323.914 337.816 325.881 340.433 329.168" stroke="#2E2E2E" stroke-width="0.4638" stroke-miterlimit="10" stroke-linecap="round" stroke-linejoin="round"/>
<path d="M330.313 352.894C333.082 352.877 335.852 352.702 338.601 352.367C339.443 352.265 347.673 351.133 347.615 350.615C347.615 350.615 343.379 347.359 341.908 346.108L341.255 345.523C339.679 344.113 338.05 342.652 335.997 341.919C333.992 341.229 331.307 341.533 329.759 343.291C328.254 341.489 325.583 341.114 323.547 341.753C321.488 342.429 319.821 343.846 318.205 345.212L317.545 345.77C316.037 346.977 311.709 350.128 311.709 350.128C311.648 350.801 318.803 352.039 319.625 352.157C322.641 352.593 325.684 352.837 328.734 352.884C329.255 352.894 329.782 352.898 330.313 352.894Z" fill="#2E2E2E"/>
<path d="M319.72 358.267C325.958 361.966 334.165 362.084 340.508 358.565Z" fill="#F5F5FF"/>
<path d="M319.72 358.267C325.958 361.966 334.165 362.084 340.508 358.565" stroke="#2E2E2E" stroke-width="0.5086" stroke-miterlimit="10" stroke-linecap="round" stroke-linejoin="round"/>
<path d="M157.552 641.138C185.011 653.53 210.084 657.348 213.546 649.669C217.012 641.99 197.559 625.719 170.1 613.327C142.64 600.934 117.568 597.117 114.102 604.795C110.639 612.478 130.089 628.749 157.552 641.138Z" fill="#2E2E2E"/>
<path d="M194.378 660.455L222.24 594.215L226.838 583.226L234.446 565.136L239.485 553.166L248.039 532.743L255.41 515.228C265.622 490.916 255.918 463.866 234.345 456.292C230.592 454.973 226.703 454.331 222.882 454.331C219.467 454.331 216.086 454.838 212.772 455.785C199.416 459.538 187.514 470.662 182.07 486.182L165.975 532.168L157.995 554.958L121.409 659.475C121.308 659.813 121.172 660.117 121.071 660.455" fill="#F5F5FF"/>
<path d="M194.378 660.455L222.24 594.215L226.838 583.226L234.446 565.136L239.485 553.166L248.039 532.743L255.41 515.228C265.622 490.916 255.918 463.866 234.345 456.292C230.592 454.973 226.703 454.331 222.882 454.331C219.467 454.331 216.086 454.838 212.772 455.785C199.416 459.538 187.514 470.662 182.07 486.182L165.975 532.168L157.995 554.958L121.409 659.475C121.308 659.813 121.172 660.117 121.071 660.455" stroke="#2E2E2E" stroke-width="0.5" stroke-miterlimit="10" stroke-linecap="round" stroke-linejoin="round"/>
<path d="M114.419 603.937C119.494 597.529 143.549 601.563 169.808 613.384C197.274 625.787 216.751 642.057 213.254 649.757C213.17 649.922 213.089 650.048 212.964 650.213L213.254 650.338L272.613 509.02C284.516 481.097 271.657 449.259 244.606 439.815C239.487 438.026 234.286 437.15 229.082 437.15C210.563 437.15 192.794 448.136 183.678 465.949L114.419 603.937Z" fill="#2E2E2E"/>
<path d="M160.408 554.958C162.303 554.958 163.84 553.422 163.84 551.526C163.84 549.631 162.303 548.094 160.408 548.094C158.512 548.094 156.976 549.631 156.976 551.526C156.976 553.422 158.512 554.958 160.408 554.958Z" fill="#F5F5FF"/>
<path d="M166.833 591.882C166.833 594.57 169.01 596.748 171.699 596.748C174.387 596.748 176.564 594.57 176.564 591.882C176.564 589.194 174.387 587.016 171.699 587.016C169.01 587.016 166.833 589.194 166.833 591.882Z" fill="#F5F5FF"/>
<path d="M186.268 528.199C186.268 530.474 184.425 532.317 182.153 532.317C179.88 532.317 178.038 530.474 178.038 528.199C178.038 525.926 179.88 524.084 182.153 524.084C184.425 524.084 186.268 525.926 186.268 528.199Z" fill="#F5F5FF"/>
<path d="M502.53 641.138C475.071 653.53 449.998 657.348 446.532 649.669C443.067 641.99 462.519 625.719 489.979 613.327C517.439 600.934 542.511 597.117 545.977 604.795C549.443 612.478 529.99 628.749 502.53 641.138Z" fill="#2E2E2E"/>
<path d="M465.704 660.455L437.842 594.215L433.244 583.226L425.636 565.136L420.598 553.166L412.043 532.743L404.672 515.228C394.46 490.916 404.164 463.866 425.737 456.292C429.491 454.973 433.379 454.331 437.2 454.331C440.615 454.331 443.996 454.838 447.31 455.785C460.666 459.538 472.568 470.662 478.012 486.182L494.107 532.168L502.087 554.958L538.673 659.475C538.775 659.813 538.91 660.117 539.011 660.455" fill="#F5F5FF"/>
<path d="M465.704 660.455L437.842 594.215L433.244 583.226L425.636 565.136L420.598 553.166L412.043 532.743L404.672 515.228C394.46 490.916 404.164 463.866 425.737 456.292C429.491 454.973 433.379 454.331 437.2 454.331C440.615 454.331 443.996 454.838 447.31 455.785C460.666 459.538 472.568 470.662 478.012 486.182L494.107 532.168L502.087 554.958L538.673 659.475C538.775 659.813 538.91 660.117 539.011 660.455" stroke="#2E2E2E" stroke-width="0.5" stroke-miterlimit="10" stroke-linecap="round" stroke-linejoin="round"/>
<path d="M545.658 603.937C540.583 597.529 516.528 601.563 490.269 613.384C462.802 625.787 443.326 642.057 446.822 649.757C446.907 649.922 446.988 650.048 447.113 650.213L446.822 650.338L387.463 509.02C375.561 481.097 388.42 449.259 415.471 439.815C420.59 438.026 425.79 437.15 430.994 437.15C449.514 437.15 467.283 448.136 476.399 465.949L545.658 603.937Z" fill="#2E2E2E"/>
<path d="M463.306 474.368C463.306 476.228 461.798 477.736 459.938 477.736C458.079 477.736 456.57 476.228 456.57 474.368C456.57 472.509 458.079 471 459.938 471C461.798 470.997 463.306 472.505 463.306 474.368Z" fill="#F5F5FF"/>
<path d="M499.672 554.958C501.568 554.958 503.104 553.422 503.104 551.526C503.104 549.631 501.568 548.094 499.672 548.094C497.777 548.094 496.24 549.631 496.24 551.526C496.24 553.422 497.777 554.958 499.672 554.958Z" fill="#F5F5FF"/>
<path d="M474.532 526.761C474.532 529.034 472.689 530.876 470.414 530.876C468.142 530.876 466.299 529.034 466.299 526.761C466.299 524.489 468.142 522.646 470.414 522.646C472.689 522.646 474.532 524.489 474.532 526.761Z" fill="#F5F5FF"/>
<path d="M493.245 591.882C493.245 594.57 491.068 596.748 488.379 596.748C485.691 596.748 483.514 594.57 483.514 591.882C483.514 589.194 485.691 587.016 488.379 587.016C491.068 587.016 493.245 589.194 493.245 591.882Z" fill="#F5F5FF"/>
<path d="M453.575 602.361C453.575 604.221 452.067 605.729 450.207 605.729C448.347 605.729 446.839 604.221 446.839 602.361C446.839 600.501 448.347 598.993 450.207 598.993C452.067 598.993 453.575 600.501 453.575 602.361Z" fill="#F5F5FF"/>
<path d="M454.174 499.1L445.518 540.487C447.242 544.274 448.595 548.264 449.508 552.423C450.455 556.751 450.962 561.215 450.962 565.813C450.962 571.291 450.252 576.633 448.865 581.705C447.716 586.101 446.093 590.294 444.03 594.216C440.649 600.708 436.186 606.558 430.809 611.461L420.631 660.456H237.466L227.288 610.075C223.602 606.49 220.356 602.399 217.651 597.969C214.439 592.695 211.971 586.913 210.449 580.759C209.266 575.991 208.623 570.987 208.623 565.813C208.623 560.572 209.299 555.466 210.517 550.597C211.294 547.52 212.275 544.545 213.458 541.671L204.87 499.1C201.184 483.411 201.894 468.06 207.44 456.496C212.004 446.893 219.917 439.927 231.413 437.459C234.321 436.85 237.5 436.512 240.915 436.512H422.626C426.008 436.512 429.119 436.85 431.959 437.459C442.847 439.826 449.778 446.554 453.498 455.785C458.265 467.451 457.927 483.106 454.174 499.1Z" fill="#2E2E2E"/>
<path d="M454.448 499.083C453.177 506.014 452.003 512.97 450.634 519.881C449.302 526.803 447.99 533.724 446.556 540.626L446.505 540.162C449.211 546.107 451.02 552.484 451.723 558.993C452.406 565.505 452.024 572.106 450.685 578.5C449.359 584.904 446.847 591.021 443.56 596.63C440.264 602.25 435.949 607.207 431.104 611.464C435.746 606.963 439.614 601.749 442.718 596.147C445.822 590.534 447.953 584.441 449.244 578.199C451.757 565.688 450.306 552.443 445.136 540.781C445.068 540.632 445.055 540.467 445.085 540.318C446.529 533.42 448.091 526.549 449.64 519.672C451.138 512.791 452.845 505.947 454.448 499.083Z" fill="white"/>
<path d="M227.569 610.084C223.072 605.858 219.085 601.009 216.025 595.582C212.985 590.158 210.683 584.278 209.421 578.155C208.184 572.031 207.802 565.725 208.407 559.493C208.985 553.258 210.618 547.141 213.046 541.386L213.002 541.833C210.169 527.628 207.599 513.369 205.164 499.086C208.458 513.2 211.612 527.337 214.504 541.532C214.534 541.684 214.514 541.843 214.46 541.978C209.841 553.261 208.512 565.881 210.855 577.867C212.035 583.852 214.003 589.699 216.86 595.129C219.718 600.549 223.281 605.631 227.569 610.084Z" fill="white"/>
<path d="M366.074 434.378L384.485 437.14C376.303 458.375 355.305 474.774 332.379 475.755C307.763 476.837 283.824 459.998 275.134 437.14L293.031 432.86" fill="#F5F5FF"/>
<path d="M366.074 434.378L384.485 437.14C376.303 458.375 355.305 474.774 332.379 475.755C307.763 476.837 283.824 459.998 275.134 437.14L293.031 432.86" stroke="#2E2E2E" stroke-width="0.5" stroke-miterlimit="10" stroke-linecap="round" stroke-linejoin="round"/>
<path d="M247.705 523.019C247.705 525.295 245.862 527.138 243.59 527.138C241.318 527.138 239.475 525.295 239.475 523.019C239.475 520.747 241.318 518.904 243.59 518.904C245.862 518.904 247.705 520.747 247.705 523.019Z" fill="#F5F5FF"/>
<path d="M288.126 624.07C288.126 628.411 284.606 631.928 280.268 631.928C275.926 631.928 272.41 628.408 272.41 624.07C272.41 619.731 275.93 616.211 280.268 616.211C284.606 616.208 288.126 619.728 288.126 624.07Z" fill="#F5F5FF"/>
<path d="M408.636 557.827C408.636 560.721 406.289 563.068 403.395 563.068C400.5 563.068 398.154 560.721 398.154 557.827C398.154 554.933 400.5 552.589 403.395 552.589C406.289 552.586 408.636 554.933 408.636 557.827Z" fill="#F5F5FF"/>
<path d="M337.152 553.336C343.147 553.336 348.006 548.477 348.006 542.482C348.006 536.488 343.147 531.628 337.152 531.628C331.158 531.628 326.298 536.488 326.298 542.482C326.298 548.477 331.158 553.336 337.152 553.336Z" fill="#F5F5FF"/>
<path d="M428.095 462.393C428.095 464.665 426.252 466.508 423.976 466.508C421.704 466.508 419.861 464.665 419.861 462.393C419.861 460.12 421.704 458.278 423.976 458.278C426.252 458.274 428.095 460.117 428.095 462.393Z" fill="#F5F5FF"/>
<path d="M247.705 467.63C247.705 471.972 244.185 475.488 239.847 475.488C235.506 475.488 231.989 471.968 231.989 467.63C231.989 463.288 235.509 459.772 239.847 459.772C244.185 459.772 247.705 463.292 247.705 467.63Z" fill="#F5F5FF"/>
<path d="M378.319 636.421C381.834 636.421 384.683 633.572 384.683 630.058C384.683 626.543 381.834 623.694 378.319 623.694C374.805 623.694 371.955 626.543 371.955 630.058C371.955 633.572 374.805 636.421 378.319 636.421Z" fill="#F5F5FF"/>
<path d="M245.46 594.504C248.767 594.504 251.449 591.823 251.449 588.516C251.449 585.209 248.767 582.528 245.46 582.528C242.153 582.528 239.472 585.209 239.472 588.516C239.472 591.823 242.153 594.504 245.46 594.504Z" fill="#F5F5FF"/>
<path d="M396.66 502.437C396.66 505.332 394.313 507.678 391.422 507.678C388.531 507.678 386.181 505.332 386.181 502.437C386.181 499.543 388.527 497.2 391.422 497.2C394.316 497.2 396.66 499.543 396.66 502.437Z" fill="#F5F5FF"/>
<path d="M306.837 510.671C310.144 510.671 312.826 507.99 312.826 504.683C312.826 501.376 310.144 498.695 306.837 498.695C303.53 498.695 300.849 501.376 300.849 504.683C300.849 507.99 303.53 510.671 306.837 510.671Z" fill="#F5F5FF"/>
<path d="M341.269 640.162C341.269 641.815 339.93 643.154 338.276 643.154C336.623 643.154 335.284 641.815 335.284 640.162C335.284 638.508 336.623 637.169 338.276 637.169C339.926 637.169 341.269 638.508 341.269 640.162Z" fill="#F5F5FF"/>
</g>
</svg>
