<svg width="88" height="164" viewBox="0 0 88 164" fill="none" xmlns="http://www.w3.org/2000/svg">
<path d="M87.88 44.6973V109.337C87.88 120.137 87.35 130.137 82.7 140.087C78.91 148.217 73.09 155.787 65.15 160.207C60.86 162.597 56.19 163.907 51.3 163.907C48.1 163.907 45 163.347 42.04 162.287C42.02 162.277 41.99 162.267 41.98 162.257C38.6 161.057 35.59 159.017 33.07 156.487C29.64 153.067 24.16 147.587 24.16 147.577L6.11 129.527L0 123.417C1.97 124.107 4.01 124.557 6.11 124.737C6.85 124.807 7.6 124.847 8.36 124.847C10.61 124.847 12.8 124.547 14.93 123.977C17.46 123.287 19.89 122.227 22.17 120.827C22.9 120.377 23.62 119.887 24.33 119.367C34.88 111.607 42.05 96.4073 42.05 78.9173V60.4873C42.05 60.4373 42.06 60.3673 42.05 60.0473V59.6773V1.13731C42.05 0.12731 43.28 -0.382693 43.99 0.337307L87.55 43.8973C87.76 44.1173 87.88 44.3973 87.88 44.6973Z" fill="black"/>
<path d="M22.2099 38.8673V87.1373C22.2099 87.2073 22.1999 87.2773 22.1899 87.3373C21.2099 93.3973 18.2899 98.3173 14.4699 100.547C13.0499 101.377 11.4999 101.837 9.8799 101.837C9.2599 101.837 8.6399 101.767 8.0399 101.637C7.6599 101.547 7.2799 101.437 6.9099 101.307C6.4499 101.137 6.13989 100.717 6.13989 100.227V25.0773C6.13989 24.0673 7.35989 23.5573 8.0799 24.2773L16.8299 33.0273H16.8399L21.8599 38.0573C22.0899 38.2773 22.2099 38.5673 22.2099 38.8673Z" fill="black"/>
<path d="M62.9499 48.7674V61.6074L53.8599 52.5174V39.6774L62.9499 48.7674Z" fill="white"/>
<path d="M53.8599 65.3573L62.9499 74.4373V87.2873L53.8599 78.1973V65.3573Z" fill="white"/>
<path d="M72.0202 70.6773V83.5173L62.9502 74.4373V61.6073L72.0202 70.6773Z" fill="white"/>
<path d="M81.1 79.7473L72.02 70.6773V57.8373L81.1 66.9173V79.7473Z" fill="white"/>
<path d="M72.02 96.3573V83.5173L81.1 92.5973V105.437L72.02 96.3573Z" fill="white"/>
</svg>
