<svg width="47" height="88" viewBox="0 0 47 88" fill="none" xmlns="http://www.w3.org/2000/svg">
<path d="M11.8784 20.8674V46.783C11.8784 46.8206 11.8731 46.8582 11.8678 46.8904C11.3436 50.1439 9.78195 52.7854 7.73893 53.9827C6.97949 54.4283 6.15052 54.6753 5.28411 54.6753C4.95252 54.6753 4.62093 54.6377 4.30004 54.5679C4.09681 54.5196 3.89357 54.4605 3.69569 54.3907C3.44967 54.2994 3.28387 54.0739 3.28387 53.8109V13.4637C3.28387 12.9214 3.93636 12.6476 4.32143 13.0342L9.00111 17.732H9.00646L11.6913 20.4325C11.8143 20.5506 11.8784 20.7063 11.8784 20.8674Z" fill="white"/>
<path fill-rule="evenodd" clip-rule="evenodd" d="M22.4891 0.610889C22.4891 0.0686531 23.1472 -0.205534 23.5269 0.180959L46.8235 23.5681C46.9358 23.6862 47 23.8365 47 23.9975V58.7018C47 64.5001 46.7166 69.8692 44.2298 75.2112C42.2029 79.576 39.0902 83.6403 34.8438 86.0134C32.5494 87.2966 30.0515 88 27.4362 88C25.7248 88 24.0669 87.6993 22.4839 87.1302C22.4732 87.1248 22.4574 87.1193 22.452 87.1139C20.6444 86.4697 19.0344 85.3746 17.6867 84.0163C15.8523 82.1802 12.9214 79.2379 12.9214 79.2326L0 66.2613C1.0536 66.6317 2.14482 66.8735 3.26794 66.9701C3.66365 67.0077 4.06489 67.0294 4.47129 67.0294C5.6745 67.0294 6.84566 66.8682 7.98471 66.5622C9.33781 66.1918 10.6375 65.6224 11.8569 64.8708C12.2474 64.6292 12.6325 64.3661 13.0122 64.087C18.6546 59.9207 22.4891 51.7599 22.4891 42.3697V0.610889ZM38.5181 51.7333L43.3738 56.6083V49.7147L38.5181 44.8397V51.7333ZM28.8056 41.9833L33.6671 46.8635V39.9647L28.8056 35.0897V41.9833ZM33.6671 39.9647L38.5181 44.8397V37.9461L33.6671 33.0764V39.9647ZM38.5181 37.9461L43.3738 42.8154V35.927L38.5181 31.0526V37.9461ZM28.8056 28.1962L33.6671 33.0764V26.1828L28.8056 21.3026V28.1962Z" fill="#FFFEFE"/>
</svg>
