<svg width="796" height="492" viewBox="0 0 796 492" fill="none" xmlns="http://www.w3.org/2000/svg">
<path d="M282.226 174.376C283.318 168.489 285.273 162.361 286.505 156.415C293.823 121.118 306.194 88.03 337.298 66.6884C358.297 52.4418 384.041 46.9853 409.015 51.4877C420.259 53.6155 427.281 56.9985 435.571 64.8867C485.686 63.3489 501.403 115.153 508.943 154.992C510.198 161.623 513.101 169.349 514.081 175.657L524.368 206.026C535.394 238.472 543.571 267.412 524.772 298.803L524.527 299.187C522.724 302.037 521.783 305.328 520.299 308.386C516.436 316.338 511.36 322.708 504.839 328.605C510.291 330.961 549.762 348.534 551.643 350.17C555.374 353.419 557.892 359.182 559.699 363.727C563.935 374.397 566.469 385.79 568.926 396.977C571.498 408.9 573.916 420.851 576.178 432.836C577.713 441.087 580.39 454.071 581.094 462.112L346.597 462.155L258.97 462.163C245.306 462.163 228.834 462.621 215.539 462.124C216.151 454.398 218.481 444.282 219.863 436.587C222.673 420.454 225.966 404.411 229.735 388.475C232.257 378.153 237.726 352.227 248.698 347.893C263.296 342.127 277.321 334.813 291.72 328.758C285.118 322.473 280.594 317.618 276.445 309.317C275.066 306.557 273.232 301.678 271.514 299.461C251.279 268.789 261.408 236.704 272.219 205.018C275.683 194.847 279.019 184.632 282.226 174.376ZM527.003 287.591C529.988 283.922 532.455 270.111 532.825 265.043C534.134 247.012 528.977 228.994 523.144 212.111C522.184 209.331 520.847 204.142 519.09 202.108C523.167 222.675 528.281 241.239 528.596 262.671C528.709 268.395 528.499 274.122 527.978 279.823C527.819 281.552 527.022 286.399 527.003 287.591ZM276.467 202.876C275.139 204.685 274.139 208.31 273.405 210.578C267.146 229.928 260.323 250.487 263.538 271.073C264.213 275.393 266.581 284.611 269.053 288.025C269.214 286.505 268.612 283.444 268.391 281.761C264.844 254.814 270.863 229.314 276.467 202.876Z" fill="#121C26"/>
<path d="M519.091 202.109C517.902 197.354 512.235 179.043 514.081 175.657L524.369 206.026C535.394 238.472 543.572 267.412 524.773 298.803C524.062 297.212 526.425 290.024 527.004 287.592C529.989 283.922 532.456 270.111 532.826 265.044C534.135 247.012 528.978 228.994 523.145 212.111C522.185 209.331 520.848 204.143 519.091 202.109Z" fill="#282C37"/>
<path d="M282.226 174.376C284.366 177.547 279.027 192.632 278.12 196.751C277.946 197.539 276.807 202.234 276.467 202.876C275.139 204.685 274.138 208.31 273.405 210.577C267.146 229.928 260.323 250.487 263.538 271.073C264.212 275.393 266.58 284.611 269.053 288.025C269.447 289.638 272.026 298.629 271.513 299.461C251.278 268.789 261.407 236.704 272.219 205.018C275.682 194.847 279.018 184.632 282.226 174.376Z" fill="#282C37"/>
<path d="M358.654 334.547C320.532 352.795 279.667 330.127 271.875 289.586C265.106 254.373 274.603 225.577 281.216 191.963C283.598 179.353 286.266 166.798 289.218 154.308C299.263 110.215 313.955 78.0269 357.177 58.5593C363.315 55.8633 369.775 53.9707 376.397 52.9276C383.947 51.7123 397.886 51.5635 405.449 52.3128C413.739 53.1336 430.008 60.3245 434.734 67.2714C459.035 63.0267 482.878 84.7056 492.221 105.309C499.621 121.625 503.609 139.984 507.25 157.421L513.406 186.27C521.688 226.264 538.396 278.543 513.27 315.964C505.35 327.762 490.659 337.256 476.66 339.192C467.247 340.581 457.485 340.252 448.111 338.212C445.514 337.646 442.114 336.151 439.347 335.46L438.993 334.89C443.513 331.707 450.1 327.209 453.835 323.345C470.811 305.784 480.924 280.61 484.608 256.687C485.545 250.607 487.538 237.963 486.959 232.168C481.098 235.15 477.41 236.028 470.869 234.019C465.184 249.072 458.421 259.416 445.332 269.194C442.125 271.591 437.827 274.124 434.959 276.325C434.197 279.809 436.459 282.109 432.946 283.983C433.027 290.059 433.552 294.204 435.969 299.899C437.559 303.793 440.011 307.604 443.214 310.367L444.065 308.041C445.542 308.887 445.223 308.444 445.814 309.7L445.666 311.553C448.212 313.98 448.01 321.744 448.173 325.314C445.044 327.577 438.247 332.586 434.905 333.825C433.921 334.293 433.968 334.263 433.268 335.101C439.281 339.105 443.171 338.483 448.134 340.964L448.437 341.975C448.285 342.839 447.951 343.804 447.411 344.492C439.471 354.583 426.047 359.426 414.283 361.757C412.69 367.65 409.55 375.667 407.428 381.543L398.33 407.396C393.471 392.383 386.904 376.553 382.319 361.673C370.414 359.595 356.788 354.306 349.073 344.223C348.323 343.242 348.14 342.543 348.334 341.361C350.551 339.882 360.244 336.259 363.329 334.835C362.625 333.451 362.431 333.349 361.071 332.573C358.278 331.667 348.786 328.446 348.222 325.692C349.197 321.026 348.138 315.817 351.193 311.655C350.709 309.265 350.702 309.211 352.581 307.891C357.692 305.914 360.91 293.354 361.569 288.07C361.848 284.49 361.721 280.097 361.704 276.442C360.32 275.422 358.837 274.457 357.405 273.537C345.685 266.011 335.836 256.06 329.811 243.391C328.351 240.32 327.147 237.139 325.665 234.033C320.708 235.676 313.21 235.834 309.399 231.548C308.236 230.24 308.643 228.763 308.814 227.1C309.488 218.937 310.24 213.242 311.933 205.248L312.779 200.874C313.346 197.937 313.965 195.01 314.633 192.094C315.538 195.845 316.854 202.744 319.086 205.694L320.653 205.132C320.29 200.224 320.948 193.334 320.363 188.868C320.003 187.307 320.094 182.95 320.082 181.139L319.806 181.077C318.604 180.797 318.262 180.652 317.149 180.13C313.819 183.291 308.879 207.626 308.08 213.247C307.095 220.248 306.473 227.296 306.214 234.361C305.417 263.542 312.909 295.353 333.179 317.435C340.354 325.251 349.016 330.344 358.654 334.547Z" fill="#282C37"/>
<path d="M433.169 168.796C440.782 168.574 448.683 168.569 456.262 169.577C457.191 169.7 461.135 170.587 461.742 170.563L464.12 171.406C469.141 173.214 468.877 175.826 469.103 180.657L471.539 180.74L476.421 180.819L476.533 196.876L476.417 199.942C476.382 201.595 476.059 203.941 476.879 205.178L477.995 205.707C481.625 199.492 483.389 190.948 484.298 183.89L484.302 182.325C487.439 180.854 489.02 180.698 492.32 181.867C505.545 186.553 505.013 203.322 500.858 214.227C498.818 219.594 495.107 225.016 491.104 229.115C490.066 230.143 487.586 231.418 486.961 232.168C481.1 235.15 477.412 236.028 470.871 234.019C465.185 249.072 458.423 259.416 445.333 269.194C442.127 271.591 437.829 274.124 434.96 276.326C434.199 279.809 436.461 282.109 432.947 283.983C433.029 290.059 433.554 294.204 435.971 299.899C437.56 303.793 440.013 307.604 443.215 310.367L444.066 308.041C445.543 308.888 445.224 308.444 445.815 309.701L445.668 311.553C448.213 313.98 448.011 321.744 448.174 325.314C445.046 327.577 438.248 332.587 434.906 333.825C433.923 334.293 433.969 334.264 433.27 335.101C439.282 339.106 443.172 338.483 448.135 340.964L448.439 341.975C448.287 342.839 447.953 343.805 447.412 344.492C439.473 354.583 426.049 359.426 414.285 361.758C412.691 367.65 409.551 375.667 407.429 381.544L398.331 407.396C393.473 392.383 386.906 376.553 382.32 361.673C370.416 359.596 356.79 354.306 349.075 344.224C348.324 343.243 348.141 342.543 348.336 341.361C350.553 339.882 360.246 336.259 363.33 334.836C362.626 333.451 362.433 333.349 361.072 332.573C358.28 331.667 348.787 328.446 348.224 325.692C349.198 321.026 348.14 315.817 351.195 311.655C350.71 309.265 350.704 309.211 352.582 307.891C357.694 305.914 360.911 293.354 361.571 288.07C361.849 284.491 361.723 280.097 361.706 276.443C360.321 275.422 358.838 274.457 357.406 273.538C345.687 266.011 335.837 256.061 329.813 243.391C328.353 240.32 327.149 237.139 325.666 234.033C320.71 235.676 313.212 235.834 309.4 231.548C308.237 230.24 308.645 228.764 308.816 227.1C309.49 218.937 310.241 213.242 311.934 205.248L312.78 200.875C313.348 197.937 313.966 195.01 314.634 192.095C315.539 195.845 316.856 202.744 319.088 205.694L320.654 205.132C320.291 200.224 320.95 193.334 320.365 188.868L320.601 188.202C322.108 187.028 323.436 182.495 324.116 180.511L325.233 180.732L327.642 181.141C327.553 178.231 327.289 175.825 329.44 173.505C333.742 168.863 346.86 169.01 353.053 168.705C361.243 168.695 376.836 168.66 384.079 172.64C385.73 173.896 386.154 174.677 386.751 176.785L386.819 177.138C387.308 179.792 386.665 181.952 387.324 183.991C387.695 184.22 388.135 184.514 388.518 184.703C389.097 182.833 389.21 182.089 389.462 180.135C394.048 178.518 404.001 176.144 407.437 180.887C407.612 182.032 407.783 183.639 408.175 184.685L409.108 184.285C409.986 182.994 409.679 182.748 409.718 180.884C409.543 178.427 409.574 176.138 411.296 174.14C415.311 169.479 427.234 169.222 433.169 168.796Z" fill="#EB9E82"/>
<path d="M363.786 284.12C366.5 285.161 372.745 290.634 375.827 292.653C391.257 302.763 418.78 310.022 435.97 299.9C437.559 303.793 440.012 307.604 443.214 310.368L444.065 308.041C445.542 308.888 445.223 308.444 445.814 309.701L445.666 311.553C448.212 313.981 448.01 321.745 448.173 325.314C445.045 327.578 438.247 332.587 434.905 333.825C433.922 334.293 433.968 334.264 433.269 335.102C439.281 339.106 443.171 338.484 448.134 340.965L448.437 341.976C448.286 342.84 447.952 343.805 447.411 344.493C439.471 354.583 426.048 359.427 414.284 361.758C412.69 367.65 409.55 375.667 407.428 381.544L398.33 407.396C393.472 392.383 386.905 376.554 382.319 361.674C370.414 359.596 356.789 354.306 349.074 344.224C348.323 343.243 348.14 342.544 348.335 341.362C350.552 339.882 360.244 336.259 363.329 334.836C362.625 333.451 362.431 333.349 361.071 332.574C358.278 331.667 348.786 328.446 348.223 325.692C349.197 321.027 348.139 315.817 351.193 311.656C350.709 309.266 350.703 309.212 352.581 307.891L353.558 310.854C362.072 300.2 362.828 297.497 363.786 284.12Z" fill="#EB9E82"/>
<path d="M382.322 361.674C370.418 359.596 356.792 354.306 349.077 344.224C348.326 343.243 348.143 342.544 348.338 341.362C350.555 339.882 360.248 336.259 363.332 334.836C365.534 339.509 378.304 346.642 383.481 348.366C394.785 352.133 407.322 351.758 418.142 346.538C422.627 344.372 430.586 339.075 433.272 335.102C439.284 339.106 443.174 338.484 448.137 340.965L448.44 341.976C448.289 342.84 447.955 343.805 447.414 344.493C439.475 354.583 426.051 359.427 414.287 361.758C412.693 367.65 409.553 375.667 407.431 381.544L398.333 407.396C393.475 392.383 386.908 376.554 382.322 361.674Z" fill="#EB9E82"/>
<path d="M351.193 311.655C350.709 309.265 350.703 309.211 352.581 307.891L353.558 310.854C355.206 318.629 358.748 325.878 363.869 331.956C371.967 341.337 383.427 347.16 395.78 348.171C411.765 349.421 427.56 340.632 436.145 327.35C438.698 323.394 442.856 315.069 443.214 310.367L444.065 308.041C445.542 308.887 445.223 308.444 445.814 309.701L445.666 311.553C448.212 313.98 448.01 321.744 448.173 325.314C445.045 327.577 438.247 332.587 434.905 333.825C433.922 334.293 433.968 334.264 433.269 335.101C430.583 339.074 422.624 344.372 418.139 346.537C407.319 351.758 394.782 352.132 383.477 348.366C378.301 346.642 365.531 339.508 363.329 334.836C362.625 333.451 362.431 333.349 361.071 332.573C358.278 331.667 348.786 328.446 348.223 325.692C349.197 321.026 348.139 315.817 351.193 311.655Z" fill="#E9BB7C"/>
<path d="M348.223 325.692C349.197 321.026 348.139 315.817 351.193 311.655C353.092 320.735 355.6 325.076 361.071 332.573C358.278 331.667 348.786 328.446 348.223 325.692Z" fill="#EB9E82"/>
<path d="M434.906 333.826C435.38 332.891 437.996 329.152 438.754 327.95C442.426 322.113 443.93 318.129 445.668 311.554C448.213 313.981 448.011 321.745 448.174 325.315C445.046 327.578 438.249 332.587 434.906 333.826Z" fill="#EB9E82"/>
<path d="M484.302 182.325C487.439 180.854 489.02 180.698 492.32 181.867C505.545 186.553 505.013 203.322 500.858 214.227C498.818 219.594 495.107 225.016 491.104 229.115C490.066 230.143 487.586 231.418 486.961 232.168C481.1 235.15 477.412 236.028 470.871 234.019C465.185 249.072 458.423 259.417 445.333 269.194C442.127 271.591 437.829 274.124 434.96 276.326C434.199 279.809 436.461 282.109 432.947 283.983C433.029 290.059 433.554 294.204 435.971 299.899C418.781 310.022 391.258 302.763 375.828 292.653C372.746 290.634 366.502 285.161 363.787 284.12C362.829 297.496 362.073 300.2 353.56 310.854L352.582 307.891C357.694 305.915 360.911 293.354 361.571 288.07C361.849 284.491 361.723 280.097 361.706 276.443C360.321 275.422 358.838 274.457 357.406 273.538C345.687 266.011 335.837 256.061 329.813 243.391C328.353 240.32 327.149 237.139 325.666 234.033C320.71 235.676 313.212 235.834 309.4 231.548C308.237 230.24 308.645 228.764 308.816 227.1C309.49 218.937 310.241 213.242 311.934 205.248L312.78 200.875C313.348 197.937 313.966 195.01 314.634 192.095C315.539 195.845 316.856 202.744 319.088 205.694C319.478 209.983 321.774 219.53 321.857 221.619L324.195 221.381C326.934 232.946 331.784 244.642 339.125 254.315C350.694 269.56 376.376 284.307 394.993 287.326C409.617 289.698 434.09 275.051 445.411 266.552C466.234 250.919 473.257 224.795 476.417 199.942C476.382 201.595 476.059 203.941 476.879 205.178L477.995 205.707C481.625 199.492 483.389 190.948 484.298 183.89L484.302 182.325Z" fill="#A55543"/>
<path d="M363.496 277.163C371.115 281.069 373.979 283.218 382.584 286.301C400.97 292.887 411.304 288.003 427.802 280.377C429.057 279.564 431.043 278.038 432.396 277.999C433.348 279.207 433.029 280.592 432.951 282.268L432.947 283.984C433.029 290.06 433.554 294.204 435.971 299.9C418.782 310.023 391.258 302.764 375.828 292.654C372.747 290.634 366.502 285.162 363.787 284.12C363.573 282.082 363.564 279.266 363.496 277.163Z" fill="#D67C62"/>
<path d="M484.298 183.89C488.005 183.247 492.249 183.089 495.366 185.649C510.317 197.939 495.673 231.95 477.489 233.192C476.366 233.269 471.682 233.864 472.013 231.592C473.012 224.675 478.037 212.535 477.994 205.706C481.624 199.492 483.388 190.948 484.298 183.89Z" fill="#EB9E82"/>
<path d="M481.171 218.013C480.025 217.836 480.499 218.088 479.714 217.225C479.391 215.557 479.317 213.98 479.628 211.777C480.557 205.24 485.225 193.464 493.137 193.124C493.681 193.101 493.724 193.446 494.031 193.917L493.763 194.641C489.647 196.19 488.87 197.11 486.154 200.415C488.812 200.333 490.195 199.817 491.948 201.991C494.847 208.992 489.574 218.895 481.171 218.013Z" fill="#D67C62"/>
<path d="M481.171 218.013C480.025 217.836 480.499 218.088 479.714 217.225C479.391 215.557 479.317 213.98 479.628 211.777C480.557 205.24 485.225 193.464 493.137 193.124C493.681 193.101 493.724 193.446 494.031 193.917L493.763 194.641C489.647 196.19 488.87 197.11 486.154 200.415C488.812 200.333 490.195 199.817 491.948 201.991L491.777 203.969H491.49L491.637 203.676L491.113 203.858C487.572 201.876 486.27 201.291 483.814 205.208C481.809 208.408 482.586 215.067 481.171 218.013Z" fill="#A55543"/>
<path d="M479.069 223.749C480.853 223.083 482.843 223.991 483.507 225.777C484.168 227.563 483.258 229.549 481.471 230.212C479.687 230.873 477.705 229.965 477.04 228.181C476.38 226.397 477.285 224.414 479.069 223.749Z" fill="#E9BB7C"/>
<path d="M314.635 192.095C315.54 195.845 316.856 202.744 319.088 205.694C319.478 209.983 321.774 219.53 321.858 221.619C322.737 224.174 325.383 230.446 324.532 232.52C320.958 234.825 312.109 232.181 309.221 229.3C308.915 228.994 308.87 227.611 308.816 227.1C309.49 218.937 310.242 213.242 311.934 205.249L312.781 200.875C313.348 197.937 313.967 195.01 314.635 192.095Z" fill="#D67C62"/>
<path d="M312.78 200.875C314.466 203.775 318.583 215.124 316.687 217.925C312.914 217.366 315.164 207.625 311.934 205.249L312.78 200.875Z" fill="#A55543"/>
<path d="M314.782 223.748C315.971 223.249 317.339 223.447 318.338 224.263C319.337 225.079 319.805 226.379 319.554 227.645C319.303 228.91 318.375 229.934 317.14 230.307C315.363 230.844 313.476 229.894 312.847 228.147C312.219 226.399 313.069 224.466 314.782 223.748Z" fill="#E9BB7C"/>
<path d="M327.641 181.141C327.553 178.231 327.288 175.825 329.439 173.505C333.741 168.863 346.859 169.01 353.053 168.705C361.243 168.696 376.836 168.661 384.079 172.64C385.73 173.896 386.154 174.677 386.75 176.785L386.818 177.138C387.307 179.792 386.664 181.952 387.323 183.991C387.695 184.22 388.134 184.515 388.517 184.704L388.423 185.003C386.114 192.614 386.869 200.436 377.808 205.627C373.788 207.931 363.943 209.605 359.386 209.166L359.084 208.996L357.392 207.504C354.007 207.57 347.573 207.001 344.008 206.789L344.086 206.398C339.673 206.499 336.356 204.281 333.231 201.458C328.933 194.838 328.37 188.732 327.641 181.141Z" fill="#F2CDB7"/>
<path d="M384.081 172.641C385.732 173.897 386.156 174.677 386.752 176.786L386.82 177.138C387.31 179.793 386.667 181.952 387.326 183.992C387.697 184.221 388.137 184.515 388.52 184.704L388.426 185.003C386.116 192.615 386.871 200.437 377.811 205.628C373.79 207.932 363.945 209.605 359.389 209.166L359.086 208.996L357.395 207.504L363.134 207.221C364.415 203.681 381.62 175.357 384.081 172.641Z" fill="#EB9E82"/>
<path d="M386.752 176.785L386.82 177.138C387.31 179.792 386.667 181.952 387.326 183.991C387.697 184.22 388.137 184.514 388.52 184.704L388.426 185.002C386.116 192.614 386.871 200.436 377.811 205.627C373.79 207.931 363.945 209.605 359.389 209.166L359.086 208.995L357.395 207.504L363.134 207.22C368.452 206.637 376.065 205.739 379.753 201.713C385.703 195.22 386.695 184.964 386.752 176.785Z" fill="#C7938D"/>
<path d="M327.641 181.141C327.553 178.231 327.288 175.825 329.439 173.505C333.741 168.863 346.859 169.01 353.053 168.705C351.956 170.107 350.371 172.912 349.294 174.603C343.708 183.376 338.829 192.677 333.231 201.457C328.933 194.837 328.37 188.732 327.641 181.141Z" fill="#EB9E82"/>
<path d="M344.086 206.398C348.672 205.215 352.769 204.727 357.08 207.314L357.392 207.504C354.007 207.57 347.573 207.001 344.008 206.789L344.086 206.398Z" fill="#EB9E82"/>
<path d="M359.552 175.651C369.055 174.489 370.225 187.207 363.108 191.412C354.303 192.884 352.344 180.2 359.552 175.651Z" fill="#8D7A7A"/>
<path d="M433.169 168.796C440.782 168.574 448.684 168.569 456.262 169.577C457.191 169.7 461.136 170.587 461.742 170.563L464.12 171.406C469.142 173.214 468.877 175.826 469.103 180.657L471.54 180.74C469.371 191.441 469.138 203.923 456.942 207.49L456.693 207.448L453.557 206.655C449.379 207.104 444.525 207.606 440.304 207.496L440.052 207.564C432.283 207.207 420.981 207.15 415.909 200.378C412.05 196.312 410.542 186.278 409.718 180.884C409.543 178.427 409.575 176.138 411.296 174.14C415.311 169.479 427.234 169.222 433.169 168.796Z" fill="#F2CDB7"/>
<path d="M409.718 180.885C409.543 178.428 409.575 176.139 411.296 174.141C415.311 169.48 427.234 169.222 433.169 168.797C430.044 176.757 424.463 184.391 420.332 191.92C418.832 194.65 416.963 197.424 415.909 200.379C412.05 196.312 410.542 186.279 409.718 180.885Z" fill="#EB9E82"/>
<path d="M443.613 205.453L441.635 206.01L441.316 205.755C442.785 203.3 444.227 199.759 445.677 197.022C449.319 190.312 453.015 183.629 456.757 176.976C457.841 175.07 459.73 171.119 461.743 170.563L464.122 171.406L448.813 196.904C447.453 199.194 444.666 203.434 443.613 205.453Z" fill="#F3DCC7"/>
<path d="M469.104 180.657L471.541 180.74C469.372 191.441 469.139 203.923 456.943 207.491L456.695 207.449L453.558 206.655L453.492 206.495C466.928 205.275 467.596 191.025 469.104 180.657Z" fill="#C7938D"/>
<path d="M443.585 206.028C446.838 205.048 450.281 205.536 453.491 206.495L453.557 206.655C449.379 207.105 444.525 207.606 440.305 207.497L443.585 206.028Z" fill="#EB9E82"/>
<path d="M434.519 175.28C443.878 175.77 444.103 189.134 436.35 191.619C428.32 191.743 426.086 179.507 434.519 175.28Z" fill="#8D7A7A"/>
<path d="M344.009 206.789C347.574 207 354.008 207.569 357.393 207.504L359.084 208.995L359.387 209.166C371.996 220.748 354.197 230.703 342.347 227.002C330.384 223.266 328.565 213.779 339.938 207.473C340.656 207.519 341.585 207.549 342.271 207.665L344.009 206.789Z" fill="#D67C62"/>
<path d="M344.007 206.789C347.572 207 354.006 207.569 357.391 207.504L359.083 208.995C357.898 208.859 355.416 209 354.051 209.025C349.508 209.106 346.641 208.723 342.27 207.665L344.007 206.789Z" fill="#D38573"/>
<path d="M453.558 206.655L456.694 207.449L456.943 207.491C467.079 212.816 467.044 222.331 456.041 226.628C444.611 231.091 424.083 221.418 437.414 209.499L438.051 209.324C438.758 208.825 439.415 208.163 440.053 207.565L440.305 207.497C444.526 207.606 449.38 207.105 453.558 206.655Z" fill="#D67C62"/>
<path d="M453.558 206.655L456.694 207.449C452.065 208.916 442.932 209.951 438.051 209.324C438.758 208.825 439.415 208.163 440.052 207.565L440.305 207.497C444.526 207.606 449.38 207.105 453.558 206.655Z" fill="#D38573"/>
<path d="M409.719 180.885C410.543 186.279 412.051 196.312 415.91 200.379C420.982 207.15 432.283 207.208 440.052 207.565C439.415 208.164 438.758 208.825 438.051 209.324L437.413 209.499C419.769 209.44 409.936 203.145 408.176 184.686L409.109 184.286C409.987 182.995 409.68 182.749 409.719 180.885Z" fill="#C7938D"/>
<path d="M325.234 180.732L327.643 181.141C328.371 188.732 328.935 194.838 333.232 201.458C336.358 204.281 339.674 206.499 344.087 206.398L344.01 206.789L342.272 207.665C341.586 207.549 340.656 207.519 339.939 207.473C328.768 205.148 326.136 190.409 325.234 180.732Z" fill="#C7938D"/>
<path d="M320.652 205.132C321.528 209.944 322.676 216.831 324.193 221.382L321.855 221.619C321.772 219.53 319.476 209.983 319.086 205.694L320.652 205.132Z" fill="#A55543"/>
<path d="M421.347 236.047C422.863 235.083 424.538 233.793 426.283 233.677L427.239 233.962C427.208 235.744 424.923 236.911 423.442 237.667C414.08 251.8 394.379 254.778 380.502 245.485C378.643 244.24 375.62 241.715 374.508 239.738C372.825 238.514 369.943 238.968 370.066 236.282L370.634 235.787C372.219 235.745 374.275 236.935 375.802 237.66C376.797 237.658 379.435 237.03 380.562 236.803C387.624 235.383 391.27 234.382 398.281 236.697C405.654 233.181 413.52 235.705 421.347 236.047Z" fill="#D67C62"/>
<path d="M398.281 236.697C405.653 233.181 413.519 235.705 421.346 236.046C413.515 241.128 393.613 242.377 384.649 240.098C381.933 239.407 378.526 238.507 375.801 237.66C376.796 237.658 379.434 237.029 380.562 236.802C387.624 235.383 391.27 234.382 398.281 236.697Z" fill="#D67C62"/>
<path d="M421.347 236.047C422.863 235.083 424.538 233.793 426.283 233.677L427.239 233.962C427.208 235.744 424.923 236.911 423.442 237.667C407.006 244.813 391.624 245.588 374.508 239.738C372.825 238.514 369.943 238.968 370.066 236.282L370.634 235.787C372.219 235.745 374.275 236.935 375.802 237.66C378.527 238.507 381.934 239.407 384.65 240.098C393.614 242.377 413.516 241.128 421.347 236.047Z" fill="#97362F"/>
<path d="M391.571 185.438C391.801 185.462 392.185 185.49 392.387 185.58C394.91 186.687 388.547 210.197 389.931 214.256C392.364 221.386 403.829 216.873 405.341 217.624L405.376 218.914C403.106 220.017 399.772 221.142 397.296 220.672C393.588 220.154 386.479 216.994 387.217 212.218C388.534 203.7 389.978 193.916 391.571 185.438Z" fill="#A55543"/>
<path d="M406.16 255.897C406.762 256.177 406.521 255.965 406.793 256.641C404.236 259.401 395.834 258.38 392.285 257.866L391.574 257.442L391.566 256.736C392.643 256.288 402.643 256.412 406.16 255.897Z" fill="#A55543"/>
<path d="M425.41 108.475C429.227 121.365 440.661 135.734 450.264 144.732C457.392 151.412 463.089 156.209 469.35 164.156C470.501 163.567 471.169 163.292 472.374 162.833C474.997 166.871 475.195 169.901 475.817 174.69C476.427 176.582 476.221 176.632 478.215 177.154C480.636 177.424 480.998 177.88 482.253 179.803C481.11 181.306 480.776 181.108 478.825 181.067L478.281 181.045C478.479 183.052 478.759 184.586 478.234 186.553C477.446 187.395 477.904 187.178 476.905 187.387C476.96 189.869 477.22 194.621 476.532 196.875L476.42 180.818L471.538 180.74L469.101 180.657C468.876 175.826 469.14 173.214 464.119 171.406L461.741 170.563C461.134 170.587 457.19 169.7 456.261 169.576C448.682 168.569 440.781 168.574 433.168 168.796C427.233 169.222 415.31 169.479 411.295 174.14C409.573 176.138 409.542 178.427 409.717 180.884C409.678 182.748 409.985 182.994 409.107 184.285L408.174 184.685C407.782 183.639 407.611 182.032 407.436 180.887C404 176.144 394.047 178.518 389.461 180.135C389.208 182.089 389.096 182.833 388.517 184.703C388.134 184.514 387.694 184.22 387.323 183.991C386.664 181.951 387.307 179.792 386.817 177.137L386.749 176.785C386.153 174.676 385.729 173.896 384.078 172.64C376.835 168.66 361.242 168.695 353.052 168.705C346.859 169.009 333.741 168.863 329.438 173.504C327.288 175.825 327.552 178.231 327.641 181.141L325.232 180.732L324.115 180.511C323.435 182.495 322.106 187.028 320.6 188.202L320.364 188.868C320.004 187.307 320.095 182.95 320.083 181.14C319.19 180.672 319.029 180.613 318.297 179.939L318.594 178.809L320.345 176.069C321.459 176.508 324.103 176.045 325.449 175.896C326.167 174.268 327.148 172.879 328.122 171.391C328.142 171.314 328.164 171.239 328.183 171.163C329.151 167.296 332.349 163.864 334.658 160.71C358.779 127.764 399.173 134.151 425.41 108.475Z" fill="#EB9E82"/>
<path d="M407.618 177.077C408.392 174.7 409.748 171.105 412.434 170.206C426.071 165.641 442.514 166.446 456.661 167.598C461.391 167.984 467.865 169.291 470.089 173.643C471.219 176.44 472.533 176.581 475.382 176.253L475.615 175.461L475.817 174.691C476.427 176.582 476.221 176.632 478.215 177.155C480.636 177.425 480.998 177.881 482.253 179.803C481.11 181.306 480.776 181.109 478.825 181.067L478.281 181.046C478.479 183.053 478.759 184.587 478.234 186.553C477.446 187.395 477.904 187.178 476.905 187.387C476.96 189.869 477.22 194.622 476.532 196.876L476.42 180.819L471.538 180.74L469.101 180.657C468.876 175.827 469.14 173.214 464.119 171.406L461.741 170.563C461.134 170.588 457.19 169.701 456.261 169.577C448.682 168.569 440.781 168.575 433.168 168.797C427.233 169.222 415.31 169.479 411.295 174.141C409.573 176.139 409.542 178.428 409.717 180.884C409.678 182.749 409.985 182.995 409.107 184.285L408.174 184.686C407.782 183.639 407.611 182.033 407.436 180.888C404 176.145 394.047 178.519 389.461 180.136C389.208 182.09 389.096 182.833 388.517 184.704C388.134 184.515 387.694 184.22 387.323 183.991C386.664 181.952 387.307 179.792 386.817 177.138L386.749 176.785C386.153 174.677 385.729 173.896 384.078 172.64C376.835 168.661 361.242 168.696 353.052 168.705C346.859 169.01 333.741 168.863 329.438 173.505C327.288 175.826 327.552 178.231 327.641 181.141L325.232 180.732L324.115 180.512C323.435 182.495 322.106 187.029 320.6 188.203L320.364 188.869C320.004 187.307 320.095 182.95 320.083 181.14C319.19 180.673 319.029 180.613 318.297 179.94L318.594 178.809L320.345 176.07C321.459 176.509 324.103 176.046 325.449 175.897C326.167 174.268 327.148 172.88 328.122 171.391C336.362 165.025 363.946 166.654 374.206 167.802C382.42 168.721 385.835 169.392 389.453 177.015C395.326 174.885 401.761 174.907 407.618 177.077Z" fill="#5E4846"/>
<path d="M320.6 188.203C320.595 185.954 320 182.971 320.899 181.206C322.185 180.316 322.283 180.604 324.115 180.512C323.435 182.495 322.107 187.029 320.6 188.203Z" fill="#D38573"/>
<path d="M476.905 187.388C476.823 185.647 476.454 182.627 477.127 181.148L478.281 181.046C478.479 183.053 478.759 184.587 478.234 186.554C477.445 187.395 477.904 187.179 476.905 187.388Z" fill="#100E15"/>
<path d="M469.352 164.157C470.502 163.568 471.17 163.293 472.375 162.834C474.998 166.872 475.197 169.901 475.819 174.691L475.616 175.461C474.384 173.914 471.975 167.574 469.352 164.157Z" fill="#D38573"/>
<path d="M354.677 153.225C359.18 152.631 377.252 153.892 379.38 157.953C384.26 167.266 364.265 160.743 360.795 160.244C353.732 159.568 346.676 160.089 340.362 163.541C339.058 164.254 338.735 164.409 337.493 164.016L337.086 163.164C337.668 158.581 350.53 153.828 354.677 153.225Z" fill="#282C37"/>
<path d="M433 153.274C441.977 151.81 452.832 155.081 459.163 161.798C459.835 162.511 459.812 162.871 459.672 163.717C458.452 164.305 457.438 163.838 456.233 163.327C452.587 161.779 449.641 160.837 445.743 160.151C441.033 159.863 439.727 159.882 435.036 160.444C431.375 160.882 421.966 163.569 419.036 163.077C417.769 162.278 416.937 161.575 417.031 159.901C417.31 154.766 429.296 153.705 433 153.274Z" fill="#282C37"/>
<path d="M320.348 176.07C331.917 145.155 353.681 130.847 383.784 120.9C401.858 114.928 414.349 111.266 427.994 97.7842C433.392 115.803 445.016 130.695 457.686 144.164C462.548 149.334 469.163 156.719 472.377 162.834C471.172 163.293 470.504 163.568 469.353 164.157C463.092 156.21 457.395 151.413 450.267 144.733C440.664 135.735 429.23 121.366 425.413 108.476C399.176 134.152 358.782 127.765 334.661 160.711C332.352 163.865 329.154 167.297 328.186 171.164C328.167 171.24 328.145 171.315 328.125 171.392C327.151 172.88 326.17 174.269 325.452 175.897C324.106 176.046 321.462 176.509 320.348 176.07Z" fill="#D67C62"/>
<path d="M318.594 178.81C317.454 178.581 317.887 178.862 317.195 178.033C317.29 175.786 322.745 165.506 324.17 162.741C336.113 138.631 360.423 126.007 384.789 118.094C405.05 111.515 428.578 103.952 433.273 80.4892C433.549 79.1126 434.61 75.9911 435.507 74.9775L436.149 75.1155C438.652 78.5301 431.959 92.2925 429.417 95.3289C433.312 107.795 441.939 122.502 450.237 132.638C461.271 146.113 477.745 157.934 478.215 177.155C476.222 176.632 476.428 176.582 475.817 174.691C475.196 169.901 474.997 166.871 472.374 162.834C469.16 156.719 462.545 149.334 457.683 144.163C445.014 130.694 433.389 115.802 427.991 97.7839C414.346 111.266 401.855 114.927 383.782 120.9C353.679 130.847 331.914 145.155 320.345 176.07L318.594 178.81Z" fill="#13151F"/>
<path d="M478.281 181.046L478.825 181.068C479.004 188.243 477.558 190.306 478.511 198.205L478.876 198.463C479.113 197.801 479.191 197.667 479.315 196.957L481.853 188.453C482.381 186.316 481.554 183.333 483.085 181.616L484.231 181.822L484.301 182.326L484.298 183.891C483.388 190.948 481.624 199.493 477.994 205.707L476.878 205.179C476.058 203.942 476.381 201.595 476.416 199.943L476.532 196.876C477.22 194.622 476.96 189.87 476.906 187.388C477.904 187.179 477.446 187.395 478.235 186.554C478.759 184.587 478.48 183.053 478.281 181.046Z" fill="#13151F"/>
<path d="M479.317 196.957C478.322 195.069 478.136 188.444 480.359 187.163C481.563 187.575 481.144 187.258 481.855 188.452L479.317 196.957Z" fill="#3E4350"/>
<path d="M389.283 62.3624C394.848 62.1226 408.61 63.7506 413.919 65.7377L414.132 66.2141C412.648 66.5188 405.497 65.3871 403.056 65.2402C391.813 64.4948 380.527 65.7929 369.747 69.071C341.751 77.7108 323.544 97.0062 310.241 122.301C308.819 125.142 303.991 140.181 302.562 140.813L302.379 140.162C313.254 96.6992 342.712 64.5383 389.283 62.3624Z" fill="#3E4350"/>
<path d="M303.293 186.43C303.764 187.976 299.006 206.474 298.574 210.192C294.189 247.946 294.179 295.037 324.301 322.771C326.864 325.131 330.52 327.02 333.373 329.251L333.237 329.586L331.696 329.162C309.707 319.351 299.347 295.077 295.159 272.706C290.579 248.236 293.24 222.486 299.329 198.502C299.993 195.886 301.991 188.396 303.293 186.43Z" fill="#3E4350"/>
<path d="M508.325 217.86L508.908 218.355C509.848 221.592 510.058 224.755 510.711 228.006C517.606 262.32 514.733 298.53 487.249 323.027C486.506 323.84 486.475 323.937 485.48 324.327C485.842 323.346 491.718 316.572 493.063 314.701C495.915 310.706 498.449 306.491 500.637 302.095C513.478 276.114 509.879 245.53 508.325 217.86Z" fill="#3E4350"/>
<path d="M286.227 213.249C287.125 217.286 284.008 232.824 283.785 238.042C282.975 256.92 283.351 275.383 289.56 293.464C290.897 297.359 293.805 303.256 294.447 307.054L294.179 307.194L293.456 306.034C291.543 303.158 289.814 300.163 288.282 297.067C276.515 273.417 277.945 237.896 286.227 213.249Z" fill="#3E4350"/>
<path d="M396.483 76.7266C399.503 76.4806 402.542 76.619 405.527 77.1378C401.225 78.3915 396.476 78.5007 392.146 79.3876C372.292 83.457 351.655 92.9137 335.896 105.771C333.491 107.733 329.679 110.967 327.96 113.341C326.313 114.909 324.405 117.246 322.883 119.007C324.634 114.734 328.131 110.391 331.185 106.935C347.266 88.7328 372.371 78.0344 396.483 76.7266Z" fill="#3E4350"/>
<path d="M495.674 250.546C497.513 252.119 496.665 263.645 496.401 266.192C494.131 288.059 486.557 304.879 469.348 318.823L468.605 318.628C468.8 317.639 473.452 312.479 474.528 311.096C477.299 307.562 479.81 303.834 482.045 299.938C489.95 285.992 493.995 266.375 495.674 250.546Z" fill="#3E4350"/>
<path d="M443.18 100.064C443.122 100.031 451.163 111.873 451.734 112.927C459.608 127.376 491.123 149.885 490.552 166.126C488.371 162.808 487.466 157.532 483.404 152.965C478.846 147.844 474.559 144.026 469.666 139.489C460.692 131.166 445.391 112.329 443.18 100.064Z" fill="#3E4350"/>
<path d="M448.531 78.9617C453.968 78.2929 464.613 84.9732 468.768 88.4958C478.208 96.5079 485.044 107.88 488.499 119.727C489.424 122.899 490.644 125.828 490.963 129.175C489.646 128.279 486.645 119.482 485.51 117.339C475.11 97.7212 467.61 89.0468 448.531 78.9617Z" fill="#3E4350"/>
<path d="M454.387 94.7412C456.792 94.9495 460.209 97.3027 462.125 98.6773C471.456 105.371 482.594 122.121 484.265 133.424C482.629 132.584 469.283 108.759 465.144 106.138C465.109 106.117 454.795 95.2748 454.387 94.7412Z" fill="#3E4350"/>
<path d="M293.382 330.34C298.354 333.664 301.366 335.517 306.819 338.098L310.196 339.285C309.265 341.206 307.723 344.503 306.722 346.18C302.268 353.641 299.499 356.042 309.724 359.517C314.119 361.01 318.318 364.543 322.928 366.588C321.525 367.763 319.482 369.611 317.807 370.172L317.464 370.473C314.837 372.748 301.366 380.846 301.143 383.143C301.043 384.166 301.541 385.393 301.886 386.337C303.966 392.465 305.763 398.877 307.574 405.107C312.962 423.637 319.869 441.55 326.094 459.761L320.161 459.812L274.025 459.777C273.801 455.109 271.408 420.233 268.811 419.413C267.534 421.337 269.231 430.901 269.551 434.072C270.396 442.626 271.111 451.192 271.697 459.765L217.805 459.75C219.275 454.208 220.192 446.59 221.29 440.745C224.167 424.733 227.379 408.784 230.924 392.908C232.837 384.567 234.608 375.961 237.638 367.977C240.701 359.903 242.978 352.73 251.371 348.862C255.963 359.106 258.79 370.102 260.879 381.092C261.155 382.544 261.539 384.342 262.825 385.178L263.277 384.933C264.044 380.565 255.545 353.926 253.601 348.529C257.794 346.245 264.506 343.505 268.969 341.506L293.382 330.34Z" fill="#264C56"/>
<path d="M301.884 386.336C303.964 392.464 305.76 398.877 307.572 405.107C312.96 423.637 319.866 441.549 326.092 459.761L320.159 459.811C318.88 455.26 315.686 447.118 314.036 442.342C309.9 430.407 305.87 418.433 301.945 406.428C300.828 403.012 297.276 393.238 297.435 390.125C298.21 388.608 300.414 387.343 301.884 386.336Z" fill="#163741"/>
<path d="M306.82 338.098L310.197 339.285C309.266 341.206 307.724 344.503 306.723 346.179C302.268 353.641 299.499 356.042 309.724 359.517C314.12 361.01 318.319 364.543 322.928 366.588C321.526 367.763 319.482 369.611 317.808 370.172C314.338 367.915 298.543 361.034 297.58 358.179C296.6 355.272 304.882 341.938 306.82 338.098Z" fill="#163741"/>
<path d="M503.099 330.262C510.961 333.612 518.905 337.37 526.616 341.07C531.171 343.255 538.897 346.216 543.04 348.732C540.863 353.368 533.398 378.941 533.518 383.897L533.895 384.349C536.946 381.421 541.174 351.28 545.873 349.336C548.889 349.785 551.979 353.951 553.727 356.321C564.073 370.347 574.776 439.132 578.775 459.706L524.987 459.753C525.368 452.831 525.916 445.918 526.631 439.023C527.008 435.568 529.014 421.457 528.128 419.494L527.447 419.374C525.796 420.87 525.881 426.019 525.664 428.355C524.766 438.048 523.126 448.622 522.694 458.288C522.675 458.785 522.663 459.283 522.659 459.776H476.442L470.473 459.846C473.356 451.312 476.92 442.622 479.882 433.916C485.28 418.045 489.843 402.316 494.829 386.379C495.311 385.078 495.567 383.674 495.866 382.313L479.163 370.347C477.888 369.423 475.117 368.286 474.581 366.789C477.072 363.835 491.945 357.606 494.024 355.305C494.397 353.126 487.985 341.828 486.562 338.981C487.701 338.619 488.836 338.25 489.971 337.874C495.233 335.482 498.385 333.639 503.099 330.262Z" fill="#264C56"/>
<path d="M494.829 386.379C496.251 387.401 498.369 388.827 499.597 389.985C492.575 412.957 484.977 437.387 476.442 459.776L470.473 459.846C473.356 451.312 476.92 442.622 479.882 433.917C485.28 418.045 489.843 402.316 494.829 386.379Z" fill="#163741"/>
<path d="M486.564 338.982C487.703 338.62 488.837 338.251 489.972 337.875C492.72 343.832 497.97 351.416 500.081 356.996C496.455 361.243 485.079 366.271 479.164 370.348C477.889 369.423 475.118 368.287 474.582 366.79C477.073 363.836 491.947 357.606 494.026 355.305C494.399 353.127 487.986 341.829 486.564 338.982Z" fill="#163741"/>
<path d="M483.239 340.137C483.745 340.03 483.737 340.126 484.32 340.288C486.073 342.472 490.468 351.578 491.684 354.356C488.7 356.1 471.223 365.175 470.523 366.535C472.315 368.997 489.632 380.781 493.523 383.557C491.327 388.38 488.268 401.026 486.29 406.941C480.655 423.781 475.362 441.281 468.642 457.724C468.385 458.377 468.117 458.902 467.81 459.531C465.218 460.348 443.924 459.757 439.82 459.734C440.384 449.656 442.564 438.607 443.722 428.526C447.072 399.386 449.801 370.8 450.963 341.455C461.083 342.415 473.391 342.936 483.239 340.137Z" fill="#264C56"/>
<path d="M312.346 339.972C323.007 344.25 335.074 343.781 346.13 341.634C346.767 381.246 351.978 420.586 357.353 459.792L328.775 459.796C326.752 454.052 324.293 448.109 322.21 442.253C318.015 430.182 313.987 418.048 310.126 405.865C307.777 398.465 305.254 390.824 303.43 383.305C306.444 381.015 326.346 368.386 325.957 365.96C323.472 363.958 308.393 356.166 304.886 354.413C306.63 350.404 310.207 343.799 312.346 339.972Z" fill="#264C56"/>
<path d="M348.164 346.801L352.782 351.457L355.544 353.663C356.928 354.479 359.009 355.626 360.213 356.574C361.164 356.929 365.502 358.992 365.737 359.049L366.865 359.972C370.446 361.013 374.995 361.989 378.25 363L380.606 363.464C381.672 366.259 382.593 369.107 383.366 371.997C384.443 374.713 386.42 379.219 386.552 382.012C386.249 382.53 386.136 382.803 385.7 383.215C388.633 384.016 388.964 387.192 389.641 389.912C390.418 391.354 390.674 392.411 391.133 393.973C391.681 395.411 392.245 396.845 392.726 398.306L393.706 400.832L394.646 403.728L394.887 404.497C395.462 406.289 395.859 407.478 396.628 409.188C397.406 411.897 397.285 413.572 397.254 416.374C397.227 417.901 397.246 419.775 397.052 421.248C397.363 423.078 397.188 424.605 397.071 426.451L397.099 428.604C397.363 433.952 397.277 439.673 397.289 445.055L397.316 447.446L397.219 449.198C397.211 450.205 397.254 451.961 397.188 452.906C397.515 455.545 397.787 457.088 397.386 459.773L392.384 459.866L390.119 459.75L389.936 459.816C388.11 460.515 387.165 460.356 385.419 459.676L382.865 459.929L381.327 459.998C379 460.333 370.106 460.387 367.548 460.103C365.005 460.135 362.271 460.002 359.715 459.929L359.052 455.999C358.821 454.686 358.77 453.438 358.69 452.109L358.25 449.097C357.977 446.454 357.735 444.783 357.229 442.164C356.76 439.416 356.516 437.574 356.295 434.78C355.755 433.101 355.209 427.683 355.071 425.806L354.635 422.736C354.36 422.215 354.207 417.622 354.163 416.739L353.748 414.598C353.485 411.839 353.041 408.807 352.691 406.036C352.284 405.391 352.475 404.221 352.516 403.394C351.813 397.214 351.307 390.821 350.673 384.606L350.455 382.218C350.246 380.904 350.284 379.226 350.265 377.868L350.04 376.195C349.709 375.497 348.983 366.758 348.877 365.392C348.431 363.958 348.517 356.436 348.456 354.31L348.164 346.801Z" fill="#F2CDB7"/>
<path d="M365.393 370.06C367.65 372.578 375.348 380.275 377.906 382.259L378.065 411.831C373.587 415.814 369.441 420.555 365.075 424.469C363.568 422.926 355.245 414.046 353.996 413.941L353.748 414.598C353.484 411.838 353.04 408.807 352.69 406.036C352.283 405.391 352.474 404.221 352.515 403.393C351.812 397.214 351.306 390.821 350.672 384.606C351.805 384.314 363.753 371.859 365.393 370.06Z" fill="#B99159"/>
<path d="M364.293 391.458C362.357 389.538 357.936 385.052 361.236 382.427L362.3 383.532C363.786 380.832 362.989 380.428 365.291 377.226C368.987 384.325 372.215 384.789 366.076 391.392L366.125 397.505C368.718 392.511 369.503 391.851 374.124 388.749C371.7 395.434 371.658 395.788 365.936 400.113C365.774 403.817 365.928 407.894 366.173 411.59L366.598 411.776C365.78 412.083 365.181 412.468 364.436 412.312L364.39 412.266C364.234 408.317 364.255 404.272 364.234 400.311C363.211 399.48 362.195 398.636 361.185 397.785C359.727 396.549 355.704 392.329 357.459 390.475C360.282 390.922 362.926 395.139 364.179 397.463L364.293 391.458Z" fill="#282C37"/>
<path d="M367.579 404.913C370.903 401.174 371.619 401.085 375.89 398.963C375.559 400.253 375.261 401.427 374.841 402.698C375.535 403.355 375.792 403.417 376.677 403.825C376.942 407.917 368.845 410.816 366.18 413.972C366.169 415.717 366.288 417.52 365.671 419.137L365.202 419.226C362.758 415.593 364.475 414.4 361.996 411.858L363.167 411.182L364.389 412.266L364.435 412.313C365.18 412.468 365.78 412.083 366.598 411.776L366.173 411.59C367.225 409.487 367.048 407.148 367.579 404.913Z" fill="#3E4350"/>
<path d="M352.518 403.393L354.557 403.37C354.993 401.256 353.779 400.696 354.627 399.309C357.242 399.631 360.555 402.624 362.301 404.567C362.612 406.77 362.901 408.974 363.168 411.181L361.997 411.858C357.665 409.88 356.459 409.079 353.155 405.636L352.693 406.036C352.286 405.391 352.477 404.221 352.518 403.393Z" fill="#3E4350"/>
<path d="M365.215 432.203C369.207 428.021 373.881 423.21 378.139 419.304C378.107 425.592 378.12 431.876 378.178 438.164L377.968 439.295L378.098 440.504C378.509 445.276 378.499 453.309 377.659 458.004C378.111 459.609 377.723 459.119 379.045 459.901C380.249 459.621 380.03 459.862 380.687 459.088L381.329 459.998C379.001 460.332 370.108 460.386 367.549 460.103C365.006 460.134 362.272 460.002 359.716 459.928L359.053 455.999C358.822 454.685 358.771 453.438 358.691 452.108L358.251 449.097C357.978 446.454 357.737 444.783 357.23 442.163C356.761 439.416 356.518 437.573 356.297 434.779C355.757 433.1 355.211 427.683 355.073 425.806L354.637 422.735L355.021 422.296C357.073 423.388 363.242 430.135 365.215 432.203Z" fill="#3E4350"/>
<path d="M358.691 452.109C361.158 449.715 363.001 447.788 365.279 445.211C367.363 447.348 376.301 456.19 377.659 458.005C378.111 459.61 377.724 459.12 379.045 459.901C380.25 459.622 380.031 459.863 380.688 459.089L381.329 459.999C379.001 460.333 370.108 460.387 367.549 460.104C365.006 460.135 362.273 460.002 359.717 459.929L359.054 455.999C358.822 454.686 358.771 453.438 358.691 452.109Z" fill="#3E4350"/>
<path d="M365.182 449.913C368.247 453.139 371.651 456.862 374.903 459.823C372.974 459.839 369.307 459.753 367.546 460.103C365.004 460.134 362.27 460.002 359.714 459.928L359.051 455.999C361.199 453.951 363.151 452.082 365.182 449.913Z" fill="#B99159"/>
<path d="M364.829 456.854C365.786 457.072 367.25 458.518 367.461 459.536L366.587 459.765C365.199 459.793 364.557 459.843 363.163 459.544C363.101 458.483 363.957 457.904 364.829 456.854Z" fill="#F2CDB7"/>
<path d="M365.215 432.203C369.207 428.021 373.881 423.21 378.139 419.304C378.107 425.592 378.12 431.876 378.178 438.164L377.788 438.094L377.85 423.089C374.093 427.205 369.276 431.927 365.202 435.778C362.109 433.026 358.358 428.872 355.073 425.806L354.637 422.735L355.021 422.296C357.073 423.388 363.242 430.135 365.215 432.203Z" fill="#B99159"/>
<path d="M377.874 454.72C377.878 450.539 377.712 444.526 378.097 440.504C378.508 445.276 378.497 453.309 377.658 458.004C376.3 456.189 367.362 447.348 365.277 445.21C363 447.787 361.156 449.715 358.69 452.109L358.25 449.097C359.695 447.258 363.457 443.621 365.268 441.728C369.352 446.081 373.693 450.434 377.874 454.72Z" fill="#E9BB7C"/>
<path d="M374.084 434.574C375.481 436.137 376.088 436.891 377.786 438.095L378.176 438.165L377.966 439.296C376.873 439.436 374.871 442.013 374.096 442.93C372.828 441.838 371.167 439.996 369.969 438.744C371.408 437.116 372.488 436.059 374.084 434.574Z" fill="#F2CDB7"/>
<path d="M356.297 434.779C358.118 435.708 359.158 437.212 360.45 438.786C359.41 439.859 358.203 441.052 357.231 442.163C356.761 439.416 356.518 437.574 356.297 434.779Z" fill="#F2CDB7"/>
<path d="M392.727 398.307L393.706 400.833L394.647 403.728L394.888 404.498C395.463 406.289 395.859 407.478 396.629 409.188C397.406 411.897 397.285 413.572 397.254 416.374C397.227 417.902 397.247 419.775 397.052 421.248C397.363 423.078 397.188 424.606 397.072 426.452L397.099 428.605C397.363 433.952 397.278 439.673 397.289 445.056L397.317 447.446L397.219 449.199L396.376 449.327C395.113 448.763 386.938 440.446 385.381 438.876C385.56 437.143 385.524 436.622 385.365 434.889C385.204 433.486 385.007 431.749 385.578 430.482C385.577 429.732 385.438 428.721 385.359 427.956C384.845 425.978 385.08 421.481 385.257 419.413L386.004 417.886C384.842 416.359 385.094 415.434 385.53 413.697L385.35 409.48C385.071 407.238 384.74 406.305 386.021 404.579C388.164 402.469 390.107 400.561 392.381 398.583L392.727 398.307Z" fill="#F2CDB7"/>
<path d="M385.53 413.696C388.13 416.269 393.593 421.924 396.267 423.956C393.209 427.244 387.796 431.881 385.365 434.889C385.204 433.486 385.007 431.748 385.578 430.482C385.577 429.731 385.438 428.721 385.359 427.955C384.845 425.977 385.08 421.481 385.257 419.413L386.004 417.886C384.842 416.358 385.094 415.433 385.53 413.696Z" fill="#282C37"/>
<path d="M385.257 419.413L386.004 417.886C388.145 419.876 390.181 421.764 392.214 423.867C390.03 426.222 387.504 428.371 385.578 430.481C385.577 429.731 385.438 428.721 385.359 427.955C384.845 425.977 385.08 421.481 385.257 419.413Z" fill="#F2CDB7"/>
<path d="M385.359 427.955C384.845 425.977 385.08 421.481 385.257 419.413C386.504 420.773 388.137 422.67 389.501 423.828L385.359 427.955Z" fill="#B99159"/>
<path d="M394.887 404.497C395.462 406.289 395.858 407.478 396.628 409.188C397.405 411.897 397.285 413.572 397.254 416.374C397.226 417.901 397.246 419.774 397.052 421.247C396.107 420.493 395.913 420.322 395.19 419.359C393.83 418.387 390.414 415.138 389.528 413.754L388.797 411.8C390.717 408.865 392.889 407.676 394.887 404.497Z" fill="#B99159"/>
<path d="M393.617 412.281C394.6 411.103 395.366 410.062 396.629 409.188C397.406 411.896 397.286 413.571 397.255 416.373C395.502 414.803 395.032 414.189 393.617 412.281Z" fill="#E9BB7C"/>
<path d="M388.797 411.8C391.16 414.054 393.935 416.343 395.19 419.359C393.83 418.387 390.414 415.138 389.528 413.755L388.797 411.8Z" fill="#A3845E"/>
<path d="M397.098 428.604C397.363 433.952 397.277 439.673 397.289 445.056C394.316 442.18 391.754 439.716 388.578 437.085C391.074 434.372 394.424 431.232 397.098 428.604Z" fill="#B99159"/>
<path d="M397.074 426.451L397.101 428.604C394.427 431.231 391.077 434.372 388.581 437.084C391.757 439.715 394.318 442.179 397.292 445.055L397.319 447.445C393.191 444.169 390.175 440.193 385.758 437.01C389.694 433.843 393.184 429.836 397.074 426.451Z" fill="#3E4350"/>
<path d="M392.728 398.307L393.707 400.833C390.959 403.751 388.172 406.631 385.351 409.48C385.071 407.238 384.741 406.305 386.022 404.579C388.165 402.469 390.108 400.561 392.382 398.583L392.728 398.307Z" fill="#282C37"/>
<path d="M394.645 403.728L394.886 404.497C392.889 407.676 390.716 408.865 388.796 411.8L389.527 413.754L386.949 411.458L394.645 403.728Z" fill="#544E4B"/>
<path d="M383.368 371.996C384.446 374.712 386.423 379.218 386.554 382.012C386.251 382.529 386.139 382.802 385.702 383.214C388.636 384.015 388.967 387.191 389.643 389.911C390.42 391.353 390.677 392.41 391.135 393.972C391.683 395.41 392.247 396.844 392.729 398.306L392.383 398.582C390.109 400.56 388.166 402.468 386.023 404.578C384.742 406.304 385.072 407.236 385.352 409.479L385.532 413.696C385.096 415.433 384.844 416.358 386.006 417.885L385.259 419.412C385.082 421.48 384.847 425.977 385.361 427.955C385.44 428.72 385.579 429.731 385.58 430.481C385.009 431.748 385.206 433.485 385.367 434.888C385.526 436.621 385.562 437.142 385.383 438.875C386.94 440.445 395.115 448.762 396.378 449.326L397.221 449.198C397.214 450.204 397.256 451.961 397.19 452.905C397.517 455.544 397.789 457.087 397.389 459.772L392.387 459.866L390.121 459.749L389.938 459.815C388.112 460.515 387.168 460.355 385.421 459.675L382.868 459.928C382.971 450.803 382.186 374.821 383.368 371.996Z" fill="#E9BB7C"/>
<path d="M385.38 438.876C386.936 440.446 395.111 448.763 396.375 449.326L397.218 449.198C397.21 450.205 397.253 451.961 397.187 452.906C397.513 455.545 397.785 457.087 397.385 459.773L392.383 459.866L390.117 459.75L389.935 459.816C388.109 460.515 387.164 460.356 385.418 459.676C385.114 457.775 385.135 457.348 386.029 455.918L385.321 454.336C384.984 452.23 384.906 447.912 385.521 445.914C385.519 444.694 385.538 444.538 386.029 443.423L385.584 443.182C385.01 441.872 385.285 440.364 385.38 438.876Z" fill="#282C37"/>
<path d="M396.378 449.327L397.221 449.198C397.213 450.205 397.256 451.961 397.19 452.906C397.516 455.545 397.788 457.088 397.388 459.773L392.386 459.866L390.12 459.75L389.938 459.816C388.997 459.847 388.214 459.979 387.395 459.544C387.495 457.348 396.036 451.942 396.378 449.327Z" fill="#F2CDB7"/>
<path d="M390.117 459.749C391.746 457.783 395.17 454.409 397.187 452.905C397.513 455.544 397.785 457.087 397.385 459.772L392.383 459.866L390.117 459.749Z" fill="#3E4350"/>
<path d="M397.116 454.864C397.186 456.5 397.276 458.137 397.389 459.773L392.387 459.866C393.93 458.44 395.667 456.438 397.116 454.864Z" fill="#B99159"/>
<path d="M385.521 445.914C385.519 444.694 385.538 444.538 386.029 443.423C388.063 445.626 390.654 447.624 392.356 449.75C390.308 451.81 388.168 453.963 386.029 455.918L385.321 454.336C384.984 452.229 384.906 447.912 385.521 445.914Z" fill="#F2CDB7"/>
<path d="M385.321 454.336C384.984 452.229 384.906 447.912 385.521 445.914L389.838 449.894C387.787 451.588 387.052 452.315 385.321 454.336Z" fill="#B99159"/>
<path d="M385.6 386.056L385.09 385.13C385.115 383.751 384.917 384.231 385.7 383.215C388.633 384.016 388.964 387.192 389.641 389.912C390.418 391.354 390.674 392.411 391.133 393.973C391.681 395.411 392.244 396.845 392.726 398.306L392.38 398.582C390.107 400.56 388.164 402.469 386.02 404.579L385.145 402.912C385.079 400.934 384.737 396.48 385.609 394.972C385.512 393.798 385.507 393.647 385.996 392.582C385.894 392.512 385.409 391.89 385.293 391.746C385.139 390.3 385.14 390.118 385.584 388.734C385.193 387.493 385.246 387.32 385.6 386.056Z" fill="#F2CDB7"/>
<path d="M385.601 386.056L385.091 385.13C385.116 383.751 384.918 384.231 385.701 383.215C388.634 384.016 388.965 387.192 389.642 389.912C390.419 391.354 390.675 392.411 391.134 393.973C388.775 392.014 387.665 390.981 385.585 388.734C385.194 387.493 385.247 387.32 385.601 386.056Z" fill="#F2CDB7"/>
<path d="M385.601 386.056L385.091 385.13C385.116 383.751 384.918 384.231 385.701 383.215C388.634 384.016 388.965 387.192 389.642 389.912C388.071 388.8 386.911 387.458 385.601 386.056Z" fill="#B99159"/>
<path d="M385.583 388.734C387.662 390.981 388.773 392.014 391.132 393.973C391.68 395.411 392.243 396.845 392.725 398.306L392.379 398.582C391.656 397.657 387.127 393.62 385.995 392.582C385.893 392.512 385.407 391.89 385.292 391.746C385.138 390.301 385.139 390.118 385.583 388.734Z" fill="#3E4350"/>
<path d="M385.145 402.912C385.079 400.933 384.737 396.48 385.609 394.972L389.485 398.539C387.425 400.261 386.749 400.805 385.145 402.912Z" fill="#B99159"/>
<path d="M348.164 346.801L352.782 351.457L355.544 353.663C356.928 354.479 359.009 355.626 360.213 356.574C361.164 356.929 365.502 358.992 365.737 359.049L366.865 359.972C370.446 361.013 374.995 361.989 378.25 363L378.081 363.446C378.049 367.713 378.341 375.04 378.135 378.817L377.827 379.05L377.703 378.807C375.436 376.769 367.352 368.816 365.79 366.579C360.799 371.766 355.643 377.275 350.455 382.218C350.246 380.904 350.284 379.226 350.265 377.868L350.04 376.195C349.709 375.497 348.983 366.758 348.877 365.392C348.431 363.958 348.517 356.436 348.456 354.31L348.164 346.801Z" fill="#B99159"/>
<path d="M348.164 346.801L352.782 351.457L355.544 353.663C356.928 354.479 359.009 355.626 360.213 356.574C361.164 356.929 365.502 358.992 365.737 359.049C363.075 361.426 349.993 373.418 350.04 376.195C349.709 375.497 348.983 366.758 348.877 365.392C348.431 363.958 348.517 356.436 348.456 354.31L348.164 346.801Z" fill="#3E4350"/>
<path d="M355.545 353.663C356.929 354.48 359.01 355.626 360.214 356.574L356.807 360.116C355.275 358.525 354.346 357.798 352.582 356.438C353.444 355.558 354.622 354.52 355.545 353.663Z" fill="#F2CDB7"/>
<path d="M348.164 346.801L352.782 351.457C352.311 352.716 352.181 353.548 351.084 354.254C349.862 354.502 349.691 354.496 348.456 354.31L348.164 346.801Z" fill="#544E4B"/>
<path d="M348.875 365.392C348.936 363.754 348.822 362.196 349.65 360.812C351.296 360.02 351.896 361.23 352.888 362.462C353.325 363.556 353.245 363.738 352.915 364.885C352.128 365.783 352.071 365.779 350.879 366.1L348.875 365.392Z" fill="#E9BB7C"/>
<path d="M365.9 362.185L366.186 362.564C369.452 366.833 374.825 370.677 377.712 375.283C378.007 375.753 377.769 378.1 377.703 378.807C375.436 376.769 367.353 368.816 365.791 366.579C360.8 371.766 355.643 377.275 350.456 382.218C350.247 380.903 350.285 379.226 350.266 377.868C355.293 373.186 361.266 367.258 365.9 362.185Z" fill="#282C37"/>
<path d="M366.867 359.973C370.448 361.013 374.997 361.99 378.252 363.001L378.083 363.446C377.547 365.142 377.754 368.906 377.774 370.84C374.626 368.08 369.822 363.004 366.867 359.973Z" fill="#282C37"/>
<path d="M380.605 363.464C381.671 366.259 382.592 369.107 383.365 371.996C382.183 374.821 382.968 450.803 382.865 459.928L381.327 459.998L380.685 459.089C380.333 456.255 380.462 450.169 380.46 447.134L380.464 426.241C380.474 405.531 380.182 384.114 380.605 363.464Z" fill="#3E4350"/>
<path d="M365.146 428.142C366.751 426.211 376.166 415.993 377.964 415.644C378.183 417.132 378.164 417.839 378.139 419.305C373.881 423.21 369.206 428.022 365.214 432.203C363.242 430.136 357.073 423.389 355.021 422.297L354.636 422.736C354.361 422.215 354.208 417.622 354.164 416.74C357.527 420.233 362.146 424.551 365.146 428.142Z" fill="#282C37"/>
<path d="M448.378 346.935C448.366 348.298 448.285 349.694 448.226 351.059C447.997 354.782 447.822 358.509 447.706 362.238L447.748 364.349C447.651 366.135 447.367 368.004 447.305 369.72C447.154 371.758 446.893 374.275 446.94 376.28C446.718 379.875 446.058 384.896 445.397 388.418C445.413 389.709 445.059 396.487 444.76 397.443L444.204 401.431C444.13 402.826 444.079 404.384 443.955 405.76L443.446 408.776C443.419 410.202 443.361 415.954 442.898 416.91C442.428 419.549 441.891 422.153 441.748 424.827C441.394 427.244 440.978 434.302 440.535 435.969L439.758 441.379C439.684 442.307 439.521 445.102 439.319 445.848L438.607 450.582C437.958 454.297 437.651 456.434 437.69 460.309C436.454 460.255 433.438 460.231 432.44 459.87C430.446 460.092 428.534 460.235 426.575 459.804L426.26 459.8C424.523 460.15 418.184 460.562 416.622 459.897L416.315 459.823L413.909 460.119C412.153 460.196 408.651 460.48 407.104 459.963C404.341 459.866 403.82 460.329 400.579 459.823L399.875 459.524C399.292 458.234 399.502 456.244 399.541 454.752L399.498 452.451L399.537 450.578L399.471 447.511L399.514 445.545L399.576 428.254L399.537 426.272L399.533 421.36L399.479 416.401C399.394 413.708 399.246 411.695 400.26 409.192C400.773 408.1 401.457 405.69 401.85 404.439L402.114 403.623L402.965 400.828C403.459 399.491 403.525 399.309 404.527 398.306L404.632 398.081C404.574 396.312 405.037 395.279 405.6 393.604C406.028 392.282 406.35 391.132 407.042 389.915L409.09 384.096L409.615 383.897L410.909 384.933C411.449 384.37 411.278 384.57 411.259 383.508C410.392 382.35 409.914 381.944 410.314 380.501C411.162 377.423 412.429 374.354 413.571 371.369C413.443 369.889 415.246 365.96 416.288 364.754L416.564 363.737L417.772 363.295C419.44 362.828 421.352 362.442 423.058 362.058L427.978 360.46C432.35 358.445 435.642 356.956 439.851 354.537L440.376 354.157L442.276 352.733C444.511 350.735 446.31 349.116 448.378 346.935Z" fill="#3E4350"/>
<path d="M413.571 371.369C414.205 375.019 413.839 394.291 413.832 399.25L413.909 460.119C412.153 460.196 408.651 460.48 407.104 459.963C404.341 459.866 403.82 460.328 400.579 459.823L399.875 459.524C399.292 458.234 399.502 456.244 399.541 454.751L399.498 452.451L399.537 450.578L399.471 447.511L399.514 445.545L399.576 428.254L399.537 426.272L399.533 421.36L399.479 416.401C399.394 413.708 399.246 411.694 400.26 409.192C400.773 408.1 401.457 405.69 401.85 404.439L402.114 403.622L402.965 400.828C403.459 399.491 403.525 399.309 404.527 398.306L404.632 398.081C404.574 396.312 405.037 395.278 405.6 393.603C406.028 392.282 406.35 391.132 407.042 389.915L409.09 384.096L409.615 383.896L410.909 384.933C411.449 384.37 411.278 384.57 411.259 383.508C410.392 382.35 409.914 381.944 410.314 380.501C411.162 377.423 412.429 374.353 413.571 371.369Z" fill="#E9BB7C"/>
<path d="M402.965 400.829C403.459 399.492 403.525 399.309 404.527 398.307C406.603 400.561 408.74 402.321 410.816 404.482L411.511 405.127C411.531 406.557 411.698 407.871 411.138 409.15C411.535 410.471 411.403 411.474 411.356 412.849C411.515 414.746 411.896 416.308 410.684 417.773C410.893 418.523 411.072 419.04 411.181 419.818C411.729 421.123 411.795 426.572 411.158 427.792C411.099 428.492 411.088 429.514 410.781 430.093C411.783 431.558 411.842 433.128 411.15 434.8C411.037 435.585 411.022 436.214 410.618 436.89L410.513 437.248C406.482 440.598 403.268 444.329 399.471 447.512L399.514 445.545L399.576 428.255L399.537 426.273L399.533 421.361L399.479 416.402C399.394 413.708 399.246 411.695 400.26 409.192C400.773 408.1 401.457 405.691 401.85 404.439L402.114 403.623L402.965 400.829Z" fill="#F2CDB7"/>
<path d="M411.354 412.849C411.514 414.745 411.895 416.307 410.682 417.773C410.892 418.523 411.071 419.04 411.18 419.817C411.728 421.123 411.794 426.571 411.156 427.792C411.098 428.491 411.086 429.513 410.779 430.092C411.782 431.558 411.84 433.128 411.149 434.799C408.261 431.355 403.741 427.562 400.453 423.917C403.267 421.391 409.104 415.693 411.354 412.849Z" fill="#42444B"/>
<path d="M410.683 417.772C410.893 418.523 411.072 419.039 411.181 419.817C411.729 421.123 411.795 426.571 411.158 427.792C411.099 428.491 411.088 429.513 410.781 430.092C409.42 428.46 406.346 425.821 404.531 423.831C406.564 421.791 408.612 419.774 410.683 417.772Z" fill="#F2CDB7"/>
<path d="M411.18 419.817C411.728 421.123 411.795 426.572 411.157 427.792L407.5 423.879C408.577 422.872 410.154 420.976 411.18 419.817Z" fill="#B99159"/>
<path d="M399.535 426.272C402.415 429.04 408.217 434.236 410.615 436.89L410.51 437.248C406.48 440.598 403.266 444.329 399.469 447.511L399.511 445.545L399.574 428.254L399.535 426.272Z" fill="#B99159"/>
<path d="M399.535 426.272C402.415 429.04 408.217 434.236 410.615 436.89L410.51 437.248C406.48 440.598 403.266 444.329 399.469 447.511L399.511 445.545C402.477 442.362 404.937 439.451 408.567 437.03C405.003 434.104 402.788 431.535 399.574 428.254L399.535 426.272Z" fill="#3E4350"/>
<path d="M401.85 404.438C403.478 406.44 407.011 410.905 409.409 411.438C408.88 412.623 400.824 420.306 399.533 421.36L399.479 416.401C399.394 413.707 399.246 411.694 400.26 409.191C400.773 408.099 401.457 405.69 401.85 404.438Z" fill="#B99159"/>
<path d="M400.26 409.191C401.512 410.614 402.075 411.201 403.521 412.417C402.262 413.754 400.909 415.285 399.479 416.401C399.394 413.707 399.246 411.694 400.26 409.191Z" fill="#E9BB7C"/>
<path d="M402.965 400.829C403.458 399.492 403.524 399.309 404.527 398.307C406.603 400.561 408.74 402.321 410.815 404.482L411.511 405.127C411.53 406.557 411.698 407.871 411.138 409.15C408.635 406.359 405.627 403.685 402.965 400.829Z" fill="#282C37"/>
<path d="M402.112 403.623C404.215 405.636 408.027 409.01 409.407 411.439C407.009 410.906 403.476 406.441 401.848 404.439L402.112 403.623Z" fill="#544E4B"/>
<path d="M410.51 437.248C410.689 437.656 411.093 438.496 411.167 438.884C411.594 439.961 411.956 442.425 410.996 443.303C411.093 443.917 411.229 445.036 411.365 445.596C411.625 447.174 411.87 452.615 411.116 453.886L411.054 456.256C411.758 457.333 411.66 458.048 411.723 459.292C412.515 460.003 412.799 459.948 413.907 460.119C412.15 460.197 408.648 460.481 407.102 459.964C404.338 459.867 403.818 460.329 400.576 459.824L399.873 459.525C399.29 458.234 399.5 456.245 399.539 454.752L399.496 452.451L399.535 450.578L399.469 447.512C403.266 444.329 406.48 440.598 410.51 437.248Z" fill="#44454E"/>
<path d="M399.899 450.084C401.881 450.927 407.885 457.371 409.751 459.302L409.794 459.66C408.818 459.808 408.087 459.905 407.104 459.963C404.341 459.866 403.82 460.328 400.579 459.823L399.875 459.524C399.292 458.234 399.502 456.244 399.541 454.752L399.498 452.451L399.537 450.578L399.899 450.084Z" fill="#F3DCC7"/>
<path d="M399.498 452.451C401.912 454.709 404.889 457.519 407.104 459.964C404.341 459.866 403.82 460.329 400.579 459.824L399.875 459.524C399.292 458.234 399.502 456.244 399.541 454.752L399.498 452.451Z" fill="#544E4B"/>
<path d="M399.541 454.752C400.948 455.203 403.035 458.149 404.329 459.567C402.918 459.727 401.997 459.793 400.579 459.824L399.875 459.524C399.292 458.234 399.502 456.244 399.541 454.752Z" fill="#B99159"/>
<path d="M404.543 449.599C405.787 448.13 409.292 445.079 410.998 443.303C411.095 443.917 411.231 445.036 411.367 445.596C411.628 447.174 411.873 452.614 411.119 453.885L411.057 456.256C408.919 454.192 406.638 451.744 404.543 449.599Z" fill="#F2CDB7"/>
<path d="M411.367 445.596C411.627 447.174 411.872 452.614 411.118 453.885C410.034 452.307 408.782 451.06 407.473 449.676L411.367 445.596Z" fill="#B99159"/>
<path d="M410.51 437.248C410.689 437.656 411.093 438.496 411.167 438.884C408.155 441.912 402.488 447.084 399.896 450.085L399.535 450.578L399.469 447.512C403.266 444.329 406.48 440.598 410.51 437.248Z" fill="#F2CDB7"/>
<path d="M410.664 392.41C411.126 393.572 411.274 393.739 411.165 394.936C412.086 397.015 411.651 402.717 411.511 405.126L410.816 404.481C408.74 402.32 406.603 400.56 404.527 398.306L404.632 398.08C406.766 396.265 408.666 394.369 410.664 392.41Z" fill="#F2CDB7"/>
<path d="M411.161 394.937C412.082 397.016 411.647 402.717 411.507 405.127L410.812 404.481C411.22 403.778 411.154 403.436 411.169 402.632C410.54 401.058 408.868 399.736 407.586 398.547L411.161 394.937Z" fill="#B99159"/>
<path d="M411.221 388.684C411.315 389.978 411.645 391.435 410.662 392.411C408.664 394.369 406.764 396.266 404.63 398.081C404.572 396.313 405.034 395.279 405.598 393.604C407.576 393.235 409.912 390.246 411.221 388.684Z" fill="#3E4350"/>
<path d="M407.04 389.915C409.15 388.718 409.783 386.83 411.233 386.371C411.618 387.385 411.408 387.43 411.221 388.683C409.912 390.246 407.576 393.234 405.598 393.604C406.025 392.282 406.348 391.132 407.04 389.915Z" fill="#F2CDB7"/>
<path d="M417.77 363.295L418.707 363.961C418.82 364.7 418.917 365.366 418.983 366.114L418.952 369.807L418.82 377.042L418.87 411.002C418.858 412.324 418.761 414.201 419.037 415.444L419.033 417.026L418.901 424.947C418.855 426.066 418.742 426.785 419.08 427.858C418.804 429.257 418.874 430.539 418.893 431.958L418.855 450.014C418.858 451.875 419.014 458.082 418.722 459.582C417.755 460.021 417.708 459.998 416.62 459.897L416.313 459.823L413.907 460.118L413.829 399.25C413.837 394.291 414.202 375.019 413.569 371.369C413.441 369.889 415.244 365.959 416.286 364.753L416.562 363.736L417.77 363.295Z" fill="#F2CDB7"/>
<path d="M413.569 371.369C413.441 369.889 415.244 365.96 416.286 364.754L416.383 430.462C416.379 439.945 416.08 450.453 416.313 459.823L413.907 460.119L413.829 399.25C413.837 394.291 414.202 375.019 413.569 371.369Z" fill="#282C37"/>
<path d="M448.375 346.935C448.363 348.298 448.282 349.694 448.224 351.059C447.994 354.782 447.819 358.509 447.703 362.238L447.745 364.349C447.648 366.135 447.365 368.004 447.302 369.72C447.151 371.758 446.89 374.275 446.937 376.28C443 371.828 437.524 365.778 433.315 361.644C428.519 366.811 423.689 371.943 418.819 377.043L418.951 369.807L418.982 366.115C418.916 365.366 418.819 364.7 418.706 363.961L417.77 363.295C419.437 362.828 421.349 362.442 423.055 362.058L427.975 360.46C432.347 358.445 435.639 356.956 439.848 354.537L440.373 354.157L442.273 352.733C444.508 350.735 446.307 349.116 448.375 346.935Z" fill="#B99159"/>
<path d="M448.375 346.935C448.363 348.298 448.282 349.694 448.224 351.059C447.994 354.782 447.819 358.509 447.703 362.238C446.133 360.838 443.719 359.001 443.148 357.104C443.264 355.485 443.513 355.668 444.687 354.136C443.746 353.685 443.156 353.295 442.273 352.733C444.508 350.735 446.308 349.116 448.375 346.935Z" fill="#F2CDB7"/>
<path d="M448.375 346.935C448.363 348.298 448.282 349.694 448.224 351.059L444.687 354.136C443.746 353.685 443.156 353.295 442.273 352.733C444.508 350.735 446.308 349.116 448.375 346.935Z" fill="#B99159"/>
<path d="M440.375 354.156L442.275 352.732C443.158 353.295 443.748 353.685 444.689 354.136C443.515 355.668 443.266 355.485 443.15 357.104C443.721 359.001 446.135 360.838 447.705 362.238L447.748 364.349L447.11 365.464C446.422 365.25 446.364 365.283 445.804 364.847C443.597 362.319 443.064 361.837 440.484 359.776C440.359 359.148 440.383 355.049 440.375 354.156Z" fill="#B99159"/>
<path d="M423.055 362.058L427.975 360.46C425.111 363.709 422.099 366.827 418.951 369.807L418.982 366.114C418.916 365.366 418.819 364.7 418.706 363.961L417.77 363.295C419.437 362.828 421.349 362.441 423.055 362.058Z" fill="#544E4B"/>
<path d="M417.77 363.296C419.437 362.828 421.349 362.442 423.055 362.059C422.406 363.739 420.447 365.129 418.982 366.115C418.916 365.366 418.819 364.701 418.706 363.961L417.77 363.296Z" fill="#A3845E"/>
<path d="M439.707 362.041C439.866 361.375 440.239 360.448 440.484 359.775C443.065 361.837 443.597 362.318 445.805 364.847C445.288 365.396 444.732 366.055 444.13 366.477C442.338 364.963 441.273 363.762 439.707 362.041Z" fill="#282C37"/>
<path d="M445.804 364.847C446.364 365.283 446.422 365.25 447.11 365.464L447.747 364.349C447.65 366.134 447.366 368.003 447.304 369.72C446.119 368.753 445.155 367.612 444.129 366.477C444.731 366.055 445.287 365.396 445.804 364.847Z" fill="#3E4350"/>
<path d="M440.376 354.156C440.384 355.049 440.36 359.148 440.485 359.776C440.24 360.448 439.867 361.375 439.707 362.041C439.521 359.029 439.618 357.521 439.851 354.537L440.376 354.156Z" fill="#6E593B"/>
<path d="M434.076 397.07C435.623 395.819 440.741 384.966 445.067 388.211L445.397 388.418C445.413 389.709 445.059 396.487 444.76 397.443L444.204 401.431C443.287 402.43 435.965 406.992 435.184 407.299L433.672 407.319L432.179 407.68C429.859 405.756 419.529 401.442 421.706 397.467C426.171 396.355 430.668 403.763 432.607 406.918C432.634 405.955 432.758 401.707 432.587 401.093C430.267 392.721 425.044 397.797 421.468 387.401C425.642 388.596 427.881 389.243 430.263 393.102C430.99 394.28 431.593 395.551 432.545 396.557C433.112 396.853 433.443 397.105 434.076 397.07Z" fill="#F2CDB7"/>
<path d="M445.065 388.211L445.395 388.419C445.411 389.71 445.057 396.488 444.758 397.444C439.515 396.29 436.651 404.404 434.008 406.713C434.132 404.672 434.082 402.069 434.105 399.982C438.668 393.316 442.573 396.122 445.065 388.211Z" fill="#282C37"/>
<path d="M422.178 433.75C424.44 434.434 425.742 434.97 427.918 435.926C429.597 438.072 431.124 440.318 432.003 442.91L432.391 442.782C432.671 441.538 432.737 440.567 432.85 439.311C433.099 440.47 433.223 441.177 433.34 442.358C433.449 441.655 433.631 440.194 433.822 439.58C433.962 440.707 433.946 441.22 434.436 442.226L434.925 442.389C436.589 441.018 437.339 435.786 439.978 435.448L440.533 435.969L439.756 441.379C439.682 442.308 439.519 445.102 439.317 445.848L438.606 450.582C437.957 454.297 437.65 456.435 437.689 460.309C436.453 460.255 433.437 460.232 432.438 459.87L432.912 459.707C432.473 458.289 432.764 455.288 432.306 454.324C430.732 451.025 420.375 447.935 422.174 443.163C422.874 442.953 423.161 442.961 423.865 443.244C429.111 445.347 430.339 447.951 432.582 452.587C432.656 449.42 433.126 446.513 431.443 443.893C429.484 442.755 426.36 440.847 424.945 439.179L424.762 438.966C423.363 437.314 422.916 435.771 422.178 433.75Z" fill="#B99159"/>
<path d="M438.605 450.582C437.956 454.297 437.649 456.435 437.688 460.31C436.452 460.255 433.436 460.232 432.438 459.87L432.912 459.707C433.899 459.61 433.467 459.789 434.241 459.116C434.474 457.461 434.416 456.485 434.365 454.822C436.001 452.743 436.39 452.043 438.605 450.582Z" fill="#282C37"/>
<path d="M439.755 441.379C439.681 442.308 439.518 445.102 439.316 445.848L439.009 445.638L438.123 445.903C436.77 447.17 435.173 451.002 434.248 452.859C434.112 449.906 434.093 448.398 434.334 445.421C436.156 443.264 437.217 442.533 439.755 441.379Z" fill="#282C37"/>
<path d="M444.202 401.431C444.128 402.826 444.078 404.384 443.953 405.76L443.444 408.776C440.168 414.302 436.554 411.36 433.837 416.972L433.165 417.093C432.065 415.81 432.43 415.701 431.805 414.528C429.854 413.206 427.358 412.258 425.167 411.321C424.343 409.946 423.344 407.82 422.59 406.343C429.337 407.676 428.466 408.333 432.314 413.583C432.741 411.632 432.695 409.608 432.178 407.68L433.67 407.318L435.182 407.299C435.963 406.992 443.285 402.429 444.202 401.431Z" fill="#F3DCC7"/>
<path d="M444.202 401.431C444.128 402.826 444.078 404.384 443.953 405.76C441.547 406.533 439.173 407.046 437.688 409.289C437.028 410.284 435.43 413.451 434.062 413.016C433.973 410.96 434.101 409.071 435.182 407.299C435.963 406.992 443.285 402.429 444.202 401.431Z" fill="#282C37"/>
<path d="M418.87 411.003C422.309 414.411 425.865 418.154 429.344 421.457C425.523 424.869 422.437 428.293 418.893 431.958C418.874 430.54 418.804 429.257 419.08 427.858C418.741 426.785 418.854 426.066 418.901 424.947L419.033 417.027L419.037 415.445C418.761 414.201 418.858 412.324 418.87 411.003Z" fill="#B99159"/>
<path d="M419.04 415.445C420.932 416.743 423.769 419.759 425.499 421.489C424.1 422.849 420.268 426.871 419.082 427.858C418.744 426.786 418.857 426.067 418.904 424.948L419.036 417.027L419.04 415.445Z" fill="#E9BB7C"/>
<path d="M419.034 417.026C420.146 419.483 420.539 419.929 422.412 421.706C421.39 422.685 419.987 424.111 418.902 424.947L419.034 417.026Z" fill="#3E4350"/>
<path d="M433.358 424.633C437.412 430.703 437.466 433.144 433.821 439.58C433.63 440.194 433.448 441.655 433.339 442.359C433.222 441.177 433.098 440.47 432.849 439.312C429.375 432.149 429.313 431.655 433.358 424.633Z" fill="#B99159"/>
<path d="M433.345 369.764C439.485 379.039 434.114 378.936 433.9 387.916C433.691 387.997 433.574 387.872 433.244 387.744C433.158 386.377 433.08 385.612 432.851 384.249C429.346 377.185 429.532 376.568 433.345 369.764Z" fill="#F3DCC7"/>
<path d="M437.689 381.871C440.351 380.058 441.661 379.498 444.766 378.61C441.929 387.437 438.987 384.587 434.125 390.463L434.074 397.07C433.441 397.105 433.11 396.852 432.543 396.557L432.675 395.099C433.149 393.72 433.2 392.558 432.986 391.131C432.551 388.229 432.986 389.888 434.556 388.433L437.689 381.871Z" fill="#F3DCC7"/>
<path d="M421.672 378.296C423.93 379.212 426.176 380.165 428.403 381.155C429.425 382.65 431.481 387.011 432.189 387.539C432.849 386.66 432.729 385.519 432.849 384.248C433.079 385.612 433.156 386.376 433.242 387.743C433.572 387.872 433.689 387.997 433.899 387.915L434.555 388.433C432.985 389.889 432.55 388.23 432.985 391.132C433.199 392.558 433.148 393.72 432.674 395.1C432.764 386.662 429.196 388.742 423.969 382.914C423.456 382.342 422.076 379.211 421.672 378.296Z" fill="#F2CDB7"/>
<path d="M426.258 459.8C424.474 458.346 421.023 455.754 421.314 453.154C423.864 451.359 428.333 455.501 429.771 457.581C430.245 458.28 430.712 458.984 431.162 459.699L426.573 459.804L426.258 459.8Z" fill="#B99159"/>
<path d="M437.449 421.376C439.221 419.907 440.823 417.381 442.436 416.382L442.898 416.91C442.428 419.549 441.891 422.153 441.748 424.827C440.469 424.539 438.588 422.437 437.449 421.376Z" fill="#B99159"/>
<path d="M361.57 288.07C360.911 293.354 357.693 305.915 352.581 307.891C350.703 309.212 350.709 309.266 351.194 311.656C348.139 315.817 349.197 321.026 348.223 325.692C347.887 325.8 346.66 325.591 346.212 325.534C339.702 320.006 336.708 318.612 331.073 311.161C330.64 310.694 330.229 310.121 329.836 309.61L329.997 308.994C335.967 302.742 351.774 289.311 360.886 287.997L361.57 288.07Z" fill="#264C56"/>
<path d="M361.57 288.07C360.911 293.354 357.693 305.915 352.581 307.891C350.703 309.212 350.709 309.266 351.194 311.656C348.139 315.817 349.197 321.026 348.223 325.692C347.887 325.8 346.66 325.591 346.212 325.534C346.593 324.652 346.885 319.682 346.953 318.503C347.483 309.342 349.853 300.249 356.733 293.721C357.555 292.941 358.705 292.045 358.939 290.927C356.792 291.743 353.294 293.16 351.423 294.234C347.802 296.315 332.757 308.64 331.073 311.161C330.64 310.694 330.229 310.121 329.836 309.61L329.997 308.994C335.967 302.742 351.774 289.311 360.886 287.997L361.57 288.07Z" fill="#163741"/>
<path d="M437.16 290.743C447.296 293.01 455.01 302.378 462.978 308.289C460.665 311.121 458.668 314.043 456.176 317.025C454.96 318.635 451.967 321.642 450.463 323.223C449.181 314.935 448.341 304.368 443.27 297.578C441.571 295.306 438.645 294.661 437.16 290.743Z" fill="#264C56"/>
<path d="M432.945 283.983C436.459 282.109 434.197 279.81 434.958 276.326C435.339 278.084 435.475 281.631 435.301 283.515C434.69 290.005 437.854 305.042 444.064 308.041L443.213 310.368C440.011 307.604 437.558 303.793 435.969 299.9C433.552 294.204 433.027 290.059 432.945 283.983Z" fill="#97362F"/>
<path d="M318.031 182.115C318.881 184.205 318.358 194.179 318.008 196.691L317.852 196.414C316.146 190.33 315.284 188.043 318.031 182.115Z" fill="#282C37"/>
</svg>
