<svg width="801" height="495" viewBox="0 0 801 495" fill="none" xmlns="http://www.w3.org/2000/svg">
<g clip-path="url(#clip0_9359_15065)">
<path d="M353.967 265.068C358.264 267.945 364.568 275.407 368.787 279.074C388.04 295.807 411.852 304.936 437.454 300.332C440.325 299.848 442.268 299.432 445.069 298.42C446.101 297.746 448.358 294.826 449.176 293.79C451.417 295.386 452.774 296.06 455.187 297.273C459.423 298.549 479.229 318.046 483.159 322.232C484.086 322.687 485.463 323.306 486.308 323.821C514.394 335.226 542.304 347.065 570.026 359.333C576.397 362.226 583.116 365.117 589.3 368.212C591.459 369.294 595.64 376.455 596.527 379.004C606.176 406.728 611.883 437.867 616.29 466.75L618.946 484.599C619.31 487.187 619.904 492.845 620.53 494.999H587.473H571.852H564.667H535.76H532.334H516.541H464.585H461.296H431.622H429.237H403.763H402.418H397.502H372.262H370.143H340.166H337.151H290.024H274.098H270.305H218.392H180.875C181.963 489.897 182.64 481.94 183.474 476.384C186.441 456.596 189.556 437.464 193.963 417.887C196.674 405.849 199.49 393.485 203.634 381.8C205.37 376.905 208.821 370.813 212.86 367.565C215.044 365.808 217.743 366.012 220.084 364.836C243.703 352.971 268.719 343.537 292.957 332.999C300.521 329.711 308.455 326.856 315.957 323.445L318.249 322.287C322.208 317.928 341.983 298.61 346.62 297.315C348.471 296.233 350.887 295.157 352.854 294.216C352.688 291.325 353.196 286.482 353.347 283.351C353.586 277.257 353.793 271.163 353.967 265.068Z" fill="#202020"/>
<path d="M483.156 322.232C484.083 322.687 485.46 323.306 486.305 323.821C514.391 335.226 542.3 347.065 570.022 359.333C576.394 362.227 583.113 365.117 589.297 368.212C591.455 369.294 595.636 376.456 596.524 379.004C606.173 406.728 611.879 437.867 616.287 466.75L618.943 484.599C619.307 487.187 619.901 492.845 620.527 495H587.47H571.849H564.664H535.757H532.331H516.538H464.582H461.293C465.4 485.846 468.916 476.611 472.604 467.317C479.089 451.232 485.233 435.009 491.037 418.666L499.118 396.129C500.666 391.718 501.82 387.746 503.611 383.368C496.028 377.975 486.649 371.221 479.491 365.431C483.125 362.801 496.751 355.539 500.854 354.117C498.335 350.443 482.875 324.855 483.156 322.232Z" fill="#202020"/>
<path d="M483.156 322.232C484.083 322.687 485.46 323.306 486.305 323.821L486.481 324.186C488.597 328.547 503.631 352.64 503.565 354.829C501.531 356.988 487.963 363.545 484.263 365.607C491.718 371.305 499.329 376.714 506.846 382.326C501.277 397.556 496.149 413.043 490.537 428.327C488.945 432.698 487.322 437.058 485.667 441.406C484.685 443.92 482.218 449.66 481.842 452.06C483.254 452.471 484.036 451.032 484.744 451.38L484.47 451.881L484.623 452.393C486.844 452.756 510.139 450.489 513.307 449.777C515.075 449.64 517.379 449.265 519.178 449.026C521.188 448.659 523.601 448.385 525.651 448.096C527.892 447.736 529.237 447.564 531.498 447.458L531.451 465.921C512.341 469.354 493.02 471.493 473.621 472.322C470.668 479.903 467.652 487.465 464.582 495H461.293C465.4 485.846 468.916 476.611 472.604 467.317C479.089 451.232 485.233 435.009 491.037 418.666L499.118 396.129C500.666 391.718 501.82 387.746 503.611 383.368C496.028 377.975 486.649 371.221 479.491 365.431C483.125 362.801 496.751 355.539 500.854 354.117C498.335 350.443 482.875 324.855 483.156 322.232Z" fill="#010101"/>
<path d="M528.81 450.242L529.021 450.414C529.428 452.135 529.248 462.359 529.24 464.752C520.909 465.327 511.432 467.262 503.063 468.177C493.797 469.19 484.543 469.862 475.27 470.73L474.797 470.324C474.973 469.006 479.299 457.691 480.038 455.47C496.034 455.044 512.864 452.412 528.81 450.242Z" fill="#202020"/>
<path d="M543.831 474.805C549.455 472.068 557.653 467.001 564.012 468.541C567.525 469.39 566.183 473.828 565.158 476.162L565.252 476.51C566.461 477.996 565.792 478.895 566.484 481.096C564.607 481.726 562.464 482.508 560.594 483.055C553.132 486.07 542.443 490.938 535.758 495H532.332H516.539C519.84 491.192 523.677 486.809 527.87 484.017C531.03 481.913 534.706 480.338 537.777 478.066L540.8 476.455L542.145 475.806L543.831 474.805Z" fill="#DE946D"/>
<path d="M565.158 476.162L565.252 476.51C566.461 477.996 565.792 478.895 566.484 481.096C564.607 481.726 562.463 482.508 560.594 483.055C553.131 486.07 542.442 490.938 535.758 495H532.332C539.751 488.811 549.647 485.609 558.185 481.366C560.516 480.213 562.776 477.613 565.158 476.162Z" fill="#B96D4E"/>
<path d="M565.252 476.51C566.46 477.996 565.792 478.895 566.484 481.096C564.607 481.726 562.463 482.508 560.594 483.055C560.699 481.847 564.071 478.387 565.252 476.51Z" fill="#010101"/>
<path d="M566.484 481.095C571.173 479.887 575.331 478.636 580.196 478.229C587.737 477.6 588.582 484.208 583.959 488.513C583.102 489.463 582.253 490.507 581.236 491.269C584.843 491.664 585.441 491.989 587.471 494.999H571.85H564.665H535.758C542.442 490.937 553.131 486.069 560.594 483.054C562.463 482.507 564.606 481.725 566.484 481.095Z" fill="#DE946D"/>
<path d="M564.664 495C568.79 493.065 579.182 489.999 583.958 488.514C583.101 489.464 582.252 490.508 581.236 491.27C584.842 491.665 585.44 491.99 587.47 495H571.849H564.664Z" fill="#B96D4E"/>
<path d="M581.238 491.27C584.844 491.664 585.443 491.989 587.473 495H571.852C573.353 494.194 578.95 492.267 581.238 491.27Z" fill="#DE946D"/>
<path d="M542.144 475.806C541.385 462.797 570.409 368.996 580.832 365.758C581.004 367.258 574.985 378.065 574 380.203C559.974 410.549 551.28 442.29 543.829 474.805L542.144 475.806Z" fill="#010101"/>
<path d="M499.683 444.855C506.179 442.95 508.792 446.137 511.479 445.68L512.046 444.87C512.824 445.859 514.428 447.689 514.604 448.878C514.143 449.152 513.618 449.382 513.309 449.777C510.141 450.489 486.847 452.757 484.625 452.393L484.473 451.881L484.746 451.38C485.361 450.985 489.463 446.02 490.335 445.011L490.101 446.493C492.889 447.873 494.998 444.464 499.683 444.855Z" fill="#535353"/>
<path d="M499.684 444.855C506.18 442.95 508.793 446.137 511.48 445.68L512.047 444.87C512.825 445.859 514.429 447.689 514.605 448.878C507.705 445.91 507.119 445.484 499.684 444.855Z" fill="#666666"/>
<path d="M490.336 445.012C494.505 440.101 496.864 436.946 501.749 432.582C503.556 434.463 505.335 436.371 507.088 438.306L508.077 439.937L512.047 444.871L511.48 445.68C508.793 446.138 506.18 442.951 499.684 444.855C494.998 444.464 492.89 447.874 490.102 446.494L490.336 445.012Z" fill="#7D7C7C"/>
<path d="M507.087 438.305L508.077 439.935L512.047 444.87L511.48 445.679C510.795 445.303 502.977 439.998 502.82 439.783C505.421 439.544 505.417 439.908 507.087 438.305Z" fill="#787877"/>
<path d="M510.468 438.183C511.966 436.815 513.44 435.439 515.02 434.16C519.655 439.153 521.974 443.915 525.651 448.095C523.601 448.385 521.188 448.658 519.178 449.026C517.379 449.264 515.075 449.64 513.307 449.776C513.616 449.382 514.14 449.151 514.602 448.877C514.426 447.689 512.822 445.859 512.044 444.87L508.074 439.935C508.802 439.615 509.815 438.711 510.468 438.183Z" fill="#6E6D6D"/>
<path d="M508.074 439.935C508.802 439.615 509.815 438.711 510.468 438.184C512.854 441.46 517.34 445.257 519.178 449.026C517.379 449.264 515.075 449.64 513.307 449.777C513.616 449.382 514.14 449.151 514.602 448.877C514.426 447.689 512.822 445.859 512.044 444.87L508.074 439.935Z" fill="#494949"/>
<path d="M537.775 478.065C537.028 472.283 541.714 439.595 543.802 433.75C544.272 435.537 541.839 457.061 541.526 461.139C541.135 466.234 540.892 471.344 540.798 476.454L537.775 478.065Z" fill="#010101"/>
<path d="M180.875 495C181.963 489.897 182.64 481.941 183.474 476.385C186.441 456.596 189.556 437.465 193.963 417.888C196.674 405.849 199.49 393.486 203.634 381.801C205.37 376.905 208.821 370.813 212.86 367.565C215.044 365.808 217.743 366.013 220.084 364.836C243.703 352.972 268.719 343.537 292.957 333C300.521 329.711 308.455 326.857 315.957 323.445C310.19 333.671 303.383 344.555 297.402 354.759C303.226 358.431 311.154 362.178 317.441 365.407C310.269 371.294 302.051 376.513 294.961 382.313C303.977 409.22 313.679 435.889 324.057 462.301C327.952 472.24 332.793 485.436 337.151 495H290.024H274.098H270.305H218.392H180.875Z" fill="#202020"/>
<path d="M232.358 475.169C231.244 473.261 230.683 469.535 233.226 468.624C240.3 466.082 250.518 470.907 257.367 473.057L259.32 473.75L260.908 474.473L264.025 475.779C276.903 481.057 280.178 485.26 290.02 495H274.094H270.302C258.244 486.594 255.961 487.137 241.738 483.747C238.282 480.893 234.781 479.012 232.358 475.169Z" fill="#DE946D"/>
<path d="M232.359 475.168C235.49 476.791 239.317 479.559 242.292 480.72C246.358 482.304 251.532 483.547 255.802 484.802C263.581 487.086 267.665 490.366 274.096 494.999H270.304C258.246 486.593 255.962 487.136 241.74 483.746C238.284 480.892 234.783 479.011 232.359 475.168Z" fill="#B96D4E"/>
<path d="M218.389 495C216.676 493.96 215.099 492.709 213.62 491.313C211.782 489.921 210.462 485.155 212.817 483.782C219.327 479.986 234.486 482.883 241.739 483.747C255.961 487.137 258.244 486.594 270.302 495H218.389Z" fill="#DE946D"/>
<path d="M257.37 473.058C255.822 466.967 254.746 460.746 253.103 454.662C245.349 425.939 236.81 396.693 222.487 370.468C221.986 369.548 219.99 366.382 220.194 365.676C223.964 365.707 229.241 378.374 230.749 381.689C242.463 407.868 251.427 435.194 257.497 463.229C257.82 464.75 259.787 472.699 259.322 473.75L257.37 473.058Z" fill="#010101"/>
<path d="M260.912 474.472C259.624 462.445 260.221 450.227 257.789 438.227C257.537 436.984 257.228 435.064 257.195 433.801C260.567 436.733 264.062 470.011 264.029 475.778L260.912 474.472Z" fill="#010101"/>
<path d="M455.185 297.273C459.421 298.549 479.227 318.046 483.157 322.232C482.876 324.855 498.337 350.443 500.855 354.116C496.753 355.538 483.126 362.8 479.493 365.431C486.65 371.221 496.029 377.974 503.613 383.367C501.821 387.746 500.668 391.718 499.119 396.128L491.038 418.665C485.234 435.009 479.09 451.231 472.605 467.317C468.917 476.611 465.401 485.846 461.294 494.999H431.62H429.235H403.761C404.329 493.412 405.162 492.872 405.518 490.835L405.787 490.503C404.184 488.106 400.961 486.026 400.805 484.536L401.344 484.259C403.582 484.982 404.309 488.306 406.875 488.059C408.459 486.288 410.845 482.1 412.17 479.899C411.447 478.472 410.422 477.796 409.746 476.032L410.805 475.954C411.623 476.419 411.869 476.544 412.773 476.826L412.984 476.888C414.224 476.427 417.263 469.565 417.224 468.001L417.713 467.927C418.315 466.938 418.749 466.117 419.277 465.096L418.768 464.478C420.931 461.303 422.453 459.591 423.528 455.779L421.51 452.565C422.363 451.509 423.079 450.504 424.154 449.683L424.71 449.921L425.226 451.767C425.179 450.653 424.897 448.756 424.756 447.599C424.557 444.667 424.252 441.918 423.923 439.001C424.049 438.121 423.892 437.73 423.689 436.878C423.341 433.3 422.922 429.731 422.433 426.172C422.234 422.56 421.506 417.481 421.092 413.774C420.306 410.623 419.75 407.452 419.152 404.261L418.96 403.006L418.827 402.04C418.643 400.64 418.311 399.464 417.963 398.107C417.431 395.577 416.469 392.504 415.757 389.979L415.143 387.436L414.932 386.341L414.236 384.074C413.762 381.845 412.624 378.599 411.912 376.352L411.826 375.699L411.021 374.426C411.001 373.074 411.431 372.401 411.979 371.163L412.276 370.93L414.06 367.526C415.08 365.088 416.61 362.38 417.865 360.015C425.081 365.462 432.536 372.384 439.623 377.659C443.197 372.012 446.213 364.622 449.189 358.572C450.902 355.084 451.732 351.245 454.129 348.165C454.802 346.545 454.903 340.893 454.986 338.917C456.812 332.537 457.845 316.028 457.704 308.942C457.673 307.485 455.619 299.086 455.185 297.273Z" fill="#202020"/>
<path d="M439.622 377.659C443.197 372.013 446.213 364.622 449.189 358.572C450.902 355.085 451.731 351.245 454.129 348.166C453.479 355.867 452.333 363.086 451.211 370.7C450.116 378.139 449.295 385.926 447.734 393.283L445.954 399.929C443.389 405.99 427.932 450.587 425.292 452.088L425.225 451.768C425.178 450.653 424.897 448.757 424.756 447.6C424.557 444.667 424.252 441.918 423.923 439.002C424.048 438.122 423.892 437.731 423.688 436.879C423.34 433.301 422.922 429.731 422.433 426.173C422.233 422.56 421.506 417.481 421.091 413.775C420.305 410.623 419.75 407.452 419.151 404.262L418.96 403.007L418.827 402.041C418.643 400.641 418.311 399.464 417.962 398.107C417.431 395.578 416.468 392.504 415.757 389.979L415.142 387.437L414.931 386.342L414.235 384.075C413.762 381.845 412.624 378.6 411.912 376.353L411.826 375.7L411.02 374.427C411.001 373.074 411.431 372.401 411.978 371.164L412.276 370.931L414.059 367.526C415.08 365.088 416.609 362.381 417.865 360.016C425.081 365.462 432.535 372.385 439.622 377.659Z" fill="#F2F2F2"/>
<path d="M445.955 399.93C446.33 403.679 445.059 409.138 444.422 412.981C439.928 440.21 435.508 468.162 429.235 495H403.761C404.329 493.413 405.162 492.873 405.518 490.836L405.787 490.504C404.184 488.107 400.961 486.027 400.805 484.537L401.344 484.26C403.582 484.983 404.309 488.306 406.875 488.06C408.459 486.289 410.845 482.101 412.17 479.9C411.447 478.473 410.422 477.796 409.746 476.033L410.805 475.955C411.623 476.42 411.869 476.545 412.773 476.827L412.984 476.889C414.224 476.428 417.263 469.566 417.224 468.002L417.713 467.928C418.315 466.938 418.749 466.117 419.277 465.097L418.768 464.479C420.931 461.304 422.453 459.592 423.528 455.779L421.51 452.565C422.363 451.51 423.079 450.505 424.154 449.684L424.71 449.922L425.226 451.768L425.292 452.088C427.932 450.587 443.389 405.99 445.955 399.93Z" fill="#494949"/>
<path d="M447.734 393.283C450.139 395.019 448.113 401.928 447.73 404.755C443.631 434.987 436.599 465.011 431.62 495.001H429.234C435.508 468.163 439.927 440.21 444.421 412.982C445.059 409.138 446.33 403.68 445.954 399.93L447.734 393.283Z" fill="#010101"/>
<path d="M472.904 394.103C472.873 391.624 473.252 386.992 472.588 384.844C471.735 384.328 471.41 384.219 470.855 383.428C471.528 382.797 476.029 382.758 477.359 382.672L478.083 383.542L478.466 383.126L478.22 383.936C477.359 384.458 477.246 384.584 476.526 385.3C476.78 390.424 476.816 397.368 475.979 402.404C475.075 400.676 473.89 398.232 472.838 396.661L467.488 396.704C467.409 398.33 467.366 399.738 467.452 401.376C467.542 403.085 468.575 404.367 468.152 405.696C466.909 406.103 463.052 406.158 461.852 405.626L462.11 405.438C463.08 404.723 463.177 404.703 463.729 403.683C464.19 399.292 463.702 395.468 463.874 391.183C463.823 389.268 463.514 388.94 462.34 387.463C463.522 386.748 466.314 386.915 467.652 387.243L468.25 387.856C467.82 390.769 467.319 391.175 467.28 394.389C468.95 394.651 471.633 395.226 472.904 394.103Z" fill="#B9B9B9"/>
<path d="M472.909 394.103C472.878 391.624 473.257 386.992 472.592 384.844C471.739 384.328 471.415 384.219 470.859 383.428C471.532 382.797 476.034 382.758 477.364 382.672L478.087 383.542L478.47 383.126L478.224 383.936C477.364 384.458 477.25 384.584 476.531 385.3C476.073 387.695 476.171 389.94 476.182 392.367C475.021 393.505 474.927 393.974 473.535 394.295L472.909 394.103Z" fill="#CBCACB"/>
<path d="M463.877 391.182C463.826 389.267 463.517 388.939 462.344 387.462C463.525 386.747 466.317 386.915 467.655 387.242L468.253 387.855C467.823 390.768 467.323 391.174 467.284 394.388C466.924 393.802 466.978 392.801 466.932 392.03H465.089C464.69 392.535 464.511 392.715 464.479 393.368L463.877 391.182Z" fill="#CBCACB"/>
<path d="M481.13 390.163C481.525 388.87 481.552 388.612 482.295 387.517C483.648 386.679 486.343 387.025 487.931 387.27C487.043 387.994 486.543 388.391 485.995 389.404L486.058 390.394C485.569 392.05 485.878 391.89 484.743 392.907C483.969 392.953 482.964 393.09 482.272 392.836L482.049 392.989C479.526 397.387 478.9 401.649 477.007 405.473C475.713 405.895 474.082 406.372 472.834 406.838C471.981 404.519 470.174 400.351 470.777 398.025L471.473 398.083C473.444 399.616 474.226 401.418 475.552 403.585C476.784 400.175 479.612 393.356 481.13 390.163Z" fill="#CBCACB"/>
<path d="M481.129 390.163C481.524 388.87 481.551 388.612 482.294 387.517C483.648 386.679 486.342 387.025 487.93 387.27C487.043 387.994 486.542 388.391 485.994 389.404C484.919 390.537 482.455 391.069 481.129 390.163Z" fill="#F2F2F2"/>
<path d="M482.049 392.99L482.272 392.837C482.964 393.091 483.969 392.954 484.744 392.907C485.878 391.891 485.569 392.051 486.058 390.395C485.976 393.56 485.573 400.895 486.371 404.125C486.911 404.735 487.356 405.239 487.708 405.642C486.5 406.303 482.123 406.182 480.684 405.924L480.379 405.533L480.555 405.423C481.294 404.966 481.431 404.845 482.065 404.258C482.389 401.81 482.487 395.312 482.049 392.99Z" fill="#989899"/>
<path d="M472.832 406.839C474.08 406.374 475.711 405.897 477.006 405.475C476.689 407.093 476.372 407.23 476.986 408.505C477.569 408.712 478.077 408.872 478.637 409.15C477.233 409.604 473.986 409.525 472.551 409.232L472.473 409.037C473.165 407.746 473.059 408.329 472.832 406.839Z" fill="#989899"/>
<path d="M353.964 265.068C358.262 267.945 364.566 275.407 368.785 279.074C388.037 295.807 411.849 304.936 437.452 300.332C440.322 299.848 442.266 299.432 445.066 298.42C446.099 297.746 448.356 294.826 449.173 293.79C451.414 295.386 452.771 296.06 455.185 297.273C455.619 299.086 457.672 307.485 457.703 308.942C457.844 316.028 456.812 332.537 454.985 338.917C454.903 340.893 454.801 346.545 454.129 348.165C451.731 351.245 450.902 355.084 449.189 358.572C446.212 364.622 443.197 372.012 439.622 377.659C432.535 372.384 425.081 365.462 417.865 360.015C416.609 362.38 415.08 365.088 414.059 367.526L412.276 370.93C411.102 369.802 409.749 368.73 409.182 367.241L408.138 366.959C406.593 368.119 405.501 369.321 404.093 370.38L402.846 370.158C401.626 369.798 401.246 369.912 399.967 370.084L398.751 370.177C396.205 370.295 391.586 370.619 389.229 370.42C388.98 369.732 388.148 368.303 387.763 367.594C386.573 365.129 385.483 362.925 384.164 360.518C383.38 359.39 380.473 353.359 379.683 351.797C378.546 353.621 375.481 357.153 374.001 358.967C370.023 363.844 366.146 368.46 362.398 373.536C360.503 368.835 357.396 362.805 355.172 358.015C352.65 352.582 349.347 343.94 346.517 338.926C345.204 329.178 343.333 317.829 344.168 308.043C344.379 305.576 345.931 299.945 346.617 297.315C348.469 296.233 350.884 295.157 352.852 294.216C352.686 291.325 353.194 286.482 353.345 283.351C353.584 277.257 353.79 271.163 353.964 265.068Z" fill="#F2F2F2"/>
<path d="M353.966 265.068C358.263 267.945 364.567 275.407 368.786 279.074C388.039 295.807 411.851 304.936 437.453 300.332C440.324 299.848 442.268 299.432 445.068 298.42C436.014 308.775 413.204 326.593 400.915 333.464C396.421 331.126 392.025 327.721 387.841 324.88C373.554 315.176 364.35 306.947 352.853 294.216C352.687 291.325 353.195 286.482 353.346 283.351C353.585 277.257 353.792 271.163 353.966 265.068Z" fill="#DE946D"/>
<path d="M397.015 334.495L397.36 334.128C398.897 333.626 401.971 333.82 403.703 333.843C405.444 334.302 405.988 335.166 407.274 336.412L407.407 336.545C409.715 338.638 411.393 340.162 413.477 342.489L415.531 344.652L416.102 345.345C417.674 347.129 420.357 349.991 421.738 351.787L420.701 353.891C420.314 354.726 419.786 356.097 419.164 356.688L417.866 360.016C416.61 362.382 415.081 365.089 414.06 367.527L412.277 370.932C411.103 369.803 409.75 368.732 409.183 367.243L408.139 366.96C406.594 368.12 405.503 369.322 404.095 370.381L402.847 370.16C401.627 369.8 401.247 369.913 399.968 370.086L398.752 370.178C396.206 370.297 391.587 370.621 389.23 370.421C388.981 369.733 388.149 368.305 387.764 367.595C386.574 365.13 385.484 362.926 384.165 360.519C383.382 359.391 380.474 353.36 379.684 351.798C381.386 350.342 384.235 346.921 385.832 345.094L386.473 344.237L388.301 342.327C390.76 339.845 394.129 336.253 397.015 334.495Z" fill="#666666"/>
<path d="M397.016 334.495L397.36 334.128C398.897 333.626 401.971 333.82 403.704 333.843L404.807 335.136L404.263 335.877C402.914 335.731 399.601 337.803 398.823 338.865L398.174 338.997L397.712 340.052C395.878 341.93 394.54 343.266 392.522 344.983C391.763 345.7 390.946 346.442 390.207 347.173L389.513 348.022C388.652 346.858 387.062 345.926 385.832 345.094L386.473 344.237L388.302 342.327C390.76 339.845 394.13 336.253 397.016 334.495Z" fill="#010101"/>
<path d="M386.473 344.236C388.223 345.297 388.707 345.751 390.207 347.172L389.513 348.022C388.652 346.858 387.062 345.925 385.832 345.093L386.473 344.236Z" fill="#202020"/>
<path d="M397.71 340.051L395.254 337.276L395.524 336.684C397.006 337.516 397.151 337.679 398.172 338.997L397.71 340.051Z" fill="#202020"/>
<path d="M385.832 345.094C387.061 345.925 388.651 346.858 389.512 348.022C387.793 350.059 383.826 353.454 383.832 355.5L385.01 356.621C385.599 363.042 391.481 362.726 387.764 367.595C386.574 365.13 385.484 362.926 384.165 360.519C383.382 359.391 380.474 353.36 379.684 351.798C381.386 350.342 384.235 346.921 385.832 345.094Z" fill="#010101"/>
<path d="M395.387 365.556C397.303 363.662 399.278 361.878 401.265 360.061L407.265 365.601C406.283 366.588 403.577 369.191 402.845 370.16C401.625 369.799 401.246 369.913 399.967 370.085C398.195 368.508 396.9 367.415 395.387 365.556Z" fill="#202020"/>
<path d="M411.273 349.76C413.163 348.184 414.371 347.146 416.1 345.344C417.672 347.128 420.355 349.99 421.736 351.787L420.699 353.891C418.587 354.677 419.721 355.322 416.827 355.533C415.705 355.135 412.975 351.407 411.273 349.76Z" fill="#202020"/>
<path d="M407.407 336.545C409.715 338.638 411.393 340.162 413.477 342.489L412.75 343.914C411.991 344.422 409.875 346.552 409.097 347.302C407.517 345.182 405.319 343.529 403.406 341.258C404.865 339.912 406.629 338.349 407.407 336.545Z" fill="#010101"/>
<path d="M385.012 356.619C387.499 358.908 389.935 361.252 392.316 363.649C390.844 364.803 390.443 365.031 389.535 366.692L389.68 367.09C391.193 366.263 391.698 365.835 393.02 364.759L393.282 364.943C392.054 367.513 390.706 368.687 388.869 370.884C391.401 369.168 392.543 368.436 394.537 366.021C395.683 367.271 397.396 369.306 398.753 370.177C396.207 370.295 391.588 370.619 389.231 370.42C388.982 369.732 388.15 368.303 387.766 367.593C391.483 362.725 385.601 363.041 385.012 356.619Z" fill="#202020"/>
<path d="M411.586 365.741C411.226 364.934 411.222 364.997 411.402 364.134C413.193 361.859 416.475 357.665 419.165 356.688L417.867 360.016C416.612 362.381 415.082 365.088 414.061 367.526C413.107 366.631 412.72 366.413 411.586 365.741Z" fill="#202020"/>
<path d="M403.702 333.842C405.443 334.301 405.986 335.165 407.273 336.411L407.406 336.544C405.541 337.331 404.528 339.776 401.88 340.22C401.129 339.623 401.36 340.008 401.242 338.985C401.536 337.769 403.174 336.751 404.262 335.876L404.805 335.134L403.702 333.842Z" fill="#202020"/>
<path d="M409.184 367.242C409.379 366.691 408.961 366.48 409.399 365.457L410.294 365.283L411.307 365.969L411.585 365.741C412.719 366.413 413.106 366.63 414.061 367.526L412.277 370.931C411.104 369.802 409.751 368.731 409.184 367.242Z" fill="#494949"/>
<path d="M413.479 342.488L415.532 344.652C413.064 347.167 411.633 348.223 408.496 349.802C409.912 347.874 411.766 346.024 413.354 344.105L412.751 343.913L413.479 342.488Z" fill="#202020"/>
<path d="M392.912 351.416C394.766 353.292 396.648 355.143 398.552 356.969C397.535 358.228 394.211 361.4 392.936 362.67C391.989 362.285 388.584 358.619 386.41 357.227C388.553 355.263 390.721 353.325 392.912 351.416Z" fill="#202020"/>
<path d="M409.14 352.033C410.168 352.227 414.439 356.826 415.495 357.898C413.719 359.674 411.67 361.459 409.797 363.154C408.823 362.891 404.826 358.67 403.758 357.612C405.983 355.581 407.313 354.456 409.14 352.033Z" fill="#202020"/>
<path d="M400.859 343.582C401.954 344.258 405.575 347.987 406.866 349.214L401.152 354.516C400.186 354.526 396.11 349.957 395.281 349.104C397.096 347.206 398.969 345.409 400.859 343.582Z" fill="#202020"/>
<path d="M398.397 341.207C399.5 341.569 399.101 341.347 399.903 342.229C399.586 344.04 396.402 346.583 394.904 347.956C394.298 347.877 394.098 347.635 393.551 347.273L393.426 346.431C394.126 344.998 397.071 342.514 398.397 341.207Z" fill="#202020"/>
<path d="M390.361 349.086C391.322 349.84 391.181 349.523 391.599 350.533C390.785 352.13 387.733 354.776 386.274 356.167C385.259 355.969 385.718 356.187 384.926 355.362C385.1 353.53 388.901 350.439 390.361 349.086Z" fill="#202020"/>
<path d="M402.872 358.113C403.861 358.514 407.937 362.439 408.422 363.717C408.68 364.39 408.449 364.441 408.073 365.268C406.798 364.246 402.997 360.494 402.375 359.123L402.872 358.113Z" fill="#494949"/>
<path d="M399.351 358.033L399.933 358.552C399.808 359.858 395.858 363.472 394.63 364.702C394.278 364.557 394.145 364.32 393.848 364.003C394.028 362.841 398.123 359.239 399.351 358.033Z" fill="#494949"/>
<path d="M407.502 350.25L408.128 350.957C407.667 352.385 404.44 355.098 403.138 356.298C402.531 356.1 402.813 356.249 402.375 355.733C403.517 353.931 405.911 351.795 407.502 350.25Z" fill="#202020"/>
<path d="M454.988 338.918C454.906 340.894 454.804 346.546 454.131 348.166C451.734 351.246 450.905 355.085 449.191 358.573C446.215 364.622 443.2 372.013 439.625 377.659C432.538 372.385 425.083 365.463 417.867 360.016L419.166 356.688C419.788 356.096 420.316 354.726 420.703 353.891L421.739 351.787C427.715 358.808 433.508 365.98 439.12 373.298C445.01 361.342 449.649 351.221 454.988 338.918Z" fill="#989899"/>
<path d="M346.516 338.926C349.346 343.94 352.649 352.582 355.171 358.015C357.394 362.805 360.501 368.835 362.397 373.535C366.144 368.46 370.022 363.844 374 358.967C375.48 357.153 378.545 353.621 379.681 351.797C380.471 353.359 383.379 359.39 384.162 360.518C385.482 362.925 386.572 365.129 387.762 367.594C388.146 368.303 388.978 369.732 389.228 370.42C391.584 370.619 396.203 370.295 398.75 370.177L399.966 370.084C401.245 369.912 401.624 369.798 402.845 370.158L404.092 370.38C405.5 369.321 406.591 368.119 408.136 366.959L409.181 367.241C409.748 368.73 411.101 369.802 412.274 370.93L411.977 371.163C411.429 372.401 410.999 373.074 411.019 374.426L411.824 375.699L411.911 376.352C412.622 378.599 413.761 381.845 414.234 384.074L414.93 386.341L415.141 387.436L415.755 389.979C416.467 392.504 417.429 395.577 417.961 398.107C418.309 399.464 418.642 400.64 418.825 402.04L418.958 403.006L419.15 404.261C419.748 407.452 420.304 410.623 421.09 413.774C421.505 417.481 422.232 422.56 422.431 426.172C422.92 429.731 423.339 433.3 423.687 436.878C423.89 437.73 424.047 438.121 423.922 439.001C424.25 441.918 424.555 444.667 424.755 447.599C424.896 448.756 425.177 450.653 425.224 451.767L424.708 449.921L424.152 449.683C423.077 450.504 422.361 451.509 421.508 452.565L423.527 455.779C422.451 459.591 420.93 461.303 418.767 464.478L419.275 465.096C418.747 466.117 418.313 466.938 417.711 467.927L417.222 468.001C417.261 469.565 414.222 476.427 412.982 476.888L412.771 476.826C411.868 476.544 411.621 476.419 410.804 475.954L409.744 476.032C410.42 477.796 411.445 478.472 412.169 479.899C410.843 482.1 408.457 486.288 406.873 488.059C404.307 488.306 403.58 484.982 401.343 484.259L400.803 484.536C400.959 486.026 404.182 488.106 405.786 490.503L405.516 490.835C405.16 492.872 404.327 493.412 403.76 494.999H402.414H397.498C396.892 493.713 395.711 491.539 395.644 490.241L394.807 489.58C393.951 487.731 392.867 485.154 391.737 483.539C390.927 482.441 391.059 482.949 391.15 481.686C389.522 479.352 387.501 476.619 386.947 473.831C386.749 472.642 385.754 471.051 385.15 469.929L385.485 469.78C386.145 470.593 386.645 471.207 387.374 471.958L388.108 471.813L388.443 471.149C387.694 469.506 384.246 466.644 382.725 465.303C383.147 463.642 388.308 460.181 389.276 457.847L388.556 456.995C386.292 457.073 385.919 459.72 383.834 459.986C383.204 460.279 381.522 462.054 380.926 462.644C380.04 460.834 378.135 457.26 378.203 455.407L377.682 454.621C376.876 453.628 376.837 453.46 376.554 452.209C375.216 450.477 372.38 443.728 371.44 441.499C367.432 432.053 363.717 422.489 360.301 412.812C358.765 408.543 357.466 404.019 355.852 399.878C355.208 397.814 354.596 395.706 353.974 393.63C351.474 378.902 349.769 364.503 347.465 349.856C346.651 346.754 346.565 342.133 346.516 338.926Z" fill="#777777"/>
<path d="M346.516 338.926C349.346 343.94 352.649 352.582 355.171 358.015C357.394 362.805 360.501 368.835 362.397 373.535C366.144 368.46 370.022 363.844 374 358.967C375.48 357.153 378.545 353.621 379.681 351.797C380.471 353.359 383.379 359.39 384.162 360.518C385.482 362.925 386.572 365.129 387.762 367.594C388.146 368.303 388.978 369.732 389.228 370.42C389.734 371.482 390.46 372.814 390.686 373.933C389.808 375.166 389.698 376.617 389.408 378.145C389.073 379.21 388.746 380.217 388.474 381.303C387.895 383.047 387.089 385.258 386.688 387.006L386.219 388.167C385.81 389.942 383.902 397.016 383.829 398.04C383.122 400.848 382.477 403.331 382.015 406.2C381.741 407.893 381.437 410.216 381.063 411.842L381.078 412.433C380.912 413.234 380.72 414.427 380.426 415.15L380.438 415.948L380.162 417.95C379.801 419.572 378.833 426.775 379.003 428.319L378.281 434.309C380.653 434.524 386.871 434.559 389.389 434.387C391.318 434.356 394.299 434.399 396.145 434.227L396.845 436.1C393.254 436.072 377.392 435.717 374.567 436.268L373.976 436.905C374.074 438.145 374.303 438.258 375.162 439.259C376.302 439.701 376.434 439.627 377.693 439.486L377.673 441.257C377.519 442.199 377.046 444.725 377.084 445.531C376.905 447.642 376.629 450.121 376.554 452.209C375.216 450.477 372.38 443.728 371.44 441.499C367.432 432.053 363.717 422.489 360.301 412.812C358.765 408.543 357.466 404.019 355.852 399.878C355.208 397.814 354.596 395.706 353.974 393.63C351.474 378.902 349.769 364.503 347.465 349.856C346.651 346.754 346.565 342.133 346.516 338.926Z" fill="#F2F2F2"/>
<path d="M346.516 338.926C349.346 343.94 352.649 352.582 355.171 358.015C357.394 362.805 360.501 368.835 362.397 373.535C366.144 368.46 370.022 363.844 374 358.967C375.48 357.153 378.545 353.621 379.681 351.797C380.471 353.359 383.379 359.39 384.162 360.518C379.125 363.412 367.068 373.659 362.126 377.695C360.194 374.304 348.767 352.293 348.975 349.736C350.321 351.119 351.232 355.164 352.071 356.746C354.622 361.553 359.044 372.278 362.265 376.263C363.892 376.109 366.154 373.486 367.243 372.311C366.959 372.196 366.047 371.426 365.745 371.187C363.596 371.522 364.67 372.988 362.473 373.339C359.335 371.214 353.944 355.195 351.549 351.278C349.891 348.567 349.087 344.987 347.586 342.201L347.393 342.496C347.225 344.504 347.586 347.393 348.685 349.11C347.714 349.295 348.115 349.067 347.465 349.856C346.651 346.754 346.565 342.133 346.516 338.926Z" fill="#989899"/>
<path d="M404.092 370.381C405.5 369.321 406.591 368.119 408.136 366.959L409.181 367.242C409.748 368.731 411.101 369.802 412.274 370.931L411.977 371.164C411.43 372.401 410.999 373.074 411.019 374.427L411.825 375.699L411.911 376.353C411.336 376.943 410.241 378.19 409.603 378.541L408.688 377.992L408.363 378.542C407.636 379.305 404.46 382.447 404.1 383.026L404.081 383.701C404.159 384.385 404.315 385.189 404.178 385.844L404.695 387.627C404.554 388.513 404.292 389.385 404.683 390.149L404.718 390.526C404.487 392.868 404.417 394.741 404.358 397.071L403.842 398.967C403.662 400.285 403.49 400.915 403.142 402.177C402.328 402.404 401.014 402.846 400.224 402.838L399.285 400.395C399.293 399.468 399.231 398.533 399.184 397.607L398.558 395.988L398.527 389.702L398.621 387.879L394.459 392.074C393.035 390.343 390.773 388.045 388.799 386.998C387.805 387.094 387.029 387.598 386.219 388.168L386.688 387.007C387.089 385.258 387.895 383.047 388.474 381.303C388.746 380.218 389.073 379.21 389.408 378.145C389.698 376.617 389.808 375.166 390.686 373.933C390.46 372.815 389.734 371.483 389.228 370.42C391.584 370.62 396.203 370.296 398.75 370.177L399.966 370.085C401.245 369.913 401.624 369.799 402.845 370.159L404.092 370.381Z" fill="#010101"/>
<path d="M395.011 378.497C395.183 377.864 397.256 376.527 397.901 376.061L398.558 376.367L398.116 376.777C399.227 378.979 398.093 384.311 398.621 387.879L394.459 392.075C393.035 390.343 390.773 388.046 388.799 386.999C387.805 387.094 387.029 387.598 386.219 388.168L386.688 387.007C387.089 385.258 387.895 383.048 388.474 381.304C390.518 380.137 392.101 377.301 394.103 377.353L395.011 378.497Z" fill="#2A2A2A"/>
<path d="M388.477 381.303C390.521 380.137 392.104 377.3 394.106 377.352L395.013 378.496C393.727 379.874 387.791 386.635 386.691 387.006C387.092 385.257 387.898 383.047 388.477 381.303Z" fill="#202020"/>
<path d="M395.011 378.497C395.183 377.864 397.256 376.527 397.901 376.061L398.558 376.367L398.116 376.777C396.778 378.138 389.068 385.69 388.799 386.999C387.805 387.094 387.029 387.598 386.219 388.168L386.688 387.007C387.788 386.636 393.724 379.875 395.011 378.497Z" fill="#777777"/>
<path d="M390.689 373.934C391.591 374.679 391.231 374.453 392.498 374.653C393.965 375.182 394.352 377.026 395.526 376.988C395.541 376.233 395.346 375.905 395.072 375.213C396.851 374.98 397.317 375.001 399.104 375.142L399.437 375.488C399.022 376.005 399.093 376.041 398.561 376.367L397.904 376.061C397.258 376.527 395.185 377.864 395.013 378.497L394.106 377.353C392.103 377.301 390.521 380.138 388.477 381.304C388.748 380.218 389.075 379.21 389.411 378.145C389.701 376.618 389.811 375.166 390.689 373.934Z" fill="#494949"/>
<path d="M390.688 373.934C391.591 374.679 391.231 374.453 392.498 374.653C392.494 376.473 390.948 378.462 389.41 378.145C389.7 376.618 389.811 375.166 390.688 373.934Z" fill="#202020"/>
<path d="M404.104 383.027C404.092 380.416 402.7 376.688 403.838 374.958L405.273 374.932C406.282 376.154 407.315 377.358 408.367 378.543C407.639 379.306 404.464 382.449 404.104 383.027Z" fill="#494949"/>
<path d="M411.019 374.426L411.825 375.698L411.911 376.352C411.336 376.942 410.241 378.189 409.603 378.54L408.688 377.991L408.363 378.541C407.311 377.356 406.279 376.152 405.27 374.93L406.232 375.098C408.156 374.948 409.13 374.821 411.019 374.426Z" fill="#202020"/>
<path d="M405.27 374.932L406.232 375.1C407.636 376.472 407.651 376.934 409.294 377.34C410.518 376.808 410.784 376.553 411.825 375.7L411.911 376.354C411.336 376.944 410.241 378.191 409.603 378.542L408.688 377.993L408.363 378.543C407.311 377.358 406.279 376.154 405.27 374.932Z" fill="#666666"/>
<path d="M404.094 370.381C405.502 369.321 406.593 368.119 408.138 366.959L409.182 367.242C409.749 368.731 411.103 369.802 412.276 370.931L411.979 371.164C410.817 370.22 405.873 370.415 404.094 370.381Z" fill="#202020"/>
<path d="M403.737 430.873L404.426 431.679C405.345 432.703 406.182 433.52 406.757 434.783C406.784 435.976 406.862 437.434 406.807 438.599L406.045 439.241C402.579 444.863 398.923 441.149 395.669 438.994L395.492 438.881C393.361 438.916 391.429 438.955 389.293 439.131C387.401 439.108 378.781 438.791 377.694 439.487C376.435 439.628 376.303 439.702 375.163 439.26C374.304 438.259 374.075 438.146 373.977 436.906L374.568 436.269C377.393 435.718 393.255 436.074 396.846 436.101L396.146 434.228C396.243 433.911 396.744 432.907 396.912 432.547C398.719 430.428 400.495 430.752 403.053 430.752L403.737 430.873Z" fill="#B9B9B9"/>
<path d="M403.737 430.873L404.426 431.679C405.345 432.703 406.182 433.52 406.757 434.783C405.76 435.495 404.801 435.722 403.98 436.312C402.842 437.165 402.627 437.372 401.266 437.724C399.932 437.583 399.513 437.063 398.457 436.21C398.074 436.023 396.126 437.602 395.02 437.966C395.684 437.399 396.4 436.867 396.846 436.101L396.146 434.228C396.244 433.911 396.744 432.907 396.913 432.547C398.719 430.428 400.495 430.752 403.053 430.752L403.737 430.873Z" fill="#CBCACB"/>
<path d="M398.457 436.211C399.052 434.334 398.625 434.909 399.951 433.767C402.321 433.282 403.291 433.876 403.98 436.312C402.841 437.165 402.626 437.372 401.265 437.724C399.932 437.583 399.513 437.063 398.457 436.211Z" fill="#F2F2F2"/>
<path d="M395.492 438.88C401.124 437.25 399.442 441.735 404.836 437.273L404.934 437.508C405.204 438.169 405.458 438.787 406.044 439.24C402.579 444.863 398.922 441.148 395.668 438.994L395.492 438.88Z" fill="#989899"/>
<path d="M411.912 376.354C412.624 378.601 413.762 381.846 414.235 384.075L414.932 386.343C413.93 387.995 411.482 390.189 410.019 391.61C408.259 389.697 406.292 387.02 404.18 385.845C404.317 385.19 404.16 384.386 404.082 383.701L404.102 383.027C404.461 382.448 407.637 379.306 408.365 378.543L408.689 377.993L409.605 378.542C410.242 378.19 411.337 376.944 411.912 376.354Z" fill="#202020"/>
<path d="M411.914 376.354C412.626 378.601 413.764 381.846 414.237 384.075C412.278 382.774 411.218 380.763 408.988 379.314L409.606 378.542C410.244 378.19 411.339 376.944 411.914 376.354Z" fill="#3E3E3E"/>
<path d="M408.365 378.542L408.689 377.992L409.605 378.541L408.987 379.313C407.942 380.626 405.866 383.868 404.082 383.701L404.102 383.026C404.461 382.448 407.637 379.305 408.365 378.542Z" fill="#B9B9B9"/>
<path d="M377.696 439.487C378.783 438.791 387.403 439.108 389.295 439.131C390.001 439.237 392.987 439.413 393.179 439.659C391.282 439.827 385.658 446.302 384.104 447.964C383.095 446.892 378.061 441.856 377.676 441.258L377.696 439.487Z" fill="#202020"/>
<path d="M382.018 406.202L385.093 403.676C387.152 405.861 389.148 407.992 391.302 410.084C389.331 412.074 387.196 414.158 385.311 416.207C383.128 414.33 382.73 413.458 381.066 411.844C381.44 410.217 381.744 407.895 382.018 406.202Z" fill="#202020"/>
<path d="M414.832 446.414C415.99 445.343 420.793 440.616 421.798 440.299L422.955 441.233C422.729 440.174 422.275 438.887 423.151 438.133L423.925 439.001C424.254 441.918 424.559 444.666 424.758 447.599C423.816 448.306 421.442 451.114 420.597 452.072C418.704 450.156 416.784 448.267 414.832 446.414Z" fill="#202020"/>
<path d="M386.221 388.168C387.032 387.597 387.808 387.094 388.801 386.998C389.715 388.639 393.253 392.164 393.116 393.478C391.567 392.277 388.568 389.48 387.26 388.773C388.647 390.505 390.527 393.001 392.017 394.549C390.191 396.367 387.85 398.576 386.137 400.433C385.193 399.128 385.137 398.592 383.832 398.041C383.905 397.016 385.812 389.942 386.221 388.168Z" fill="#202020"/>
<path d="M402.266 421.289C403.975 422.963 406.173 424.992 407.725 426.755C406.415 428.143 405.117 429.555 403.74 430.872L403.056 430.751C398.875 430.196 399.039 430.689 396.102 427.58C398.096 425.426 400.153 423.33 402.266 421.289Z" fill="#202020"/>
<path d="M395.645 490.24C396.927 488.849 398.57 486.925 400.045 485.822C401.214 486.991 404.245 490.24 405.516 490.835C405.16 492.872 404.327 493.411 403.76 494.999H402.415H397.498C396.892 493.713 395.711 491.539 395.645 490.24Z" fill="#202020"/>
<path d="M405.519 490.836C405.164 492.873 404.33 493.413 403.763 495H402.418C403.228 493.323 403.869 491.673 405.519 490.836Z" fill="#202020"/>
<path d="M382.644 450.957L387.727 456.122L383.836 459.985C383.205 460.278 381.524 462.053 380.927 462.644C380.041 460.834 378.136 457.26 378.205 455.407C379.601 453.979 381.186 452.279 382.644 450.957Z" fill="#202020"/>
<path d="M404.426 431.678C406.307 430.192 407.058 429.453 408.681 427.682C410.285 429.132 412.862 431.326 414.274 432.847C412.33 434.806 410.081 437.241 407.887 438.848C407.656 438.802 407.038 438.688 406.808 438.598C406.862 437.433 406.784 435.975 406.757 434.782C406.182 433.519 405.345 432.702 404.426 431.678Z" fill="#202020"/>
<path d="M408.425 476.779C409.935 478.281 410.416 478.719 412.172 479.899C410.846 482.101 408.46 486.288 406.876 488.06C405.234 486.382 404.088 485.119 402.598 483.301C404.037 481.342 406.552 479.18 408.425 476.779Z" fill="#202020"/>
<path d="M413.082 411.131C413.845 409.446 417.728 405.704 419.152 404.262C419.75 407.452 420.306 410.623 421.092 413.775C420.009 414.815 419.242 415.444 418.073 416.367C416.528 415.03 414.525 412.703 413.082 411.131Z" fill="#202020"/>
<path d="M420.758 453.457C421.685 454.478 422.436 454.97 423.531 455.78C422.456 459.592 420.934 461.304 418.771 464.479C417.156 462.989 415.768 461.586 414.242 460.018C416.432 457.848 418.603 455.662 420.758 453.457Z" fill="#202020"/>
<path d="M394.14 480.092C395.818 481.671 397.456 483.294 399.056 484.956C397.828 486.258 395.857 488.225 394.809 489.581C393.952 487.732 392.869 485.155 391.738 483.54C392.536 482.34 393.268 481.245 394.14 480.092Z" fill="#202020"/>
<path d="M422.432 426.172C422.921 429.73 423.339 433.3 423.687 436.877C422.017 436.69 418.916 432.897 417.469 431.396C419.534 429.472 420.684 428.436 422.432 426.172Z" fill="#202020"/>
<path d="M377.084 445.531L377.569 445.312C379.342 447.588 379.938 448.284 382.121 450.106C380.081 451.858 379.346 452.53 377.682 454.622C376.877 453.629 376.837 453.461 376.555 452.21C376.629 450.122 376.905 447.643 377.084 445.531Z" fill="#202020"/>
<path d="M412.957 393.217C413.958 391.528 414.279 391.286 415.757 389.98C416.469 392.506 417.431 395.579 417.963 398.108C417.392 398.464 417.705 398.335 416.97 398.335C415.511 397.213 413.36 395.012 412.957 393.217Z" fill="#202020"/>
<path d="M386.949 473.832C389.163 474.106 392.71 477.511 392.913 479.857C392.299 480.882 392.127 480.944 391.153 481.687C389.525 479.353 387.503 476.62 386.949 473.832Z" fill="#202020"/>
<path d="M394.039 429.645C395.216 430.661 395.877 431.4 396.913 432.546C396.745 432.905 396.244 433.91 396.147 434.227C394.301 434.399 391.32 434.356 389.391 434.387C390.077 433.476 393.084 430.599 394.039 429.645Z" fill="#202020"/>
<path d="M379.007 428.32C380.955 429.759 382.727 432.391 384.961 434.197C383.057 434.217 380.104 434.15 378.285 434.31L379.007 428.32Z" fill="#202020"/>
<path d="M412.982 476.889C411.926 475.646 411.606 475.708 411.555 474.328C412.771 471.916 415.212 470.055 417.222 468.002C417.261 469.566 414.222 476.428 412.982 476.889Z" fill="#202020"/>
<path d="M413.082 411.133C414.525 412.705 416.528 415.031 418.073 416.368C417.764 417.103 417.686 417.107 417.122 417.635C415.597 417.682 413.473 415.856 412.699 414.589C411.4 412.462 411.326 412.623 413.082 411.133Z" fill="#494949"/>
<path d="M403.143 402.178L403.038 402.913L402.58 403.327C400.132 405.028 397.504 409.067 395.368 409.478L394.68 408.832C394.781 407.663 398.943 404.105 400.226 402.839C401.016 402.846 402.33 402.405 403.143 402.178Z" fill="#202020"/>
<path d="M403.845 398.967L404.138 398.764C406.015 397.454 407.541 395.159 408.765 394.674L409.524 395.088C409.516 397.211 404.881 400.93 403.145 402.177C403.493 400.914 403.665 400.285 403.845 398.967Z" fill="#202020"/>
<path d="M418.959 403.007C417.218 404.856 413.8 408.958 411.653 409.72L411.312 409.411C411.61 407.98 417.473 402.491 418.826 402.041L418.959 403.007Z" fill="#202020"/>
<path d="M404.719 390.527C406.299 391.391 406.831 392.122 408.028 393.463L404.359 397.072C404.418 394.742 404.488 392.869 404.719 390.527Z" fill="#202020"/>
<path d="M412.955 393.217C412.807 393.264 411.954 393.275 411.735 393.283L411.273 392.619C411.547 391.203 414.078 388.662 415.142 387.438L415.756 389.98C414.277 391.285 413.956 391.528 412.955 393.217Z" fill="#202020"/>
<path d="M399.288 400.395C397.7 398.158 394.239 396.023 394.059 394.276C395.959 393.494 396.875 397.22 399.186 397.607C399.233 398.533 399.296 399.468 399.288 400.395Z" fill="#202020"/>
<path d="M398.527 389.701L398.558 395.987L395.562 393.188L398.527 389.701Z" fill="#202020"/>
<path d="M402.582 403.327L403.04 402.912C404.983 404.523 407.655 406.509 408.582 408.851C407.17 409.156 403.411 404.507 402.582 403.327Z" fill="#494949"/>
<path d="M381.081 412.434C381.998 413.771 384.297 416.5 384.575 417.642C381.724 417.133 382.458 416.52 380.43 415.151C380.723 414.428 380.915 413.235 381.081 412.434Z" fill="#202020"/>
<path d="M380.44 415.949C381.875 417.576 383.24 418.854 381.062 420.931L380.274 420.809C379.882 419.894 380.081 418.979 380.164 417.951L380.44 415.949Z" fill="#202020"/>
<path d="M404.698 387.627L408.542 391.273L408.296 391.605L408.061 392.113C407.091 390.895 406.395 389.625 405.112 389.087C404.839 389.626 404.823 389.569 404.686 390.149C404.295 389.385 404.557 388.513 404.698 387.627Z" fill="#494949"/>
<path d="M393.071 395.668C395.195 397.451 397.338 399.75 399.302 401.748L393.642 407.73C391.616 405.591 389.37 403.069 387.137 401.201C389.241 399.081 390.775 397.592 393.071 395.668Z" fill="#202020"/>
<path d="M405.524 455.799C407.249 457.515 409.619 459.689 410.929 461.66C408.782 463.814 406.619 465.957 404.444 468.088C402.344 466.125 400.959 464.749 399.039 462.594C401.534 460.182 403.275 458.43 405.524 455.799Z" fill="#202020"/>
<path d="M385.353 421.801C386.937 422.114 390.32 426.098 391.428 427.337C389.793 428.979 386.655 431.908 385.563 433.773C384.253 432.514 382.959 431.243 381.681 429.957C380.735 428.987 380.419 428.51 380.43 427.146C380.938 425.507 383.968 423.056 385.353 421.801Z" fill="#202020"/>
<path d="M410.652 396.742C412.068 396.985 415.314 401.039 416.382 402.263C415.178 403.796 412.06 406.732 410.484 408.327C409.021 407.85 405.885 404.046 404.395 402.545C406.072 401.407 408.728 398.384 410.652 396.742Z" fill="#202020"/>
<path d="M399.321 449.645C401.296 451.49 402.747 452.964 404.577 454.943L397.932 461.66C396.802 460.878 393.485 457.261 392.59 456.186C394.854 454.028 397.099 451.846 399.321 449.645Z" fill="#202020"/>
<path d="M396.287 465.145C397.605 465.672 400.965 469.516 402.095 470.732C400.085 472.726 398.106 474.751 396.162 476.808C395.032 476.307 391.394 472.448 390.129 471.24C392.192 469.219 394.245 467.186 396.287 465.145Z" fill="#202020"/>
<path d="M391.494 441.754C392.444 442.524 395.765 445.914 396.79 446.919C394.908 448.577 392.436 451.353 390.356 453.292C388.796 453.175 385.944 449.902 384.836 448.659C386.602 446.571 389.511 443.775 391.494 441.754Z" fill="#202020"/>
<path d="M414.231 447.229C414.986 447.725 418.881 451.795 419.757 452.683C417.946 454.704 415.408 457.144 413.464 459.119C411.567 457.394 410.128 455.557 407.77 453.481C410.37 451.518 412.021 449.61 414.231 447.229Z" fill="#202020"/>
<path d="M394.082 413.207C395.991 414.791 398.13 417.133 399.89 418.955C397.868 420.855 395.858 422.775 393.867 424.714C391.614 422.243 390.7 422.149 388.262 418.9C389.797 417.164 392.346 414.88 394.082 413.207Z" fill="#202020"/>
<path d="M415 433.922C416.627 435.142 419.005 437.656 420.518 439.161C418.481 441.253 416.294 443.361 414.21 445.413C412.52 444.186 410.447 441.828 408.961 440.248C411.03 438.117 413.04 436.166 415 433.922Z" fill="#202020"/>
<path d="M390.204 458.543C391.556 459.638 394.223 462.664 395.522 464.056L389.43 470.128C387.907 469.331 385.363 466.449 384.098 465.119L390.204 458.543Z" fill="#202020"/>
<path d="M407.906 441.023C409.697 442.802 411.582 444.484 413.452 446.185L407.417 452.159H406.678C404.863 450.986 403.342 448.906 401.941 447.209C403.451 445.262 406.017 443.24 407.906 441.023Z" fill="#202020"/>
<path d="M402.003 404.934C402.973 405.571 407.056 409.641 408.112 410.666L402.343 416.339C400.943 415.162 397.869 411.936 396.441 410.525C398.675 408.503 400.055 407.268 402.003 404.934Z" fill="#202020"/>
<path d="M411.824 462.508C413.029 463.466 415.309 465.777 416.514 466.918L410.186 473.722C408.457 472.951 406.775 470.684 405.484 469.19C407.569 466.824 410.08 464.971 411.824 462.508Z" fill="#202020"/>
<path d="M410.307 413.555C412.365 414.915 414.14 416.933 415.56 418.931C414.125 420.565 411.872 422.473 410.21 423.967C408.755 423.721 406.013 420.131 404.941 418.872C406.698 417.066 408.485 415.295 410.307 413.555Z" fill="#202020"/>
<path d="M416.46 419.725C417.039 420.022 421.396 424.385 422.17 425.14C420.132 426.68 418.333 428.667 416.554 430.516C415.556 430.055 412.181 426.301 411.125 425.242C413.288 423.255 414.653 422.067 416.46 419.725Z" fill="#202020"/>
<path d="M402.89 471.779C404.275 472.397 406.766 475.017 407.811 476.119L401.651 482.211C400.958 482.082 397.618 478.723 396.809 477.969C398.788 475.9 400.876 473.824 402.89 471.779Z" fill="#202020"/>
<path d="M391.831 410.834C392.816 411.768 392.703 411.377 392.785 412.449C391.737 414.181 388.961 416.543 387.356 418.106C386.335 417.457 386.552 417.805 386.258 416.828C386.888 415.596 390.557 412.144 391.831 410.834Z" fill="#202020"/>
<path d="M397.321 447.611L397.908 448.292C397.9 450.082 393.746 453.461 391.853 455.752L391.039 454.755C391.111 453.132 395.737 449.246 397.321 447.611Z" fill="#494949"/>
<path d="M386.344 419.723C388.522 420.164 393.27 424.063 392.71 426.655C391.018 426.366 386.519 421.748 386.344 419.723Z" fill="#2D2C2D"/>
<path d="M400.437 419.793C400.949 420.043 400.769 419.961 401.141 420.512C400.812 421.521 396.631 425.478 395.477 426.674C394.777 426.041 394.996 426.428 394.844 425.455C395.865 423.848 398.876 421.333 400.437 419.793Z" fill="#202020"/>
<path d="M397.649 463.244C398.967 463.815 403.187 468.061 403.453 469.613C401.568 469.43 398.423 465.856 397.41 464.315L397.649 463.244Z" fill="#202020"/>
<path d="M388.844 472.221C390.884 472.494 394.664 476.44 394.796 478.684C393.169 477.996 389.243 474.035 388.844 472.221Z" fill="#494949"/>
<path d="M412.891 460.891C414.635 461.027 417.846 464.339 417.967 466.228C415.91 465.829 412.973 462.936 412.891 460.891Z" fill="#494949"/>
<path d="M406.727 454.27C408.159 454.645 412.246 458.95 412.434 460.717C410.869 460.252 406.661 456.275 406.727 454.27Z" fill="#494949"/>
<path d="M410.203 426.143C411.568 426.764 414.408 429.407 415.358 430.682C415.612 431.018 415.432 431.409 415.354 431.968C413.618 431.433 410.191 428.234 410.203 426.143Z" fill="#202020"/>
<path d="M403.805 469.832C405.138 470.024 406.793 471.627 407.681 472.647C409.026 474.203 408.991 473.949 408.885 475.591C407.368 474.931 403.914 471.627 403.805 469.832Z" fill="#202020"/>
<path d="M403.398 419.799C405.221 420.092 409.097 424.127 409.175 425.969C407.544 425.363 403.571 421.621 403.398 419.799Z" fill="#202020"/>
<path d="M408.424 411.621C409.109 411.95 408.811 411.711 409.222 412.481C408.268 414.319 405.718 416.247 404.094 417.564L403.977 417.662L403.516 417.517C403.645 416.497 407.38 412.853 408.424 411.621Z" fill="#202020"/>
<path d="M395.359 478.962C397.397 478.896 400.354 481.887 400.346 484.178C398.813 483.591 395.657 480.53 395.359 478.962Z" fill="#494949"/>
<path d="M390.852 457.398L392.07 457.524C393.638 458.611 396.083 461.07 397.049 462.708C394.776 462.884 391.902 459.189 390.852 457.398Z" fill="#202020"/>
<path d="M394.883 411.639C396.537 411.787 399.576 415.271 400.945 416.62L400.789 417.214L400.37 417.625C398.825 416.245 395.567 413.469 394.883 411.639Z" fill="#494949"/>
<path d="M400.453 448.104C402.029 449.128 405.894 452.244 406.218 453.984C404.607 454.305 400.504 449.992 400.453 448.104Z" fill="#494949"/>
<path d="M355.855 399.879C357.469 404.02 358.768 408.543 360.304 412.813C363.72 422.49 367.435 432.054 371.443 441.5C372.384 443.729 375.219 450.478 376.557 452.21C376.84 453.461 376.879 453.629 377.685 454.622L378.206 455.408C378.138 457.261 380.043 460.835 380.929 462.645C381.525 462.055 383.207 460.28 383.838 459.987C385.922 459.721 386.295 457.074 388.56 456.996L389.279 457.848C388.311 460.182 383.15 463.642 382.728 465.304C384.249 466.645 387.698 469.507 388.446 471.15L388.111 471.814L387.377 471.959C386.648 471.208 386.148 470.594 385.488 469.781L385.153 469.93C385.758 471.052 386.752 472.643 386.95 473.832C387.504 476.62 389.525 479.353 391.153 481.687C391.062 482.95 390.93 482.441 391.74 483.54C392.87 485.155 393.954 487.732 394.81 489.581L395.647 490.242C395.714 491.54 396.895 493.714 397.501 495H372.262C371.56 490.625 370.525 486.035 369.602 481.679C365.699 463.267 362.493 444.738 359.532 426.158C358.164 417.575 356.225 408.571 355.855 399.879Z" fill="#494949"/>
<path d="M315.956 323.444L318.249 322.287C318.613 325.207 303.568 350.014 300.848 354.069C303.825 355.326 320.379 363.419 321.451 365.306C319.513 368.171 302.408 380.15 298.085 383.595C300.128 388.28 302.487 395.983 304.312 401.141C308.667 413.48 313.132 425.785 317.708 438.047C322.47 450.617 327.342 463.149 332.323 475.637C334.104 480.067 338.965 490.98 340.166 494.999H337.15C332.793 485.435 327.952 472.239 324.057 462.3C313.679 435.888 303.977 409.219 294.961 382.312C302.051 376.512 310.268 371.293 317.441 365.406C311.153 362.178 303.226 358.43 297.402 354.758C303.383 344.554 310.19 333.67 315.956 323.444Z" fill="#010101"/>
<path d="M353.978 393.631C354.6 395.707 355.212 397.815 355.856 399.879C356.226 408.571 358.165 417.575 359.532 426.158C362.494 444.738 365.7 463.267 369.603 481.679C370.526 486.035 371.561 490.625 372.263 495H370.144C369.407 491.896 368.851 487.794 368.203 484.549L362.577 455.795C360.184 442.599 357.922 429.38 355.789 416.14C354.753 409.869 353.384 402.675 352.95 396.309C352.858 394.964 353.272 394.659 353.978 393.631Z" fill="#010101"/>
<path d="M305.352 108.945C304.754 101.702 303.897 93.5195 304.507 86.3873C308.436 40.402 349.746 11.0858 393.624 8.81948C414.791 7.72614 439.983 11.7035 457.016 25.7122C465.526 32.9899 471.545 43.7794 472.367 55.0018C472.441 55.9491 472.492 56.8985 472.523 57.8482C476.282 59.2249 479.45 60.331 482.673 62.7548C496.135 72.8824 497.547 90.9526 496.213 106.398C496.025 108.537 495.88 112.074 495.388 114.116C494.195 123.863 493.025 133.579 490.913 143.173C490.381 145.587 489.677 149.895 488.887 152.152C517.098 149.261 515.041 186.626 501.137 201.3C494.856 207.929 487.929 213.397 478.347 214.124C477.655 214.175 476.958 214.212 476.262 214.233C475.269 215.023 473.505 223.941 473.012 225.749C469.817 237.463 462.988 247.278 454.125 255.448C452.197 257.223 449.706 258.994 447.836 260.908C448.172 273.796 447.598 280.357 449.174 293.79C448.356 294.826 446.1 297.746 445.067 298.42C442.267 299.432 440.323 299.848 437.452 300.332C411.85 304.936 388.038 295.807 368.785 279.074C364.566 275.407 358.262 267.945 353.965 265.068L353.898 261.136C351.932 259.087 347.747 255.716 345.391 253.398C332.472 240.687 329.538 231.374 325.611 214.282C304.266 214.528 286.877 189.26 290.718 169.101C293.11 156.552 300.611 150.089 313.437 152.462C311.488 148.733 311.625 145.88 310.56 142.091C307.568 131.454 307.778 119.412 305.352 108.945Z" fill="#DE946D"/>
<path d="M488.887 152.152C517.098 149.26 515.041 186.626 501.137 201.299C494.856 207.929 487.929 213.396 478.347 214.123C477.655 214.175 476.958 214.212 476.262 214.233C475.269 215.023 473.505 223.94 473.012 225.748C469.817 237.462 462.988 247.278 454.125 255.448C452.197 257.223 449.706 258.993 447.836 260.908C448.172 273.795 447.598 280.357 449.174 293.79C448.356 294.826 446.1 297.745 445.067 298.419C442.267 299.431 440.323 299.848 437.452 300.332C411.85 304.936 388.038 295.807 368.785 279.074C364.566 275.407 358.262 267.944 353.965 265.068L353.898 261.136C351.932 259.086 347.747 255.715 345.391 253.398C332.472 240.687 329.538 231.373 325.611 214.282C304.266 214.527 286.877 189.26 290.718 169.101C293.11 156.551 300.611 150.089 313.437 152.461C315.991 154.01 317.975 154.735 318.965 157.539C321.376 158.2 321.12 158.414 321.438 160.827C322.352 169.571 326.135 184.606 328.396 193.508C333.54 213.768 340.333 222.443 357.82 232.711C359.109 209.007 361.332 208.949 383.945 202.712C391.864 200.528 393.581 200.285 400.707 204.26C402.792 203.013 406.186 200.902 408.69 201.009C415.82 201.313 432.993 205.307 438.183 209.733C442.908 213.759 443.424 227.134 443.706 232.837C465.182 220.092 469.105 209.961 474.854 186.107C477.146 176.951 478.949 167.68 480.252 158.332C482.61 159.559 481.679 160.034 481.847 162.424C482.289 160.51 482.649 157.448 483.107 155.23C485.019 154.178 486.947 153.152 488.887 152.152Z" fill="#494949"/>
<path d="M447.837 260.91C448.173 273.797 447.598 280.359 449.174 293.792C448.357 294.828 446.1 297.747 445.068 298.421C442.267 299.433 440.324 299.85 437.453 300.334C411.85 304.938 388.039 295.809 368.786 279.076C364.567 275.409 358.263 267.947 353.966 265.07L353.898 261.138C372.578 273.637 379.781 280.924 403.512 280.193C423.717 279.571 432.122 271.655 447.837 260.91Z" fill="#B96D4E"/>
<path d="M325.611 214.282C304.266 214.527 286.877 189.26 290.718 169.101C293.11 156.551 300.611 150.089 313.437 152.461C315.991 154.01 317.975 154.735 318.965 157.539C320.842 176.491 323.058 195.409 325.611 214.282Z" fill="#DE946D"/>
<path d="M300.815 166.051C303.818 166.483 306.686 167.583 309.207 169.271C315.423 173.419 318.858 181.291 319.17 188.648C319.219 189.805 319.153 190.795 318.491 191.779L317.777 191.891C314.908 188.323 318.036 180.564 308.858 182.927L308.495 183.023C306.245 187.768 309.288 189.227 307.661 191.624C305.401 191.351 304.705 187.855 304.779 185.969C305.015 179.97 309.992 179.69 314.364 179.835C312.149 175.468 308.836 171.915 304.254 170.056C302.806 169.469 301.258 169.105 299.987 168.293C299.875 167.13 300.057 167.311 300.815 166.051Z" fill="#B96D4E"/>
<path d="M488.887 152.153C517.098 149.262 515.041 186.627 501.137 201.301C494.856 207.93 487.929 213.398 478.347 214.125C477.655 214.176 476.959 214.213 476.262 214.234C475.711 213.173 478.23 197.507 478.441 194.689C479.243 184.025 481.136 173.104 481.847 162.425C482.289 160.512 482.649 157.45 483.107 155.231C485.019 154.179 486.948 153.153 488.887 152.153Z" fill="#DE946D"/>
<path d="M499.597 166.188C500.626 166.262 501.075 167.074 501.396 167.91C500.45 169.554 495.721 169.751 492.69 172.548C489.455 175.532 489.342 176.117 486.999 179.878C492.397 179.513 493.531 179.372 496.554 184.144C496.566 185.747 496.363 187.629 496.23 189.251C495.459 190.412 495.052 191.349 493.797 191.796L493.312 191.455C492.913 188.834 493.965 187.484 493.562 184.151L493.507 183.704C485.537 177.397 485.235 190.82 483.092 192.076C482.611 191.762 482.232 191.623 482.196 190.916C481.563 178.496 487.785 169.597 499.597 166.188Z" fill="#B96D4E"/>
<path d="M399.778 211.174C400.952 210.939 408.879 213.118 411.054 213.427C418.939 214.544 425.158 211.481 432.053 215.577C437.431 226.806 438.94 233.446 431.873 244.917C427.176 252.542 415.501 260.485 407.843 250.601C404.479 246.254 413.037 242.606 411.07 239.405C409.2 238.904 404.874 239.793 402.708 240.13C399.637 240.166 391.424 238.967 389.969 241.041C390.56 243.544 395.922 246.904 393.712 250.193C390.289 255.294 384.565 256.699 379.3 253.914C368.069 247.982 361.413 233.269 367.202 221.28C371.023 213.364 381.606 215.533 389.059 213.829C393.074 212.911 395.695 212.521 399.778 211.174Z" fill="#DE946D"/>
<path d="M426.615 216.004C427.957 215.818 428.473 215.827 429.451 216.663C430.037 219.549 426.197 222.834 424.362 224.667C420.901 228.124 416.564 230.131 411.925 231.534C401.357 234.745 389.948 233.609 380.223 228.378C377.602 226.684 371.085 222.063 372.574 218.662C373.71 218.04 378.209 218.319 379.786 218.356C395.51 218.73 410.959 216.904 426.615 216.004Z" fill="#B96D4E"/>
<path d="M424.429 218.729L424.762 218.727L425.141 219.129C423.713 222.571 415.864 227.159 412.359 228.348C401.991 231.872 391.885 230.699 382.084 226.05C379.596 224.744 378.012 222.988 376.133 220.983C383.215 220.499 390.788 220.778 397.935 220.453C406.794 220.05 415.586 219.394 424.429 218.729Z" fill="#F2F2F2"/>
<path d="M305.351 108.945C304.754 101.702 303.897 93.5195 304.506 86.3874C308.435 40.402 349.745 11.0858 393.623 8.81948C414.79 7.72614 439.982 11.7035 457.015 25.7122C465.525 32.9899 471.545 43.7794 472.366 55.0018C472.44 55.9492 472.491 56.8985 472.523 57.8482C476.281 59.2249 479.449 60.331 482.672 62.7548C496.134 72.8824 497.546 90.9526 496.212 106.398C496.024 108.537 495.88 112.074 495.387 114.116C493.474 110.701 488.621 106.009 485.058 104.146C485.554 106.235 486.743 110.475 486.356 112.385L485.785 112.72C483.904 111.098 482.793 104.652 481.248 101.294C478.284 100.613 472.257 95.901 465.975 94.5955C464.317 89.0101 462.522 85.6144 457.727 82.1118C456.843 81.5023 455.044 80.6945 454.019 80.1936L452.658 79.8292C450.135 79.8253 438.238 83.1081 434.479 83.9108C426.379 85.6015 418.173 86.7232 409.921 87.2675C396.541 88.0925 383.108 87.1318 369.98 84.4101C362.979 82.9947 355.738 81.0518 348.725 80.169C347.036 79.9563 342.889 82.6987 341.582 83.9542C337.803 87.5854 336.364 90.781 335.079 95.686C333.594 95.8522 328.869 96.8148 327.957 96.4539C323.132 96.2788 313.956 104.709 310.147 107.067C310.064 107.119 309.031 106.387 308.85 106.23L305.351 108.945Z" fill="#494949"/>
<path d="M481.249 101.294C478.151 94.1773 474.756 88.1861 468.885 83.0652C467.618 81.9599 467.047 81.8023 466.77 80.2415L467.204 79.7793C470.708 80.5343 476.997 88.6318 479.07 91.7903C481.526 95.5294 483.333 100.012 485.058 104.146C485.555 106.236 486.744 110.475 486.357 112.385L485.786 112.72C483.904 111.098 482.793 104.652 481.249 101.294Z" fill="#989899"/>
<path d="M452.66 79.8309C455.433 76.3949 459.254 72.8943 462.364 69.6303C465.203 66.654 467.702 61.1476 470.413 58.7782C471.715 58.7672 471.316 58.5768 472.102 59.3107C472.411 63.1526 458.331 78.3342 454.021 80.1953L452.66 79.8309Z" fill="#989899"/>
<path d="M308.852 106.231C312.7 102.153 323.854 93.1978 329.669 93.4996C329.437 95.0879 329.128 95.0054 327.959 96.4544C323.134 96.2792 313.958 104.709 310.148 107.068C310.066 107.119 309.032 106.387 308.852 106.231Z" fill="#989899"/>
<path d="M358.426 37.2602C374.58 35.2108 393.498 42.1716 405.521 52.8449C414.966 61.2306 422.89 69.4834 435.386 73.3042C436.399 73.6131 437.491 74.2856 437.893 75.2701L437.131 75.6615C433.568 75.5199 428.581 73.0805 425.147 71.6127C416.742 66.6881 411.669 61.579 404.43 55.212C390.896 43.3058 372.861 37.6167 354.987 40.4899C352.564 40.8793 345.183 43.115 343.629 42.7045L343.352 41.9999C344.558 39.3935 355.466 37.6536 358.426 37.2602Z" fill="#989899"/>
<path d="M375.41 24.7985C391.358 24.0224 407.762 27.3298 421.036 36.6018C431.901 44.1936 442.758 58.9138 444.996 72.1474C442.895 69.575 440.56 64.3951 438.996 61.2343C425.354 35.8891 403.835 26.4602 375.292 27.2039C372.661 27.2725 363.018 28.6179 361.554 27.9007L361.516 27.1655C363.748 25.2817 372.385 24.973 375.41 24.7985Z" fill="#989899"/>
<path d="M354.949 53.3379C363.66 52.554 373.659 55.4141 380.981 60.024C384.58 62.2902 400.448 73.6842 401.257 76.9861C398.95 77.6559 385.04 65.3063 381.482 63.3275C377.14 60.9131 375.731 60.0967 370.833 58.0893C345.99 52.8183 338.221 58.7732 319.285 73.4155C324.707 61.5148 342.514 54.4339 354.949 53.3379Z" fill="#989899"/>
<path d="M427.684 23.8828C441.099 29.6616 448.613 39.0256 454.745 52.2865C455.989 54.9778 458.954 63.9132 457.941 66.4378C455.707 65.0592 454.933 60.4529 454.108 57.9243C452.927 54.3283 451.421 50.8461 449.614 47.5203C445.495 39.9839 440.7 34.4751 433.578 29.7085C432.19 28.7791 428.099 26.1095 427.195 25.0355L427.684 23.8828Z" fill="#989899"/>
<path d="M473.973 70.6777C480.841 72.0255 492.918 89.3783 490.388 95.0852C488.835 93.8368 485.769 85.7314 484.165 83.0261C480.798 77.3419 478.213 76.1352 473.773 71.6732L473.973 70.6777Z" fill="#989899"/>
<path d="M327.958 96.4554C328.869 96.8163 333.595 95.8537 335.079 95.6875C333.647 105.267 335.862 110.618 332.857 119.82C331.151 125.049 326.268 129.479 325.336 132.961L325.226 133.362C319.889 141.084 321.402 151.188 321.438 160.829C321.12 158.416 321.376 158.202 318.964 157.541C317.975 154.736 315.991 154.012 313.437 152.463C311.488 148.735 311.625 145.882 310.559 142.092C307.568 131.455 307.778 119.413 305.352 108.947L308.85 106.232C309.031 106.388 310.064 107.12 310.147 107.069C313.956 104.71 323.133 96.2803 327.958 96.4554Z" fill="#777777"/>
<path d="M325.944 108.576L326.494 108.763L326.74 109.395C325.892 111.11 315.817 116.626 312.766 119.3L311.937 119.038L311.918 118.274C314.792 114.071 321.423 111.056 325.944 108.576Z" fill="#989899"/>
<path d="M452.659 79.8301L454.02 80.1945C455.045 80.6954 456.844 81.5031 457.728 82.1127C451.658 84.1518 445.459 87.2172 439.064 89.361C419.809 95.683 399.3 97.2008 379.325 93.7827C371.755 92.5605 361.412 89.219 354.282 90.0444C349.055 90.6497 342.33 96.1232 340.156 101.101C334.441 114.19 336.705 122.454 325.227 133.362L325.337 132.961C326.268 129.478 331.152 125.048 332.858 119.82C335.862 110.617 333.648 105.267 335.08 95.6869C336.365 90.7819 337.804 87.5863 341.583 83.9551C342.89 82.6996 347.037 79.9572 348.727 80.1699C355.74 81.0527 362.98 82.9956 369.982 84.411C383.109 87.1327 396.542 88.0934 409.922 87.2684C418.175 86.7241 426.38 85.6023 434.48 83.9117C438.239 83.109 450.136 79.8262 452.659 79.8301Z" fill="#B96D4E"/>
<path d="M465.977 94.5957C472.258 95.9012 478.285 100.613 481.25 101.294C482.794 104.652 483.905 111.098 485.786 112.72L486.357 112.385C486.745 110.475 485.556 106.236 485.059 104.146C488.622 106.009 493.476 110.702 495.388 114.116C494.195 123.864 493.026 133.579 490.914 143.173C490.382 145.587 489.678 149.895 488.888 152.152C486.948 153.152 485.02 154.178 483.107 155.23C482.65 157.449 482.29 160.511 481.848 162.424C481.68 160.035 482.611 159.56 480.252 158.332C479.99 152.564 480.233 143.609 478.993 138.302C477.78 133.111 468.914 123.868 467.928 118.738C466.286 110.197 467.643 103.91 465.977 94.5957Z" fill="#777777"/>
<path d="M350.593 177.641C358.54 176.733 373.709 181.549 367.917 192.841C365.869 196.835 360.056 198.133 355.908 199.049C334.328 200.203 327.814 181.678 350.593 177.641Z" fill="#E57664"/>
<path d="M445.462 177.601C466.703 176.184 472.359 195.585 451.622 198.74C446.373 199.274 441.375 199.108 436.768 196.213C429.379 191.572 430.698 183.162 438.316 179.712C440.839 178.57 442.779 178.175 445.462 177.601Z" fill="#E57664"/>
<path d="M359.487 131.041C364.506 130.667 377.592 130.574 379.391 136.365C379.096 140.376 376.317 140.053 373.192 139.662C368.958 139.133 365.147 138.901 360.903 139.399C354.999 139.693 347.461 142.934 344.322 142.8C342.762 141.91 341.806 140.358 343.041 138.758C346.403 134.408 354.415 132.303 359.487 131.041Z" fill="#202020"/>
<path d="M436.848 130.758C441.823 130.954 458.324 134.301 459.008 140.334C458.734 141.608 458.453 141.773 457.471 142.666C455.132 143.545 449.352 140.711 445.652 140.052C438.33 138.674 432.428 139.302 425.126 139.769C421.039 140.03 420.57 134.525 425.306 132.874C429.53 131.403 432.444 131.084 436.848 130.758Z" fill="#202020"/>
<path d="M388.509 144.441C395.973 144.607 390.651 181.818 389.883 187.12C387.769 201.719 410.269 192.456 411.524 192.854L411.739 193.603L410.918 194.869C404.402 200.048 390.81 200.316 387.672 192.772C384.742 185.723 391.472 168.211 389.522 159.291C389.196 157.796 388.218 145.225 388.509 144.441Z" fill="#B96D4E"/>
<path d="M362.477 154.445C368.745 154.462 370.187 159.967 368.992 165.193C368.319 168.141 367.227 169.069 364.672 170.572C356.825 169.899 356.558 159.304 362.477 154.445Z" fill="#494949"/>
<path d="M436.436 154.486C444.344 154.678 445.021 165.908 438.36 170.448C430.323 169.854 429.689 157.926 436.436 154.486Z" fill="#202020"/>
</g>
<defs>
<clipPath id="clip0_9359_15065">
<rect width="801" height="495" fill="white"/>
</clipPath>
</defs>
</svg>
