<svg width="802" height="495" viewBox="0 0 802 495" fill="none" xmlns="http://www.w3.org/2000/svg">
<path d="M393.181 51.3998C392.069 49.4073 387.812 44.4357 388.241 42.6467C395.138 39.7686 414.003 49.1815 419.987 52.6907C419.091 50.3965 416.977 46.6869 415.736 44.3825C429.572 45.3072 440.527 51.3509 447.404 63.6163C447.533 60.9672 447.396 57.4897 447.368 54.7826L448.167 54.3983C452.997 55.1688 457.224 67.86 458.366 71.9832C459.4 69.9003 460.182 65.9555 461.051 63.3983L461.509 63.3811C466.343 67.9336 465.952 77.8308 464.452 83.7466C469.783 86.5542 472.359 89.1978 474.664 94.9958C475.822 97.9165 476.746 106.383 475.447 109.1C473.846 109.546 473.267 107.856 471.814 108.277C471.204 111.742 472.632 113.868 471.404 119.686C471.067 123.716 470.734 129.422 470.096 133.314C469.043 139.752 467.795 145.595 466.969 152.134C476.507 152.46 479.971 158.913 479.666 167.86C479.392 175.916 475.31 181.204 470.19 186.978C467.775 189.772 466.781 191.291 463.897 193.859C463.732 194.006 463.564 194.153 463.396 194.299C461.928 192.161 459.368 190 456.566 190.683C454.789 191.889 451.912 203.604 449.646 207.382C445.588 214.155 442.586 217.195 437.094 222.633C450.938 226.268 468.214 229.107 476.679 242.543C478.965 246.168 478.903 251.674 480.131 253.72C485.415 262.487 490.488 259.908 489.979 271.623C495.814 274.025 501.552 276.652 507.184 279.499C524.668 288.147 535.572 296.692 542.875 315.066C551.137 335.849 556.084 358.013 560.08 379.962C562.147 391.316 564.335 402.303 565.814 413.702C567.767 421.943 568.464 430.043 570.022 438.245C572.429 450.923 573.391 459.763 572.464 472.691C558.554 473.18 543.615 472.66 529.615 472.848C525.838 472.899 509.959 473.114 507.125 472.766C487.701 473.145 467.392 472.82 447.897 472.832L330.051 472.836L264.672 472.817C256.679 472.82 240.786 473.396 233.247 472.758L232.963 472.014C230.001 461.179 244.68 379.151 247.85 363.654C250.037 353.321 252.542 343.058 255.362 332.879C257.704 324.541 261.833 313.707 265.892 306.148C273.3 292.354 286.222 284.884 299.872 278.387C304.256 276.3 309.94 273.135 314.584 271.762C313.42 260.541 319.277 261.862 324.273 253.782C325.41 251.943 325.363 246.716 326.897 244.042C335.657 228.776 352.487 226.967 367.198 222.754L367.763 222.479C356.297 211.754 353.427 206.037 349.062 190.815C342.414 191.419 338.757 190.829 333.646 185.862C328.436 180.651 324.977 174.562 325.081 167.041C325.211 157.699 328.89 152.195 338.475 152.195C336.57 144.514 334.04 131.31 333.832 123.467C333.314 119.242 333.378 115.465 332.905 111.384L332.412 111.029C331.318 111.645 331.076 111.8 329.89 112.163C325.922 109.568 332.748 97.0861 334.725 94.048C332.002 94.518 330.243 95.0189 327.614 95.7815C329.489 90.7658 331.23 86.4704 336.388 83.8882C332.049 80.6646 330.934 79.9822 329.427 74.7063C339.112 75.3981 339.62 74.7732 347.423 68.9944C345.981 68.5315 341.175 67.3235 340.572 66.5386C340.869 65.6961 341.21 65.1498 341.828 64.5226C349.072 57.1735 357.38 56.3909 366.814 56.0434C363.778 53.6447 362.473 53.1665 358.895 51.9132C370.093 46.251 381.731 46.7335 393.181 51.3998ZM423.838 400.065C425.126 399.709 426.609 399.529 427.944 399.326C428.175 396.716 428.128 392.31 428.183 389.561L424.257 388.938C424.006 392.83 423.834 396.168 423.838 400.065Z" fill="#B14C32"/>
<path d="M393.18 51.3998C392.069 49.4073 387.812 44.4357 388.24 42.6467C395.137 39.7686 414.002 49.1815 419.986 52.6907C419.09 50.3965 416.977 46.6869 415.736 44.3825C429.572 45.3072 440.527 51.3509 447.403 63.6163C447.532 60.9672 447.395 57.4897 447.368 54.7826L448.166 54.3983C452.996 55.1688 457.223 67.86 458.366 71.9832C459.399 69.9003 460.182 65.9555 461.051 63.3983L461.509 63.3811C466.343 67.9336 465.951 77.8308 464.452 83.7466C469.783 86.5542 472.358 89.1978 474.663 94.9958C475.822 97.9165 476.746 106.383 475.446 109.1C473.845 109.546 473.266 107.856 471.814 108.277C471.204 111.742 472.632 113.868 471.403 119.686C469.99 121.032 470.014 120.893 469.689 123.06C469.658 127.851 467.485 151.775 463.955 153.454L464.264 154.264C463.18 154.871 461.27 155.795 461.161 156.962C460.836 160.415 458.593 175.006 458.718 177.503C457.842 180.724 457.442 183.071 456.906 186.375L455.615 185.288C450.573 203.603 449.466 208.887 435.274 222.182C427.713 228.602 419.517 234.174 409.689 236.314C390.919 237.64 383.163 233.156 368.603 221.424L367.762 222.479C356.296 211.754 353.427 206.037 349.062 190.815C342.413 191.419 338.757 190.829 333.646 185.862C328.436 180.651 324.976 174.562 325.08 167.041C325.21 157.699 328.889 152.195 338.475 152.195C336.57 144.514 334.04 131.31 333.831 123.467C333.314 119.242 333.378 115.465 332.905 111.384L332.412 111.029C331.317 111.645 331.076 111.8 329.889 112.163C325.921 109.568 332.747 97.0861 334.724 94.048C332.002 94.518 330.242 95.0189 327.613 95.7815C329.489 90.7658 331.229 86.4704 336.388 83.8882C332.048 80.6647 330.934 79.9822 329.426 74.7063C339.111 75.3981 339.619 74.7732 347.422 68.9944C345.981 68.5315 341.175 67.3235 340.572 66.5386C340.869 65.6961 341.209 65.1498 341.828 64.5226C349.072 57.1735 357.379 56.3909 366.813 56.0434C363.778 53.6447 362.473 53.1665 358.894 51.9132C370.093 46.251 381.731 46.7335 393.18 51.3998Z" fill="#D87C5B"/>
<path d="M393.18 51.3998C392.069 49.4073 387.812 44.4357 388.24 42.6467C395.137 39.7686 414.002 49.1815 419.986 52.6907C419.09 50.3965 416.977 46.6869 415.736 44.3825C429.571 45.3072 440.526 51.3509 447.403 63.6163C447.532 60.9672 447.395 57.4897 447.368 54.7826L448.166 54.3983C452.996 55.1688 457.223 67.86 458.366 71.9832C459.399 69.9003 460.182 65.9555 461.051 63.3983L461.509 63.3811C466.342 67.9336 465.951 77.8308 464.452 83.7466C469.783 86.5542 472.358 89.1978 474.663 94.9958C475.822 97.9165 476.745 106.383 475.446 109.1C473.845 109.546 473.266 107.856 471.814 108.277C471.203 111.742 472.632 113.868 471.403 119.686C469.99 121.032 470.014 120.893 469.689 123.06C467.16 122.38 452.385 121.935 450.025 122.601L449.266 122.858C449.751 119.144 449.732 116.819 449.517 113.177C447.544 111.232 442.922 107.417 440.233 106.955C426.632 104.621 414.969 111.64 400.867 111.126C396.151 110.944 391.462 110.268 386.885 109.109C375.959 106.439 365.659 103.63 355.918 111.953C355.493 116.709 355.85 120.962 355.76 125.613C350.663 133.489 348.374 134.794 346.178 145.231L344.986 145.159C345.652 138.782 348.025 134.538 351.514 129.352C352.827 127.4 353.981 125.969 353.5 123.771C352.799 123.076 351.909 122.625 350.499 122.63C345.931 122.647 340.684 122.502 336.158 123.086C335.718 123.474 335.359 123.79 335.082 124.033C334.555 124.022 334.359 123.782 333.831 123.467C333.314 119.242 333.378 115.465 332.904 111.384L332.412 111.029C331.317 111.645 331.075 111.8 329.889 112.163C325.921 109.568 332.747 97.0861 334.724 94.048C332.002 94.518 330.242 95.0189 327.613 95.7815C329.488 90.7658 331.229 86.4704 336.387 83.8882C332.048 80.6647 330.933 79.9822 329.426 74.7063C339.111 75.3981 339.619 74.7732 347.422 68.9944C345.98 68.5315 341.174 67.3235 340.571 66.5386C340.869 65.6961 341.209 65.1498 341.827 64.5226C349.072 57.1735 357.379 56.3909 366.813 56.0434C363.778 53.6447 362.473 53.1665 358.894 51.9132C370.093 46.251 381.731 46.7335 393.18 51.3998Z" fill="#281716"/>
<path d="M355.918 111.953C359.95 91.7375 392.127 107.978 405.403 106.03C416.225 104.442 427.172 101.263 438.08 101.491C441.266 101.655 445.493 104.457 447.379 107.275C448.557 109.041 449.293 111.066 449.516 113.178C447.543 111.233 442.921 107.418 440.232 106.956C426.632 104.622 414.968 111.641 400.867 111.127C396.15 110.945 391.461 110.269 386.885 109.109C375.958 106.44 365.659 103.631 355.918 111.953Z" fill="#BF5A42"/>
<path d="M413.444 82.0899C416.611 75.0707 417.159 71.4555 416.771 63.9483C416.759 63.6611 417.112 63.5484 417.393 63.3594C418.877 63.8352 419.718 64.8757 420.693 66.0465C425.311 71.5932 428.677 79.2776 426.924 86.5774L426.603 86.7688C425.66 84.6792 424.693 76.3679 423.08 71.8374L422.775 72.0647C421.061 73.3685 419.112 75.9003 417.863 76.38L417.343 75.6322C416.063 80.0822 414.157 81.5265 413.754 86.7977C410.885 80.9395 409.045 76.2814 403.664 72.2514C401.789 70.8474 392.599 67.2431 391.891 66.2194C392.947 65.9032 395.182 66.2585 396.118 66.6796C404.493 70.4471 409.648 73.6444 413.444 82.0899Z" fill="#4B3331"/>
<path d="M417.344 75.6324C418.189 72.9903 417.884 69.3039 419.038 67.3501L419.794 67.3027C421.132 68.2462 422.201 70.3655 423.082 71.8376L422.776 72.0649C421.062 73.3687 419.113 75.9005 417.864 76.3802L417.344 75.6324Z" fill="#180102"/>
<path d="M359.926 78.0614C371.588 76.2024 376.945 84.4045 383.298 92.2321C384.621 93.8619 387.285 94.7592 388.424 96.8691C379.53 95.4596 378.045 83.6661 368.5 80.2899C363.55 78.5388 364.379 79.5077 360.278 78.7004L359.926 78.0614Z" fill="#4B3331"/>
<path d="M380.613 68.1709C382.504 68.1705 385.567 69.6097 387.164 70.5665C393.622 74.4349 398.127 81.3172 399.924 88.5473C399.861 88.5332 399.798 88.5195 399.736 88.5054C398.397 88.4033 397.896 86.3368 397.266 85.1582C395.767 82.3529 394.233 79.687 392.417 77.0606C391.544 75.6366 390.133 74.6278 388.827 73.6335C386.414 71.7979 383.903 70.046 381.036 68.9919C380.895 68.7183 380.754 68.4448 380.613 68.1709Z" fill="#4B3331"/>
<path d="M349.506 84.7126C356.528 84.2916 362.979 87.5762 366.276 94.5109C366.609 95.2106 366.22 95.7345 365.867 96.3254C362.673 91.8708 360.462 88.3803 355.065 86.6743C353.711 86.2462 349.562 85.8772 348.918 85.2699L349.506 84.7126Z" fill="#4B3331"/>
<path d="M442.629 72.7256C447.118 75.66 447.247 88.537 444.277 92.7048C442.805 91.1228 443.639 90.3695 444.555 88.0385C446.664 82.6635 443.764 78.367 442.703 73.1079L442.629 72.7256Z" fill="#4B3331"/>
<path d="M433.493 73.3896C437.865 75.6087 436.558 87.7024 435.102 91.651L434.824 91.3685C434.655 90.744 434.875 86.8693 435.09 86.0699C435.849 83.2153 433.051 75.3317 433.493 73.3896Z" fill="#4B3331"/>
<path d="M357.781 67.8661C362.192 66.9442 368.672 69.3765 369.888 73.9763C368.494 73.5784 366.059 71.0298 364.746 70.4068C362.396 69.2908 360.223 69.1907 357.781 67.8661Z" fill="#4B3331"/>
<path d="M454.379 84.6797L455.201 85.1673C455.357 87.8332 449.534 93.6206 447.193 95.0817C446.493 94.9323 446.778 95.1029 446.32 94.5429C449.205 92.3027 452.532 87.7882 454.379 84.6797Z" fill="#4B3331"/>
<path d="M397.512 57.1699C402.263 58.03 405.535 61.45 406.216 66.175C404.674 64.501 403.163 61.7153 401.418 60.3074C400.173 59.3037 399.112 59.2681 397.594 58.0715L397.512 57.1699Z" fill="#4B3331"/>
<path d="M344.215 93.8379C344.69 93.877 355.059 97.8734 355.42 98.1348C354.439 98.3011 353.439 98.3207 352.453 98.1923C349.427 97.7811 346.097 96.3278 344.215 93.8379Z" fill="#4B3331"/>
<path d="M335.082 124.033C335.359 123.79 335.718 123.474 336.159 123.086C340.684 122.502 345.931 122.647 350.5 122.631C351.909 122.625 352.799 123.077 353.501 123.772C353.981 125.97 352.827 127.401 351.514 129.353C348.026 134.538 345.652 138.783 344.986 145.159L346.179 145.232C344.101 164.524 348.601 198.169 361.423 213.728C363.515 216.267 366.265 219.074 368.603 221.424L367.762 222.48C356.296 211.754 353.427 206.037 349.062 190.815C342.413 191.419 338.757 190.829 333.646 185.862C328.436 180.651 324.976 174.562 325.08 167.042C325.21 157.699 328.889 152.196 338.475 152.196C336.57 144.514 334.04 131.311 333.831 123.467C334.359 123.782 334.556 124.023 335.082 124.033Z" fill="#281716"/>
<path d="M335.082 124.033C335.359 123.79 335.718 123.474 336.158 123.086C340.684 122.502 345.931 122.647 350.499 122.631C351.909 122.625 352.799 123.077 353.5 123.772C353.981 125.97 352.827 127.401 351.514 129.353C348.025 134.538 345.651 138.783 344.986 145.159L344.439 154.811L340.016 152.84C336.318 143.934 337.16 132.537 335.082 124.033Z" fill="#4B3331"/>
<path d="M335.123 153.501C338.978 153.214 340.863 154.22 343.976 156.253C344.114 167.163 346.536 178.509 348.586 189.221C345.436 189.554 344.335 189.78 341.187 189.148C340.898 189.005 340.61 188.86 340.324 188.713C330.822 183.816 322.555 169.209 328.144 159.052C329.635 156.343 332.148 154.344 335.123 153.501Z" fill="#D87C5B"/>
<path d="M331.032 161.749C338.442 154.709 345.696 173.678 343.659 178.162C342.474 177.078 342.51 173.519 341.245 171.074C339.958 170.613 339.523 170.349 338.232 170.809C336.212 172.462 337.389 174.688 335.667 175.252L334.855 174.984C334.15 167.761 330.506 170.928 331.032 161.749Z" fill="#B14C32"/>
<path d="M331.031 161.749C338.441 154.709 345.695 173.678 343.658 178.162C342.473 177.078 342.509 173.519 341.244 171.074C341.446 169.921 341.661 169.832 341.301 168.922C337.755 164.198 337.212 162.162 331.031 161.749Z" fill="#5A0A07"/>
<path d="M341.302 168.922C341.662 169.832 341.448 169.921 341.245 171.074C339.958 170.613 339.524 170.349 338.232 170.809C336.212 172.462 337.39 174.689 335.667 175.252L334.855 174.985C334.868 169.918 336.38 168.68 341.302 168.922Z" fill="#7D2214"/>
<path d="M450.027 122.601C452.387 121.935 467.162 122.38 469.691 123.06C469.659 127.851 467.487 151.775 463.957 153.453L460.188 155.045C460.227 147.925 460.047 141.442 456.708 134.877C454.521 130.575 450.724 127.288 450.027 122.601Z" fill="#4B3331"/>
<path d="M449.266 122.859L450.025 122.602C450.722 127.289 454.518 130.576 456.706 134.878C460.045 141.442 460.225 147.926 460.186 155.046L463.955 153.454L464.264 154.265C463.18 154.872 461.27 155.796 461.16 156.963C460.835 160.416 458.593 175.007 458.718 177.504C457.841 180.724 457.442 183.072 456.906 186.376L455.614 185.289C458.675 171.093 461.747 149.582 455.818 135.834C453.688 130.896 449.234 128.714 449.266 122.859Z" fill="#281716"/>
<path d="M364.107 169.103C380.896 168.026 388.569 179.936 370.244 184.173C365.809 184.331 351.434 183.964 354.504 174.251C355.367 171.52 361.284 169.804 364.107 169.103Z" fill="#BF5A42"/>
<path d="M434.418 169.115C441.842 168.613 455.533 170.964 448.715 181.366C446.05 182.749 444.132 183.163 441.232 183.921C436.265 184.722 426.582 183.915 424.559 178.256C424.073 176.934 424.195 175.465 424.895 174.242C426.762 170.958 431.079 169.916 434.418 169.115Z" fill="#BF5A42"/>
<path d="M370.27 135.824C374.663 135.573 388.7 135.578 390.151 140.425C388.789 145.535 380.621 142.589 376.423 142.082C373.998 141.961 372.403 142.024 370.032 142.171C366.757 142.375 360.564 144.888 357.932 143.6C357.022 139.77 367.344 136.635 370.27 135.824Z" fill="#390D0D"/>
<path d="M425.686 135.88C432.567 135.1 438.543 136.042 444.426 139.883C445.811 140.789 447.815 141.931 448.183 143.587L447.741 144.165C445.216 145.214 442.559 143.307 439.224 142.603L438.762 142.507C432.433 141.546 426.927 142.111 420.657 143.208C414.25 144.327 413.357 138.676 419.298 137.171C421.385 136.642 423.565 136.274 425.686 135.88Z" fill="#390D0D"/>
<path d="M429.026 149.76C434.733 149.817 436.11 158.928 430.181 162.867C423.089 161.411 423.641 153.405 429.026 149.76Z" fill="#390D0D"/>
<path d="M374.028 150.18C380.664 149.674 381.473 158.247 377.215 162.308C369.598 163.192 369.336 154.725 374.028 150.18Z" fill="#390D0D"/>
<path d="M423.098 194.812L423.611 195.179L423.576 195.841C416.187 203.601 401.102 205.079 391.054 202.591C388.495 201.957 385.789 200.848 383.331 199.87C382.425 199.047 382.6 199.442 382.422 198.377C383.688 197.625 404.641 207.77 423.098 194.812Z" fill="#5A0A07"/>
<path d="M397.189 152.32C402.117 154.658 394.047 177.63 396.833 182.173C400.058 184.785 407.694 182.112 409.174 183.409L408.876 184.133C398.559 187.493 391.906 185.446 395.236 173.115C397.15 166.037 396.285 159.163 397.189 152.32Z" fill="#5A0A07"/>
<path d="M409.444 209.842C409.906 210.034 409.687 209.911 410.015 210.484L409.444 211.155C405.699 212.551 400.685 212.407 396.736 211.898L396.043 211.114C397.252 210.243 402.967 210.913 404.88 210.638C406.442 210.415 407.882 210.157 409.444 209.842Z" fill="#9B442E"/>
<path d="M368.605 221.424C383.165 233.156 390.921 237.639 409.691 236.314C419.519 234.174 427.714 228.602 435.276 222.182C435.35 222.503 435.601 223.653 435.702 223.887C434.943 224.6 434.258 225.192 433.62 226.02C434.877 229.089 439.812 229.44 442.943 230.101C446.43 231.167 450.055 232.223 453.503 233.36C458.552 235.441 462.708 237.673 464.97 243.048C466.227 245.981 466.246 249.297 465.021 252.244C460.184 263.884 438.779 279.806 428.998 288.664C419.914 296.891 411.429 304.34 402.618 313.184C400.016 311.437 395.468 306.83 393.022 304.487C389.324 300.978 385.566 297.533 381.749 294.154C370.545 284.112 345.397 264.902 339.71 252.612C339.178 251.221 338.964 249.874 338.668 248.416C339.224 247.367 338.902 247.72 340.037 247.154C341.665 236.932 349.135 237.795 351.55 234.082L351.382 233.355C353.983 232.227 361.277 230.26 364.039 229.725C365.993 231.014 368.731 230.352 371.007 230.622L370.889 227.816C370.465 225.324 370.804 224.679 368.252 224.194C368.028 223.369 367.901 223.463 367.199 222.753L367.764 222.479L368.605 221.424Z" fill="#4A494B"/>
<path d="M368.605 221.424C383.165 233.156 390.92 237.639 409.691 236.314C419.518 234.174 427.714 228.602 435.276 222.182C435.35 222.503 435.6 223.653 435.702 223.887C434.943 224.6 434.258 225.192 433.62 226.02C433.585 233.144 433.808 238.754 434 245.743L432.974 246.191C433.103 246.875 433.534 248.906 433.573 249.486L434.313 252.029C436.305 255.759 437.424 257.538 441.326 259.296C439.733 261.639 437.178 264.404 434.978 266.124C413.945 282.59 379.735 280.074 362.852 259.151C369.88 256.185 370.758 250.871 372.051 244.08L371.87 243.691C371.172 243.327 371.451 243.443 370.6 243.412C371.066 238.777 371.068 235.271 371.007 230.622L370.889 227.816C370.465 225.324 370.804 224.679 368.252 224.194C368.028 223.369 367.901 223.463 367.199 222.753L367.764 222.479L368.605 221.424Z" fill="#D87C5B"/>
<path d="M368.601 221.424C383.161 233.156 390.917 237.639 409.687 236.314C419.515 234.174 427.711 228.602 435.272 222.182C435.347 222.503 435.597 223.653 435.699 223.887C434.939 224.6 434.255 225.192 433.617 226.02C433.581 233.144 433.804 238.754 433.996 245.743L432.971 246.191C433.1 246.875 433.53 248.906 433.57 249.486C432.536 249.719 430.9 250.594 429.554 250.916C408.572 255.943 387.55 248.098 373.065 232.531C373.007 234.491 372.924 235.645 372.649 237.584C372.537 239.851 372.492 241.838 372.047 244.08L371.867 243.691C371.168 243.327 371.447 243.443 370.597 243.412C371.063 238.777 371.065 235.271 371.003 230.622L370.886 227.816C370.462 225.324 370.801 224.679 368.249 224.194C368.025 223.369 367.897 223.463 367.195 222.753L367.76 222.479L368.601 221.424Z" fill="#B14C32"/>
<path d="M368.601 221.424C383.161 233.156 390.917 237.639 409.687 236.314L411.335 237.309C409.049 237.747 406.74 238.03 404.415 238.155C393.045 238.686 380.595 233.777 372.285 226.208C372.716 229.048 372.634 234.575 372.649 237.584C372.537 239.851 372.492 241.838 372.047 244.08L371.867 243.691C371.168 243.327 371.447 243.443 370.597 243.412C371.063 238.777 371.065 235.271 371.003 230.622L370.886 227.816C370.462 225.324 370.801 224.679 368.249 224.194C368.025 223.369 367.897 223.463 367.195 222.753L367.76 222.479L368.601 221.424Z" fill="#5A0A07"/>
<path d="M435.273 222.183C435.347 222.503 435.597 223.653 435.699 223.887C434.94 224.601 434.255 225.192 433.617 226.02C433.582 233.144 433.805 238.754 433.997 245.743L432.971 246.191C431.777 239.183 431.856 234.151 431.997 227.124C423.742 231.597 421.374 234.929 411.335 237.31L409.688 236.314C419.515 234.175 427.711 228.603 435.273 222.183Z" fill="#5A0A07"/>
<path d="M433.618 226.021C434.875 229.09 439.81 229.441 442.941 230.102C446.429 231.168 450.053 232.223 453.501 233.361L453.078 233.934C454.847 236.786 466.44 238.55 463.896 250.17C462.808 255.162 459.661 258.945 456.252 262.606L445.337 257.971L444.221 258.356L444.26 259.074L443.309 259.063L443.121 259.501L442.252 258.904L441.325 259.297C437.423 257.539 436.303 255.76 434.311 252.03L433.571 249.487C433.532 248.906 433.102 246.875 432.973 246.192L433.998 245.744C433.806 238.755 433.583 233.145 433.618 226.021Z" fill="#893221"/>
<path d="M435.44 251.968C438.109 257.136 441.283 255.902 445.338 257.97L444.222 258.356L444.262 259.074L443.311 259.063L443.123 259.501L442.254 258.904L441.326 259.296C437.424 257.539 436.305 255.759 434.312 252.029L435.44 251.968Z" fill="#5A0A07"/>
<path d="M432.973 246.191L433.998 245.743C434.374 247.452 434.926 250.393 435.438 251.968L434.311 252.029L433.571 249.486C433.532 248.906 433.102 246.875 432.973 246.191Z" fill="#180102"/>
<path d="M351.382 233.355C353.983 232.227 361.277 230.26 364.039 229.725C365.993 231.014 368.731 230.352 371.007 230.622C371.068 235.271 371.066 238.777 370.601 243.412C370.413 248.512 369.541 254.581 364.148 256.033C358.889 257.449 353.034 261.27 348.21 262.439C345.068 259.384 343.509 256.459 341.435 252.668L339.71 252.612C339.178 251.221 338.964 249.874 338.668 248.416C339.224 247.367 338.902 247.72 340.037 247.154C341.665 236.932 349.135 237.795 351.55 234.082L351.382 233.355Z" fill="#893221"/>
<path d="M338.668 248.415C339.224 247.367 338.902 247.72 340.037 247.154C340.426 249.421 340.563 250.566 341.435 252.668L339.71 252.612C339.178 251.221 338.964 249.873 338.668 248.415Z" fill="#180102"/>
<path d="M453.503 233.36C458.552 235.441 462.709 237.673 464.971 243.048C466.227 245.981 466.247 249.297 465.022 252.244C460.184 263.884 438.779 279.807 428.999 288.664C419.915 296.891 411.429 304.341 402.619 313.184C400.016 311.437 395.468 306.83 393.022 304.487C389.325 300.978 385.567 297.533 381.75 294.155C370.546 284.112 345.398 264.902 339.711 252.612L341.436 252.668C343.51 256.459 345.069 259.384 348.211 262.439C353.035 261.27 358.89 257.449 364.149 256.033C369.542 254.582 370.414 248.512 370.601 243.412C371.452 243.443 371.173 243.327 371.871 243.691L372.052 244.08C370.759 250.871 369.881 256.185 362.853 259.151C379.736 280.074 413.946 282.59 434.979 266.124C437.179 264.404 439.734 261.639 441.327 259.296L442.255 258.904L443.124 259.501C431.778 276.883 403.39 282.466 384.718 275.65C375.786 272.389 365.795 267.503 360.973 258.871C358.561 259.859 351.638 262.052 350.753 263.781C351.293 266.152 362.596 275.208 365.182 277.543C377.631 288.784 390.613 299.271 402.157 311.505C412.952 299.011 427.668 288.548 439.472 277.228L440.051 276.946C445.155 272.492 450.192 267.794 455.288 263.418C452.118 261.967 447.758 260.555 444.263 259.074L444.224 258.356L445.339 257.97L456.255 262.606C459.664 258.944 462.811 255.161 463.899 250.17C466.443 238.55 454.85 236.785 453.081 233.933L453.503 233.36Z" fill="#281716"/>
<path d="M365.539 275.051C370.52 277.098 376.648 280.714 381.793 282.321C395.366 286.561 415.135 286.781 428.125 280.443C430.696 279.188 435.589 275.836 438.356 275.672C439.158 275.625 439.526 276.33 440.05 276.945L439.471 277.228C437.311 275.769 435.502 278.324 433.557 279.538C416.254 290.342 380.416 290.041 365.539 275.051Z" fill="#2F2E31"/>
<path d="M481.239 403.622C486.003 403.266 494.406 403.454 499.29 403.517C500.421 403.642 502.061 403.732 503.059 404.155L502.304 404.941C500.625 405.066 498.997 404.745 498.312 406.491C497.087 409.609 496.922 413.002 495.991 416.34C498.523 416.406 500.523 416.402 503.059 416.312L502.907 418.007C502.402 431.233 502.437 444.475 503.012 457.697C503.177 461.782 503.196 467.241 503.607 471.224C501.439 471.905 481.713 471.482 477.862 471.443L469.138 471.51C452.257 471.572 435.377 471.518 418.492 471.345C419.796 470.755 419.862 471.017 421.424 471.232C420.844 469.15 421.099 454.159 421.118 450.919C422.637 449.327 424.179 447.918 425.788 446.423C436.884 445.899 451.138 446.357 462.41 446.415C465.936 442.995 474.449 434.978 476.985 431.303C477.388 424.784 477.079 414.853 477.02 408.13C478.613 406.049 479.283 405.375 481.239 403.622Z" fill="#B14C32"/>
<path d="M481.24 403.622C486.003 403.266 494.407 403.454 499.291 403.517C500.422 403.642 502.062 403.732 503.06 404.155L502.305 404.941C499.037 404.425 486.771 405.055 482.191 404.969C480.935 405.966 479.64 406.925 478.544 408.091C478.223 416.082 478.489 424.178 478.227 432.246C473.409 437.102 467.816 443.34 462.99 447.82C451.702 448.787 437.303 447.237 426.105 448.059C425.029 449.076 423.679 450.289 422.728 451.385C422.747 454.324 423.049 468.919 422.477 470.888L421.424 471.232C420.845 469.15 421.1 454.159 421.119 450.919C422.638 449.327 424.18 447.918 425.788 446.423C436.884 445.899 451.139 446.357 462.411 446.415C465.937 442.995 474.45 434.978 476.986 431.303C477.389 424.784 477.08 414.853 477.021 408.13C478.614 406.049 479.283 405.375 481.24 403.622Z" fill="#EA8967"/>
<path d="M474.687 456.127C472.62 454.331 471.066 453.161 472.773 450.449C474.777 449.107 476.628 449.123 478.522 450.645C479.896 453.306 478.632 454.664 476.769 456.464C476.616 460.385 476.146 467.436 476.886 471.149L475.724 471.005C474.808 469.619 475.082 467.843 475.086 466.039C474.859 462.584 474.706 459.586 474.687 456.127Z" fill="#EA8967"/>
<path d="M474.499 450.658C475.172 450.235 476.025 450.219 476.714 450.622C477.399 451.021 477.806 451.773 477.771 452.567C477.731 453.362 477.254 454.07 476.534 454.402C475.512 454.876 474.299 454.473 473.759 453.487C473.223 452.497 473.544 451.26 474.499 450.658Z" fill="#B14C32"/>
<path d="M475.086 466.039C475.082 467.843 474.808 469.62 475.724 471.005L476.886 471.15L477.861 471.443L469.137 471.509C471.227 469.776 472.597 467.8 475.086 466.039Z" fill="#9B442E"/>
<path d="M493.27 426.033C493.286 423.669 492.785 418.148 494.127 416.434L495.658 416.281L495.63 417.682C495.286 418.371 494.08 423.923 493.27 426.033Z" fill="#D87C5B"/>
<path d="M495.656 416.281L495.989 416.34C498.521 416.406 500.521 416.403 503.057 416.313L502.905 418.007L495.629 417.682L495.656 416.281Z" fill="#BF5A42"/>
<path d="M485.929 435.209L486.724 435.69C487.667 437.623 487.017 456.226 486.724 459.235L486.109 459.036C485.503 457.756 485.561 437.522 485.929 435.209Z" fill="#EA8967"/>
<path d="M431.316 459.7C431.778 459.81 432.902 460.107 433.309 460.154C433.042 463.394 434.444 469.483 432.314 471.314L431.7 471.115C430.894 467.835 432.44 463.105 431.316 459.7Z" fill="#D87C5B"/>
<path d="M431.317 459.7C430.949 457.775 430.839 458.444 431.414 456.844C432.408 456.179 431.923 456.284 433.187 456.503C434.326 458.018 434.135 458.319 433.309 460.154C432.902 460.107 431.778 459.81 431.317 459.7Z" fill="#EA8967"/>
<path d="M493.481 443.896C494.233 444.103 494.319 444.232 494.937 444.69C495.622 445.981 495.352 446.791 495.176 448.27C494.217 448.141 494.264 448.149 493.426 447.656C492.8 446.384 493.199 445.351 493.481 443.896Z" fill="#BF5A42"/>
<path d="M493.754 428.568C494.334 428.784 494.698 429.069 495.202 429.41C495.621 430.967 495.265 431.221 494.831 433.006C494.173 432.861 494.298 432.857 493.692 432.509C493.062 431.241 493.484 429.969 493.754 428.568Z" fill="#EA8967"/>
<path d="M469.69 123.06C470.015 120.893 469.991 121.032 471.404 119.686C471.067 123.716 470.735 129.422 470.097 133.314C469.044 139.752 467.795 145.595 466.97 152.134C476.508 152.46 479.971 158.913 479.666 167.86C479.392 175.916 475.31 181.204 470.191 186.978C467.776 189.772 466.782 191.291 463.897 193.859C463.733 194.006 463.564 194.153 463.396 194.299C461.928 192.161 459.369 190 456.566 190.683C454.79 191.889 451.913 203.604 449.647 207.382C445.588 214.155 442.586 217.195 437.095 222.633C450.938 226.268 468.214 229.107 476.68 242.543C478.966 246.168 478.903 251.674 480.132 253.72C485.416 262.487 490.488 259.908 489.979 271.624C495.815 274.025 501.553 276.652 507.185 279.499C524.668 288.147 535.572 296.692 542.875 315.066C551.138 335.849 556.085 358.013 560.081 379.962C562.147 391.316 564.335 402.304 565.815 413.702C565.458 414.661 565.454 414.806 564.766 415.526L564.049 411.35L563.955 410.263C562.754 404.268 562.171 398.003 560.875 392.102C558.914 383.17 557.529 374.23 555.721 365.273C554.993 361.458 554.139 357.666 553.165 353.905C552.515 351.372 551.157 346.915 550.977 344.479C545.22 326.414 540.492 304.087 524.821 292.051L523.682 291.341C516.112 284.289 499.181 277.949 489.795 272.655C487.831 276.641 485.13 279.013 481.881 281.855L480.989 282.519L479.212 283.903C476.5 284.707 473.944 286.258 471.447 287.622L469.85 288.655L470.105 291.445L470.03 292.008C469.76 292.202 468.887 292.869 468.641 292.932C466.504 292.237 464.84 293.242 463.42 291.769C462.152 292.388 459.604 293.544 458.492 294.232L457.471 294.589C458.042 296.524 458.363 297.729 457.635 299.756C456.692 300.281 455.756 300.82 454.793 301.302C453.322 301.661 451.838 302.012 450.375 302.388C450.347 300.991 450.093 299.269 449.932 297.852L449.611 297.865L449.408 297.999C448.343 298.321 447.181 298.634 446.163 299.065C444.062 299.484 431.835 304.488 429.925 305.498C429.631 307.316 429.283 309.106 429.326 310.947C429.009 315.583 428.931 320.234 429.099 324.878C429.142 326.385 429.428 332.529 429.279 333.651C428.551 332.887 428.574 331.341 428.465 330.28C428.531 330.66 428.226 336.535 428.136 337.054C426.891 330.442 427.561 310.024 428.524 303.257C429.49 303.712 430.128 304.285 431.146 303.496C435.334 301.338 439.893 300.018 444.206 298.174C452.797 294.5 461.897 290.838 470.296 286.774C476.026 284.002 486.453 277.875 488.492 271.607C491.11 263.546 481.744 260.232 479.056 254.841C477.721 252.166 477.694 248.034 475.838 244.214C471.349 234.964 458.934 230.166 449.58 227.113C447.381 227.279 444.79 228.91 442.942 230.101C439.811 229.44 434.876 229.09 433.619 226.02C434.257 225.192 434.942 224.6 435.702 223.887C435.6 223.653 435.349 222.503 435.275 222.182C449.467 208.887 450.574 203.604 455.615 185.288L456.907 186.375C457.443 183.071 457.842 180.724 458.719 177.503C458.594 175.006 460.837 160.415 461.161 156.962C461.271 155.796 463.181 154.871 464.265 154.264L463.956 153.454C467.486 151.775 469.658 127.851 469.69 123.06Z" fill="#180102"/>
<path d="M464.262 154.265C467.053 153.61 470.297 153.009 472.653 154.969C484.501 164.815 475.792 178.526 468.399 186.607C467.088 185.191 465.264 183.084 463.918 181.799C462.614 183.046 461.268 184.302 460.027 185.609C458.329 183.864 459.542 180.813 458.716 177.503C458.591 175.006 460.833 160.415 461.158 156.963C461.268 155.796 463.178 154.872 464.262 154.265Z" fill="#EA8967"/>
<path d="M462.242 177.376C461.554 178.187 461.961 178.018 461.08 178.103C459.397 174.771 462.606 166.626 464.755 163.618C466.755 160.818 470.579 159.022 473.522 161.61C473.773 163.416 474.09 165.391 474.242 167.191C473.389 167.992 470.152 170.652 469.851 171.258C470.191 173.617 470.673 174.611 468.653 176.192C466.896 176.381 463.452 176.419 462.242 177.376Z" fill="#7D2214"/>
<path d="M473.526 161.61C473.777 163.417 474.094 165.392 474.246 167.192C473.393 167.993 470.156 170.653 469.855 171.258C468.34 169.486 466.207 169.109 464.016 168.506C466.775 163.437 467.644 162.2 473.526 161.61Z" fill="#B14C32"/>
<path d="M462.245 177.376C462.179 175.264 462.558 171.402 464.441 170.423C467.92 168.612 468.218 175.318 468.656 176.193C466.899 176.381 463.455 176.419 462.245 177.376Z" fill="#D87C5B"/>
<path d="M435.699 223.887C438.764 225.533 445.605 225.848 449.578 227.113C447.378 227.279 444.787 228.91 442.94 230.101C439.809 229.44 434.874 229.089 433.617 226.02C434.255 225.192 434.94 224.6 435.699 223.887Z" fill="#9B442E"/>
<path d="M449.609 297.865C451.911 296.299 454.807 295.326 457.468 294.589C458.04 296.524 458.361 297.729 457.633 299.756C456.69 300.282 455.754 300.82 454.791 301.302C453.32 301.661 451.836 302.012 450.373 302.388C450.345 300.991 450.091 299.269 449.93 297.852L449.609 297.865Z" fill="#893221"/>
<path d="M449.934 297.853C453.855 299.567 453.421 300.649 454.795 301.303C453.323 301.661 451.84 302.012 450.376 302.389C450.348 300.991 450.094 299.269 449.934 297.853Z" fill="#9B442E"/>
<path d="M456.907 186.375C457.443 183.072 457.842 180.724 458.719 177.503C459.545 180.813 458.331 183.864 460.03 185.609C459.036 186.712 458.507 186.891 458.386 188.125C459.024 189.071 458.934 188.577 458.738 189.64C458.3 189.885 458.085 189.676 457.415 189.494L458.249 189.847C456.961 189.109 457.353 189.537 456.711 188.265L456.907 186.375Z" fill="#D87C5B"/>
<path d="M463.418 291.769C465.629 290.659 467.598 289.902 469.848 288.655L470.103 291.445L470.029 292.008C469.758 292.202 468.886 292.869 468.639 292.933C466.502 292.237 464.839 293.242 463.418 291.769Z" fill="#893221"/>
<path d="M463.816 184.244C465.48 185.44 465.209 186.052 468.035 187.56C467.002 188.826 465.284 190.36 464.055 191.527L463.472 191.562C462.11 190.579 460.959 188.842 459.934 187.463C461.39 186.417 462.478 185.435 463.816 184.244Z" fill="#9F9B9E"/>
<path d="M292.713 363.774C293.608 366.063 297.398 374.834 297.477 376.623C298.389 397.264 300.141 422.19 298.474 442.526C297.574 450.192 298.353 462.772 297.824 471.334C284.589 471.753 268.195 471.62 254.887 471.389C255.8 470.786 266.392 471.009 268.238 471.009L270.098 471.135C270.663 471.107 273.332 471.045 273.563 470.857C275.727 468.939 276.606 465.449 277.615 462.823C281.632 452.364 284.02 441.771 284.899 430.615C285.141 427.532 285.318 424.335 285.737 421.247L285.56 418.993C286.044 419.968 281.923 401.839 281.948 402.007C283.04 402.437 284.102 402.742 284.938 403.533C287.247 405.36 289.93 407.383 292.081 409.336C292.047 408.53 291.831 407.344 291.708 406.522C290.563 399.909 284.318 389.293 283.993 386.794L285.239 385.364L285.723 385.108C287.685 386.002 289.721 391.204 291.684 393.21L292.037 393.163C292.833 391.872 292.283 390.388 292.528 388.909C293.554 382.713 293.596 376.998 292.81 370.749C292.548 368.67 292.3 365.876 292.713 363.774Z" fill="#893221"/>
<path d="M285.559 418.993L285.918 418.355C287.908 421.607 293.1 433.769 293.379 437.498L292.882 438.054C292.047 437.06 291.773 435.542 291.411 434.278C290.096 429.695 287.577 425.614 285.736 421.247L285.559 418.993Z" fill="#390D0D"/>
<path d="M284.938 403.533C287.247 405.361 289.93 407.384 292.08 409.336C291.981 410.71 291.706 412.459 291.527 413.86C289.787 410.639 285.82 405.873 284.938 403.533Z" fill="#B14C32"/>
<path d="M424.39 305.35C424.617 303.486 425.47 298.285 428.402 300.165C428.997 301.359 428.762 301.971 428.523 303.258C427.56 310.025 426.891 330.443 428.136 337.054C428.226 336.535 428.531 330.661 428.465 330.281C428.574 331.341 428.551 332.887 429.279 333.652C430.625 351.59 432.492 367.254 430.151 385.324C429.22 392.51 430.32 400.297 428.551 407.583C427.713 411.022 430.206 415.519 426.112 417.737C425.255 417.812 424.742 417.929 424.05 417.272C420.375 413.805 423.611 381.241 423.932 374.824C424.152 370.179 424.198 365.528 424.073 360.88C423.874 348.798 422.429 337.983 422.253 326.157C422.465 321.504 421.611 312.291 423.326 307.985C423.349 307.941 424.026 306.056 424.39 305.35ZM423.838 400.066C425.126 399.71 426.609 399.53 427.944 399.326C428.175 396.716 428.128 392.31 428.183 389.561L424.257 388.939C424.007 392.831 423.834 396.169 423.838 400.066Z" fill="#010000"/>
<path d="M424.39 305.35C424.617 303.486 425.47 298.285 428.402 300.165C428.996 301.359 428.762 301.971 428.523 303.258C427.56 310.025 426.891 330.443 428.135 337.054C428.312 345.281 429.458 353.519 429.603 361.819C429.767 371.242 428.574 380.211 428.182 389.561L424.257 388.939C424.398 380.036 426.312 370.553 425.818 361.086C424.903 343.6 422.327 322.762 424.39 305.35Z" fill="#FCF1EE"/>
<path d="M423.838 400.066C425.125 399.71 426.609 399.53 427.943 399.326C427.967 401.694 428.382 404.91 425.442 405.634C423.27 404.362 423.72 402.277 423.838 400.066Z" fill="#FCF1EE"/>
<path d="M423.796 405.536C425.146 405.65 425.444 405.626 426.571 406.346C428.109 408.447 427.444 413.546 427.416 416.485C426.172 416.54 425.69 416.677 424.641 416.066C423.15 414.25 423.894 408.635 423.796 405.536Z" fill="#4B3331"/>
<path d="M367.198 222.754C367.9 223.463 368.027 223.369 368.251 224.195C362.239 225.816 356.689 226.364 350.75 228.606C338.276 233.315 329.855 237.229 326.466 251.224L326.182 253.116C323.414 261.324 315.253 260.847 315.6 270.769L314.765 272.775C312.743 274.018 304.472 278.424 302.447 278.576L301.625 279.385C298.515 280.615 295.497 282.067 292.595 283.731L290.981 284.708C287.617 286.722 284.278 288.778 280.964 290.873C278.021 293.514 275.078 296.128 272.625 299.251C260.677 313.442 252.922 345.908 249.759 363.885C248.601 367.433 247.959 371.188 247.325 374.864C245.741 384.067 243.823 393.339 242.83 402.629C241.055 408.843 239.776 419.697 238.837 426.373C237.249 437.666 234.554 451.46 234.016 462.702C233.695 464.756 233.311 470.845 232.963 472.015C230.001 461.18 244.68 379.152 247.85 363.654C250.037 353.322 252.542 343.058 255.362 332.88C257.704 324.542 261.833 313.708 265.892 306.148C273.3 292.354 286.222 284.885 299.872 278.388C304.256 276.3 309.94 273.136 314.584 271.762C313.42 260.541 319.277 261.863 324.273 253.782C325.41 251.943 325.363 246.716 326.897 244.042C335.657 228.776 352.487 226.968 367.198 222.754Z" fill="#010000"/>
<path d="M505.284 366.065C505.789 364.899 505.871 361.693 506.063 360.178C506.896 353.613 506.877 345.448 509.303 339.328L509.624 339.359C509.863 341.483 509.644 342.672 509.382 344.805C510.297 346.573 512.802 351.679 513.793 353.039C515.374 349.453 516.192 347.601 518.603 344.4C516.92 350.728 513.311 357.186 510.978 363.306C509.718 366.62 506.998 373.287 506.45 376.457C505.327 382.917 505.393 390.632 504.931 397.292C503.808 413.445 503.863 429.68 503.706 445.841C503.644 452.235 505.068 465.617 504.599 471.135L503.609 471.225C503.198 467.241 503.178 461.783 503.014 457.697C502.438 444.475 502.403 431.233 502.908 418.007L503.061 416.313C500.524 416.403 498.524 416.407 495.992 416.34C496.924 413.002 497.088 409.61 498.313 406.491C498.998 404.746 500.626 405.067 502.305 404.942L503.061 404.155C502.063 403.732 500.423 403.642 499.292 403.517L499.851 395.12L499.781 394.912L500.29 393.273C500.497 389.629 502.051 384.174 502.274 380.118C502.419 377.471 502.489 371.355 503.386 369.331C503.706 369.013 504.994 367.258 505.346 366.795L505.284 366.065Z" fill="#281716"/>
<path d="M503.339 394.462C503.35 397.659 503.331 400.856 503.284 404.053C503.229 408.06 503.241 412.333 503.061 416.312C500.524 416.402 498.524 416.406 495.992 416.34C496.924 413.002 497.088 409.609 498.313 406.491C498.998 404.745 500.626 405.066 502.305 404.941L503.061 404.155C502.063 403.732 500.423 403.642 499.292 403.517L499.851 395.119C500.321 394.971 502.38 394.712 503.339 394.462Z" fill="#893221"/>
<path d="M509.38 344.805C510.296 346.573 512.801 351.679 513.791 353.039C511.45 357.893 508.945 364.785 506.922 369.966C507.384 361.247 507.646 353.409 509.38 344.805Z" fill="#893221"/>
<path d="M503.382 369.331C503.703 369.013 504.991 367.257 505.343 366.795C504.952 371.026 504.454 375.038 504.239 379.276C504.106 381.91 503.793 392.701 503.335 394.462C502.376 394.713 500.317 394.971 499.848 395.119L499.777 394.912L500.286 393.273C500.494 389.629 502.047 384.174 502.271 380.118C502.415 377.47 502.486 371.354 503.382 369.331Z" fill="#893221"/>
<path d="M500.286 393.273C501.644 393.296 502.204 393.054 503.128 393.731L503.335 394.462C502.376 394.713 500.317 394.971 499.848 395.12L499.777 394.912L500.286 393.273Z" fill="#9B442E"/>
<path d="M300.16 441.693C300.229 451.55 299.189 461.27 299.36 471.272C305.316 471.961 322.928 471.487 329.755 471.448C356.875 471.749 384.945 471.421 412.083 471.311L413.981 471.237L418.49 471.346C435.375 471.519 452.255 471.573 469.136 471.511L477.86 471.444C481.711 471.483 501.437 471.906 503.605 471.225L504.596 471.135C505.864 471.761 507.241 471.636 508.658 471.636L508.322 471.73C506.885 472.117 506.635 472.145 505.104 472.129L507.124 472.767C487.699 473.146 467.39 472.822 447.895 472.833L330.049 472.837L264.67 472.818C256.677 472.822 240.784 473.397 233.245 472.759L232.961 472.016C233.309 470.846 233.693 464.757 234.015 462.702L234.147 471.409C241.059 471.468 247.971 471.46 254.883 471.389C268.192 471.62 284.586 471.753 297.821 471.335C298.349 462.773 297.57 450.192 298.47 442.527L299.041 444.245L299.495 444.456C299.767 443.482 299.955 442.683 300.16 441.693Z" fill="#070000"/>
<path d="M375.77 300.613C376.267 299.878 376.315 299.693 377.157 299.379C380.497 300.84 379.475 305.472 380.336 307.992C380.656 316.371 381.102 324.995 380.45 333.253C378.944 352.353 377.586 370.536 380.16 389.648C380.587 392.819 381.595 404.476 379.314 406.268C376.508 405.176 376.329 401.623 376.289 399.041C376.069 384.893 374.41 371.167 374.958 356.97C375.306 347.975 376.5 338.646 376.625 329.769C377.982 325.967 376.168 305.179 375.77 300.613Z" fill="#FCF1EE"/>
<path d="M315.6 270.77C319.465 284.123 355.774 295.882 368.358 300.974C369.907 301.601 371.383 302.71 373.026 302.8C373.288 302.183 373.288 302.329 373.36 301.684C373.991 301.078 374.874 300.917 375.77 300.613C376.167 305.179 377.981 325.967 376.625 329.769C376.419 328.875 376.695 328.328 376.329 327.312L375.373 327.834L375.278 311.905C375.102 311.516 374.899 311.071 374.671 310.568C372.863 310.106 369.365 309.172 367.712 308.545C360.135 305.672 352.928 301.996 345.526 298.696C342.517 297.354 340.543 296.154 337.713 294.457L337.74 290.771L338.106 290.357C333.777 289.094 326.699 284.128 322.106 281.875C318.794 278.782 316.76 276.891 314.766 272.775L315.6 270.77Z" fill="#390D0D"/>
<path d="M351.6 296.429C355.73 297.844 373.061 303.473 374.461 306.52C375.135 307.989 375.179 310.293 375.275 311.904C375.099 311.516 374.897 311.07 374.668 310.567C372.86 310.105 369.362 309.171 367.709 308.544C360.132 305.671 352.925 301.996 345.523 298.695C347.596 297.796 348.592 298.308 351.043 297.516C351.61 296.847 351.462 297.214 351.6 296.429Z" fill="#893221"/>
<path d="M338.103 290.357C339.736 291.023 350.683 295.712 351.6 296.429C351.462 297.214 351.61 296.848 351.043 297.516C348.592 298.309 347.596 297.797 345.523 298.696C342.515 297.354 340.541 296.154 337.711 294.457L337.738 290.771L338.103 290.357Z" fill="#7D2214"/>
<path d="M380.335 307.992L380.895 307.952C380.95 308.781 380.998 309.61 381.041 310.44L381.53 310.589C382.252 315.876 382.08 321.982 382.05 327.347C381.503 339.634 380.221 352.666 380.173 365.026C380.143 373.023 383.518 412.451 380.967 416.876C374.776 421.028 375.961 410.483 375.714 407.665C374.266 391.169 372.829 373.709 373.396 357.163C373.65 351.115 374.025 345.073 374.522 339.041C374.786 335.934 375.422 330.796 375.372 327.834L376.328 327.312C376.694 328.328 376.418 328.876 376.624 329.769C376.499 338.646 375.304 347.975 374.957 356.97C374.409 371.167 376.068 384.894 376.288 399.041C376.328 401.623 376.506 405.176 379.312 406.268C381.593 404.476 380.586 392.819 380.159 389.648C377.584 370.536 378.942 352.353 380.449 333.253C381.101 324.995 380.655 316.371 380.335 307.992Z" fill="#010000"/>
<path d="M377.329 406.584C378.35 406.549 378.607 406.565 379.616 406.713C380.917 408.576 380.14 413.698 380.108 416.527C379.441 416.382 378.569 416.339 378.243 415.893C376.991 414.183 377.324 408.685 377.329 406.584Z" fill="#4B3331"/>
<path d="M504.598 471.135C505.067 465.617 503.643 452.235 503.705 445.841C503.862 429.68 503.807 413.445 504.93 397.292C505.392 390.632 505.325 382.917 506.449 376.457C506.997 373.287 509.717 366.62 510.977 363.306C511.639 375.085 510.781 387.054 511.208 399.322L511.079 400.078L510.731 400.156C509.048 401.803 506.535 403.975 505.783 406.151C503.905 409.199 504.476 465.989 505.721 470.61C508.621 471.322 515.294 470.872 518.296 470.434L518.547 469.789L518.813 469.691L519.059 471.51C515.592 471.514 512.124 471.553 508.66 471.636C507.243 471.636 505.866 471.761 504.598 471.135Z" fill="#893221"/>
<path d="M299.668 382.772C310.572 384.287 330.239 381.561 340.708 383.964C342.829 384.451 357.488 399.588 359.654 402.441L359.909 402.781C359.936 409.535 359.908 437.165 359.978 445.594C359.981 446.001 362.724 447.562 362.685 449.491C362.612 453.103 358.557 453.807 356.321 451.721C354.117 447.593 358.2 446.537 358.233 444.928C358.506 431.198 357.714 417.052 358.496 403.352C355.041 399.251 350.976 395.561 347.144 391.789C344.752 389.432 342.508 386.794 340.186 384.503C335.094 384.214 328.195 384.527 322.948 384.575C315.197 384.646 307.538 384.317 299.86 384.311L299.668 382.772Z" fill="#EA8967"/>
<path d="M358.501 447.41C359.611 447.03 360.818 447.621 361.2 448.732C361.582 449.84 360.995 451.049 359.887 451.433C358.774 451.82 357.559 451.229 357.175 450.118C356.792 449.003 357.386 447.789 358.501 447.41Z" fill="#B14C32"/>
<path d="M565.814 413.703C567.767 421.944 568.463 430.044 570.021 438.246C572.428 450.924 573.391 459.764 572.463 472.692C558.553 473.181 543.614 472.661 529.614 472.849C525.837 472.9 509.959 473.115 507.125 472.767L505.105 472.129C506.636 472.144 506.886 472.117 508.323 471.73L508.659 471.636C512.123 471.554 515.591 471.514 519.058 471.511C523.09 471.499 527.442 471.573 531.446 471.471L532.009 471.46C534.694 471.483 537.841 471.593 540.491 471.444L540.894 471.479L570.729 471.514C572.342 455.788 568.765 441.075 566.456 425.344L565.802 421.78C565.305 420.027 565.023 417.393 564.765 415.527C565.454 414.807 565.457 414.662 565.814 413.703Z" fill="#010000"/>
<path d="M464.755 402.265C465.949 402.049 465.491 402.045 466.767 402.734C468.411 404.941 467.397 423.943 467.73 428.49C467.334 431.581 462.043 435.608 459.514 437.846C451.514 438.057 443.51 438.135 435.507 438.085C432.25 438.081 425.209 437.865 422.195 438.171C419.581 441.258 415.914 444.236 413.988 446.631C413.847 454.629 413.687 463.265 413.984 471.236L412.086 471.31C412.27 463.183 412.09 454.621 412.152 446.415C413.742 443.927 419.937 438.108 422.36 436.347C434.646 436.296 446.935 436.312 459.221 436.394C461.377 434.336 464.892 430.982 466.469 428.58C466.219 420.718 466.575 412.834 466.187 405.004C466.148 404.205 465.236 402.934 464.755 402.265Z" fill="#EA8967"/>
<path d="M292.712 363.774C290.981 358.338 286.303 348.33 285.621 344.584C287.628 345.981 290.536 353.575 291.683 356.078C292.51 358.07 296.626 369.825 297.344 370.765C297.821 369.827 297.589 369.402 297.493 368.225L298.672 368.644C299.005 370.517 299.121 371.643 299.243 373.546L299.492 375.254C299.573 376.852 299.857 381.452 299.668 382.773L299.86 384.311C299.883 387.323 299.89 390.334 299.882 393.347C300.278 397.381 299.971 402.034 300.476 405.649L300.58 406.346C300.414 418.386 300.593 429.601 300.162 441.692C299.958 442.682 299.77 443.481 299.497 444.455L299.044 444.244L298.473 442.526C300.14 422.19 298.388 397.264 297.476 376.623C297.397 374.834 293.607 366.062 292.712 363.774Z" fill="#340102"/>
<path d="M327.607 414.567C326.002 413.381 324.675 412.462 324.346 410.341C325.276 406.78 329.524 406.686 331.591 409.12C332.376 411.961 330.935 413.099 328.693 414.52C328.795 422.459 328.845 430.399 328.841 438.339C324.654 442.608 320.225 447.299 315.854 451.334L315.911 471.095L314.401 471.189C314.332 465.656 313.969 456.714 314.514 451.381C316.547 448.579 324.546 440.823 327.389 437.963C327.858 431.103 327.606 421.661 327.607 414.567Z" fill="#EA8967"/>
<path d="M327.714 408.76C328.786 408.592 329.803 409.289 330.031 410.353C330.258 411.413 329.617 412.466 328.57 412.752C327.838 412.951 327.056 412.732 326.538 412.18C326.019 411.625 325.849 410.83 326.096 410.114C326.342 409.398 326.965 408.878 327.714 408.76Z" fill="#B14C32"/>
<path d="M337.419 405.086C335.818 403.474 334.345 401.729 336.06 399.381C339.187 398.199 341.997 400.551 340.576 403.885C339.727 404.558 339.336 404.824 338.644 405.646C337.875 415.084 338.558 434.003 338.631 444.127C335.043 448.263 330.286 452.187 326.485 456.605C326.45 460.463 326.201 467.057 326.604 470.692C327.482 471.31 328.64 471.31 329.755 471.447C322.927 471.487 305.315 471.96 299.359 471.271C303.488 470.95 310.172 471.076 314.4 471.189L315.91 471.095C319.141 471.193 322.373 471.213 325.604 471.166C325.38 466.165 325.166 461.23 325.274 456.218C327.298 452.943 334.546 446.846 337.676 443.461C337.459 431.288 337.942 416.688 337.419 405.086Z" fill="#7D2214"/>
<path d="M337.791 400.003C338.855 400.519 339.105 400.535 339.656 401.506C339.327 402.57 339.508 402.202 338.325 402.946C336.788 402.805 337.036 403.071 336.141 402.229C336.46 401.067 336.873 400.938 337.791 400.003Z" fill="#BF5A42"/>
<path d="M429.923 305.498C431.833 304.488 444.06 299.484 446.161 299.064C446.96 299.101 447.559 299.02 448.177 299.488C448.725 300.774 448.42 302.292 448.302 303.75C441.214 307.397 436.956 308.874 429.324 310.946C429.281 309.106 429.629 307.316 429.923 305.498Z" fill="#893221"/>
<path d="M280.965 290.873C284.43 292.103 292.949 302.182 296.884 305.155C299.799 305.239 309.104 305.662 311.364 305.314C312.407 304.104 313.24 302.886 314.652 302.23C317.034 302.276 317.871 303.929 318.619 306.074C317.382 308.231 316.219 310.167 313.358 308.782C311.64 306.847 311.947 306.429 309.752 306.411C305.276 306.376 300.774 306.59 296.291 306.546C293.801 305.076 281.507 292.954 280.965 290.873Z" fill="#EA8967"/>
<path d="M313.958 304.28C314.907 303.681 316.162 303.964 316.761 304.912C317.361 305.861 317.078 307.115 316.13 307.715C315.181 308.314 313.926 308.031 313.326 307.083C312.727 306.134 313.01 304.88 313.958 304.28Z" fill="#9B442E"/>
<path d="M458.492 294.232L458.711 298.921C459.365 308.683 458.864 319.76 458.766 329.669C460.676 330.848 462.445 332.196 461.478 334.677C459.639 336.935 455.599 337.073 454.664 333.658C455.091 331.269 455.815 330.818 457.725 329.487C457.533 325.127 457.106 303.462 457.635 299.757C458.363 297.73 458.042 296.525 457.47 294.59L458.492 294.232Z" fill="#EA8967"/>
<path d="M457.91 330.873C458.697 330.748 459.488 331.059 459.977 331.683C460.466 332.307 460.58 333.148 460.274 333.88C459.965 334.612 459.288 335.121 458.498 335.209C457.316 335.341 456.243 334.506 456.087 333.327C455.926 332.149 456.736 331.059 457.91 330.873Z" fill="#B14C32"/>
<path d="M326.18 253.116L326.463 251.224C328.993 254.77 330.123 259.817 332.675 263.694C340.513 275.601 352.227 282.402 363.058 291.015C353.439 287.636 334.699 272.255 330.096 262.337C329.077 260.143 327.358 254.088 326.18 253.116Z" fill="#893221"/>
<path d="M299.242 373.546C309.495 373.942 319.604 373.735 329.841 373.754C333.968 373.762 342.345 373.456 346.221 374.084L346.575 374.522L346.998 374.358C346.928 374.492 346.563 374.584 346.444 374.624C342.914 375.822 305.507 375.63 299.492 375.254L299.242 373.546Z" fill="#D87C5B"/>
<path d="M518.547 469.788C518.445 469.487 518.152 468.117 518.136 467.648C517.827 458.566 514.281 446.572 516.089 438.089C516.344 436.895 520.14 434.422 521.342 432.814C521.267 431.593 521.177 431.335 521.58 430.219C523.357 429.468 526.739 430.231 527.941 429.484C529.721 428.372 536.676 425.806 537.342 424.35C536.481 422.922 536.954 420.961 536.978 419.067C536.085 418.692 534.109 419.189 532.473 419.087L532.269 418.801L532.665 418.723C534.895 418.289 536.719 416.986 538.156 417.13C539.514 418.551 539.24 418.653 541.475 418.715C541.745 418.723 542.015 418.727 542.281 418.727C540.395 419.091 540.633 418.75 539.467 419.924C539.119 421.427 539.569 422.55 540.594 423.72C539.796 424.362 538.982 424.992 538.16 425.602L537.803 425.735C533.408 426.745 527.42 432.235 523.506 431.17L522.888 430.716L522.316 431.076C522.195 431.926 522.07 432.755 521.991 433.608C519.001 435.964 516.332 437.177 516.175 441.426C515.843 450.372 518.782 460.51 518.813 469.69L518.547 469.788Z" fill="#9B442E"/>
<path d="M422.729 306.249L422.69 303.117C422.615 295.57 432.326 293.25 431.144 303.496C430.126 304.286 429.488 303.713 428.522 303.258C428.76 301.971 428.995 301.359 428.4 300.165C425.469 298.285 424.615 303.486 424.388 305.349C424.024 306.056 423.347 307.941 423.324 307.984C417.543 308.928 411.829 313.381 407.449 312.446C411.942 309.585 417.68 308.328 422.729 306.249Z" fill="#390D0D"/>
<path d="M533.759 344.193C536.956 344.125 548.803 343.497 550.976 344.479C549.269 345.783 537.669 345.237 534.537 345.335C535.238 352.058 534.76 359.432 534.682 366.267C534.631 370.747 534.968 377.647 534.487 381.899L533.614 381.364C533.265 377.8 533.445 369.955 533.441 366.226C533.438 359.192 533.258 351.137 533.759 344.193Z" fill="#EA8967"/>
<path d="M505.281 366.064L505.343 366.795C504.991 367.258 503.703 369.013 503.382 369.331C501.476 370.396 499.163 373.425 497.574 375.06C493.88 378.859 489.872 383.607 485.426 386.532C480.565 386.551 469.113 387.223 465.492 385.818L465.547 385.424C467.527 384.831 482.224 385.046 485.754 385.03C488.874 382.56 503.539 366.66 505.281 366.064Z" fill="#EA8967"/>
<path d="M292.595 283.731C294.265 285.927 300.772 292.865 302.917 294.657C308.714 294.711 314.558 294.749 320.349 294.532C322.713 294.443 322.376 292.227 325.17 294.55C325.47 295.767 325.532 295.247 324.854 296.447C322.352 298.027 321.488 296.441 318.992 296.281C313.519 295.93 308.09 296.397 302.604 295.937C299.282 292.904 293.914 288.052 290.98 284.708L292.595 283.731Z" fill="#EA8967"/>
<path d="M519.759 389.785C519.759 385.524 519.403 362.542 520.988 360.666C521.876 363.827 521.509 385.773 521.325 390.242C519.857 391.836 512.605 400.167 511.078 400.077L511.207 399.322C513.387 396.77 518.291 391.903 519.759 389.785Z" fill="#E0805F"/>
<path d="M381.531 310.588C381.606 309.634 381.501 308.763 382.004 308.122C386.173 308.87 393.263 312.933 396.79 312.662L397.451 313.163L396.997 313.86L397.228 314.594C395.236 315.756 384.78 313.335 382.393 312.822C382.487 316.27 382.821 324.359 382.051 327.347C382.081 321.982 382.253 315.875 381.531 310.588Z" fill="#7D2214"/>
<path d="M480.989 282.519L481.881 281.855C482.534 286.604 482.131 297.193 482.022 302.282C484.104 304.085 485.709 305.266 484.104 308.032C482.174 309.354 480.421 309.54 478.593 307.928C477.568 305.163 478.977 304.021 481.008 302.325C480.64 295.184 480.621 289.703 480.989 282.519Z" fill="#EA8967"/>
<path d="M480.457 304.363C481.428 303.776 482.688 304.063 483.307 305.012C483.929 305.961 483.682 307.231 482.751 307.88C482.125 308.319 481.307 308.381 480.618 308.042C479.933 307.703 479.483 307.016 479.451 306.25C479.416 305.484 479.804 304.761 480.457 304.363Z" fill="#9B442E"/>
<path d="M373.357 301.684C373.115 300.531 372.923 299.497 373.703 298.548C376.495 295.152 381.285 297.935 381.541 301.73C381.616 302.837 381.297 304.736 381.175 305.726C386.33 308.676 392.921 309.232 396.788 312.662C393.261 312.933 386.172 308.87 382.002 308.122C381.5 308.763 381.604 309.634 381.529 310.589L381.04 310.44C380.997 309.61 380.949 308.781 380.894 307.952L380.334 307.992C379.473 305.472 380.495 300.84 377.155 299.379C376.313 299.693 376.265 299.878 375.768 300.613C374.872 300.917 373.989 301.078 373.357 301.684Z" fill="#5A0A07"/>
<path d="M291.68 356.078C292.187 355.211 294.155 350.018 294.731 348.7L294.638 350.183C295.056 349.856 295.11 348.872 295.241 348.213C296.115 353.519 297.227 362.824 297.49 368.225C297.586 369.402 297.818 369.827 297.342 370.765C296.623 369.825 292.507 358.07 291.68 356.078Z" fill="#9B442E"/>
<path d="M554.684 456.362C554.3 453.701 553.839 451.839 556.79 450.81C559.028 450.997 560.371 452.14 560.484 454.433C559.639 457.074 557.772 457.059 555.349 457.106C553.271 459.309 542.911 470.747 540.895 471.478L540.492 471.443C540.555 470.101 552.844 458.194 554.684 456.362Z" fill="#EA8967"/>
<path d="M556.448 452.242C557.372 451.698 558.561 451.984 559.137 452.892C559.712 453.796 559.466 454.997 558.581 455.603C557.978 456.014 557.203 456.065 556.554 455.736C555.904 455.404 555.485 454.746 555.462 454.019C555.442 453.291 555.818 452.61 556.448 452.242Z" fill="#B14C32"/>
<path d="M555.453 398.453C555.433 395.863 554.972 381.276 555.923 379.832C556.666 383.864 556.882 394.7 556.611 399.224C554.835 401.106 539.195 416.829 538.154 417.13C537.993 414.485 553.097 401.059 555.453 398.453Z" fill="#EA8967"/>
<path d="M272.625 299.251C275.415 300.283 279.268 305.97 281.37 306.775C281.942 306.994 288.408 304.683 286.104 311.891C280.611 314.824 279.834 311.806 279.684 308.422C279.606 306.675 272.712 302.136 272.625 299.251Z" fill="#EA8967"/>
<path d="M281.683 308.572C282.207 308.088 282.959 307.94 283.628 308.19C284.296 308.439 284.767 309.044 284.846 309.752C284.925 310.461 284.598 311.154 284.001 311.545C283.178 312.083 282.079 311.9 281.474 311.124C280.869 310.349 280.96 309.239 281.683 308.572Z" fill="#9B442E"/>
<path d="M449.611 297.865L449.932 297.853C450.092 299.269 450.347 300.991 450.374 302.389C450.746 304.768 450.535 316.904 450.288 319.432C449.075 320.83 445.607 323.742 444.03 325.121C443.862 328.644 444.558 334.58 443.826 337.57L443.408 337.818C441.979 336.338 442.66 327.034 442.707 324.545C444.304 322.777 447.529 320.101 449.443 318.436C449.447 312.307 449.623 303.848 449.408 297.999L449.611 297.865Z" fill="#EA8967"/>
<path d="M310.961 406.381C311.387 412.196 311.265 419.936 311.198 425.809L311.448 426.228C312.129 427.386 312.578 427.946 312.413 429.303C311.705 430.716 312.124 430.305 310.898 431.033C309.558 430.959 310.086 431.115 308.865 430.203C308.452 429.307 308 428.693 308.413 427.683C310.278 423.121 309.412 412.215 309.722 406.721L310.961 406.381Z" fill="#EA8967"/>
<path d="M407.449 312.446C411.829 313.38 417.543 308.927 423.324 307.984C421.61 312.291 422.463 321.504 422.251 326.157C421.625 323.332 421.805 315.947 421.817 312.68C418.929 313.26 409.015 315.141 407.449 312.446Z" fill="#7D2214"/>
<path d="M557.426 417.561C559.077 416.978 561.892 413.006 564.048 411.351L564.764 415.526C565.023 417.392 565.304 420.026 565.801 421.779L565.582 422.831C565.077 422.878 561.821 420.726 559.809 420.159L559.359 420.034L559.25 419.713C558.236 418.848 558.072 418.715 557.426 417.561Z" fill="#BF5A42"/>
<path d="M470.106 291.445L471.155 290.938C472.129 292.189 471.906 313.986 471.969 317.285C471.882 318.555 471.886 319.42 471.499 320.646C470.763 320.874 471.127 320.877 470.376 320.601C469.761 311.366 470.755 301.739 470.031 292.009L470.106 291.445Z" fill="#EA8967"/>
<path d="M268.235 471.009C268.241 467.284 267.907 444.999 268.872 442.831L269.319 443.062C269.965 445.453 270.043 466.951 270.095 471.134L268.235 471.009Z" fill="#EA8967"/>
<path d="M295.242 348.213C294.905 346.362 293.741 340.724 294.698 339.234C297.057 343.524 298.745 362.863 298.671 368.644L297.491 368.225C297.228 362.824 296.116 353.519 295.242 348.213Z" fill="#390D0D"/>
<path d="M299.883 393.347C300.477 392.564 300.414 392.31 301.518 392.302C306.172 392.259 326.263 391.922 329.557 392.803C327.804 394.305 302.525 394.239 299.883 393.347Z" fill="#EA8967"/>
<path d="M499.777 394.912C494.169 394.595 488.548 394.83 482.944 394.732C480.043 394.681 473.617 395.433 471.797 392.803L472.47 392.537C477.382 394.032 493.899 393.324 500.286 393.273L499.777 394.912Z" fill="#BF5A42"/>
<path d="M322.105 281.875C326.699 284.128 333.777 289.093 338.105 290.357L337.74 290.771C335.812 291.287 336.245 292.122 336.2 294.068C332.615 290.707 323.532 285.072 322.105 281.875Z" fill="#893221"/>
<path d="M458.492 294.232C459.604 293.544 462.152 292.389 463.42 291.77C464.841 293.242 466.504 292.237 468.641 292.933C466.907 294.369 460.805 298.25 458.711 298.921L458.492 294.232Z" fill="#7D2214"/>
<path d="M336.201 294.068C336.246 292.122 335.814 291.287 337.742 290.771L337.715 294.457C337.714 299.21 337.877 303.749 338.507 308.469C338.644 309.49 337.044 310.397 335.989 310.426L335.268 309.628C335.072 307.953 335.169 308.409 336.3 306.668C336.292 302.468 336.259 298.268 336.201 294.068Z" fill="#EA8967"/>
<path d="M524.82 292.052C522.64 293.364 513.325 292.439 510.374 292.68C510.374 292.68 508.558 293.677 508.402 293.761C507.286 293.462 507.635 293.547 506.762 292.385C507.126 289.807 521.431 290.888 523.681 291.342L524.82 292.052Z" fill="#EA8967"/>
<path d="M281.948 402.007C279.95 401.099 278.885 400.743 277.344 399.205L277.37 398.72C278.564 398.454 279.414 398.982 280.6 399.459L283.493 400.575C286.736 402.465 288.97 403.815 291.708 406.523C291.831 407.344 292.047 408.53 292.081 409.336C289.93 407.383 287.247 405.36 284.938 403.533C284.102 402.743 283.04 402.437 281.948 402.007Z" fill="#EA8967"/>
<path d="M351.38 233.355L351.549 234.083C349.133 237.795 341.664 236.932 340.035 247.155C338.9 247.721 339.222 247.368 338.666 248.416C338.326 239.965 344.278 235.936 351.38 233.355Z" fill="#5A0A07"/>
<path d="M283.609 383.521C283.959 381.367 284.339 378.921 284.963 376.837C285.534 374.93 285.526 370.173 288.16 370.803C288.853 371.52 288.805 371.824 288.987 372.861C288.392 374.324 287.237 375.156 286.993 375.992C286.189 378.742 285.554 382.169 284.98 384.976C284.376 385.254 284.626 385.169 283.897 385.12L283.609 383.521Z" fill="#EA8967"/>
<path d="M531.446 471.471C530.772 468.935 531.035 448.873 531.857 447.187L532.084 447.101C532.569 449.609 532.686 469.824 532.009 471.459L531.446 471.471Z" fill="#EA8967"/>
<path d="M538.158 425.603L539.089 426.033C539.52 427.223 539.43 427.563 539.395 428.862C539.16 434.348 539.418 440.406 538.96 445.727L538.729 445.899C537.935 441.779 538.287 439.525 537.825 435.769C537.771 432.427 537.763 429.081 537.802 425.736L538.158 425.603Z" fill="#EA8967"/>
<path d="M471.966 317.285C472.001 319.933 471.891 333.685 471.559 335.67L470.713 336.267L470.032 336.036C469.907 334.632 470.091 321.199 470.373 320.601C471.124 320.877 470.76 320.874 471.496 320.646C471.884 319.42 471.88 318.555 471.966 317.285Z" fill="#BF5A42"/>
<path d="M521.988 433.609C522.067 432.755 522.192 431.926 522.313 431.077L522.885 430.717L523.503 431.171C523.746 436.16 523.558 440.914 524.043 445.868L523.526 446.436L522.818 446.201C522.114 443.559 522.454 436.911 521.988 433.609Z" fill="#D87C5B"/>
<path d="M280.597 399.459C280.069 396.474 279.719 394.267 278.777 391.363C280.854 391.481 283.687 397.98 283.976 400.05L283.49 400.575L280.597 399.459Z" fill="#893221"/>
<path d="M464.754 402.264L464.77 401.482C466.464 400.151 467.834 400.343 469.345 401.802C469.584 404.041 468.214 403.728 468.061 404.995C467.243 411.988 469.075 421.747 467.728 428.489C467.396 423.942 468.409 404.941 466.766 402.734C465.49 402.045 465.948 402.049 464.754 402.264Z" fill="#D87C5B"/>
<path d="M542.282 418.728C543.742 418.755 544.392 418.481 545.296 419.24C544.983 420.692 541.895 422.715 540.595 423.721C539.57 422.551 539.12 421.428 539.468 419.925C540.634 418.751 540.396 419.091 542.282 418.728Z" fill="#893221"/>
<path d="M250.125 391.907C252.959 395.969 245.748 402.746 243.206 403.138L242.828 402.629C245.769 398.869 250.252 396.971 250.125 391.907Z" fill="#EA8967"/>
<path d="M539.397 428.861C539.616 432.05 539.823 448.607 539.115 451.4L538.688 451.479C537.307 449.264 537.624 438.738 537.827 435.768C538.289 439.524 537.937 441.778 538.731 445.899L538.962 445.727C539.42 440.405 539.162 434.347 539.397 428.861Z" fill="#D87C5B"/>
<path d="M505.781 406.151C506.533 403.975 509.045 401.804 510.728 400.156C512.458 402.578 511.699 408.186 511.539 411.449L511.233 411.641C510.791 408.695 511.636 405.048 511.018 402.657L510.56 402.41C508.728 403.917 508.963 404.731 506.838 406.464C506.368 406.355 506.216 406.358 505.781 406.151Z" fill="#9B442E"/>
<path d="M471.445 287.622C473.942 286.257 476.498 284.707 479.21 283.903C478.377 285.655 473.598 289.89 471.852 290.014L471.445 287.622Z" fill="#893221"/>
<path d="M307.612 284.193C308.998 284.597 310.134 284.76 310.949 285.956C311.202 287.298 311.275 286.745 310.594 288.034C309.196 288.829 309.821 288.679 308.234 288.626C306.414 287.516 306.803 287.032 306.925 284.97L307.612 284.193Z" fill="#D87C5B"/>
<path d="M533.613 381.365L534.486 381.9C534.717 384.357 536.877 384.189 535.269 386.492C533.918 387.125 534.435 387.112 533.124 386.873C531.441 384.815 532.638 383.396 533.613 381.365Z" fill="#D87C5B"/>
<path d="M300.477 405.65C302.734 404.238 308.763 404.652 310.961 406.382L309.723 406.722C307.96 406.323 303.088 406.597 300.58 406.347L300.477 405.65Z" fill="#D87C5B"/>
<path d="M557.426 417.562C557.258 415.1 561.943 410.549 563.955 410.264L564.049 411.352C561.892 413.007 559.078 416.978 557.426 417.562Z" fill="#EA8967"/>
<path d="M283.992 386.794C282.276 384.641 278.53 383.894 276.23 381.994C277.568 381.217 281.224 383.845 283.149 384.085L283.612 383.521L283.9 385.12C284.629 385.169 284.378 385.254 284.983 384.976L285.238 385.364L283.992 386.794Z" fill="#D87C5B"/>
<path d="M370.89 227.816L371.007 230.623C368.731 230.353 365.993 231.014 364.039 229.725C366.135 228.961 368.747 228.934 370.89 227.816Z" fill="#7D2214"/>
<path d="M302.447 278.576C304.302 279.848 306.149 282.388 307.612 284.193L306.925 284.97C304.906 283.363 303.277 281.351 301.625 279.385L302.447 278.576Z" fill="#EA8967"/>
<path d="M559.359 420.033L559.809 420.158C561.821 420.726 565.078 422.878 565.582 422.831L565.802 421.778L566.455 425.343C564.248 424.111 561.046 421.911 559.359 420.033Z" fill="#7D2214"/>
<path d="M456.847 399.264C457.489 399.526 457.254 399.401 457.759 399.941C458.186 404.01 457.912 418.218 457.755 422.574C455.912 424.346 454.714 425.591 453.023 427.528C441.454 427.801 428.671 427.473 416.937 427.535C414.248 429.363 405.986 437.866 403.79 440.546C403.532 450.615 404.002 461.137 403.822 471.369L402.753 470.974C401.791 468.896 402.421 443.544 402.53 439.466C406.166 436.078 412.714 428.326 416.526 426.08C427.845 425.246 440.964 426.858 452.632 425.81C454.475 424.331 455.235 423.431 456.804 421.631C456.777 414.239 456.663 406.632 456.847 399.264Z" fill="#EA8967"/>
<path d="M263.5 363.226C265.222 363.268 266.245 363.314 267.659 364.299C270.424 368.078 265.924 369.253 265.887 370.423C265.541 381.315 265.883 392.212 265.71 403.122C261.261 408.025 250.984 418.547 246.213 422.597C246.067 427.825 246.202 433.201 246.269 438.445C245.717 438.464 245.693 438.363 245.118 438.14C244.332 436.512 244.685 424.812 244.709 422.292C249.391 417.823 260.955 406.804 264.518 402.159C264.449 392.506 264.746 382.709 264.536 373.057C264.47 370.053 264.216 370.185 262.26 368.484C261.345 366.471 261.62 364.462 263.5 363.226Z" fill="#EA8967"/>
<path d="M264.086 364.497C264.789 364.119 265.646 364.182 266.286 364.659C266.925 365.135 267.231 365.938 267.071 366.719C266.91 367.5 266.312 368.118 265.536 368.303C264.533 368.544 263.506 368.002 263.139 367.037C262.771 366.072 263.177 364.985 264.086 364.497Z" fill="#9B442E"/>
<path d="M497.853 356.359C501.438 356.84 503.129 359.616 500.291 362.313C499.07 363.478 497.375 363.117 495.786 363.006C491.794 366.931 488.432 370.593 484.232 374.463C475.297 375.211 457.442 374.733 447.998 374.665C445.638 377.457 445.168 378.312 441.599 376.854C440.722 375.025 440.757 373.246 442.002 371.631C444.796 369.755 446.225 371.543 447.947 373.536C459.266 373.079 472.698 374.164 483.786 373.312C487.305 369.528 491.43 366.35 494.698 362.353C495.771 361.042 495.485 360.279 495.508 358.672C496.009 357.435 496.761 357.089 497.853 356.359Z" fill="#EA8967"/>
<path d="M443.054 372.387C444.083 371.777 445.414 372.104 446.044 373.122C446.674 374.14 446.376 375.476 445.371 376.127C444.701 376.56 443.848 376.599 443.144 376.227C442.439 375.854 441.993 375.131 441.973 374.334C441.954 373.538 442.365 372.792 443.054 372.387Z" fill="#B14C32"/>
<path d="M496.967 358.365C497.609 357.865 498.486 357.779 499.214 358.144C499.942 358.51 500.396 359.262 500.38 360.077C500.364 360.893 499.883 361.626 499.139 361.963C498.161 362.405 497.006 362.047 496.454 361.129C495.899 360.211 496.118 359.023 496.967 358.365Z" fill="#B14C32"/>
<path d="M402.837 378.601L403.687 379.296C404.243 382.195 404.019 390.421 404.004 393.699L403.843 419.705C399.119 425.164 387.011 437.361 381.467 441.916L380.996 441.908C381.254 440.057 399.879 422.002 402.791 419.506L402.603 394.94C402.564 390.039 402.387 383.364 402.837 378.601Z" fill="#EA8967"/>
<path d="M311.954 365.765C313.332 365.328 311.789 360.801 312.903 358.934C312.94 361.057 312.77 364.462 313.737 366.213C315.91 367.317 346.315 366.543 351.303 367.012C352.832 368.818 361.438 377.229 361.923 378.175L361.101 378.868C359.83 376.792 352.508 370.222 350.417 368.512L349.297 368.526L327.975 368.535C324.598 368.55 314.103 369.29 311.953 367.187L311.954 365.765Z" fill="#EA8967"/>
<path d="M393.413 390.979L394.239 391.25C395.307 392.71 394.873 415.879 394.9 419.44C391.698 422.011 384.493 429.347 381.576 432.427C377.158 432.728 372.447 432.638 367.997 432.631C367.4 432.76 367.335 432.447 367.051 432.001C368.689 431.128 377.907 431.398 380.396 431.414C383.343 429.007 389.817 422.116 392.943 418.994C393.863 410.631 393.15 399.777 393.413 390.979Z" fill="#EA8967"/>
<path d="M326.617 324.439C336.986 324.424 352.752 323.803 362.575 324.479C363.424 325.219 363.18 325.342 363.327 326.731C351.849 326.366 338.39 327.336 327.21 326.622C326.58 325.893 326.76 325.616 326.617 324.439Z" fill="#EA8967"/>
<path d="M333.18 352.569C339.854 352.6 356.678 352.011 362.641 352.734C363.436 353.656 363.212 353.898 363.334 355.3C353.668 355.266 343.477 355.467 333.863 355.17C333.081 354.219 333.299 353.967 333.18 352.569Z" fill="#EA8967"/>
<path d="M317.452 408.162L318.443 408.514C319.48 410.103 318.872 432.259 318.759 435.409C316.353 439.208 305.318 449.629 301.275 454.297L300.8 454.438L300.703 453.679C302.072 450.353 313.877 439.236 317.462 434.771C317.231 425.986 317.378 416.947 317.452 408.162Z" fill="#EA8967"/>
<path d="M544.533 363.286C544.967 363.499 545.464 363.557 545.938 363.449L546.13 365.073C545.856 366.469 545.946 373.058 545.961 374.842L546.138 394.129C544.188 396.09 534.29 407.527 533.038 407.946C531.911 407.504 532.224 407.809 531.664 406.874L532.13 405.841C534.909 404.217 542.729 396.277 544.49 393.734L544.709 393.409C544.592 388.577 545.085 367.17 544.091 364.589L544.533 363.286Z" fill="#EA8967"/>
<path d="M273.434 413.104C274.752 413.359 275.601 414.091 275.654 415.503C275.756 418.191 272.265 417.941 270.438 419.854C266.286 424.198 262.342 428.514 257.882 432.572L257.869 447.919L256.848 447.864C255.823 445.986 256.344 435.006 256.441 432.337C260.4 427.548 265.913 423.083 269.953 418.27C271.462 416.47 271.309 416.72 271.138 414.685C271.639 413.723 272.394 413.558 273.434 413.104Z" fill="#EA8967"/>
<path d="M312.548 329.703C313.481 334.884 313.468 353.631 312.9 358.934C311.785 360.801 313.328 365.327 311.951 365.765L311.95 367.187C309.849 365.643 308.96 366.224 308.73 363.369C309.667 361.724 309.421 362.935 311.247 361.725C311.862 356.581 311.203 351.134 311.627 345.776C311.645 340.721 311.421 334.566 312.548 329.703Z" fill="#EA8967"/>
<path d="M311.627 345.775C311.936 352.443 311.672 359.434 311.951 365.764L311.95 367.187C309.849 365.643 308.96 366.223 308.73 363.368C309.667 361.723 309.421 362.935 311.247 361.724C311.862 356.58 311.203 351.134 311.627 345.775Z" fill="#BF5A42"/>
<path d="M518.727 319.239C521.878 319.27 521.964 319.598 524.026 321.989C528.159 322.031 540.081 321.544 543.365 322.752C542.558 323.175 540.198 323.067 539.138 323.075L524.296 323.214C522.445 325.257 520.985 326.897 518.077 325.232C516.167 323.08 517.24 321.201 518.727 319.239Z" fill="#EA8967"/>
<path d="M519.535 320.728C520.591 320.377 521.73 320.934 522.102 321.981C522.47 323.027 521.938 324.178 520.897 324.569C520.208 324.828 519.429 324.695 518.865 324.219C518.302 323.744 518.039 323.001 518.176 322.277C518.317 321.553 518.838 320.961 519.535 320.728Z" fill="#BF5A42"/>
<path d="M476.513 252.326L476.849 252.732C475.558 267.865 461.765 277.095 450.978 285.774C449.53 286.939 448.133 288.06 446.427 288.818C446.293 288.536 446.16 288.253 446.027 287.971C447.769 286.103 454.595 281.562 456.188 280.173C466.419 271.262 473.331 265.888 476.513 252.326Z" fill="#7D2214"/>
<path d="M348.706 457.423C352.324 457.47 367.127 458.018 369.412 456.914C371.118 453.913 367.181 447.265 370.237 446.204C371.981 447.871 371.48 456.347 371.448 458.894C366.358 458.366 354.709 459.027 348.684 459.004L348.706 457.423Z" fill="#EA8967"/>
<path d="M342.039 341.274C345.947 341.233 359.625 340.846 362.858 341.391C363.506 342.564 363.289 342.236 363.057 343.882C357.708 343.651 347.952 344.252 342.483 343.383C342.165 343.332 342.102 341.799 342.039 341.274Z" fill="#EA8967"/>
<path d="M411.47 385.522C412.32 385.706 412.316 385.745 413.024 386.179C413.697 391.825 413.228 408.647 413.165 414.97L411.838 414.99C410.864 413.484 411.439 389.125 411.47 385.522Z" fill="#EA8967"/>
<path d="M361.769 393.644C361.49 392.345 361.989 391.684 361.993 390.494C361.995 390.01 349.988 378.654 348.607 377.323C347.955 376.695 347.622 376.268 347.578 375.374C350.784 376.019 359.635 389.168 365.405 389.419L365.782 389.433C367.417 391.041 367.762 392.584 366.281 394.454C364.823 395.233 365.477 395.065 363.771 395.034C362.852 394.521 362.496 394.384 361.769 393.644Z" fill="#893221"/>
<path d="M365.782 389.434C367.418 391.041 367.763 392.584 366.282 394.455C364.824 395.233 365.478 395.065 363.772 395.034C362.853 394.521 362.497 394.384 361.77 393.645L362.318 393.054C362.37 392.436 362.653 391.931 362.907 391.36C363.894 390.409 364.348 390.452 365.703 390.211L365.782 389.434Z" fill="#7D2214"/>
<path d="M362.316 393.053C362.368 392.435 362.651 391.93 362.905 391.359C363.893 390.408 364.346 390.452 365.701 390.211C365.767 391.958 366.03 391.582 365.175 392.623C364.226 392.787 363.273 392.932 362.316 393.053Z" fill="#B14C32"/>
<path d="M523.458 408.721L524.268 409.296C524.472 410.36 519.74 417.216 518.824 418.632C515.247 424.158 512.773 430.141 509.724 435.948C509.388 435.795 509.227 435.568 508.934 435.29C510.073 429.061 519.258 414.05 523.458 408.721Z" fill="#390D0D"/>
<path d="M380.61 454.974C383.612 455.15 385.367 457.114 384.278 459.978C383.957 460.824 382.449 462.041 381.752 462.643C381.657 465.183 381.853 468.802 381.927 471.412L380.732 470.919C380 469.057 380.631 464.741 380.845 462.573C376.71 459.748 376.337 457.948 380.61 454.974Z" fill="#EA8967"/>
<path d="M380.805 456.844C381.521 456.629 382.299 456.817 382.834 457.341C383.369 457.866 383.576 458.637 383.374 459.36C383.171 460.08 382.592 460.632 381.862 460.8C380.787 461.051 379.707 460.401 379.421 459.333C379.136 458.269 379.748 457.165 380.805 456.844Z" fill="#BF5A42"/>
<path d="M275.82 325.017L276.679 325.433C276.646 326.887 256.532 348.784 254.304 351.131L254.092 351.163L253.75 350.818C254.187 348.747 273.479 327.454 275.82 325.017Z" fill="#EA8967"/>
<path d="M443.824 387.29C444.803 388.095 444.791 388.492 444.838 389.698C445.182 398.043 444.361 406.456 445.719 414.728C445.816 415.303 444.521 416.07 444.075 416.403C443.038 415.73 442.905 415.608 442.134 414.634C442.114 413.057 442.505 412.983 443.437 411.386C443.488 407.199 442.92 390.199 443.824 387.29Z" fill="#EA8967"/>
<path d="M507.671 282.242L507.796 282.569C507.135 283.676 501.632 288.755 500.184 290.198C500.098 297.694 500.724 309.589 500.02 316.875C498.305 314.684 498.982 294.077 499.084 289.846C500.892 286.828 504.528 283.82 507.671 282.242Z" fill="#EA8967"/>
<path d="M442.62 357.451C445.528 357.408 455.489 356.984 457.599 357.948L457.916 358.817L457.536 359.552L456.456 359.736C453.563 359.825 442.182 360.945 441.02 358.552L441.329 357.781L442.62 357.451Z" fill="#EA8967"/>
<path d="M348.682 459.004C348.666 461.759 349.286 469.131 347.902 470.931C347.221 468.936 346.999 442.049 347.924 440.989L347.88 440.738C349.13 444.62 348.729 452.982 348.704 457.424L348.682 459.004Z" fill="#EA8967"/>
<path d="M348.74 346.807C352.745 346.85 358.986 346.433 362.737 346.871C363.314 347.756 363.141 348.251 363.19 349.429C358.561 349.423 353.91 349.522 349.285 349.363C348.538 348.628 348.783 348.134 348.74 346.807Z" fill="#EA8967"/>
<path d="M296.165 316.693C299.602 316.593 304.878 316.281 308.137 316.875L308.494 317.44C306.616 320.21 299.292 316.078 294.711 319.812C293.061 321.641 291.712 323.14 289.893 324.827L289.096 324.49L289.583 325.077L288.833 324.89L289.293 325.294L288.52 325.595C289.125 322.905 293.996 318.632 296.165 316.693Z" fill="#EA8967"/>
<path d="M464.556 299.97L465.358 300.414C466.297 302.48 465.663 316.302 465.773 319.33C465.828 320.849 465.612 321.086 464.759 321.883C463.636 320.183 463.679 301.952 464.556 299.97Z" fill="#EA8967"/>
<path d="M279.815 334.031C280.449 334.41 280.178 334.261 280.602 335.109C280.176 336.686 266.75 351.691 264.877 353.011L264.305 352.682C265.088 351.048 278.045 336.118 279.815 334.031Z" fill="#EA8967"/>
<path d="M544.09 364.589C542.114 362.988 541.19 362.113 542.591 359.663C544.364 358.385 546.701 358.084 548.353 359.72C549.3 362.279 548.02 363.474 546.129 365.073L545.938 363.449C545.464 363.557 544.967 363.5 544.533 363.287L544.09 364.589Z" fill="#EA8967"/>
<path d="M544.534 363.287C543.603 362.832 543.133 361.773 543.427 360.779C543.716 359.785 544.683 359.145 545.713 359.264C546.742 359.383 547.532 360.226 547.591 361.26C547.646 362.294 546.949 363.219 545.94 363.449C545.466 363.557 544.969 363.5 544.534 363.287Z" fill="#B14C32"/>
<path d="M350.008 330.334C352.513 330.281 361.211 329.669 362.933 330.943L363.148 332.549C359.854 332.529 354.128 333.119 350.973 332.245C350.308 332.061 350.213 331.062 350.008 330.334Z" fill="#EA8967"/>
<path d="M336.189 346.823C339.222 346.735 342.827 346.078 345.571 347.08C346.236 348.171 346.016 347.863 345.849 349.448C343.212 349.379 337.672 350.182 335.984 348.26L336.189 346.823Z" fill="#EA8967"/>
<path d="M447.406 349.854C450.494 350.229 455.528 349.583 458.209 350.614C458.643 350.781 458.545 351.821 458.596 352.505C455.481 352.417 449.512 353.334 447.461 351.598L447.406 349.854Z" fill="#EA8967"/>
<path d="M528.82 338.683C531.415 338.093 547.309 337.867 548.875 339.198C544.452 339.967 537.349 339.647 532.758 339.762C530.879 339.809 529.959 339.857 528.82 338.683Z" fill="#EA8967"/>
<path d="M326.734 330.307C329.353 330.298 334.12 329.664 336.471 330.676C337.022 330.913 336.977 331.773 337.128 332.592C334.584 332.586 329.519 333.281 327.246 332.218C326.767 331.994 326.829 331.049 326.734 330.307Z" fill="#EA8967"/>
<path d="M459.828 357.715C462.039 357.379 468.176 357.205 470.431 357.876C471.077 358.068 471.135 358.723 471.476 359.528C468.642 359.683 463.484 360.142 460.752 359.381C460.176 359.221 460.102 358.472 459.828 357.715Z" fill="#EA8967"/>
<path d="M499.121 278.908L499.653 279.436C499.031 281.868 493.524 286.64 491.497 289.237L491.258 289.546C491.102 289.333 491.106 288.931 491.062 288.611C492.115 285.146 496.417 281.341 499.121 278.908Z" fill="#EA8967"/>
<path d="M525.852 330.071C529.253 329.727 544.028 329.314 546.744 330.461C543.671 330.92 528.157 331.157 525.852 330.071Z" fill="#EA8967"/>
<path d="M361.923 378.174C363.267 378.035 363.767 377.893 364.987 378.497C365.876 379.62 365.691 379.086 365.701 380.499C364.784 381.96 365.287 381.505 363.835 382.302C362.426 382.131 362.967 382.355 361.803 381.297C361.444 380.316 361.253 379.892 361.102 378.868L361.923 378.174Z" fill="#EA8967"/>
<path d="M339.977 330.337C341.831 330.305 343.634 329.888 345.387 330.451C346.314 331.307 346.025 330.969 346.149 332.625C344.806 332.64 343.411 332.849 342.07 332.759C339.952 332.617 340.144 332.013 339.977 330.337Z" fill="#EA8967"/>
<path d="M520.023 308.774C521.687 308.68 524.661 308.371 526.176 308.939C526.971 309.237 526.931 309.829 527.209 310.724C525.002 310.704 522.2 311.303 520.368 310.233L520.023 308.774Z" fill="#EA8967"/>
<path d="M551.848 422.604L552.529 424.181C552.2 426.169 552.58 426.314 551.429 427.547C550.216 427.86 550.674 427.93 549.672 427.425C548.423 424.901 549.821 423.958 551.848 422.604Z" fill="#EA8967"/>
<path d="M520.234 301.397C522.152 301.272 524.798 300.953 526.583 301.572C527.283 301.815 527.264 302.251 527.671 303.127C525.89 303.246 522.755 303.629 521.166 302.991C520.493 302.722 520.547 302.276 520.234 301.397Z" fill="#D87C5B"/>
<path d="M332.996 341.282C334.376 341.221 335.65 341.113 337.02 341.334C338.113 342.275 337.783 342.057 338.001 343.887C336.596 343.88 335.391 343.922 334.004 343.637C332.888 342.721 333.229 343.212 332.996 341.282Z" fill="#EA8967"/>
<path d="M526.712 347.96C527.82 348.311 527.397 348.005 528.106 348.789C528.646 350.885 528.329 353.518 528.2 355.725L527.08 355.1C526.298 352.579 526.536 350.589 526.712 347.96Z" fill="#EA8967"/>
<path d="M344.766 421.568C347.589 421.341 350.204 420.398 351.373 423.211C348.522 423.47 346.108 424.346 344.766 421.568Z" fill="#EA8967"/>
<path d="M344.883 435.662C347.359 435.467 350.137 434.574 351.113 437.075C349.51 437.732 346.954 437.764 345.371 437.048L344.883 435.662Z" fill="#EA8967"/>
<path d="M538.112 452.962C539.2 453.682 540.691 454.703 541.544 455.662L541.188 456.398C539.798 456.472 538.229 456.703 537.16 456.014C536.953 454.821 537.528 454.089 538.112 452.962Z" fill="#BF5A42"/>
<path d="M344.906 426.283C346.677 426.302 349.326 426.115 350.822 426.831L351.208 428.005C348.631 428.193 345.352 429.206 344.906 426.283Z" fill="#EA8967"/>
<path d="M462.731 383.271C463.651 383.587 463.303 383.319 463.866 384.015C462.849 384.921 462.665 385.055 462.113 386.29C462.453 387.515 462.187 387.073 463.252 387.904C463.749 387.833 464.199 387.829 464.7 387.893L463.71 388.816C462.359 389.105 462.884 389.187 461.702 388.641C460.085 386.431 460.982 384.838 462.731 383.271Z" fill="#EA8967"/>
<path d="M326.598 352.472C327.888 352.431 328.302 352.43 329.571 352.639C330.431 353.643 330.196 353.793 330.354 355.281C329.515 355.297 328.565 355.236 327.719 355.201C326.64 354.237 326.913 354.125 326.598 352.472Z" fill="#EA8967"/>
<path d="M254.641 462.616C257.172 462.436 259.34 461.645 260.53 464.052C258.748 464.208 256.524 464.607 254.985 463.794L254.641 462.616Z" fill="#EA8967"/>
<path d="M402.458 344.333C404.125 344.477 403.941 344.219 405.147 345.086C405.198 346.462 405.268 345.923 404.54 347.324C403.284 347.25 402.783 347.332 401.753 346.654C401.636 345.37 401.73 345.692 402.458 344.333Z" fill="#D87C5B"/>
<path d="M391.84 365.978C393.621 365.852 394.662 365.49 395.918 366.477L396.028 368.078C395.034 368.063 394.043 368.042 393.053 368.015C391.852 367.205 392.216 367.698 391.84 365.978Z" fill="#EA8967"/>
<path d="M401.078 373.348C402.851 373.337 403.943 373.001 405.196 373.873L405.34 375.434L402.268 375.519C401.102 374.775 401.477 375.137 401.078 373.348Z" fill="#D87C5B"/>
<path d="M255.039 467.663C256.644 467.706 258.688 467.561 260.027 468.336L260.275 469.412C257.619 469.639 255.774 470.484 255.039 467.663Z" fill="#EA8967"/>
<path d="M401.102 367.809C402.264 367.718 403.004 367.72 404.17 367.758C405.309 368.658 404.937 368.234 405.36 370.088L402.471 370.123C401.258 369.356 401.614 369.533 401.102 367.809Z" fill="#D87C5B"/>
<path d="M344.848 431.394C347.066 431.022 350.01 430.267 351.334 432.38C348.914 432.677 346.559 433.253 344.848 431.394Z" fill="#EA8967"/>
<path d="M391.758 376.587C392.854 376.466 393.871 376.414 394.967 376.354C396.294 377.016 395.844 376.585 396.525 378.314C394.584 378.531 393.734 378.857 392.137 377.976L391.758 376.587Z" fill="#D87C5B"/>
<path d="M401.273 338.908C402.377 338.804 403.039 338.813 404.154 338.848C405.266 339.738 404.898 339.359 405.363 341.138C404.373 341.209 403.465 341.218 402.471 341.231C401.34 340.396 401.653 340.512 401.273 338.908Z" fill="#D87C5B"/>
<path d="M521.422 460.648C522.393 460.577 523.355 460.569 524.33 460.546C525.485 461.372 525.113 460.933 525.52 462.78C524.502 462.851 523.665 462.831 522.651 462.815C521.535 462.037 521.892 462.303 521.422 460.648Z" fill="#EA8967"/>
<path d="M391.852 360.49C392.944 360.368 393.875 360.361 394.967 360.339C396.255 361.012 395.82 360.589 396.482 362.273C395.354 362.401 394.411 362.416 393.284 362.445C391.996 361.768 392.419 362.217 391.852 360.49Z" fill="#EA8967"/>
<path d="M402.643 356.199C404.252 356.431 403.947 356.162 405.094 357.031C405.039 358.154 405.117 357.754 404.201 358.785C402.526 358.567 402.135 358.561 401.18 357.334C401.634 356.428 401.469 356.719 402.643 356.199Z" fill="#EA8967"/>
<path d="M319.664 324.468C320.571 324.415 321.478 324.37 322.385 324.332C323.409 325.205 323.124 325.154 323.383 326.724C322.363 326.903 321.939 326.838 320.894 326.777C319.814 325.887 320.089 325.958 319.664 324.468Z" fill="#EA8967"/>
<path d="M344.836 417.307C347.226 417.13 349.686 416.485 351.315 418.367C348.936 418.664 346.436 419.169 344.836 417.307Z" fill="#EA8967"/>
<path d="M551.848 422.605C553.484 421.596 554.039 420.12 555.805 419.467L556.576 419.717C556.063 421.29 553.116 422.03 552.529 424.182L551.848 422.605Z" fill="#BF5A42"/>
<path d="M244.5 442.361C245.076 442.467 245.545 442.608 246.106 442.764C246.905 444.185 246.56 444.439 246.433 446.38C245.522 446.2 245.527 446.173 244.749 445.762C244.068 444.247 244.349 444.24 244.5 442.361Z" fill="#EA8967"/>
<path d="M394.438 370.753C395.553 371.404 395.205 371.03 395.788 372.153C395.24 373.53 395.55 373.04 393.937 374.016C392.755 373.338 392.505 373.412 392.188 372.148C392.735 371.22 393.369 371.14 394.438 370.753Z" fill="#EA8967"/>
<path d="M346.079 412.239C347.529 412.192 349.792 411.985 350.845 412.916L350.572 413.581C348.807 413.601 347.191 413.714 345.483 413.268L345.254 412.716L346.079 412.239Z" fill="#EA8967"/>
<path d="M401.098 362.474C403.88 362.219 404.303 361.697 405.532 364.258C404.409 364.377 403.603 364.381 402.491 364.391C401.285 363.714 401.689 364.121 401.098 362.474Z" fill="#D87C5B"/>
<path d="M521.715 449.194C523.503 449.214 523.946 448.881 525.038 449.82L525.077 451.542L522.662 451.389C521.676 450.524 521.989 450.83 521.715 449.194Z" fill="#EA8967"/>
<path d="M392.215 382.078L394.978 381.988C396.168 382.627 395.776 382.211 396.301 383.868C394.367 383.892 393.827 384.218 392.375 383.401L392.215 382.078Z" fill="#EA8967"/>
<path d="M312.087 323.861L312.85 324.509C313.417 326.166 313.213 327.96 313.144 329.729C312.667 329.492 312.544 329.345 312.123 329.011C311.562 327.302 311.895 325.663 312.087 323.861Z" fill="#EA8967"/>
<path d="M521.406 466.544C522.271 466.407 523.242 466.357 524.123 466.29C525.383 467.002 524.972 466.556 525.543 468.192L523.034 468.442C521.727 467.812 522.181 468.192 521.406 466.544Z" fill="#EA8967"/>
<path d="M564.219 435.404C563.969 437.161 561.589 439.779 559.918 440.405C560.274 438.687 562.669 436.148 564.219 435.404Z" fill="#EA8967"/>
<path d="M326.664 341.693C327.677 341.58 328.365 341.557 329.385 341.548C330.259 342.438 329.986 342.109 330.031 343.756C327.567 343.758 327.616 343.956 326.664 341.693Z" fill="#EA8967"/>
<path d="M255.184 457.583C257.002 457.325 258.758 457.165 260.377 458.127C258.49 459.047 256.681 459.11 255.184 457.583Z" fill="#D87C5B"/>
<path d="M524.833 331.729C525.326 332.209 525.107 331.95 525.279 332.795C524.77 333.961 523.682 334.603 522.633 335.413L522.273 335.009C522.614 333.804 523.909 332.695 524.833 331.729Z" fill="#EA8967"/>
<path d="M349.008 408.026L349.546 407.943L350.043 408.319C349.172 408.941 347.984 409.133 346.915 409.407C346.327 409.297 345.976 409.176 345.411 409.004L345.324 408.597C346.532 408.053 347.671 408.104 349.008 408.026Z" fill="#BF5A42"/>
<path d="M564.223 435.404C564.833 433.886 565.08 432.974 566.285 431.867L567.029 431.593C566.853 433.941 566.14 434.175 564.223 435.404Z" fill="#EA8967"/>
<path d="M481.869 355.923C482.637 357.849 483.173 358.454 481.689 360.016C480.261 358.243 480.993 357.778 481.869 355.923Z" fill="#EA8967"/>
<path d="M393.388 453.365L393.944 453.858C394.652 455.31 394.504 456.057 394.433 457.638L393.647 457.294C392.981 456.116 393.279 454.793 393.388 453.365Z" fill="#D87C5B"/>
<path d="M499.497 326.244C500.566 327.192 500.163 328.675 500.038 330.005L499.658 329.704C498.977 328.578 499.302 327.615 499.497 326.244Z" fill="#EA8967"/>
</svg>
