<svg width="789" height="482" viewBox="0 0 789 482" fill="none" xmlns="http://www.w3.org/2000/svg">
<g clip-path="url(#clip0_9359_9904)">
<path d="M358.856 296.702C330.293 295.528 299.486 287.932 279.55 266.07C245.232 228.437 262.654 174.586 277.244 132.318C281.574 119.773 286.009 107.435 292.47 95.8392C298.334 85.0775 305.915 75.3454 314.914 67.027C335.131 48.4377 361.877 38.6008 389.317 39.6628C403.708 40.3462 413.381 44.5676 424.967 52.475C438.356 50.3028 451.31 54.6167 462.065 62.6346C485.778 80.37 496.825 109.649 506.633 136.511C520.7 175.052 534.404 223.672 508.17 260.283C490.468 284.982 458.78 293.845 429.965 296.62C428.479 287.973 427.898 284.038 427.701 275.242L427.624 269.149C404.851 279.966 389.429 281.485 365.757 273.094C364.238 272.541 362.734 271.946 361.248 271.31C361.202 279.793 360.886 288.418 358.856 296.702Z" fill="#313339"/>
<path d="M323.494 172.507C323.66 170.316 323.868 168.013 325.726 166.538C330.656 162.625 364.582 164.543 371.55 165.669C374.351 166.122 377.994 166.61 379.707 169.141C380.521 170.345 380.778 171.759 380.997 173.163C381.351 174.912 381.109 177.216 381.736 178.053L385.499 176.072L387.624 175.45C393.858 174.939 396.708 174.773 402.392 177.912L403.578 177.506C405.869 193.238 410.813 195.545 426.709 196.069C434.795 196.336 449.282 196.344 455.547 190.685L456.063 192.066C460.753 187.401 462.074 178.97 462.84 172.601C464.719 171.737 470.784 169.256 472.544 169.987C471.812 187.153 468.789 214.741 461.088 230.364C455.304 243.793 448.754 253.736 437.067 262.881C434.453 264.929 429.551 267.345 427.621 269.149C404.848 279.967 389.426 281.485 365.754 273.095C364.235 272.541 362.732 271.946 361.245 271.31C341.477 261.864 331.952 250.249 323.149 230.538C315.507 214.35 312.104 187.783 312.165 169.892C314.395 169.949 320.02 171.527 321.568 173.064C322.227 172.948 322.856 172.716 323.494 172.507Z" fill="#F5AE91"/>
<path d="M323.496 172.507C323.662 170.316 323.87 168.013 325.728 166.538C330.658 162.625 364.584 164.543 371.552 165.669C374.353 166.122 377.996 166.61 379.709 169.141C380.523 170.345 380.78 171.759 380.999 173.163C381.353 174.912 381.111 177.216 381.738 178.053C381.761 178.165 381.784 178.277 381.807 178.389C381.999 188.351 376.938 195.119 366.997 196.23C360.414 197.287 354.29 197.241 347.705 197.011C328.228 196.33 324.078 192.096 321.57 173.064C322.229 172.948 322.858 172.716 323.496 172.507Z" fill="#F5AE91"/>
<path d="M323.496 172.507C325.021 178.083 325.024 189.588 331.342 192.476C341.791 197.254 357.956 196.875 369.122 194.753C380.422 192.605 380.105 181.764 380.999 173.163C381.353 174.912 381.111 177.216 381.738 178.052C381.761 178.164 381.784 178.276 381.807 178.389C381.999 188.35 376.938 195.119 366.997 196.23C360.414 197.286 354.29 197.241 347.705 197.011C328.228 196.33 324.078 192.095 321.57 173.064C322.229 172.948 322.858 172.715 323.496 172.507Z" fill="#726565"/>
<path d="M356.09 170.955C364.186 171.63 363.479 181.293 358.223 186.119C350.521 185.985 349.964 175.86 356.09 170.955Z" fill="#313339"/>
<path d="M385.5 176.072L387.626 175.45C387.595 178.836 387.287 181.145 387.145 184.457C386.917 189.845 383.342 202.334 386.659 206.328C389.062 209.221 395.366 208.097 397.31 209.224C396.667 211.98 384.613 211.794 383.311 205.314C381.362 195.617 385.454 186.15 385.5 176.072Z" fill="#C8634E"/>
<path d="M403.581 177.506C405.872 193.238 410.816 195.545 426.712 196.069C434.798 196.336 449.285 196.344 455.55 190.685L456.066 192.066C449.839 198.594 428.314 197.279 419.857 196.528C406.819 195.371 403.873 190.157 402.395 177.912L403.581 177.506Z" fill="#726565"/>
<path d="M436.408 198.842C457.267 197.168 465.257 214.273 444.167 218.914C422.626 221.523 414.416 203.281 436.408 198.842Z" fill="#E68570"/>
<path d="M341.219 198.877C362.037 196.374 369.341 215.989 347.484 219.076C326.143 220.429 319.744 202.484 341.219 198.877Z" fill="#E68570"/>
<path d="M406.886 230.149C409.412 228.69 415.808 223.904 417.926 224.459C418.8 227.687 412.489 231.147 410.09 232.447C400.887 237.993 378.681 239.433 369.308 230.943C368.982 230.648 369.248 230.241 369.382 229.847C370.033 229.616 370.88 229.52 371.53 229.769C384.749 234.849 393.613 235.011 406.886 230.149Z" fill="#C8634E"/>
<path d="M417.578 217.598C423.05 217.845 426.489 224.839 425.98 229.875C425.618 229.759 425.141 229.517 424.783 229.355C424.282 227.857 423.285 224.685 422.565 223.411C421.41 221.359 417.778 220.103 417.578 217.598Z" fill="#C8634E"/>
<path d="M399.718 245.324C399.895 245.388 400.519 245.804 400.719 245.929L400.746 246.663C398.405 249.398 391.855 249.247 388.566 248.852C387.865 248.739 387.769 248.59 387.199 248.173L387.326 247.528C390.114 246.158 393.78 248.175 399.718 245.324Z" fill="#C8634E"/>
<path d="M472.546 169.988C474.902 169.606 477.043 168.498 479.323 167.999C491.141 165.416 501.988 175.135 503.914 186.505C506.936 204.336 495.7 220.91 480.016 228.537L479.073 228.953C473.112 231.402 467.386 232.09 461.09 230.365C468.791 214.741 471.814 187.153 472.546 169.988Z" fill="#E68570"/>
<path d="M473.758 202.456C475.337 195.142 482.865 185.162 491.074 186.186L491.702 186.614L491.525 187.41C483.723 190.75 484.043 190.47 478.694 197.65L484.039 197.405C492.923 202.853 486.334 211.279 481.729 209.77C482.276 207.685 487.867 204.986 485.703 201.988C483.516 198.963 478.128 200.436 476.407 203.182L473.758 202.456Z" fill="#C8634E"/>
<path d="M473.757 202.456L476.407 203.182C476.099 204.596 475.902 206.532 474.863 207.344L474.2 207.092C473.349 205.772 473.669 204.092 473.757 202.456Z" fill="#C8634E"/>
<path d="M305.522 228.976C290.433 221.927 279.157 206.691 280.334 189.484C281.089 178.464 287.451 170.685 298.205 168.051C304.779 166.442 306.624 169.592 312.167 169.892C312.106 187.783 315.51 214.351 323.151 230.539C316.747 231.857 312.738 231.455 306.685 229.503L305.522 228.976Z" fill="#E68570"/>
<path d="M292.586 186.131C302.077 184.623 313.925 199.041 310.379 207.488C309.588 207.296 308.811 204.762 308.108 203.644C305.852 200.062 299.131 197.77 298.773 204.088L298.753 204.485C300.283 207.68 302.319 208.04 303.127 209.799L302.575 210.076C297.168 208.884 293.396 204.467 298.218 199.367C300.299 197.167 302.89 197.496 305.706 197.616C302.047 192.567 299.615 189.368 293.603 187.704C292.797 187.481 292.782 186.863 292.586 186.131Z" fill="#C8634E"/>
<path d="M403.578 177.506C403.513 174.46 403.082 170.991 405.373 168.591C410.463 163.263 436.433 164.278 444.28 164.397C448.2 164.456 456.102 164.087 458.967 167.021C460.623 168.715 460.892 171.196 460.784 173.448C460.511 179.3 458.821 185.806 455.547 190.684C449.282 196.344 434.796 196.336 426.71 196.069C410.814 195.545 405.869 193.238 403.578 177.506Z" fill="#F5AE91"/>
<path d="M426.167 170.984C429.96 171.044 430.484 172.646 432.371 175.533C432.74 180.961 432.687 182.405 428.632 186.093C420.896 185.961 420.749 176.028 426.167 170.984Z" fill="#313339"/>
<path d="M305.52 228.976L306.682 229.503C308.737 246.894 315.74 267.074 327.769 280.055C332.166 284.801 335.334 287.14 340.008 291.227C334.596 289.182 329.639 286.091 325.422 282.129C311.156 268.976 306.3 247.634 305.52 228.976Z" fill="#838387"/>
<path d="M479.072 228.953L480.016 228.536C480.959 231.968 481.059 236.618 480.994 240.192C480.613 260.48 473.758 277.108 456.457 288.151C472.164 270.628 479.292 252.882 479.072 228.953Z" fill="#838387"/>
<path d="M418.237 83.9502C423.728 97.0015 431.118 109.168 440.171 120.055C445.893 127.142 452.104 133.819 458.762 140.038C462.305 143.376 465.986 146.554 469.532 149.882C470.202 150.51 470.353 151.599 470.464 152.465C471.554 156.976 471.851 161.5 472.178 166.121C468.666 167.023 466.525 167.85 463.144 169.22C461.954 166.431 460.533 164.628 457.672 163.455C449.651 160.165 414.552 161.502 406.385 165.124C405.43 165.548 404.521 166.115 403.639 166.674C401.968 169.671 401.748 170.984 401.433 174.414C396.588 172.582 392.638 171.965 387.431 173.019L385.495 173.549C384.746 173.843 384.308 173.932 383.542 174.108C382.495 173.238 382.367 170.382 381.871 169.049C381.146 167.096 379.866 165.758 377.976 164.902C370.221 161.39 334.366 160.391 326.564 163.531C323.774 164.654 322.455 166.718 321.333 169.397C318.105 168.153 315.594 167.148 312.242 166.306C312.703 157.627 314.017 151.842 315.319 143.258L319.162 142.362C352.947 132.188 399.064 115.417 418.237 83.9502Z" fill="#F5AE91"/>
<path d="M418.239 83.9502C423.73 97.0015 431.12 109.168 440.173 120.055C445.895 127.142 452.106 133.819 458.764 140.038C462.306 143.376 465.988 146.554 469.534 149.882C470.204 150.51 470.354 151.599 470.466 152.465C469.057 152.006 467.744 151.369 466.423 150.65C448.74 141.02 433.222 126.726 422.833 109.424C420.684 105.841 419.009 102.146 417.068 98.5431C405.162 114.933 384.395 127.487 365.666 134.436C356.658 137.778 327.626 146.301 319.164 142.362C352.949 132.188 399.066 115.417 418.239 83.9502Z" fill="#E68570"/>
<path d="M385.496 173.549C385.515 169.637 384.281 163.627 384.886 160.174L385.276 159.998C387.337 163.732 387.229 168.776 387.433 173.019L385.496 173.549Z" fill="#C8634E"/>
<path d="M353.318 148.017C354.634 147.938 355.951 147.883 357.269 147.851C360.293 147.797 364.667 148.379 366.936 150.574C367.988 153.224 365.733 154.023 363.636 154.923C359.114 154.423 356.215 154.078 351.642 154.764C348.95 155.327 340.783 158.25 338.996 156.597C338.157 151.846 349.793 148.576 353.318 148.017Z" fill="#313339"/>
<path d="M423.231 147.991C430.825 147.536 438.692 148.344 444.437 154.112C445.203 154.881 445.292 155.427 445.219 156.418L444.472 157.023C442.993 157.433 441.576 156.907 440.063 156.533C432.134 154.261 429.054 153.9 420.801 154.937C419.392 154.356 418.549 154.141 417.586 152.927C416.469 149.255 420.482 148.546 423.231 147.991Z" fill="#313339"/>
<path d="M382.923 57.1659C385.43 56.8077 402.396 56.7938 404.172 57.8281C400.887 58.2091 396.805 58.0958 393.263 58.4737C381.137 59.7668 370.689 61.6061 359.21 66.0128C334.504 75.4972 313.71 94.1139 299.718 116.398C296.379 121.716 293.329 128.21 290.728 133.932C288.604 139.34 286.614 144.8 284.761 150.307C284.588 147.569 286.487 141.664 287.287 138.967C292.206 122.385 299.902 107.668 311.14 94.4206C329.11 72.8821 354.971 59.4602 382.923 57.1659Z" fill="#838387"/>
<path d="M412.996 68.9355C413.096 71.0326 408.491 77.1153 407.132 78.9292C394.005 96.5224 372.061 105.526 351.646 111.497C331.556 117.374 309.915 124.071 302.67 146.087C301.3 150.251 300.644 154.618 299.413 158.793C299.173 154.44 300.399 148.111 301.705 143.898C309.712 117.081 338.7 110.885 362.039 103.174C382.866 96.2917 399.754 87.043 412.996 68.9355Z" fill="#838387"/>
<path d="M489.398 129.001C495.775 137.651 502.552 153.212 506.072 163.561C513.654 185.857 516.369 211.878 511.12 234.976C509.006 244.286 505.652 251.641 501.447 260.028C500.935 260.774 500.385 261.48 499.834 262.2C499.572 261.76 500.496 260.088 500.75 259.514C516.5 224.076 510.188 183.57 497.666 148.202C495.429 141.891 491.809 135.389 489.398 129.001Z" fill="#838387"/>
<path d="M428.293 77.6211C429.225 78.2944 432.433 84.483 433.226 85.8467C436.865 92.2044 440.943 98.3021 445.425 104.096C449.807 109.793 455.464 115.702 460.535 120.801C468.514 128.824 478.683 137.221 484.105 147.204C481.078 144.871 477.909 140.306 474.432 137.738C453.026 121.931 435.143 104.303 428.293 77.6211Z" fill="#838387"/>
<path d="M432.805 66.6849C439.482 66.6383 451.454 72.0461 457.118 75.9828C468.466 83.8232 476.202 95.8865 478.59 109.474C477.585 108.479 472.671 99.2146 471.131 97.0163C463.387 85.9649 454.681 78.0564 442.751 71.662C439.455 69.8951 436.097 68.4745 432.805 66.6849Z" fill="#838387"/>
<path d="M282.71 219.825C283.272 221.607 283.528 223.289 283.736 225.114C285.492 240.538 290.833 256.619 299.32 269.645C300.285 271.125 303.942 276.404 303.964 277.694C298.364 272.569 296.06 270.059 291.953 263.632C285.482 253.509 279.721 231.501 282.71 219.825Z" fill="#838387"/>
<path d="M493.666 235.172C494.667 236.852 494.725 241.542 494.621 243.575C494.12 253.276 489.734 262.949 482.487 269.477L482.156 269.206C482.218 268.054 485.83 261.553 486.635 259.661C490.031 251.673 491.783 243.608 493.666 235.172Z" fill="#838387"/>
<path d="M361.247 271.31C362.734 271.947 364.237 272.542 365.756 273.095C389.428 281.485 404.851 279.967 427.624 269.149L427.701 275.243C427.897 284.039 428.478 287.974 429.965 296.621C430.396 298.717 432.549 306.743 433.623 308.305C448.822 312.397 464.105 327.659 475.738 338.522C479.042 341.252 477.922 342.3 479.508 344.444C499.782 355.445 526.121 363.146 545.332 375.95C545.767 376.297 546.969 377.195 547.246 377.569C568.525 392.111 576.627 413.035 581.255 437.503C582.957 446.674 584.428 455.888 585.668 465.137C586.273 469.852 586.858 477.066 587.655 481.5H520.976H518.034H458.01H454.19H424.05H364.833H334.562H330.883H270.775H267.784H201.312C201.604 470.564 205.236 449.956 207.32 438.839C211.977 414.009 219.949 392.195 241.698 377.45C242.175 376.884 243.092 376.303 243.729 375.856C263.408 363.119 288.672 355.621 309.576 344.527C310.336 342.056 310.537 340.606 312.553 339.029C326.241 326.687 337.951 313.812 355.487 307.89C356.928 304.972 358.088 300.289 358.892 297.145L358.856 296.702C360.885 288.418 361.201 279.794 361.247 271.31Z" fill="#1B5969"/>
<path d="M312.553 339.028C326.241 326.687 337.951 313.811 355.487 307.89C352.451 317.069 346.928 325.289 340.458 332.395C341.915 342.31 343.487 352.207 345.172 362.085C345.399 363.412 346.492 370.769 346.745 371.588L358.367 442.213L362.878 469.944C363.444 473.253 364.077 478.38 364.833 481.5H334.562H330.883H270.775H267.784H201.312C201.604 470.564 205.236 449.956 207.32 438.839C211.977 414.009 219.949 392.195 241.698 377.449C242.175 376.884 243.092 376.303 243.729 375.855C263.408 363.118 288.672 355.621 309.576 344.527C310.336 342.056 310.537 340.606 312.553 339.028Z" fill="#1B5969"/>
<path d="M312.553 339.028C326.241 326.687 337.951 313.811 355.487 307.89C352.451 317.069 346.928 325.289 340.458 332.395C341.915 342.31 343.487 352.207 345.172 362.085C345.399 363.412 346.492 370.769 346.745 371.588L358.367 442.213L362.878 469.944C363.444 473.253 364.077 478.38 364.833 481.5H334.562H330.883C329.904 479.89 327.846 475.491 326.869 473.584L317.999 456.311L308.527 438.014C306.655 434.405 303.367 428.592 302.402 424.891C302.91 423.061 321.034 409.302 323.811 407.295C315.199 405.238 303.467 404.055 295.277 401.251C295.712 398.489 296.838 394.61 297.536 391.79C301.436 376.051 305.086 360.092 309.575 344.527C310.336 342.056 310.537 340.606 312.553 339.028Z" fill="#1B5969"/>
<path d="M312.553 339.028C312.373 344.067 308.72 359.152 307.404 364.435C304.536 375.954 301.899 387.781 298.978 399.267C303.308 400.046 326.046 403.597 328.228 405.87C328.358 406.494 328.57 407.072 328.053 407.619C322.732 413.269 310.932 420.542 305.957 425.688C315.101 443.65 326.101 463.449 334.562 481.5H330.883C329.904 479.89 327.846 475.491 326.869 473.584L317.999 456.312L308.527 438.015C306.655 434.405 303.367 428.593 302.402 424.891C302.91 423.061 321.034 409.302 323.811 407.295C315.199 405.238 303.467 404.055 295.277 401.251C295.712 398.489 296.838 394.61 297.536 391.791C301.436 376.051 305.086 360.093 309.575 344.527C310.336 342.056 310.537 340.606 312.553 339.028Z" fill="#083844"/>
<path d="M267.782 481.5C267.424 475.422 266.857 469.362 266.083 463.322C265.674 460.225 263.618 446.844 263.94 444.247C264.926 443.531 264.446 443.677 265.692 443.747C266.914 444.817 266.844 444.975 266.986 446.678C267.951 458.249 269.793 469.952 270.773 481.5H267.782Z" fill="#083844"/>
<path d="M243.726 375.855C246.33 380.261 256.69 403.859 255.985 408.651L255.561 408.955C254.844 408.609 254.293 408.123 254 407.364C250.687 398.79 247.587 390.185 243.723 381.82C243.06 380.387 242.301 378.895 241.695 377.45C242.173 376.884 243.089 376.303 243.726 375.855Z" fill="#083844"/>
<path d="M361.247 271.31C362.733 271.947 364.236 272.542 365.755 273.095C389.428 281.485 404.85 279.967 427.623 269.149L427.7 275.243C427.896 284.039 428.478 287.974 429.964 296.621C430.395 298.717 432.548 306.743 433.622 308.305C436.529 317.28 442.479 325.303 448.424 332.487C446.172 345.132 444.131 357.814 442.302 370.528C436.175 373.201 427.731 376.661 421.258 378.019C399.093 382.669 373.907 381.845 352.78 373.118C350.983 372.376 349.19 371.7 347.386 371.049C347.215 371.182 346.858 371.435 346.744 371.589C346.491 370.769 345.398 363.412 345.171 362.086C343.486 352.208 341.914 342.31 340.457 332.396C346.927 325.289 352.45 317.07 355.486 307.89C356.927 304.972 358.088 300.289 358.891 297.145L358.855 296.702C360.885 288.418 361.2 279.794 361.247 271.31Z" fill="#F5AE91"/>
<path d="M361.247 271.31C362.734 271.947 364.237 272.542 365.756 273.095C389.428 281.485 404.85 279.967 427.623 269.149L427.7 275.243L427.3 273.012L426.815 272.761C425.513 273.93 425.321 274.926 424.219 276.165C422.371 278.249 420.372 280.428 418.332 282.334C405.447 294.381 390.052 300.483 372.344 299.641C369.112 299.488 360.114 296.979 358.892 297.145L358.855 296.702C360.885 288.418 361.201 279.794 361.247 271.31Z" fill="#E68570"/>
<path d="M346.746 371.589C346.86 371.435 347.217 371.182 347.387 371.049C349.192 371.7 350.985 372.376 352.782 373.118C373.908 381.845 399.095 382.668 421.259 378.019C427.732 376.661 436.177 373.201 442.303 370.527C436.077 407.068 429.681 444.887 424.051 481.5H364.834C364.078 478.38 363.445 473.253 362.879 469.944L358.368 442.213L346.746 371.589Z" fill="#FBEED6"/>
<path d="M433.624 308.304C448.822 312.396 464.106 327.658 475.739 338.522C479.043 341.251 477.922 342.3 479.509 344.443L481.276 351.567C482.959 358.118 493.564 399.317 492.832 401.154C488.754 403.35 470.252 405.992 464.918 407.402C467.941 409.498 484.73 422.198 486.209 424.571C485.708 428.646 478.95 440.221 476.744 444.778C470.925 456.812 463.555 469.373 458.01 481.499H454.19H424.051C429.681 444.886 436.077 407.067 442.303 370.527C444.132 357.813 446.173 345.131 448.426 332.486C442.48 325.302 436.531 317.279 433.624 308.304Z" fill="#1B5969"/>
<path d="M478.408 353.004C479.537 352.248 480.053 352.062 481.273 351.567C482.956 358.118 493.561 399.317 492.829 401.155C488.751 403.35 470.249 405.993 464.916 407.403C467.938 409.498 484.727 422.198 486.206 424.571C485.706 428.646 478.948 440.222 476.741 444.778C470.923 456.812 463.552 469.373 458.007 481.5H454.188L482.856 425.827C477.846 420.623 466.036 413.292 460.711 407.626C460.198 407.083 460.453 406.509 460.607 405.9C462.971 403.72 485.043 400.13 489.799 399.236C486.576 385.07 482.232 366.738 478.408 353.004Z" fill="#083844"/>
<path d="M475.738 338.521C479.042 341.251 477.922 342.3 479.508 344.443L481.276 351.567C480.055 352.061 479.539 352.248 478.411 353.004C477.687 348.212 476.089 343.356 475.738 338.521Z" fill="#083844"/>
<path d="M518.035 481.499C519.217 472.413 520.627 454.231 522.359 444.243C522.567 444.073 522.775 443.904 522.987 443.734C524.32 443.846 523.865 443.611 524.712 444.578C525.382 447.267 521.093 475.186 520.977 481.499H518.035Z" fill="#083844"/>
<path d="M545.333 375.949C545.768 376.296 546.97 377.194 547.247 377.569C544.309 383.614 541.594 389.768 539.114 396.016C538.148 398.516 535.391 407.633 533.6 408.735L532.753 408.412C531.617 405.211 542.746 379.419 545.333 375.949Z" fill="#083844"/>
</g>
<defs>
<clipPath id="clip0_9359_9904">
<rect width="788.625" height="481.5" fill="white"/>
</clipPath>
</defs>
</svg>
