<svg width="806" height="498" viewBox="0 0 806 498" fill="none" xmlns="http://www.w3.org/2000/svg">
<path d="M307.728 128.07C306.687 117.752 306.28 110.864 308.803 100.388C314.664 76.6789 335.972 61.6372 355.021 48.8541C376.857 34.2009 423.664 23.5033 440.383 51.169C461.909 47.1063 479.805 63.551 485.878 82.9295C489.06 93.0831 489.984 103.577 495.168 112.972C498.216 118.521 502.326 123.417 507.266 127.382C510.007 129.583 513.288 131.918 515.6 134.486C506.692 130.871 503.113 127.488 496.654 120.72C507.116 140.133 526.928 155.521 510.051 179.032C509.618 179.634 508.643 183 508.379 183.866C512.548 185.453 518.42 188.04 521.523 191.254C530.609 198.181 538.621 220.252 540.166 230.959C542.971 238.869 544.39 255.805 541.991 264.178C543.317 269.911 544.257 282.721 544.485 288.89C550.326 291.643 556.957 295.339 561.566 299.879C579.58 316.676 576.095 370.777 579.293 394.334C579.517 395.99 579.729 398.884 579.781 400.614C579.796 401.247 579.796 401.88 579.781 402.509C580.78 413.543 583.82 417.169 586.896 426.507C591.954 441.863 606.907 475.88 607.458 491.152C606.746 491.856 607.041 491.64 605.94 491.868C602.376 491.31 587.698 491.597 583.34 491.597L532.847 491.62H519.089C514.987 491.597 510.884 491.612 506.782 491.663L504.757 491.608L503.466 491.789L501.807 491.974L500.831 491.573C479.447 491.738 458.063 491.742 436.678 491.581L432.262 491.601L374.358 491.679L369.617 491.557L306.442 491.62L304.691 491.722C303.304 491.616 301.201 491.644 299.754 491.616L287.7 491.624L273.92 491.636L223.002 491.604C218.712 491.601 203.827 491.325 200.448 491.891L199.201 491.569C197.273 488.801 203.299 471.224 204.625 467.351C208.982 454.827 213.474 442.35 218.1 429.924C219.615 425.733 222.448 419.445 223.151 415.36C223.357 414.157 222.812 407.598 222.81 405.577L222.804 372.524C222.765 367.637 222.042 361.916 222.583 357.299L222.705 356.07C222.79 355.991 224.517 354.658 224.399 354.972C225.406 352.765 224.767 348.488 225.033 345.927C226.097 335.708 239.491 336.365 231.862 324.522C230.911 323.046 235.587 305.976 237.561 303.442C239.203 301.428 240.301 301.61 242.763 301.37C244.63 295.608 246.521 289.845 248.493 284.117C250.371 278.661 251.51 275.649 256.486 272.594C261.059 272.442 261.297 273.106 263.552 269.065C263.776 267.374 263.805 266.441 264.605 264.929C264.207 262.119 263.187 259.086 263.099 256.116C262.561 238.072 270.297 207.557 281.906 194.086C284.135 190.846 290.909 186.786 294.688 185.323C291.52 169.11 294.204 159.04 302.9 145.243C294.82 153.229 287.727 162.003 288.986 174.189C289.255 176.8 290.643 179.233 290.753 181.36L290.326 181.29C279.068 169.544 290.373 152.942 299.233 143.648C293.6 146.408 286.392 150.032 279.919 148.733L279.82 148.452C281.23 147.45 285.755 146.164 287.649 145.432C297.553 141.608 302.082 136.444 307.728 128.07ZM261.87 292.007C261.888 290.158 262.036 289.103 262.304 287.269C262.323 285.583 262.347 284.249 262.512 282.571C261.432 281.813 258.908 279.858 257.803 279.66C254.942 281.962 251.368 296.685 249.256 301.152C253.819 301.481 254.391 301.708 256.311 305.959C259.4 300.439 261.161 298.45 261.87 292.007ZM310.221 124.439C315.641 112.503 315.746 98.5154 321.28 86.4547C322.006 84.872 327.016 75.8237 326.899 75.0856C324.47 78.0332 322.025 80.9603 319.852 84.051C312.327 94.7531 309.43 107.391 309.73 120.35C309.763 121.765 309.649 123.088 310.221 124.439ZM252.184 316.155C252.344 315.546 252.517 314.939 252.704 314.337C251.701 312.939 248.257 312.703 246.708 311.495C244.708 309.935 244.619 307.061 242.821 306.269C236.249 317.765 244.207 316.104 252.184 316.155ZM511.329 170.875C514.161 163.379 513.822 156.064 510.483 148.829C508.619 144.799 499.447 130.534 496.69 127.695C499.396 137.799 505.76 146.581 508.91 157.061C511.132 164.445 509.834 166.375 510.68 171.949L511.329 170.875ZM259.935 316.989L260.336 316.739C260.443 315.146 260.718 312.38 260.549 310.892L260.16 310.508C257.692 312.867 258.819 313.943 259.935 316.989Z" fill="#212D35"/>
<path d="M465.871 303.376L465.899 302.857L466.827 302.809C468.216 304.266 468.086 321.483 468.4 325.066C469.553 338.194 470.013 351.673 471.948 364.684C472.086 365.616 478.186 364.877 479.004 364.999C483.441 365.66 496.754 368.457 499.983 370.327L500.011 370.817C502.654 372.006 506.748 373.753 509.073 375.258C510.579 375.24 511.008 376.171 512.101 375.906C513.147 373.009 512.172 358.188 514.551 356.081C516.121 351.317 516.722 344.878 517.918 339.956C520.715 328.454 522.89 314.432 526.17 303.192C530.28 306.25 535.377 310.329 538.528 314.61C551.916 332.806 559.664 357.352 567.605 378.433C569.819 384.315 571.389 390.248 573.831 395.864L574.398 395.982C575.035 397.649 579.121 409.591 579.652 410.263L579.884 410L579.503 407.994C579.499 406.001 579.605 404.499 579.778 402.509C580.777 413.543 583.817 417.168 586.893 426.507C591.951 441.862 606.905 475.879 607.455 491.152C606.743 491.856 607.038 491.64 605.937 491.868C602.374 491.309 587.695 491.596 583.338 491.596L532.844 491.62H519.086C514.984 491.596 510.882 491.612 506.78 491.663L504.754 491.608L503.464 491.789L501.804 491.974L500.829 491.573C479.445 491.738 458.06 491.742 436.676 491.581L432.259 491.6L430.91 415.788L430.281 383.955C430.21 378.245 429.986 369.735 430.576 364.111C432.448 346.195 441.455 325.518 454.096 312.588C457.297 309.314 462.21 306.383 465.871 303.376Z" fill="#3B6450"/>
<path d="M465.871 303.377L466.682 303.462C467.22 305.104 467.582 323.707 467.862 327.255C468.872 339.992 469.926 352.585 471.272 365.315C469.989 366.26 468.204 367.467 467.201 368.636L466.713 369.3C466.284 370.159 465.867 371.022 465.454 371.89C465.144 375.166 465.482 376.458 465.982 379.701C463.417 382.535 463.268 384.188 463.279 388.039C463.877 389.671 464.448 391.246 465.12 392.85C461.36 397.999 463.114 401.723 466.646 406.167C462.851 416.5 472.601 419.78 480.204 423.625C483.637 438.41 486.355 458.453 498.528 468.055C499.004 471.669 498.807 475.212 502.237 477.237C502.186 481.672 502.284 487.684 501.804 491.974L500.829 491.573C479.445 491.738 458.06 491.742 436.676 491.581L432.259 491.601L430.91 415.789L430.281 383.956C430.21 378.246 429.986 369.736 430.576 364.112C432.448 346.196 441.455 325.519 454.096 312.589C457.297 309.314 462.21 306.383 465.871 303.377Z" fill="#896749"/>
<path d="M451.885 371.611L452.176 371.599C454.438 371.513 464.306 370.824 465.458 371.89C465.148 375.165 465.486 376.457 465.985 379.7C463.421 382.534 463.272 384.188 463.283 388.039C463.775 395.219 460.463 398.695 462.929 405.25C463.901 407.841 463.791 411.258 464.027 414.093C464.676 421.973 471.169 426.326 476.829 431.037C479.311 439.668 484.628 458.912 489.584 465.66C471.889 467.732 454.316 469.611 436.475 469.167C436.243 447.131 435.85 425.099 435.307 403.067C435.008 392.602 434.178 382.53 434.237 372.045L443.74 371.872C443.197 398.164 445.702 425.343 445.25 451.716C445.223 453.289 445.207 456.093 445.997 457.386C447.984 458.798 452.318 459.026 453.864 456.875C454.717 454.15 454.371 447.367 454.32 444.107L453.753 414.475C453.694 410.987 453.305 403.59 453.702 400.539C455.189 398.77 453.022 391.351 452.731 388.629L452.688 388.205C452.766 383.02 453.226 376.484 451.885 371.611Z" fill="#B29267"/>
<path d="M436.531 471.142C448.837 471.13 460.314 471.016 472.577 469.754C478.686 469.125 484.683 468.024 490.74 467.406C498.017 479.195 498.976 477.339 500.833 491.573C479.449 491.738 458.064 491.742 436.68 491.581C436.621 484.841 436.468 477.862 436.531 471.142Z" fill="#B29267"/>
<path d="M434.185 369.966C434.165 365.412 434.075 353.197 435.384 349.379C440.1 335.614 451.25 325.32 463.553 318.615C463.777 332.802 464.875 354.516 467.203 368.636L466.715 369.3C456.977 369.575 443.53 368.968 434.185 369.966Z" fill="#B29267"/>
<path d="M453.703 400.539C452.362 400.771 451.756 400.913 450.462 401.334C448.134 404.57 452.814 449.735 450.206 455.429L449.593 455.503C449.101 454.001 449.357 453.588 449.345 451.846C449.243 435.139 448.905 418.372 448.617 401.66C448.613 401.471 447.496 400.252 447.308 400.048C446.545 395.671 445.951 386.618 445.99 381.864C445.994 381.156 447.162 380.733 447.839 380.371C448.731 378.596 447.469 376.958 448.024 374.459C449.432 375.554 452.204 385.968 452.688 388.205L452.731 388.63C453.022 391.352 455.19 398.77 453.703 400.539Z" fill="#1E2630"/>
<path d="M447.121 382.324C447.916 382.369 448.336 382.491 449.092 382.673C450.688 384.525 452.482 396.324 452.824 399.241C451.404 399.481 450.791 399.67 449.359 399.316C448.506 397.857 447.377 384.8 447.121 382.324Z" fill="#575863"/>
<path d="M474.063 366.027C483.699 364.923 490.865 368.539 500.014 370.817C502.657 372.007 506.751 373.754 509.076 375.258C509.976 375.931 511.113 376.837 512.026 377.442C513.268 376.348 512.934 373.953 512.934 372.339L512.883 366.515C515.923 368.82 520.163 371.847 522.574 374.923C530.027 384.435 532.289 397.697 537.382 408.553C539.683 413.469 542.621 417.161 545.221 421.687C541.154 423.865 532.639 431.761 531.321 436.531C530.952 437.864 531.16 439.716 531.376 441.084C528.777 443.196 527.247 443.927 524.317 445.484C522.983 443.534 521.445 441.525 519.424 440.274C514.323 437.109 509.005 435.866 503.786 432.567C497.505 428.596 492.049 423.535 485.674 419.835C481.221 417.31 476.219 415.635 471.888 412.899C470.197 411.833 468.671 408.51 470.327 406.709L468.927 406.312L469.21 405.412C465.989 403.957 465.552 401.656 464.801 398.507C465.438 396.167 465.725 394.728 467.581 393.116L466.968 391.659L469.288 391.049C466.657 387.878 466.335 382.757 469.76 379.982L468.368 379.883L468.116 379.002C464.75 373.858 468.714 367.713 474.063 366.027Z" fill="#EB936F"/>
<path d="M468.115 379.002C464.748 373.859 468.713 367.713 474.062 366.027C470.971 372.798 474.192 374.936 479.855 378.036C476.115 377.76 471.458 377.094 468.115 379.002Z" fill="#CE7154"/>
<path d="M468.117 379.001C471.46 377.094 476.117 377.759 479.858 378.035C482.847 378.538 491.802 379.283 493.364 380.917L493.38 381.609C492.396 382.319 490.815 382.002 489.549 381.794C482.969 380.716 476.475 378.815 469.761 379.981L468.369 379.882L468.117 379.001Z" fill="#9F4630"/>
<path d="M469.289 391.049L469.687 391.146C474.65 392.334 483.421 392.269 487.35 394.382L487.614 395.086C487.157 395.53 486.957 395.916 486.253 395.739C481.195 394.477 476.601 393.883 471.401 393.537L467.582 393.116L466.969 391.659L469.289 391.049Z" fill="#9F4630"/>
<path d="M469.209 405.411C470.428 405.085 471.392 405.246 472.654 405.325C475.821 405.926 482.499 406.725 484.65 408.569L484.977 409.312C483.266 410.299 473.276 407.185 470.326 406.709L468.926 406.312L469.209 405.411Z" fill="#9F4630"/>
<path d="M467.581 393.115L471.401 393.536C469.296 393.646 469.281 393.331 467.719 394.315C466.85 395.714 467.263 398.384 467.33 400.201C468.813 402.828 469.603 404.346 472.655 405.325C471.393 405.246 470.429 405.085 469.21 405.411C465.989 403.956 465.552 401.656 464.801 398.506C465.438 396.167 465.725 394.727 467.581 393.115Z" fill="#CE7154"/>
<path d="M512.932 372.338C513.026 373.15 513.144 374.169 513.286 375.394C514.667 377.202 519.96 381.417 519.862 383.792C517.439 383.898 514.167 378.934 512.023 377.441C513.266 376.348 512.932 373.952 512.932 372.338Z" fill="#9F4630"/>
<path d="M465.872 303.376L465.899 302.857L466.828 302.809C468.216 304.266 468.086 321.483 468.401 325.066C469.553 338.194 470.013 351.673 471.948 364.684C472.086 365.616 478.186 364.877 479.004 364.999C483.441 365.66 496.754 368.457 499.984 370.327L500.011 370.817C490.863 368.538 483.697 364.922 474.061 366.026C468.711 367.713 464.747 373.858 468.114 379.001L468.365 379.882L469.758 379.981C466.332 382.756 466.654 387.877 469.286 391.048L466.965 391.658L467.579 393.115C465.722 394.727 465.435 396.167 464.798 398.506C465.549 401.656 465.986 403.956 469.207 405.411L468.924 406.312L470.324 406.709C468.668 408.51 470.194 411.832 471.885 412.898C476.216 415.635 481.219 417.31 485.671 419.834C492.047 423.534 497.502 428.595 503.783 432.567C509.002 435.866 514.32 437.108 519.421 440.274C521.443 441.524 522.98 443.533 524.314 445.484C527.244 443.927 528.774 443.195 531.374 441.084C531.157 439.715 530.949 437.863 531.319 436.53C532.636 431.761 541.151 423.865 545.218 421.686C542.618 417.16 539.68 413.468 537.38 408.553C532.286 397.696 530.025 384.434 522.571 374.922C520.16 371.846 515.921 368.819 512.88 366.514L512.931 372.338C512.931 373.952 513.266 376.348 512.023 377.441C511.11 376.836 509.974 375.93 509.073 375.258C510.579 375.24 511.008 376.171 512.101 375.906C513.148 373.009 512.172 358.188 514.552 356.081C514.186 358.951 513.71 362.316 513.545 365.181C534.827 375.887 531.881 403.41 546.591 419.496C549.305 419.386 550.607 419.28 552.593 421.328C557.316 426.212 560.762 432.464 561.077 439.267C561.867 439.377 564.148 439.668 564.691 440.124C569.348 444.033 572.254 450.847 576.27 455.059C576.852 456.018 577.576 457.308 578.221 458.185C581.58 462.329 595.44 479.859 595.42 484.463C593.886 484.09 591.255 479.666 590.264 478.144C582.878 466.78 574.205 456.274 566.488 445.126C565.592 443.832 564.726 442.814 563.609 441.709C561.619 446.927 560.27 450.737 556.569 455.106C548.18 465.011 536.656 469.812 523.747 469.195C526.276 475.459 530.048 485.95 532.845 491.62H519.087C514.984 491.596 510.882 491.612 506.78 491.663L504.754 491.608L503.464 491.789L501.805 491.974C502.284 487.684 502.186 481.672 502.237 477.236C498.808 475.211 499.004 471.668 498.528 468.054C486.355 458.452 483.638 438.41 480.204 423.625C472.601 419.779 462.851 416.5 466.647 406.166C463.115 401.723 461.36 397.999 465.121 392.849C464.448 391.246 463.878 389.671 463.28 388.039C463.268 384.188 463.418 382.535 465.982 379.7C465.482 376.457 465.144 375.165 465.455 371.89C465.868 371.022 466.285 370.158 466.713 369.3L467.201 368.635C468.204 367.466 469.99 366.26 471.272 365.315C469.927 352.584 468.873 339.991 467.862 327.255C467.583 323.707 467.221 305.103 466.682 303.462L465.872 303.376Z" fill="#1E2630"/>
<path d="M468.927 406.312L470.327 406.71C468.671 408.511 470.197 411.833 471.888 412.899C476.219 415.636 481.221 417.311 485.674 419.835C492.049 423.535 497.505 428.596 503.786 432.568C509.005 435.867 514.322 437.109 519.424 440.275C521.445 441.525 522.983 443.534 524.316 445.485C522.149 446.535 519.88 446.92 517.532 447.435L515.495 444.274C511.731 442.492 507.711 441.151 504.061 439.056C496.513 434.722 490.366 428.828 483.428 423.767C479.184 420.838 474.248 418.907 470.299 415.541C468.439 413.957 467.047 413.064 467.137 410.437C467.204 408.456 467.727 407.693 468.927 406.312Z" fill="#CE7154"/>
<path d="M503.949 476.914C508.634 476.159 510.934 475.55 515.489 474.197C516.354 478.869 517.747 487.295 519.088 491.621C514.986 491.597 510.883 491.613 506.781 491.664C505.88 486.737 504.932 481.822 503.949 476.914Z" fill="#575863"/>
<path d="M468.368 379.883L469.761 379.982C466.335 382.757 466.658 387.878 469.289 391.049L466.968 391.658C464.691 387.324 464.368 383.296 468.368 379.883Z" fill="#CE7154"/>
<path d="M503.465 491.789C503.488 489.528 503.465 487.593 503.795 485.344C504.098 487.436 504.421 489.524 504.755 491.608L503.465 491.789Z" fill="#444753"/>
<path d="M546.73 452.566C542.462 453.403 540.24 450.733 537.837 447.564C532.976 441.017 530.958 436.538 537.691 430.321C540.649 427.593 544.283 422.308 548.972 423.546C553.518 426.205 557.975 433.109 559.556 438.048C557.562 443.762 552.035 449.864 546.73 452.566Z" fill="#B0B3B8"/>
<path d="M546.73 452.566C542.462 453.403 540.24 450.733 537.837 447.564C532.976 441.017 530.958 436.538 537.691 430.321C540.649 427.593 544.283 422.308 548.972 423.546C543.87 424.942 538.458 430.664 535.701 435.02C532.335 440.337 541.542 451.308 546.73 452.566Z" fill="#575863"/>
<path d="M547.76 424.625C552.255 424.727 560.995 436.65 557.254 441.455C554.399 445.119 551.115 449.866 546.423 451.269C541.742 449.893 537.015 442.151 535.453 437.703C537.192 433.036 543.284 426.674 547.76 424.625Z" fill="#1E2630"/>
<path d="M546.611 427.923C547.858 427.423 547.979 427.286 549.218 427.577C550.331 428.363 550.489 428.705 551.236 429.861C553.482 432.535 557.372 437.148 555.307 440.722C552.884 443.73 550.355 447.155 546.768 448.653C543.85 448.331 537.71 439.295 538.221 436.731L538.91 435.854C540.141 434.43 541.533 433.035 542.843 431.674C543.877 430.455 545.423 429.055 546.611 427.923Z" fill="#90A093"/>
<path d="M538.221 436.73C540.9 437.458 543.877 437.863 546.627 438.315C546.583 440.529 545.801 447.528 546.768 448.653C543.85 448.33 537.71 439.294 538.221 436.73Z" fill="#3B6450"/>
<path d="M546.766 448.653C547.714 445.5 546.467 441.245 548.976 439.283C550.565 438.937 553.59 440.172 555.304 440.722C552.882 443.73 550.353 447.155 546.766 448.653Z" fill="#3B6450"/>
<path d="M542.839 431.674C543.567 432.507 545.298 434.332 546.359 434.548C546.533 435.913 546.816 436.07 546.163 436.939C544.314 437.336 540.739 436.412 538.906 435.854C540.137 434.43 541.53 433.034 542.839 431.674Z" fill="#5D7A65"/>
<path d="M546.609 427.923C547.856 427.423 547.978 427.286 549.217 427.577C550.33 428.363 550.487 428.705 551.235 429.861C549.036 432.327 548.419 434.143 548.206 437.262C546.806 436.613 547.75 429.61 546.609 427.923Z" fill="#5E715E"/>
<path d="M546.608 427.922C545.927 429.986 546.104 432.385 546.36 434.548C545.298 434.331 543.567 432.507 542.84 431.673C543.874 430.454 545.42 429.054 546.608 427.922Z" fill="#68856E"/>
<path d="M512.214 454.627C516.989 454.662 518.546 468.441 517.264 471.122C514.893 473.509 508.218 474.547 504.726 475.349C502.771 475.794 501.5 474.933 500.989 473.026C500.022 469.416 498.48 462.019 499.691 458.547C501.198 456.837 509.54 455.256 512.214 454.627Z" fill="#898D94"/>
<path d="M511.06 457.752L512.877 457.674C514.717 459.353 515.406 466.482 515.886 469.301C513.207 470.233 508.385 471.33 505.498 472.073C504.92 472.325 504.511 472.321 503.893 472.38C502.367 470.894 501.608 463.033 501.188 460.426C503.441 459.608 508.546 458.417 511.06 457.752Z" fill="#1E2630"/>
<path d="M510.862 459.798C511.648 459.577 511.593 459.601 512.38 459.849C513.45 461.61 513.764 465.892 514.036 468.118C511.349 468.775 508.608 469.514 505.922 470.206C505.167 470.304 505.367 470.257 504.577 470.08C503.759 468.436 503.33 463.584 503.074 461.477L510.862 459.798Z" fill="#575863"/>
<path d="M482.164 424.762C484.744 426.629 488.095 429.72 490.53 431.879C492.174 433.157 494.262 434.69 495.808 436.027C496.575 442 497.735 450.211 498.38 456.404C498.404 456.644 497.546 457.898 497.342 458.177C497.318 460.312 497.472 462.782 497.554 464.941C488.048 455.857 485.279 437.494 482.164 424.762Z" fill="#444753"/>
<path d="M490.531 431.879C492.175 433.157 494.264 434.69 495.81 436.027C496.576 442 497.737 450.211 498.382 456.404C498.405 456.644 497.548 457.898 497.343 458.177C495.617 454.414 490.362 435.732 490.531 431.879Z" fill="#487493"/>
<path d="M541.723 453.668C554.234 456.924 556.633 442.398 560.736 442.143C562.199 448.678 549.086 460.958 543.387 463.364C541.817 464.025 539.91 464.874 538.305 465.523C535.438 466.703 531.847 467.104 528.771 467.45C527.894 465.158 526.671 462.566 525.668 460.293C528.606 459.892 530.486 459.613 533.259 458.52C536.728 456.931 538.706 456.098 541.723 453.668Z" fill="#EB936F"/>
<path d="M525.668 460.293C528.606 459.892 530.486 459.613 533.259 458.52C535.725 460.891 536.46 462.904 538.305 465.523C535.438 466.702 531.847 467.103 528.771 467.45C527.894 465.157 526.671 462.566 525.668 460.293Z" fill="#CE7154"/>
<path d="M532.232 442.734C532.822 442.951 538.914 451.633 540.2 453.037C533.601 456.729 531.65 457.563 524.256 458.958C521.687 457.747 517.373 452.447 516.574 449.844C516.96 449.026 518.415 449.01 519.41 448.888C524.362 448.271 528.126 445.479 532.232 442.734Z" fill="#444753"/>
<path d="M497.453 437.172C500.383 438.414 505.689 442.052 509.953 443.923C510.236 445.968 511.25 451.524 510.944 453.062L510.015 453.447C506.747 453.99 503.538 454.863 500.442 456.05C499.451 451.426 497.964 441.8 497.453 437.172Z" fill="#575863"/>
<path d="M511.508 444.453C515.232 445.621 514.43 449.97 515.94 453.851C515.508 453.753 513.966 453.399 513.761 453.214C512.322 451.924 511.854 446.388 511.508 444.453Z" fill="#487493"/>
<path d="M573.832 395.863L574.398 395.981C575.036 397.649 579.122 409.59 579.653 410.263L579.885 409.999L579.504 407.994C579.5 406 579.606 404.498 579.779 402.509C580.778 413.542 583.818 417.168 586.894 426.507C591.952 441.862 606.906 475.879 607.456 491.152C606.744 491.855 607.039 491.639 605.938 491.867C605.073 489.209 604.829 483.68 604.03 480.59C602.984 476.516 601.557 472.509 600.211 468.53C594.556 452.333 588.676 436.215 582.575 420.184C579.661 412.343 576.326 403.798 573.832 395.863Z" fill="#1E2630"/>
<path d="M576.273 455.059C580.155 456.462 592.773 462.585 593.886 466.678C591.506 468.279 583.109 458.283 578.224 458.185C577.579 457.308 576.856 456.018 576.273 455.059Z" fill="#1C443A"/>
<path d="M566.854 449.109C571.256 450.745 561.887 462.837 560.152 464.649C552.538 472.718 541.966 477.334 530.874 477.441L530.225 477.342L529.828 476.776C531.602 474.008 556.282 477.649 566.854 449.109Z" fill="#1C443A"/>
<path d="M228.514 407.252C231.238 401.106 233.082 394.375 235.518 387.89C244.785 363.213 253.021 334.051 269.123 312.951C271.368 310.01 277.495 305.25 280.452 302.748C283.38 317.209 287.072 331.624 289.811 346.152C290.533 349.983 291.279 354.065 292.184 357.834L292.694 357.805C293.286 362.739 294.473 368.083 294.241 372.856C294.181 374.084 293.991 374.603 294.321 375.791C295.853 376.326 295.242 375.744 296.812 375.657C297.517 375.383 299.073 374.202 299.766 373.71L299.877 373.195C304.507 369.674 329.068 362.934 334.082 366.001C334.984 364.364 334.639 359.441 335.414 357.752L335.667 359.291C335.438 361.275 335.232 363.342 334.955 365.312C336.464 366.301 338.162 367.253 339.201 368.705L339.513 369.262L340.941 371.426C341.519 375.139 340.962 375.955 340.442 379.282C340.397 379.566 342.941 382.747 343.103 384.967C343.353 388.396 340.874 391.796 342.553 394.084C343.499 399.777 343.205 401.968 339.854 406.757C344.077 416.159 332.876 420.311 326.154 423.689C324.05 435.018 318.946 460.482 309.373 466.994C309.017 467.234 308.656 467.47 308.29 467.698C307.508 473.018 306.658 474.056 304.931 478.346C304.308 479.895 304.689 489.596 304.692 491.723C303.305 491.617 301.202 491.645 299.755 491.617L287.701 491.625L273.921 491.637L223.003 491.605C218.713 491.601 203.828 491.326 200.449 491.892C201.196 489.215 201.042 485.542 201.746 483.073C207.954 461.312 216.534 440.074 224.397 418.848C225.818 415.015 227.393 411.181 228.514 407.252Z" fill="#3B6450"/>
<path d="M299.763 373.709C308.638 369.923 323.143 364.875 332.684 366.142C338.943 368.691 340.5 372.821 338.514 379.055L338.393 380.314L338.553 380.494C339.216 384.206 339.747 387.836 337.522 391.142L339.669 391.169C339.502 391.901 339.318 392.464 339.309 393.208L339.453 393.63C339.414 398.483 339.781 401.982 335.413 405.069L337.567 405.722L337.578 406.276L336.382 406.768C340.281 411.077 329.595 415.69 326.67 416.85C317.151 420.621 310.13 428.497 301.366 433.455C295.943 436.526 290.709 437.584 285.477 441.398C281.59 444.233 279.075 452.558 276.959 454.481C266.18 450.631 258.629 441.154 255.391 430.42C259.535 425.17 267.853 411.455 270.565 405.167C274.269 396.575 277.248 384.351 282.611 376.412C284.77 373.217 290.622 368.799 293.852 366.21L293.31 376.001L294.693 377.429L296.81 375.656C297.515 375.381 299.07 374.201 299.763 373.709Z" fill="#EB936F"/>
<path d="M332.687 366.143C338.946 368.691 340.504 372.821 338.517 379.055C333.943 376.668 329.15 377.937 323.984 378.346C328.588 374.063 335.759 375.962 332.687 366.143Z" fill="#CE7154"/>
<path d="M323.984 378.346C329.149 377.937 333.943 376.669 338.516 379.056L338.396 380.315C332.826 379.105 327.65 379.846 322.109 380.688C319.725 381.05 314.642 383.221 313.215 381.221L313.499 380.455C316.414 379.272 320.719 379.246 323.984 378.346Z" fill="#9F4630"/>
<path d="M337.525 391.143L339.671 391.17C339.504 391.902 339.32 392.465 339.312 393.209C335.532 393.439 320.366 395.79 318.805 394.98L319.079 394.351C324.559 392.306 331.282 392.431 337.051 391.242L337.525 391.143Z" fill="#9F4630"/>
<path d="M335.416 405.068L337.569 405.721L337.58 406.276L336.385 406.767C331.693 407.467 327.441 408.816 322.85 409.712C322.305 409.818 322.165 409.492 321.793 409.103L322.007 408.442C324.223 406.771 332.25 405.674 335.416 405.068Z" fill="#9F4630"/>
<path d="M293.311 376.002L294.693 377.43C292.922 379.005 289.282 383.483 286.922 383.297C287.006 380.899 291.524 377.389 293.311 376.002Z" fill="#9F4630"/>
<path d="M292.184 357.833L292.694 357.805C293.286 362.739 294.474 368.083 294.242 372.855C294.182 374.084 293.992 374.602 294.321 375.791C295.853 376.325 295.242 375.743 296.813 375.656L294.696 377.429L293.313 376.002L293.855 366.211C290.625 368.799 284.773 373.218 282.614 376.413C277.251 384.352 274.272 396.576 270.567 405.168C267.856 411.456 259.538 425.171 255.394 430.42C258.632 441.155 266.183 450.632 276.962 454.481C279.078 452.559 281.593 444.234 285.48 441.399C290.712 437.585 295.945 436.527 301.369 433.456C310.133 428.498 317.154 420.621 326.673 416.85C329.598 415.69 340.284 411.078 336.385 406.768L337.58 406.277L337.569 405.722L335.416 405.07C339.784 401.983 339.416 398.483 339.456 393.631L339.312 393.209C339.321 392.465 339.505 391.902 339.672 391.169L337.525 391.142C339.75 387.837 339.219 384.207 338.556 380.495L338.396 380.315L338.517 379.056C340.503 372.822 338.946 368.692 332.687 366.143C323.146 364.876 308.641 369.924 299.766 373.71L299.877 373.195C304.507 369.673 329.068 362.934 334.083 366.001C334.985 364.364 334.639 359.441 335.414 357.752L335.667 359.29C335.439 361.274 335.232 363.341 334.956 365.312C336.464 366.301 338.163 367.253 339.202 368.704L339.513 369.261L340.942 371.426C341.52 375.139 340.963 375.954 340.442 379.281C340.398 379.565 342.941 382.747 343.103 384.967C343.353 388.395 340.875 391.795 342.553 394.083C343.499 399.777 343.206 401.967 339.855 406.757C344.078 416.158 332.876 420.311 326.154 423.689C324.05 435.017 318.946 460.482 309.374 466.993C309.017 467.233 308.656 467.469 308.291 467.697C307.508 473.018 306.658 474.056 304.931 478.346C304.309 479.895 304.69 489.596 304.693 491.723C303.305 491.617 301.202 491.644 299.755 491.617L287.702 491.625L273.922 491.636C274.422 489.348 277.749 481.578 278.778 479.242C281.723 472.561 284.676 464.917 287.965 458.441C274.336 457.364 263.215 451.229 256.56 438.666C254.905 435.544 254.445 431.679 252.849 428.384L252.664 428.01C248.875 432.414 244.396 439.539 240.709 444.454C232.832 454.957 225.098 465.704 217.292 476.266C215.434 478.778 213.383 483.414 211.582 484.653L210.985 484.496L210.742 483.819C211.133 480.379 225.072 462.157 228.139 458.201C228.869 457.883 229.828 456.2 230.226 455.516C232.812 450.427 248.242 431.384 252.431 425.486C254.074 423.173 255.976 426.85 259.376 421.003C261.752 416.913 265.769 411.609 267.827 406.949C277.003 386.183 273.861 378.345 293.032 364.946C292.668 362.73 292.439 360.094 292.184 357.833Z" fill="#1E2630"/>
<path d="M337.579 406.277C343.87 415.715 328.219 419.702 322.813 423.642C317.28 427.672 312.474 432.674 306.781 436.472C301.75 439.862 294.959 441.808 290.505 445.395C288.478 447.026 285.182 453.695 283.775 456.369C280.885 455.925 279.65 455.453 276.961 454.482C279.076 452.559 281.592 444.235 285.478 441.399C290.71 437.585 295.944 436.528 301.367 433.456C310.131 428.498 317.152 420.622 326.671 416.851C329.597 415.691 340.282 411.079 336.384 406.769L337.579 406.277Z" fill="#CE7154"/>
<path d="M291.265 474.17C295.706 475.593 297.883 476.144 302.441 477.048C301.681 481.224 300.701 487.645 299.753 491.617L287.699 491.625C288.66 485.762 289.85 479.938 291.265 474.17Z" fill="#575863"/>
<path d="M339.454 393.631C343.162 398.593 341.673 401.849 337.567 405.722L335.414 405.07C339.782 401.983 339.414 398.483 339.454 393.631Z" fill="#CE7154"/>
<path d="M338.554 380.494C342.127 383.787 342.066 387.193 339.67 391.168L337.523 391.141C339.748 387.836 339.217 384.206 338.554 380.494Z" fill="#CE7154"/>
<path d="M292.271 454.513C295.141 454.45 304.62 456.711 306.844 458.252C308.887 459.668 305.717 473.635 304.195 475.707C295.023 474.386 285.14 473.203 289.824 461.799C290.791 459.444 290.903 457.132 292.271 454.513Z" fill="#898D94"/>
<path d="M292.815 457.281C296.469 457.922 301.688 459.432 305.392 460.376C304.718 464.536 303.947 468.681 303.082 472.805C299.351 471.429 294.823 470.552 290.871 469.495C291.067 465.472 292.025 461.253 292.815 457.281Z" fill="#1E2630"/>
<path d="M294.3 459.363L303.465 461.408C302.965 464.416 302.419 467.416 301.828 470.409C298.852 469.776 295.401 468.742 292.391 467.971C292.975 464.963 293.477 462.32 294.3 459.363Z" fill="#575863"/>
<path d="M315.827 431.884C317.057 430.649 322.497 426.284 323.957 425.25C320.878 437.491 318.656 456.515 308.492 465.543C308.718 463.726 309.335 460.042 309.03 458.414C306.811 455.087 310.327 439.693 311.324 435.34L315.827 431.884Z" fill="#444753"/>
<path d="M315.827 431.883C315.869 436.334 311.048 454.453 309.03 458.413C306.811 455.087 310.327 439.692 311.324 435.339L315.827 431.883Z" fill="#557A98"/>
<path d="M308.679 437.289C309.302 438.854 306.493 452.695 306.129 455.814C303.35 454.716 301.785 454.445 298.887 453.867C293.657 453.12 295.536 451.028 296.063 446.864C296.184 445.904 296.42 444.894 296.594 443.934C300.966 442.24 304.749 439.821 308.679 437.289Z" fill="#575863"/>
<path d="M294.233 445.107L294.456 445.339C294.973 446.944 294.203 450.333 293.44 451.871C292.705 453.353 292.284 453.196 290.805 453.735C288.577 449.39 290.536 447.239 294.233 445.107Z" fill="#487493"/>
<path d="M230.226 455.516C229.828 456.2 228.869 457.883 228.139 458.201C224.653 458.068 216.094 466.663 212.802 466.974C212.67 463.934 223.572 457.521 226.434 456.577C227.5 456.227 229.101 455.787 230.226 455.516Z" fill="#1C443A"/>
<path d="M247.727 435.84L248.775 436.272C250.131 438.533 251.049 442.89 252.104 444.786C256.49 452.673 263.45 459.165 271.866 462.52C275.431 463.939 279.007 464.383 281.702 465.484L282.292 466.9C267.997 468.28 247.956 450.353 247.727 435.84Z" fill="#1C443A"/>
<path d="M339.303 302.836C344.003 305.912 347.67 308.388 351.806 312.182C362.58 322.068 371.79 342.072 374.743 356.14C377.412 368.847 375.786 391.646 375.575 405.431L374.359 491.679L369.619 491.557L306.443 491.62L304.692 491.722C304.689 489.595 304.309 479.894 304.931 478.345C306.658 474.055 307.508 473.017 308.29 467.697C308.656 467.469 309.017 467.233 309.374 466.993C318.946 460.481 324.05 435.017 326.154 423.688C332.876 420.31 344.077 416.158 339.854 406.756C343.205 401.967 343.499 399.776 342.553 394.083C340.875 391.795 343.353 388.395 343.103 384.966C342.941 382.746 340.397 379.565 340.442 379.281C340.962 375.954 341.52 375.138 340.941 371.425L339.513 369.261L339.201 368.704C338.162 367.252 336.464 366.3 334.955 365.311C335.232 363.341 335.438 361.274 335.667 359.29C338.151 338.376 338.816 323.978 339.303 302.836Z" fill="#896749"/>
<path d="M340.941 371.425C345.627 371.272 350.066 371.337 354.744 371.409C352.89 376.066 353.265 384.465 353.282 389.727C352.841 392.027 350.851 398.939 352.633 400.571C353.317 407.688 350.347 454.516 353.034 457.509C356.109 459.03 361.318 459.136 361.303 454.406C361.287 449.51 361.355 444.607 361.418 439.712C361.645 428.694 361.805 417.676 361.897 406.658L362.345 385.583C362.443 381.294 362.76 375.981 362.279 371.837L372.11 371.971C372.323 384.477 371.434 398.377 370.966 410.979C370.215 430.404 369.905 449.845 370.035 469.289C353.267 469.506 334.113 467.634 317.469 465.64C322.57 454.575 326.626 443.058 329.585 431.242C334.225 427.64 340.276 422.351 341.854 416.661C342.562 414.109 342.794 411.38 343.186 408.813C344.324 401.349 346.137 400.779 342.552 394.083C340.874 391.794 343.352 388.395 343.102 384.966C342.94 382.746 340.397 379.565 340.441 379.281C340.962 375.954 341.519 375.138 340.941 371.425Z" fill="#B29267"/>
<path d="M315.849 467.178C337.521 470.571 348.267 470.815 369.91 471.189L369.617 491.557L306.441 491.62C307.104 476.8 311.227 477.563 315.849 467.178Z" fill="#B29267"/>
<path d="M342.706 318.27C354.222 325.277 367.293 336.065 371.505 350.162C372.67 354.064 372.176 365.387 372.194 369.874C365.016 369.613 357.834 369.462 350.651 369.424C348.051 369.399 341.809 369.551 339.511 369.26L339.199 368.703C341.091 355.051 343.389 332.132 342.706 318.27Z" fill="#B29267"/>
<path d="M353.281 389.726C353.955 387.101 356.662 375.888 358.367 374.688C360.093 376.437 357.574 378.339 358.382 380.333C359.279 380.903 360.049 381.157 360.268 382.295C360.719 384.64 359.482 399.049 358.309 400.74C357.01 402.615 357.111 436.243 357.091 441.909C357.078 445.444 357.768 452.617 356.555 455.601L356.02 455.605C353.9 451.292 357.457 408.997 356.029 401.483C355.926 400.936 353.072 400.626 352.632 400.571C350.849 398.939 352.839 392.027 353.281 389.726Z" fill="#1E2630"/>
<path d="M356.538 382.27L358.476 382.666C359.325 384.049 357.844 395.082 357.523 397.268C357.297 398.813 356.81 399.195 355.721 399.914C354.669 399.49 354.506 399.423 353.584 398.778C353.437 398.031 356.217 383.956 356.538 382.27Z" fill="#575863"/>
<path d="M541.991 264.178C543.316 269.911 544.256 282.721 544.484 288.89C550.325 291.643 556.956 295.338 561.566 299.879C579.58 316.675 576.095 370.776 579.292 394.334C579.517 395.99 579.729 398.884 579.78 400.614C579.796 401.247 579.796 401.88 579.78 402.509C579.607 404.499 579.501 406.001 579.505 407.994C579.092 406.591 579.458 405.1 579.289 404.098C578.876 401.613 578.345 387.214 577.845 386.066C577.405 390.003 578.982 398.565 577.963 401.731L577.432 401.766C576.944 400.673 577.751 401.727 577.735 399.179C577.46 399.076 577.188 398.97 576.917 398.868C573.519 391.498 568.28 370.974 564.756 365.023L564.551 365.07C563.851 364.572 559.151 351.298 558.117 349.393C557.92 349.03 558.282 345.808 557.999 344.564C557.44 345.004 557.428 344.977 556.748 345.221C555.619 343.776 551.891 335.549 552.311 334.207C550.522 329.762 545.499 322.532 545.983 318.55C546.494 314.371 544.162 292.96 545.177 290.675C545.212 290.938 543.879 288.192 543.607 286.81C543.682 288.511 543.883 289.985 543.246 291.6C543.175 290.306 542.982 288.916 542.829 287.62C542.927 281.399 541.531 274.8 541.035 268.474L541.291 267.653C541.814 268.904 542.498 274.795 542.294 276.203L542.64 276.198C542.923 272.041 541.389 268.266 541.991 264.178Z" fill="#5F616A"/>
<path d="M545.177 290.676C547.139 292.12 548.359 292.647 550.526 293.668C555.013 311.148 556.374 326.464 556.992 344.484C554.825 340.759 554.007 337.338 552.311 334.208C550.522 329.762 545.499 322.532 545.983 318.551C546.494 314.371 544.162 292.961 545.177 290.676Z" fill="#575863"/>
<path d="M541.991 264.178C543.316 269.911 544.256 282.721 544.484 288.89C550.325 291.643 556.956 295.338 561.566 299.879C560.724 299.779 560.028 299.684 559.194 299.532L559.143 300.072C561.668 313.664 563.131 327.411 563.658 341.216C563.812 345.327 564.343 350.984 563.871 354.948L563.407 355.323L563.816 355.345L563.505 355.725C562.046 354.019 561.306 326.629 560.716 322.325C559.67 314.681 559.072 305.385 556.709 297.83L552.654 295.233C557.31 313.322 557.503 329.847 558.88 348.258C559.234 353.001 563.686 359.707 564.756 365.023L564.551 365.07C563.851 364.572 559.151 351.298 558.117 349.393C557.92 349.03 558.282 345.808 557.999 344.564C557.44 345.004 557.428 344.977 556.748 345.221C555.619 343.776 551.891 335.549 552.311 334.207C554.007 337.337 554.825 340.759 556.992 344.483C556.374 326.464 555.013 311.147 550.526 293.667C548.359 292.647 547.139 292.119 545.177 290.675C545.212 290.938 543.879 288.192 543.607 286.81C543.682 288.511 543.883 289.985 543.246 291.6C543.175 290.306 542.982 288.916 542.829 287.62C542.927 281.399 541.531 274.8 541.035 268.474L541.291 267.653C541.814 268.904 542.498 274.795 542.294 276.203L542.64 276.198C542.923 272.041 541.389 268.266 541.991 264.178Z" fill="#1E2630"/>
<path d="M559.145 300.073L559.196 299.533C560.029 299.685 560.726 299.78 561.567 299.88C579.581 316.676 576.096 370.777 579.294 394.335C579.518 395.99 579.73 398.885 579.782 400.615C579.797 401.248 579.797 401.881 579.782 402.51C579.608 404.5 579.502 406.002 579.506 407.995C579.093 406.592 579.459 405.101 579.29 404.099C578.877 401.613 578.346 387.215 577.846 386.067C577.406 390.004 578.983 398.566 577.964 401.731L577.433 401.767C576.946 400.674 577.752 401.727 577.736 399.179C577.146 384.427 576.23 369.69 574.987 354.978C573.512 337.391 572.745 312.849 559.145 300.073Z" fill="#1E2630"/>
<path d="M264.603 264.929C264.205 262.119 263.185 259.086 263.097 256.116C262.559 238.072 270.295 207.557 281.904 194.086C282.636 194.226 282.998 194.254 283.674 194.602L283.921 195.019C284.068 210.303 291.669 239.119 301.835 250.832C294.163 253.482 291.688 255.454 286.46 261.802L285.319 263.498C284.639 264.9 283.939 266.292 283.218 267.673C277.812 266.585 269.386 266.383 265.509 262.487C265.272 263.364 265.156 264.351 264.603 264.929Z" fill="#487493"/>
<path d="M264.603 264.929C264.205 262.119 263.185 259.086 263.097 256.116C262.559 238.072 270.295 207.557 281.904 194.086C282.636 194.226 282.998 194.254 283.674 194.602L283.921 195.019C281.73 195.82 276.868 204.636 275.862 207.097C268.917 224.09 263.146 244.137 265.509 262.487C265.272 263.364 265.156 264.351 264.603 264.929Z" fill="#1E2630"/>
<path d="M285.322 263.498C282.037 260.364 275.334 243.179 278.507 240.68L278.988 240.958C280.208 248.299 282.74 255.359 286.463 261.803L285.322 263.498Z" fill="#355069"/>
<path d="M290.254 242.457C292.195 243.357 294.457 248.925 295.002 251.024C291.618 251.074 290.602 245.138 290.254 242.457Z" fill="#456B87"/>
<path d="M521.525 191.254C530.611 198.181 538.623 220.251 540.168 230.959C539.099 229.906 538.253 224.794 536.515 221.459C536.967 223.483 538.745 228.102 537.982 229.573C539.995 237.469 543.543 254.68 540.094 262.881C538.705 266.179 526.898 266.783 523.189 267.59C522.54 266.342 521.864 264.994 521.175 263.778L520.357 262.245C516.759 256.166 511.012 253.059 504.633 250.83C517.05 235.006 520.165 213.691 522.839 194.628L522.403 194.43L523.323 194.001C522.363 192.971 522.088 192.547 521.525 191.254Z" fill="#487493"/>
<path d="M521.523 191.254C530.609 198.181 538.621 220.251 540.166 230.959C539.097 229.906 538.251 224.794 536.512 221.459C536.965 223.483 538.743 228.102 537.98 229.573C537.358 228.169 536.115 222.436 535.604 220.565C532.788 210.308 529.008 203.167 522.837 194.628L522.401 194.43L523.321 194.001C522.361 192.971 522.086 192.547 521.523 191.254Z" fill="#1E2630"/>
<path d="M521.602 259.459C522.884 256.226 524.049 252.947 525.091 249.628C525.878 247.136 526.652 243.581 527.848 241.417L528.277 241.395C529.166 246.716 525.697 255.292 523.581 260.136C522.837 261.395 522.157 262.711 521.174 263.778L520.355 262.245C520.768 261.191 521.091 260.471 521.602 259.459Z" fill="#355069"/>
<path d="M515.35 240.828L516.014 241.489C516.404 243.884 513.631 248.938 512.27 250.955L512.022 250.613C511.688 249.396 514.673 242.252 515.35 240.828Z" fill="#456B87"/>
<path d="M526.879 281.027C530.45 281.583 533.302 283.413 536.586 284.753C538.135 285.385 538.234 284.022 539.713 284.549C541.247 285.095 541.597 286.806 542.828 287.62C542.981 288.916 543.174 290.306 543.245 291.6C543.016 293.295 543.473 300.329 543.595 302.425C543.933 308.089 544.078 312.916 543.913 318.615C539.532 312.104 535.406 307.999 529.656 302.799C529.085 296.072 527.784 287.846 526.879 281.027Z" fill="#487493"/>
<path d="M256.487 272.594C261.06 272.442 261.298 273.106 263.553 269.064C263.574 270.412 263.281 271.971 263.336 272.91C262.327 274.889 261.298 276.856 260.394 278.886C261.798 279.884 263.705 281.476 265.316 281.709C266.506 281.452 266.117 281.554 267.069 280.327C266.862 281.756 267.104 281.407 266.315 282.442C264.561 282.419 264.353 281.802 262.861 281.66C263.333 284.024 263.449 284.488 262.853 286.79L262.305 287.269C262.324 285.583 262.348 284.249 262.513 282.571C261.433 281.813 258.909 279.858 257.804 279.66C254.943 281.962 251.369 296.684 249.257 301.152C253.82 301.481 254.392 301.708 256.312 305.959C259.401 300.439 261.162 298.45 261.871 292.007C261.99 293.059 262.179 297.939 262.227 298.118C260.662 301.472 258.103 307.146 254.53 308.511C253.171 309.031 251.652 308.933 250.372 308.243C248.532 307.249 248.029 306.096 245.683 306.817C245.57 307.515 245.437 307.455 245.902 308.027C249.221 312.117 252.891 312.915 257.551 310.872C256.698 312.846 253.917 312.607 251.967 312.693L251.959 312.902C253.317 313.052 252.911 312.807 253.7 313.667C253.722 314.869 253.63 314.914 252.889 315.937L252.185 316.155C252.345 315.545 252.518 314.939 252.705 314.337C251.702 312.939 248.258 312.703 246.709 311.495C244.709 309.935 244.62 307.061 242.822 306.269C244.663 303.999 252.305 309.238 255.871 307.684C256.474 306.674 256.443 307.16 256.227 306.215L255.346 305.852C252.689 300.681 250.065 301.749 244.975 302.011C243.577 301.275 244.88 301.193 243.999 299.837L243.664 301.597C242.947 302.325 238.962 302.961 237.562 303.442C239.204 301.428 240.302 301.61 242.764 301.37C244.631 295.607 246.522 289.844 248.494 284.117C250.372 278.661 251.511 275.649 256.487 272.594Z" fill="#1E2630"/>
<path d="M258.316 274.051L259.644 274.063L260.021 274.578C259.584 275.778 259.069 276.591 258.44 277.69C253.012 279.784 249.536 295.685 247.61 301.555C246.279 301.422 245.933 301.484 244.832 300.812C245.504 296.203 250.421 284.207 252.136 279.403C253.334 276.048 255.182 275.285 258.316 274.051Z" fill="#898D94"/>
<path d="M523.668 269.103C526.858 268.935 530.248 268.44 533.41 267.899C535.149 267.601 539.601 265.526 540.517 265.848C540.804 266.896 540.887 267.393 541.037 268.474C541.532 274.799 542.928 281.398 542.83 287.619C541.599 286.805 541.249 285.095 539.715 284.549C538.236 284.022 538.138 285.385 536.588 284.753C533.304 283.413 530.453 281.583 526.881 281.027C526.398 277.995 524.58 272.263 523.668 269.103Z" fill="#575863"/>
<path d="M200.448 491.891L199.201 491.569C197.273 488.801 203.299 471.224 204.625 467.351C208.982 454.827 213.474 442.35 218.1 429.924C219.615 425.733 222.448 419.445 223.151 415.36C223.357 414.156 222.812 407.598 222.81 405.576L222.804 372.524C222.765 367.636 222.042 361.916 222.583 357.299C223.991 373.335 223.613 387.827 223.568 403.925C223.558 407.554 224.392 414.77 223.551 417.566C221.712 423.68 218.662 430.384 216.429 436.448C215.638 438.595 215.666 439.794 215.117 441.501C214.37 443.821 211.45 447.977 211.961 450.584L221.427 424.923C222.07 423.173 227.653 407.704 228.344 407.216L228.513 407.252C227.392 411.18 225.817 415.014 224.397 418.848C216.533 440.073 207.953 461.311 201.745 483.072C201.041 485.541 201.195 489.214 200.448 491.891Z" fill="#1E2630"/>
<path d="M262.227 298.118C264.401 294.427 267.041 290.358 268.54 286.373C269.745 283.168 267.279 280.859 269.808 278.689C277.093 282.701 263.165 302.534 260.7 307.332C260.034 308.628 258.608 309.84 257.55 310.873C252.89 312.915 249.221 312.117 245.901 308.027C245.437 307.455 245.57 307.515 245.682 306.817C248.028 306.097 248.532 307.25 250.372 308.243C251.652 308.933 253.17 309.032 254.529 308.511C258.102 307.146 260.661 301.472 262.227 298.118Z" fill="#898D94"/>
<path d="M268.666 266.533L273.99 268.334C271.691 271.347 267.824 276.684 267.07 280.327C266.118 281.554 266.506 281.452 265.316 281.708C263.705 281.476 261.798 279.883 260.395 278.885C261.298 276.856 262.327 274.888 263.336 272.909C265.263 270.27 266.426 268.918 268.666 266.533Z" fill="#575863"/>
<path d="M358.064 131.708C359.538 126.921 361.299 121.74 362.576 116.743C370.323 86.4347 404.423 100.037 425.328 89.2985C427.082 88.3972 428.726 87.4598 430.382 86.5039C432.486 93.7147 434.209 99.8682 438.346 106.278C444.104 115.189 451.518 122.512 458.417 130.484C461.485 134.029 463.495 138.066 464.262 142.688C469.213 163.662 463.326 194.152 452.588 213.133C447.916 221.386 441.068 225.557 434.991 231.748L434.987 233.134C434.866 241.216 434.523 251.739 435.884 259.659C437.104 266.105 440.384 270.246 439.188 276.772C437.831 284.179 436.285 292.216 434.327 299.45C429.989 302.404 423.971 304.635 418.889 306.006C402.504 310.429 385.711 307.671 371.158 298.825C369.839 294.676 365.232 273.597 366.728 270.266C370.373 262.143 371.414 258.531 371.831 248.419C371.896 243.708 371.67 238.404 371.576 233.652C371.551 233.556 371.559 231.958 371.559 231.753C368.608 229.444 365.766 226.998 363.045 224.421C347.234 209.157 340.118 180.335 339.789 159.1C344.035 152.149 349.287 149.715 353.258 141.833C356.253 140.654 358.796 139.587 361.998 138.905C368.599 137.498 382.452 142.338 387.353 141.178C388.289 140.247 387.998 140.621 388.31 139.154C387.715 135.856 383.292 135.061 380.494 134.568C371.305 132.945 363.56 132.061 355.468 137.572C356.272 135.46 357.097 133.734 358.064 131.708Z" fill="#EB936F"/>
<path d="M371.56 231.753C382.389 238.747 395.473 247.604 409.026 244.477C415.677 242.943 422.3 239.936 428.031 236.254C430.009 234.983 433.081 232.768 434.992 231.748L434.989 233.134C434.867 241.216 434.524 251.739 435.885 259.659C437.105 266.105 440.385 270.246 439.189 276.773C437.832 284.179 436.286 292.216 434.328 299.451C429.99 302.404 423.972 304.635 418.89 306.006C402.505 310.429 385.712 307.671 371.159 298.825C369.84 294.676 365.233 273.597 366.729 270.266C370.374 262.143 371.415 258.531 371.832 248.419C371.897 243.709 371.671 238.404 371.577 233.652C371.552 233.556 371.56 231.958 371.56 231.753Z" fill="#EB936F"/>
<path d="M371.56 231.753C382.389 238.747 395.472 247.604 409.026 244.477C415.677 242.943 422.3 239.936 428.031 236.254C430.009 234.983 433.081 232.768 434.992 231.748L434.988 233.134C434.866 241.216 434.524 251.739 435.885 259.659C414.682 270.591 386.927 253.292 371.962 238.908C372.081 240.773 372.594 247.008 371.831 248.419C371.897 243.709 371.671 238.404 371.576 233.652C371.552 233.556 371.56 231.958 371.56 231.753Z" fill="#CE7154"/>
<path d="M371.56 231.753C382.389 238.747 395.472 247.604 409.026 244.477C415.677 242.943 422.3 239.936 428.031 236.254C430.009 234.983 433.081 232.768 434.992 231.748L434.988 233.134C430.237 237.542 424.365 240.702 418.737 243.284C403.036 250.492 387.583 245.103 374.536 235.491C373.903 235.025 372.227 233.886 371.576 233.652C371.552 233.556 371.56 231.958 371.56 231.753Z" fill="#9F4630"/>
<path d="M358.062 131.708C359.537 126.921 361.297 121.74 362.575 116.743C370.321 86.4347 404.422 100.037 425.326 89.2985C427.08 88.3972 428.724 87.4598 430.38 86.5039C432.484 93.7147 434.207 99.8682 438.345 106.278C444.103 115.189 451.517 122.512 458.415 130.484C461.483 134.029 463.493 138.066 464.26 142.688C462.101 140.401 460.252 136.894 457.054 133.982C440.763 119.146 432.626 113.565 427.973 91.4895L427.71 91.7246C416.63 101.844 388.629 99.0951 374.713 110.234C365.378 117.705 364.558 125.755 358.062 131.708Z" fill="#CE7154"/>
<path d="M427.209 198.65C427.806 199.14 427.543 198.848 427.799 199.739C425.879 205.343 413.805 212.144 407.984 212.706C398.462 213.624 392.307 212.831 384.508 207.147C382.098 204.996 379.704 202.829 377.324 200.645C393.067 202.653 411.732 202.547 427.209 198.65Z" fill="#9F4630"/>
<path d="M422.25 201.875L423.095 201.748L423.351 202.072C421.876 204.358 415.528 208.348 412.857 209.369C404.173 212.688 396.92 211.326 388.78 207.749C386.769 206.415 384.788 204.753 382.895 203.236C394.14 204.951 410.875 203.353 422.25 201.875Z" fill="#FDFDFD"/>
<path d="M436.337 133.078C441.38 132.797 451.134 135.655 453.069 140.675C451.618 141.857 444.951 138.936 442.284 138.864C439.795 138.798 438.619 138.803 436.086 138.98C430.43 139.247 425.254 141.631 419.634 141.612C418.312 141.608 417.801 140.919 417.23 139.921C417.447 134.121 431.818 133.486 436.337 133.078Z" fill="#1E2630"/>
<path d="M367.166 148.697C370.929 148.422 374.813 148.222 378.137 150.277C379.713 151.252 382.265 152.903 382.753 154.748L382.343 155.24C380.279 154.751 379.196 152.363 377.13 151.902C376.882 152.638 377.801 155.302 378.073 156.283C376.98 160.059 376.923 162.078 372.712 163.155C365.762 161.511 366.462 155.858 369.073 150.798C366.051 151.555 360.427 155.2 358.765 154.999C358.455 151.885 364.764 149.384 367.166 148.697Z" fill="#1E2630"/>
<path d="M431.004 148.758C437.116 148.241 440.274 148.152 445.686 152.203C446.67 152.938 447.13 153.902 447.228 155.111L446.744 155.6C445.258 155.392 443.212 152.958 441.431 152.231C439.79 151.563 438.622 151.279 436.927 150.859C438.764 154.129 438.957 155.389 438.312 159.073C437.104 161.137 434.913 164.147 432.392 163.118C427.24 161.013 428.239 154.787 429.049 151.265C427.519 152.346 425.439 154.757 423.559 154.487C424.329 151.8 428.636 149.763 431.004 148.758Z" fill="#1E2630"/>
<path d="M410.624 186.235C408.173 190.052 401.357 189.835 397.609 188.763C390.665 186.778 391.35 180.441 392.876 174.877C393.711 171.573 394.474 168.329 394.97 164.961C395.67 160.181 394.518 154.122 395.839 149.572C398.211 157.019 396.944 165.074 395.591 172.616C395.06 175.579 392.739 181.36 394.101 183.794C397.369 184.997 398.046 185.231 401.487 185.502C404.279 185.723 408.999 183.997 410.557 184.658C410.588 185.146 410.655 185.761 410.624 186.235Z" fill="#9F4630"/>
<path d="M394.098 183.795C397.366 184.998 398.043 185.232 401.484 185.503C404.277 185.724 408.996 183.998 410.554 184.659C410.585 185.147 410.652 185.762 410.621 186.236C404.296 187.645 399.116 189.412 394.098 183.795Z" fill="#CE7154"/>
<path d="M411.041 217.883C411.658 218.265 411.43 218.11 411.831 218.828L411.466 219.469C406.726 222.642 402.238 221.811 396.933 221.016C396.036 220.001 396.087 220.358 395.922 219.217C397.011 218.208 400.956 219.79 403.426 219.567C406.994 219.246 407.639 219.209 411.041 217.883Z" fill="#9F4630"/>
<path d="M428.59 193.428C428.979 193.614 429.364 193.809 429.746 194.014C433.046 195.803 434.741 199.409 432.841 202.903C431.406 201.946 432.145 199.54 431.539 198.642C430.532 197.151 429.156 196.221 428.062 194.479L428.59 193.428Z" fill="#9F4630"/>
<path d="M371.719 301.564C392.489 312.201 412.445 313.064 433.459 302.293C428.759 321.892 423.025 341.948 417.377 361.317C414.746 370.334 409.766 389.189 406.254 397.395C403.894 397.807 402.006 398.385 399.737 397.764C396.736 395.582 376.51 321.514 374.887 313.387C374.49 312.425 374.68 312.069 374.901 310.992C373.265 309.774 372.367 303.936 371.719 301.564Z" fill="#3B6450"/>
<path d="M374.887 313.386C374.49 312.425 374.68 312.069 374.901 310.992C389.034 317.216 402.136 318.297 417.428 316.124C420.362 315.706 425.963 312.759 428.362 314.092C426.686 315.513 421.683 317.048 419.245 317.621C406.608 320.589 392.93 319.507 380.644 315.436C378.947 314.873 376.355 313.75 374.887 313.386Z" fill="#1C443A"/>
<path d="M403.961 403.076C405.822 400.874 407.395 398.523 408.362 395.766C415.827 374.209 421.287 352.782 427.481 330.715C432.669 312.245 438.215 291.904 440.995 272.822C441.259 271.027 438.557 266.749 439.34 264.9C442.875 266.622 442.376 272.952 442.101 276.281C443.021 275.903 442.588 275.906 443.422 276.049L443.819 274.257L444.48 273.94C445.664 274.536 446.301 275.205 447.284 276.081C446.856 281.961 446.281 286.001 444.952 291.753C443.465 293.065 441.247 295.144 439.678 296.215L440.264 296.407L439.52 296.997L439.218 296.872C438.337 297.968 438.301 298.205 437.876 299.555C437.44 299.766 437.566 299.762 437.404 299.733C436.752 301.948 436.378 303.583 435.93 305.852C436.158 306.521 436.539 307.536 436.704 308.194L436.968 308.195C438.077 307.979 439.458 307.019 440.48 306.408C439.874 308.207 439.509 309.463 439.068 311.308C437.432 315.819 436.586 320.052 435.182 324.395C425.829 353.356 428.602 379.886 428.992 409.769L429.845 472.872C429.967 478.322 430.274 483.796 430.219 489.242C430.211 490.111 428.539 492.592 427.69 490.952C428.449 490.677 428.889 490.634 429.672 490.512C429.924 489.47 429.444 485.518 429.444 484.13C429.412 459.527 428.874 434.919 428.657 410.315C428.52 394.583 427.281 378.494 428.024 362.768C428.272 356.616 428.909 350.486 429.935 344.416C430.333 342.111 434.065 326.471 433.88 325.762L433.137 324.84L433.778 323.281L433.487 323.163C432.968 324.865 432.877 325.521 432.181 327.203C430.879 330.353 430.352 334.722 429.373 338.058L415.816 384.603C414.848 387.832 411.544 396.144 411.257 398.896C410.408 407.166 419.788 423.142 414.333 430.122C415.163 434.274 418.349 434.856 420.799 436.818C430.761 444.801 427.965 461.626 414.946 464.383C408.17 465.814 400.355 462.826 398.073 456.817C398.73 456.853 398.404 456.79 399.057 457.38L399.985 456.137C397.102 451.375 397.483 445.32 400.945 440.959L399.682 439.917C399.143 440.699 397.444 443.468 396.807 443.711L395.859 444.109L395.596 445.74L395.072 445.257C393.653 448.579 394.215 457.553 388.362 455.028C385.74 453.9 387.179 450.156 387.621 448.001C389.812 437.322 392.177 426.681 394.262 415.982C394.825 413.096 397.959 411.853 400.064 414.083C401.279 415.4 400.559 418.746 400.315 420.425L400.866 420.987C400.583 422.147 399.784 424.692 400.174 425.667C400.182 425.675 401.122 425.706 401.22 425.706C401.279 424.715 401.322 423.984 401.291 422.989C401.68 423.504 401.692 423.901 401.81 424.534C401.888 422.242 402.258 420.087 402.187 417.704C402.069 413.599 400.598 403.961 402.262 400.261C403.214 399.636 403.387 399.408 404.469 399.388L404.461 399.958L403.238 401.055L403.961 403.076Z" fill="#1E2630"/>
<path d="M400.948 440.959C404.566 436.398 410.734 434.711 416.169 436.803C421.609 438.891 425.058 444.266 424.692 450.078C424.322 455.89 420.22 460.793 414.564 462.177C408.909 463.565 403.005 461.119 399.988 456.137C397.105 451.375 397.487 445.32 400.948 440.959Z" fill="#B0B3B8"/>
<path d="M409.912 437.652C416.323 436.834 422.179 441.383 422.97 447.797C423.764 454.214 419.19 460.049 412.771 460.816C406.388 461.579 400.586 457.037 399.8 450.659C399.013 444.277 403.532 438.462 409.912 437.652Z" fill="#1E2630"/>
<path d="M401.766 449.468C401.958 443.106 405.058 440.574 411.001 439.536C414.068 439.484 415.355 440.271 418.143 441.627C416.881 442.257 414.694 443.133 414.013 444.231C413.301 445.194 412.829 445.925 411.917 446.72L410.324 448.674L410.167 449.055L411.976 450.089C412.121 451.198 412.153 450.762 411.685 451.835C410.175 452.791 409.703 453.227 408.389 454.446L408.2 454.631C407.414 454.564 407.783 454.686 407.103 454.136C406.371 454.843 405.644 455.559 404.924 456.275L404.381 456.18C403.241 454.95 402.021 452.091 401.939 450.369L401.766 449.468Z" fill="#3C5368"/>
<path d="M411 439.536C414.068 439.484 415.354 440.271 418.143 441.627C416.88 442.257 414.693 443.133 414.013 444.231C413.301 445.194 412.829 445.925 411.916 446.72L411.189 446.26C411.704 443.747 411.484 442.005 411 439.536Z" fill="#355069"/>
<path d="M410.164 449.055L411.974 450.089C412.119 451.198 412.151 450.761 411.683 451.835C410.172 452.79 409.7 453.227 408.387 454.446C408.418 452.716 409.299 450.553 410.164 449.055Z" fill="#FDFDFD"/>
<path d="M401.766 449.466C402.918 449.439 403.917 449.238 404.802 449.863C403.689 450.442 403.205 450.347 401.939 450.367L401.766 449.466Z" fill="#B0B3B8"/>
<path d="M413.374 449.762C415.081 447.705 415.758 442.531 418.696 442.747C420.119 443.946 420.599 446.388 421.055 448.181L420.961 449.49C420.54 453.175 420.292 454.744 417.358 457.343C414.971 459.455 408.584 460.217 406.641 457.524C407.773 455.393 411.242 453.474 411.683 451.834C412.151 450.761 412.119 451.197 411.974 450.088L410.165 449.054L410.322 448.673C411.36 449.062 412.316 449.42 413.374 449.762Z" fill="#355069"/>
<path d="M421.056 448.182L420.961 449.491C419.648 449.534 419.27 449.601 418.043 449.165C418.92 448.402 419.77 448.449 421.056 448.182Z" fill="#FDFDFD"/>
<path d="M418.311 451.961L419.428 451.934L419.806 452.413C419.126 454.246 419.605 453.715 418.111 454.572C417.655 454.922 417.922 454.804 417.245 454.757C417.057 453.853 417.78 452.984 418.311 451.961Z" fill="#456B87"/>
<path d="M414.013 444.23H414.788C415.032 445.516 413.864 448.206 413.376 449.763C412.318 449.421 411.363 449.063 410.324 448.674L411.917 446.72C412.83 445.925 413.302 445.194 414.013 444.23Z" fill="#C05353"/>
<path d="M403.965 403.076C405.825 400.874 407.398 398.523 408.366 395.766C415.831 374.209 421.29 352.782 427.485 330.715C432.673 312.245 438.218 291.904 440.999 272.822C441.262 271.027 438.56 266.749 439.343 264.9C442.879 266.622 442.38 272.952 442.104 276.281C443.025 275.903 442.592 275.906 443.426 276.049L443.823 274.257L444.484 273.94C445.668 274.536 446.305 275.205 447.288 276.081C446.859 281.961 446.285 286.001 444.956 291.753C443.469 293.065 441.251 295.144 439.681 296.215L440.267 296.407L439.524 296.997L439.221 296.872C438.34 297.968 438.305 298.205 437.88 299.555C437.443 299.766 437.569 299.762 437.408 299.733C436.755 301.948 436.382 303.583 435.933 305.852C430.698 325.831 425.2 345.741 419.438 365.574C417.235 373.18 410.789 399.333 405.192 403.194C404.338 403.245 404.527 403.395 403.965 403.076Z" fill="#6D5B54"/>
<path d="M443.424 276.048L443.821 274.256L444.482 273.939C445.666 274.536 446.303 275.204 447.286 276.081C446.858 281.961 446.283 286.001 444.954 291.752C443.467 293.064 441.249 295.144 439.68 296.215C440.431 289.694 442.665 283.568 443.424 276.048Z" fill="#EB936F"/>
<path d="M442.102 276.28C443.023 275.902 442.59 275.905 443.424 276.048C442.665 283.568 440.431 289.694 439.68 296.215L440.266 296.407L439.522 296.997L439.219 296.871C438.338 297.967 438.303 298.205 437.878 299.554C437.442 299.765 437.568 299.761 437.406 299.732C437.473 298.56 438.256 295.854 438.484 294.524C439.4 289.126 441.815 281.546 442.102 276.28Z" fill="#2C1F1E"/>
<path d="M395.072 445.257C393.653 448.58 394.215 457.553 388.362 455.029C385.74 453.9 387.179 450.157 387.621 448.002C389.812 437.322 392.177 426.682 394.262 415.982C394.825 413.096 397.959 411.853 400.064 414.083C401.279 415.4 400.559 418.747 400.315 420.426C398.49 428.372 396.504 437.279 395.072 445.257Z" fill="#B0B3B8"/>
<path d="M396.638 414.7C397.326 414.37 398.144 414.444 398.762 414.897C399.379 415.353 399.698 416.108 399.588 416.867C399.478 417.626 398.959 418.259 398.235 418.518C397.197 418.892 396.048 418.388 395.623 417.37C395.195 416.352 395.643 415.18 396.638 414.7Z" fill="#1E2630"/>
<path d="M388.987 450.446C389.625 450.073 390.416 450.073 391.055 450.446C391.694 450.82 392.08 451.512 392.066 452.251C392.051 452.99 391.638 453.667 390.985 454.013C390.003 454.54 388.782 454.182 388.238 453.21C387.694 452.239 388.026 451.012 388.987 450.446Z" fill="#1E2630"/>
<path d="M436.969 308.195C438.078 307.979 439.458 307.019 440.481 306.408C439.875 308.207 439.509 309.463 439.069 311.308C437.433 315.819 436.587 320.052 435.183 324.395C425.83 353.356 428.603 379.885 428.992 409.769L429.846 472.872C429.968 478.322 430.275 483.796 430.219 489.242C430.212 490.111 428.54 492.592 427.691 490.952C428.45 490.677 428.89 490.634 429.673 490.512C429.924 489.47 429.445 485.518 429.445 484.13C429.413 459.526 428.874 434.919 428.658 410.315C428.52 394.583 427.281 378.493 428.025 362.768C428.273 356.616 428.91 350.486 429.936 344.415C430.334 342.111 434.066 326.471 433.881 325.762L433.138 324.84L433.779 323.281L433.488 323.163C432.969 324.865 432.878 325.521 432.182 327.203C430.88 330.352 430.353 334.722 429.374 338.057L415.816 384.603C414.849 387.832 411.545 396.144 411.258 398.896C410.408 407.166 419.789 423.142 414.334 430.122C415.164 434.274 418.349 434.856 420.8 436.818C430.762 444.8 427.966 461.626 414.947 464.383C408.171 465.814 400.355 462.826 398.074 456.817C398.731 456.853 398.405 456.79 399.057 457.379C403.604 467.674 422.817 465.893 425.634 453.286C428.583 440.078 420.013 439.748 413.7 431.026C413.008 430.071 415.419 427.074 415.573 425.871C415.813 421.015 411.384 403.855 409.472 400.371C419.309 375.384 425.37 347.781 432.977 321.954C433.983 318.545 435.313 314.387 436.033 310.989L436.705 308.194L436.969 308.195Z" fill="#3B6450"/>
<path d="M436.971 308.195C438.08 307.979 439.461 307.019 440.484 306.408C439.878 308.207 439.512 309.463 439.072 311.308L439.044 310.68C438.014 310.227 437.365 310.662 436.035 310.989L436.708 308.194L436.971 308.195Z" fill="#1C443A"/>
<path d="M396.809 443.71C396.836 442.724 399.892 428.532 400.305 427.188L400.443 428.984C400.978 429.787 400.616 429.523 401.603 429.747L401.788 429.161L401.005 427.707C402.842 429.775 403.577 430.31 405.91 431.651C406.173 431.8 406.11 432.453 406.134 432.81C404.407 436.515 402.508 437.006 399.684 439.916C399.145 440.698 397.446 443.467 396.809 443.71Z" fill="#3B6450"/>
<path d="M401.812 424.533C401.89 422.24 402.26 420.086 402.189 417.703C402.071 413.598 400.6 403.96 402.264 400.26C403.216 399.634 403.389 399.406 404.471 399.387L404.463 399.957L403.239 401.054C402.225 404.274 402.901 421.254 403.574 425.571C403.668 426.165 406.26 428.823 406.889 429.472L406.673 429.999C403.306 429.586 402.724 427.313 401.812 424.533Z" fill="#B0B3B8"/>
<path d="M406.265 403.779C407.405 404.994 411.704 423.055 411.46 425.288C410.418 426.539 410.575 426.193 408.762 426.727C407.795 427.101 407.688 427.089 406.642 427.16C406.21 426.904 405.454 426.554 405.313 426.169C404.286 423.405 403.763 406.662 404.16 404.841L406.265 403.779Z" fill="#3B6450"/>
<path d="M408.312 402.884L409.008 402.691C410.652 404.673 414.227 422.462 413.94 425.895C413.877 426.67 413.095 428.219 412.686 428.978C412.316 428.695 412.438 428.852 412.225 428.384C411.978 427.83 412.3 427.307 412.461 426.733C412.988 424.873 412.961 423.548 412.646 421.652C412.147 418.64 407.746 404.367 408.312 402.884Z" fill="#B0B3B8"/>
<path d="M412.89 432.756C413.649 433.188 413.381 432.89 413.739 433.668C412.862 434.537 409.22 434.447 407.792 434.498C407.065 434.561 407.411 434.628 406.742 434.219L406.974 433.711C409.043 432.96 410.726 432.925 412.89 432.756Z" fill="#B0B3B8"/>
<path d="M436.423 241.924C454.243 246.357 464.446 258.589 474.161 273.091C476.859 277.119 481.091 282.413 483.459 286.313L483.687 286.698C484.34 287.852 484.922 288.508 484.701 289.759C483.333 291.448 475.38 295.892 473.185 297.06C451.891 308.389 442.83 319.822 433.827 342.285L432.887 342.427C433.485 339.048 433.976 335.381 435.266 332.245C436.017 327.248 437.98 321.954 439.4 317.116C443.636 302.664 449.343 288.057 449.154 272.846L447.538 273.162C446.424 273.176 444.981 272.158 443.923 271.56C442.645 267.07 442.212 264.565 438.11 261.981C437.414 258.04 436.792 254.3 436.545 250.303L436.423 241.924Z" fill="#B29267"/>
<path d="M483.687 286.697C484.34 287.851 484.922 288.508 484.701 289.759C483.333 291.448 475.38 295.891 473.185 297.059C451.891 308.388 442.83 319.821 433.827 342.285L432.887 342.427C433.485 339.047 433.976 335.38 435.266 332.244L436.073 331.966C444.698 312.095 454.42 303.645 472.69 292.445C475.105 290.965 482.149 288.236 483.687 286.697Z" fill="#896749"/>
<path d="M436.547 250.303C442.891 253.599 445.455 256.652 447.799 263.462C448.944 266.477 449.038 269.658 449.156 272.846L447.54 273.162C446.427 273.176 444.983 272.158 443.925 271.56C442.647 267.069 442.214 264.565 438.112 261.981C437.416 258.04 436.795 254.3 436.547 250.303Z" fill="#896749"/>
<path d="M447.798 263.461C448.942 266.475 449.037 269.657 449.155 272.845L447.538 273.16C447.597 270.641 446.48 265.388 447.798 263.461Z" fill="#573D28"/>
<path d="M322.497 286.896C337.307 266.387 344.78 249.556 370.101 241.756C370.094 244.918 370.031 247.505 369.806 250.658C369.62 252.596 369.133 259.12 368.386 260.275C365.123 265.321 363.696 265.475 361.839 271.728L359.065 273.504C358.372 273.492 357.733 273.384 357.168 273.728C357.071 289.498 364.552 307.332 368.508 322.121C369.368 325.333 370.381 329.563 371.443 332.63L370.565 332.329C369.647 331.188 369.185 329.42 368.708 327.998C366.334 324.277 364.634 319.646 361.628 316.126C358.789 315.414 361.183 313.498 355.683 313.454C348.227 306.405 341.545 301.732 332.642 296.669C330.036 295.188 323.286 291.879 321.801 289.855C321.592 288.666 322.016 288.027 322.497 286.896Z" fill="#B29267"/>
<path d="M355.683 313.454C348.227 306.405 341.545 301.732 332.642 296.669C330.036 295.188 323.286 291.879 321.801 289.855C321.592 288.666 322.016 288.027 322.497 286.896C335.225 293.507 347.184 299.295 357.047 310.228C358.026 311.312 361.333 314.945 361.628 316.126C358.789 315.414 361.183 313.498 355.683 313.454Z" fill="#896749"/>
<path d="M358.863 262.73C360.194 256.689 364.406 253.134 369.806 250.658C369.619 252.596 369.132 259.12 368.385 260.275C365.122 265.322 363.695 265.476 361.838 271.728L359.064 273.504C358.35 271.537 359.978 264.874 358.863 262.73Z" fill="#896749"/>
<path d="M358.864 262.73C359.979 264.875 358.351 271.538 359.065 273.505C358.373 273.493 357.734 273.385 357.168 273.729C357.618 270.039 357.996 266.346 358.864 262.73Z" fill="#573D28"/>
<path d="M368.708 327.998C369.321 325.971 368.105 325.061 367.895 322.33L368.507 322.121C369.367 325.333 370.381 329.563 371.443 332.631L370.565 332.329C369.646 331.188 369.184 329.42 368.708 327.998Z" fill="#AE9177"/>
<path d="M363.468 271.392C364.208 268.528 364.485 267.975 365.966 265.456L366.458 265.388L366.362 264.848C366.937 265.9 365.159 271.005 365.198 273.029C365.298 278.252 366.383 283.921 367.52 288.973C373.471 315.351 380.322 341.518 388.059 367.429C390.638 376.189 393.296 384.918 396.089 393.61C396.565 395.089 397.777 397.782 397.163 399.115C396.99 399.304 395.779 400.586 395.704 400.704C394.434 404.184 393.608 406.527 392.733 410.109C389.654 409.402 386.178 409.225 385.015 412.819C382.95 419.205 381.835 426.381 380.331 432.963C379.04 438.61 378.4 443.922 376.797 449.518C376.563 444.311 376.886 436.899 376.928 431.508C377.124 417.781 377.393 404.054 377.735 390.33C378.003 382.23 378.676 374.307 378.333 366.148C377.5 346.352 372.452 328.738 366.732 309.838C367.584 309.995 368.698 310.116 369.413 310.546C369.079 309.275 369.017 308.521 368.886 307.241L369.523 305.436C369.148 303.433 368.889 301.917 368.259 299.983L367.95 300.124C367.467 299.62 367.323 297.737 366.695 296.428L365.742 296.189L365.96 295.619L361.772 292.157C360.06 286.074 359.725 282.563 359.027 276.276C359.89 275.541 361.259 274.573 362.2 273.867C362.712 273.405 362.811 272.439 363.468 271.392Z" fill="#3B6450"/>
<path d="M363.468 271.392C364.208 268.528 364.485 267.975 365.966 265.456L366.458 265.388L366.362 264.848C366.937 265.9 365.159 271.005 365.198 273.029C365.298 278.252 366.383 283.921 367.52 288.973C373.471 315.351 380.322 341.518 388.059 367.429C390.638 376.189 393.296 384.918 396.089 393.61C396.565 395.089 397.777 397.782 397.163 399.115C396.99 399.304 395.779 400.586 395.704 400.704C391.168 390.323 384.871 367.099 381.671 355.832C378.618 345.34 375.717 334.805 372.969 324.23C371.777 319.714 370.344 315.092 369.413 310.546C369.079 309.275 369.017 308.521 368.886 307.241L369.523 305.436C369.148 303.433 368.889 301.917 368.259 299.983L367.95 300.124C367.467 299.62 367.323 297.737 366.695 296.428L365.742 296.189L365.96 295.619L361.772 292.157C360.06 286.074 359.725 282.563 359.027 276.276C359.89 275.541 361.259 274.573 362.2 273.867C362.712 273.405 362.811 272.439 363.468 271.392Z" fill="#6D5B54"/>
<path d="M369.523 305.438C371.472 313.228 393.498 397.61 396.743 398.987C396.88 399.046 397.026 399.073 397.163 399.116C396.99 399.305 395.779 400.587 395.704 400.705C391.168 390.324 384.871 367.1 381.671 355.833C378.618 345.342 375.717 334.806 372.969 324.231C371.777 319.715 370.344 315.093 369.413 310.547C369.079 309.276 369.017 308.523 368.887 307.242L369.523 305.438Z" fill="#1E2630"/>
<path d="M359.027 276.276C359.89 275.541 361.259 274.573 362.2 273.867C362.911 279.874 363.761 285.61 365.157 291.504C365.464 292.803 365.799 294.302 365.96 295.619L361.772 292.157C360.06 286.074 359.725 282.563 359.027 276.276Z" fill="#EB936F"/>
<path d="M362.199 273.868C362.711 273.405 362.81 272.44 363.467 271.393C363.908 281.88 366.415 289.973 368.258 299.983L367.949 300.125C367.466 299.62 367.322 297.738 366.694 296.429L365.741 296.19L365.959 295.619C365.798 294.303 365.463 292.804 365.156 291.505C363.76 285.611 362.91 279.875 362.199 273.868Z" fill="#2C1F1E"/>
<path d="M311.348 213.603C313.068 215.371 319.456 221.223 321.528 221.205C321.089 218.535 317.036 214.969 317.787 212.545C318.211 212.459 319.547 212.191 319.828 212.309C324.602 214.32 328.613 224.145 328.319 228.979C328.094 232.664 327.456 234.553 327.08 237.242L327.618 237.612C334.1 236.128 337.19 228.522 338.155 222.702C342.858 234.356 349.531 237.682 360.979 240.513C361.783 240.671 362.572 240.662 363.002 241.175C361.001 241.574 358.589 241.42 356.518 241.377C340.451 242.077 318.839 246.352 303.158 250.285C295.387 237.3 293.039 231.894 288.875 217.21C295.908 215.755 304.074 214.868 311.348 213.603Z" fill="#487493"/>
<path d="M360.977 240.512C361.78 240.67 362.569 240.661 363 241.174C360.999 241.573 358.587 241.419 356.516 241.376C358.193 241.03 359.351 241.308 360.977 240.512Z" fill="#355069"/>
<path d="M488.39 212.51C497.216 213.808 508.866 215.526 517.456 217.09C514.478 228.106 509.841 240.868 502.99 250.172C487.34 246.402 471.537 242.962 455.47 241.76C452.717 241.554 447.085 240.926 444.508 241.117L444.422 240.433C461.558 237.474 468.3 231.687 476.666 216.67C477.279 225.977 479.69 231.378 488.363 235.942C485.189 226.816 484.453 221.783 488.39 212.51Z" fill="#487493"/>
<path d="M311.381 250.203L312.327 250.349C312.781 251.636 312.411 253.67 312.262 255.112C311.515 255.478 310.978 255.812 310.269 256.248C308.577 258.837 309.391 263.038 309.65 266.182L312.232 268.43C311.302 272.194 310.439 275.318 309.273 279.014C303.512 281.165 299.846 283.094 297.579 289.001C293.746 290.816 282.36 295.096 280.386 298.119L278.766 303.738C278.759 293.766 281.724 272.481 287.486 263.991C294.521 253.626 300.391 252.778 311.381 250.203Z" fill="#444753"/>
<path d="M494.094 249.92C500.572 251.443 507.093 252.663 512.556 256.746C524.135 265.403 525.547 284.155 527.309 297.752L526.656 298.336C524.666 295.435 512.973 290.69 509.342 289.067C505.594 282.546 504.056 281.79 496.823 278.868C496.072 274.953 495.317 272.143 494.208 268.301C498.99 265.214 497.209 258.58 494.755 254.591C493.736 252.935 493.999 251.819 494.094 249.92Z" fill="#444753"/>
<path d="M323.818 293.883C326.179 295.304 329.095 296.751 331.593 298.196C334.252 299.557 335.139 300.067 337.578 301.853C337.212 323.295 336.105 342.703 333.16 364.013L326.446 363.876C323.864 364.145 322.244 364.702 319.788 365.444C319.704 360.977 320.346 361.412 321.501 357.473C321.475 355.907 321.402 354.992 320.05 354.09L320.741 353.73C319.176 353.387 319.082 353.649 318.222 352.592C317.793 349.968 320.725 340.043 322.496 339.259L322.338 338.856C321.258 338.673 322.488 334.555 321.391 333.359C320.02 331.862 319.116 327.854 321.294 326.736C321.969 326.935 321.988 326.968 322.683 326.967L323.328 326.038L323.802 326.104L323.767 326.853C325.143 326.656 328.406 326.797 329.93 326.823L330.061 325.236C329.953 322.686 330.905 318.366 330.511 316.045L329.725 315.571C330.594 315.42 330.199 315.589 330.913 314.975L330.839 313.854C328.112 313.41 325.341 313.457 322.574 313.417C322.935 306.902 323.35 300.391 323.818 293.883Z" fill="#444753"/>
<path d="M322.338 338.855C321.258 338.672 322.488 334.554 321.391 333.358C320.02 331.861 319.116 327.853 321.294 326.735C321.969 326.934 321.988 326.967 322.683 326.966L323.328 326.037L323.802 326.103L323.767 326.852C325.143 326.655 328.406 326.796 329.93 326.822C328.902 339.892 327.836 350.908 326.446 363.875C323.864 364.144 322.244 364.701 319.788 365.443C319.704 360.976 320.346 361.411 321.501 357.472C321.475 355.906 321.402 354.991 320.05 354.089L320.741 353.729C319.176 353.386 319.082 353.648 318.222 352.591C317.793 349.967 320.725 340.042 322.496 339.258L322.338 338.855Z" fill="#487493"/>
<path d="M322.338 338.855C321.258 338.672 322.488 334.554 321.391 333.358C320.02 331.861 319.116 327.853 321.294 326.735C321.969 326.934 321.988 326.967 322.683 326.966L323.328 326.037L323.802 326.103L323.767 326.852C326.639 329.838 326.715 330.596 327.75 334.576C325.787 342.861 323.758 349.359 321.501 357.472C321.475 355.906 321.402 354.991 320.05 354.089L320.741 353.729C319.176 353.386 319.082 353.648 318.222 352.591C317.793 349.967 320.725 340.042 322.496 339.258L322.338 338.855Z" fill="#B0B3B8"/>
<path d="M322.336 338.855C321.256 338.672 322.486 334.554 321.389 333.358C320.018 331.861 319.114 327.853 321.292 326.735C321.968 326.934 321.986 326.967 322.681 326.966L323.326 326.037L323.8 326.103L323.765 326.852C326.637 329.838 326.713 330.596 327.748 334.576C325.785 342.861 323.756 349.359 321.499 357.472C321.474 355.906 321.4 354.991 320.048 354.089L320.739 353.729C321.601 352.27 324.283 342.472 324.648 340.539C324.386 340.16 324.101 339.86 323.755 339.557C324.485 339.335 324.515 339.383 325.083 338.893C326.04 336.284 326.22 332.218 324.408 329.867C323.772 329.042 322.143 327.481 321.066 327.625C320.135 329.816 322.489 332.918 322.868 335.167C323.017 336.054 322.555 337.921 322.336 338.855Z" fill="#1E2630"/>
<path d="M323.818 293.883C326.179 295.304 329.095 296.751 331.592 298.196C331.436 301.5 330.679 310.961 330.839 313.854C328.112 313.41 325.341 313.457 322.574 313.417C322.935 306.902 323.35 300.391 323.818 293.883Z" fill="#487493"/>
<path d="M474.61 298.405C477.371 296.721 479.735 295.499 482.621 294.033C483.204 300.436 483.333 306.986 483.746 313.429C481.508 313.918 476.911 312.852 475.738 314.497L475.817 315.318C476.006 318.378 476.34 322.202 476.207 325.195L476.49 326.811L484.336 326.835L485.74 347.213C486.083 352.952 486.307 359.888 486.948 365.517C484.446 364.712 482.854 364.11 480.199 363.878C477.788 363.953 476.175 363.985 473.733 363.786C470.96 360.797 469.154 309.739 468.84 302.091C470.633 300.21 472.285 299.499 474.61 298.405Z" fill="#444753"/>
<path d="M476.488 326.811L484.335 326.835L485.739 347.212C486.081 352.952 486.305 359.888 486.946 365.517C484.445 364.712 482.852 364.11 480.197 363.877C478.946 362.583 476.882 331.543 476.488 326.811Z" fill="#487493"/>
<path d="M474.609 298.405C477.37 296.721 479.734 295.499 482.621 294.033C483.203 300.436 483.333 306.986 483.746 313.429C481.461 313.288 478.259 313.43 475.903 313.467C475.475 308.39 475.302 303.465 474.609 298.405Z" fill="#487493"/>
<path d="M486.133 327.092C490.455 327.178 495.84 328.138 500.213 328.812C500.276 332.688 501.079 351.122 501.822 354.506C502.085 358.038 502.801 366.235 502.097 369.326L501.338 369.627C498.141 368.141 492.158 366.655 488.748 365.791C487.328 354.008 486.876 339.286 486.133 327.092Z" fill="#575863"/>
<path d="M472.627 163.128C473.351 159.948 473.669 154.009 475.565 152.483C479.219 151.205 483.125 156.477 484.131 159.589C488.096 171.84 480.438 190.015 467.341 193.368C465.783 193.761 464.977 194.198 463.345 193.693C462.499 191.797 465.142 182.964 465.768 180.371C466.13 178.507 469.551 172.797 470.562 168.962L471.573 165.828C471.715 165.585 472.474 163.528 472.627 163.128Z" fill="#EB936F"/>
<path d="M472.629 163.128C474.548 162.053 475.429 159.956 478.214 160.169C479.771 160.723 480.011 161.136 481.034 162.365C483.642 169.719 477.364 183.974 467.862 182.787L467.119 181.759C466.769 181.222 466.253 180.82 465.77 180.371C466.131 178.507 469.553 172.797 470.564 168.962L471.575 165.828C471.716 165.584 472.476 163.528 472.629 163.128Z" fill="#CE7154"/>
<path d="M470.564 168.963C473.589 172.389 473.884 176.989 470.1 179.986C469.191 180.705 468.188 181.302 467.119 181.76C466.769 181.223 466.253 180.821 465.77 180.372C466.131 178.508 469.553 172.798 470.564 168.963Z" fill="#CE7154"/>
<path d="M471.573 165.828L472.002 167.467C474.067 170.019 475.062 172.044 474.661 175.496C474.417 177.753 473.28 179.819 471.507 181.237C470.39 182.114 469.249 182.546 467.861 182.787L467.117 181.76C468.187 181.301 469.19 180.705 470.098 179.985C473.882 176.988 473.587 172.388 470.563 168.962L471.573 165.828Z" fill="#9F4630"/>
<path d="M472.628 163.128C474.548 162.053 475.429 159.956 478.213 160.169C479.771 160.723 480.011 161.136 481.033 162.365C476.137 164.294 476.007 162.337 472.003 167.467L471.574 165.828C471.716 165.584 472.475 163.528 472.628 163.128Z" fill="#9F4630"/>
<path d="M235.297 331.266C241.964 331.172 248.823 331.266 255.506 331.28C251.791 339.056 248.677 346.652 245.385 354.609C244.289 355.415 228.827 355.019 226.453 355.003C226.295 346.908 226.311 342.309 232.877 337.062C235.08 335.303 235.254 333.958 235.297 331.266Z" fill="#B0B3B8"/>
<path d="M238.111 331.201L239.739 331.6C243.296 335.697 234.045 341.76 232.902 346.104C232.164 348.907 232.436 352.222 232.47 355.139C231.247 354.997 231.126 355.011 230.029 354.499C229.357 353.379 229.574 351.597 229.584 350.306C229.672 337.951 237.944 340.911 238.111 331.201Z" fill="#FDFDFD"/>
<path d="M323.466 276.408L324.116 276.525C325.46 279.681 318.979 287.187 319.652 290.445C319.899 291.644 321.074 292.216 322.095 292.84C322.16 299.284 321.514 307.145 321.121 313.639C317.713 313.746 314.469 314.326 311.101 314.844C309.551 315.091 307.893 315.284 306.328 315.492C306.464 309.73 308.941 285.347 310.186 280.927C313.704 279.34 319.633 277.632 323.466 276.408Z" fill="#575863"/>
<path d="M482.141 276.277C485.503 277.037 493.153 279.65 496.386 280.803C497.303 285.204 500.748 313.342 499.513 315.32L497.842 315.27C494.042 314.644 489.503 313.776 485.724 313.625C485.083 306.203 484.532 300.36 484.469 292.963C489.688 288.834 484.913 286.213 483.254 281.572C482.754 280.179 482.408 277.797 482.141 276.277Z" fill="#575863"/>
<path d="M281.746 299.225C285.228 296.634 292.819 293.151 296.896 291.43C296.059 296.765 295.652 305.064 295.339 310.526C294.631 324.711 294.25 338.91 294.198 353.112C293.782 353.461 293.633 353.685 293.166 353.814C291.304 341.157 287.978 328.188 285.35 315.615C284.194 310.087 282.626 304.878 281.746 299.225Z" fill="#B29267"/>
<path d="M509.645 291.299C513.468 293.125 521.68 296.918 524.771 299.245C521.401 316.503 516.221 334.526 513.507 351.929C512.791 350.96 512.748 349.948 512.527 348.733C512.28 328.881 511.131 311.078 509.645 291.299Z" fill="#B29267"/>
<path d="M395.254 65.398C399.844 64.8137 417.531 65.6894 419.734 69.7368L419.514 70.1312C417.704 69.7324 416.151 68.8874 414.538 68.5272C383.824 61.6613 357.336 83.9976 348.536 112.304C345.357 122.527 339.447 132.763 332.005 140.129C327.627 144.881 319.372 149.458 312.938 149.524C329.77 142.717 337.929 133.301 344.404 116.144C348.698 104.768 350.057 97.5042 357.767 87.3655C367.245 74.9036 379.795 67.6303 395.254 65.398Z" fill="#444753"/>
<path d="M224.8 367.615L240.559 367.631C239.213 370.316 237.675 375.452 236.61 378.47C234.063 385.686 231.768 393.031 229.057 400.194C227.592 404.488 226.611 407.122 224.727 411.278C224.483 397.252 224.394 381.603 224.8 367.615Z" fill="#487493"/>
<path d="M361.84 242.407L362.705 242.404C362.643 242.556 353.311 247.134 351.87 248.156C346.08 252.261 340.939 257.886 336.688 263.347C334.183 266.566 331.441 271.948 328.669 273.807L328.098 273.558L327.957 267.482C332.687 264.669 332.85 257.265 328.464 254.159L328.845 246.456C337.993 245.05 353.024 243.021 361.84 242.407Z" fill="#444753"/>
<path d="M444.789 242.701C451.082 242.616 469.996 245.464 477.473 246.459C477.568 248.033 477.992 253.089 477.41 254.286C476.569 256.011 475.145 256.866 475.247 259.701C475.357 262.656 474.96 264.961 477.359 267.014C479.031 268.444 478.696 269.782 478.586 272.01C478.445 273.362 478.689 273.235 477.941 273.955C476.399 273.095 474.319 270.031 473.241 268.524C467.357 260.294 461.088 251.349 451.873 246.606C449.615 245.445 447.306 244.338 445.171 242.951L444.789 242.701Z" fill="#444753"/>
<path d="M501.981 329.012C504.636 329.624 507.464 330.224 510.091 330.885C510.48 343.758 510.15 362.137 511.184 374.527C509.418 373.27 506.579 371.293 504.451 370.816L504.207 371.148C503.039 370.534 501.757 370.495 501.34 369.627L502.099 369.327C502.803 366.236 502.087 358.038 501.824 354.506C502.858 354.651 501.623 355.262 502.547 356.148C502.787 350.549 501.611 347.2 502.587 341.485C502.594 338.315 502.315 332.207 501.981 329.012Z" fill="#487493"/>
<path d="M501.824 354.505C502.858 354.65 501.623 355.261 502.547 356.147C502.787 350.548 501.611 347.199 502.587 341.484C502.748 345.255 503.456 369.519 504.451 370.815L504.207 371.147C503.039 370.533 501.757 370.494 501.34 369.626L502.099 369.326C502.803 366.235 502.087 358.037 501.824 354.505Z" fill="#1E2630"/>
<path d="M507.762 185.357C512.797 187.331 516.655 189.657 520.942 192.87C520.545 197.954 520.026 203.027 519.385 208.085L509.906 205.944L493.934 203.488C500.49 196.629 504.537 195.518 507.762 185.357Z" fill="#487493"/>
<path d="M475.816 315.318C488.092 315.598 497.818 316.037 509.614 319.235C509.822 322.433 510.133 325.936 510.074 329.11C498.436 325.969 488.347 324.868 476.206 325.196C476.34 322.202 476.005 318.379 475.816 315.318Z" fill="#575863"/>
<path d="M296.518 319.1C306.698 316.539 319.257 315.103 329.725 315.57L330.511 316.044C330.905 318.365 329.953 322.684 330.061 325.234C315.897 324.928 309.619 325.026 296.245 329.111C296.214 325.948 296.414 322.298 296.518 319.1Z" fill="#575863"/>
<path d="M310.963 332.462L319.369 332.27C319.375 338.942 316.739 353.777 313.873 359.08C312.98 359.563 312.045 360.099 311.015 360.186C310.01 360.27 309.104 360.006 308.377 359.288C305.158 356.109 306.174 337.931 306.115 332.676L310.963 332.462Z" fill="#575863"/>
<path d="M327.387 174.858C330.132 171.622 332.68 168.293 335.611 165.221C336.796 170.866 339.509 175.496 340.9 181.845C341.356 183.739 343.681 192.223 343.601 193.483C341.958 194.344 338.504 193.493 336.846 192.811C330.639 190.257 327.099 185.32 324.531 179.343C325.463 177.835 326.414 176.34 327.387 174.858Z" fill="#EB936F"/>
<path d="M327.387 174.858C330.132 171.622 332.68 168.293 335.611 165.221C336.796 170.866 339.509 175.496 340.9 181.845C335.575 186.054 329.574 179.421 327.387 174.858Z" fill="#CE7154"/>
<path d="M334.477 167.678L335.261 167.912C335.982 169.256 332.976 172.182 333.475 175.029C334.155 178.897 338.631 179.977 339.219 182.493C332.057 182.491 328.929 172.808 334.477 167.678Z" fill="#9F4630"/>
<path d="M385.742 414.794C386.834 412.321 387.671 410.748 390.765 411.153C393.9 413.45 392.205 421.306 391 424.31C388.722 429.984 387.459 453.161 382.154 454.258C377.17 452.496 378.669 442.465 381.6 440.377L380.728 439.481L381.226 439.194C381.277 436.748 383.277 425.632 384.32 423.449L384.284 423.402C384.445 422.828 384.182 421.975 384.255 421.149C384.464 418.746 384.802 416.658 385.451 414.334L385.742 414.794Z" fill="#B0B3B8"/>
<path d="M384.318 423.449L384.283 423.402C384.443 422.827 384.181 421.974 384.253 421.148C384.463 418.746 384.8 416.658 385.45 414.334L385.74 414.794C385.629 416.068 384.911 419.465 385.012 420.291C385.833 426.988 387.748 435.237 381.599 440.377L380.727 439.48L381.224 439.193C381.276 436.747 383.276 425.631 384.318 423.449Z" fill="#1E2630"/>
<path d="M384.316 423.447C385.603 428.543 384.535 435.047 381.223 439.192C381.274 436.746 383.274 425.63 384.316 423.447Z" fill="#B0B3B8"/>
<path d="M381.42 448.43C382.549 448.17 383.679 448.858 383.968 449.979C384.256 451.104 383.598 452.248 382.484 452.566C381.736 452.783 380.931 452.574 380.382 452.024C379.833 451.473 379.626 450.667 379.842 449.92C380.058 449.173 380.662 448.603 381.42 448.43Z" fill="#1E2630"/>
<path d="M388.203 412.977C388.881 412.568 389.733 412.576 390.404 413C391.074 413.421 391.447 414.188 391.367 414.978C391.286 415.765 390.767 416.441 390.024 416.72C389.014 417.102 387.879 416.653 387.406 415.682C386.934 414.711 387.279 413.539 388.203 412.977Z" fill="#1E2630"/>
<path d="M273.777 282.88C275.51 282.011 277.209 281.051 279.101 280.652L279.457 281.417C278.359 288.554 277.798 295.802 276.676 302.777C270.743 309.697 267.923 310.109 261.879 319.364C261.945 316.531 261.916 310.474 262.733 308.098C265.306 300.618 274.053 291.028 273.777 282.88Z" fill="#487493"/>
<path d="M498.422 281.598C501.655 282.782 506.237 285.513 506.961 289.021C508.778 297.799 509.273 308.193 509.698 317.068C506.965 316.677 504.239 316.087 501.529 315.541C501.199 309.178 499.901 286.944 498.422 281.598Z" fill="#487493"/>
<path d="M307.238 281.869L307.85 282.326C307.802 284.015 306.746 290.631 306.492 293.027C305.702 300.543 305.146 308.081 304.825 315.631C302.31 315.884 299.898 316.467 297.43 317.005L296.855 316.791C296.5 315.542 297.779 303.667 297.902 301.021C298.345 291.498 298.194 286.405 307.238 281.869Z" fill="#487493"/>
<path d="M294.31 187.48C294.615 187.549 294.919 187.618 295.224 187.686C296.628 192.017 299.097 197.554 301.548 201.232C303.318 203.887 303.033 203.475 303.856 204.679C300.526 205.123 296.853 205.81 293.511 206.362C291.425 206.984 289.263 207.486 287.147 208.006C286.063 203.381 285.7 197.45 285.48 192.702C288.728 190.452 290.776 189.168 294.31 187.48Z" fill="#487493"/>
<path d="M299.178 329.91C299.594 329.925 299.712 330.01 300.122 330.143C299.417 333.075 299.381 338.198 299.557 341.277C299.957 348.299 298.841 357.718 302.871 363.727L302.552 370.362L298.948 372.331C297.836 372.969 296.416 373.95 295.32 374.668C295.632 360.61 295.525 345.17 296.311 331.293C296.969 330.4 297.928 330.337 299.178 329.91Z" fill="#487493"/>
<path d="M387.685 48.8497C389.654 48.6181 398.185 48.2292 399.404 49.4839C398.468 50.0604 393.756 49.9707 392.067 50.172C372.111 52.551 353.906 64.0428 341.338 79.2575C339.201 81.7843 336.628 85.6131 334.504 88.4069C336.13 83.7897 338.382 79.4168 341.196 75.4107C349.301 63.8753 362.347 55.2029 375.819 51.2455C379.167 50.2621 384.14 49.4772 387.685 48.8497Z" fill="#444753"/>
<path d="M319.264 256.158C323.222 255.894 329.069 254.376 329.319 259.845C329.634 266.748 326.895 266.032 321.532 266.193C318.854 266.327 314.522 266.799 312.161 266.086C310.54 264.432 310.737 258.807 312.073 256.969C313.739 256.211 317.289 256.248 319.264 256.158Z" fill="#898D94"/>
<path d="M321.532 258.573C323.831 258.394 325.91 257.532 326.954 259.762C326.962 260.995 326.962 261.158 326.231 262.14C324.372 263.335 320.878 263.027 318.508 263.049C317.792 263.093 317.077 263.128 316.361 263.157C314.569 263.219 314.375 263.274 313.279 262.251C313.073 260.925 312.942 260.678 313.366 259.463C314.98 258.528 319.456 258.634 321.532 258.573Z" fill="#1E2630"/>
<path d="M321.542 260.085C321.868 260.059 322.195 260.039 322.522 260.026C323.236 260.005 324.59 259.974 325.063 260.411C323.534 261.23 321.822 261.123 320.063 261.192C318.376 261.408 317.424 261.619 315.75 261.279L315.791 260.93C317.521 260.11 319.606 260.172 321.542 260.085Z" fill="#575863"/>
<path d="M478.23 256.089C481.896 256.059 491.375 255.463 493.959 257.353C494.879 258.02 495.461 259.062 495.544 260.198C495.725 262.443 495.457 264.642 493.915 266.309C490.332 266.701 481.798 266.379 478.187 265.298C476.515 264.798 476.747 257.9 478.23 256.089Z" fill="#898D94"/>
<path d="M479.485 258.291C482.12 258.414 490.636 258.605 492.645 259.175C493.306 260.438 493.031 261.627 492.913 263.103C489.963 263.075 482.435 263.162 479.772 262.325C479.163 261.173 479.418 259.671 479.485 258.291Z" fill="#1E2630"/>
<path d="M480.711 260.107C481.883 260.103 483.051 260.105 484.219 260.115C486.43 260.132 490.835 259.84 492.259 261.287C490.245 261.59 482.119 261.475 480.711 260.107Z" fill="#575863"/>
<path d="M305.514 328.316C306.901 330.498 304.734 331.75 304.713 333.578C304.636 340.413 304.839 347.275 305.101 354.107C305.195 356.561 305.117 358.718 307.163 360.452C313.585 365.897 314.67 359.049 317.388 355C318.531 355.098 318.735 355.048 319.697 355.603C320.035 356.945 319.571 357.608 319.141 359.115C318.212 361.189 316.434 363.809 314.551 364.44C302.623 368.798 300.835 356.273 301.459 347.444C301.909 341.066 298.535 330.886 305.514 328.316Z" fill="#B0B3B8"/>
<path d="M448.723 68.1398C450.587 67.9475 451.673 67.9892 453.462 68.483C472.435 73.7207 476.164 93.7406 481.419 109.764C483.008 114.606 486.76 120.639 489.379 125.052C483.94 122.402 478.618 108.73 476.652 103.161C471.043 87.291 465.796 74.443 448.723 68.1398Z" fill="#444753"/>
<path d="M492.822 205.242C499.1 205.664 512.74 207.887 519.021 209.842C518.655 211.479 518.372 213.893 517.381 215.056L515.937 215.036C506.502 213.427 498.573 212.21 489.078 210.969C490.356 208.399 490.915 207.381 492.822 205.242Z" fill="#575863"/>
<path d="M224.575 356.745L244.698 356.65C243.815 358.796 242.859 360.861 241.979 363.048C241.643 364.127 241.613 364.524 240.884 365.342C237.83 366.895 228.303 365.888 224.37 365.627C224.285 362.247 224.225 360.101 224.575 356.745Z" fill="#444753"/>
<path d="M302.66 206.55C306.35 205.883 307.879 209.461 309.89 212.248C305.582 213.067 300.146 213.417 295.288 214.29C293.144 214.7 290.667 214.992 288.482 215.303L287.449 209.476C291.983 208.853 298.061 207.477 302.66 206.55Z" fill="#575863"/>
<path d="M332.736 152.504C333.239 157.008 321.122 173.275 318.993 178.667C316.781 183.693 315.17 188.63 314.191 194.039C313.78 196.312 313.558 199.007 312.965 201.175C312.762 200.607 312.622 200.085 312.519 199.487C309.605 182.553 323.356 165.786 332.736 152.504Z" fill="#444753"/>
<path d="M442.988 85.1865C442.776 85.0477 452.199 100.782 453.47 102.712C459.153 111.355 470.071 117.936 475.503 125.586C474.229 125.185 473.989 124.84 472.899 124.15C459.161 115.469 446.154 101.834 442.988 85.1865Z" fill="#444753"/>
<path d="M324.299 267.971L325.637 267.981C326.561 269.246 326.173 272.561 326.119 274.251C322.319 274.992 317.117 276.121 313.599 277.598C312.741 277.942 313.181 277.88 312.226 277.735C311.852 276.053 313.17 270.295 313.57 268.214C317.335 268.23 320.549 268.213 324.299 267.971Z" fill="#575863"/>
<path d="M276.152 268.385L282.57 269.194C281.484 272.7 280.391 277.753 279.459 281.417L279.103 280.652C277.211 281.051 275.512 282.011 273.779 282.88C273.11 279.944 272.715 279.221 271.238 276.575C272.746 273.342 274.135 271.345 276.152 268.385Z" fill="#575863"/>
<path d="M480.137 267.748C484.495 268.043 488.27 268.23 492.632 268.267L494.493 278.149C489.883 276.415 485.132 275.088 480.29 274.183L480.137 267.748Z" fill="#575863"/>
<path d="M361.848 109.691C361.821 110.429 360.271 114.645 359.94 115.809C356.517 127.869 353.867 137.788 346.172 147.892C346.204 147.157 348.699 140.769 349.103 139.654C352.223 131.044 355.697 116.621 361.848 109.691Z" fill="#CE7154"/>
<path d="M355.684 313.453C361.184 313.497 358.79 315.413 361.629 316.125C364.635 319.645 366.335 324.276 368.709 327.997C369.186 329.419 369.648 331.187 370.566 332.328L371.444 332.629C372.575 335.101 373.779 344.26 374.123 347.058C370.416 335.511 363.752 322.56 355.684 313.453Z" fill="#6D5B54"/>
<path d="M479.367 246.744C482.415 247.728 488.885 248.884 492.299 249.608L492.567 254.815C488.673 254.318 483.898 254.306 479.906 254.198C479.701 251.716 479.521 249.23 479.367 246.744Z" fill="#575863"/>
<path d="M326.425 247.039L326.878 247.277C327.147 248.851 326.547 252.498 326.329 254.255C322.496 254.313 318.506 254.294 314.715 254.768L314.035 254.402C314.034 252.668 314.234 251.146 314.427 249.428L326.425 247.039Z" fill="#575863"/>
<path d="M499.167 165.035C500.138 165.773 500.582 167.724 500.901 168.892C503.505 178.5 500.614 188.232 495.513 196.364L494.667 197.009L494.23 196.84C494.518 194.814 496.492 191.604 497.196 188.883C499.438 180.193 499.068 173.898 499.167 165.035Z" fill="#444753"/>
<path d="M307.33 161.461L307.739 161.859C307.835 163.2 306.64 164.793 306.143 166.467C305.067 170.093 304.251 173.664 303.947 177.441C303.715 180.377 303.828 183.331 304.284 186.241C304.611 188.272 305.761 192.525 305.557 194.264L305.016 194.393C299.647 184.463 300.051 170.352 307.33 161.461Z" fill="#444753"/>
<path d="M235.129 326.807C240.358 326.824 252.501 326.403 257.071 326.948C257.587 327.777 257.258 328.113 256.981 329.331C254.374 329.645 238.28 329.649 235.729 329.341C234.993 328.436 235.211 328.154 235.129 326.807Z" fill="#B0B3B8"/>
<path d="M331.795 106.861C331.884 107.22 331.878 107.715 331.771 108.05C329.06 116.548 321.171 127.942 313.867 132.599C313.888 131.63 316.917 128.2 317.774 127.086C322.816 120.538 327.236 113.723 331.795 106.861Z" fill="#444753"/>
<path d="M439.148 298.883C440.477 297.646 442.357 296.416 443.875 295.354C442.947 299.277 442.153 302.728 440.481 306.408C439.458 307.019 438.078 307.979 436.969 308.195C437.154 305.328 438.345 301.706 439.148 298.883Z" fill="#3B6450"/>
<path d="M316.12 326.934C316.584 326.871 317.639 326.889 318.158 326.885C319.303 327.555 318.971 327.163 319.552 328.306L319.183 329.15C317.063 330.826 314.697 330.538 311.994 330.61C310.47 330.715 308.445 331.187 307.543 329.858C308.16 326.494 313.185 327.11 316.12 326.934Z" fill="#575863"/>
<path d="M362.828 295.645C363.862 296.241 365.223 296.978 366.205 297.602C366.805 299.891 368.268 305.052 368.578 307.275C367.702 307.314 366.403 306.338 365.576 305.829C364.264 302.313 363.324 299.423 362.828 295.645Z" fill="#3B6450"/>
<path d="M399.518 399.348C400.147 399.737 399.931 399.462 400.116 400.24C397.465 404.404 396.509 407.267 395.254 411.962L394.334 411.266C394.102 410.436 394.185 410.067 394.409 409.229C395.443 405.423 396.037 401.589 399.518 399.348Z" fill="#B0B3B8"/>
<path d="M264.439 283.492C266.583 284.652 267.733 284.958 266.271 287.794C265.685 288.931 265.017 290.052 264.374 291.161C263.983 291.806 264.186 291.749 263.676 291.979C263.421 290.296 264.185 285.464 264.439 283.492Z" fill="#487493"/>
<path d="M314.621 203.959C315.919 204.763 318.764 209.473 319.642 210.919C318.353 211.131 318.103 211.245 316.862 210.976C314.835 209.324 314.952 206.627 314.621 203.959Z" fill="#575863"/>
<path d="M399.254 404.881L399.746 405.455C400.001 407.531 400.414 409.639 399.392 411.542L397.901 411.632L397.256 411.039C397.138 409.883 398.762 406.218 399.254 404.881Z" fill="#3B6450"/>
<path d="M365.574 305.83C366.401 306.339 367.701 307.315 368.577 307.276L368.885 307.242C369.015 308.522 369.077 309.276 369.411 310.547C368.696 310.117 367.582 309.996 366.731 309.839C366.18 308.617 365.894 307.149 365.574 305.83Z" fill="#1C443A"/>
<path d="M512.529 348.734C512.749 349.949 512.793 350.961 513.508 351.93L512.785 357.74C512.47 354.626 512.517 351.857 512.529 348.734Z" fill="#827C75"/>
<path d="M293.164 353.813C293.631 353.684 293.78 353.46 294.196 353.111C294.186 354.324 294.33 355.607 293.761 356.612C293.25 355.409 293.283 355.144 293.164 353.813Z" fill="#827C75"/>
<path d="M432.887 342.427L433.827 342.285C433.438 343.714 433.198 344.42 432.639 345.794C432.281 345.213 432.753 343.317 432.887 342.427Z" fill="#575863"/>
<path d="M526.658 298.334L527.311 297.75C527.378 298.95 527.618 300.175 527.039 301.143C526.611 299.878 526.619 299.676 526.658 298.334Z" fill="#444753"/>
<path d="M444.508 241.118C443.234 241.327 442.891 241.435 441.645 241.158C442.478 240.478 443.194 240.6 444.421 240.434L444.508 241.118Z" fill="#444753"/>
</svg>
