<svg width="959" height="592" viewBox="0 0 959 592" fill="none" xmlns="http://www.w3.org/2000/svg">
<path d="M359.077 205.318C349.24 146.192 376.051 84.0039 438.35 67.9129C453.697 63.949 465.834 64.8872 480.539 70.579C504.74 57.8026 541.47 71.5355 560.757 87.751C563.172 89.7842 565.549 91.9513 567.852 94.1147C571.797 98.5064 576.042 103.202 579.276 108.15C582.693 112.879 588.665 122.628 591.01 128.153C601.006 150.462 604.25 173.034 601.357 197.343C600.871 201.418 600.318 207.116 599.036 210.838C600.871 212.63 603.089 213.648 605.003 215.297C610.343 219.893 612.412 227.654 612.646 234.448C613.156 245.42 610.713 254.413 604.357 263.386C603.697 264.356 602.897 265.371 602.551 266.472C604.619 270.392 606.978 274.982 608.116 279.289C607.315 279.58 606.52 279.919 605.687 280.039L604.755 280.45C605.064 286.949 605.34 290.986 603.716 297.382C602.916 300.397 601.488 304.474 599.724 307.066L598.676 307.745C598.638 309.002 599.406 309.496 599.991 310.506C600.005 310.53 599.944 311.474 600.009 311.792C600.042 315.104 604.526 321.645 604.849 327.325C605.434 337.715 602.036 340.373 598.226 348.505C601.755 357.398 603.674 364.8 600.061 374.524C599.116 377.068 595.844 380.307 595.69 381.724C639.641 403.201 654.852 399.481 672.501 450.741C673.998 455.104 675.398 459.5 676.704 463.925C678.894 471.336 681.978 481.05 683.504 488.447L684.379 490.736C688.661 507.093 692.354 523.596 695.452 540.22C696.36 544.949 698.045 551.985 698.588 556.503C694.558 556.54 689.916 556.695 685.938 556.564C665.312 557.06 642.159 556.774 621.426 556.601C563.069 557.678 504.206 555.936 445.8 556.704C431.323 556.891 416.249 556.957 401.806 556.587C395.332 556.919 386.258 556.634 379.591 556.62L355.941 556.629L350.515 556.564C340.936 556.727 329.348 556.901 319.82 556.578C311.375 556.966 298.761 556.737 290.304 556.568C286.586 556.732 264.946 557.13 263.106 555.95C262.526 554.354 262.871 553.235 263.131 551.536C265.501 541.681 266.887 530.548 269.467 520.558C270.41 516.915 270.994 512.604 272.225 509.064C272.518 505.539 274.842 497.674 275.815 493.915C280.485 475.877 285.28 457.928 292.192 440.646C303.862 411.463 313.376 404.898 340.311 392.999C340.337 391.641 340.431 389.551 341.128 388.412C344.288 383.256 355.993 380.268 361.798 378.304C361.928 377.273 359.835 373.556 359.509 372.011C357.658 363.25 359.616 356.739 362.234 348.826C352.204 335.343 352.842 327.849 360.628 313.325C362.718 310.238 359.604 303.214 356.83 301.445C355.539 298.866 354.877 295.22 354.485 292.381C354.276 288.319 354.632 282.669 354.808 278.511L354.321 278.366C353.847 277.691 352.921 277.258 352.181 276.817C353.586 274.156 355.846 268.664 356.932 265.793C354.613 262.429 351.963 258.819 350.686 254.938C347.086 247.376 345.962 237.075 347.638 228.852C349.355 220.425 353.489 216.109 360.328 211.724C359.717 209.68 359.417 207.434 359.077 205.318ZM405.996 364.834C410.401 362.639 416.617 359.064 421.183 362.222L423.026 365.071C425.257 364.074 430.245 361.931 431.815 360.118C432.642 359.163 432.374 359.281 433.904 358.726C435.001 357.457 435.977 353.851 436.509 352.147C437.766 347.026 437.115 342.278 436.784 337.043L436.778 336.706C436.761 335.994 436.706 333.631 436.321 333.237C431.566 328.375 426.579 326.295 421.235 321.183C418.475 318.985 414.278 313.922 411.491 312.33C410.918 316.744 410.79 319.056 408.951 323.104C408.262 324.622 403.957 331.306 404.005 331.527C405.473 338.351 408.59 342.601 407.789 350.444C407.327 354.956 402.67 360.099 403.94 363.634C404.636 364.212 405.144 364.819 405.996 364.834ZM536.78 322.692C532.203 326.298 528.871 328.671 524.181 331.993L523.503 332.375C522.805 340.998 522.08 345.785 524.481 354.432C525.056 355.525 525.726 357.152 526.709 357.765C527.509 358.294 528.192 358.71 528.436 359.622C529.039 361.903 533.677 362.472 534.983 363.973L536.883 364.501C538.465 364.027 538.325 363.458 539.382 361.64C546.534 359.354 549.258 362.06 555.59 364.329C558.571 360.068 554.415 356.966 553.086 352.289C550.826 344.335 553.156 337.941 556.741 330.898C550.741 323.959 549.599 320.772 548.209 312.044C546.061 313.39 539.387 320.4 536.78 322.692Z" fill="#363C5D"/>
<path d="M359.075 205.318C349.238 146.192 376.049 84.0039 438.348 67.9129C453.695 63.949 465.833 64.8872 480.537 70.579C504.738 57.8026 541.468 71.5355 560.755 87.751C563.17 89.7842 565.548 91.9513 567.85 94.1147C571.796 98.5064 576.041 103.202 579.275 108.15C582.691 112.879 588.663 122.628 591.008 128.153C601.005 150.462 604.248 173.034 601.356 197.343C600.869 201.418 600.317 207.116 599.034 210.838C600.869 212.63 603.087 213.648 605.001 215.297C610.342 219.893 612.41 227.654 612.644 234.448C613.154 245.42 610.711 254.413 604.356 263.386C603.696 264.356 602.895 265.371 602.549 266.472C601.037 268.592 593.924 275.54 593.455 276.459C582.12 284.012 579.925 284.763 566.339 283.565C563.268 289.821 553.646 308.884 548.208 312.044C546.059 313.39 539.385 320.4 536.779 322.692C532.201 326.298 528.869 328.671 524.18 331.993L523.501 332.375C522.691 333.061 522.017 333.576 521.329 334.401C519.429 334.854 517.136 336.232 515.357 337.19L513.869 335.53L506.428 338.928L507.892 340.966C504.322 342.515 502.108 343.256 498.378 344.383C497.184 343.688 495.116 343.736 493.641 343.637C482.152 345.044 480.429 346.787 467.742 343.454L465.078 344.97C452.292 341.293 449.804 339.979 438.496 333.643L438.943 339.042C437.639 336.963 438.401 337.118 437.715 335.508L436.782 337.043L436.776 336.706C436.759 335.994 436.704 333.631 436.319 333.237C431.564 328.375 426.577 326.295 421.233 321.183C418.473 318.985 414.276 313.922 411.489 312.33C404.325 306.5 397.181 291.869 393.224 283.728C384.242 284.667 380.745 284.323 372.649 280.639C372.048 280.069 370.401 279.044 369.626 278.475C365.975 275.796 362.88 272.907 359.748 269.653C357.448 268.312 357.358 268.252 356.93 265.793C354.611 262.429 351.961 258.819 350.684 254.938C347.084 247.377 345.96 237.075 347.636 228.852C349.353 220.425 353.487 216.109 360.327 211.724C359.715 209.68 359.415 207.434 359.075 205.318Z" fill="#F6957A"/>
<path d="M359.077 205.318C349.24 146.192 376.051 84.0039 438.35 67.9129C453.697 63.949 465.835 64.8872 480.539 70.579C504.74 57.8026 541.47 71.5355 560.757 87.751C563.172 89.7842 565.549 91.9513 567.852 94.1147C571.798 98.5064 576.042 103.202 579.276 108.15C582.693 112.879 588.665 122.628 591.01 128.153C601.006 150.462 604.25 173.034 601.358 197.343C600.871 201.418 600.318 207.116 599.036 210.838L598.395 210.789L597.585 210.162C593.724 208.852 585.393 207.311 583.273 212.041L583.17 210.677L582.113 209.886C579.964 210.753 579.585 220.941 579.216 223.524C578.574 227.867 577.446 232.124 575.855 236.216C575.743 233.769 575.476 221.101 575.069 219.674C574.231 221.438 574.432 220.915 572.036 221.794C571.315 215.908 570.44 210.042 569.415 204.202L568.994 203.875C566.837 202.226 564.492 196.279 562.507 193.541C560.083 190.194 556.774 185.965 553.418 183.527C525.403 163.181 500.317 163.623 479.813 131.864C464.101 162.1 430.965 163.859 405.888 182.189C397.636 188.22 394.838 199.133 391.151 201.446C388.841 213.07 387.664 224.071 387.687 235.912C387.691 238.066 387.731 244.57 386.474 246.098L385.117 246.244C383.676 244.996 382.959 241.713 382.238 239.862C378.634 230.617 377.566 222.613 376.592 212.77L376.956 211.123C376.439 210.861 375.913 210.618 375.378 210.395C371.391 208.752 366.43 208.536 362.401 210.221L360.328 211.724C359.717 209.68 359.417 207.434 359.077 205.318Z" fill="#1F222F"/>
<path d="M391.148 201.446C396.019 185.461 402.742 175.725 418.079 168.132C444 155.299 465.222 150.972 479.53 123.034C488.423 138.565 500.643 148.972 516.724 156.728C542.001 168.919 562.664 173.225 569.413 204.202L568.992 203.875C566.834 202.226 564.49 196.278 562.505 193.541C560.081 190.194 556.772 185.965 553.416 183.527C525.401 163.181 500.315 163.623 479.811 131.864C464.099 162.099 430.963 163.858 405.885 182.188C397.633 188.219 394.835 199.133 391.148 201.446Z" fill="#D37461"/>
<path d="M384.334 236.793C386.954 216.465 384.744 193.716 400.486 177.478C421.94 155.349 458.769 155.858 474.537 125.879C475.767 123.537 477.139 118.684 479.469 117.638C480.78 118.357 485.877 127.705 488.011 130.513C491.357 134.862 495.181 138.825 499.402 142.33C525.251 163.664 560.399 161.415 570.822 197.924C572.802 204.85 573.92 212.549 575.067 219.674C574.229 221.438 574.43 220.915 572.034 221.794C571.313 215.908 570.438 210.042 569.413 204.202C562.664 173.225 542.001 168.919 516.724 156.728C500.643 148.973 488.423 138.565 479.53 123.034C465.223 150.973 444 155.299 418.079 168.132C402.742 175.725 396.019 185.461 391.148 201.446C388.839 213.07 387.662 224.071 387.685 235.912C387.689 238.066 387.729 244.57 386.472 246.098L385.114 246.244C383.674 244.996 382.957 241.713 382.236 239.862C378.631 230.617 377.564 222.613 376.59 212.77L376.953 211.123C377.832 211.439 378.893 211.569 379.093 212.558C380.807 221.031 381.423 228.492 384.334 236.793Z" fill="#020102"/>
<path d="M359.077 205.318C349.24 146.192 376.051 84.0039 438.35 67.9129C453.697 63.949 465.835 64.8872 480.539 70.579C504.74 57.8026 541.47 71.5355 560.757 87.751C563.172 89.7842 565.549 91.9513 567.852 94.1146L567.099 97.5608C546.665 76.5204 508.25 59.0703 480.029 74.3069C437.269 52.4482 381.861 94.566 368.315 134.866C360.82 157.166 356.887 182.429 361.973 205.612L359.077 205.318Z" fill="#0C0C19"/>
<path d="M587.426 127.689C588.61 127.858 589.822 128.051 591.006 128.153C601.003 150.462 604.246 173.034 601.354 197.343C600.867 201.418 600.315 207.116 599.033 210.838L598.391 210.789L597.582 210.162C598.036 202.605 599.739 194.521 600.006 186.267C600.685 165.078 596.51 146.717 587.426 127.689Z" fill="#0C0C19"/>
<path d="M575.453 107.892C577.709 107.372 576.941 107.464 579.277 108.15C582.693 112.879 588.665 122.628 591.01 128.153C589.826 128.051 588.614 127.858 587.43 127.689C584.051 120.777 580.194 113.948 575.453 107.892Z" fill="#080712"/>
<path d="M567.851 94.1143C571.797 98.506 576.041 103.201 579.275 108.15C576.94 107.463 577.708 107.372 575.452 107.891C572.751 104.38 569.962 100.936 567.098 97.5604L567.851 94.1143Z" fill="#020102"/>
<path d="M359.074 205.318L361.97 205.611L362.399 210.221L360.326 211.723C359.714 209.679 359.414 207.434 359.074 205.318Z" fill="#020102"/>
<path d="M507.289 101.796C521.98 100.745 553.127 122.822 562.099 134.513C571.328 146.538 579.34 159.691 582.78 174.667C583.421 177.469 585.205 181.124 584.924 183.923C584.208 182.616 583.253 179.92 582.762 178.492C570.762 143.513 542.404 115.504 508.047 102.408C507.364 102.148 507.701 102.518 507.289 101.796Z" fill="#413F48"/>
<path d="M443.092 82.1879C443.425 82.1701 443.92 82.3284 444.279 82.4126C404.842 93.7111 387.86 118.704 372.504 154.781L371.896 155.586L371.676 155.021C373.237 142.906 382.86 122.541 390.443 112.952C405.466 93.9574 419.702 85.5774 443.092 82.1879Z" fill="#413F48"/>
<path d="M516.195 82.105C526.356 83.7716 533.194 85.0366 542.311 89.8567C563.905 101.276 578.208 122.105 585.743 144.917C586.782 148.063 588.846 153.907 588.659 157.181C587.811 155.562 587.002 153.182 586.384 151.434C578.507 129.294 563.016 109.373 544.066 95.5944C535.599 89.4354 526.22 85.9172 516.429 82.6396L516.195 82.105Z" fill="#413F48"/>
<path d="M448.507 102.172C450.018 102.112 449.759 101.876 450.668 102.597L449.956 102.182L451.326 102.415C449.818 102.846 448.643 103.251 447.218 103.921C410.032 121.408 389.955 143.001 375.546 180.609C375.271 181.292 375.094 181.658 374.748 182.31C374.376 181.051 375.822 177.36 376.26 175.919C379.471 164.861 383.746 154.865 389.868 145.118C401.447 126.68 426.825 106.492 448.507 102.172Z" fill="#413F48"/>
<path d="M494.188 121.207C494.492 121.408 494.627 121.442 494.81 121.715C512.164 147.51 548.393 147.016 565.153 173.159C566.73 175.616 568.223 177.578 569.201 180.376C568.265 179.646 565.518 176.11 564.774 175.06C551.243 155.916 526.308 153.475 508.846 139.304C504.624 135.875 494.861 126.658 494.188 121.207Z" fill="#413F48"/>
<path d="M464.08 121.223C464.127 122.934 462.218 126.294 461.263 127.678C447.534 147.564 423.525 151.211 404.95 164.14C399.954 167.617 394.665 174.975 391.298 179.889L391.062 179.083C391.65 176.997 394.252 173.283 395.577 171.399C414.386 144.647 443.466 150.449 464.08 121.223Z" fill="#413F48"/>
<path d="M477.667 79.2324C478.387 79.4815 479.478 79.7427 479.712 80.5456C481.818 87.6461 481.958 111.075 480.433 116.815C479.52 116.888 479.782 116.838 478.818 116.183C477.372 112.961 477.372 84.3063 477.667 79.2324Z" fill="#0C0C19"/>
<path d="M451.528 88.0798C458.844 87.6641 463.893 89.0667 470.279 92.4491C467.964 92.7937 465.781 92.9627 463.455 93.1528C459.905 93.2511 456.354 93.3162 452.803 93.3475C450.463 93.3517 446.683 93.3485 445 91.6767L445.454 90.7418C447.407 89.327 449.262 88.8382 451.528 88.0798Z" fill="#363440"/>
<path d="M501.491 91.407C509.569 90.6612 511.862 91.6555 518.452 95.6911C511.848 95.309 508.422 94.7131 501.608 95.1784C498.093 95.6419 490.048 98.3638 488.152 97.5272L488.433 96.7112C492.547 93.0301 496.235 92.3381 501.491 91.407Z" fill="#0C0C19"/>
<path d="M488.066 108.298L488.619 108.252C495.826 107.674 513.929 112.534 514.523 121.096C511.907 120.148 505.477 115.292 501.353 113.634C496.346 111.619 493.954 111.489 488.984 110.01C488.277 109.799 488.286 109.105 488.066 108.298Z" fill="#0C0C19"/>
<path d="M469.418 107.192C470.214 107.241 469.881 107.109 470.415 107.653C469.184 109.566 450.974 121.939 447.623 124.365C446.948 124.547 447.252 124.472 446.422 124.228C447.199 118.744 464.181 108.989 469.418 107.192Z" fill="#0C0C19"/>
<path d="M453.354 74.0723C456.822 74.0316 469.468 76.2731 470.296 79.9027L468.742 80.0348C464.887 78.8831 451.434 76.4829 450.285 75.2291C451.324 74.107 451.59 74.379 453.354 74.0723Z" fill="#0C0C19"/>
<path d="M502.666 78.3504C503.953 78.1379 506.092 78.1327 507.29 78.7507C506.738 79.767 499.011 80.966 496.605 82.1186C493.418 83.6434 493.31 83.5217 490.188 85.7543C488.752 86.825 489.281 86.7557 487.764 86.7894L487.324 86.0965C488.733 80.8167 498.14 78.8953 502.666 78.3504Z" fill="#0C0C19"/>
<path d="M566.902 280.804C583.98 283.962 593.71 274.197 603.093 261.491L604.357 263.386C603.697 264.355 602.897 265.371 602.551 266.471C601.039 268.592 593.925 275.54 593.457 276.459C582.122 284.012 579.927 284.762 566.34 283.564C563.27 289.821 553.647 308.884 548.209 312.044C546.061 313.39 539.387 320.4 536.78 322.692L534.992 321.192C544.694 313.158 552.796 303.365 558.87 292.327C563.396 284.278 565.853 276.955 568.582 268.232C568.877 267.289 569.391 266.466 570.173 265.855L570.622 266.375C570.908 269.645 568.053 277.321 566.902 280.804Z" fill="#96413E"/>
<path d="M351.956 253.173C360.119 269.179 372.821 283.834 392.658 281.051C391.603 277.754 388.459 269.226 389.102 266.324C391.458 267.617 394.561 279.547 396.122 283.382L393.224 283.728C384.241 284.666 380.745 284.323 372.649 280.638C372.047 280.069 370.4 279.043 369.625 278.474C365.975 275.796 362.88 272.907 359.748 269.652C357.448 268.312 357.358 268.251 356.93 265.793C354.611 262.428 351.96 258.818 350.684 254.938L351.956 253.173Z" fill="#96413E"/>
<path d="M575.854 236.215C577.445 232.124 578.573 227.867 579.215 223.524C579.584 220.941 579.963 210.752 582.112 209.886L583.169 210.677L583.272 212.041L583.239 213.074C582.987 227.372 579.598 232.722 575.592 246.023C574.254 246.622 574.928 246.588 573.5 246.049C571.562 242.902 572.311 226.932 572.035 221.794C574.431 220.915 574.23 221.438 575.068 219.674C575.475 221.101 575.742 233.769 575.854 236.215Z" fill="#12060E"/>
<path d="M362.399 210.221C366.428 208.536 371.39 208.752 375.377 210.395C375.911 210.618 376.438 210.861 376.954 211.123L376.59 212.77C371.265 212.187 367.45 211.223 362.331 213.226C346.746 219.326 345.933 239.945 351.956 253.173L350.684 254.938C347.084 247.377 345.96 237.075 347.636 228.852C349.353 220.425 353.487 216.109 360.327 211.724L362.399 210.221Z" fill="#96413E"/>
<path d="M393.227 283.728L396.125 283.382C403.676 299.022 410.298 308.852 423.659 320.481C422.94 320.455 422.485 320.486 421.785 320.314L421.853 320.811L421.236 321.183C418.475 318.985 414.278 313.922 411.491 312.33C404.327 306.499 397.183 291.869 393.227 283.728Z" fill="#96413E"/>
<path d="M599.036 210.838C600.87 212.63 603.089 213.648 605.003 215.297C610.343 219.893 612.412 227.654 612.646 234.448C613.156 245.42 610.713 254.413 604.357 263.386L603.093 261.491C612.683 246.243 616.909 225.994 599.855 214.028L598.395 210.789L599.036 210.838Z" fill="#79393B"/>
<path d="M437.117 330.18C444.728 334.77 458.901 341.533 467.744 343.454L465.08 344.97C452.294 341.293 449.806 339.979 438.498 333.643C437.998 332.627 437.53 331.263 437.117 330.18Z" fill="#96413E"/>
<path d="M421.234 321.183L421.852 320.811L421.783 320.314C422.484 320.486 422.939 320.455 423.658 320.482C427.624 323.572 432.934 327.343 437.116 330.18C437.528 331.263 437.997 332.627 438.497 333.643L438.944 339.042C437.64 336.963 438.402 337.118 437.716 335.508L436.783 337.043L436.777 336.706C436.76 335.994 436.705 333.631 436.32 333.237C431.565 328.375 426.578 326.295 421.234 321.183Z" fill="#79393B"/>
<path d="M583.271 212.041C585.391 207.31 593.722 208.852 597.583 210.162L598.393 210.789L599.853 214.028C593.745 210.857 589.435 211.159 583.238 213.074L583.271 212.041Z" fill="#96413E"/>
<path d="M523.734 329.541C527.596 326.909 531.354 324.124 534.99 321.192L536.778 322.692C532.201 326.298 528.869 328.671 524.179 331.993L523.734 329.541Z" fill="#79393B"/>
<path d="M493.641 343.636C497.413 342.609 502.814 340.433 506.427 338.928L507.892 340.966C504.321 342.515 502.107 343.256 498.377 344.383C497.184 343.688 495.115 343.736 493.641 343.636Z" fill="#96413E"/>
<path d="M523.733 329.541L524.178 331.993L523.499 332.374C522.689 333.061 522.015 333.576 521.327 334.4C519.427 334.854 517.134 336.232 515.356 337.19L513.867 335.53C517.611 333.472 520.284 332.03 523.733 329.541Z" fill="#96413E"/>
<path d="M415.919 248.254C437.431 246.698 448.491 268.598 422.31 274.327C396.419 275.304 391.567 253.323 415.919 248.254Z" fill="#D37461"/>
<path d="M536.857 248.671C562.097 246.876 567.779 270.265 543.947 274.252C533.356 274.789 524.408 273.077 521.234 261.833C523.266 253.153 528.456 250.474 536.857 248.671Z" fill="#D37461"/>
<path d="M519.183 185.573C532.016 185.171 546.483 188.493 552.202 201.25C548.037 200.041 545.186 199 541.143 197.398C532.835 194.281 525.572 194.384 516.979 195.362C514.597 195.633 507.577 196.552 507.048 193.15C506.14 187.333 515.238 186.123 519.183 185.573Z" fill="#0C0C19"/>
<path d="M412.637 194.517C419.156 187.998 428.853 185.744 437.839 185.532C442.571 185.421 452.854 186.674 453.398 192.96C451.946 196.554 445.923 195.737 442.724 195.319C433.76 194.149 424.586 194.756 416.164 198.266C413.291 199.708 411.679 200.094 408.629 200.939C409.833 197.687 410.01 196.747 412.637 194.517Z" fill="#0C0C19"/>
<path d="M412.637 194.517C412.995 195.646 413.278 196.688 413.577 197.833C414.476 198.046 415.557 198.103 416.164 198.266C413.291 199.708 411.679 200.094 408.629 200.938C409.833 197.687 410.01 196.747 412.637 194.517Z" fill="#020102"/>
<path d="M523.079 211.228C534.218 211.307 534.615 227.706 525.667 230.843C513.999 229.719 514.514 213.956 523.079 211.228Z" fill="#581D1B"/>
<path d="M432.95 211.587C444.092 210.729 445.867 225.178 437.137 230.458C426.058 231.496 424.79 216.998 432.95 211.587Z" fill="#581D1B"/>
<path d="M471.205 211.819C471.935 212.171 473.161 212.493 473.091 213.5C472.169 227.202 466.381 245.705 471.205 259.016C478.408 264.566 484.684 262.48 491.718 258.437L492.514 258.661L492.593 260.049C492.359 260.246 492.116 260.438 491.873 260.624C483.149 267.354 467.878 266.235 467.355 253.274C466.836 240.452 469.164 224.619 471.205 211.819Z" fill="#96413E"/>
<path d="M360.359 229.654C372.196 230.73 379.117 243.203 381.31 253.745C381.674 255.497 382.128 260.235 381.043 261.731C379.517 260.236 379.002 252.686 377.28 248.612C376.765 247.345 376.806 247.402 375.828 246.448C364.363 244.471 370.435 250.55 364.843 252.221C364.28 250.612 366.839 246.31 367.701 244.919C370.177 244.451 373.039 244.438 375.583 244.344C371.919 237.079 368.457 234.944 361.246 232.097C360.41 231.767 360.496 230.548 360.359 229.654Z" fill="#96413E"/>
<path d="M597.716 229.873C598.469 229.883 598.638 230.136 599.26 230.601C598.867 232.4 595.24 232.886 593.311 233.933C588.669 236.456 586.394 240.117 583.956 244.495L590.714 244.384C592.867 246.163 595.151 247.792 594.14 250.904L593.419 251.213C591.51 250.012 591.828 247.377 590.546 246.695C588.809 245.771 583.371 246.12 582.215 247.874C581.532 250.075 580.881 251.691 580.6 254.031C580.329 256.289 580.666 260.711 579.032 262.04L578.822 261.879L579.659 261.777L578.663 261.671C576.556 257.408 579.893 247.077 582.051 243.147C586.081 235.805 589.731 232.27 597.716 229.873Z" fill="#96413E"/>
<path d="M456.233 290.556C453.585 289.428 444.628 285.958 444.787 282.712L445.716 281.949C447.852 282.575 451.768 285.548 453.969 286.647C456.015 287.667 458.065 288.378 460.205 289.16C463.594 290.389 465.833 291.008 469.32 291.884L468.707 292.471C469.376 293.632 469.516 293.675 470.607 294.509C464.78 293.834 461.65 292.744 456.233 290.556Z" fill="#9C130D"/>
<path d="M579.151 268.128C581.618 267.856 583.878 269.514 584.36 271.946C584.842 274.377 583.387 276.775 581.009 277.466C579.273 277.97 577.406 277.453 576.175 276.13C574.949 274.807 574.569 272.904 575.197 271.211C575.828 269.518 577.359 268.325 579.151 268.128Z" fill="#824753"/>
<path d="M378.438 268.603C380.752 267.592 383.451 268.581 384.565 270.848C385.679 273.114 384.814 275.856 382.6 277.072C381.077 277.909 379.218 277.841 377.759 276.895C376.301 275.95 375.479 274.279 375.621 272.546C375.764 270.813 376.846 269.299 378.438 268.603Z" fill="#824753"/>
<path d="M511.028 282.543L513.125 284.142C508.678 288.204 497.905 293.633 492.087 293.907C490.65 291.818 488.516 292.708 486.218 292.493L485.914 292.462C495.546 289.75 502.44 289.696 511.028 282.543Z" fill="#9C130D"/>
<path d="M469.32 291.884C475.727 292.908 479.401 292.831 485.916 292.462L486.22 292.492C488.518 292.707 490.652 291.817 492.089 293.907C485.729 295.371 477.164 295.094 470.607 294.509C469.517 293.675 469.376 293.631 468.707 292.47L469.32 291.884Z" fill="#89251F"/>
<path d="M470.039 304.764C471.247 305.024 473.151 305.853 474.701 306.232C478.51 307.166 483.373 306.155 487.183 305.422C489.466 304.983 488.816 304.78 490.459 305.814C485.905 308.88 476.479 308.967 471.438 306.83C470.259 306.33 470.381 305.898 470.039 304.764Z" fill="#89251F"/>
<path d="M511.027 282.543C512.553 281.622 513.995 280.504 515.745 280.62L516.227 281.192C515.595 282.722 514.537 283.196 513.124 284.142L511.027 282.543Z" fill="#89251F"/>
<path d="M356.932 265.793C357.36 268.251 357.45 268.312 359.75 269.652C362.882 272.907 365.977 275.796 369.627 278.474C370.402 279.043 372.049 280.069 372.651 280.638C380.747 284.323 384.244 284.666 393.226 283.728C397.183 291.869 404.327 306.499 411.491 312.33C410.918 316.743 410.79 319.056 408.951 323.104C408.262 324.622 403.957 331.305 404.005 331.527C405.473 338.351 408.59 342.601 407.789 350.444C407.327 354.956 402.67 360.099 403.94 363.633C404.636 364.211 405.144 364.818 405.996 364.833C406.22 365.357 407.081 367.463 407.319 367.813C410.377 374.377 411.405 378.929 409.871 386.351C410.653 389.006 411.399 391.545 412.069 394.236C411.716 394.688 410.697 396.049 410.358 396.39C414.054 402.756 414.849 405.844 414.827 413.362C414.49 417.653 413.804 420.225 412.239 424.243C419.782 431.764 421.463 437.829 419.967 448.537C418.569 454.297 417.663 457.012 414.974 462.283C416.088 465.763 416.262 466.979 415.594 470.567C424.835 481.944 432.431 497.018 426.011 511.821C425.639 512.776 424.879 514.574 424.696 515.506C422.79 521.592 419.561 528.263 419.965 534.728C420.116 537.153 424.24 544.752 423.335 546.025C412.861 548.806 399.438 532.884 394.398 525.192C392.245 520.993 391.301 517.533 390.03 513.048L388.949 512.795L388.687 512.088L387.974 511.999C387.727 511.686 386.91 510.965 386.578 510.651C385.044 510.164 384.691 510.398 383.11 510.857C381.352 512.865 372.394 523.563 370.971 524.391C368.519 526.882 366.357 528.511 363.386 530.36C362.832 534.742 361.091 541.006 359.843 545.379L356.693 554.625C356.339 555.341 356.02 555.833 355.941 556.629L350.515 556.563C340.936 556.727 329.348 556.9 319.82 556.577C311.375 556.966 298.761 556.736 290.304 556.568C286.586 556.732 264.946 557.13 263.106 555.95C262.526 554.353 262.871 553.235 263.131 551.535C265.501 541.68 266.887 530.548 269.467 520.557C270.41 516.915 270.994 512.603 272.225 509.064C272.518 505.539 274.842 497.674 275.815 493.914C280.485 475.876 285.28 457.927 292.192 440.646C303.862 411.463 313.376 404.897 340.311 392.999C340.337 391.641 340.431 389.551 341.128 388.412C344.288 383.256 355.993 380.268 361.798 378.303C361.928 377.273 359.835 373.556 359.509 372.01C357.658 363.25 359.616 356.739 362.234 348.825C352.204 335.343 352.842 327.849 360.628 313.325C362.718 310.238 359.604 303.214 356.83 301.445C355.539 298.866 354.877 295.22 354.485 292.381C354.276 288.318 354.632 282.669 354.808 278.511L354.321 278.365C353.847 277.69 352.921 277.257 352.181 276.817C353.586 274.155 355.846 268.663 356.932 265.793Z" fill="#363C5D"/>
<path d="M356.931 265.793C357.359 268.251 357.449 268.312 359.748 269.652C362.88 272.907 365.975 275.796 369.626 278.474C370.401 279.043 372.048 280.069 372.649 280.638C380.746 284.323 384.242 284.666 393.225 283.728C397.181 291.869 404.325 306.499 411.49 312.33C410.917 316.743 410.789 319.056 408.95 323.104C408.26 324.622 403.956 331.305 404.004 331.527C405.471 338.351 408.589 342.601 407.787 350.444C407.325 354.956 402.669 360.099 403.938 363.633C404.635 364.211 405.142 364.818 405.994 364.833C406.219 365.357 407.08 367.463 407.318 367.813C410.375 374.377 411.404 378.929 409.869 386.351C410.652 389.006 411.397 391.545 412.068 394.236C411.715 394.688 410.695 396.049 410.356 396.39C414.053 402.756 414.847 405.844 414.826 413.362C414.488 417.653 413.803 420.225 412.238 424.243C419.781 431.764 421.461 437.829 419.965 448.537C418.568 454.297 417.662 457.012 414.973 462.283C416.087 465.763 416.261 466.979 415.592 470.567C424.833 481.944 432.43 497.018 426.009 511.821C425.638 512.776 424.878 514.574 424.694 515.506C422.789 521.592 419.56 528.263 419.964 534.728C420.115 537.153 424.238 544.752 423.333 546.025C412.86 548.806 399.436 532.884 394.396 525.192C392.243 520.993 391.299 517.533 390.029 513.048L392.213 512.538C394.529 511.714 395.245 511.246 397.349 509.921L398.002 508.905C399.533 507.589 400.809 505.394 401.939 503.661C402.457 502.107 402.876 500.544 403.313 498.966C402.395 498.465 401.163 498.006 400.176 497.604C399.544 495.244 399.611 495.132 397.481 494.149C399.553 493.638 399.491 493.676 400.102 491.775L401.836 490.249C402.957 490.6 403.802 490.843 404.871 491.33C405.602 488.615 405.5 484.495 405.423 481.653C403.715 478.432 402.692 477.749 404.517 474.402C404.978 472.07 404.849 470.858 404.743 468.475C404.509 466.339 406.052 464.429 405.776 463.703C403.919 458.823 401.702 455.671 400.408 450.441C400.095 450.001 399.313 448.48 399.007 447.924L396.219 445.857C392.609 444.299 389.478 444.114 385.81 443.05L381.942 442.93L380.176 442.301C372.515 432.144 370.824 427.349 374.088 414.661C364.004 404.887 364.386 397.4 367.219 384.605C366.019 383.304 364.674 381.596 363.522 380.208C363.042 379.415 362.469 378.964 361.797 378.303C361.927 377.273 359.834 373.556 359.507 372.01C357.657 363.25 359.615 356.739 362.233 348.825C352.203 335.343 352.841 327.849 360.626 313.325C362.716 310.238 359.603 303.214 356.829 301.445C355.538 298.866 354.875 295.22 354.484 292.381C354.275 288.318 354.631 282.669 354.806 278.511L354.319 278.365C353.845 277.69 352.92 277.257 352.18 276.817C353.585 274.155 355.845 268.663 356.931 265.793Z" fill="#0C0C19"/>
<path d="M356.931 265.793C357.359 268.251 357.449 268.312 359.748 269.652C362.88 272.907 365.975 275.796 369.626 278.474C370.401 279.043 372.048 280.069 372.649 280.638C372.766 281.637 374.002 282.877 374.636 284.169C378.012 291.043 384.712 303.198 381.709 310.912C380.043 315.194 378.306 318.068 376.712 323.103C368.123 313.601 355.67 301.954 357.17 287.857C357.424 285.475 357.27 282.98 356.982 280.617L357.375 278.997C356.679 278.626 355.626 278.601 354.806 278.511L354.319 278.365C353.845 277.69 352.92 277.257 352.18 276.817C353.585 274.155 355.845 268.663 356.931 265.793Z" fill="#1F222F"/>
<path d="M356.931 265.793C357.359 268.251 357.449 268.312 359.748 269.652C358.96 272.7 358.057 275.942 357.375 278.997C356.679 278.626 355.626 278.601 354.806 278.511L354.319 278.365C353.845 277.69 352.92 277.257 352.18 276.817C353.585 274.155 355.845 268.663 356.931 265.793Z" fill="#0C0C19"/>
<path d="M362.212 284.029C363.948 285.949 366.121 297.911 368.141 301.821C369.918 305.261 376.057 313.254 376.413 315.743C368.452 308.666 359.173 295.192 362.212 284.029Z" fill="#413F48"/>
<path d="M404.516 474.402L408.712 472.745C407.728 473.69 406.755 474.378 406.416 475.643C407.146 476.448 406.72 476.303 407.607 476.378C411.991 476.616 411.413 478.723 413.145 482.389C417.025 490.614 416.691 499.739 414.639 508.39C410.936 523.685 411.648 527.865 418.522 541.54C413.267 538.132 407.888 531.236 405.172 525.637C401.471 518.455 401.714 511.33 401.938 503.662C402.456 502.107 402.875 500.544 403.312 498.966C402.394 498.465 401.162 498.006 400.175 497.604C399.543 495.244 399.61 495.132 397.48 494.149C399.552 493.638 399.49 493.676 400.101 491.775L401.835 490.249C402.956 490.6 403.802 490.844 404.87 491.33C405.601 488.615 405.499 484.495 405.422 481.654C403.714 478.433 402.691 477.749 404.516 474.402Z" fill="#1F222F"/>
<path d="M405.422 481.653L406.187 484.467C410.706 488.732 405.018 507.355 404.811 513.549C404.728 516.044 405.814 524.153 405.172 525.637C401.471 518.455 401.714 511.33 401.938 503.661C402.456 502.107 402.875 500.543 403.312 498.966C402.394 498.465 401.162 498.006 400.175 497.603C399.543 495.244 399.61 495.132 397.48 494.148C399.552 493.638 399.49 493.676 400.101 491.775L401.835 490.249C402.956 490.6 403.802 490.843 404.87 491.33C405.601 488.615 405.499 484.495 405.422 481.653Z" fill="#413F48"/>
<path d="M401.835 490.249C402.956 490.6 403.802 490.844 404.87 491.33C403.906 493.971 403.43 496.129 403.312 498.966C402.394 498.465 401.162 498.006 400.175 497.604C399.543 495.244 399.61 495.132 397.48 494.149C399.552 493.639 399.49 493.676 400.101 491.775L401.835 490.249Z" fill="#79393B"/>
<path d="M404.517 474.402L408.712 472.745C407.729 473.69 406.755 474.378 406.416 475.643C407.146 476.448 406.72 476.303 407.607 476.378C405.967 480.352 409.445 481.513 406.187 484.467L405.423 481.654C403.715 478.433 402.691 477.749 404.517 474.402Z" fill="#171623"/>
<path d="M376.557 416.422L377.033 416.755C386.86 423.524 393.195 421.96 401.021 435.494C398.971 438.717 397.51 442.272 396.219 445.858C392.61 444.3 389.479 444.115 385.81 443.05L386.43 442.564C384.882 441 382.902 440.281 381.423 438.895C375.109 432.98 375.721 424.031 376.557 416.422Z" fill="#1F222F"/>
<path d="M379.84 425.902C380.021 425.996 396.081 439.782 396.095 439.802C390.069 441.035 381.235 431.895 379.84 425.902Z" fill="#413F48"/>
<path d="M410.425 427.085C418.167 434.725 415.636 435.83 417.157 445.295C415.665 452.858 414.178 456.383 409.927 462.86C408.512 459.827 404.12 450.556 400.409 450.442C400.096 450.001 399.314 448.481 399.008 447.924C399.442 440.788 406.394 433.488 410.425 427.085Z" fill="#1F222F"/>
<path d="M410.501 434.527C414.116 436.105 410.928 445.425 409.534 448.046C408.653 449.702 407.65 450.396 406.162 451.347C406.011 451.229 405.774 450.817 405.652 450.631C408.31 443.946 408.803 441.485 410.501 434.527Z" fill="#413F48"/>
<path d="M398.003 508.905C398.892 511.601 399.353 516.643 399.918 519.743C401.975 526.086 403.418 530.173 407.795 535.37L407.046 535.913C403.121 531.896 402.318 531.147 399.302 526.386C397.135 522.964 394.467 514.443 392.215 512.538C394.53 511.714 395.247 511.246 397.35 509.921L398.003 508.905Z" fill="#171623"/>
<path d="M398 508.905C398.888 511.601 399.349 516.643 399.914 519.743L398.903 519.864C396.277 517.959 396.062 512.734 397.347 509.921L398 508.905Z" fill="#1F222F"/>
<path d="M404.741 468.475C407.161 468.06 410.228 465.793 412.062 466.009C413.185 467.294 412.829 466.782 413.091 468.906C412.341 470.839 410.517 471.878 408.711 472.744L404.516 474.402C404.977 472.07 404.848 470.858 404.741 468.475Z" fill="#363C5D"/>
<path d="M354.808 278.511C355.628 278.601 356.681 278.626 357.377 278.998L356.984 280.617C355.895 286.043 357.388 287.104 354.486 292.381C354.277 288.319 354.633 282.669 354.808 278.511Z" fill="#020102"/>
<path d="M407.277 392.829C408.293 390.816 409.084 388.484 409.868 386.351C410.65 389.006 411.396 391.545 412.066 394.237C411.713 394.688 410.694 396.049 410.355 396.39L407.277 392.829Z" fill="#363440"/>
<path d="M407.795 535.37C409.006 536.54 410.391 537.57 410.82 539.11C409.325 539.049 407.967 537.06 407.047 535.913L407.795 535.37Z" fill="#171623"/>
<path d="M363.169 313.903C366.331 315.669 378.291 329.693 380.584 333.571C382.676 337.107 383.673 339.363 385.008 343.186C382.541 348.593 380.788 352.537 379.334 358.283L379.047 358.353C371.029 353.618 359.969 343.61 358.254 334.166C356.951 326.986 359.194 319.848 363.169 313.903Z" fill="#1F222F"/>
<path d="M364.023 325.219C365.355 326.163 366.078 328.133 366.769 329.651C369.767 336.236 374.493 341.381 378.744 347.095C379.066 347.529 379.026 348.611 379.07 349.194C378.011 349.007 377.746 348.415 376.902 347.846C371.221 344.012 364.705 332.24 364.023 325.219Z" fill="#413F48"/>
<path d="M362.965 336.815C364.291 337.808 369.139 344.312 371.343 346.046C372.577 347.016 375.883 349.645 376.488 350.736C370.782 350.528 366.852 345.97 363.256 342.02C363.008 340.288 363.009 338.564 362.965 336.815Z" fill="#413F48"/>
<path d="M374.25 333.265C377.74 335.474 381.228 341.98 381.872 346.025C379.373 344.482 374.718 336.408 374.25 333.265Z" fill="#413F48"/>
<path d="M364.14 351.22C365.581 352.251 367.74 353.67 368.862 354.936C370.886 356.403 372.654 357.692 374.58 359.308C377.417 361.064 379.642 363.752 381.88 365.795C394.018 376.876 383.484 378.156 383.585 390.597C364.869 382.041 357.227 371.92 364.14 351.22Z" fill="#1F222F"/>
<path d="M368.86 354.936C370.884 356.403 372.651 357.692 374.578 359.308C378.402 367.398 376.509 365.497 382.761 373.899C375.19 369.455 373.258 365.219 368.941 357.52C368.243 356.276 368.475 355.982 368.86 354.936Z" fill="#413F48"/>
<path d="M366.902 365.138C368.672 366.309 372.649 371.291 374.364 373.299C376.858 376.218 383.225 381.364 383.808 384.7C377.675 383.188 368.519 371.314 366.902 365.138Z" fill="#413F48"/>
<path d="M369.455 387.346C370.465 387.748 373.862 389.708 375.091 390.331C383.746 394.719 388.755 397.678 394.934 405.286C392.475 410.128 391.984 411.916 391.139 417.1C391.133 417.902 390.843 418.623 390.603 419.397C387.041 419.777 375.999 412.653 373.614 409.303C368.568 402.214 368.425 395.546 369.455 387.346Z" fill="#1F222F"/>
<path d="M374.156 394.61C375.515 395.238 390.916 409.78 391.514 410.752C384.535 410.127 375.996 400.87 374.156 394.61Z" fill="#413F48"/>
<path d="M387.523 387.076C388.63 382.578 397.195 366.14 401.81 366.761C404.849 369.163 406.016 375.649 406.607 379.322C408.052 388.297 402.15 395.274 396.888 402.125C396.03 401.175 393.939 398.976 393.282 398.046L392.393 397.262C391.366 396.49 390.671 395.875 389.723 395.007C388.363 394.045 387.796 393.768 386.843 392.375C386.3 390.685 387.041 388.831 387.523 387.076Z" fill="#171623"/>
<path d="M401.872 369.476C402.436 379.452 401.178 390.833 393.284 398.046L392.395 397.262C395.702 389.891 399.209 382.809 400.553 374.79C400.876 372.855 401.223 371.319 401.872 369.476Z" fill="#413F48"/>
<path d="M387.523 387.076C390.834 389.522 390.268 391.242 389.723 395.007C388.363 394.045 387.796 393.768 386.843 392.375C386.3 390.686 387.041 388.831 387.523 387.076Z" fill="#1F222F"/>
<path d="M395.689 378.915C396.53 379.294 396.182 379.006 396.672 379.9C396.481 383.378 394.486 386.168 392.684 389.107L392.052 388.971L391.676 388.136C392.215 384.77 393.996 381.834 395.689 378.915Z" fill="#363440"/>
<path d="M405.819 395.752C412.213 404.368 413.199 410.296 410.268 420.47C408.292 424.819 405.412 428.977 402.698 432.913C401.668 430.988 400.946 429.452 399.511 427.794C397.779 425.601 395.435 423.373 393.441 421.368C394.692 410.422 399.637 404.249 405.819 395.752Z" fill="#1F222F"/>
<path d="M399.656 427.574C399.755 425.751 402.076 420.672 402.843 418.351C403.713 415.719 405.721 406.019 407.477 404.916C409.486 408.222 406.03 418.916 404.601 422.566C403.514 424.016 401.641 427.104 400.224 427.632L399.656 427.574Z" fill="#413F48"/>
<path d="M404.6 422.566C405.851 422.621 407.696 420.759 410.268 420.47C408.293 424.819 405.413 428.977 402.699 432.913C401.669 430.988 400.947 429.452 399.512 427.794L399.655 427.574L400.224 427.633C401.64 427.104 403.513 424.016 404.6 422.566Z" fill="#1F222F"/>
<path d="M401.271 409.395C401.883 409.846 401.872 409.952 402.349 410.587C402.673 414.32 401.317 417.74 398.96 420.596C396.341 418.175 399.501 411.751 401.271 409.395Z" fill="#413F48"/>
<path d="M413.168 474.027C415.893 475.516 419.692 481.738 421.143 484.673C429.117 500.811 422.114 512.842 417.27 527.744C417.093 528.937 416.974 529.532 416.636 530.688C414.38 529.05 415.037 516.817 415.933 513.708C416.882 510.417 417.738 507.51 418.311 504.074C418.885 500.726 419.096 497.327 418.94 493.938C418.552 486.106 416.18 481.036 413.168 474.027Z" fill="#1F222F"/>
<path d="M382.103 360.542C381.513 356.865 386.439 345.39 391.927 347.254L392.161 348.736C392.412 350.191 392.499 352.423 393.319 353.243C394.123 351.876 395.151 349.647 396.022 348.672C395.6 350.348 395.107 353.236 393.887 354.275C394.1 355.524 394.187 356.704 394.796 357.792C394.228 358.763 392.629 361.372 392.293 362.266C392.082 365.005 392.199 368.405 391.122 370.747L390.324 371.24C388.931 370.576 388.235 368.625 387.459 367.119L385.75 364.824C384.498 363.242 383.465 362.03 382.103 360.542Z" fill="#363440"/>
<path d="M385.75 364.824C388.627 361.889 392.137 354.886 393.887 354.275C394.1 355.524 394.187 356.705 394.796 357.792C394.229 358.763 392.629 361.372 392.293 362.266C392.082 365.006 392.2 368.406 391.122 370.747L390.324 371.24C388.932 370.576 388.236 368.625 387.46 367.12L385.75 364.824Z" fill="#363440"/>
<path d="M392.295 362.266C392.084 365.005 392.201 368.406 391.123 370.747L390.326 371.24C388.933 370.576 388.237 368.625 387.461 367.119C389.355 365.593 390.674 364.054 392.295 362.266Z" fill="#171623"/>
<path d="M392.16 348.736C392.411 350.191 392.498 352.423 393.318 353.243C394.122 351.876 395.149 349.647 396.021 348.672C395.599 350.348 395.106 353.236 393.886 354.275C392.136 354.886 388.626 361.889 385.748 364.824C384.496 363.242 383.463 362.03 382.102 360.542C387.96 357.157 391.501 356.11 392.16 348.736Z" fill="#171623"/>
<path d="M390.859 310.65L391.302 310.789L391.494 311.46C388.814 316.923 386.474 321.123 382.792 325.975L382.172 325.468C382.213 321.243 387.796 313.52 390.859 310.65Z" fill="#413F48"/>
<path d="M398.505 316.285C400.929 320.932 392.258 328.377 388.305 330.059C388.268 328.586 390.371 326.909 391.46 325.631C394.015 322.631 396.241 319.507 398.505 316.285Z" fill="#363440"/>
<path d="M398.18 341.194C398.5 347.337 398.277 352.317 394.796 357.792C394.187 356.704 394.099 355.524 393.887 354.275C395.107 353.236 395.6 350.348 396.022 348.672C396.686 346.107 397.275 343.696 398.18 341.194Z" fill="#413F48"/>
<path d="M381.941 442.931L385.808 443.05C389.477 444.115 392.608 444.3 396.217 445.858L399.005 447.924C399.312 448.481 400.094 450.001 400.407 450.442C401.7 455.671 403.918 458.824 405.774 463.704C406.05 464.43 404.507 466.339 404.741 468.475C404.848 470.858 404.977 472.071 404.516 474.402C402.691 477.749 403.714 478.433 405.422 481.654C405.499 484.495 405.6 488.615 404.869 491.331C403.801 490.844 402.956 490.6 401.835 490.249L400.101 491.775C399.489 493.676 399.552 493.639 397.48 494.149C399.61 495.132 399.542 495.244 400.175 497.604C401.162 498.006 402.393 498.465 403.312 498.966C402.875 500.544 402.456 502.108 401.938 503.662C400.807 505.394 399.532 507.59 398.001 508.905L397.348 509.921C395.244 511.246 394.527 511.714 392.212 512.538L390.027 513.048L388.946 512.796L388.684 512.089L387.971 512C387.724 511.686 386.908 510.965 386.575 510.651C385.042 510.165 384.689 510.399 383.107 510.857C381.349 512.866 372.392 523.563 370.968 524.392C368.516 526.882 366.354 528.512 363.383 530.361C362.869 530.628 361.534 531.288 361.127 531.573C359.507 532.608 356.83 533.942 356.19 535.553L356.405 536.981L356.292 538.675C355.387 536.723 355.779 536.789 354.202 535.81C352.63 535.932 353.231 535.698 351.944 537.055C351.501 538.455 351.621 538.633 351.924 540.131C347.589 537.772 348.979 540.754 345.796 538.305C346.492 537.856 347.911 536.32 348.561 535.66C347.343 533.994 344.624 534.658 341.079 531.629L337.902 532.453C335.747 530.431 334.946 529.443 333.129 527.084L331.794 527.636C328.432 523.104 327.285 520.389 324.96 515.3L323.257 515.174L321.991 512.065L320.118 507.655C319.181 508.109 317.57 508.802 316.831 509.439L316.233 506.555C316.313 505.68 316.226 504.022 316.207 503.077C316.27 499.739 316.751 498.269 318.02 495.207C319.147 494.069 319.673 493.671 320.98 492.73C322.405 492.506 322.589 492.52 323.996 492.843C325.848 489.748 327.679 486.64 329.488 483.522L331.673 484.524C334.277 479.683 337.049 474.936 339.984 470.287C339.325 469.074 339.526 469.449 338.181 468.639C343.154 460.389 345.442 455.32 353.078 449.105L354.043 448.855L356.298 447.272L359.351 445.299C361.724 445.329 367.375 445.003 369.023 446.005L374.798 445.653C378.042 444.782 378.951 444.521 381.941 442.931Z" fill="#F6957A"/>
<path d="M400.174 497.604C401.161 498.006 402.393 498.465 403.311 498.966C402.874 500.544 402.455 502.107 401.937 503.661C400.807 505.394 399.531 507.589 398 508.905L397.347 509.921C395.243 511.246 394.527 511.714 392.211 512.538L390.027 513.048L388.946 512.795L388.683 512.088L387.97 511.999C387.724 511.686 386.907 510.965 386.574 510.651C385.041 510.164 384.688 510.398 383.107 510.857C381.349 512.865 372.391 523.563 370.968 524.391C368.516 526.882 366.353 528.511 363.382 530.36C362.869 530.627 361.533 531.287 361.126 531.573C359.506 532.608 356.829 533.942 356.189 535.552L356.404 536.98L356.291 538.675C355.386 536.723 355.778 536.788 354.201 535.81C352.629 535.931 353.23 535.697 351.943 537.055C351.5 538.455 351.621 538.633 351.923 540.131C347.589 537.771 348.978 540.753 345.795 538.305C346.491 537.856 347.91 536.32 348.56 535.66C347.342 533.993 344.623 534.658 341.078 531.629C348.039 528.357 357.433 523.881 363.585 519.125C369.298 514.307 374.487 508.109 381.403 504.982C386.107 502.856 394.553 500.511 399.786 501.325L400.174 497.604Z" fill="#D37461"/>
<path d="M400.178 497.604C401.165 498.006 402.396 498.465 403.315 498.966C402.878 500.544 402.459 502.107 401.941 503.661C400.81 505.394 399.535 507.589 398.004 508.905L397.351 509.921C395.247 511.246 394.53 511.714 392.215 512.538L390.03 513.048L388.949 512.795L388.687 512.088L387.974 511.999C387.727 511.686 386.911 510.965 386.578 510.651C385.045 510.164 384.692 510.398 383.11 510.857L380.844 509.57C383.631 507.294 387.704 506.152 391.262 506.297L392.156 506.812C391.805 508.792 390.5 509.195 388.841 510.159C394.356 509.813 397.613 506.096 399.79 501.325L400.178 497.604Z" fill="#96413E"/>
<path d="M366.85 525.066C368.759 524.457 369.347 523.891 370.97 524.392C368.518 526.882 366.355 528.511 363.384 530.361C362.871 530.628 361.535 531.288 361.128 531.573C359.508 532.608 356.831 533.942 356.192 535.553L356.406 536.98L356.294 538.675C355.388 536.723 355.78 536.789 354.203 535.81C352.631 535.932 353.232 535.698 351.945 537.055C351.502 538.455 351.623 538.633 351.926 540.131C347.591 537.772 348.98 540.754 345.797 538.305C346.493 537.856 347.912 536.32 348.562 535.66C349.368 534.822 364.152 526.667 366.85 525.066Z" fill="#79393B"/>
<path d="M366.852 525.066C370.964 521.283 376.865 514.003 380.843 509.57L383.11 510.857C381.352 512.866 372.394 523.563 370.971 524.392C369.348 523.891 368.761 524.457 366.852 525.066Z" fill="#79393B"/>
<path d="M381.944 442.931L385.811 443.05C389.48 444.115 392.611 444.3 396.22 445.858L399.008 447.924C399.314 448.481 400.097 450.001 400.409 450.442C401.703 455.671 403.921 458.824 405.777 463.704C406.053 464.43 404.51 466.339 404.744 468.475C404.851 470.858 404.979 472.071 404.518 474.402C402.693 477.749 403.717 478.433 405.425 481.654C405.502 484.495 405.603 488.615 404.872 491.331C403.804 490.844 402.959 490.6 401.837 490.249C405.135 476.453 395.684 477.276 385.066 475.671C382.428 475.273 377.79 475.891 375.491 474.669L375.77 473.957C381.48 470.732 398.346 478.175 402.038 473.531C403.368 469.847 401.868 465.586 398.727 463.292C398.635 462.619 398.487 462.022 398.342 461.362C397.375 460.772 396.415 460.17 395.463 459.557L398.13 460.034C401.853 457.969 398.152 451.865 396.659 449.119C389.723 445.263 382.577 445.777 374.801 445.653C378.045 444.782 378.954 444.521 381.944 442.931Z" fill="#96413E"/>
<path d="M359.353 445.298C361.726 445.329 367.377 445.003 369.025 446.004C348.806 450.69 350.557 455.431 339.986 470.287C339.327 469.074 339.529 469.449 338.184 468.639C343.156 460.389 345.444 455.32 353.081 449.105L354.046 448.854L356.3 447.272L359.353 445.298Z" fill="#79393B"/>
<path d="M320.98 492.73C322.405 492.505 322.589 492.519 323.996 492.842C322.816 495.085 321.08 497.931 320.064 500.052C320.594 503.559 320.991 505.614 322.343 508.984L324.96 515.3L323.257 515.174L321.991 512.065L320.118 507.655C319.181 508.109 317.57 508.802 316.831 509.439L316.233 506.555C316.313 505.679 316.226 504.022 316.207 503.076C316.27 499.738 316.751 498.268 318.02 495.207C319.147 494.069 319.673 493.671 320.98 492.73Z" fill="#515772"/>
<path d="M320.98 492.73L321.162 493.62C317.3 496.139 320.609 497.96 319.193 502.272L316.207 503.077C316.27 499.739 316.751 498.269 318.02 495.207C319.147 494.069 319.673 493.671 320.98 492.73Z" fill="#9B9095"/>
<path d="M316.207 503.077L319.193 502.271C319.383 504.458 319.41 505.567 320.118 507.655C319.181 508.109 317.57 508.802 316.831 509.439L316.233 506.555C316.313 505.68 316.226 504.022 316.207 503.077Z" fill="#C5C6DA"/>
<path d="M398.725 463.291C391.472 460.627 373.478 460.698 371.645 459.093L371.725 457.737L372.582 457.243C379.917 457.664 388.527 457.589 395.461 459.556C396.413 460.17 397.372 460.771 398.339 461.361C398.485 462.022 398.632 462.619 398.725 463.291Z" fill="#963D36"/>
<path d="M323.998 492.842C325.85 489.748 327.681 486.639 329.49 483.521L331.675 484.523C329.046 489.439 323.723 497.201 321.846 501.11L323.302 507.926L322.345 508.985C320.993 505.614 320.596 503.559 320.066 500.052C321.082 497.931 322.818 495.085 323.998 492.842Z" fill="#79393B"/>
<path d="M397.48 494.149C392.535 492.894 381.503 492.398 379.043 491.148L379.233 490.619C384.16 489.046 395.079 490.848 400.101 491.775C399.489 493.676 399.551 493.639 397.48 494.149Z" fill="#89251F"/>
<path d="M322.344 508.985L323.301 507.927C325.587 514.28 329.26 521.545 333.13 527.084L331.795 527.636C328.433 523.104 327.286 520.389 324.961 515.3L322.344 508.985Z" fill="#020102"/>
<path d="M316.233 506.555L316.831 509.439C317.57 508.802 319.181 508.109 320.118 507.655L321.991 512.065L323.257 515.173L324.961 515.3C327.286 520.389 328.432 523.104 331.794 527.636L333.129 527.083C334.946 529.443 335.747 530.431 337.903 532.453L341.079 531.629C344.624 534.658 347.343 533.993 348.561 535.66C347.911 536.32 346.492 537.856 345.796 538.305C348.979 540.754 347.59 537.771 351.924 540.131C351.622 538.633 351.501 538.455 351.944 537.055C353.231 535.697 352.63 535.932 354.202 535.81C355.779 536.788 355.387 536.723 356.292 538.675L356.405 536.98L356.19 535.552C356.83 533.942 359.507 532.608 361.127 531.573C361.534 531.287 362.869 530.627 363.383 530.36C362.829 534.742 361.088 541.006 359.84 545.379L356.69 554.625C356.336 555.341 356.018 555.833 355.939 556.629L350.512 556.563C340.934 556.727 329.346 556.9 319.817 556.577C311.372 556.966 298.758 556.736 290.302 556.568C287.272 556.24 277.173 556.432 275.465 554.499C276.764 552.261 278.333 549.864 279.935 547.841C288.594 536.929 295.741 524.321 303.757 513.114C305.412 512.191 304.921 512.163 306.584 512.187C307.874 513.146 308.047 513.708 308.807 515.108L309.323 515.131C310.446 512.58 310.975 512.013 312.799 509.855L314.487 508.118L315.138 508.54L316.233 506.555Z" fill="#363C5D"/>
<path d="M316.232 506.555L316.83 509.439C317.569 508.802 319.18 508.109 320.117 507.655L321.99 512.065L323.256 515.173L324.959 515.3C327.285 520.389 328.431 523.104 331.793 527.636L333.128 527.083C334.945 529.443 335.746 530.431 337.902 532.453L341.078 531.629C344.623 534.658 347.342 533.993 348.56 535.66C347.91 536.32 346.491 537.856 345.795 538.305C348.978 540.754 347.589 537.771 351.923 540.131C351.621 538.633 351.5 538.455 351.943 537.055C353.23 535.697 352.629 535.932 354.201 535.81C355.778 536.788 355.386 536.723 356.291 538.675L356.404 536.98L356.189 535.552C356.829 533.942 359.506 532.608 361.126 531.573C361.533 531.287 362.868 530.627 363.382 530.36C362.828 534.742 361.087 541.006 359.839 545.379L356.689 554.625C356.335 555.341 356.017 555.833 355.938 556.629L350.511 556.563C340.933 556.727 329.345 556.9 319.816 556.577C320.849 556.245 323.654 556.446 325.011 556.348C333.103 555.758 341.463 556.432 349.5 555.772C352.113 555.557 354.107 553.511 353.274 550.678C352.427 551.02 352.447 551.076 351.55 551.039L351.288 549.349C349.701 548.244 347.61 547.884 345.707 547.397C333.419 541.484 331.805 539.012 323.189 528.619C322.969 526.32 321.436 524.429 320.316 522.421C317.741 517.804 316.48 513.633 315.137 508.54L316.232 506.555Z" fill="#281622"/>
<path d="M323.259 515.174L324.962 515.3C327.287 520.389 328.433 523.104 331.796 527.636L333.131 527.084C334.947 529.443 335.748 530.431 337.904 532.453L341.081 531.629C344.626 534.658 347.345 533.994 348.562 535.66C347.913 536.32 346.493 537.856 345.797 538.305C348.981 540.754 347.591 537.772 351.926 540.131C351.623 538.633 351.503 538.455 351.946 537.055C353.232 535.698 352.631 535.932 354.203 535.81C355.781 536.789 355.388 536.723 356.294 538.675C355.503 546.049 349.935 546.859 344.014 544.588C335.38 541.278 326.929 532.753 322.98 524.481C328.113 522.828 324.919 518.526 323.259 515.174Z" fill="#9B9095"/>
<path d="M333.132 527.083C334.948 529.443 335.749 530.431 337.905 532.453L341.081 531.629C344.627 534.658 347.345 533.993 348.563 535.66C347.914 536.32 346.494 537.856 345.798 538.305C348.982 540.754 347.592 537.772 351.927 540.131C346.508 545.173 334.987 531.657 331.797 527.636L333.132 527.083Z" fill="#581D1B"/>
<path d="M337.902 532.453L341.079 531.629C344.624 534.658 347.343 533.994 348.561 535.66C347.911 536.32 346.491 537.856 345.795 538.305C342.185 536.405 340.783 535.333 337.902 532.453Z" fill="#E19289"/>
<path d="M363.387 530.36C362.832 534.742 361.091 541.006 359.843 545.379L356.693 554.625C356.34 555.341 356.021 555.833 355.942 556.629L350.516 556.563C355.774 555.627 355.29 554.386 356.382 549.747L356.281 549.321C355 543.792 357.152 542.191 356.408 536.98L356.194 535.552C356.833 533.942 359.51 532.607 361.13 531.573C361.537 531.287 362.873 530.627 363.387 530.36Z" fill="#08051C"/>
<path d="M361.129 531.573C359.764 537.594 358.302 543.881 356.381 549.747L356.28 549.321C354.999 543.792 357.151 542.191 356.407 536.98L356.193 535.553C356.832 533.942 359.509 532.608 361.129 531.573Z" fill="#1F222F"/>
<path d="M316.832 509.439C317.571 508.802 319.182 508.109 320.119 507.655L321.992 512.065L323.258 515.174C324.919 518.526 328.112 522.828 322.98 524.481C321.4 520.441 319.544 516.606 317.936 512.356L316.832 509.439Z" fill="#F7F4F6"/>
<path d="M314.488 508.119L315.139 508.54C316.482 513.634 317.743 517.805 320.318 522.421C321.438 524.429 322.971 526.321 323.192 528.619C331.807 539.012 333.421 541.484 345.709 547.397L343.138 550.922C327.13 544.523 320.696 537.767 311.943 523.292C310.703 520.085 310.177 518.502 309.324 515.132C310.447 512.58 310.976 512.014 312.8 509.855L314.488 508.119Z" fill="#F7F4F6"/>
<path d="M314.489 508.119L315.14 508.54C316.483 513.634 317.744 517.805 320.319 522.421C321.439 524.429 322.972 526.321 323.193 528.619C317.23 522.477 314.868 518.062 312.801 509.855L314.489 508.119Z" fill="#A57C7A"/>
<path d="M303.758 513.114C305.412 512.192 304.922 512.163 306.584 512.187C307.874 513.147 308.048 513.708 308.807 515.108L309.323 515.132C310.176 518.502 310.702 520.085 311.943 523.292C307.373 519.429 307.089 515.515 303.758 513.114Z" fill="#363440"/>
<path d="M353.254 432.449C353.532 427.83 347.926 411.458 347.052 405.966C346.208 400.651 342.592 395.369 343.468 389.331C345.367 385.654 358.924 381.92 363.522 380.208C364.674 381.596 366.019 383.303 367.219 384.605C364.386 397.4 364.004 404.887 374.088 414.661C370.824 427.349 372.514 432.144 380.175 442.301L381.942 442.93C378.952 444.521 378.043 444.782 374.799 445.653L369.024 446.004C367.376 445.003 361.725 445.329 359.352 445.298L356.299 447.272C355.185 442.486 354.326 437.34 353.254 432.449Z" fill="#515772"/>
<path d="M380.175 442.301L381.941 442.93C378.952 444.521 378.042 444.782 374.798 445.653L369.023 446.004C367.375 445.003 361.724 445.329 359.352 445.298C364.284 443.34 374.816 442.498 380.175 442.301Z" fill="#824753"/>
<path d="M361.796 378.303C362.468 378.964 363.041 379.415 363.521 380.208C358.924 381.92 345.366 385.654 343.467 389.331C342.591 395.369 346.207 400.651 347.052 405.966C347.925 411.458 353.532 427.83 353.253 432.449C354.326 437.34 355.184 442.486 356.298 447.272L354.044 448.854L353.079 449.105C352.156 445.808 352.501 441.95 351.64 438.709C348.961 428.621 347.259 418.391 344.973 408.216C344.546 406.314 340.905 396.211 340.995 395.616C343.604 396.665 345.034 407.177 346.608 408.695C346.525 406.247 344.985 400.188 343.944 397.992C341.527 392.894 342.366 392.679 343.188 387.407L343.212 387.392C339.805 388.673 342.765 393.033 339.136 394.596C332.409 397.491 324.587 401.002 318.573 405.041C305.096 414.118 297.127 429.147 292.214 444.241C291.814 445.469 289.418 449.721 289.415 450.458C289.374 459.622 286.583 465.906 283.574 474.346C281.117 481.232 280.103 488.868 277.235 495.708C275.73 499.453 275.306 506.831 272.223 509.064C272.516 505.539 274.84 497.674 275.813 493.915C280.483 475.876 285.278 457.927 292.189 440.646C303.86 411.463 313.374 404.897 340.308 392.999C340.335 391.641 340.428 389.551 341.126 388.412C344.286 383.256 355.99 380.268 361.796 378.303Z" fill="#1F222F"/>
<path d="M354.044 448.854C353.581 444.192 351.03 436.342 353.253 432.449C354.325 437.34 355.184 442.486 356.298 447.272L354.044 448.854Z" fill="#171623"/>
<path d="M307.622 506.985C310.403 506.747 311.648 506.737 314.433 506.929L314.489 508.118L312.801 509.855C310.977 512.013 310.449 512.58 309.326 515.131L308.809 515.108C308.05 513.708 307.877 513.146 306.586 512.187C304.924 512.163 305.414 512.191 303.76 513.114C295.743 524.321 288.596 536.929 279.938 547.841C278.335 549.864 276.767 552.261 275.467 554.499C277.175 556.432 287.274 556.24 290.304 556.568C286.586 556.732 264.946 557.13 263.106 555.95C262.526 554.354 262.871 553.235 263.131 551.535C264.868 553.773 268.651 554.265 271.421 554.883C280.659 544.976 297.989 512.781 307.622 506.985Z" fill="#1F222F"/>
<path d="M338.181 468.639C339.526 469.449 339.325 469.074 339.984 470.287C337.049 474.935 334.277 479.682 331.673 484.523L329.488 483.521C332.317 477.894 334.53 473.756 338.181 468.639Z" fill="#824753"/>
<path d="M314.431 506.93C313.991 502.318 312.932 497.351 318.021 495.207C316.752 498.269 316.271 499.739 316.208 503.077C316.227 504.022 316.314 505.68 316.234 506.555L315.139 508.54L314.488 508.119L314.431 506.93Z" fill="#413F48"/>
<path d="M521.332 334.401C522.02 333.576 522.693 333.061 523.503 332.375C522.806 340.998 522.08 345.785 524.481 354.432C525.057 355.525 525.726 357.152 526.709 357.765C527.509 358.294 528.193 358.71 528.436 359.622C529.04 361.903 533.678 362.472 534.984 363.973L536.884 364.501C538.466 364.027 538.325 363.458 539.383 361.64C546.534 359.354 549.258 362.06 555.59 364.329L554.233 365.54C550.274 373.342 549.712 379.79 552.235 388.369L552.052 388.865C551.771 391.373 551.261 395.132 551.472 397.548C550.84 399.585 549.497 403.075 548.598 405.072C547.803 413.935 548.154 416.244 551.865 424.688C547.026 429.672 544.765 435.717 544.845 442.674C544.906 445.713 545.434 448.725 546.413 451.602L547.723 455.413C553.508 464.27 550.498 462.289 552.052 471.883C545.369 479.734 541.512 491.841 542.617 502.098C542.065 506.115 534.043 516.091 531.455 519.373C498.02 561.755 457.662 554.391 427.8 514.504C427.149 513.648 426.551 512.749 426.011 511.822C432.432 497.019 424.835 481.944 415.594 470.568C416.263 466.979 416.088 465.764 414.975 462.283C417.664 457.012 418.57 454.297 419.967 448.537C421.463 437.829 419.782 431.764 412.239 424.244C413.805 420.226 414.49 417.653 414.828 413.363C414.849 405.845 414.054 402.756 410.358 396.39C410.697 396.049 411.717 394.689 412.07 394.237C411.399 391.545 410.654 389.006 409.871 386.351C411.405 378.929 410.377 374.377 407.32 367.813C407.082 367.463 406.221 365.357 405.996 364.834C410.401 362.639 416.618 359.064 421.183 362.222L423.026 365.071C425.258 364.074 430.245 361.931 431.816 360.118C432.642 359.163 432.374 359.281 433.904 358.726C435.001 357.457 435.977 353.851 436.509 352.147C437.767 347.025 437.116 342.278 436.784 337.043L437.717 335.508C438.403 337.118 437.641 336.962 438.945 339.042L438.498 333.643C449.806 339.979 452.294 341.293 465.08 344.97L467.744 343.454C480.431 346.787 482.154 345.044 493.644 343.637C495.118 343.736 497.187 343.688 498.38 344.383C502.11 343.256 504.324 342.515 507.895 340.966L506.43 338.928L513.871 335.53L515.36 337.19C517.138 336.232 519.431 334.854 521.332 334.401Z" fill="#363C5D"/>
<path d="M521.329 334.401C522.017 333.576 522.691 333.061 523.501 332.375C522.804 340.998 522.078 345.785 524.479 354.432C525.055 355.525 525.724 357.152 526.707 357.765C526.932 360.145 527.166 361.105 526.272 363.292C523.328 372.413 520.234 388.928 516.336 397.35C516.06 398.536 516.078 398.961 515.283 399.813C514.599 401.547 512.68 402.256 510.846 403.371C506.461 404.598 500.98 406.213 496.819 407.917C495.794 410.004 494.671 412.452 493.553 414.457C493.01 414.397 492.092 414.076 491.531 413.905C489.556 417.596 487.768 420.957 486.022 424.759C484.379 427.462 482.353 432.041 480.49 435.305C475.852 428.743 469.777 413.982 465.197 406.059C456.777 404.475 452.723 401.688 445.166 399.015C442.389 393.865 436.011 368.78 434.558 362.463L433.902 358.726C434.999 357.457 435.975 353.851 436.507 352.147C437.765 347.025 437.113 342.278 436.782 337.043L437.715 335.508C438.401 337.118 437.639 336.962 438.943 339.042L438.496 333.643C449.804 339.979 452.292 341.293 465.078 344.97L467.742 343.454C480.429 346.787 482.152 345.044 493.642 343.637C495.116 343.736 497.184 343.688 498.378 344.383C502.108 343.256 504.322 342.515 507.893 340.966L506.428 338.928L513.869 335.53L515.358 337.19C517.136 336.232 519.429 334.854 521.329 334.401Z" fill="#F6957A"/>
<path d="M521.33 334.401C522.018 333.576 522.692 333.061 523.502 332.375C522.804 340.998 522.079 345.785 524.48 354.432C525.055 355.525 525.725 357.152 526.707 357.765C526.932 360.145 527.166 361.105 526.272 363.292L524.587 360.255C507.902 371.452 475.778 364.765 459.894 355.335C453.068 351.282 446.188 345.967 439.573 341.444C439.595 344.169 439.717 346.393 439.141 349.08L438.758 351.531L437.861 350.169C437.408 350.888 437.069 351.51 436.508 352.147C437.765 347.025 437.114 342.278 436.783 337.043L437.716 335.508C438.401 337.118 437.639 336.962 438.943 339.042L438.496 333.643C449.805 339.979 452.293 341.293 465.078 344.97L467.742 343.454C480.43 346.787 482.152 345.044 493.642 343.637C495.116 343.736 497.185 343.688 498.378 344.383C502.108 343.256 504.322 342.515 507.893 340.966L506.428 338.928L513.87 335.53L515.358 337.19C517.136 336.232 519.43 334.854 521.33 334.401Z" fill="#D37461"/>
<path d="M467.742 343.454C480.43 346.786 482.152 345.044 493.642 343.636C495.116 343.736 497.185 343.688 498.378 344.383C487.637 348.08 475.951 347.963 465.078 344.97L467.742 343.454Z" fill="#89251F"/>
<path d="M521.328 334.401C522.016 333.576 522.69 333.061 523.499 332.375C522.802 340.998 522.077 345.785 524.477 354.432L522.437 354.449C520.186 348.697 520.705 340.525 521.328 334.401Z" fill="#79393B"/>
<path d="M436.783 337.042L437.716 335.508C438.401 337.118 437.639 336.962 438.943 339.041C439.045 342.387 439.111 345.733 439.141 349.08L438.758 351.531L437.861 350.169C437.408 350.888 437.069 351.51 436.508 352.147C437.765 347.025 437.114 342.278 436.783 337.042Z" fill="#79393B"/>
<path d="M522.438 354.448L524.478 354.432C525.054 355.525 525.723 357.152 526.706 357.765C526.93 360.145 527.164 361.105 526.271 363.292L524.586 360.255C523.809 358.728 523.018 356.151 522.438 354.448Z" fill="#79393B"/>
<path d="M506.43 338.928L513.871 335.53L515.359 337.19C513.015 338.407 510.281 339.915 507.895 340.966L506.43 338.928Z" fill="#89251F"/>
<path d="M495.285 406.744C499.123 404.75 509.564 402.239 514.062 399.688C514.539 399.737 514.946 399.778 515.283 399.813C514.6 401.547 512.681 402.256 510.846 403.371C506.461 404.599 500.981 406.213 496.82 407.917C495.795 410.004 494.672 412.452 493.553 414.457C493.01 414.397 492.093 414.076 491.531 413.905C492.846 410.637 493.328 409.722 495.285 406.744Z" fill="#020102"/>
<path d="M436.507 352.146C437.068 351.51 437.408 350.888 437.861 350.168L438.758 351.531C437.786 356.077 436.915 358.446 434.558 362.463L433.902 358.725C434.999 357.457 435.975 353.85 436.507 352.146Z" fill="#79393B"/>
<path d="M433.902 358.726L434.557 362.463C436.01 368.78 442.389 393.865 445.165 399.015C452.722 401.688 456.776 404.475 465.196 406.059C469.777 413.982 475.851 428.743 480.489 435.305C482.352 432.041 484.379 427.462 486.021 424.759C487.767 420.957 489.555 417.596 491.53 413.905C492.092 414.076 493.009 414.397 493.552 414.457C494.67 412.452 495.794 410.004 496.819 407.917C500.979 406.213 506.46 404.598 510.845 403.371C512.68 402.256 514.599 401.547 515.282 399.813C516.077 398.961 516.059 398.536 516.335 397.35C517.907 397.396 518.141 397.424 519.433 396.553L520.037 396.776C521.46 397.677 522.63 397.08 524.717 396.786C526.262 395.855 526.421 395.633 527.521 394.185L529.795 392.57L530.361 392.767C530.006 398.797 525.433 412.545 523.266 418.907C516.049 440.097 506.595 468.971 489.784 484.673C484.379 489.72 481.196 490.127 474.148 490.174C451.474 471.673 439.669 420.415 430.089 392.606C433.205 394.86 437.494 398.139 441.341 398.478C441.118 398.211 440.797 397.645 440.601 397.326L441.324 396.531C439.573 395.976 438.683 395.055 437.279 394.104C427.672 387.592 424.764 377.261 423.416 365.819L423.023 365.071C425.255 364.074 430.243 361.931 431.813 360.118C432.639 359.163 432.371 359.281 433.902 358.726Z" fill="#363C5D"/>
<path d="M433.902 358.726L434.557 362.463C436.01 368.78 442.389 393.865 445.165 399.015C452.722 401.688 456.776 404.475 465.196 406.059C469.777 413.982 475.851 428.743 480.489 435.305C482.352 432.041 484.379 427.462 486.021 424.759C487.767 420.957 489.555 417.596 491.53 413.905C492.092 414.076 493.009 414.397 493.552 414.457C494.67 412.452 495.794 410.004 496.819 407.917C500.979 406.213 506.46 404.598 510.845 403.371L512.675 403.5C513.517 406.023 510.953 410.626 509.801 413.25L512.525 414.214C506.886 428.054 500.081 441.887 490.884 453.843C488.521 456.915 485.034 459.641 482.385 462.676L481.664 462.64L481.477 463.092C480.756 463.365 480.031 463.387 479.259 463.466L478.323 462.675L478.187 463.147L477.574 463.194C477.461 463.038 477.078 462.526 477.007 462.361C475.557 459.15 472.29 457.369 469.959 454.533C460.117 442.559 453.329 427.722 447.573 413.429C446.222 410.073 443.544 400.579 441.341 398.478C441.118 398.211 440.797 397.645 440.601 397.326L441.324 396.531C439.573 395.976 438.683 395.055 437.279 394.104C427.672 387.592 424.764 377.261 423.416 365.819L423.023 365.071C425.255 364.074 430.243 361.931 431.813 360.118C432.639 359.163 432.371 359.281 433.902 358.726Z" fill="#363C5D"/>
<path d="M433.902 358.726L434.557 362.463C436.01 368.78 442.389 393.865 445.165 399.015C452.722 401.688 456.776 404.475 465.196 406.059C469.777 413.982 475.851 428.743 480.489 435.305C482.352 432.041 484.379 427.462 486.021 424.759C486.897 426.353 486.349 427.969 486.092 429.84C485.511 431.658 481.585 438.372 480.429 440.415C477.344 436.59 472.566 424.805 470.404 420.16C468.55 416.172 466.107 411.556 464.411 407.571C458.876 406.321 451.841 404.151 446.341 402.527C451.471 416.55 464.336 447.276 476.319 456.142C488.235 464.961 506.095 420.85 509.801 413.25L512.525 414.214C506.886 428.054 500.081 441.887 490.884 453.843C488.521 456.915 485.034 459.641 482.385 462.676L481.664 462.64L481.477 463.092C480.756 463.365 480.031 463.387 479.259 463.466L478.323 462.675L478.187 463.147L477.574 463.194C477.461 463.038 477.078 462.526 477.007 462.361C475.557 459.15 472.29 457.369 469.959 454.533C460.117 442.559 453.329 427.722 447.573 413.429C446.222 410.073 443.544 400.579 441.341 398.478C441.118 398.211 440.797 397.645 440.601 397.326L441.324 396.531C439.573 395.976 438.683 395.055 437.279 394.104C427.672 387.592 424.764 377.261 423.416 365.819L423.023 365.071C425.255 364.074 430.243 361.931 431.813 360.118C432.639 359.163 432.371 359.281 433.902 358.726Z" fill="#281622"/>
<path d="M423.418 365.819C426.229 365.111 429.3 364.406 432.003 363.418C433.539 369.727 435.203 376.004 436.994 382.245C437.766 384.911 441.281 394.943 441.326 396.531C439.575 395.976 438.685 395.056 437.281 394.104C427.674 387.592 424.766 377.261 423.418 365.819Z" fill="#F6957A"/>
<path d="M478.325 462.675C478.222 461.061 477.974 460.241 478.882 458.958L479.743 458.479C481.901 459.398 481.615 460.541 481.667 462.639L481.479 463.092C480.759 463.365 480.033 463.387 479.261 463.466L478.325 462.675Z" fill="#9B9095"/>
<path d="M491.532 413.905C492.094 414.076 493.011 414.397 493.554 414.457C492.215 417.706 487.994 427.008 486.094 429.839C486.351 427.969 486.899 426.353 486.023 424.759C487.769 420.957 489.557 417.596 491.532 413.905Z" fill="#171623"/>
<path d="M478.322 462.674L479.258 463.466C480.03 463.386 480.756 463.364 481.477 463.092C483.129 464.533 484.931 465.556 486.353 466.824C485.927 467.576 485.235 468.896 484.711 469.523L485.576 471.223C486.962 475.815 487.42 480.694 481.664 482.182C476.076 483.161 472.584 479.233 474.124 473.948C474.044 471.499 474.386 470.165 473.02 468.038C475.098 464.741 476.951 465.766 478.186 463.147L478.322 462.674Z" fill="#C5C6DA"/>
<path d="M478.322 462.674L479.258 463.466C480.03 463.386 480.756 463.364 481.477 463.092C483.129 464.533 484.931 465.556 486.353 466.824C485.927 467.576 485.235 468.896 484.711 469.523C479.389 464.786 475.842 468.358 474.124 473.948C474.044 471.499 474.386 470.165 473.02 468.038C475.098 464.741 476.951 465.766 478.186 463.147L478.322 462.674Z" fill="#888BA6"/>
<path d="M485.579 471.223C486.964 475.816 487.423 480.694 481.666 482.183C480.857 481.022 481.259 481.392 479.551 480.975C479.523 479.524 484.423 472.735 485.579 471.223Z" fill="#A7ABC9"/>
<path d="M480.224 468.085C481.3 468.681 481.454 468.686 481.918 469.748C481.216 471.724 478.464 474.907 477.088 476.771L476.269 477.178L475.66 476.663C475.422 473.536 477.921 470.02 480.224 468.085Z" fill="#F7F4F6"/>
<path d="M486.356 466.824C492.253 476.981 487.058 489.729 474.848 483.573C470.982 479.158 470.991 475.591 471.969 470.011L473.023 468.038C474.389 470.165 474.047 471.499 474.127 473.948C472.587 479.233 476.079 483.161 481.667 482.183C487.423 480.694 486.965 475.816 485.579 471.223L484.714 469.524C485.238 468.896 485.93 467.576 486.356 466.824Z" fill="#9B9095"/>
<path d="M519.433 396.553L520.036 396.776C521.459 397.677 522.629 397.08 524.716 396.786C523.701 397.476 520.326 399.591 519.732 400.084C516.812 402.498 513.826 410.449 512.525 414.214L509.801 413.25C510.952 410.626 513.517 406.023 512.674 403.5L510.844 403.371C512.679 402.256 514.598 401.547 515.281 399.813C516.077 398.961 516.058 398.536 516.334 397.35C517.907 397.396 518.141 397.424 519.433 396.553Z" fill="#171623"/>
<path d="M474.845 483.573C468.124 484.168 470.132 473.676 471.283 469.912L471.967 470.01C470.988 475.591 470.979 479.158 474.845 483.573Z" fill="#1F222F"/>
<path d="M526.708 357.765C527.508 358.293 528.192 358.709 528.435 359.621C529.039 361.903 533.677 362.472 534.983 363.972L536.883 364.5C538.465 364.026 538.324 363.458 539.382 361.64L541.526 362.638C539.574 365.208 535.198 387.036 533.869 391.694C525.398 421.341 517.095 452.39 499.549 478.18C493.6 486.93 487.395 491.475 476.855 493.184C502.774 507.435 523.582 474.294 533.794 455.092C534.613 453.548 536.808 448.828 538.062 448.166C538.774 451.778 527.134 471.803 524.799 474.987C473.2 545.36 444.875 449.86 432.575 408.801C427.889 393.157 423.596 381.574 420.663 367.255C420.603 365.61 420.941 363.866 421.182 362.222L423.025 365.071L423.418 365.819C424.766 377.261 427.674 387.592 437.281 394.103C438.685 395.055 439.575 395.976 441.326 396.531L440.603 397.326C440.799 397.645 441.12 398.211 441.343 398.477C437.496 398.139 433.207 394.86 430.091 392.605C439.671 420.415 451.476 471.672 474.15 490.174C481.198 490.127 484.381 489.72 489.786 484.673C506.597 468.971 516.051 440.097 523.268 418.906C525.435 412.545 530.008 398.796 530.363 392.767L529.797 392.569L527.522 394.185C526.423 395.633 526.263 395.854 524.719 396.786C522.632 397.08 521.462 397.676 520.039 396.776L519.435 396.552C518.143 397.424 517.909 397.396 516.337 397.35C520.235 388.928 523.329 372.413 526.273 363.292C527.167 361.105 526.933 360.145 526.708 357.765Z" fill="#1F222F"/>
<path d="M526.707 357.765C527.508 358.293 528.191 358.709 528.434 359.621C529.038 361.903 533.676 362.472 534.982 363.972L535.323 365.763C535.983 366.151 536.859 366.457 536.901 367.021C537.149 370.297 535.23 375.376 534.696 378.629C532.609 385.796 532.15 386.534 526.618 391.669C524.311 393.868 522.912 395.234 520.038 396.776L519.434 396.552C518.142 397.424 517.908 397.396 516.336 397.35C520.235 388.928 523.328 372.413 526.272 363.292C527.166 361.105 526.932 360.145 526.707 357.765Z" fill="#F6957A"/>
<path d="M526.707 357.765C527.508 358.293 528.191 358.709 528.434 359.621C529.038 361.903 533.676 362.472 534.982 363.972L535.323 365.763C533.1 364.751 530.863 363.762 528.617 362.797C527.25 369.732 524.657 381.597 522.21 388.12C523.572 388.827 526.37 389.999 526.618 391.669C524.311 393.868 522.912 395.234 520.038 396.776L519.434 396.552C518.142 397.424 517.908 397.396 516.336 397.35C520.235 388.928 523.328 372.413 526.272 363.292C527.166 361.105 526.932 360.145 526.707 357.765Z" fill="#581D1B"/>
<path d="M522.209 388.12C523.571 388.828 526.37 389.999 526.618 391.669C524.31 393.868 522.911 395.234 520.037 396.776L519.434 396.553C519.691 395.085 521.619 389.869 522.209 388.12Z" fill="#E19289"/>
<path d="M534.697 378.629C536.073 382.822 532.217 387.521 529.484 390.263L531.328 390.52L531.337 391.06C528.941 391.823 528.735 391.703 527.523 394.185C526.423 395.633 526.264 395.855 524.719 396.786C522.632 397.08 521.462 397.677 520.039 396.776C522.913 395.234 524.312 393.868 526.619 391.669C532.151 386.535 532.61 385.797 534.697 378.629Z" fill="#0C0C19"/>
<path d="M412.067 394.236C425.236 431.76 441.53 480.581 474.097 506.793C482.638 513.671 490.51 513.483 500.769 512.819C500.09 514.073 497.849 514.808 496.538 515.216C490.641 517.069 480.953 514.49 475.725 511.175C451.167 495.604 435.691 462.34 424.115 436.38C421.741 431.059 417.853 416.832 414.825 413.362C414.847 405.844 414.052 402.756 410.355 396.39C410.695 396.049 411.714 394.688 412.067 394.236Z" fill="#1F222F"/>
<path d="M548.598 405.071C546.576 406.756 533.888 445.629 529.344 447.663C529.311 446.878 533.425 436.79 534.16 435.064C540.258 420.715 544.119 405.696 549.455 391.17C549.717 390.459 550.54 389.18 550.934 388.136L551.13 387.605L552.052 388.864C551.771 391.373 551.261 395.132 551.472 397.548C550.84 399.585 549.497 403.074 548.598 405.071Z" fill="#1F222F"/>
<path d="M546.412 451.602L547.723 455.412C546.88 456.751 545.85 458.869 545.125 460.313C539.888 470.764 533.485 480.001 526.699 489.476C529.465 482.164 534.651 473.957 538.507 466.952C541.245 461.984 543.744 456.256 546.412 451.602Z" fill="#1F222F"/>
<path d="M405.996 364.834C410.401 362.639 416.618 359.064 421.183 362.222C420.942 363.866 420.604 365.611 420.664 367.255C420.396 365.624 420.403 364.601 419.18 363.463C416.989 362.202 414.233 363.04 411.622 363.075L407.32 367.813C407.082 367.463 406.221 365.357 405.996 364.834Z" fill="#1F222F"/>
<path d="M539.383 361.64C546.534 359.354 549.258 362.06 555.59 364.329L554.233 365.54C548.954 363.546 546.988 362.998 541.526 362.638L539.383 361.64Z" fill="#1F222F"/>
<path d="M418.87 463.67C420.38 464.69 423.671 472.103 424.602 474.229C435.999 500.263 462.325 542.889 496.816 530.754C515.073 524.331 530.382 504.43 540.238 488.606C540.72 487.829 540.355 487.833 541.338 487.122L541.549 488.831C529.942 505.076 526.015 518.175 507.72 529.008C468.304 552.35 437.294 510.197 424.03 478.025C422.274 473.77 417.816 468.199 418.87 463.67Z" fill="#1F222F"/>
<path d="M602.548 266.472C604.616 270.392 606.975 274.982 608.112 279.289C607.312 279.58 606.516 279.919 605.683 280.039L604.752 280.45C605.061 286.949 605.337 290.986 603.713 297.382C602.913 300.397 601.485 304.474 599.721 307.066L598.672 307.745C598.635 309.002 599.403 309.496 599.988 310.506C600.002 310.53 599.941 311.474 600.006 311.792C600.039 315.104 604.523 321.645 604.846 327.325C605.431 337.715 602.033 340.373 598.223 348.505C601.752 357.398 603.671 364.8 600.058 374.524C599.112 377.068 595.841 380.307 595.686 381.724C594.736 383.12 594.844 383.505 595.499 385.194C598.069 396.254 597.685 404.146 589.635 412.892C592.855 425.628 593 432.863 583.785 443.128C585.512 449.816 584.323 453.708 582.325 460.164C580.841 461.15 580.527 461.298 579.662 462.835L579.619 463.632C578.426 465.039 576.203 466.742 574.71 467.963C574.911 470.104 575.314 473.367 575.248 475.423L576.208 480.011C577.12 482 580.457 486.429 580.518 487.646L580.335 488.049C580.949 489.261 580.518 488.821 581.538 489.528C580.78 490.741 580.92 490.165 581.262 491.827L583.045 493.924L582.395 494.111C581.843 496.045 582.381 495.371 583.144 497.332C583.335 497.824 582.652 497.487 582.853 498.84C582.97 500.567 582.975 502.491 583.626 504.074L582.952 505.31C584.828 521.321 569.814 542.907 554.009 547.355C553.34 547.547 552.292 547.168 551.66 546.896C550.981 545.431 554.459 537.229 553.897 533.821C552.577 525.792 548.332 518.994 544.949 511.822C543.821 508.091 543.133 505.97 542.613 502.098C541.509 491.841 545.365 479.734 552.049 471.883C550.495 462.289 553.504 464.27 547.719 455.413L546.409 451.602C545.431 448.725 544.902 445.713 544.841 442.674C544.761 435.717 547.022 429.672 551.861 424.689C548.15 416.244 547.799 413.935 548.595 405.072C549.493 403.075 550.836 399.585 551.468 397.548C551.258 395.132 551.768 391.373 552.049 388.865L552.231 388.369C549.708 379.79 550.27 373.342 554.229 365.54L555.587 364.329C558.568 360.068 554.412 356.966 553.083 352.289C550.822 344.335 553.153 337.941 556.738 330.898C550.738 323.959 549.596 320.772 548.206 312.044C553.644 308.884 563.267 289.821 566.337 283.565C579.924 284.763 582.119 284.012 593.454 276.459C593.922 275.54 601.036 268.592 602.548 266.472Z" fill="#0C0C19"/>
<path d="M575.677 501.677C576.192 493.713 574.188 490.001 571.048 483.072C570.491 481.841 570.514 480.6 571.095 479.378L573.163 482.599C574.619 484.378 574.904 484.729 575.85 486.831C579.772 499.289 581.859 510.431 575.738 523.006C574.956 524.607 573.243 527.43 571.923 528.596C572.56 523.919 575.99 519.635 576.959 511.499L575.883 508.264C575.639 509.5 575.49 510.75 575.321 511.995C574.886 509.303 575.471 504.65 575.677 501.677Z" fill="#1F222F"/>
<path d="M575.677 501.677C576.192 493.713 574.188 490.001 571.048 483.072C570.491 481.841 570.514 480.6 571.095 479.378L573.163 482.599C576.809 491.803 578.41 501.635 576.959 511.499L575.883 508.264C575.639 509.5 575.49 510.75 575.321 511.995C574.886 509.303 575.471 504.65 575.677 501.677Z" fill="#413F48"/>
<path d="M602.551 266.472C604.619 270.392 606.978 274.982 608.115 279.289C607.315 279.58 606.519 279.919 605.686 280.039L604.755 280.45C605.064 286.949 605.34 290.986 603.716 297.382L602.045 294.747C601.231 290.572 603.81 275.491 600.131 271.659C597.459 272.322 596.242 276.192 593.457 276.459C593.925 275.54 601.039 268.592 602.551 266.472Z" fill="#171623"/>
<path d="M602.043 294.747C604.144 291.357 602.137 281.571 603.644 278.418C604.631 279.098 604.327 278.962 604.753 280.45C605.062 286.949 605.338 290.986 603.714 297.382L602.043 294.747Z" fill="#020102"/>
<path d="M574.229 506.255L575.675 501.677C575.47 504.65 574.885 509.303 575.32 511.995C575.488 510.75 575.638 509.5 575.881 508.264L576.958 511.499C575.989 519.635 572.558 523.919 571.922 528.596C571.056 530.351 567.443 534.818 565.973 536.25C565.903 535.187 570.265 528.385 571.019 525.96C573.139 519.12 573.658 513.339 574.229 506.255Z" fill="#363440"/>
<path d="M574.23 506.255C574.028 500.169 573.837 497.426 572.643 491.541C572.11 488.896 568.637 478.541 568.66 477.539L569.507 477.099L571.094 479.379C570.514 480.6 570.49 481.841 571.047 483.072C574.188 490.001 576.191 493.714 575.676 501.677L574.23 506.255Z" fill="#1F222F"/>
<path d="M575.25 475.422L576.21 480.01C577.122 482 580.459 486.429 580.52 487.646L580.338 488.049C578.728 486.593 577.97 486.312 575.849 486.831C574.904 484.729 574.619 484.378 573.163 482.599L571.094 479.378L569.508 477.098C571.459 478.025 572.484 479.111 574.282 479.107C575.349 477.571 575.044 477.51 575.25 475.422Z" fill="#171623"/>
<path d="M552.234 388.369C553.227 390.09 553.802 391.123 554.584 392.949C553.629 394.332 552.309 396.141 551.472 397.548C551.261 395.132 551.771 391.373 552.052 388.864L552.234 388.369Z" fill="#363C5D"/>
<path d="M558.835 476.583C560.96 476.682 563.445 476.991 565.593 477.211C570.676 487.618 573.049 501.812 570.713 513.254C569.997 517.505 569.595 520.74 567.901 524.752C566.698 529.443 559.954 538.067 556.181 541.554C556.925 539.794 557.908 537.617 558.493 535.833C566.89 510.267 544.621 503.76 558.835 476.583Z" fill="#1F222F"/>
<path d="M562.773 480.938C564.725 492.978 569.045 500.071 570.715 513.254C569.999 517.505 569.597 520.74 567.903 524.752C567.584 524.195 567.355 515.136 567.238 513.531C566.41 502.089 561.758 492.529 562.773 480.938Z" fill="#413F48"/>
<path d="M596.114 313.478C600.49 316.56 602.633 326.784 601.838 331.925C600.012 343.695 590.722 350.605 581.774 357.138C580.753 355.473 575.582 342.874 575.783 340.517C576.373 333.496 591.003 317.783 596.114 313.478Z" fill="#1F222F"/>
<path d="M595.036 324.259C597.058 330.382 587.319 344.17 582.325 347.924C581.918 345.93 584.019 343.095 585.217 341.494C589.584 335.646 592.331 331.005 595.036 324.259Z" fill="#413F48"/>
<path d="M596.696 334.647C598.1 341.266 590.757 348.688 584.261 349.933C584.21 349.662 584.135 348.733 584.364 348.539C589.222 344.427 593.046 339.811 596.696 334.647Z" fill="#454047"/>
<path d="M585.724 331.811L586.384 332.861C586.112 336.111 581.886 341.068 579.457 343.183L579.055 342.24C579.687 339.175 583.243 333.729 585.724 331.811Z" fill="#413F48"/>
<path d="M595.218 350.95L596.36 351.349C602.528 358.941 598.082 375.588 590.992 381.172C587.912 383.6 582.811 389.165 578.514 389.268C577.26 383.369 575.337 379.418 572.734 374.068C578.819 363.162 585.647 358.631 595.218 350.95Z" fill="#1F222F"/>
<path d="M592.944 364.097C594.648 369.426 583.05 381.018 578.314 383.394C578.262 382.481 578.141 381.491 578.885 380.768C584.459 375.361 588.671 370.605 592.944 364.097Z" fill="#413F48"/>
<path d="M592.236 385.212C598.722 397.595 588.674 412.856 577.062 417.34C575.775 417.837 575.031 418.316 573.725 417.804L572.752 415.402C571.746 411.153 569.995 408.312 567.992 404.437C573.828 395.421 583.184 391.371 592.236 385.212Z" fill="#1F222F"/>
<path d="M587.717 392.742C588.078 393.191 588.185 393.782 587.956 394.319C585.012 401.237 579.283 406.953 572.521 410.164L572.207 409.511C572.493 408.372 585.316 395.435 587.717 392.742Z" fill="#413F48"/>
<path d="M586.552 415.316C590.773 418.059 587.984 438.051 581.38 440.446C578.848 441.365 573.742 446.98 570.138 446.63L569.572 445.495C567.896 440.815 566.619 438.628 564.059 434.529C572.104 422.459 574.421 422.491 586.552 415.316Z" fill="#1F222F"/>
<path d="M583.996 425.001C584.426 431.297 575.538 437.783 570.278 439.57L570.18 439.053C570.606 437.715 572.295 436.703 573.395 435.786C577.401 432.448 580.78 429.131 583.996 425.001Z" fill="#413F48"/>
<path d="M559.397 365.904C567.681 370.829 573.728 382.851 575.689 392C573.423 393.889 571.186 395.817 568.987 397.783L565.116 401.229C556.177 389.918 550.21 379.484 559.397 365.904Z" fill="#171623"/>
<path d="M558.905 372.007C559.888 372.776 562.293 380.395 562.934 382.186C564.601 386.846 568.902 392.475 568.696 397.241C562.672 395.455 558.792 377.725 558.905 372.007Z" fill="#413F48"/>
<path d="M564.871 378.228C567.89 380.379 568.966 385.365 569.692 388.823C566.28 387.888 565.016 381.255 564.871 378.228Z" fill="#363440"/>
<path d="M556.443 395.824C563.496 404.641 568.532 409.653 570.624 421.136C567.263 424.468 565.059 426.62 563.135 431.034L562.565 432.135C559.518 431.5 553.621 421.398 552.624 418.297C549.877 409.751 552.558 403.335 556.443 395.824Z" fill="#1F222F"/>
<path d="M556.07 414.289L559.314 414.288C560.601 417.466 563.46 423.807 563.395 427.057L562.913 427.423C559.843 425.091 557.334 418.017 556.07 414.289Z" fill="#413F48"/>
<path d="M561.091 407.998C563.323 409.08 566.454 417.793 566.239 420.453C562.476 418.705 560.379 411.838 561.091 407.998Z" fill="#413F48"/>
<path d="M556.068 414.289C555.441 411.342 554.594 407.745 555.446 404.796L555.942 404.855C557.655 407.754 557.996 411.141 559.311 414.288L556.068 414.289Z" fill="#413F48"/>
<path d="M553.428 427.419C559.133 432.692 564.515 441.253 567.51 448.373C563.158 452.59 561.566 454.505 558.903 459.935L557.696 463.637C547.058 452.433 545.411 440.54 553.428 427.419Z" fill="#1F222F"/>
<path d="M553.734 435.721C554.633 436.534 555.218 439.548 555.695 440.957C556.893 444.465 558.803 447.509 560.113 450.934L559.173 450.645C555.518 447.271 554.034 440.509 553.734 435.721Z" fill="#413F48"/>
<path d="M554.446 475.156C554.726 475.596 552.026 486.031 551.567 487.047C547.084 497.014 562.163 524.724 557.113 531.386C556.458 530.557 556.346 529.331 556.088 528.212C555.911 526.503 553.917 522.103 553.112 520.618C546.031 507.604 542.174 493.751 550.842 480.24C552.031 478.381 552.854 476.911 554.446 475.156Z" fill="#1F222F"/>
<path d="M580.514 445.684L581.08 446.137C581.899 451.461 579.306 459.596 574.757 462.841C570.372 465.968 567.245 465.809 562.195 465.103L561.049 464.428C561.035 464.04 561.002 463.63 561.142 463.263C565.242 452.508 571.153 450.028 580.514 445.684Z" fill="#1F222F"/>
<path d="M570.757 364.064C567.162 357.751 559.398 351.065 561.724 342.228L562.042 342.309C563.662 344.836 564.378 348.453 565.216 351.425L566.236 352.023C566.924 351.087 567.027 348.204 567.237 346.697C570.373 345.454 570.78 346.142 573.719 347.699C575.816 351.252 579.425 356.651 578.549 360.83C576.336 362.464 575.067 365.539 573.148 366.358C573.041 366.182 571.506 365.36 570.757 364.064Z" fill="#171623"/>
<path d="M570.757 364.064C567.162 357.751 559.398 351.065 561.724 342.228L562.042 342.309C563.662 344.836 564.378 348.453 565.216 351.425C566.119 354.078 574.253 360.93 574.141 364.096C572.816 364.951 572.236 364.664 570.757 364.064Z" fill="#363440"/>
<path d="M567.238 346.697C570.374 345.454 570.781 346.142 573.72 347.699C575.817 351.252 579.425 356.651 578.55 360.83C578.251 360.621 577.792 360.286 577.619 359.974C575.12 355.438 567.982 351.29 567.238 346.697Z" fill="#363440"/>
<path d="M597.33 283.547C599.057 286.079 598.312 292.622 597.208 295.424C594.184 303.087 589.855 309.582 583.883 315.168L583.266 314.256C583.49 312.589 586.018 309.589 587.244 307.951C592.748 300.584 593.726 292.229 597.105 284.072L597.33 283.547Z" fill="#413F48"/>
<path d="M554.398 466.009C562.191 469.121 564.203 469.571 572.361 468.906C572.478 469.978 572.001 471.429 571.734 472.553C567.1 473.971 559.888 473.924 556.074 470.53C554.356 469.004 554.487 468.149 554.398 466.009Z" fill="#363C5D"/>
<path d="M567.828 309.294C572.639 310.564 578.092 320.848 578.836 325.532C575.485 322.446 569.246 313.538 567.828 309.294Z" fill="#413F48"/>
<path d="M560.641 315.841C561.755 316.439 572.261 328.803 572.945 330.086C567.567 328.902 561.614 321.239 560.641 315.841Z" fill="#363440"/>
<path d="M383.106 510.857C384.688 510.399 385.041 510.165 386.574 510.651C386.907 510.965 387.723 511.686 387.97 512L388.683 512.089L388.945 512.796C388.621 513.999 387.682 517.678 387.759 518.694C388.169 524.059 378.363 554.139 379.044 556.133L379.587 556.62L355.938 556.629C356.017 555.833 356.335 555.342 356.689 554.625L359.839 545.379C361.087 541.007 362.828 534.743 363.382 530.361C366.353 528.512 368.515 526.882 370.967 524.392C372.391 523.563 381.349 512.866 383.106 510.857Z" fill="#515772"/>
<path d="M383.107 510.857C384.689 510.399 385.042 510.165 386.575 510.651C386.908 510.965 387.724 511.686 387.971 512C387.283 513.933 386.653 517.533 386.388 518.212L385.416 518.048C383.752 519.397 382.43 521.255 381.152 522.973C375.919 530.005 368.134 534.598 363.028 541.76C362.041 543.142 361.215 544.354 359.84 545.379C361.088 541.007 362.829 534.743 363.383 530.361C366.354 528.512 368.516 526.882 370.968 524.392C372.392 523.563 381.349 512.866 383.107 510.857Z" fill="#363C5D"/>
<path d="M388.683 512.088L388.945 512.795C388.621 513.999 387.682 517.678 387.759 518.694C388.169 524.059 378.363 554.138 379.044 556.133L379.587 556.619L355.938 556.629C356.017 555.833 356.335 555.341 356.689 554.625C358.677 555.613 373.389 554.906 376.503 554.878C380.717 544.719 384.685 529.092 386.387 518.212C386.652 517.533 387.283 513.933 387.97 512L388.683 512.088Z" fill="#171623"/>
<path d="M627.051 555.903C627.089 545.032 627.678 486.017 632.288 480.123C635.214 483.24 637.891 547.167 638.887 555.842C650.616 556.919 673.366 556.034 686.064 556.1L685.937 556.563C665.312 557.059 642.159 556.774 621.426 556.601L627.051 555.903Z" fill="#1F222F"/>
<path d="M579.62 463.632C581.914 462.363 583.22 461.51 585.363 459.982C591.775 464.516 593.516 464.436 601.336 463.207C601.472 470.933 601.159 480.975 596.095 487.286L595.084 486.785C592.561 488.643 589.234 488.995 585.897 491.448C584.652 490.792 582.85 489.664 581.539 489.528C580.519 488.821 580.95 489.261 580.337 488.049L580.519 487.646C580.458 486.429 577.121 482 576.209 480.011L575.249 475.423C575.315 473.367 574.912 470.104 574.711 467.964C576.204 466.742 578.427 465.039 579.62 463.632Z" fill="#363C5D"/>
<path d="M593.865 474.542C593.986 478.775 594.538 482.595 595.086 486.785C592.563 488.643 589.236 488.994 585.899 491.448C584.654 490.792 582.852 489.664 581.542 489.528C580.521 488.821 580.952 489.261 580.339 488.049L580.521 487.646C580.461 486.429 577.124 482 576.211 480.011L577.208 475.034C579.515 475.624 582.51 476.19 584.195 477.866L585.983 478.021C587.902 476.406 591.412 475.366 593.865 474.542Z" fill="#888BA6"/>
<path d="M585.982 478.021L586.366 478.405C586.225 480.399 585.846 489.294 585.322 490.16C584.807 489.28 584.091 488.751 583.328 488.063C584.489 487.543 584.049 487.932 584.723 486.892C584.77 483.985 585.046 480.886 583.511 478.306L584.194 477.866L585.982 478.021Z" fill="#C5C6DA"/>
<path d="M583.67 466.136C584.489 467.005 584.48 467.141 584.877 468.316L584.985 468.639L585.58 468.765C586.005 468.052 586.286 467.504 586.651 466.77C586.824 469.955 588.191 470.919 591.219 470.582L591.233 471.111L590.307 471.64L590.222 472.197C591.238 472.197 591.921 472.127 592.895 472.445C592.539 473.04 586.291 476.059 585.111 476.682C582.453 474.664 580.941 474.004 577.988 472.576C579.28 472.469 579.846 472.66 580.67 471.935C580.104 471.284 579.687 470.877 579.299 470.095C580.445 470.615 580.642 470.821 581.817 470.605C582.636 469.102 582.383 469.29 581.849 467.215C582.795 466.82 581.807 468.208 583.806 468.981L583.67 466.136Z" fill="#F7F4F6"/>
<path d="M542.616 502.098C543.136 505.97 543.824 508.091 544.951 511.822C543.955 510.848 543.557 510.193 542.897 508.961C542.19 509.266 535.282 518.919 534.44 520.146C509.125 557.036 463.143 561.554 434.08 526.372C432.977 525.038 425.915 515.787 424.695 515.506C424.879 514.575 425.639 512.777 426.01 511.822C426.55 512.749 427.148 513.648 427.799 514.504C457.661 554.391 498.019 561.755 531.454 519.373C534.042 516.091 542.064 506.115 542.616 502.098Z" fill="#1F222F"/>
<path d="M582.326 460.163C583.206 459.602 584.531 458.43 585.42 458.883C593.02 462.759 594.485 463.551 602.704 460.525C603.696 480.184 601.96 486.56 585.897 497.983C590.512 497.112 592.651 496.499 597.106 494.575C598.009 492.337 601.417 487.96 603.443 486.635L604.08 486.719C604.74 487.993 604.697 488.199 604.852 489.659C605.694 490.347 606.462 490.329 607.557 490.488L607.805 491.204C606.205 493.826 604.038 494.776 604.871 497.505C600.322 503.077 589.974 506.77 582.953 505.31L583.627 504.074C582.977 502.491 582.972 500.567 582.855 498.84C582.654 497.487 583.337 497.824 583.145 497.332C582.382 495.371 581.844 496.045 582.396 494.111L583.047 493.924L581.264 491.827C580.922 490.165 580.782 490.741 581.54 489.528C582.85 489.664 584.652 490.792 585.897 491.448C589.234 488.994 592.562 488.643 595.084 486.785L596.095 487.286C601.159 480.975 601.473 470.933 601.337 463.207C593.517 464.436 591.776 464.515 585.364 459.982C583.22 461.51 581.914 462.362 579.621 463.632L579.663 462.835C580.529 461.298 580.843 461.15 582.326 460.163Z" fill="#C5C6DA"/>
<path d="M582.855 498.84C590.807 499.462 593.62 498.006 600.565 493.765L603.804 497.21C597.022 501.943 592.394 504.556 583.628 504.073C582.977 502.491 582.972 500.567 582.855 498.84Z" fill="#1F222F"/>
<path d="M600.087 495.338C600.78 495.581 600.667 495.717 601.173 496.499C600.471 498.451 597.775 500.08 596.104 501.166C595.238 500.324 595.28 500.319 594.742 499.214L595.131 498.456C597.274 497.618 598.262 496.733 600.087 495.338Z" fill="#A7ABC9"/>
<path d="M595.085 486.785L596.096 487.286C593.639 490.268 589.426 494.902 585.247 495.6C584.129 495.783 583.207 494.776 582.397 494.111L583.047 493.924L581.264 491.827C580.923 490.165 580.782 490.741 581.54 489.528C582.851 489.664 584.653 490.792 585.898 491.447C589.235 488.994 592.562 488.643 595.085 486.785Z" fill="#363440"/>
<path d="M602.707 489.64C603.343 490.895 603.535 490.932 604.757 491.77L605.103 492.004C605.239 493.339 604.658 493.577 603.666 494.926L600.966 492.444L600.938 491.424L602.707 489.64Z" fill="#363C5D"/>
<path d="M595.688 381.724C639.64 403.2 654.85 399.481 672.499 450.741C673.997 455.104 675.396 459.499 676.702 463.925C671.46 461.43 674.226 456.062 669.939 450.26C664.73 440.218 662.956 430.937 656.081 421.333C645.443 406.473 628.814 398.794 612.364 392.065C606.986 389.865 601.253 386.183 595.501 385.194C594.846 383.505 594.738 383.12 595.688 381.724Z" fill="#1F222F"/>
<path d="M388.947 512.795L390.029 513.048C391.299 517.533 392.243 520.993 394.396 525.192C392.727 528.507 388.233 549.799 387.103 554.939C393.468 556.765 396.492 555.66 401.805 556.587C395.331 556.919 386.256 556.634 379.589 556.62L379.046 556.133C378.365 554.138 388.171 524.059 387.762 518.694C387.684 517.678 388.623 513.999 388.947 512.795Z" fill="#1F222F"/>
<path d="M684.378 490.736C688.66 507.093 692.353 523.596 695.451 540.22C696.359 544.948 698.044 551.985 698.587 556.502C694.557 556.54 689.915 556.694 685.937 556.563L686.063 556.1C688.543 556.287 692.04 554.981 694.955 554.447C696.13 546.222 693.425 540.169 691.899 532.369C689.517 520.225 686.007 508.221 684.247 495.998C684.06 494.687 684.373 492.285 684.378 490.736Z" fill="#1F222F"/>
<path d="M669.938 450.26C674.225 456.062 671.459 461.43 676.7 463.925C678.891 471.335 681.975 481.049 683.501 488.446C680.917 485.951 679.48 477.894 677.669 474.041C674.178 466.611 672.123 458.19 669.938 450.26Z" fill="#363440"/>
<path d="M360.627 313.325C348.431 300.857 346.875 293.605 352.18 276.817C352.92 277.257 353.846 277.69 354.32 278.366C351.34 285.689 350.256 292.51 353.18 300.332C354.064 302.7 358.002 308.631 359.94 310.132L360.311 310.1C360.487 308.116 357.712 303.976 356.829 301.445C359.603 303.214 362.716 310.238 360.627 313.325Z" fill="#020102"/>
<path d="M605.684 280.039C606.517 279.918 607.312 279.579 608.113 279.289C610.406 287.826 610.317 290.231 608.815 299.116L606.306 298.618C608.796 291.667 608.272 286.815 605.684 280.039Z" fill="#020102"/>
<path d="M606.307 298.618L608.815 299.116C606.302 304.898 604.842 307.388 600.007 311.792C599.942 311.473 600.002 310.53 599.988 310.506C599.403 309.495 598.636 309.002 598.673 307.744L599.722 307.066C599.581 307.658 599.661 307.854 599.698 308.49L600.381 308.365C603.096 305.937 604.945 301.942 606.307 298.618Z" fill="#020102"/>
</svg>
