<svg width="802" height="496" viewBox="0 0 802 496" fill="none" xmlns="http://www.w3.org/2000/svg">
<path d="M305.295 178.814C306.762 170.201 309.791 160.895 310.794 152.337C314.882 117.454 322.403 80.9897 352.908 59.3055C375.186 43.4694 409.976 36.7755 432.144 56.2061C473.314 56.9283 485.005 106.128 489.286 138.824C491.075 152.521 492.069 165.769 495.654 179.228C496.789 183.499 497.267 188.157 498.664 192.436C497.451 193.94 497.275 193.808 497.521 196.097C497.564 196.477 497.611 196.856 497.662 197.235C497.036 200.434 498.782 211.918 499.318 215.701C501.913 234.007 502.476 247.528 497.322 265.271C497.584 266.036 498.363 266.656 498.969 267.245C496.656 269.565 494.938 271.152 493.114 273.889L493.181 274.493C509.306 280.41 532.609 290.258 539.486 307.041C551.912 337.363 557.682 370.327 562.781 402.565C566.64 426.2 569.952 449.397 571.717 473.086C553.674 473.771 535.228 472.953 517.145 473.282C514.151 473.337 510.887 473.329 507.893 473.235C506.652 462.549 505.216 451.886 503.58 441.255L502.938 441.603C501.318 448.903 499.784 465.383 499.521 473.173C465.517 473.869 429.506 473.239 395.365 473.251L336.352 473.274C326.158 473.278 315.085 473.501 304.956 473.235C305.205 464.514 303.752 452.552 302.36 443.826C302.207 442.887 302.065 442.464 301.771 441.552L301.067 441.223C299.847 451.914 298.028 462.631 297.375 473.196C276.897 473.599 253.404 473.544 232.914 473.153C234.992 447.89 238.78 422.512 242.95 397.527C246.588 376.016 250.273 354.212 256.387 333.249C259.642 322.092 264.463 304.055 272.755 295.63C281.023 287.229 298.406 280.283 309.281 275.85C309.987 275.456 309.737 275.728 310.091 275.044C309.237 273.455 307.111 271.712 305.724 270.435L306.874 269.122L307.387 269.175C307.724 268.127 306.013 263.916 305.554 262.525C300.319 252.073 302.488 225.017 303.619 212.947C303.99 208.987 307.683 181.961 307.086 180.643L306.53 181.222L305.295 178.814Z" fill="#6C2731"/>
<path d="M305.292 178.814C306.759 170.201 309.788 160.895 310.791 152.337C314.879 117.454 322.4 80.9897 352.905 59.3055C375.183 43.4694 409.973 36.7755 432.141 56.2061C473.311 56.9283 485.002 106.128 489.283 138.824C491.072 152.521 492.066 165.769 495.651 179.228C496.786 183.499 497.264 188.157 498.661 192.436C497.448 193.94 497.272 193.808 497.518 196.097C497.561 196.477 497.608 196.856 497.659 197.235C497.033 200.434 498.779 211.918 499.315 215.701C501.91 234.007 502.473 247.528 497.319 265.271C497.581 266.036 498.36 266.656 498.966 267.245C496.653 269.565 494.935 271.152 493.111 273.889L492.544 273.558C490.278 275.289 487.992 278.872 485.933 280.806C479.89 286.49 473.683 289.953 465.612 291.91C462.904 292.567 459.217 293.716 456.325 292.914L456.603 292.418C454.379 292.307 454.289 293.449 451.996 292.625C449.62 293.163 442.716 294.3 441.311 292.014C441.761 290.008 446.462 285.352 448.293 283.116L447.378 281.858C449.738 278.739 457.401 268.461 455.593 264.851C454.634 264.306 454.583 264.331 453.444 264.456L452.52 263.919C445.996 273.471 440.403 279.394 429.569 284.012C424.528 286.162 417.675 289.105 412.027 288.376L411.256 289.207C411.182 290.478 410.994 291.288 411.569 292.4C411.628 294.778 406.916 311.781 406.114 315.687L404.81 315.999C403.691 319.744 403.08 322.326 402.337 326.166C400.133 318.608 398.583 310.685 396.779 303.189C394.916 295.448 393.875 290.295 394.364 282.515C395.022 272.095 384.415 269.662 377.165 265.996C373.551 264.169 370.411 261.259 367.234 258.269C364.181 256.257 363.772 252.716 363.126 249.432L361.739 250.568C359.795 252.585 358.709 254.54 357.243 256.908C355.639 260.364 354.79 261.53 351.904 264.03C351.322 264.319 350.906 264.634 350.319 264.628C348.446 265.655 347.749 265.76 348.727 268.319C349.255 269.702 350.152 271.081 350.703 272.435L350.086 272.548C350.635 273.893 352.184 276.908 352.054 278.043C353.895 283.146 362.172 289.467 366.224 292.793C361.796 294.947 357.135 295.753 352.266 295.871C334.108 296.31 322.456 289.479 312.224 275.178C311.805 276.043 311.836 276.377 311.155 276.786L308.127 277.712L309.278 275.85C309.984 275.456 309.734 275.728 310.088 275.044C309.234 273.455 307.108 271.712 305.721 270.435L306.871 269.122L307.384 269.175C307.721 268.127 306.01 263.916 305.551 262.525C300.316 252.073 302.485 225.017 303.616 212.947C303.987 208.987 307.68 181.961 307.083 180.643L306.527 181.222L305.292 178.814Z" fill="#28262B"/>
<path d="M422.217 97.4434C423.919 100.62 425.469 104.396 427.536 107.322C433.375 115.581 441.68 124.3 448.714 131.549C450.107 133.485 451.269 135.297 452.514 137.186C454.111 139.608 456.444 145.775 458.13 147.269C459.128 151.121 460.365 155.612 460.338 159.596C458.228 171.341 457.719 183.371 453.34 194.739C450.26 206.985 440.98 216.303 431.814 224.247C410.138 239.925 396.291 242.031 373.87 224.962C357.594 213.487 349.372 196.518 346.742 177.097C347.922 171.448 347.736 164.775 349.303 159.108C351.151 152.425 353.661 144.899 357.312 138.991C362.721 129.116 374.713 121.55 384.649 116.803C397.027 110.889 412.303 107.323 422.217 97.4434Z" fill="#CB7453"/>
<path d="M364.278 169.212C380.18 167.565 387.383 180.455 369.565 183.89C364.676 184.402 354.826 183.417 353.657 177.306C353.386 175.892 353.73 174.43 354.603 173.285C356.878 170.276 360.836 169.784 364.278 169.212Z" fill="#C25A47"/>
<path d="M433.123 169.163C439.079 168.809 448.269 169.221 451.24 175.441C453.271 179.697 445.412 182.569 442.641 183.448C426.747 186.001 415.639 174.32 433.123 169.163Z" fill="#C25A47"/>
<path d="M370.638 136.739C374.636 136.495 387.908 137.433 388.891 142.138L388.296 142.72C384.837 143.943 378.796 142.119 375.065 141.317C367.588 140.348 360.414 143.991 357.123 143.134L356.871 142.54C359.311 138.698 366.394 137.408 370.638 136.739Z" fill="#541823"/>
<path d="M429.175 136.732C433.335 136.303 447.214 138.125 448.005 142.967C445.879 143.799 439.48 141.372 435.621 141.116C430.275 140.718 418.838 144.777 416.048 142.1C415.942 138.34 426.138 137.219 429.175 136.732Z" fill="#3F0D0B"/>
<path d="M428.946 149.872C430.622 149.944 432.277 150.464 433.177 151.926C436.007 156.519 434.179 160.379 430.524 163.157C423.087 162.236 423.913 153.951 428.946 149.872Z" fill="#541823"/>
<path d="M373.854 150.155C380.544 150.064 381.447 158.87 376.014 162.883C368.623 162.826 368.909 154.586 373.854 150.155Z" fill="#541823"/>
<path d="M423.33 194.562C423.628 194.782 423.792 195.037 424.043 195.335C422.868 197.798 416.986 200.827 414.426 201.7C403.103 205.563 393.315 204.605 382.554 199.366C382.131 198.82 382.204 198.821 381.969 198.14L382.33 197.645C384.523 197.608 388.522 200.388 390.818 200.914C401.902 203.453 414.34 201.835 423.33 194.562Z" fill="#541823"/>
<path d="M397.353 152.852C401.498 155.751 394.95 177.106 396.042 181.649C398.579 185.62 407.729 182.59 409.091 183.283L408.88 183.92C404.899 185.806 398.762 187.071 395.397 183.704C392.606 180.908 396.042 169.228 396.399 165.232C396.786 160.936 397.04 156.995 397.353 152.852Z" fill="#711408"/>
<path d="M408.04 210.238L409.519 210.139L409.907 210.585L409.511 211.149C405.594 212.854 401.398 212.727 397.277 212.108C396.149 211.746 396.419 211.998 395.707 211.2C396.858 210.563 402.13 211.423 404.008 211.129C405.543 210.889 406.521 210.654 408.04 210.238Z" fill="#7C200C"/>
<path d="M373.871 224.962C396.292 242.031 410.14 239.925 431.815 224.247L431.975 226.333C431.979 233.595 431.513 239.959 432.691 247.122L433.122 248.779C434.378 252.821 434.946 254.565 437.56 258.049C434.312 261.255 432.124 263.277 427.889 265.659C419.96 270.116 410.692 271.258 409.854 282.449C409.787 283.386 410.163 287.094 410.519 287.844C410.778 288.28 411.091 288.743 411.259 289.207C411.185 290.478 410.997 291.288 411.572 292.4C411.631 294.778 406.919 311.781 406.116 315.687L404.813 315.999C403.694 319.744 403.083 322.326 402.339 326.166C400.136 318.608 398.586 310.685 396.782 303.189C394.919 295.448 393.878 290.295 394.367 282.514C395.024 272.095 384.418 269.662 377.167 265.996C373.554 264.169 370.414 261.259 367.237 258.269C364.183 256.257 363.774 252.716 363.129 249.432C366.788 247.563 367.64 244.89 371.951 247.081C372.599 243.437 372.8 240.69 372.932 237.021C372.706 234.148 372.346 228.637 372.712 225.895L373.871 224.962Z" fill="#CB7453"/>
<path d="M373.87 224.962C396.291 242.031 410.139 239.925 431.814 224.247L431.974 226.333C431.978 233.595 431.512 239.959 432.69 247.122L433.121 248.779C429.822 250.364 424.941 251.413 421.281 251.59C401.09 252.566 388.07 245.946 373.413 233.272C373.064 234.159 373.01 235.994 372.931 237.021C372.705 234.148 372.345 228.637 372.711 225.895L373.87 224.962Z" fill="#A34C35"/>
<path d="M373.87 224.962C396.291 242.031 410.138 239.925 431.813 224.247L431.974 226.333C431.038 226.525 424.843 231.111 423.328 232.014C404.287 243.372 389.299 238.024 372.711 225.895L373.87 224.962Z" fill="#541823"/>
<path d="M363.129 249.431C366.788 247.563 367.64 244.89 371.951 247.08C370.596 251.737 370.125 254.329 367.237 258.268C364.183 256.256 363.774 252.716 363.129 249.431Z" fill="#541823"/>
<path d="M410.519 287.844C410.777 288.279 411.09 288.742 411.259 289.207C411.184 290.477 410.996 291.287 411.572 292.4C411.63 294.778 406.918 311.78 406.116 315.686L404.812 315.998C406.018 311.272 410.664 291.83 410.519 287.844Z" fill="#230507"/>
<path d="M453.339 194.738L455.573 194.688C457.926 198.172 453.73 199.832 462.978 203.175L464.505 202.988C465.225 202.835 465.945 202.69 466.657 202.505C467.73 203.448 467.918 205.239 467.961 206.725C468.493 225.221 465.777 242.815 460.65 260.565C459.839 263.378 457.303 267.296 456.192 270.03C455.393 273.472 451.108 280.691 448.294 283.115L447.378 281.856C449.738 278.737 457.401 268.46 455.593 264.85C454.634 264.304 454.583 264.329 453.444 264.455L452.521 263.917C445.996 273.47 440.403 279.393 429.57 284.011C424.529 286.161 417.675 289.104 412.028 288.374L411.257 289.206C411.088 288.741 410.775 288.279 410.517 287.843C410.161 287.093 409.785 283.385 409.851 282.448C410.689 271.257 419.957 270.115 427.887 265.658C432.121 263.276 434.309 261.253 437.558 258.048C434.943 254.564 434.376 252.82 433.119 248.778L432.689 247.12C431.511 239.958 431.977 233.593 431.973 226.332L431.812 224.246C440.979 216.302 450.258 206.983 453.339 194.738Z" fill="#1F181F"/>
<path d="M443.537 250.761C444.695 252.806 445.678 254.761 446.727 256.855C448.37 259.27 450.202 262.154 452.523 263.919C445.999 273.471 440.406 279.394 429.572 284.012C424.531 286.162 417.678 289.105 412.03 288.375C410.805 271.944 416.68 273.233 428.973 266.965C431.999 265.433 434.75 263.415 437.118 260.99C440.402 257.58 441.545 254.929 443.537 250.761Z" fill="#6C2731"/>
<path d="M432.691 247.12C434.406 246.387 434.37 246.181 436.378 246.907C437.975 247.484 440.993 249.609 442.233 250.778C441.102 253.243 439.275 255.927 437.56 258.048C434.946 254.564 434.378 252.82 433.122 248.778L432.691 247.12Z" fill="#541823"/>
<path d="M446.727 256.855C450.183 256.968 452.366 259.691 455.098 262.096L453.415 262.896C453.897 263.622 456.59 264.62 457.607 265.074C457.102 266.439 456.092 268.704 456.194 270.031C455.396 273.473 451.11 280.692 448.296 283.116L447.38 281.857C449.74 278.738 457.404 268.461 455.595 264.851C454.637 264.305 454.586 264.33 453.447 264.456L452.523 263.919C450.202 262.154 448.37 259.27 446.727 256.855Z" fill="#360814"/>
<path d="M352.055 278.043C351.16 277.017 348.579 272.394 348.072 271.104C337.04 243.058 336.673 209.367 341.22 179.88C342.214 173.436 342.669 164.958 344.778 158.773C345.671 161.925 342.762 170.724 345.967 173.503C346.208 174.664 346.445 175.963 346.742 177.097C349.371 196.518 357.593 213.486 373.87 224.962L372.711 225.895C372.345 228.637 372.704 234.147 372.93 237.02C372.799 240.69 372.597 243.437 371.949 247.08C367.638 244.89 366.786 247.563 363.127 249.432L361.74 250.567C359.796 252.585 358.71 254.54 357.244 256.908C355.639 260.364 354.791 261.53 351.904 264.03C351.323 264.319 350.907 264.634 350.32 264.628C348.447 265.655 347.75 265.759 348.728 268.319C349.256 269.702 350.153 271.08 350.704 272.435L350.087 272.548C350.636 273.892 352.185 276.908 352.055 278.043Z" fill="#1E171D"/>
<path d="M357.245 256.907C355.64 260.363 354.792 261.529 351.905 264.029C351.324 264.318 350.908 264.633 350.321 264.627C348.448 265.654 347.751 265.759 348.729 268.318C349.257 269.701 350.154 271.08 350.705 272.434L350.088 272.548C348.082 268.911 345.725 265.813 350.362 263.612C351.873 262.894 351.559 262.27 351.704 260.695C352.658 259.364 355.141 258.523 356.944 257.141L357.245 256.907Z" fill="#360814"/>
<path d="M342.556 189.457C352.204 191.571 349.209 202.161 343.626 201.442C342.74 202.222 342.167 202.985 340.984 202.823C340.639 201.107 342.184 200.176 342.299 198.064L341.368 197.284L341.36 196.334C342.478 195.628 343.066 195.873 344.574 195.845C342.963 195.057 342.568 195.217 341.855 193.879C342.233 191.988 342.14 191.318 342.002 189.38L342.556 189.457Z" fill="#CB7453"/>
<path d="M344.574 195.845L345.172 196.322C345.086 197.964 344.021 199.109 343.857 201.193L343.626 201.442C342.74 202.223 342.167 202.985 340.984 202.823C340.639 201.107 342.184 200.177 342.299 198.065L341.368 197.284L341.36 196.335C342.478 195.628 343.066 195.874 344.574 195.845Z" fill="#C58D71"/>
<path d="M344.038 172.145C344.619 175.082 347.464 185.982 346.622 188.161C345.256 189.119 344.799 188.588 343.582 187.596L342.554 189.457L342 189.38C342.061 187.444 342.211 185.716 342.39 183.785L342.454 182.113C342.564 179.357 343.504 174.998 344.038 172.145Z" fill="#A34C35"/>
<path d="M342.39 183.785C343.067 184.604 344.044 185.868 344.763 186.585L343.582 187.596L342.554 189.457L342 189.38C342.061 187.444 342.211 185.716 342.39 183.785Z" fill="#C58D71"/>
<path d="M342.455 182.112C343.805 183.599 344.919 184.453 344.764 186.584C344.045 185.868 343.068 184.604 342.391 183.785L342.455 182.112Z" fill="#6C2731"/>
<path d="M344.778 158.774C346.259 153.69 346.433 149.625 348.7 143.763C353.996 129.464 366.412 115.88 380.405 109.432C394.991 102.71 409.195 100.635 422.326 89.8032L422.596 89.5801L423.977 90.1398C426.979 100.167 431.7 106.573 438.666 114.425C439.445 115.303 441.946 118.144 442.705 118.795C445.296 122.072 449.065 126.42 451.171 129.809C450.369 130.356 449.457 130.941 448.713 131.549C441.68 124.3 433.375 115.581 427.535 107.322C425.469 104.396 423.919 100.619 422.216 97.4433C412.302 107.323 397.026 110.889 384.649 116.803C374.713 121.55 362.72 129.115 357.311 138.991C353.661 144.899 351.151 152.425 349.303 159.108C347.735 164.775 347.922 171.448 346.742 177.097C346.445 175.963 346.208 174.664 345.967 173.504C342.763 170.724 345.671 161.926 344.778 158.774Z" fill="#A34C35"/>
<path d="M344.778 158.774C346.259 153.69 346.433 149.625 348.7 143.763C353.996 129.464 366.412 115.88 380.405 109.432C394.991 102.71 409.195 100.635 422.326 89.8032L422.596 89.5801L423.977 90.1398C411.817 102.647 393.238 104.212 378.517 112.632C368.921 118.121 359.26 126.244 354.295 136.286C348.727 145.754 343.869 162.39 345.967 173.504C342.763 170.724 345.671 161.926 344.778 158.774Z" fill="#230507"/>
<path d="M465.21 189.799L465.531 189.142C466.701 189.792 467.285 190.086 468.33 190.976C468.744 190.728 469.148 190.538 469.605 190.386C471.966 192.526 471.586 200.089 467.547 201.014C466.662 201.217 465.12 202.288 464.506 202.989L462.979 203.176C453.731 199.833 457.926 198.173 455.574 194.688C456.561 193.093 456.537 191.65 458.502 191.054C459.347 190.799 460.247 189.988 460.897 189.397L461.214 189.104C462.228 189.375 463.938 189.909 464.921 189.925L465.21 189.799Z" fill="#C58D71"/>
<path d="M465.211 189.799C466.617 190.849 468.93 193.085 468.844 194.919L468.166 194.937C466.765 194.04 465.607 191.48 464.922 189.924L465.211 189.799Z" fill="#6C2731"/>
<path d="M461.324 190.251L461.464 190.364C461.461 191.681 459.241 195.251 458.263 196.152L457.648 195.292C458.032 194.086 460.392 191.45 461.324 190.251Z" fill="#6C2731"/>
<path d="M462.927 190.144L463.314 190.573C463.502 192.098 462.739 194.423 462.328 195.996C461.001 193.654 461.972 192.557 462.927 190.144Z" fill="#6C2731"/>
<path d="M464.223 192.026L464.857 192.643C465.3 193.894 464.951 194.595 464.599 195.902L464.188 195.572C463.691 194.566 464.059 193.224 464.223 192.026Z" fill="#7C200C"/>
<path d="M452 292.625C456.419 291.07 459.569 290.153 463.624 287.863C477.241 280.179 482.978 266.083 485.89 251.448C486.356 249.107 486.712 245.524 487.636 243.349L487.988 243.29C489.061 246.039 486.43 256.766 485.573 260.158C482.094 273.947 471.389 289.322 456.607 292.417C454.384 292.307 454.294 293.449 452 292.625Z" fill="#1E171D"/>
<path d="M422.598 89.5795C424.12 89.1144 423.885 88.8999 424.926 89.419C426.414 92.1684 428.668 97.8729 429.964 99.8407C434.472 106.694 440.817 114.079 446.085 120.47C445.232 120.174 443.572 119.246 442.707 118.795C441.948 118.143 439.447 115.303 438.668 114.425C431.701 106.573 426.981 100.167 423.979 90.1392L422.598 89.5795Z" fill="#300D10"/>
<path d="M451.173 129.809C452.699 132.212 453.693 133.975 455.012 136.487C456.527 140.185 457.494 143.298 458.132 147.269C456.445 145.775 454.112 139.607 452.515 137.185C451.271 135.296 450.108 133.485 448.715 131.549C449.458 130.941 450.37 130.355 451.173 129.809Z" fill="#C25A47"/>
<path d="M305.555 262.524C307.328 263.398 311.173 272.834 312.228 275.177C311.809 276.042 311.84 276.377 311.159 276.785L308.131 277.712L309.282 275.849C309.988 275.456 309.738 275.727 310.092 275.043C309.238 273.454 307.112 271.712 305.725 270.435L306.875 269.121L307.388 269.175C307.725 268.127 306.014 263.916 305.555 262.524Z" fill="#1E171D"/>
<path d="M455.014 136.487C454.908 135.418 454.971 134.794 455.037 133.715C458.626 139.526 460.09 146.296 460.501 153.042C460.607 154.767 461.264 158.192 460.34 159.596C460.368 155.612 459.131 151.121 458.133 147.269C457.495 143.298 456.528 140.185 455.014 136.487Z" fill="#360814"/>
<path d="M442.707 118.795C443.572 119.247 445.231 120.174 446.085 120.47C448.312 123.035 454.241 130.59 455.036 133.715C454.969 134.794 454.907 135.418 455.012 136.487C453.693 133.976 452.699 132.212 451.173 129.809C449.067 126.42 445.298 122.071 442.707 118.795Z" fill="#230507"/>
<path d="M461.217 189.104C459.832 185.402 462.008 182.524 465.315 184.743C466.614 186.516 466.266 187.266 465.534 189.142L465.213 189.799L464.924 189.924C463.941 189.909 462.231 189.375 461.217 189.104Z" fill="#EDA364"/>
<path d="M469.449 151.635C486.028 157.394 477.347 177.64 467.539 186.049C466.392 183.885 464.897 181.614 462.204 182.24C459.617 184.257 459.887 187.383 458.236 188.298L457.758 188.014C457.664 186.228 458.396 183.46 458.972 181.734C459.175 179.737 459.433 177.746 459.746 175.763C460.2 171.672 461.116 156.121 463.594 153.974C465.175 152.602 467.476 152.128 469.449 151.635Z" fill="#CB7453"/>
<path d="M460.781 174.582C461 175.299 460.953 175.088 461.442 175.72C463.129 175.045 462.166 168.244 465.853 167.395C469.333 170.659 467.669 171.451 469.176 174.315L467.372 177.375C464.585 177.545 463.751 177.511 460.992 177.091C459.982 179.059 460.225 180.258 458.973 181.735C459.176 179.737 459.434 177.746 459.748 175.764L460.781 174.582Z" fill="#C25A47"/>
<path d="M463.848 166.504C467.793 161.748 467.002 159.24 474.262 160.87C473.953 162.733 473.895 163.683 473.84 165.578C472.924 166.455 470.677 168.503 470.067 169.425C467.926 166.809 467.077 166.52 463.848 166.504Z" fill="#A34C35"/>
<path d="M463.055 165.225C464.848 160.642 470.077 155.273 474.265 160.869C467.004 159.24 467.795 161.747 463.85 166.503C467.079 166.52 467.928 166.809 470.069 169.425C470.233 171.509 470.351 172.447 469.177 174.315C467.67 171.45 469.333 170.659 465.854 167.394C462.167 168.244 463.13 175.045 461.443 175.72C460.953 175.088 461 175.299 460.781 174.582C461.779 171.58 461.544 169.138 463.055 165.225Z" fill="#541823"/>
<path d="M402.017 78.4066C402.752 78.2504 402.78 78.326 403.527 78.5123C403.191 79.1218 402.224 79.5081 401.578 79.6827C393.508 81.8716 387.547 83.8492 380.221 87.955C352.235 103.639 339.919 134.087 334.46 164.175C332.971 172.383 332.702 180.232 330.397 188.582L330.137 189.171C328.57 185.461 331.709 170.832 332.28 166.563C337.674 126.234 358.333 85.8612 402.017 78.4066Z" fill="#48464C"/>
<path d="M390.037 60.051C390.605 59.907 390.938 60.0299 391.522 60.134L391.717 60.8292C391.451 61.1157 390.993 61.623 390.58 61.6798C358.983 66.0283 339.914 90.5567 329.553 119.41C329.37 119.996 329.452 119.741 328.902 120.247C327.753 118.961 329.779 114.559 330.285 113.036C338.914 87.0932 361.939 63.2193 390.037 60.051Z" fill="#48464C"/>
<path d="M319.526 204.209C320.647 208.612 318.64 219.23 318.599 224.504C318.48 239.615 320.716 254.697 327.736 268.274C328.336 269.433 329.378 270.524 329.366 271.798L328.787 271.996C325.103 266.629 322.263 260.728 320.367 254.5C316.478 241.896 315.969 227.954 317.296 214.917C317.597 211.956 318.173 206.774 319.526 204.209Z" fill="#48464C"/>
<path d="M442.68 86.8223C453.881 89.3917 471.302 121.835 469.944 132.055C468.456 130.748 467.588 126.858 466.848 124.85C465.255 120.558 463.498 116.33 461.584 112.173C459.396 107.542 456.124 101.707 452.86 97.6698C450.367 94.5931 445.787 90.8275 442.86 87.988C442.789 87.5288 442.727 87.1401 442.68 86.8223Z" fill="#48464C"/>
<path d="M482.841 201.792C485.597 206.481 485.894 217.688 486.035 223.113C486.344 235.123 486.184 245.919 481.44 257.163L480.97 257.361C480.489 256.321 483.741 240.947 484.004 238.43C485.315 226 482.638 214.102 482.841 201.792Z" fill="#48464C"/>
<path d="M329.288 233.188C330.274 234.031 330.844 246.329 331.347 249.064C333.258 260.337 337.212 270.536 344.52 279.43C346.274 281.565 349.727 284.021 350.913 286.223C348.967 285.937 343.544 280.817 342.282 279.294C331.167 265.872 328.455 249.858 329.288 233.188Z" fill="#48464C"/>
<path d="M474.42 233.992L475.031 234.435C475.685 235.603 475.657 236.953 475.583 238.275C474.624 255.046 470.585 269.583 457.653 281.095L457.462 281.192L457.137 280.873C457.587 279.696 460.616 276.454 461.724 274.922C463.532 272.396 465.148 269.739 466.565 266.973C470.096 260.025 472.139 252.558 473.278 244.87C473.779 241.478 473.575 237.231 474.42 233.992Z" fill="#48464C"/>
<path d="M444.961 71.5501C447.301 71.5176 451.067 73.8906 452.98 75.0981C461.25 80.3152 470.041 95.1336 471.704 104.617C470.131 103.348 466.362 94.8987 464.883 92.4996C462.828 89.1203 460.62 85.1429 457.967 82.1832C454.675 78.5064 449.916 75.3855 445.693 72.8611C445.693 72.8611 445.024 71.6625 444.961 71.5501Z" fill="#48464C"/>
<path d="M430.208 64.8232C430.403 64.9892 430.881 65.6167 431.069 65.8527C432.11 70.543 428.736 79.5946 426.932 84.0911C426.301 83.8562 426.352 83.8633 425.941 83.3211C428.352 76.0223 429.096 72.4493 430.208 64.8232Z" fill="#1E171D"/>
<path d="M452.523 263.919L453.447 264.456C454.586 264.331 454.637 264.306 455.596 264.851C457.404 268.461 449.74 278.739 447.38 281.858L448.296 283.116C446.464 285.353 441.764 290.008 441.314 292.014C442.719 294.301 449.623 293.163 451.999 292.625C454.292 293.45 454.382 292.307 456.605 292.418L456.327 292.914C459.22 293.716 462.907 292.567 465.615 291.91C473.686 289.954 479.893 286.49 485.936 280.806C487.995 278.872 490.28 275.289 492.546 273.558L493.114 273.889L493.181 274.493C509.306 280.41 532.609 290.258 539.486 307.041C551.912 337.363 557.681 370.328 562.781 402.565C566.64 426.2 569.951 449.397 571.716 473.087C553.673 473.772 535.227 472.954 517.145 473.282C514.151 473.337 510.887 473.329 507.893 473.235C506.652 462.549 505.216 451.886 503.58 441.255L502.938 441.603C501.317 448.904 499.783 465.383 499.521 473.173C465.517 473.87 429.506 473.239 395.365 473.251L336.352 473.275C326.158 473.278 315.085 473.502 304.956 473.235C305.205 464.514 303.752 452.552 302.359 443.827L303.677 443.47C304.813 452.928 305.758 462.408 306.512 471.905C316.5 471.775 332.669 472.546 342.257 471.744C348.098 471.881 355.727 472.081 361.526 471.756C367.305 472.116 374.098 471.951 379.97 471.959L412.175 472.022L441.791 472.151C446.042 472.159 453.02 472.362 457.106 472.018L457.024 471.721C440.069 472.276 420.711 471.63 403.498 471.666L402.801 373.34L402.688 346.829C402.672 342.252 402.426 335.127 402.883 330.806C403.373 326.142 405.392 320.98 406.116 315.687C406.919 311.781 411.631 294.778 411.572 292.4C410.997 291.288 411.185 290.478 411.259 289.208L412.03 288.376C417.678 289.105 424.531 286.163 429.572 284.012C440.406 279.395 445.999 273.471 452.523 263.919Z" fill="#6C2731"/>
<path d="M471.979 471.563C477.204 461.268 484.096 451.075 488.773 440.678C498.034 420.108 505.094 397.409 508.711 375.225C510.672 392.774 508.922 406.044 505.779 423.306C505.075 427.182 501.811 438.553 501.501 441.473L502.938 441.602C501.317 448.903 499.783 465.382 499.521 473.172C465.517 473.869 429.506 473.238 395.365 473.25L336.352 473.274C326.158 473.277 315.085 473.501 304.956 473.234C305.205 464.513 303.752 452.551 302.359 443.826L303.677 443.469C304.813 452.927 305.758 462.407 306.512 471.904C316.5 471.774 332.669 472.545 342.257 471.743C348.098 471.88 355.727 472.08 361.526 471.755C367.305 472.115 374.098 471.95 379.97 471.958L412.175 472.021L441.791 472.15C446.042 472.158 453.02 472.361 457.106 472.017L457.024 471.72C461.365 471.344 467.498 471.543 471.979 471.563Z" fill="#541823"/>
<path d="M501.501 441.474L502.938 441.603C501.318 448.903 499.783 465.383 499.521 473.172C465.517 473.869 429.506 473.239 395.365 473.251L336.352 473.274C326.158 473.278 315.085 473.501 304.956 473.235C305.205 464.514 303.752 452.551 302.359 443.826L303.677 443.47C304.813 452.927 305.758 462.408 306.512 471.904C316.5 471.775 332.669 472.546 342.257 471.744C348.098 471.881 355.727 472.08 361.526 471.755C367.305 472.116 374.098 471.951 379.97 471.959L412.175 472.022L441.791 472.151C446.042 472.159 453.02 472.362 457.106 472.018C461.271 471.755 467.376 471.947 471.654 471.955C480.476 471.986 489.298 471.975 498.124 471.916C498.057 468.119 498.719 465.281 499.044 461.617C499.654 454.779 500.503 448.265 501.501 441.474Z" fill="black"/>
<path d="M520.165 344.059C520.42 352.994 514.643 361.976 513.989 370.528C513.813 372.861 514.451 379.238 514.666 381.883L516.584 404.134C517.84 420.519 518.071 436.279 520.948 452.602C521.981 458.469 521.895 465.257 522.979 471.602L554.283 471.563C557.876 471.559 566.693 471.332 569.891 471.7C566.169 472.252 555.011 472.021 550.862 472.025C536.834 472.107 522.803 472.017 508.776 471.755C507.978 467.629 507.872 463.139 507.347 458.947C506.604 453.064 505.77 447.168 504.96 441.293L503.578 441.254L502.936 441.602L501.5 441.473C501.809 438.553 505.073 427.182 505.778 423.306C508.921 406.044 510.67 392.774 508.709 375.225C509.038 372.908 506.866 352.694 506.596 348.654C508.67 352.109 509.735 361.753 509.919 365.855C510.31 366.992 510.31 367.722 511.152 368.221C513.418 366.085 518.075 348.999 520.165 344.059Z" fill="#541823"/>
<path d="M506.596 348.654C508.67 352.109 509.735 361.753 509.919 365.855C509.864 371.179 510.709 376.488 510.85 381.686C511.261 396.83 510.306 411.493 506.729 426.254C505.57 431.018 503.919 436.388 504.96 441.293L503.578 441.254L502.936 441.602L501.5 441.473C501.809 438.553 505.073 427.182 505.778 423.307C508.921 406.044 510.67 392.774 508.709 375.225C509.038 372.909 506.866 352.694 506.596 348.654Z" fill="#360814"/>
<path d="M493.18 274.492C509.305 280.409 532.608 290.257 539.485 307.04C551.912 337.362 557.681 370.326 562.78 402.564C566.64 426.199 569.951 449.396 571.716 473.086C553.673 473.771 535.227 472.952 517.145 473.281C514.15 473.336 510.886 473.328 507.892 473.234C506.651 462.548 505.215 451.885 503.579 441.254L504.961 441.293C505.771 447.168 506.605 453.063 507.348 458.947C507.873 463.139 507.978 467.629 508.777 471.755C522.804 472.017 536.835 472.107 550.863 472.025C555.011 472.021 566.17 472.252 569.892 471.7C571.109 469.253 565.242 426.038 564.499 420.852C562.405 406.721 560.025 392.633 557.36 378.596C552.976 354.723 547.645 329.877 538.334 307.402C531.489 290.889 508.581 282.297 493.086 275.785L493.18 274.492Z" fill="black"/>
<path d="M456.605 292.418L456.327 292.914C459.219 293.716 462.906 292.567 465.614 291.91C473.685 289.953 479.892 286.49 485.935 280.806C487.994 278.872 490.28 275.289 492.546 273.558L493.113 273.889L493.18 274.493L493.086 275.786C490.53 277.514 487.841 281.92 484.875 284.307C471.747 294.868 455.626 297.617 439.321 294.539C437.556 294.224 436.096 294.297 435.008 292.854C436.018 291.639 439.348 289.485 440.804 288.358C443.231 286.442 445.434 284.262 447.38 281.858L448.295 283.116C446.464 285.352 441.763 290.008 441.313 292.014C442.718 294.3 449.622 293.163 451.998 292.625C454.292 293.449 454.382 292.307 456.605 292.418Z" fill="#360814"/>
<path d="M452.521 263.919L453.445 264.456C448.478 279.82 427.124 284.522 424.165 288.982C424.455 291.643 414.588 334.543 413.551 336.337C413.046 332.88 422.212 295.081 423.617 288.39C422.083 288.593 413.214 290.135 412.103 291.38C411.891 291.615 411.696 292.095 411.571 292.401C410.995 291.288 411.183 290.478 411.257 289.208L412.028 288.376C417.676 289.105 424.529 286.163 429.57 284.012C440.404 279.395 445.997 273.471 452.521 263.919Z" fill="#360814"/>
<path d="M294.34 373.292C294.433 369.44 295.706 352.325 297.393 350.057C299.026 351.063 296.534 364.228 296.472 367.086C296.289 375.488 294.821 385.246 295.893 393.549C296.028 403.308 297.193 412.777 298.578 422.469C299.266 427.279 303.897 439.242 303.678 443.469L302.361 443.826C302.208 442.886 302.066 442.463 301.772 441.551L301.068 441.223C300.026 441.637 300.379 441.297 299.838 442.095C299.017 451.416 296.993 462.345 296.018 471.759C288.603 471.943 281.186 472.013 273.769 471.966C271.205 471.951 265.606 472.033 263.207 471.751C267.754 471.32 275.099 471.567 279.834 471.594C279.949 466.893 280.83 461.538 281.472 456.814L284.758 432.897C287.155 414.624 287.859 396.344 291.226 378.247C291.742 375.471 283.46 358.458 284.963 353.866L285.43 353.728C287.28 356.549 290.866 371.952 293.673 374.877L294.34 373.292Z" fill="#541823"/>
<path d="M294.337 373.292C294.431 369.44 295.704 352.325 297.391 350.057C299.023 351.063 296.532 364.228 296.47 367.086C296.287 375.488 294.818 385.246 295.89 393.549C296.026 403.308 297.191 412.777 298.576 422.469C299.264 427.279 303.894 439.242 303.676 443.469L302.359 443.826C302.206 442.886 302.064 442.463 301.77 441.551L301.066 441.223C300.023 441.637 300.377 441.297 299.836 442.095C301.158 431.253 295.443 418.382 294.64 407.277C294.092 399.687 293.761 392.48 294.105 384.844C294.191 382.957 292.582 380.702 292.955 379.047C293.308 379.309 293.465 379.395 293.841 379.614C294.247 378.29 294.274 374.837 294.337 373.292Z" fill="#360814"/>
<path d="M295.891 393.549C296.854 397.491 297.818 402.352 298.947 406.11C303.823 422.351 311.19 438.087 319.327 452.934C322.987 459.612 326.605 464.431 330.261 471.555C333.476 471.551 339.269 471.387 342.256 471.743C332.668 472.545 316.5 471.774 306.512 471.903C305.757 462.407 304.812 452.926 303.676 443.469C303.894 439.242 299.264 427.279 298.576 422.468C297.191 412.776 296.026 403.307 295.891 393.549Z" fill="#541823"/>
<path d="M361.742 250.567C364.687 259.001 369.544 264.54 377.638 268.117C387.52 272.484 394.719 274.215 392.422 287.671C388.343 290.798 367.249 280.555 363.217 277.088C360.064 274.376 357.703 271.808 355.204 268.488C354.095 267.01 352.995 265.524 351.906 264.03C354.792 261.53 355.641 260.364 357.246 256.908C358.712 254.54 359.798 252.585 361.742 250.567Z" fill="#6C2731"/>
<path d="M361.741 250.567L363.128 249.432C363.773 252.716 364.182 256.256 367.235 258.268C370.413 261.259 373.553 264.169 377.166 265.996C384.416 269.662 395.023 272.095 394.366 282.514C393.876 290.295 394.917 295.448 396.78 303.188C398.585 310.685 400.135 318.608 402.338 326.166C403.082 322.326 403.692 319.744 404.812 315.999L406.115 315.687C405.391 320.979 403.371 326.142 402.882 330.806C402.424 335.126 402.671 342.251 402.686 346.828L402.8 373.34L403.497 471.665C420.71 471.63 440.068 472.276 457.023 471.72L457.105 472.017C453.019 472.362 446.041 472.158 441.79 472.151L412.174 472.021L379.969 471.959C374.097 471.951 367.303 472.115 361.525 471.755C365.631 471.317 372.504 471.516 376.8 471.532L401.865 471.646C402.15 465.586 401.712 459.347 401.728 453.268C401.767 436.483 400.753 420.238 400.784 403.433C400.851 388.242 401.047 373.051 401.367 357.862C401.43 353.77 401.853 334.382 401.293 331.607C399.438 322.351 395.168 298.188 391.551 290.174C391.183 290.16 390.817 290.134 390.452 290.096C377.945 288.828 363.782 281.146 355.392 271.842C353.833 270.113 352.041 266.821 350.32 264.628C350.907 264.634 351.323 264.319 351.905 264.03C352.994 265.524 354.093 267.01 355.203 268.488C357.702 271.808 360.062 274.376 363.216 277.088C367.248 280.555 388.342 290.798 392.42 287.671C394.718 274.215 387.519 272.484 377.636 268.117C369.543 264.54 364.686 259.001 361.741 250.567Z" fill="#3C070E"/>
<path d="M309.281 275.85L308.13 277.712C302.379 279.65 298.016 282.463 292.914 284.535C270.348 293.699 266.26 306.545 259.464 328.313C256.231 338.972 253.447 349.762 251.117 360.653C250.386 364.214 250.038 367.887 249.328 371.469C244.141 397.088 239.967 422.904 236.816 448.856C235.804 456.571 235.481 464.259 234.334 471.947C243.959 471.951 253.582 471.885 263.206 471.751C265.605 472.033 271.204 471.951 273.768 471.967C281.185 472.014 288.602 471.943 296.017 471.759C296.992 462.345 299.016 451.416 299.837 442.096C300.378 441.297 300.025 441.638 301.067 441.223C299.847 451.913 298.028 462.631 297.375 473.196C276.897 473.599 253.404 473.544 232.914 473.153C234.992 447.889 238.78 422.512 242.95 397.527C246.588 376.015 250.273 354.212 256.387 333.248C259.642 322.092 264.463 304.055 272.755 295.63C281.023 287.228 298.406 280.283 309.281 275.85Z" fill="black"/>
<path d="M350.704 272.435C353.721 279.541 357.563 284.476 364.297 288.694C366.043 289.787 369.329 291.345 370.66 292.611C369.931 293.935 367.331 294.596 365.915 295.085C345.17 302.254 323.256 294.786 311.156 276.785C311.837 276.377 311.806 276.042 312.225 275.177C322.458 289.479 334.109 296.31 352.268 295.87C357.136 295.753 361.798 294.947 366.226 292.793C362.174 289.467 353.897 283.145 352.055 278.043C352.185 276.908 350.636 273.892 350.087 272.548L350.704 272.435Z" fill="#360814"/>
<path d="M305.296 178.812L306.531 181.221L306.504 181.583C306.184 185.444 303.004 196.41 301.999 200.746C296.863 222.89 291.583 249.757 306.875 269.121L305.725 270.434C285.338 243.104 298.634 208.998 305.296 178.812Z" fill="black" fill-opacity="0.984314"/>
<path d="M497.661 197.235C497.61 196.856 497.563 196.477 497.52 196.097C497.273 193.808 497.449 193.94 498.663 192.436C503.719 213.36 513.563 243.817 501.547 263.497C500.768 264.799 499.903 266.051 498.968 267.245C498.361 266.656 497.583 266.036 497.32 265.271C498.142 265.145 498.729 264.478 499.172 263.796C510.303 246.669 504.365 223.895 499.868 205.543C499.175 202.72 498.138 200.526 497.727 197.706L497.661 197.235Z" fill="black" fill-opacity="0.988235"/>
</svg>
