<svg width="799" height="494" viewBox="0 0 799 494" fill="none" xmlns="http://www.w3.org/2000/svg">
<g clip-path="url(#clip0_9359_14601)">
<path d="M352.418 260.803C353.702 260.953 358.026 264.176 359.411 265.251C374.265 276.781 393.195 282.564 412.118 278.608C417.407 277.524 422.512 275.689 427.282 273.159C430.192 271.62 445.574 260.892 446.701 260.804C446.779 260.836 446.857 260.869 446.935 260.901C471.139 266.25 510.043 273.28 513.105 304.242C513.315 306.66 513.506 313.436 514.903 314.836C522.208 319.381 539.439 329.614 531.361 340.138L532.738 341.004C541.872 344.637 581.385 363.469 587.106 368.943L590.293 371.639C597.535 379.102 603.436 387.761 607.73 397.234C616.728 416.778 621.338 446.204 624.938 467.582C626.08 474.362 628.417 487.407 628.939 493.875H554.329H550.694H401.717H397.138H248.429H244.62H169.938C171.003 486.678 172.228 479.652 173.398 472.478C177.041 450.136 181.409 420.742 190.18 399.898C193.09 393.157 196.721 386.755 201.008 380.797C202.908 378.149 206.363 373.753 208.877 371.725C209.769 371.066 210.964 369.906 211.814 369.129C228.901 358.304 246.918 349.02 265.651 341.389C266.194 341.241 267.133 340.515 267.657 340.155C266.188 338.206 265.452 335.665 265.805 333.274C267.263 323.396 278.812 319.313 284.747 314.263L285.015 314.031C286.128 305.637 285.702 301.029 289.221 292.697C297.367 274.658 320.771 268.853 338.141 264.01C342.029 262.926 349.407 262.131 352.418 260.803Z" fill="#23242C"/>
<path d="M446.703 260.805C446.781 260.837 446.859 260.87 446.937 260.902C471.141 266.251 510.045 273.281 513.107 304.243C513.318 306.661 513.509 313.437 514.905 314.837C522.21 319.382 539.441 329.615 531.364 340.139L532.74 341.005C541.874 344.638 581.387 363.47 587.108 368.944L590.295 371.64C597.537 379.103 603.438 387.762 607.732 397.235C616.73 416.779 621.34 446.205 624.94 467.583C626.082 474.363 628.419 487.408 628.941 493.876H554.331H550.697H401.719C401.707 490.112 401.309 459.325 401.988 457.713C402.448 457.483 404.273 456.586 404.254 456.032C404.012 448.846 402.971 443.443 403.731 436.187C402.698 434.818 402.429 434.358 400.989 433.398L398.127 433.316C397.432 432.325 391.964 419.05 391.723 417.965C390.716 415.839 387.466 412.106 388.526 410.116L390.432 409.656C390.58 405.923 390.748 401.355 391.231 397.703L392.027 397.266L392.386 396.299L391.945 395.347C393.248 393.673 395.451 386.512 396.13 384.158L396.473 383.244C397.37 381.283 398.17 378.104 399.223 376.411L399.897 376.504C400.611 375.252 401.461 373.15 402.07 371.768C403.899 365.831 411.06 342.637 414.484 338.951C418.786 334.316 425.915 329.888 430.884 325.491C434.195 322.865 437.007 320.114 440.049 317.204L440.79 316.418C443.54 314.016 447.14 309.846 450.038 307.025C450.744 305.943 450.646 305.515 450.681 304.193C450.377 301.312 449.858 298.859 449.289 296.031C448.138 292.322 447.842 285.729 447.386 281.617C447.374 277.538 446.996 272.863 446.941 268.541C446.988 266.134 447.179 263.11 446.703 260.805Z" fill="#23242C"/>
<path d="M581.444 376.608C583.024 375.835 586.007 370.717 587.107 368.943L590.294 371.639C597.536 379.103 603.437 387.761 607.731 397.234C616.729 416.779 621.339 446.204 624.939 467.582C626.081 474.362 628.417 487.407 628.94 493.875H554.33H550.695C551.23 484.357 552.407 476.145 553.628 466.806C557.762 435.211 564.478 408.2 579.923 380.098L581.444 376.608Z" fill="#23242C"/>
<path d="M581.444 376.608C583.024 375.835 586.007 370.717 587.107 368.943L590.294 371.639C565.598 405.192 557.829 453.281 554.33 493.875H550.695C551.23 484.357 552.407 476.145 553.628 466.806C557.762 435.211 564.478 408.2 579.923 380.098L581.444 376.608Z" fill="#4476D9"/>
<path d="M402.07 371.767C403.899 365.83 411.06 342.637 414.484 338.95C418.786 334.315 425.915 329.888 430.884 325.49C433.15 327.185 436.59 330.791 438.762 332.914L437.752 333.876C435.572 336.322 432.405 339.153 430.627 341.27L429.152 342.542C427.577 344.311 423.708 348.039 422.912 349.829L423.727 350.655C425.108 352.971 429.659 360.076 431.446 361.977L432.156 362.727C432.893 364.364 437.284 371.209 438.723 371.863L438.661 372.108C436.98 372.955 436.036 375.388 434.811 376.971L434.141 377.985C432.799 379.62 431.765 381.098 430.564 382.823L429.589 384.06C428.692 385.788 428.228 386.852 426.918 388.286L429.538 389.017C429.152 390.642 428.528 391.301 427.53 392.631C421.278 400.156 405.26 426.723 403.731 436.186C402.698 434.817 402.429 434.357 400.989 433.397L398.127 433.315C397.432 432.324 391.964 419.049 391.723 417.965C390.716 415.839 387.466 412.105 388.526 410.116L390.432 409.655C390.58 405.922 390.748 401.354 391.231 397.702L392.027 397.266L392.386 396.298L391.945 395.346C393.248 393.673 395.451 386.511 396.13 384.158L396.473 383.244C397.37 381.282 398.17 378.103 399.223 376.41L399.897 376.503C400.611 375.251 401.461 373.149 402.07 371.767Z" fill="#313D6B"/>
<path d="M421.296 386.807C421.339 385.279 421.074 385.319 421.924 384.359C423.925 383.673 427.217 384.043 429.588 384.06C428.691 385.788 428.227 386.853 426.916 388.287L429.537 389.018C429.151 390.642 428.527 391.301 427.529 392.632C421.277 400.157 405.259 426.723 403.73 436.187C402.697 434.818 402.427 434.357 400.988 433.398C401.959 431.677 403.012 428.4 403.718 426.477C407.455 416.295 413.367 407.405 418.859 398.156C418.835 397.886 418.808 397.617 418.785 397.348L417.439 396.763L417.392 396.271C418.434 395.503 419.163 395.659 420.606 395.479C421.538 393.95 421.289 388.983 421.296 386.807Z" fill="#8D929E"/>
<path d="M421.296 386.807C421.339 385.279 421.074 385.319 421.924 384.359C423.925 383.673 427.217 384.043 429.588 384.06C428.691 385.788 428.227 386.853 426.916 388.287L429.537 389.018C429.151 390.642 428.527 391.301 427.529 392.632C426.441 392.039 425.079 391.754 423.863 391.426L421.522 394.219C421.558 391.45 421.546 389.6 421.296 386.807Z" fill="#1D2447"/>
<path d="M423.863 391.425C424.659 390.422 425.841 388.63 426.917 388.285L429.538 389.016C429.152 390.641 428.528 391.3 427.529 392.63C426.441 392.037 425.08 391.752 423.863 391.425Z" fill="#7E8392"/>
<path d="M432.852 369.782C431.078 365.336 416.05 346.369 415.805 342.992C416.565 342.155 416.175 342.399 417.361 342.17C419.545 343.475 420.793 347.932 422.911 349.829L423.726 350.655C425.107 352.971 429.658 360.075 431.444 361.976L432.154 362.727C432.891 364.363 437.283 371.209 438.722 371.863L438.66 372.108C436.979 372.955 436.035 375.388 434.81 376.971C434.935 374.307 435.824 370.532 432.852 369.782Z" fill="#1D2447"/>
<path d="M402.07 371.768L402.631 372.075C402.549 373.724 401.594 375.472 401.021 377.043C397.752 385.978 395.194 395.159 392.717 404.334C391.773 407.842 393.037 415.168 391.723 417.965C390.716 415.839 387.466 412.105 388.526 410.116L390.432 409.656C390.58 405.922 390.748 401.354 391.231 397.703L392.027 397.266L392.386 396.298L391.945 395.346C393.248 393.673 395.451 386.511 396.13 384.158L396.473 383.244C397.37 381.282 398.17 378.103 399.223 376.41L399.897 376.503C400.611 375.252 401.461 373.149 402.07 371.768Z" fill="#1D2447"/>
<path d="M432.854 369.781C435.826 370.531 434.937 374.305 434.812 376.969L434.142 377.984C433.416 376.447 433.638 373.437 433.646 371.618C430.253 371.709 427.971 371.998 424.707 371.017L424.847 370.563C427.964 369.573 429.617 369.814 432.854 369.781Z" fill="#8193CC"/>
<path d="M420.976 382.627C423.558 382.572 428.223 382.331 430.567 382.823L429.592 384.059C427.22 384.042 423.929 383.672 421.928 384.358C421.077 385.318 421.343 385.278 421.3 386.806C421.292 388.982 421.542 393.949 420.609 395.478C420.024 392.19 420.372 385.903 420.976 382.627Z" fill="#8193CC"/>
<path d="M429.152 342.542C427.245 340.708 422.202 336.288 421.719 334.066L422.128 333.809C424.383 335.024 428.579 339.314 430.627 341.269L429.152 342.542Z" fill="#6370A2"/>
<path d="M430.885 325.49C433.151 327.185 436.591 330.791 438.763 332.914L437.753 333.876C435.538 331.985 432.816 329.798 431.045 327.474C430.425 326.662 430.663 326.537 430.885 325.49Z" fill="#4E5B8B"/>
<path d="M402.074 405.891C403.836 405.645 405.471 406.858 405.744 408.618C406.02 410.373 404.839 412.027 403.088 412.336C401.925 412.538 400.744 412.102 399.999 411.189C399.254 410.276 399.055 409.031 399.488 407.931C399.917 406.835 400.907 406.055 402.074 405.891Z" fill="#8193CC"/>
<path d="M469.158 301.812L469.657 303.137C471.884 307.162 474.135 311.39 476.432 315.356L476.787 316.406C477.602 317.7 478.417 318.93 479.076 320.312C477.079 323.418 475.57 325.642 473.312 328.553L472.547 329.746C470.211 333.06 467.746 336.712 465.172 339.801L463.967 341.296C461.693 343.989 458.909 347.364 456.834 350.183L455.535 351.501C454.774 353.173 450.375 357.895 448.92 359.543L447.762 360.724C445.309 363.793 440.707 368.967 438.725 371.863C437.286 371.21 432.895 364.364 432.157 362.727L431.448 361.977C429.661 360.076 425.11 352.972 423.729 350.655L422.914 349.83C423.71 348.039 427.579 344.311 429.154 342.543L430.629 341.27C432.407 339.154 435.574 336.322 437.754 333.877L438.764 332.914C436.592 330.791 433.152 327.186 430.886 325.491C434.197 322.865 437.009 320.114 440.051 317.203L440.792 316.417C443.542 314.015 447.142 309.846 450.04 307.025C450.746 305.943 450.648 305.515 450.683 304.193L450.827 305.656C451.046 306.637 456.568 312.216 457.676 313.404C461.467 309.645 465.289 305.377 469.158 301.812Z" fill="#8193CC"/>
<path d="M469.654 303.137C471.881 307.162 474.132 311.39 476.429 315.356C474.077 316.202 469.9 321.412 467.993 323.568C465.06 320.245 461.905 317.122 458.559 314.218C460.204 313.019 467.989 305.077 469.654 303.137Z" fill="#313D6B"/>
<path d="M430.673 343.158C432.806 346.482 436.936 350.068 439.901 352.781C438.04 354.658 432.447 360.004 431.445 361.976C429.659 360.075 425.107 352.971 423.727 350.654C425.583 349.283 429.222 345.053 430.673 343.158Z" fill="#313D6B"/>
<path d="M440.643 353.652C443.233 356.222 444.867 358.25 447.761 360.722C445.308 363.792 440.705 368.966 438.724 371.862C437.285 371.208 432.893 364.363 432.156 362.726C434.489 360.899 438.865 356.054 440.643 353.652Z" fill="#313D6B"/>
<path d="M440.048 317.202L440.789 316.416C442.934 317.769 446.152 321.192 448.086 323.124L447.057 324.398C444.362 327.206 441.554 330.23 438.761 332.913C436.589 330.79 433.149 327.185 430.883 325.49C434.194 322.864 437.006 320.113 440.048 317.202Z" fill="#313D6B"/>
<path d="M440.051 317.202L440.792 316.416C442.937 317.769 446.155 321.192 448.089 323.124L447.059 324.398C445.066 322.666 441.56 319.277 440.051 317.202Z" fill="#6370A2"/>
<path d="M450.036 307.023C452.037 309.323 454.658 312.161 456.916 314.216C453.972 317.366 451.183 320.122 448.086 323.124C446.152 321.192 442.934 317.769 440.789 316.416C443.539 314.014 447.139 309.844 450.036 307.023Z" fill="#313D6B"/>
<path d="M458.352 335.758C460.178 337.647 462.05 339.493 463.965 341.293C461.691 343.987 458.906 347.362 456.831 350.181L455.533 351.499C452.658 349.32 451.527 347.505 448.941 345.315C449.53 344.907 449.682 344.584 450.131 344.001C452.791 341.234 455.505 338.317 458.352 335.758Z" fill="#313D6B"/>
<path d="M448.941 345.316C449.53 344.908 449.682 344.585 450.131 344.002C451.66 345.547 455.123 349.086 456.831 350.182L455.533 351.5C452.658 349.321 451.527 347.506 448.941 345.316Z" fill="#6370A2"/>
<path d="M468.047 325.252C469.795 327.385 470.403 328.01 472.544 329.745C470.208 333.058 467.743 336.71 465.169 339.799L463.964 341.294C462.049 339.493 460.177 337.648 458.352 335.758L459.323 334.479C460.961 332.418 465.774 327.871 468.047 325.252Z" fill="#313D6B"/>
<path d="M459.323 334.48C461.44 336.149 463.422 338.68 465.169 339.801L463.964 341.296C462.049 339.495 460.177 337.649 458.352 335.76L459.323 334.48Z" fill="#6370A2"/>
<path d="M448.942 345.316C451.528 347.506 452.659 349.322 455.533 351.5C454.773 353.173 450.373 357.895 448.919 359.542C446.454 357.453 444.192 355.14 441.891 352.868C444.235 350.492 446.657 347.781 448.942 345.316Z" fill="#313D6B"/>
<path d="M476.785 316.404C477.6 317.699 478.415 318.929 479.074 320.311C477.077 323.416 475.568 325.64 473.31 328.551C471.867 327.134 470.447 325.695 469.047 324.237C471.578 321.579 474.16 318.968 476.785 316.404Z" fill="#313D6B"/>
<path d="M457.914 315.395C460.983 318.334 463.986 321.341 466.923 324.414C464.247 327.393 461.287 330.279 458.452 333.119L457.251 334.658C455.328 336.485 450.893 341.672 448.92 342.755C447.516 342.061 440.39 334.891 440.168 333.797C442.001 331.186 445.418 328.392 447.687 325.695L447.945 325.383L449.263 324.192C451.49 321.806 455.515 317.247 457.914 315.395Z" fill="#313D6B"/>
<path d="M457.912 315.395C460.982 318.334 463.985 321.341 466.922 324.414C464.246 327.393 461.286 330.279 458.45 333.119C455.369 330.407 452.105 327.147 449.262 324.192C451.489 321.806 455.514 317.247 457.912 315.395Z" fill="#313D6B"/>
<path d="M449.264 324.191C452.107 327.146 455.371 330.406 458.452 333.118L457.251 334.657C454.174 331.54 451.073 328.449 447.945 325.382L449.264 324.191Z" fill="#6370A2"/>
<path d="M438.782 334.971C439.254 335.218 447.167 343.348 447.744 344.149C446.582 346.162 442.557 349.931 440.728 351.548C438.337 349.555 434.043 344.952 431.59 342.562L438.782 334.971Z" fill="#313D6B"/>
<path d="M446.94 268.539C459.335 270.405 482.147 276.782 489.912 287.342C492.662 291.082 492.72 296.145 492.014 300.549C489.432 316.595 464.6 344.456 453.789 357.489C449.194 363.028 444.861 369.205 439.709 374.238C439.183 373.535 438.988 372.916 438.66 372.107L438.723 371.861C440.704 368.965 445.306 363.791 447.759 360.722L448.918 359.541C450.372 357.893 454.772 353.171 455.532 351.499L456.831 350.181C458.906 347.362 461.691 343.987 463.964 341.294L465.169 339.799C467.744 336.71 470.208 333.058 472.545 329.744L473.309 328.551C475.567 325.64 477.077 323.416 479.073 320.31C478.414 318.928 477.599 317.698 476.784 316.404L476.429 315.354C474.132 311.388 471.882 307.16 469.655 303.135L469.155 301.81C465.286 305.375 461.464 309.643 457.673 313.402C456.566 312.214 451.043 306.635 450.825 305.654L450.68 304.191C450.376 301.31 449.857 298.857 449.288 296.028C448.138 292.32 447.841 285.727 447.385 281.615C447.373 277.536 446.995 272.861 446.94 268.539Z" fill="#090F1B"/>
<path d="M447.387 281.617C450.242 283.563 457.383 283.069 461.209 287.152L469.157 301.813C465.288 305.378 461.466 309.645 457.675 313.404C456.568 312.217 451.045 306.637 450.827 305.656L450.682 304.193C450.378 301.313 449.859 298.86 449.29 296.031C448.139 292.322 447.843 285.73 447.387 281.617Z" fill="#313D6B"/>
<path d="M447.387 281.617C450.242 283.563 457.383 283.069 461.209 287.152C459.84 289.27 459.196 291.394 458.104 293.63C456.158 297.603 453.584 302.177 450.827 305.656L450.682 304.193C450.378 301.313 449.859 298.86 449.29 296.031C448.139 292.322 447.843 285.73 447.387 281.617Z" fill="#1D2447"/>
<path d="M523.379 347.553C527.439 345.901 530.267 344.717 532.739 341.004C541.873 344.637 581.386 363.469 587.107 368.943C586.007 370.717 583.024 375.835 581.444 376.608C568.41 368.646 553.071 361.864 539.366 355.201C534.151 352.666 528.453 350.282 523.379 347.553Z" fill="#23242C"/>
<path d="M459.279 373.485C465.976 371.682 481.666 363.845 488.819 360.597L510.722 350.709C515.613 348.508 527.325 343.363 531.362 340.139L532.739 341.004C530.266 344.717 527.438 345.901 523.378 347.553C521.577 347.409 519.014 348.521 518.382 350.281C517.996 351.905 518.031 351.62 516.729 352.736C511.463 357.25 462.497 385.738 458.866 384.918L458.624 381.077C458.577 379.113 459.057 375.556 459.279 373.485Z" fill="#090F1B"/>
<path d="M455.159 369.577C455.588 366.807 455.572 364.257 458.875 363.838C461.301 365.508 460.537 367.461 459.96 369.975L459.281 373.484C459.059 375.556 458.579 379.113 458.626 381.077C457.144 390.122 459.94 407.057 460.794 416.517C461.882 428.24 461.933 440.033 460.95 451.763C459.476 451.837 457.787 451.716 456.29 451.646C458.868 422.79 450.954 397.999 455.159 369.577Z" fill="#F5F6F8"/>
<path d="M518.383 350.279C519.015 348.519 521.577 347.408 523.379 347.552C528.453 350.281 534.151 352.664 539.366 355.199C553.071 361.862 568.41 368.645 581.444 376.606L579.923 380.096C577.79 379.353 565.797 372.688 563.012 371.251C553.925 366.645 544.763 362.195 535.524 357.901C530.637 355.615 523.348 352.081 518.383 350.279Z" fill="#F5F6F8"/>
<path d="M513.108 304.242C513.319 306.66 513.51 313.436 514.906 314.836C514.134 316.131 513.654 319.847 512.281 322.639C507.266 332.826 485.117 352.255 474.805 355.346C485.881 347.176 502.636 328.886 508.767 316.754C510.959 312.42 511.154 306.678 513.108 304.242Z" fill="#090F1B"/>
<path d="M456.288 451.646C457.786 451.717 459.475 451.838 460.949 451.764C460.988 455.208 461.218 463.525 457.618 465.187C454.104 463.65 455.898 454.888 456.288 451.646Z" fill="#4476D9"/>
<path d="M455.158 369.576C453.903 368.406 452.853 366.803 453.142 365.249C455.209 354.084 467.846 362.255 462.03 369.358C461.656 369.814 460.642 370.016 459.959 369.974C460.537 367.46 461.301 365.508 458.875 363.838C455.572 364.257 455.587 366.807 455.158 369.576Z" fill="#4476D9"/>
<path d="M434.812 376.972C436.037 375.389 436.98 372.957 438.661 372.109C438.989 372.918 439.184 373.538 439.71 374.241C438.966 375.351 438.108 376.459 437.277 377.507C434.551 380.941 432.281 385.715 429.539 389.019L426.918 388.287C428.228 386.853 428.693 385.789 429.59 384.061L430.565 382.825C431.766 381.1 432.799 379.621 434.141 377.987L434.812 376.972Z" fill="#090F1B"/>
<path d="M211.814 369.129C212.897 370.469 216.604 376.145 217.26 376.683C217.946 377.865 218.507 378.854 219.116 380.085C220.018 382.312 221.453 384.591 222.565 386.777C239.319 419.739 245.672 457.232 248.429 493.874H244.62H169.938C171.003 486.677 172.228 479.651 173.398 472.477C177.041 450.136 181.409 420.741 190.18 399.898C193.09 393.157 196.721 386.754 201.008 380.796C202.908 378.148 206.363 373.752 208.877 371.724C209.769 371.066 210.964 369.905 211.814 369.129Z" fill="#23242C"/>
<path d="M211.816 369.129C212.899 370.469 216.605 376.145 217.262 376.683C217.948 377.865 218.509 378.854 219.118 380.085C220.019 382.312 221.455 384.591 222.566 386.777C239.32 419.739 245.673 457.232 248.431 493.874H244.622C244.407 486.427 243.31 479.249 242.427 471.876C238.809 441.686 231.477 410.349 216.538 383.666C214.829 380.613 210.988 374.335 208.879 371.724C209.771 371.066 210.965 369.905 211.816 369.129Z" fill="#4476D9"/>
<path d="M352.422 260.803C353.706 260.953 358.03 264.176 359.415 265.251C374.27 276.781 393.199 282.564 412.123 278.608C417.411 277.524 422.517 275.689 427.287 273.159C430.196 271.62 445.578 260.892 446.705 260.804C447.181 263.109 446.99 266.133 446.943 268.54C446.998 272.862 447.376 277.537 447.388 281.616C447.844 285.728 448.141 292.321 449.291 296.029C449.861 298.858 450.379 301.311 450.684 304.192C450.648 305.514 450.746 305.942 450.04 307.024C447.142 309.845 443.542 314.014 440.793 316.416L440.052 317.202C437.01 320.113 434.198 322.864 430.886 325.49C425.918 329.887 418.788 334.315 414.486 338.95C411.062 342.636 403.901 365.83 402.072 371.767C401.464 373.149 400.613 375.251 399.9 376.503C398.921 375.032 398.636 373.089 397.489 371.313L396.799 369.904C393.636 360.599 390.032 350.29 386.235 341.162C384.726 337.534 380.298 335.158 377.206 332.633C373.653 330.124 370.42 327.28 367.115 324.461L366.151 323.676C362.105 320.187 351.249 309.497 348.364 305.583C345.305 301.683 341.86 296.727 339.997 292.121C338.201 291.93 337.396 291.689 335.824 290.867L337.614 287.462L339.91 284.625C343.395 283.627 348.221 282.6 351.82 282.277C352.274 278.193 352.19 273.378 352.22 269.215L352.138 263.151C352.135 262.773 352.365 261.248 352.422 260.803Z" fill="#DF906D"/>
<path d="M352.421 260.803C353.705 260.953 358.029 264.176 359.414 265.251C374.269 276.781 393.198 282.564 412.122 278.608C417.41 277.524 422.516 275.689 427.286 273.159C430.195 271.62 445.577 260.892 446.704 260.804C447.18 263.109 446.989 266.133 446.942 268.54C446.997 272.862 447.375 277.537 447.387 281.616C447.843 285.728 448.14 292.321 449.29 296.029C442.258 299.382 429.579 301.506 421.736 301.079C389.297 299.31 372.845 284.831 352.137 263.151C352.134 262.773 352.364 261.248 352.421 260.803Z" fill="#C86F54"/>
<path d="M351.82 282.275C351.282 292.263 349.416 297.028 348.364 305.582C345.305 301.682 341.86 296.726 339.997 292.12C338.201 291.929 337.396 291.687 335.824 290.866L337.614 287.461L339.91 284.623C343.395 283.626 348.221 282.599 351.82 282.275Z" fill="#1D2447"/>
<path d="M337.614 287.461C338.784 289.331 339.157 290.072 339.997 292.12C338.201 291.928 337.396 291.687 335.824 290.865L337.614 287.461Z" fill="#4E5B8B"/>
<path d="M329.616 302.176C329.975 300.95 334.876 292.529 335.821 290.867C337.392 291.689 338.198 291.93 339.994 292.121C341.857 296.728 345.302 301.683 348.36 305.584C351.245 309.498 362.101 320.187 366.147 323.677L367.112 324.462C370.417 327.281 373.65 330.125 377.202 332.634C380.295 335.158 384.723 337.534 386.232 341.162C390.029 350.291 393.633 360.6 396.796 369.905L397.486 371.313C392.97 371.498 386.906 371.756 382.357 371.62C379.782 370.917 378.76 371.018 376.221 371.821C373.636 371.234 367.305 371.773 364.174 371.566C364.059 373.002 363.959 375.111 363.769 376.482L361.959 374.164C361.639 373.369 361.303 373.02 360.783 372.357C360.158 371.799 359.268 370.512 358.733 369.793C356.977 367.624 355.203 365.468 353.412 363.328C352.46 362.207 351.516 361.079 350.581 359.943L349.702 358.814C348.942 358.241 343.587 351.298 341.873 349.597L340.836 348.141C339.042 345.629 335.872 342.155 333.693 339.228L333.101 338.31C330.832 335.617 327.384 331.201 325.623 328.212L325.057 327.712C323.997 325.861 321.626 322.586 320.312 320.483L322.431 316.1L322.657 315.552C323.617 313.101 328.023 305.306 329.438 302.781L329.616 302.176Z" fill="#8193CC"/>
<path d="M377.204 332.633C380.297 335.157 384.725 337.533 386.234 341.161C390.031 350.29 393.635 360.598 396.798 369.904L397.488 371.312C392.972 371.497 386.908 371.755 382.359 371.619C379.784 370.916 378.762 371.017 376.223 371.82C373.638 371.233 367.307 371.772 364.176 371.565C364.061 373.001 363.961 375.11 363.771 376.481L361.961 374.163C361.641 373.368 361.305 373.019 360.785 372.355C362.127 370.489 365.975 364.483 366.836 362.448L367.16 362.006C368.548 360.936 374.241 352.357 375.499 350.435L376.681 349.659C374.498 347.048 371.514 344.188 369.07 341.73C370.753 339.989 376.849 334.885 376.804 332.794L377.204 332.633Z" fill="#313D6B"/>
<path d="M376.681 349.66C377.919 347.65 380.202 343.699 381.897 342.419L382.718 342.322C383.027 342.829 383.418 343.169 383.065 343.813C380.737 348.059 367.63 367.783 364.846 369.872L361.961 374.164C361.641 373.369 361.305 373.02 360.785 372.356C362.127 370.49 365.975 364.484 366.836 362.449L367.16 362.007C368.548 360.937 374.241 352.357 375.499 350.435L376.681 349.66Z" fill="#1D2447"/>
<path d="M376.102 369.838C376.044 368.261 375.779 365.974 376.491 364.654L376.996 364.745C377.794 366.443 377.596 367.942 377.551 369.825L396.798 369.905L397.489 371.314C392.972 371.499 386.908 371.757 382.359 371.621C379.785 370.917 378.762 371.018 376.223 371.821C373.638 371.235 367.307 371.774 364.176 371.566C364.062 373.003 363.962 375.111 363.771 376.482L361.961 374.164L364.846 369.872C368.598 369.831 372.35 369.819 376.102 369.838Z" fill="#8193CC"/>
<path d="M381.867 352.258C388.706 352.31 390.528 359.87 384.086 362.154C381.564 362.243 379.42 361.582 378.257 359.085C377.725 357.923 377.686 356.595 378.149 355.403C378.877 353.523 380.175 352.974 381.867 352.258Z" fill="#1D2447"/>
<path d="M381.642 354.177C382.767 353.751 384.035 353.964 384.961 354.733C385.887 355.502 386.328 356.709 386.116 357.894C385.904 359.079 385.072 360.059 383.937 360.459C382.209 361.069 380.313 360.174 379.684 358.453C379.056 356.732 379.929 354.826 381.642 354.177Z" fill="#8193CC"/>
<path d="M329.617 302.176C329.976 300.95 334.877 292.529 335.822 290.867C337.393 291.689 338.199 291.93 339.995 292.121C341.857 296.728 345.303 301.683 348.361 305.584C351.246 309.498 362.102 320.187 366.148 323.677C363.279 325.957 361.226 328.901 358.382 330.735C356.344 328.785 352.337 324.957 350.746 322.828C350.334 321.988 350.079 321.918 349.292 321.43C348.179 320.559 342.318 314.489 340.978 313.182C344.494 309.858 346.225 308.443 348.516 304.083C345.493 306.24 342.72 309.26 340.167 311.966C338.052 310.029 331.521 302.564 329.617 302.176Z" fill="#313D6B"/>
<path d="M349.293 321.43C352.114 318.697 354.893 315.86 358.37 313.986C356.324 317.448 353.585 320.006 350.747 322.828C350.335 321.988 350.08 321.917 349.293 321.43Z" fill="#4E5B8B"/>
<path d="M358.387 352.028C361.658 349.074 364.954 345.626 367.934 342.377C370.384 345.13 372.907 347.817 375.499 350.435C374.242 352.357 368.549 360.937 367.16 362.007C366.345 359.578 360.494 354.112 358.387 352.028Z" fill="#313D6B"/>
<path d="M322.656 315.552C323.617 313.102 328.023 305.307 329.437 302.781C330.544 304.875 336.915 311.089 338.923 313.12C336.403 315.765 332.517 319.987 329.893 322.302C328.295 320.453 324.909 315.98 322.656 315.552Z" fill="#313D6B"/>
<path d="M366.149 323.676L367.113 324.461C370.418 327.28 373.651 330.124 377.204 332.633L376.804 332.794C374.864 333.809 369.772 338.865 368.022 340.562C365.056 338.118 362.185 334.912 359.653 332.038L358.383 330.734C361.227 328.9 363.279 325.956 366.149 323.676Z" fill="#313D6B"/>
<path d="M366.149 323.676L367.113 324.461C365.644 326.655 361.767 330.409 359.653 332.038L358.383 330.734C361.227 328.9 363.279 325.956 366.149 323.676Z" fill="#4E5B8B"/>
<path d="M357.531 352.84C359.788 355.37 364.316 360.368 366.835 362.448C365.974 364.484 362.126 370.489 360.784 372.356C360.159 371.798 359.269 370.511 358.734 369.792C356.977 367.623 355.204 365.468 353.413 363.327C352.461 362.206 351.517 361.078 350.582 359.943L357.531 352.84Z" fill="#313D6B"/>
<path d="M347.254 342.254L348.115 343.143L356.46 352.054C354.227 354.216 351.751 356.507 349.702 358.814C348.942 358.24 343.587 351.298 341.873 349.597L340.836 348.141C343.023 346.189 345.006 344.217 347.254 342.254Z" fill="#313D6B"/>
<path d="M347.254 342.254L348.115 343.143C346.295 345.374 344.003 347.647 341.873 349.597L340.836 348.141C343.023 346.189 345.006 344.217 347.254 342.254Z" fill="#4E5B8B"/>
<path d="M333.695 339.226C336.214 337.696 336.947 335.639 339.321 334.145C340.903 335.795 345.752 341.069 347.257 342.253C345.009 344.216 343.026 346.188 340.839 348.14C339.044 345.628 335.874 342.153 333.695 339.226Z" fill="#313D6B"/>
<path d="M325.625 328.211C327.577 326.985 328.357 325.947 329.845 324.234C332.681 327.141 335.478 330.085 338.234 333.067C336.943 334.287 333.68 336.956 333.103 338.309C330.834 335.616 327.386 331.201 325.625 328.211Z" fill="#313D6B"/>
<path d="M322.431 316.1C323.049 317.747 327.7 321.977 329.209 323.315C327.585 324.766 326.223 325.843 325.057 327.711C323.997 325.86 321.626 322.585 320.312 320.482L322.431 316.1Z" fill="#313D6B"/>
<path d="M349.2 323.809C352.134 325.873 354.86 329.714 357.541 331.908L358.638 333.245L367.001 341.69C364.956 343.642 358.948 349.144 357.504 351.089C354.843 348.36 351.799 344.933 349.178 342.373L347.696 341.044C346.088 338.761 342.373 335.734 340.445 332.953C343.209 330.495 346.642 326.601 349.2 323.809Z" fill="#313D6B"/>
<path d="M349.18 342.374C352.114 339.903 354.993 336.264 358.64 333.246L367.003 341.691C364.958 343.643 358.95 349.145 357.506 351.09C354.845 348.361 351.801 344.934 349.18 342.374Z" fill="#313D6B"/>
<path d="M357.544 331.908L358.641 333.246C354.994 336.263 352.115 339.902 349.181 342.374L347.699 341.045C350.771 337.942 354.353 335.01 357.544 331.908Z" fill="#4E5B8B"/>
<path d="M330.949 323.443C333.833 320.202 337.029 317.235 340.004 314.057C342.211 316.261 346.573 320.458 348.393 322.755L349.203 323.811C346.645 326.604 343.212 330.497 340.448 332.956C340.149 332.635 339.405 332.045 339.037 331.734C336.833 329.843 333.42 325.839 330.949 323.443Z" fill="#313D6B"/>
<path d="M348.391 322.754L349.201 323.81C346.643 326.603 343.21 330.496 340.446 332.955C340.147 332.635 339.403 332.044 339.035 331.733C341.444 328.92 345.572 325.156 348.391 322.754Z" fill="#6370A2"/>
<path d="M350.648 363.729C347.306 359.566 343.469 355.558 340.039 351.42C333.557 343.464 327.277 335.346 321.203 327.073C312.981 315.929 297.942 295.95 312.513 283.402C319.276 277.576 344.025 268.533 352.216 269.214C352.186 273.377 352.271 278.192 351.816 282.276C348.217 282.599 343.391 283.627 339.906 284.624L337.61 287.462L335.821 290.866C334.876 292.528 329.975 300.949 329.616 302.175L329.437 302.78C328.023 305.305 323.617 313.1 322.656 315.551L322.43 316.099L320.312 320.482C321.626 322.585 323.996 325.86 325.056 327.711L325.622 328.211C327.384 331.2 330.831 335.616 333.101 338.309L333.692 339.227C335.871 342.154 339.041 345.628 340.836 348.14L341.872 349.596C343.587 351.297 348.942 358.24 349.702 358.813L350.581 359.942C351.516 361.078 352.459 362.206 353.411 363.327C355.202 365.467 356.976 367.623 358.733 369.792C358.178 370.887 358.167 371.058 357.188 371.713C355.04 369.218 352.497 366.4 350.648 363.729Z" fill="#090F1B"/>
<path d="M397.487 371.312C398.634 373.088 398.918 375.031 399.897 376.502L399.223 376.409C398.17 378.102 397.37 381.281 396.473 383.242L396.13 384.156C395.451 386.51 393.248 393.671 391.945 395.345L392.386 396.297L392.027 397.264L391.231 397.701C390.748 401.352 390.58 405.921 390.432 409.654L388.526 410.114C387.466 412.104 390.716 415.837 391.723 417.963C391.964 419.048 397.432 432.323 398.127 433.314C397.109 434.188 396.099 435.038 395.112 435.955C394.952 430.989 380.439 404.22 376.526 399.375C374.913 397.377 370.119 391.042 369.224 388.989L371.665 388.089C371.517 387.593 369.89 384.711 369.537 384.066L368.599 383.088C368.181 382.259 364.414 377.304 363.77 376.48C363.96 375.11 364.06 373.001 364.174 371.564C367.305 371.772 373.637 371.233 376.222 371.819C378.761 371.016 379.783 370.915 382.358 371.619C386.906 371.755 392.971 371.497 397.487 371.312Z" fill="#8D94AA"/>
<path d="M397.489 371.312C398.635 373.089 398.92 375.031 399.899 376.502L399.224 376.409C398.171 378.102 397.372 381.281 396.475 383.243C396.248 383.075 395.968 382.87 395.632 382.626C389.993 382.388 383.113 382.66 377.563 382.515L377.551 371.731L382.359 371.62C386.908 371.755 392.972 371.497 397.489 371.312Z" fill="#313D6B"/>
<path d="M377.541 384.113L396.13 384.158C395.451 386.511 393.248 393.673 391.945 395.346L392.386 396.298L392.027 397.266C388.016 397.367 384.003 397.441 379.991 397.492L379.872 395.674C379.462 395.643 378.796 395.502 378.367 395.428C376.996 393.829 377.512 386.494 377.541 384.113Z" fill="#313D6B"/>
<path d="M391.944 395.346L392.384 396.298L392.026 397.265C388.015 397.366 384.002 397.441 379.989 397.491L379.871 395.673C382.348 395.63 390.056 395.709 391.944 395.346Z" fill="#8193CC"/>
<path d="M364.174 371.566C367.305 371.773 373.637 371.234 376.222 371.821C375.913 375.284 376.007 378.962 376.026 382.455C374.053 382.47 370.174 382.246 368.599 383.09C368.181 382.26 364.414 377.306 363.77 376.482C363.96 375.111 364.06 373.002 364.174 371.566Z" fill="#313D6B"/>
<path d="M392.028 397.266L391.233 397.703C390.749 401.354 390.581 405.922 390.433 409.655C389.522 408.524 388.584 408.836 387.241 408.821C385.517 408.138 380.988 399.509 379.992 397.492C384.005 397.441 388.018 397.367 392.028 397.266Z" fill="#313D6B"/>
<path d="M369.535 384.069L376.104 383.9L376.138 392.604C374.978 391.157 373.275 388.635 371.664 388.091C371.516 387.595 369.888 384.713 369.535 384.069Z" fill="#1D2447"/>
<path d="M265.653 341.387C268.7 344.549 271.274 345.852 275.076 347.931C255.012 357.967 237.515 365.204 217.263 376.682C216.606 376.144 212.899 370.467 211.816 369.128C228.904 358.302 246.92 349.018 265.653 341.387Z" fill="#23242C"/>
<path d="M267.659 340.154C271.163 342.461 275.469 344.452 279.247 346.338C296.329 354.866 314.097 361.991 331.296 370.282C334.035 371.603 336.684 372.767 339.555 373.779C340.064 377.913 340.421 381.373 340.655 385.526C336.538 384.921 281.983 354.648 279.652 350.827C280.421 350.31 280.174 350.647 280.474 349.829C279.01 348.198 277.181 347.211 275.075 347.933C271.274 345.854 268.7 344.551 265.652 341.388C266.196 341.24 267.135 340.515 267.659 340.154Z" fill="#090F1B"/>
<path d="M338.957 370.28C338.349 368.058 337.401 364.689 340.003 363.355C343.071 364.177 343.376 367.575 343.733 370.145C347.183 391.015 343.634 405.995 342.301 426.651C341.745 435.269 342.124 442.911 342.588 451.466C341.037 451.969 339.67 451.864 338.042 451.86C336.342 440.804 337.393 424.236 338.585 413.032C339.462 404.786 341.076 393.765 340.655 385.525C340.421 381.373 340.065 377.912 339.555 373.779L338.957 370.28Z" fill="#F5F6F8"/>
<path d="M398.128 433.316L400.991 433.398C402.43 434.358 402.699 434.818 403.733 436.188C402.972 443.444 404.013 448.847 404.255 456.032C404.275 456.586 402.449 457.484 401.989 457.714C401.311 459.325 401.708 490.112 401.72 493.877H397.141C397.118 489.562 397.594 459.43 396.868 457.737C395.776 457.136 395.546 457.082 394.782 456.145C394.353 452.908 395.535 445.488 395.394 441.801C395.32 439.952 394.953 437.483 395.113 435.957C396.1 435.041 397.11 434.19 398.128 433.316Z" fill="#9095A1"/>
<path d="M397.325 452.154C398.697 452.091 399.86 451.908 401.119 452.4C401.899 453.664 401.63 453.523 401.529 455.286C400.133 455.364 399.068 455.579 397.832 454.994C397.091 453.714 397.332 453.812 397.325 452.154Z" fill="#23242C"/>
<path d="M275.075 347.933C277.18 347.212 279.01 348.198 280.474 349.829C280.174 350.648 280.421 350.311 279.651 350.827C275.303 351.49 238.066 370.452 232.382 373.22C229.511 374.618 222.305 379.058 219.117 380.086C218.509 378.855 217.948 377.866 217.262 376.684C237.514 365.206 255.012 357.969 275.075 347.933Z" fill="#F5F6F8"/>
<path d="M342.589 451.467C343.176 454.521 344.832 463.619 341.307 465.23C337.797 463.693 338.172 455.169 338.043 451.861C339.67 451.865 341.038 451.97 342.589 451.467Z" fill="#4476D9"/>
<path d="M338.957 370.281C329.614 368.107 339.376 353.001 345.406 363.604C346.601 365.705 344.967 368.403 343.732 370.146C343.376 367.576 343.071 364.178 340.002 363.356C337.401 364.69 338.348 368.059 338.957 370.281Z" fill="#4476D9"/>
<path d="M358.733 369.793C359.267 370.512 360.157 371.799 360.783 372.357C361.303 373.02 361.638 373.369 361.958 374.164L363.768 376.482C364.413 377.306 368.179 382.26 368.598 383.09L369.535 384.068C369.888 384.713 371.516 387.594 371.664 388.091L369.223 388.991C367.279 384.626 360.308 375.786 357.188 371.715C358.167 371.059 358.178 370.888 358.733 369.793Z" fill="#0B1126"/>
<path d="M385.672 19.0856C392.892 17.9639 391.117 10.7 400.817 11.7331C408.808 12.5843 407.346 17.7979 412.139 18.9822C417.127 19.2764 426.316 21.4183 431.332 22.9305C433.223 23.5837 439.83 25.7703 441.184 26.5954C468.208 38.3268 481.729 57.8768 487.108 86.525C488.594 94.4255 491.46 123.044 489.253 130.138L488.407 131.124C487.728 133.711 486.8 148.163 486.663 151.314C509.116 151.807 499.604 199.614 476.55 202.971C475.825 204.462 474.978 209.695 474.6 211.667C472.954 220.292 470.957 229.749 466.718 237.496C464.545 241.491 461.932 245.228 458.921 248.635C457.221 250.563 447.053 259.902 446.702 260.802C445.575 260.891 430.193 271.619 427.283 273.158C422.514 275.688 417.408 277.523 412.12 278.607C393.196 282.563 374.266 276.78 359.412 265.25C358.027 264.175 353.703 260.951 352.419 260.802C351.623 258.923 344.666 253.123 342.519 250.975C327.864 236.305 327.006 221.74 322.791 203.08C316.747 201.878 315.359 200.632 310.71 196.727C300.468 188.125 291.199 151.289 312.944 151.249C311.388 146.04 311.781 133.66 310.327 130.359L309.852 130.002C309.011 125.726 309.435 120.449 309.446 116.047C309.54 78.2356 320.172 41.0889 358.754 26.3188C359.846 25.6597 367.047 23.2472 368.605 22.7732C373.523 21.5014 380.815 19.3832 385.672 19.0856Z" fill="#DF906D"/>
<path d="M385.674 19.0856C392.895 17.9639 391.12 10.7 400.82 11.7331C408.811 12.5843 407.349 17.7979 412.142 18.9822C417.13 19.2764 426.319 21.4183 431.334 22.9305C433.226 23.5837 439.833 25.7702 441.186 26.5954C468.21 38.3268 481.732 57.8768 487.11 86.525C488.596 94.4255 491.463 123.044 489.256 130.138L488.409 131.124C485.621 129.254 471.604 122.817 468.363 121.859C448.058 114.514 424.927 111.171 403.394 111.204L402.021 109.963C397.29 109.502 373.674 109.991 370.264 111.109C367.84 111.697 364.604 112.416 362.105 112.227C360.152 112.625 355.636 113.427 353.922 113.957L357.256 114.704C353.511 115.453 332.711 120.309 330.583 122.081C325.864 123.291 319.424 127.36 314.578 128.955C314.443 129 309.984 130.532 310.329 130.359L309.855 130.002C309.014 125.726 309.437 120.449 309.448 116.047C309.542 78.2356 320.174 41.0889 358.756 26.3188C359.849 25.6597 367.05 23.2472 368.607 22.7732C373.525 21.5014 380.818 19.3832 385.674 19.0856Z" fill="#23242C"/>
<path d="M431.331 22.9316C433.223 23.5848 439.83 25.7714 441.183 26.5965C468.207 38.3279 481.729 57.8779 487.107 86.5262C488.593 94.4266 491.46 123.045 489.253 130.139L488.406 131.125C485.618 129.255 471.601 122.819 468.359 121.86C448.055 114.515 424.924 111.172 403.391 111.205L402.018 109.964C397.287 109.503 373.671 109.992 370.261 111.11C367.837 111.698 364.601 112.417 362.102 112.228L363.666 111.784C364.141 110.475 363.771 105.572 363.851 103.815C364.105 97.3949 367.086 86.7157 371.994 82.4612C385.261 70.9601 414.771 70.7144 427.463 83.062C434.253 89.6653 435.041 102.837 434.822 111.802C440.551 113.003 446.534 113.774 452.17 115.117C459.374 116.834 466.445 119.568 473.488 121.703C473.496 88.9499 472.93 56.0194 445.388 33.7063C441.975 30.941 432.782 26.1114 431.331 22.9316Z" fill="#090F1B"/>
<path d="M441.182 26.5977C468.207 38.3291 481.728 57.8791 487.107 86.5273C488.593 94.4278 491.459 123.046 489.252 130.14C486.026 127.004 479.154 124.096 474.977 122.494C475.609 95.3574 475.328 64.7894 457.458 42.8443C454.537 39.3115 451.331 36.0214 447.875 33.0066C445.629 31.0469 443.07 29.5705 441.12 27.5927C440.902 27.3694 441.077 27.0941 441.182 26.5977Z" fill="#23242C"/>
<path d="M372.142 97.8558C378.717 96.0497 408.533 95.2492 414.434 97.3589C419.863 100.893 419.707 106.463 414.055 109.603L402.02 109.964C397.289 109.503 373.672 109.992 370.263 111.11C368.73 111.191 367.594 111.3 366.066 111.087C365.44 109.634 366.567 100.75 366.791 98.5619C369.1 98.4515 369.914 98.3915 372.142 97.8558Z" fill="#23242C"/>
<path d="M386.465 101.272C387.608 101.214 388.608 102.037 388.769 103.171C388.931 104.305 388.202 105.375 387.088 105.639C386.271 105.833 385.416 105.548 384.878 104.904C384.34 104.259 384.213 103.366 384.549 102.597C384.885 101.828 385.627 101.315 386.465 101.272Z" fill="#090F1B"/>
<path d="M374.023 102.394C375.105 101.956 376.338 102.462 376.8 103.534C377.262 104.605 376.783 105.85 375.722 106.335C375.014 106.659 374.188 106.574 373.561 106.114C372.933 105.654 372.604 104.89 372.7 104.118C372.796 103.346 373.302 102.687 374.023 102.394Z" fill="#090F1B"/>
<path d="M409.917 101.672C410.962 101.167 412.222 101.6 412.737 102.642C413.252 103.684 412.834 104.947 411.797 105.474C411.114 105.819 410.303 105.773 409.667 105.352C409.028 104.931 408.669 104.2 408.72 103.439C408.77 102.677 409.227 102.002 409.917 101.672Z" fill="#090F1B"/>
<path d="M397.86 101.288C398.913 100.877 400.099 101.379 400.54 102.419C400.981 103.459 400.513 104.661 399.487 105.131C398.796 105.447 397.989 105.363 397.377 104.911C396.764 104.459 396.449 103.71 396.55 102.957C396.651 102.203 397.151 101.564 397.86 101.288Z" fill="#090F1B"/>
<path d="M373.306 84.4797C394.163 88.2146 404.599 88.8173 425.746 84.4746C428.258 86.0378 432.677 94.0576 431.421 96.9093C429.728 97.1355 427.63 96.7805 425.894 96.5691L425.898 97.5522C423.402 97.0372 420.153 96.9143 417.618 97.1566C416.382 96.8812 415.754 97.1831 414.432 97.3598C408.531 95.2501 378.715 96.0506 372.14 97.8568L370.787 96.7993C369.39 96.9807 368.713 97.1429 367.299 96.9377C366.084 94.024 370.769 86.0163 373.306 84.4797Z" fill="#DF906D"/>
<path d="M370.789 96.7992C381.8 94.5326 414.753 94.409 425.896 96.569L425.9 97.5521C423.404 97.0371 420.155 96.9142 417.62 97.1565C416.383 96.8811 415.755 97.183 414.433 97.3598C408.532 95.2501 378.717 96.0506 372.142 97.8567L370.789 96.7992Z" fill="#1B090E"/>
<path d="M373.309 84.4794C374.038 84.028 373.94 83.966 374.484 83.4951C380.585 78.2181 388.646 76.1662 396.56 75.8919C406.4 75.551 416.95 77.0939 424.797 83.4936C425.113 83.7514 425.46 84.273 425.749 84.4743C404.602 88.817 394.165 88.2142 373.309 84.4794Z" fill="#23242C"/>
<path d="M417.621 97.1547C420.156 96.9125 423.405 97.0354 425.901 97.5503C427.937 98.3442 429.848 98.4121 432.013 98.6153C432.469 102.987 432.894 106.949 433.031 111.358C428.183 111.025 422.73 110.28 417.75 109.867C421.864 104.912 422.063 101.986 417.621 97.1547Z" fill="#23242C"/>
<path d="M309.855 130.004C309.014 125.728 309.437 120.45 309.448 116.048C309.542 78.2371 320.174 41.0904 358.756 26.3203L358.876 27.1058C357.593 28.5435 355.107 30.0227 353.47 31.3164C350.037 33.9943 346.864 36.9908 343.994 40.2657C323.345 64.1168 323.382 92.3567 324.226 122.484C318.027 124.966 315.414 126.464 309.855 130.004Z" fill="#23242C"/>
<path d="M358.753 26.321C359.846 25.6619 367.046 23.2494 368.604 22.7754C367.82 25.2185 364.933 26.3869 362.764 27.6348C326.688 48.3924 325.807 85.2149 325.602 121.915C330.838 120.218 348.874 113.635 353.919 113.96L357.253 114.707C353.508 115.455 332.708 120.311 330.58 122.084C325.861 123.293 319.421 127.362 314.575 128.958C314.44 129.002 309.981 130.534 310.326 130.361L309.852 130.004C315.41 126.464 318.024 124.966 324.223 122.485C323.379 92.3574 323.341 64.1176 343.991 40.2664C346.861 36.9915 350.034 33.9951 353.467 31.3171C355.104 30.0234 357.59 28.5442 358.873 27.1065L358.753 26.321Z" fill="#0B101D"/>
<path d="M385.672 19.0856C392.892 17.9639 391.118 10.7 400.817 11.7331C408.809 12.5843 407.346 17.7979 412.139 18.9822C410.451 19.3209 402.042 18.9507 399.71 18.9605C395.24 18.9794 390.088 19.2203 385.672 19.0856Z" fill="#090F1B"/>
<path d="M416.901 36.1422C417.938 38.913 417.385 39.4851 417.767 42.2006C417.884 43.0444 419.241 44.9836 419.346 46.4286C419.736 51.7824 419.518 57.359 416.027 61.7371C412.954 65.5949 405.946 70.3304 401.047 70.9249C397.564 71.3478 396.176 70.9074 393.563 68.9389L393.683 68.5585C395.201 68.2086 395.08 68.5281 396.85 69.3856L396.901 68.9416C395.696 67.6484 394.237 66.2425 392.346 66.1469C391.628 66.9361 391.172 67.2876 390.852 68.2765C391.878 68.7013 392.513 69.0723 393.469 69.6146L393.543 70.1319C391.889 70.0218 390.957 68.8414 389.636 68.0803C380.196 62.6512 375.587 52.7573 379.06 42.1776C379.817 39.8724 380.065 35.5162 381.983 33.6391C385.261 32.9451 392.588 31.0656 395.532 31.5214C398.984 32.0562 401.772 29.9358 404.698 30.8448C406.156 31.2975 410.614 33.4799 411.41 34.892L410.77 35.2305C408.933 35.1914 408.309 35.1811 406.601 34.5006L406.679 34.5788L406.971 34.1934L406.117 33.9323L406.168 34.1049C407.252 34.5039 410.033 36.7214 410.364 36.5929C412.315 35.8338 413.301 35.5963 415.38 35.7096L416.694 35.2551C416.843 35.6945 416.905 35.7046 416.901 36.1422Z" fill="#1D4250"/>
<path d="M381.137 34.8633C382.889 35.6718 384.921 36.8322 386.648 37.7588L388.414 39.1614C389.305 39.4189 389.849 39.5628 390.76 39.7255C391.309 39.4146 391.699 39.2761 392.316 39.1399L392.121 40.1675C394.999 40.7959 396.871 37.1428 403.127 39.4189C404.27 39.7789 405.865 40.336 406.996 40.5755L407.249 41.007C405.861 42.0377 403.642 43.5583 402.561 44.809C402.238 46.2461 401.949 47.6911 401.696 49.1423L402.702 49.8944L404.059 50.3368L404.402 51.0589L403.759 52.3318C402.554 52.771 401.036 53.4861 399.827 53.3761L398.884 53.648C398.419 53.6402 394.34 52.0092 393.583 51.7146C393.458 52.18 393.283 52.7055 393.252 53.1725C390.44 54.5051 394.629 61.4419 395.311 63.1674C393.77 61.6019 394.277 61.6304 392.476 61.4146C393.065 59.5386 389.686 58.442 388.552 55.0723C388.579 53.3414 388.567 52.4562 388.908 50.7483C385.457 49.4754 384.724 45.5088 383.939 42.3782C382.881 39.9198 382.028 37.3874 381.137 34.8633Z" fill="#8FE1F9"/>
<path d="M383.672 37.3984C386.192 39.4419 388.226 40.6352 391.024 42.2327C390.256 43.3827 389.85 44.191 388.619 44.8643C388.187 46.5441 387.987 46.3296 388.391 47.8276L388.845 47.9204L389.877 46.4579C391.446 46.5484 394.258 48.2302 395.525 49.2238L395.502 50.082C394.882 50.3832 394.254 50.6691 393.622 50.9387L393.583 51.7146C393.458 52.18 393.283 52.7055 393.251 53.1724C390.439 54.505 394.628 61.4419 395.311 63.1674C393.77 61.6019 394.277 61.6303 392.475 61.4146C393.064 59.5386 389.686 58.442 388.552 55.0723C388.579 53.3414 388.567 52.4562 388.908 50.7483C389.135 49.2378 387.046 46.6058 386.23 44.7617C385.079 42.1578 384.415 40.1799 383.672 37.3984Z" fill="#313D6B"/>
<path d="M403.129 39.418C404.271 39.778 405.866 40.3351 406.998 40.5746L407.251 41.0061C405.863 42.0368 403.643 43.5574 402.563 44.8081C402.239 46.2452 401.951 47.6902 401.697 49.1414L402.703 49.8935L404.061 50.3359L404.404 51.058L403.76 52.3309C402.555 52.7702 401.038 53.4852 399.829 53.3752L398.885 53.6471L398.109 51.8507C397.707 47.8665 398.538 48.2683 396.374 44.0875C396.288 42.2244 396.089 42.8665 396.916 41.4481C398.413 40.3308 401.221 39.8701 403.129 39.418Z" fill="#1D4250"/>
<path d="M403.129 39.418C404.271 39.778 405.866 40.3351 406.998 40.5746L407.251 41.0061C405.863 42.0368 403.643 43.5574 402.563 44.8081L402.774 43.0861C401.046 40.1806 397.555 40.8021 396.374 44.0875C396.288 42.2244 396.089 42.8665 396.916 41.4481C398.413 40.3308 401.221 39.8701 403.129 39.418Z" fill="#105747"/>
<path d="M402.703 49.8945L404.06 50.3369L404.403 51.059L403.759 52.3319C402.554 52.7712 401.037 53.4862 399.828 53.3762C400.554 52.0608 401.669 51.0059 402.703 49.8945Z" fill="#97F2ED"/>
<path d="M392.316 39.1406L392.121 40.1681C394.999 40.7966 396.871 37.1434 403.127 39.4195C401.22 39.8716 398.412 40.3323 396.914 41.4496C396.087 42.868 396.286 42.2259 396.372 44.0891C398.536 48.2698 397.706 47.868 398.107 51.8522L396.836 50.6261L397.246 51.3088C397.148 50.3764 397.039 49.4456 396.914 48.516C396.161 42.916 392.686 42.4112 388.414 39.162C389.305 39.4195 389.849 39.5634 390.76 39.7261C391.31 39.4152 391.7 39.2767 392.316 39.1406Z" fill="#0F5885"/>
<path d="M391.027 42.2344C392.985 43.6302 394.256 44.2157 395.313 46.3574L395.04 46.7982C392.271 46.5743 392.228 44.8013 388.621 44.866C389.852 44.1927 390.258 43.3844 391.027 42.2344Z" fill="#0F5885"/>
<path d="M410.192 51.3652L410.668 52.6264C409.467 57.9768 406.183 59.2961 406.14 61.0886L406.783 63.1188C405.52 63.5943 404.229 63.8553 403.593 64.9331C403.605 65.4165 403.577 65.7898 403.702 66.2501C402.879 66.517 401.857 66.8166 401.07 67.1372C400.789 67.4064 399.564 69.4943 399.272 69.9683L397.322 66.783C396.655 65.5405 396.031 64.3815 395.309 63.1683C394.627 61.4429 390.438 54.506 393.25 53.1734C393.281 52.7064 393.456 52.1809 393.581 51.7155C394.338 52.0101 398.417 53.6411 398.882 53.6489L399.825 53.377C401.034 53.487 402.552 52.772 403.757 52.3327C404.334 53.329 403.944 52.9818 404.884 53.4917C406.007 54.2083 405.73 53.8046 406.07 54.9417L406.545 55.6634C408.924 56.2884 409.58 53.1824 410.192 51.3652Z" fill="#1D4250"/>
<path d="M410.192 51.3652L410.668 52.6264C409.467 57.9768 406.183 59.2961 406.14 61.0886L406.783 63.1188C405.52 63.5943 404.229 63.8553 403.593 64.9331C403.605 65.4165 403.577 65.7898 403.702 66.2501C402.879 66.517 401.857 66.8166 401.07 67.1372C400.789 67.4064 399.564 69.4943 399.272 69.9683L397.322 66.783C396.655 65.5405 396.031 64.3815 395.309 63.1683C394.627 61.4429 390.438 54.506 393.25 53.1734C394.931 54.3983 395.485 54.6975 396.413 56.5338L396.101 56.8482C394.993 56.16 394.677 55.8105 393.749 54.9156C395.157 60.2335 396.553 62.3073 399.272 67.03C402.415 61.8193 403.378 60.0857 405.403 54.4143C404.537 55.2051 403.737 55.9275 402.825 56.6761L402.224 56.5552C402.848 54.0718 403.663 54.6554 404.884 53.4917C406.007 54.2083 405.73 53.8046 406.07 54.9417L406.545 55.6634C408.924 56.2884 409.58 53.1824 410.192 51.3652Z" fill="#97F2ED"/>
<path d="M410.193 51.3652L410.669 52.6264C409.467 57.9768 406.183 59.2961 406.141 61.0886L406.784 63.1188C405.52 63.5943 404.229 63.8553 403.594 64.9331C403.605 65.4165 403.578 65.7898 403.703 66.2501C402.88 66.517 401.858 66.8166 401.07 67.1372C403.231 64.0652 406.102 58.7281 406.07 54.9417L406.546 55.6634C408.925 56.2884 409.58 53.1824 410.193 51.3652Z" fill="#10785F"/>
<path d="M415.381 35.7083L416.695 35.2539C416.844 35.6933 416.906 35.7034 416.902 36.141C416.083 38.3619 415.198 40.6577 414.511 42.9144C413.844 45.0709 412.347 49.7518 409.843 50.447L410.194 51.3645C409.581 53.1816 408.926 56.2877 406.547 55.6627L406.071 54.941C405.732 53.8039 406.009 54.2076 404.886 53.491C403.946 52.9811 404.336 53.3283 403.759 52.332L404.402 51.0591L404.059 50.337L402.702 49.8946L401.695 49.1425C401.949 47.6913 402.237 46.2463 402.561 44.8092C403.642 43.5585 405.861 42.0379 407.249 41.0072C409.258 39.9192 409.741 39.5935 411.481 38.1147C412.776 37.3513 414.098 36.5042 415.381 35.7083Z" fill="#96F3C9"/>
<path d="M401.695 49.1435C405.077 48.5248 405.198 48.0442 408.142 46.6113C408.443 47.4231 408.407 47.3724 409.09 47.9014L410.174 47.6315L410.33 48.0742C409.597 49.5859 409.558 49.0928 409.843 50.448L410.194 51.3656C409.581 53.1827 408.926 56.2887 406.547 55.6637L406.071 54.9421C405.732 53.8049 406.009 54.2087 404.886 53.492C403.946 52.9822 404.336 53.3294 403.759 52.333L404.402 51.0601L404.059 50.338L402.702 49.8956L401.695 49.1435Z" fill="#105747"/>
<path d="M414.53 38.0254C413.559 41.3773 412.607 45.3575 410.33 48.0731L410.174 47.6303C410.037 46.3394 410.119 45.8939 409.238 44.8882C406.472 44.4326 405.86 47.2464 403.82 47.3556C402.904 43.9243 411.741 40.0232 414.53 38.0254Z" fill="#105747"/>
<path d="M383.939 42.3789C384.723 45.5095 385.457 49.4761 388.908 50.749C388.567 52.4569 388.579 53.3421 388.552 55.073C389.686 58.4427 393.064 59.5393 392.475 61.4153C394.277 61.6311 393.77 61.6026 395.311 63.1681C396.032 64.3813 396.656 65.5403 397.323 66.7828L395.061 66.2324C388.116 64.0856 385.451 60.4479 383.138 53.9795C380.031 51.2 382.167 45.3043 383.939 42.3789Z" fill="#0F5885"/>
<path d="M383.139 53.9793C382.549 50.118 382.613 49.254 383.498 45.4746L383.949 45.6736C385.226 50.0322 383.785 55.4746 386.717 58.8248C388.755 61.1526 392.199 63.1956 394.828 64.8297C395.245 65.0884 395.183 65.7629 395.062 66.2322C388.117 64.0854 385.452 60.4477 383.139 53.9793Z" fill="#8FE1F9"/>
<path d="M392.478 61.4149C390.231 59.7885 386.205 56.1005 387.253 52.9121L387.785 53.1251L388.554 55.0725C389.688 58.4423 393.067 59.5389 392.478 61.4149Z" fill="#8FE1F9"/>
<path d="M388.878 37.258L389.211 37.9748C391.177 38.4227 394.247 35.4856 398.233 35.3092C403.252 35.0872 407.815 38.5165 410.327 38.0073L411.481 38.116C409.742 39.5948 409.258 39.9205 407.25 41.0085L406.996 40.5771C405.865 40.3375 404.27 39.7805 403.127 39.4204C396.872 37.1443 394.999 40.7975 392.121 40.169L392.316 39.1415C391.7 39.2776 391.31 39.4161 390.76 39.727C389.849 39.5643 389.305 39.4204 388.414 39.1629L386.648 37.7603C387.181 37.5937 388.287 37.3859 388.878 37.258Z" fill="#0D696F"/>
<path d="M392.316 39.1413C396.918 37.0554 402.495 35.8089 406.614 39.6469L406.996 40.5769C405.865 40.3374 404.27 39.7803 403.127 39.4203C396.871 37.1442 394.999 40.7973 392.121 40.1689L392.316 39.1413Z" fill="#97F2ED"/>
<path d="M414.51 42.9141C414.565 43.1864 414.912 45.0043 414.974 45.1541C412.412 49.1768 416.776 57.4424 406.784 63.1177L406.141 61.0876C406.184 59.295 409.467 57.9757 410.669 52.6254L410.193 51.3642L409.842 50.4466C412.346 49.7515 413.843 45.0706 414.51 42.9141Z" fill="#0F7E53"/>
<path d="M410.669 52.6271L411.406 52.125C412.896 54.9248 408.976 59.9568 406.141 61.0893C406.184 59.2967 409.467 57.9774 410.669 52.6271Z" fill="#96F3C9"/>
<path d="M406.784 63.1199C416.776 57.4446 412.412 49.179 414.974 45.1562C417.35 54.7981 413.461 63.2315 403.703 66.2513C403.578 65.7909 403.605 65.4176 403.594 64.9343C404.229 63.8564 405.52 63.5954 406.784 63.1199Z" fill="#96F3C9"/>
<path d="M388.879 37.2574C395.855 33.3916 403.92 31.6236 410.328 38.0067C407.816 38.5159 403.253 35.0865 398.234 35.3085C394.248 35.4849 391.178 38.422 389.212 37.9741L388.879 37.2574Z" fill="#97F2ED"/>
<path d="M468.36 121.859C471.601 122.818 485.618 129.255 488.407 131.124C487.728 133.712 486.8 148.164 486.663 151.314C509.116 151.808 499.604 199.615 476.55 202.972C475.825 204.463 474.978 209.695 474.6 211.668C472.954 220.293 470.957 229.75 466.718 237.497C464.545 241.492 461.932 245.229 458.921 248.636C457.221 250.563 447.053 259.903 446.702 260.803C445.575 260.891 430.193 271.62 427.283 273.158C422.514 275.689 417.408 277.524 412.12 278.607C393.196 282.564 374.266 276.78 359.412 265.25C358.027 264.176 353.703 260.952 352.419 260.802C351.623 258.924 344.666 253.124 342.519 250.975C327.864 236.306 327.006 221.74 322.791 203.081C316.747 201.879 315.359 200.633 310.71 196.728C300.468 188.126 291.199 151.289 312.944 151.25C311.388 146.041 311.781 133.66 310.327 130.359C309.981 130.533 314.44 129.001 314.575 128.956C319.421 127.361 325.862 123.292 330.58 122.082C328.28 126.431 327.335 127.428 324.676 131.472C313.746 144.709 325.827 189.326 330.996 204.844C334.756 216.131 346.037 227.519 356.727 232.412C357.944 226.516 357.043 218.616 360.108 213.108C363.006 207.899 372.748 205.368 378.371 203.852C387.98 201.26 390.501 199.115 399.28 203.881C401.172 203.001 405.415 200.794 407.209 200.891C414.9 201.312 431.909 204.789 437.432 209.929C441.269 213.505 442.244 227.34 442.342 232.334C445.903 230.946 448.918 228.8 451.897 226.548C465.758 216.067 469.44 202.867 473.352 186.772C475.591 178.098 477.533 169.615 478.524 160.652C479.397 152.704 479.253 142.244 476.265 134.729C475.704 133.32 473.941 131.177 472.974 129.947C470.965 126.603 470.033 125.456 468.36 121.859Z" fill="#23242C"/>
<path d="M312.944 151.25C315.306 152.943 315.669 153.056 316.28 156.026C317.645 162.655 318.171 169.42 319.038 176.13L322.791 203.081C316.747 201.879 315.359 200.633 310.71 196.728C300.468 188.126 291.199 151.289 312.944 151.25Z" fill="#DF906D"/>
<path d="M306.459 160.947C318.916 162.098 317.626 176.53 317.023 185.105C316.919 186.576 316.943 186.252 315.963 187.148C311.201 182.533 314.744 177.623 314.218 172.286C313.777 167.823 309.323 166.227 306.217 163.995C305.289 163.328 305.387 163.166 305.301 162.229L306.459 160.947Z" fill="#C86F54"/>
<path d="M486.664 151.314C509.117 151.808 499.605 199.615 476.551 202.972C476.652 199.188 478.275 189.567 478.91 185.155C480.373 175.01 480.767 163.745 483.314 153.922C483.711 152.383 485.275 151.89 486.664 151.314Z" fill="#DF906D"/>
<path d="M491.42 161.092C492.633 161.402 493.308 161.65 493.83 162.738C493.226 164.594 486.447 167.357 485.511 170.778C483.682 177.481 487.598 179.719 484.185 186.591L483.058 186.606L482.407 185.791C481.701 175.909 479.123 165.294 491.42 161.092Z" fill="#C86F54"/>
<path d="M398.445 210.637C399.385 210.38 401.717 210.878 402.548 211.292C411.159 215.57 422.669 210.226 430.453 214.973C436.444 224.495 437.481 233.359 431.787 242.932C426.674 252.439 412.844 261.78 406.077 248.43C404.517 245.347 411.171 242.613 409.775 239.02C408.425 238.844 403.281 239.537 401.526 239.711C398.62 239.774 390.602 238.84 389.141 240.504C389.344 241.824 391.67 244.675 392.548 246.002C394.849 249.48 389.42 253.74 386.814 254.579C377.295 257.641 367.208 245.412 364.914 237.344C362.614 230.257 364.232 224.22 367.518 217.749C376.709 212.866 386.367 215.5 398.445 210.637Z" fill="#DF906D"/>
<path d="M425.806 215.505C427.311 215.319 427.838 215.157 428.586 216.522C428.555 216.952 428.505 217.556 428.278 217.934C424.487 224.331 418.992 228.441 411.921 230.663C399.733 234.493 390.061 233.124 378.713 227.717C376.297 226.024 368.428 221.126 370.913 217.827C372.317 217.545 384.984 217.676 387.789 217.63C400.802 217.416 412.857 216.481 425.806 215.505Z" fill="#C86F54"/>
<path d="M417.525 218.619C419.218 218.448 422.529 218.457 424.35 218.4C414.389 231.199 399.775 231.381 385.364 227.975C382.841 226.849 376.515 223.976 376.062 221.185C377.045 220.086 379.662 220.279 381.126 220.328C393.461 220.74 405.255 219.732 417.525 218.619Z" fill="#F5F6F8"/>
<path d="M370.262 111.11C373.671 109.992 397.288 109.503 402.018 109.964L403.391 111.205C424.924 111.172 448.056 114.515 468.36 121.859C470.033 125.456 470.965 126.603 472.974 129.947C465.103 124.068 443.582 119.848 433.422 118.264C411.632 115.081 389.499 115.007 367.686 118.046C357.954 119.47 342.355 123.538 332.649 126.528C330.086 127.318 326.642 130.592 324.676 131.472C327.335 127.428 328.28 126.432 330.58 122.082C332.709 120.31 353.509 115.454 357.253 114.705L353.919 113.958C355.634 113.428 360.15 112.626 362.102 112.228C364.602 112.417 367.837 111.698 370.262 111.11Z" fill="#C86F54"/>
<path d="M370.265 111.11C373.674 109.992 397.29 109.503 402.021 109.964L403.394 111.205C394.252 111.191 384.864 111.242 375.751 112.084C369.686 112.645 363.315 113.803 357.256 114.705L353.922 113.958C355.636 113.428 360.152 112.626 362.105 112.228C364.604 112.417 367.84 111.698 370.265 111.11Z" fill="#140711"/>
<path d="M352.046 177.293C360.311 177.57 373.183 182.495 366.029 193.669C363.467 197.671 356.934 198.592 352.39 199.009C329.471 197.595 330.009 178.107 352.046 177.293Z" fill="#C86F54"/>
<path d="M445.046 177.258C468.587 177.172 468.809 196.995 448.614 198.797C429.16 201.279 422.296 179.827 445.046 177.258Z" fill="#C86F54"/>
<path d="M434.537 130.855C439.521 129.977 455.45 134.266 457.411 139.576C457.31 141.29 457.497 140.613 456.471 142.182C454.12 143.359 448.948 140.817 445.177 140.133C440.641 139.251 438.414 139.066 433.964 138.992C431.471 138.95 423.702 139.839 422.01 139.33C420.512 138.096 420.028 136.376 421.253 134.814C423.706 131.675 430.91 131.285 434.537 130.855Z" fill="#23242C"/>
<path d="M362.462 130.868C365.189 130.142 382.231 132.121 377.266 139.022C375.81 139.898 370.327 139.181 368.356 139.082C363.993 138.86 360.304 139.103 355.995 139.721C353.94 140.044 343.569 143.164 342.699 142.346C336.899 136.89 354.502 131.814 357.583 131.418C358.99 131.237 360.969 131.013 362.462 130.868Z" fill="#23242C"/>
<path d="M387.538 144.076C393.102 144.964 390.786 166.92 390.949 171.208C391.172 176.947 384.896 191.819 392.295 194.602C398.453 196.917 404.405 194.292 409.881 191.854L410.528 192.151C410.887 193.236 410.688 193.504 410.337 194.665C401.612 199.54 391.402 201.173 385.772 191.071C385.529 185.559 386.835 180.923 387.596 175.453C388.353 169.848 388.663 164.192 388.522 158.539C388.438 155.272 386.61 145.636 387.538 144.076Z" fill="#C86F54"/>
<path d="M361.362 154.533C369.844 154.24 370.461 166.175 364.247 170.222C356.099 170.181 355.217 158.283 361.362 154.533Z" fill="#23242C"/>
<path d="M434.51 154.571C443.172 154.214 443.707 165.849 437.459 170.124C429.163 170.577 429.003 158.071 434.51 154.571Z" fill="#23242C"/>
</g>
<defs>
<clipPath id="clip0_9359_14601">
<rect width="798.75" height="493.875" fill="white"/>
</clipPath>
</defs>
</svg>
