<svg width="656" height="406" viewBox="0 0 656 406" fill="none" xmlns="http://www.w3.org/2000/svg">
<path d="M365.877 230.109C375.518 233.376 375.005 237.573 379.724 246.144C381.402 249.189 384.522 255.979 385.531 259.034L420.25 274.457C429.798 278.689 441.067 283.508 449.917 288.868C457.713 294.069 463.844 301.254 466.881 310.225C472.057 319.408 480.478 368.867 481.365 381.102L389.093 381.112L359.826 381.105C355.937 381.105 348.858 381.333 345.162 381.07C339.758 381.249 333.461 381.099 328 381.105C318.838 381.163 309.674 381.15 300.511 381.073C286.969 381.461 271.889 381.115 258.157 381.115L175.324 381.124C175.608 376.137 177.477 366.227 178.262 360.798C178.574 358.966 178.899 355.193 179.582 353.678C179.676 351.558 180.844 345.741 181.3 343.412C183.63 331.5 186.126 318.58 190.955 307.429C192.054 305.16 193.115 303.302 194.399 301.121C195.437 299.418 197.157 297.235 198.551 295.845C204.497 287.986 226.403 278.958 235.877 274.773C247.797 269.555 259.687 264.269 271.546 258.915C272.921 254.806 275.177 250.479 277.214 246.642C277.983 244.41 280.569 239.276 281.821 237.113C284.262 232.896 286.563 231.568 291.069 230.408L291.002 231.76L292.504 232.219C292.494 233.906 292.437 235.808 292.483 237.474C292.86 235.227 292.783 233.088 292.78 230.814C296.627 233.778 299.381 237.335 303.729 240.517C317.694 250.737 333.077 254.717 350.261 252.19C352.853 251.809 365.095 248.166 365.451 248.299L366.13 249.988C366.812 249.014 366.892 248.637 367.238 247.54C369.173 244.322 369.445 241.343 369.112 237.712C369.064 237.248 369.096 236.217 369.092 235.703C367.055 235.06 366.261 233.768 366.085 231.819L365.835 231.807L365.877 230.109Z" fill="#CFDEF6"/>
<path d="M385.415 260.652C405.181 269.663 430.348 279.718 448.824 289.958L449.916 288.869C457.713 294.069 463.843 301.255 466.88 310.226C472.056 319.409 480.477 368.867 481.365 381.103L389.092 381.112L359.825 381.106C355.937 381.106 348.858 381.333 345.161 381.071C343.124 380.446 328.447 380.638 325.699 380.907L325.795 380.616L325.609 380.734C327.454 380.232 344.45 380.433 347.993 380.36C348.403 374.748 348.227 367.887 348.316 362.109C346.279 358.099 339.194 359.399 335.097 359.409C336.916 357.295 340.049 352.042 341.609 349.457C351.417 332.872 359.633 315.4 366.148 297.269C366.689 296.075 367.833 292.514 368.323 291.122C369.547 292.833 373.419 299.117 374.809 299.567C376.702 298.1 380.024 284.9 381.235 281.51C382.968 274.63 384.364 267.669 385.415 260.652Z" fill="#CFDEF6"/>
<path d="M466.435 313.018C466.307 311.923 465.909 311.419 466.137 310.353C466.4 310.345 466.627 310.291 466.88 310.227C472.056 319.41 480.477 368.868 481.365 381.104L389.092 381.113L359.825 381.107C355.937 381.107 348.858 381.334 345.161 381.072C343.124 380.447 328.447 380.639 325.699 380.908L325.795 380.617L325.609 380.736C327.454 380.233 344.45 380.434 347.993 380.361C348.403 374.749 348.227 367.888 348.316 362.11C348.701 364.647 348.476 376.315 348.464 379.566L427.536 379.56C427.943 374.438 432.398 341.87 435.115 339.417C435.553 340.314 435.717 340.672 435.473 341.723C432.568 354.317 430.925 366.825 429.045 379.592L437.882 379.547L479.654 379.544C478.949 373.58 477.796 366.591 476.839 360.63C474.337 345.08 471.505 327.953 466.435 313.018Z" fill="#5F7897"/>
<path d="M443.077 318.584C442.974 324.471 441.821 331.226 441.219 337.184C440.197 347.539 439.361 357.914 438.714 368.301C438.573 370.508 437.807 377.75 437.884 379.547L429.047 379.592C430.927 366.824 432.57 354.317 435.476 341.722C435.719 340.672 435.556 340.313 435.117 339.416C438.025 332.539 438.999 325.973 443.077 318.584Z" fill="#A6BAD4"/>
<path d="M381.235 281.51C380.79 285.159 377.302 299.977 374.858 301.915C372.289 302.306 368.099 298.853 366.148 297.269C366.69 296.075 367.833 292.514 368.323 291.122C369.547 292.833 373.42 299.117 374.81 299.567C376.703 298.1 380.024 284.9 381.235 281.51Z" fill="#A6BAD4"/>
<path d="M449.916 288.869C457.713 294.07 463.844 301.255 466.88 310.226C466.627 310.29 466.4 310.345 466.137 310.353C465.91 311.419 466.307 311.922 466.435 313.018C462.168 302.307 458.299 296.497 448.824 289.959L449.916 288.869Z" fill="#5C7290"/>
<path d="M453.232 295.5C453.517 295.651 453.645 295.853 453.885 296.108C453.818 297.068 451.352 301.435 450.727 302.599C448.27 307.189 446.496 311.809 444.379 316.526C443.901 316.365 444.061 316.404 443.671 315.973C443.504 312.555 450.974 298.645 453.232 295.5Z" fill="#7D97BA"/>
<path d="M295.646 281.742C296.874 285.06 298.071 288.389 299.238 291.728C304.724 306.324 310.656 320.684 317.837 334.549C319.281 337.336 322.115 342.781 323.755 345.312C324.21 345.965 324.806 346.878 325.319 347.454C325.46 348.889 327.769 351.801 328.691 353.082C331.123 349.908 334.175 344.174 336.171 340.549C344.89 324.7 351.738 308.111 358.154 291.227L361.543 281.887C362.001 282.283 362.475 282.574 362.622 283.132C363.272 284.058 366.863 288.871 367.123 289.398C368.061 290.324 367.994 290.002 368.324 291.121C367.834 292.513 366.69 296.074 366.149 297.268C359.634 315.399 351.418 332.871 341.61 349.456C340.05 352.041 336.917 357.294 335.098 359.408C339.195 359.398 346.28 358.098 348.317 362.108C348.227 367.886 348.403 374.747 347.993 380.359C344.451 380.432 327.455 380.231 325.61 380.734L325.796 380.615L325.7 380.906C328.448 380.637 343.125 380.445 345.162 381.07C339.758 381.249 333.461 381.099 328 381.105C318.838 381.163 309.674 381.15 300.511 381.073C286.969 381.461 271.889 381.115 258.157 381.115L175.324 381.124C175.608 376.137 177.477 366.227 178.262 360.798C178.614 361.528 179.034 362.505 179.508 363.133C178.647 368.607 177.819 374.084 177.025 379.564L218.692 379.555L227.97 379.603C227.567 377.515 227.246 375.878 227.056 373.741C226.063 371.39 225.534 361.97 224.781 358.649C223.532 353.127 222.523 347.214 221.244 341.663C220.985 340.542 221.128 340.123 221.567 339.114C224.514 341.843 228.61 374.001 229.447 379.596L308.779 379.577C308.773 374.645 308.838 369.613 308.515 364.693C308.071 357.919 317.213 359.369 321.859 359.418C309.093 340.103 299.215 319.244 291.126 297.603C290.705 296.775 289.215 292.004 288.833 290.845C288.926 290.673 289.727 289.65 289.895 289.432C291.519 287.348 293.125 285.19 294.726 283.083L295.646 281.742Z" fill="#656C76"/>
<path d="M359.376 292.146C361.179 293.569 362.992 294.978 364.815 296.372C357.71 315.603 346.022 341.808 333.892 358.412C333.997 355.235 334.587 354.018 331.963 351.801L331.832 351.692C332.389 350.036 335.157 345.526 336.137 343.79C338.242 340.017 340.272 336.206 342.233 332.356C347.896 321.273 355.407 303.76 359.376 292.146Z" fill="#A8A7A6"/>
<path d="M292.438 296.661C294.082 295.164 296.045 294.003 297.922 292.799C303.194 306.383 308.266 318.668 314.647 331.818C317.53 337.76 323.293 346.664 325.471 351.856C322.563 354.117 323.441 355.271 323.505 358.948C310.706 339.499 300.276 318.587 292.438 296.661Z" fill="#A8A7A6"/>
<path d="M175.324 381.125C175.608 376.138 177.477 366.228 178.262 360.799C178.614 361.529 179.034 362.506 179.508 363.134C178.647 368.608 177.819 374.085 177.025 379.565L218.692 379.556L227.97 379.604C227.567 377.515 227.246 375.879 227.056 373.742C227.921 374.953 228.297 377.951 228.029 379.399L227.638 379.87C223.459 380.225 216.25 379.982 211.871 379.966L186.82 379.946C185.035 379.934 178.398 380.244 177.234 379.533C175.778 376.731 178.657 369.639 178.304 366.923C177.801 367.727 176.015 378.918 176.086 380.27C188.215 380.731 307.891 380.017 308.856 380.683C306.638 381.269 301.525 380.722 300.511 381.074C286.969 381.461 271.889 381.115 258.157 381.115L175.324 381.125Z" fill="#546C8C"/>
<path d="M294.725 283.084C295.699 286.407 296.965 289.53 297.919 292.799C296.042 294.004 294.08 295.164 292.435 296.662C292.268 295.629 290.347 290.638 289.895 289.433C291.519 287.349 293.125 285.192 294.725 283.084Z" fill="#868788"/>
<path d="M362.623 283.133C363.273 284.058 366.864 288.872 367.123 289.399C366.547 291.08 365.169 294.792 364.814 296.372C362.991 294.978 361.178 293.57 359.375 292.147C360.073 290.714 361.848 285.128 362.623 283.133Z" fill="#868788"/>
<path d="M310.207 379.69C309.861 378.009 309.466 362.093 311.481 361.356C312.931 360.825 322.112 360.639 323.714 361.276C323.749 362.221 322.929 362.122 322.058 363.512C322.958 365.069 333.567 364.687 335.03 364.076C335.178 362.823 333.893 362.903 333.711 361.366C334.688 360.69 338.541 360.879 339.864 360.914C346.453 361.09 346.984 359.976 346.888 366.773L346.914 379.623C343.919 379.629 327.33 379.809 325.549 379.453L325.098 378.889C324.137 380.155 316.775 380.046 315.532 378.912C314.414 380.145 311.882 379.741 310.207 379.69Z" fill="#FEFDFD"/>
<path d="M310.207 379.69C309.861 378.009 309.466 362.093 311.481 361.356C312.931 360.825 322.112 360.639 323.714 361.276C323.749 362.221 322.929 362.122 322.058 363.512C322.958 365.069 333.567 364.687 335.03 364.076C335.178 362.823 333.893 362.903 333.711 361.366C334.688 360.69 338.541 360.879 339.864 360.914C346.453 361.09 346.984 359.976 346.888 366.773L310.385 366.737C310.407 369.428 310.571 377.605 310.207 379.69Z" fill="#A6BAD4"/>
<path d="M315.534 378.913C314.758 378.621 314.438 378.487 313.711 378.093C314.386 377.734 314.551 377.721 315.272 377.564L315.509 376.984L315.19 376.51L313.752 376.289L313.921 375.927L315.471 375.376L315.559 374.883C314.965 374.339 314.614 374.4 313.763 374.31L313.959 373.887L315.38 373.531L315.477 372.984C314.496 371.747 313.729 373.083 313.764 371.882C315.846 371.437 316.879 370.546 317.168 368.355L317.548 368.525L318.038 370.095L318.506 370.213C319.788 368.916 318.428 368.493 319.572 368.423L319.596 368.628C319.685 369.374 319.675 369.457 319.988 370.117L320.65 370.124C320.99 369.393 320.98 369.272 321.079 368.458L321.512 368.541L321.742 369.947L322.207 370.191L322.758 369.912L323.043 368.48L323.424 368.445C324.001 369.621 324.42 370.729 325.42 371.558L326.986 372.058L326.855 372.359C326.243 372.58 325.448 372.792 324.978 373.179L325.211 373.541L326.864 373.804L327.002 374.214C326.381 374.39 325.974 374.483 325.34 374.601L325.08 375.168C326.06 376.293 326.614 374.954 326.915 376.145C326.32 376.587 325.852 376.901 325.221 377.292L326.877 378.057C326.371 378.56 325.791 378.666 325.099 378.89C324.138 380.155 316.777 380.046 315.534 378.913Z" fill="#353138"/>
<path d="M316.466 371.218L324.177 371.215C324.261 373.989 324.229 376.109 324.094 378.88L316.456 378.934C316.327 376.391 316.421 373.764 316.466 371.218Z" fill="#868788"/>
<path d="M318.119 372.9L322.505 372.836L322.579 377.09L318.098 377.125L318.119 372.9Z" fill="#656C76"/>
<path d="M325.171 353.948L332.259 353.936C332.339 356.892 332.362 359.851 332.33 362.808C329.985 362.891 327.454 362.872 325.094 362.894L325.171 353.948Z" fill="#A8A7A6"/>
<path d="M365.878 230.109C375.52 233.376 375.007 237.573 379.725 246.144C381.404 249.189 384.524 255.979 385.533 259.034L420.251 274.457C429.8 278.689 441.068 283.508 449.919 288.868L448.826 289.957C430.351 279.717 405.184 269.662 385.417 260.652C384.367 267.668 382.97 274.629 381.237 281.509C380.026 284.9 376.705 298.099 374.812 299.566C373.422 299.116 369.549 292.832 368.325 291.121C367.996 290.002 368.063 290.324 367.124 289.398C366.865 288.872 363.274 284.058 362.624 283.132C362.477 282.574 362.002 282.283 361.544 281.887L358.156 291.227C351.74 308.111 344.891 324.7 336.173 340.549C334.177 344.175 331.124 349.908 328.693 353.082C327.771 351.801 325.461 348.89 325.32 347.455C325.74 336.962 324.657 325.165 327.002 314.837C327.892 310.907 330.404 306.574 332.117 302.952C334.411 298.095 338.866 294.388 340.974 289.456C343.764 282.739 343.219 273.18 349.43 268.406C355.25 263.935 361.16 259.946 365.471 253.858C368.989 248.891 371.487 243.869 370.529 237.64C370.132 236.878 369.642 236.361 369.094 235.703C367.057 235.06 366.263 233.768 366.086 231.819L365.837 231.807L365.878 230.109Z" fill="#CFDEF6"/>
<path d="M365.876 230.109C375.518 233.376 375.005 237.573 379.724 246.144C381.402 249.189 384.522 255.979 385.531 259.034L420.25 274.457C429.798 278.689 441.067 283.508 449.917 288.868L448.825 289.957C430.349 279.717 405.182 269.662 385.416 260.652C384.365 267.668 382.968 274.629 381.235 281.509C380.025 284.9 376.703 298.099 374.81 299.566C373.42 299.116 369.547 292.832 368.324 291.121C367.994 290.002 368.061 290.324 367.122 289.398C366.863 288.872 363.272 284.058 362.622 283.132C362.475 282.574 362.001 282.283 361.543 281.887C359.288 279.227 355.838 274.147 352.92 273.031C351.027 272.308 349.64 273.082 347.91 273.834C353.471 262.767 371.437 292.621 374.493 297.184C375.175 295.294 376.46 291.149 377.004 289.256C378.727 283.247 384.352 264.311 383.558 258.936C383.048 255.496 374.583 239.319 372.658 235.754C371.674 234.43 367.766 232.002 366.085 231.819L365.835 231.807L365.876 230.109Z" fill="#5C7290"/>
<path d="M347.91 273.834C349.639 273.082 351.026 272.308 352.919 273.031C355.837 274.147 359.287 279.227 361.542 281.887L358.153 291.227C354.819 288.429 347.951 282.863 346.039 279.015C346.5 277.361 347.285 275.46 347.91 273.834Z" fill="#A6BAD4"/>
<path d="M331.953 316.632C334.064 316.171 336.159 317.469 336.687 319.565C337.219 321.661 335.989 323.798 333.91 324.393C332.507 324.797 330.992 324.403 329.964 323.365C328.933 322.328 328.551 320.812 328.965 319.41C329.378 318.009 330.525 316.944 331.953 316.632Z" fill="#5C7290"/>
<path d="M331.45 318.618C332.222 318.113 333.218 318.095 334.009 318.573C334.797 319.05 335.245 319.938 335.159 320.857C335.072 321.776 334.464 322.567 333.599 322.887C332.449 323.31 331.168 322.804 330.617 321.712C330.066 320.62 330.425 319.287 331.45 318.618Z" fill="#CFDEF6"/>
<path d="M292.484 237.474C292.861 235.227 292.785 233.088 292.782 230.814C296.628 233.779 299.382 237.335 303.73 240.517C317.695 250.738 333.078 254.717 350.263 252.19C352.854 251.809 365.096 248.167 365.452 248.299L366.131 249.988C366.813 249.015 366.893 248.637 367.239 247.541C369.174 244.322 369.446 241.343 369.113 237.713C369.065 237.248 369.097 236.217 369.094 235.703C369.642 236.361 370.132 236.878 370.529 237.64C371.487 243.87 368.988 248.892 365.471 253.858C361.16 259.946 355.25 263.935 349.43 268.406C343.219 273.181 343.764 282.739 340.974 289.457C338.866 294.389 334.411 298.095 332.117 302.953C330.403 306.574 327.892 310.908 327.002 314.837C324.657 325.165 325.74 336.962 325.32 347.455C324.808 346.878 324.212 345.966 323.757 345.312C323.94 343.483 323.792 340.367 323.843 338.426C324.167 326.799 322.742 319.504 327.527 308.625C326.089 305.569 325.048 302.206 323.174 299.294C321.14 296.132 317.717 293.15 316.26 289.663C313.997 284.246 313.685 276.488 310.664 271.515C309.219 269.135 304.556 265.977 302.169 264.239C294.873 258.93 287.945 251.273 286.383 242.089C285.981 239.728 286.089 237.632 287.505 235.668C287.991 235.288 290.273 234.274 290.972 233.946L291.003 231.76L292.505 232.22C292.495 233.906 292.438 235.808 292.484 237.474Z" fill="#F2A082"/>
<path d="M291.003 231.76L292.505 232.219C292.495 233.906 292.438 235.808 292.484 237.474C292.319 240.897 291.783 246.271 290.788 249.557C296.811 259.531 303.546 262.393 311.601 269.884C314.77 272.831 315.791 285.159 317.963 289.282C322.248 296.276 325.496 298.398 328.363 306.767C331.8 299.944 335.032 295.81 339.074 289.727C341.656 285.846 341.701 274.098 345.522 269.936C347.508 267.196 353.713 263.314 356.621 260.896C361.051 257.213 362.835 254.531 366.131 249.988C366.813 249.015 366.893 248.637 367.239 247.54C369.174 244.322 369.446 241.343 369.113 237.713C369.065 237.248 369.097 236.217 369.094 235.703C369.642 236.361 370.132 236.878 370.529 237.64C371.487 243.869 368.988 248.892 365.471 253.858C361.16 259.946 355.25 263.935 349.43 268.406C343.219 273.181 343.764 282.739 340.974 289.456C338.866 294.388 334.411 298.095 332.117 302.953C330.403 306.574 327.892 310.908 327.002 314.837C324.657 325.165 325.74 336.962 325.32 347.455C324.808 346.878 324.212 345.965 323.757 345.312C323.94 343.483 323.792 340.366 323.843 338.425C324.167 326.799 322.742 319.503 327.527 308.624C326.089 305.569 325.048 302.205 323.174 299.293C321.14 296.131 317.717 293.15 316.26 289.662C313.997 284.245 313.685 276.487 310.664 271.515C309.219 269.134 304.556 265.976 302.169 264.239C294.873 258.93 287.945 251.273 286.383 242.089C285.981 239.728 286.089 237.632 287.505 235.668C287.991 235.288 290.273 234.274 290.972 233.946L291.003 231.76Z" fill="#5C7290"/>
<path d="M291.003 231.76L292.504 232.219C292.495 233.906 292.438 235.808 292.483 237.474C292.318 240.897 291.782 246.271 290.788 249.557C289.984 248.358 289.963 248.143 289.747 246.752C286.95 242.46 288.295 239.95 287.504 235.668C287.99 235.288 290.273 234.274 290.971 233.946L291.003 231.76Z" fill="#A6BAD4"/>
<path d="M291.002 231.76L292.504 232.219C292.494 233.906 292.437 235.808 292.483 237.474C292.317 240.897 291.781 246.271 290.787 249.557C289.984 248.358 289.963 248.143 289.746 246.752C290.522 242.21 290.841 238.531 290.97 233.946L291.002 231.76Z" fill="#8C433F"/>
<path d="M291.002 231.76L290.97 233.946C290.272 234.274 287.99 235.288 287.503 235.668C286.088 237.632 285.98 239.728 286.381 242.089C287.943 251.273 294.872 258.93 302.167 264.239C304.555 265.976 309.217 269.134 310.663 271.515C313.684 276.487 313.996 284.245 316.259 289.662C317.716 293.15 321.139 296.131 323.173 299.293C325.047 302.205 326.088 305.569 327.526 308.624C322.74 319.503 324.166 326.799 323.842 338.425C323.791 340.366 323.938 343.483 323.756 345.312C322.116 342.782 319.281 337.336 317.837 334.55C310.656 320.684 304.724 306.325 299.239 291.729C298.072 288.389 296.874 285.06 295.647 281.743C297.931 279.026 300.151 276.082 302.85 273.759C306.32 270.773 307.181 274.356 309.672 274.496C304.167 261.572 285.37 292.939 282.666 297.259C282.598 297.072 282.531 296.883 282.466 296.694C279.289 287.211 273.781 269.162 273.446 259.153C273.385 257.337 276.874 250.612 277.959 248.399C280.147 243.801 283.052 236.405 287.08 233.463C287.873 232.884 290 232.125 291.002 231.76Z" fill="#CFDEF6"/>
<path d="M295.648 281.742C297.933 279.026 300.153 276.081 302.851 273.759C306.322 270.773 307.183 274.355 309.673 274.496C310.424 276.453 310.625 278.238 310.566 280.338C311.494 281.729 311.472 283.547 310.511 284.915C309.549 286.282 307.846 286.919 306.223 286.516C304.775 286.645 300.17 290.51 299.24 291.728C298.074 288.389 296.876 285.06 295.648 281.742Z" fill="#A6BAD4"/>
<path d="M306.222 286.518C304.466 286.082 303.213 284.534 303.151 282.726C303.089 280.918 304.235 279.288 305.957 278.734C307.679 278.18 309.56 278.835 310.565 280.34C311.493 281.731 311.471 283.549 310.51 284.916C309.548 286.284 307.845 286.92 306.222 286.518Z" fill="#546C8C"/>
<path d="M306.208 280.438C307.408 279.915 308.806 280.433 309.375 281.611C309.945 282.789 309.482 284.206 308.327 284.821C307.539 285.241 306.584 285.196 305.839 284.703C305.094 284.211 304.678 283.351 304.755 282.461C304.832 281.571 305.39 280.795 306.208 280.438Z" fill="#A6BAD4"/>
<path d="M213.684 318.211C217.156 324.631 219.311 332.145 221.569 339.115C221.13 340.124 220.987 340.543 221.246 341.664C222.525 347.215 223.534 353.128 224.783 358.65C225.536 361.971 226.065 371.391 227.058 373.742C227.248 375.879 227.569 377.515 227.972 379.604L218.694 379.556C218.878 376.955 218.155 368.659 217.96 365.735C217.345 356.036 216.548 346.347 215.57 336.677C214.977 330.918 213.902 323.84 213.684 318.211Z" fill="#A6BAD4"/>
<path d="M277.213 246.643C277.982 244.411 280.568 239.276 281.82 237.113C284.261 232.896 286.562 231.569 291.068 230.408L291.001 231.76C289.999 232.125 287.872 232.884 287.079 233.463C283.051 236.405 280.147 243.801 277.958 248.399C276.873 250.612 273.384 257.337 273.445 259.153C273.78 269.163 279.288 287.211 282.466 296.694C282.53 296.883 282.597 297.072 282.665 297.259C285.369 292.939 304.166 261.572 309.671 274.497C307.18 274.356 306.319 270.773 302.849 273.76C300.15 276.082 297.93 279.026 295.646 281.743L294.725 283.083C293.125 285.191 291.519 287.349 289.894 289.432C289.727 289.651 288.926 290.674 288.832 290.846C287.713 292.656 284.246 298.035 282.923 299.412L282.307 299.274C279.936 296.712 276.468 282.882 275.104 278.539C273.85 272.974 272.361 266.206 271.613 260.589L235.761 276.571C226.026 280.867 215.856 285.389 206.615 290.763C204.273 292.125 201.465 295.475 199.782 296.723C199.008 296.495 199.042 296.45 198.551 295.845C204.496 287.986 226.403 278.959 235.877 274.774C247.796 269.555 259.686 264.269 271.546 258.916C272.92 254.807 275.177 250.479 277.213 246.643Z" fill="#5C7290"/>
<path d="M190.954 307.43L191.297 310.638C186.692 322.722 184.42 335.832 181.967 348.487C181.802 349.336 181.648 350.607 181.398 351.399L180.774 351.309C180.247 352.376 180.443 352.837 179.582 353.679C179.676 351.559 180.844 345.742 181.299 343.414C183.63 331.502 186.126 318.581 190.954 307.43Z" fill="#546C8C"/>
<path d="M275.105 278.539C276.469 282.883 279.938 296.712 282.308 299.274L282.925 299.413C284.248 298.036 287.715 292.656 288.834 290.846C289.217 292.004 290.706 296.776 291.127 297.604C289.335 298.801 284.21 302.696 282.141 301.983C279.928 299.527 275.212 282.616 275.105 278.539Z" fill="#A6BAD4"/>
<path d="M179.582 353.679C180.443 352.836 180.247 352.375 180.774 351.309L181.398 351.398C180.738 355.306 180.108 359.217 179.508 363.134C179.034 362.506 178.613 361.529 178.262 360.799C178.573 358.967 178.899 355.194 179.582 353.679Z" fill="#5C7290"/>
<path d="M194.397 301.122L196.444 300.928C194.109 304.414 192.892 306.761 191.296 310.638L190.953 307.43C192.052 305.161 193.113 303.304 194.397 301.122Z" fill="#5C7290"/>
<path d="M194.398 301.122C195.436 299.418 197.157 297.235 198.551 295.846C199.042 296.45 199.009 296.495 199.782 296.723C198.728 298.029 197.4 299.584 196.445 300.927L194.398 301.122Z" fill="#546C8C"/>
<path d="M202.809 295.441C205.378 296.32 213.685 314.046 213.463 316.942C212.239 316.455 209.699 310.643 209.367 309.483C208.474 306.359 202.778 298.127 202.809 295.441Z" fill="#7C94BA"/>
<path d="M253.813 142.791C251.492 134.296 249.691 125.668 248.418 116.954C245.71 98.6133 246.051 87.0611 256.925 72.5182C259.362 68.4366 261.442 63.7186 264.437 59.9951C288.038 30.6609 343.688 28 373.461 48.6795C380.04 53.2499 384.396 60.4316 385.476 68.2902C386.055 68.344 386.632 68.4039 387.212 68.4699C393.346 69.1752 398.961 72.0492 402.744 76.9735C411.796 88.7577 409.928 105.709 408.179 119.52C406.821 127.155 405.293 135.361 403.23 142.851C400.392 143.346 397.772 143.115 397.346 146.369C396.792 152.593 394.636 164.66 392.888 170.808C391.875 176.318 389.816 187.162 388.099 192.36L387.484 193.389L387.385 193.928C386.135 201.164 381.308 211.96 375.684 216.594C372.692 219.669 369.184 222.591 365.924 225.415L365.879 230.11L365.837 231.808L366.087 231.82C366.263 233.768 367.058 235.061 369.095 235.703C369.098 236.217 369.066 237.248 369.114 237.713C369.447 241.343 369.175 244.323 367.24 247.541C366.894 248.637 366.814 249.015 366.132 249.988L365.453 248.3C365.097 248.167 352.855 251.81 350.264 252.191C333.079 254.717 317.696 250.738 303.731 240.518C299.383 237.335 296.629 233.779 292.783 230.815C292.785 233.088 292.862 235.227 292.485 237.474C292.439 235.808 292.496 233.907 292.506 232.22L291.004 231.76L291.071 230.409C290.774 229.211 290.829 226.621 290.81 225.28C289.298 223.852 286.774 221.889 285.113 220.516C279.55 215.46 275.363 210.699 272.317 203.773C270.735 200.186 270.066 197.894 269.219 194.117L268.993 193.546L268.6 192.271C266.937 187.712 264.997 176.169 264.095 171.129C263.041 169.094 261.495 159.824 260.939 157.04C260.42 154.362 260.035 151.487 259.629 148.774L259.135 146.349L259.043 144.494C258.158 143.964 255.727 143.329 254.616 143.001L253.813 142.791Z" fill="#F2A082"/>
<path d="M253.813 142.791C251.492 134.296 249.691 125.668 248.418 116.954C245.71 98.6133 246.051 87.0611 256.925 72.5182C259.362 68.4366 261.442 63.7186 264.437 59.9951C288.038 30.6609 343.688 28 373.461 48.6795C380.04 53.2499 384.396 60.4316 385.476 68.2902C386.055 68.344 386.632 68.4039 387.212 68.4699C393.346 69.1752 398.961 72.0492 402.744 76.9735C411.796 88.7577 409.928 105.709 408.179 119.52C406.821 127.155 405.293 135.361 403.23 142.851C400.392 143.346 397.772 143.115 397.346 146.369C396.792 152.593 394.636 164.66 392.888 170.808L391.065 171.277C389.351 170.83 389.499 170.622 389.543 168.899C389.809 158.382 393.711 142.972 389.057 133.295C385.713 128.489 384.518 124.685 383.409 119.028C379.271 108.642 380.078 101.276 369.767 93.2813C354.309 98.7008 340.802 100.813 324.344 100.834C320.314 100.839 315.917 100.04 312 99.4086C304.623 98.2206 293.561 93.7835 286.451 97.1685C276.296 102.003 276.613 110.484 273.534 118.275C271.824 127.037 267.886 131.344 265.739 139.134C264.011 145.406 266.589 156.879 266.755 163.513C266.928 165.823 267.424 168.39 267.35 170.626C266.798 170.995 266.838 171.009 266.189 171.103L265.708 170.959L264.095 171.129C263.041 169.094 261.495 159.824 260.939 157.04C260.42 154.362 260.035 151.487 259.629 148.774L259.135 146.349L259.043 144.494C258.158 143.964 255.727 143.329 254.616 143.001L253.813 142.791Z" fill="#2C292F"/>
<path d="M249.062 110.246C249.5 109.665 249.96 109.101 250.44 108.554C254.616 103.892 263.023 100.532 269.292 100.162C270.541 100.089 272.5 99.9928 273.419 100.81C270.95 108.985 272.592 113.408 271.487 121.208C270.882 125.476 266.887 130.589 265.258 135.605C261.452 147.321 265.193 155.881 265.294 168.224L265.055 168.72C264.118 167.434 262.618 159.502 262.182 157.36L260.937 157.039C260.418 154.361 260.033 151.486 259.627 148.773L259.132 146.349L259.041 144.493C258.156 143.963 255.725 143.329 254.613 143.001C254.713 141.13 252.503 132.903 251.986 130.242C250.627 123.243 249.744 117.328 249.062 110.246Z" fill="#353138"/>
<path d="M260.643 147.75C261.235 150.982 261.83 154.086 262.184 157.361L260.939 157.04C260.42 154.362 260.035 151.487 259.629 148.774L260.643 147.75Z" fill="#241514"/>
<path d="M259.039 144.494L259.631 144.326C260.261 145.077 260.587 146.801 260.639 147.75L259.625 148.774L259.131 146.349L259.039 144.494Z" fill="#241514"/>
<path d="M269.84 102.088C270.274 103.352 268.633 106.338 267.867 107.336C264.063 112.297 259.107 114.505 253.134 115.538C253.059 113.937 255.617 113.094 256.923 112.552C262.775 110.124 266.329 107.332 269.84 102.088Z" fill="#49474E"/>
<path d="M267.992 111.117L268.239 111.504C267.571 116.927 261.067 119.885 256.37 121.096L256.121 120.845C256.21 120.07 257.337 119.694 258.063 119.239C262.006 116.771 265.559 115.281 267.992 111.117Z" fill="#49474E"/>
<path d="M401.882 91.2579C401.965 91.1039 402.205 90.6718 402.221 90.5299C403.259 81.533 394.697 73.0521 386.177 71.4288L385.828 71.3647C391.167 69.6098 391.276 71.6293 395.924 72.8397C407.856 79.7371 409.086 97.7901 407.705 109.774C407.548 111.142 407.372 112.898 407.42 114.243C407.26 114.952 407.202 115.042 406.914 115.681C406.366 115.979 406.216 116.026 405.617 115.995C393.711 115.378 388.983 102.596 384.489 93.5638C384.188 92.9562 381.331 89.9473 380.684 89.2295C382.01 86.0809 384.636 80.9042 387.586 79.1833C394.95 77.2881 399.781 85.4176 401.882 91.2579Z" fill="#353138"/>
<path d="M387.586 79.1825C394.95 77.2873 399.78 85.4168 401.881 91.2572C402.532 94.9579 402.926 96.6517 403.3 100.531C397.945 90.3744 401.061 86.4037 387.586 79.1825Z" fill="#49474E"/>
<path d="M370.039 88.4316C383.892 98.1435 382.682 103.749 383.409 119.027C379.27 108.641 380.077 101.276 369.767 93.2807C354.308 98.7001 340.801 100.812 324.343 100.833C320.313 100.839 315.917 100.039 311.999 99.408C304.622 98.22 293.56 93.7829 286.45 97.1678C276.295 102.003 276.612 110.483 273.533 118.274C273.504 110.022 272.883 101.266 279.263 94.8767C287.502 86.6248 301.659 92.3553 311.788 93.886C331.358 96.8411 351.355 94.9686 370.039 88.4316Z" fill="#DE8167"/>
<path d="M253.813 142.791C251.492 134.296 249.691 125.668 248.418 116.954C245.71 98.6133 246.051 87.0611 256.925 72.5182C259.362 68.4366 261.442 63.7186 264.437 59.9951C288.038 30.6609 343.688 28 373.461 48.6795C380.04 53.2499 384.396 60.4316 385.476 68.2902C386.055 68.344 386.632 68.4039 387.212 68.4699C393.346 69.1752 398.961 72.0492 402.744 76.9735C411.796 88.7577 409.928 105.709 408.179 119.52C407.833 116.99 407.183 117.332 407.423 114.243C407.375 112.898 407.551 111.142 407.708 109.775C409.089 97.7902 407.859 79.7371 395.927 72.8397C394.492 71.8715 393.416 71.3411 391.776 70.7277C391.113 70.4801 387.468 69.8507 387.279 69.5816L388.147 69.6502C384.14 68.8116 384.511 65.1519 383.188 61.8547C381.462 57.5509 376.872 51.682 373.057 49.1567L372.586 49.2083L374.29 50.5446C375.411 51.4322 376.58 52.9254 377.557 53.9488C382.298 58.9176 382.698 61.7574 384.39 67.7793L384.181 68.3847C382.887 66.2717 383.281 62.7663 381.321 59.8455C362.109 31.2137 309.831 32.0726 282.336 47.0229C276.68 50.0988 269.308 55.8622 265.539 61.1994C254.159 79.4796 246.259 87.3567 249.065 110.247C249.747 117.328 250.629 123.244 251.988 130.243C252.505 132.903 254.715 141.131 254.616 143.001L253.813 142.791Z" fill="#241514"/>
<path d="M273.42 100.81C274.304 98.8941 274.892 97.5741 276.227 95.882C285.348 84.3204 295.023 89.3386 306.879 91.4958C311.121 92.2757 315.403 92.8186 319.706 93.1213C332.593 94.0595 345.476 93.4855 358.074 90.5801C362.091 89.6531 367.466 87.4318 370.672 87.0039C387.184 98.299 383.155 106.196 385.551 123.588C385.884 126.022 390.448 131.049 389.055 133.294C385.711 128.488 384.516 124.685 383.408 119.027C382.681 103.749 383.891 98.1433 370.038 88.4315C351.354 94.9685 331.357 96.841 311.787 93.8859C301.658 92.3552 287.501 86.6247 279.262 94.8766C272.882 101.266 273.503 110.022 273.532 118.274C271.823 127.036 267.884 131.343 265.738 139.133C264.009 145.405 266.587 156.878 266.753 163.512C266.926 165.822 267.422 168.39 267.348 170.625C266.796 170.995 266.837 171.008 266.187 171.102L265.706 170.958L264.093 171.129C263.039 169.094 261.494 159.824 260.938 157.039L262.183 157.36C262.619 159.502 264.119 167.434 265.056 168.72L265.295 168.224C265.194 155.881 261.453 147.321 265.259 135.605C266.888 130.589 270.883 125.476 271.487 121.208C272.593 113.408 270.951 108.985 273.42 100.81Z" fill="#241514"/>
<path d="M333.105 67.4688C335.139 67.7163 342.875 72.0711 345.332 73.1999C348.839 74.8094 351.812 76.1479 355.681 77.0137C359.723 77.9012 363.91 77.9384 367.968 77.1226C369.192 76.8779 370.496 76.2607 371.575 76.3744L371.351 76.9282C368.327 78.383 366.389 79.3176 362.943 79.6459C352.074 80.6818 341.232 73.9023 333.105 67.4688Z" fill="#49474E"/>
<path d="M285.712 60.995C292.238 60.3631 300.233 62.2471 305.547 66.1637C298.883 64.3729 292.313 62.2756 285.321 63.266C278.058 64.1449 273.649 66.2963 267.383 69.9179C273.383 63.7477 277.192 61.8121 285.712 60.995Z" fill="#49474E"/>
<path d="M388.68 111.029C390.051 111.889 392.693 115.738 394.41 117.009C396.489 118.552 398.901 119.418 400.816 120.951C395.685 119.994 389.5 116.717 388.68 111.029Z" fill="#49474E"/>
<path d="M392.109 154.906C393.387 158.243 390.206 163.907 392.974 169.977C392.455 169.892 392.221 169.803 391.724 169.651C390.597 167.215 391.792 158.054 392.109 154.906Z" fill="#241514"/>
<path d="M292.219 226.547C307.606 235.8 320.218 243.667 338.992 239.017C347.083 237.013 357.272 231.388 364.197 226.556C364.296 231.511 364.354 236.476 364.652 241.426C364.732 242.758 365.591 247.627 365.45 248.299C365.094 248.166 352.852 251.809 350.26 252.19C333.076 254.717 317.693 250.737 303.728 240.517C299.38 237.335 296.626 233.778 292.779 230.814C292.782 233.088 292.859 235.227 292.482 237.474C292.436 235.808 292.493 233.906 292.503 232.219C292.432 230.477 292.406 228.241 292.219 226.547Z" fill="#DE8167"/>
<path d="M387.381 193.928C386.132 201.164 381.305 211.96 375.68 216.594C372.688 219.669 369.181 222.591 365.92 225.415L365.875 230.11L365.834 231.808L366.083 231.82C366.26 233.768 367.054 235.06 369.091 235.703C369.094 236.217 369.062 237.248 369.11 237.713C369.443 241.343 369.171 244.322 367.237 247.541C366.891 248.637 366.811 249.015 366.128 249.988L365.449 248.299C365.59 247.628 364.732 242.758 364.652 241.427C364.354 236.476 364.296 231.511 364.197 226.557C357.272 231.388 347.082 237.014 338.991 239.017C320.218 243.667 307.605 235.8 292.218 226.547C292.406 228.242 292.432 230.478 292.502 232.22L291.001 231.76L291.067 230.408C290.77 229.21 290.825 226.62 290.807 225.28C289.295 223.852 286.771 221.888 285.109 220.516L286.418 219.754C300.09 230.846 318.857 242.507 337.274 237.857C350.555 234.505 364.254 225.629 374.091 216.258C380.626 209.203 383.14 204.231 385.882 194.968L387.381 193.928Z" fill="#97453A"/>
<path d="M369.112 237.713C369.445 241.343 369.173 244.323 367.238 247.541C366.675 245.025 366.29 242.474 366.082 239.905L368.251 239.828C369.093 239.052 368.875 239.009 369.112 237.713Z" fill="#98ACC8"/>
<path d="M365.834 231.809L366.084 231.821C366.26 233.769 367.054 235.061 369.092 235.704C369.095 236.218 369.063 237.249 369.111 237.714C368.874 239.01 369.092 239.053 368.249 239.829L366.081 239.906C365.895 237.022 365.818 234.696 365.834 231.809Z" fill="#A6BAD4"/>
<path d="M265.707 170.959L266.188 171.102L265.738 171.568C266.137 175.597 269.584 190.776 270.83 194.623L269.218 194.117L268.992 193.546L268.599 192.271C266.937 187.711 264.996 176.169 264.094 171.129L265.707 170.959Z" fill="#97453A"/>
<path d="M391.062 171.277L392.885 170.809C391.873 176.318 389.813 187.163 388.096 192.361L387.481 193.389L387.382 193.928L385.883 194.969C387.02 190.591 390.87 175.259 391.062 171.277Z" fill="#97453A"/>
<path d="M272.699 200.742C275.361 207.57 278.523 211.994 283.776 217.179C284.222 217.62 286.143 219.379 286.42 219.754L285.112 220.516C279.549 215.46 275.362 210.698 272.316 203.773C272.64 202.415 272.683 202.133 272.699 200.742Z" fill="#97453A"/>
<path d="M269.219 194.117L270.831 194.624C271.416 196.999 271.867 198.438 272.7 200.743C272.684 202.134 272.64 202.416 272.317 203.773C270.734 200.187 270.065 197.894 269.219 194.117Z" fill="#5E362E"/>
<path d="M350.398 195.474C351.195 195.456 350.83 195.358 351.519 195.819C351.538 196.651 351.564 196.801 351.026 197.481C341.195 209.863 323.338 210.895 310.896 202.407C309.504 201.331 305.341 198.092 305.847 196.344C307.452 195.252 308.684 196.128 310.365 196.358C323.078 198.094 337.954 198.118 350.398 195.474Z" fill="#97453A"/>
<path d="M347.433 197.769L347.718 197.699L348 197.946C347.929 198.102 347.856 198.259 347.785 198.416C338.643 207.81 324.13 208.114 313.311 201.881C311.081 200.343 310.285 199.616 308.344 197.744C324.668 199.921 331.145 199.949 347.433 197.769Z" fill="#FEFDFD"/>
<path d="M367.729 170.486C371.223 170.097 374.849 170.545 377.995 172.293C381.903 174.468 383.94 178.956 381.297 182.981C379.199 186.173 375.782 187.081 372.226 187.841C355.237 189.417 351.098 172.781 367.729 170.486Z" fill="#DE8167"/>
<path d="M284.976 170.481C300.732 169.236 305.661 184.742 288.969 187.837C282.011 188.53 275.731 186.298 273.703 179.171C275.162 173.031 278.969 171.25 284.976 170.481Z" fill="#DE8167"/>
<path d="M296.504 126.975C300.229 126.592 315.4 127.454 311.842 134.116C310.142 136.227 304.695 134.923 302.737 134.56C299.18 133.9 296.638 133.82 293.191 133.888C291.517 134.058 290.105 134.216 288.461 134.518C285.977 134.975 281.396 136.725 278.996 136.408C278.126 135.749 278.403 136.073 278.043 134.904C278.749 129.996 292.376 127.232 296.504 126.975Z" fill="#353138"/>
<path d="M356.707 126.971C362.703 126.36 370.679 128.315 375.794 131.518C377.232 132.418 379.35 134.555 378.152 136.298C376.118 136.797 370.961 135.095 368.328 134.581C364.068 133.687 359.823 133.694 355.547 134.26C353.744 134.499 346.63 135.932 345.65 134.67C340.662 128.266 352.959 127.283 356.707 126.971Z" fill="#353138"/>
<path d="M358.465 144.443C365.291 144.873 366.287 155.899 359.41 158.329C352.76 157.563 351.652 147.368 358.465 144.443Z" fill="#5E362E"/>
<path d="M297.635 144.484C304.328 145.287 305.075 155.957 298.456 158.244C291.227 157.446 291.143 146.548 297.635 144.484Z" fill="#5E362E"/>
<path d="M322.976 143.348C327.13 147.02 318.837 174.674 321.983 179.754C325.349 185.191 334.952 179.416 336.349 179.711L336.612 180.178L336.375 180.97C330.327 184.667 323.053 185.747 319.453 178.341C319.784 168.645 322.124 158.785 322.467 149.033C322.534 147.142 322.707 145.223 322.976 143.348Z" fill="#AF563F"/>
<path d="M336.372 213.037C336.596 213.247 336.775 213.581 336.948 213.851C335.644 217.41 324.831 216.081 321.692 215.292C320.916 214.835 320.628 214.483 320.641 213.644C321.602 213.138 327.409 214.421 329.735 214.202C333.04 213.891 333.015 214.064 336.372 213.037Z" fill="#DE8167"/>
<path d="M403.227 142.852C434.826 145.39 416.001 201.538 387.48 193.389L388.095 192.361C389.812 187.163 391.872 176.319 392.884 170.809C394.633 164.661 396.789 152.594 397.343 146.37C397.769 143.115 400.389 143.347 403.227 142.852Z" fill="#F2A082"/>
<path d="M403.227 142.852C434.826 145.39 416.001 201.538 387.48 193.389L388.095 192.361C401.625 195.504 412.398 183.589 416.623 172.016C420.172 162.295 419.047 148.89 407.868 144.936C404.351 143.692 400.527 144.705 397.343 146.37C397.769 143.115 400.389 143.347 403.227 142.852Z" fill="#97453A"/>
<path d="M408.799 157.236C409.878 157.404 409.583 157.205 410.294 157.859C409.862 158.664 406.041 160.117 404.49 161.454C401.986 163.613 401.319 164.613 399.545 167.262C401.864 167.125 408.805 167.075 406.56 171.419C404.5 171.228 404.321 166.379 398.747 169.635C397.325 172.796 397.681 175.156 396.893 178.362C396.806 178.715 396.31 178.817 396.028 178.895C393.376 174.635 399.801 161.592 404.202 159.457C406.185 158.494 406.531 157.983 408.799 157.236Z" fill="#97453A"/>
<path d="M253.811 142.791L254.614 143.001C255.726 143.329 258.156 143.963 259.041 144.493L259.133 146.349L259.627 148.774C260.034 151.487 260.418 154.362 260.938 157.039C261.494 159.824 263.039 169.094 264.093 171.129C264.996 176.169 266.936 187.711 268.598 192.271L268.991 193.546C245.843 199.07 227.561 163.499 242.68 147.171C246.21 143.901 249.063 142.984 253.811 142.791Z" fill="#F2A082"/>
<path d="M253.811 142.791L254.614 143.001C255.726 143.329 258.156 143.963 259.041 144.493L259.133 146.349C252.996 142.497 247.42 144.46 242.603 149.254C233.006 161.772 241.132 179.919 252.129 188.711C255.72 191.582 264.254 194.72 268.598 192.271L268.991 193.546C245.843 199.07 227.561 163.499 242.68 147.171C246.21 143.901 249.063 142.984 253.811 142.791Z" fill="#97453A"/>
<path d="M247.135 157.023C256.022 157.855 261.657 170.53 261.17 178.644L260.656 178.927C259.112 177.646 259.316 172.686 258.244 169.926C258.108 169.83 257.97 169.737 257.83 169.647C252.831 166.457 252.414 169.493 250.548 172.8L250.1 172.702C249.534 171.472 249.868 169.989 250.622 168.897C251.93 167.002 254.339 167.371 256.381 166.904L256.544 166.349C254.518 162.06 250.355 160.2 246.732 158.427L246.609 157.777L247.135 157.023Z" fill="#97453A"/>
</svg>
