<svg width="799" height="494" viewBox="0 0 799 494" fill="none" xmlns="http://www.w3.org/2000/svg">
<path d="M365.733 274.56C368.072 275.711 373.621 277.444 376.272 278.284C395.38 284.33 415.294 281.941 432.942 272.396L433.02 275.683C433.484 285.424 433.637 289.727 435.512 299.241C437.856 315.562 447.689 329.023 461.944 337.061C463.161 336.358 465.419 335.985 466.811 335.833C469.354 335.389 475.575 335.403 478.246 335.695C490.688 337.112 538.714 358.03 550.91 364.969L554.042 366.131L557.084 367.831L558.936 368.812C560.185 369.371 561.156 369.674 562.072 370.675C563.277 371.254 564.822 371.931 565.922 372.639C567.486 373.387 568.234 373.674 569.533 374.836L571.007 375.534C572.033 376.129 574.342 377.379 575.106 378.099L577.189 379.598C579.779 381.273 584.716 384.62 586.897 386.597C581.717 393.17 578.121 400.258 573.882 405.653L573.933 405.988C576.296 409.952 578.012 414.637 579.81 418.885C580.181 419.763 581.245 422.825 581.534 423.364C583.188 427.823 584.35 434.096 585.851 437.782C588.765 452.302 592.064 466.627 594.26 481.299C594.576 483.417 594.872 485.644 595.29 487.731L542.349 487.661C539.225 487.661 536.101 487.63 532.977 487.568C526.585 487.794 519.108 487.599 512.634 487.583L509.783 487.568C506.881 487.794 491.659 487.798 489.553 487.361L489.007 487.213C485.82 487.657 484.108 487.646 480.906 487.626L478.25 487.579C474.179 487.794 468.246 487.669 464.241 487.529L462.178 487.65C458.016 487.131 445.302 487.614 440.228 487.622L391.527 487.587L387.592 487.626L362.303 487.591L357.455 487.638L355.125 487.681L351.963 487.646L348.53 487.657L343.698 487.653L338.294 487.622L335.482 487.669C319.936 487.373 303.639 487.622 288.035 487.626L284.656 487.603C280.675 487.809 274.441 487.638 270.312 487.642C248.204 487.774 225.691 487.876 203.598 487.657C207.093 462.386 212.496 431.681 223.17 408.832C234.684 384.185 258.346 372.825 282.114 362.875C292.548 358.508 304.125 353.407 314.884 349.657C320.12 348.045 328.729 343.31 333.36 340.341C350.471 329.37 359.265 319.794 363.584 299.916L363.403 299.522C363.83 297.637 364.521 295.002 364.618 293.137C365.852 288.691 365.815 279.157 365.733 274.56Z" fill="#444961"/>
<path d="M203.598 487.657C207.093 462.385 212.496 431.68 223.17 408.832C234.684 384.184 258.346 372.824 282.114 362.875C292.548 358.507 304.125 353.406 314.884 349.656C318.455 364.306 326.854 380.443 337.249 391.441C341.058 395.47 344.63 398.01 348.212 401.482C338.753 406.803 326.592 414.839 317.303 420.979C304.396 429.511 286.414 441.581 274.647 452.001C273.292 453.335 271.746 454.786 270.453 456.151C269.174 459.807 267.472 467.371 267.364 471.233C266.857 473.059 266.828 473.343 266.901 475.239C266.632 476.812 266.423 477.724 267.163 479.23C268.537 482.023 266.053 483.326 266.616 485.554C267.922 486.108 268.492 486.178 269.847 486.416L270.312 487.641C248.204 487.774 225.691 487.875 203.598 487.657Z" fill="#797F8F"/>
<path d="M270.453 456.152C271.273 448.881 273.524 441.761 274.909 434.56C275.464 431.673 275.805 427.651 278.918 426.582L279.67 426.98C280.296 428.849 274.716 446.934 274.646 451.709C274.645 451.806 274.647 451.904 274.647 452.001C273.292 453.336 271.746 454.787 270.453 456.152Z" fill="#545E70"/>
<path d="M365.736 274.56C368.074 275.711 373.623 277.444 376.274 278.284C395.383 284.33 415.297 281.941 432.945 272.396L433.023 275.683C433.487 285.424 433.639 289.727 435.515 299.241C437.859 315.562 447.691 329.023 461.946 337.061C436.003 350.025 408.604 365.56 383.558 380.291C375.715 384.915 367.908 389.601 360.139 394.348C357.606 395.889 350.639 400.371 348.215 401.483C344.632 398.011 341.061 395.471 337.251 391.441C326.857 380.444 318.458 364.306 314.887 349.657C320.123 348.045 328.731 343.31 333.363 340.341C350.474 329.37 359.268 319.794 363.586 299.916L363.406 299.522C363.833 297.637 364.524 295.002 364.62 293.137C365.855 288.691 365.818 279.157 365.736 274.56Z" fill="#F6AB91"/>
<path d="M365.736 274.56C368.074 275.711 373.623 277.444 376.274 278.284C395.383 284.33 415.297 281.941 432.945 272.396L433.023 275.683C430.215 278.726 426.954 283.034 424.181 285.674C413.39 296.145 399.162 302.34 384.146 303.105C377.28 303.399 369.922 302.721 363.586 299.916L363.406 299.522C363.833 297.637 364.524 295.002 364.62 293.137C365.855 288.691 365.818 279.157 365.736 274.56Z" fill="#E68470"/>
<path d="M461.944 337.06C463.16 336.358 465.419 335.984 466.811 335.832C467.969 335.859 470.598 335.788 471.518 336.245C469.837 338.248 462.127 346.248 460.204 347.706C458.484 349.726 455.863 353.047 453.613 354.29C451.565 357.081 442.423 367.32 439.541 369.017L439.295 369.559C438.691 370.717 437.646 372.06 436.495 372.694L434.904 374.679C432.096 377.556 429.132 380.472 426.429 383.425C424.362 385.597 422.478 384.279 421.363 385.628C418.258 389.384 418.921 391.968 414.81 395.124L414.549 395.748C413.675 396.637 413.48 397.14 412.412 397.386C409.861 400.53 405.313 406.156 402.377 408.656C400.072 410.779 395.711 415.733 393.223 416.622C380.052 424.698 366.944 432.878 353.899 441.156C343.253 447.87 333.275 453.998 322.897 461.247C315.499 466.412 308.215 471.737 301.052 477.222C296.787 480.541 292.236 484.481 288.035 487.626L284.656 487.602C280.675 487.809 274.441 487.637 270.311 487.641L269.847 486.416C268.492 486.178 267.921 486.108 266.616 485.554C266.053 483.327 268.537 482.024 267.162 479.231C266.423 477.725 266.632 476.812 266.9 475.24C266.828 473.344 266.857 473.059 267.364 471.233C267.472 467.371 269.174 459.807 270.453 456.152C271.746 454.786 273.292 453.335 274.647 452.001C286.414 441.581 304.396 429.511 317.303 420.98C326.592 414.84 338.753 406.803 348.212 401.482C350.636 400.371 357.603 395.888 360.136 394.347C367.905 389.6 375.712 384.914 383.555 380.291C408.601 365.559 436 350.025 461.944 337.06Z" fill="#DECEC3"/>
<path d="M461.944 337.06C463.16 336.358 465.419 335.984 466.811 335.832C467.969 335.859 470.598 335.788 471.518 336.245C469.838 338.248 462.127 346.248 460.204 347.706C458.484 349.726 455.863 353.047 453.613 354.29C448.164 356.791 438.09 362.756 432.704 365.815C418.137 374.063 403.703 382.551 389.415 391.277C363.245 406.881 337.476 423.149 312.132 440.06C298.591 449.243 278.254 463.537 266.9 475.24C266.828 473.344 266.857 473.059 267.364 471.233C267.472 467.371 269.174 459.807 270.453 456.152C271.746 454.786 273.292 453.335 274.647 452.001C286.414 441.581 304.396 429.511 317.303 420.98C326.592 414.84 338.753 406.803 348.212 401.482C350.636 400.37 357.603 395.888 360.136 394.347C367.905 389.6 375.712 384.914 383.555 380.291C408.601 365.559 436 350.025 461.944 337.06Z" fill="#444961"/>
<path d="M267.364 471.233C279.825 458.859 300.969 444.276 315.584 434.485C341.37 417.538 367.513 401.142 393.995 385.307C408.422 376.557 423.016 368.088 437.767 359.904C444.619 356.054 453.254 350.823 460.204 347.705C458.484 349.726 455.863 353.046 453.613 354.289C448.164 356.791 438.09 362.755 432.704 365.815C418.137 374.063 403.703 382.551 389.415 391.276C363.245 406.881 337.476 423.148 312.132 440.059C298.591 449.242 278.254 463.536 266.9 475.239C266.828 473.343 266.857 473.058 267.364 471.233Z" fill="#DECEC3"/>
<path d="M401.839 396.379C405.38 396.554 408.886 396.991 412.412 397.385C409.861 400.53 405.314 406.155 402.377 408.656C400.072 410.778 395.712 415.732 393.223 416.622C380.053 424.697 366.944 432.877 353.9 441.155C343.253 447.869 333.276 453.998 322.897 461.246C315.499 466.411 308.216 471.736 301.053 477.221C296.787 480.541 292.236 484.481 288.036 487.625L284.656 487.601C280.675 487.808 274.441 487.637 270.312 487.64L269.848 486.416C273.314 485.951 279.036 485.76 282.669 485.542C284.429 481.231 285.476 476.3 286.628 471.748C291.158 471.478 295.692 471.283 300.228 471.166C301.724 466.781 303.508 462.221 305.052 457.684C309.424 457.477 314.254 457.7 318.664 457.813C325.741 443.016 319.876 444.436 337.716 445.127C339.559 441.694 341.87 435.83 343.537 432.07C348.215 432.362 352.9 432.554 357.587 432.647C359.069 428.535 361.207 424.24 362.899 420.074C366.48 420 372.886 420.683 376.672 420.96C378.749 416.571 380.42 412.966 382.172 408.41C386.352 408.195 391.698 408.792 395.868 409.241C398.017 404.981 399.694 400.619 401.839 396.379Z" fill="#444961"/>
<path d="M284.656 487.602C286.402 485.261 295.929 477.818 298.706 475.661C324.787 455.387 353.282 438.398 381.3 420.984C384.837 418.783 399.94 409.241 402.377 408.656C400.072 410.778 395.712 415.733 393.223 416.622C380.053 424.697 366.944 432.878 353.9 441.156C343.254 447.87 333.276 453.998 322.898 461.247C315.499 466.412 308.216 471.736 301.053 477.221C296.787 480.541 292.236 484.481 288.036 487.626L284.656 487.602Z" fill="#DECEC3"/>
<path d="M364.901 423.5C366.201 423.703 366.793 423.812 368.043 424.206L368.057 424.826L366.084 426.477C364.902 427.147 365.147 427.268 364.116 427.089C363.829 425.891 364.452 424.725 364.901 423.5Z" fill="#DECEC3"/>
<path d="M345.385 435.625C346.769 435.676 347.395 435.609 348.686 436.144L348.807 436.772L347.758 437.833C346.764 438.442 346.216 438.925 345.063 438.949C344.599 437.771 345.044 437.084 345.385 435.625Z" fill="#DECEC3"/>
<path d="M289.05 475.112C290.39 475.081 291.292 474.94 292.524 475.447C292.383 476.473 291.724 476.766 290.815 477.628C290.078 478.264 290.098 478.229 289.171 478.556C288.587 477.585 288.941 476.469 289.05 475.112Z" fill="#DECEC3"/>
<path d="M326.097 448.236C327.53 448.31 328.12 448.295 329.517 448.775L329.566 449.235L328.193 450.296C327.31 450.99 326.796 451.56 325.705 451.689C325.318 450.733 325.837 449.317 326.097 448.236Z" fill="#DECEC3"/>
<path d="M403.537 400.172C404.949 400.262 405.589 400.242 406.938 400.773L407.008 401.35L405.807 402.247C404.707 402.883 404.426 403.121 403.21 403.39C402.734 402.325 403.206 401.557 403.537 400.172Z" fill="#DECEC3"/>
<path d="M384.337 411.84C385.603 411.945 386.633 411.898 387.693 412.546C387.397 413.572 386.781 413.658 385.667 414.372C384.696 415.148 384.952 415.191 383.926 415.277C383.507 414.165 384.002 413.061 384.337 411.84Z" fill="#DECEC3"/>
<path d="M266.9 475.239C278.254 463.536 298.591 449.242 312.132 440.059C337.476 423.148 363.245 406.881 389.414 391.276C403.703 382.55 418.137 374.062 432.704 365.814C438.09 362.755 448.164 356.79 453.613 354.289C451.565 357.08 442.423 367.319 439.541 369.016L439.295 369.559C438.691 370.716 437.646 372.059 436.495 372.693C428.469 371.6 426.546 371 423.593 379.339C423.133 380.637 421.877 382.907 421.195 384.208C417.404 383.845 411.554 383.123 407.825 383.046C405.914 387.006 403.71 392.173 401.749 395.903C397.459 395.528 392.427 394.971 388.179 394.924C386.81 397.795 383.374 406.085 382.104 408.024C378.261 407.653 373.173 406.931 369.477 406.721C366.85 409.744 364.924 415.646 362.996 419.606C346.876 419.099 349.819 416.524 343.639 431.707C340.688 431.543 331.328 430.443 329.713 432.206C327.674 434.426 325.866 441.323 323.953 444.303C320.347 444.3 314.2 443.968 310.976 444.175C301.968 457.22 312.658 457.306 292.008 457.684C288.76 462.939 288.862 466.5 286.532 471.291C282.692 471.599 277.466 471.786 273.843 472.309C271.775 476.347 269.975 481.89 269.847 486.415C268.492 486.177 267.921 486.107 266.616 485.553C266.053 483.326 268.537 482.023 267.162 479.23C266.423 477.724 266.632 476.811 266.9 475.239Z" fill="#444961"/>
<path d="M439.296 369.559C438.067 369.35 437.022 369.31 436.055 368.575L436.277 367.908C437.763 366.959 438.325 366.716 439.955 366.045C440.376 366.787 439.822 367.936 439.541 369.017L439.296 369.559Z" fill="#DECEC3"/>
<path d="M284.679 464.281L284.877 464.539C285.091 465.838 285.184 465.97 284.706 467.133C283.109 468.409 283.662 468.046 281.334 468.163C280.962 467.734 281.1 467.991 281.097 467.297C282.221 465.76 283.087 465.319 284.679 464.281Z" fill="#DECEC3"/>
<path d="M361.266 412.631C361.828 412.756 361.552 412.639 362.006 413.251C361.662 415.795 361.23 415.99 359 416.185C357.978 415.557 358.298 415.982 357.898 414.968C358.532 413.864 360.058 413.275 361.266 412.631Z" fill="#DECEC3"/>
<path d="M420.197 376.752C420.727 377.87 420.4 379.087 419.795 380.074C418.208 380.705 418.555 380.481 416.636 380.105L416.207 379.821C416.706 378.832 419.089 377.493 420.197 376.752Z" fill="#DECEC3"/>
<path d="M322.474 437.303L322.766 437.591C322.943 439.101 323.017 438.485 322.418 439.94C320.768 441.137 321.402 440.814 319.207 440.911L318.715 440.045C319.379 438.875 321.226 438.021 322.474 437.303Z" fill="#DECEC3"/>
<path d="M380.962 400.67L381.156 400.873C381.524 403.787 380.15 404.103 377.736 404.31C377.276 403.713 377.422 403.951 377.207 403.202C378.005 401.957 379.574 401.384 380.962 400.67Z" fill="#DECEC3"/>
<path d="M303.41 450.207C303.456 450.297 303.503 450.386 303.549 450.476C303.797 451.377 303.692 452.337 303.255 453.164C301.898 454.213 302.402 453.925 300.415 453.913C299.751 453.687 300.001 453.886 299.625 453.32C300.308 452.224 302.271 451.011 303.41 450.207Z" fill="#DECEC3"/>
<path d="M342.082 424.369C342.984 425.473 342.327 426.753 341.382 427.623C340.532 428.403 340.141 428.102 339.006 428.021L338.312 427.478C338.993 426.343 340.918 425.184 342.082 424.369Z" fill="#DECEC3"/>
<path d="M400.353 389.01C400.498 389.105 400.646 389.201 400.79 389.296C400.225 392.033 399.85 392.057 397.491 392.205L396.504 391.421L396.757 390.746C397.99 390.084 399.082 389.586 400.353 389.01Z" fill="#DECEC3"/>
<path d="M408.908 384.826C411.759 385.392 415.538 385.808 418.482 386.208C417.344 389.294 415.764 392.002 414.812 395.123L414.551 395.747C413.077 395.29 407.301 394.838 404.746 394.315C406.053 391.062 407.246 387.913 408.908 384.826Z" fill="#444961"/>
<path d="M410.655 388.285C411.665 387.786 412.894 388.167 413.444 389.152C413.998 390.137 413.682 391.382 412.73 391.986C412.067 392.408 411.225 392.427 410.542 392.037C409.856 391.647 409.446 390.914 409.47 390.126C409.493 389.341 409.949 388.633 410.655 388.285Z" fill="#DECEC3"/>
<path d="M428.643 373.594C430.854 373.895 432.715 374.232 434.907 374.678C432.099 377.554 429.135 380.471 426.432 383.424C425.925 383.127 425.406 382.792 424.903 382.481C424.509 380.31 427.485 375.731 428.643 373.594Z" fill="#444961"/>
<path d="M311.627 445.902C315.137 445.906 318.04 445.922 321.531 446.203C320.248 449.511 318.919 452.803 317.547 456.076C315.166 456.096 309.579 456.763 308.332 454.746C308.392 453.47 310.935 447.712 311.627 445.902Z" fill="#444961"/>
<path d="M313.934 448.916C315.55 449.014 316.038 448.99 316.794 450.336C316.645 451.678 316.075 452.162 315.224 453.231C313.584 452.899 313.305 452.798 312.48 451.729C312.7 450.106 312.823 450.379 313.934 448.916Z" fill="#DECEC3"/>
<path d="M350.506 420.738C353.696 420.84 356.882 421.043 360.059 421.343C358.908 424.76 357.833 427.869 356.039 431.01C353.622 431.057 348.822 430.495 346.367 430.245C347.72 426.793 348.781 424.007 350.506 420.738Z" fill="#444961"/>
<path d="M352.065 424.167C352.732 423.66 353.636 423.598 354.366 424.007C355.097 424.417 355.514 425.22 355.43 426.055C355.346 426.89 354.776 427.592 353.979 427.85C353.002 428.162 351.941 427.725 351.468 426.816C350.995 425.903 351.247 424.783 352.065 424.167Z" fill="#DECEC3"/>
<path d="M279.588 473.754C280.407 473.633 281.632 473.586 282.49 473.523C285.264 474.881 282.114 481.314 281.312 484.002L277.091 484.134L271.578 484.158C272.515 482.106 273.855 476.582 274.486 474.175L279.588 473.754Z" fill="#444961"/>
<path d="M277.657 476.496C279.174 477.206 279.334 477.269 279.938 478.482C279.812 479.863 279.002 480.655 278.138 481.802C276.707 481.166 276.32 480.846 275.836 479.457C276.07 478.068 276.715 477.569 277.657 476.496Z" fill="#DECEC3"/>
<path d="M369.846 408.805C373.133 409.011 376.414 409.285 379.689 409.632C378.357 412.421 376.938 416.182 375.747 419.103C372.1 418.979 369.27 418.69 365.637 418.261C367.072 415.128 368.542 411.996 369.846 408.805Z" fill="#444961"/>
<path d="M371.997 412.003C373.085 411.621 374.278 412.179 374.681 413.259C375.083 414.344 374.545 415.545 373.472 415.967C372.76 416.248 371.952 416.123 371.36 415.639C370.767 415.155 370.482 414.387 370.614 413.634C370.746 412.881 371.275 412.257 371.997 412.003Z" fill="#DECEC3"/>
<path d="M389.218 396.828C392.518 397.261 395.689 397.456 399.008 397.682C398.153 400.253 396.024 404.669 394.85 407.283C391.944 406.819 388.123 406.511 385.137 406.183C386.324 403.187 387.905 399.812 389.218 396.828Z" fill="#444961"/>
<path d="M391.039 400.34C391.705 399.914 392.552 399.903 393.23 400.305C393.909 400.702 394.307 401.451 394.26 402.239C394.213 403.024 393.73 403.718 393.008 404.038C392.002 404.479 390.828 404.073 390.309 403.102C389.793 402.13 390.11 400.925 391.039 400.34Z" fill="#DECEC3"/>
<path d="M331.05 432.762L340.743 433.561C339.818 436.226 337.927 440.665 336.638 443.17L326.738 442.67C327.881 440.696 329.936 435.278 331.05 432.762Z" fill="#444961"/>
<path d="M332.86 436.27C333.515 435.833 334.359 435.802 335.047 436.184C335.735 436.566 336.151 437.303 336.124 438.088C336.097 438.876 335.633 439.582 334.92 439.917C333.926 440.385 332.738 440.007 332.198 439.051C331.657 438.095 331.946 436.882 332.86 436.27Z" fill="#DECEC3"/>
<path d="M292.811 459.572L302.712 459.568C301.438 462.088 300.173 466.415 298.993 469.341L289.105 469.411C290.275 466.107 291.51 462.826 292.811 459.572Z" fill="#444961"/>
<path d="M295.314 462.448C296.42 462.253 297.485 462.963 297.726 464.063C297.966 465.159 297.296 466.252 296.208 466.537C295.466 466.728 294.678 466.501 294.154 465.94C293.63 465.378 293.455 464.578 293.697 463.849C293.938 463.123 294.559 462.585 295.314 462.448Z" fill="#DECEC3"/>
<path d="M577.192 379.598C579.782 381.272 584.719 384.62 586.899 386.596C581.72 393.169 578.124 400.257 573.885 405.652L573.935 405.988C576.299 409.951 578.015 414.637 579.813 418.885C580.183 419.763 581.248 422.825 581.537 423.363C583.19 427.822 584.353 434.095 585.854 437.782C588.768 452.301 592.067 466.626 594.263 481.298C594.579 483.416 594.875 485.644 595.292 487.731L542.352 487.661C539.228 487.661 536.104 487.629 532.98 487.567C526.588 487.793 519.111 487.598 512.637 487.583C523.276 470.293 533.854 450.928 543.834 433.198C555.265 412.889 563.058 398.147 577.192 379.598Z" fill="#444961"/>
<path d="M581.536 423.363C583.19 427.822 584.352 434.095 585.854 437.782C588.767 452.301 592.067 466.626 594.263 481.298C594.578 483.416 594.875 485.644 595.292 487.731L542.352 487.661C543.845 483.709 547.57 476.472 549.614 472.501C558.685 454.837 567.636 437.75 581.536 423.363Z" fill="#797F8F"/>
<path d="M573.933 405.988C576.297 409.952 578.013 414.637 579.811 418.885C580.181 419.763 581.246 422.825 581.535 423.364C567.635 437.751 558.684 454.837 549.612 472.501C547.568 476.473 543.844 483.709 542.35 487.661C539.226 487.661 536.102 487.63 532.978 487.567C531.8 487.326 530.072 487.15 528.836 486.99C530.064 484.146 532.596 479.894 534.14 477.093L543.345 460.311C553.524 441.636 562.74 424.109 573.933 405.988Z" fill="#545E70"/>
<path d="M554.042 366.131L557.084 367.83L558.936 368.812C560.185 369.371 561.156 369.673 562.072 370.675C563.277 371.253 564.822 371.931 565.922 372.639C567.486 373.386 568.234 373.674 569.533 374.836L571.007 375.534C572.033 376.129 574.342 377.378 575.106 378.099L577.189 379.598C563.055 398.147 555.263 412.889 543.831 433.198C533.851 450.928 523.274 470.293 512.634 487.583L509.783 487.567C506.881 487.793 491.659 487.797 489.553 487.36L489.007 487.212C485.82 487.657 484.108 487.645 480.906 487.626C484.256 483.319 492.622 468.534 495.54 463.544L531.409 401.447C537.213 391.562 546.784 374.567 554.042 366.131Z" fill="#444961"/>
<path d="M554.042 366.131L557.084 367.83C556.686 371.168 557.443 376.769 557.829 380.243C541.238 385.812 545.235 381.988 546.214 398.557C530.961 404.818 533.41 400.398 534.845 417.227C530.13 419.497 525.45 420.761 521.113 423.348L521.343 433.916C519.83 434.532 517.653 435.348 516.253 436.061C516.624 439.604 517.79 446.294 517.77 449.263C513.745 450.386 509.436 451.677 505.61 453.386C505.945 458.134 506.476 462.577 507.045 467.289C502.544 468.53 499.003 469.548 494.588 471.167C494.6 475.989 495.216 480.292 495.758 485.067C494.058 485.562 490.462 486.51 489.007 487.212C485.82 487.657 484.108 487.645 480.906 487.626C484.256 483.319 492.622 468.534 495.54 463.544L531.409 401.447C537.213 391.562 546.784 374.567 554.042 366.131Z" fill="#444961"/>
<path d="M541.086 392.645C541.851 393.179 542.529 394.821 542.358 395.8C541.512 397.201 541.812 396.78 539.924 397.4C539.46 397.256 539.339 397.142 538.914 396.901C539.019 395.445 540.236 393.932 541.086 392.645Z" fill="#DECEC3"/>
<path d="M552.898 374.4C553.733 375.242 553.877 376.519 553.717 377.625C552.766 378.863 552.976 378.509 551.221 379.037C550.539 378.727 550.827 378.961 550.426 378.223C550.761 376.739 551.912 375.601 552.898 374.4Z" fill="#DECEC3"/>
<path d="M490.938 478.619C491.605 479.485 492.096 480.675 492.006 481.795C491.187 482.973 491.215 482.676 489.623 483.16C488.992 483.043 489.038 483.027 488.57 482.575C488.777 481.046 489.943 479.895 490.938 478.619Z" fill="#DECEC3"/>
<path d="M529.497 411.457C530.355 412.288 530.706 413.025 530.874 414.168C530.203 415.779 530.531 415.268 528.69 416.197C528.078 416.107 528.28 416.138 527.711 415.807C527.754 414.344 528.768 412.815 529.497 411.457Z" fill="#DECEC3"/>
<path d="M512.731 443.088C513.269 443.872 513.635 445.05 513.768 446.002C513.047 447.274 513.222 446.895 511.432 447.457L510.761 447.519L510.359 447.145C510.605 445.678 511.818 444.317 512.731 443.088Z" fill="#DECEC3"/>
<path d="M501.817 461.059C502.433 461.792 502.948 462.916 502.979 463.899C502.293 465.26 502.457 464.866 500.733 465.607C500.05 465.377 500.3 465.486 499.734 464.979C499.863 463.532 500.947 462.315 501.817 461.059Z" fill="#DECEC3"/>
<path d="M546.215 398.557L546.691 398.986C546.933 403.238 547.97 408.563 548.029 412.425C544.285 413.9 538.77 415.877 535.256 417.531C535.919 421.854 536.722 426.5 537.206 430.818C535.646 431.603 533.844 432.742 532.171 432.574L531.843 432.199C532.561 431.017 532.838 431.076 534.168 430.51L535.236 430.05C534.799 426.964 534.304 422.654 533.61 419.728C530.326 421.198 526.742 422.907 523.317 423.917C523.317 426.82 523.388 430.14 523.275 433.003C525.232 432.313 527.362 431.505 529.351 430.978C529.671 435.765 530.833 441.047 530.919 445.323C526.711 446.77 522.491 448.194 518.263 449.594C519.008 454.081 519.979 458.68 520.279 463.178C515.767 464.625 511.769 465.916 507.339 467.66C507.838 471.745 508.887 477.268 509.078 481.092C505.303 482.519 497.214 483.452 496.165 487.013C494.663 487.622 491.41 487.361 489.554 487.361L489.008 487.212C490.463 486.51 494.059 485.562 495.759 485.067C495.217 480.292 494.601 475.989 494.589 471.167C499.004 469.548 502.545 468.53 507.046 467.29C506.477 462.577 505.946 458.134 505.611 453.386C509.437 451.677 513.746 450.386 517.771 449.263C517.791 446.294 516.625 439.604 516.254 436.062C517.654 435.348 519.831 434.532 521.344 433.916L521.114 423.348C525.451 420.762 530.131 419.498 534.846 417.227C533.411 400.398 530.962 404.818 546.215 398.557Z" fill="#DECEC3"/>
<path d="M516.088 451.771C517.476 452.45 517.866 459.808 518.065 461.665C515.265 463.147 512.469 463.877 509.454 464.758L508.869 464.497C507.777 461.797 507.547 457.494 507.332 454.541L516.088 451.771Z" fill="#43495E"/>
<path d="M511.852 456.514C512.543 456.206 513.342 456.292 513.947 456.745C514.551 457.197 514.863 457.938 514.766 458.687C514.664 459.433 514.169 460.068 513.467 460.345C512.418 460.759 511.228 460.26 510.788 459.218C510.351 458.176 510.823 456.979 511.852 456.514Z" fill="#DECEC3"/>
<path d="M544.053 401.482C545.562 402.559 545.941 409.327 546.128 411.243C543.16 412.374 540.2 413.529 537.251 414.711C536.779 414.676 536.947 414.656 536.448 414.29C535.781 411.294 535.644 407.759 535.422 404.666C538.308 403.484 541.112 402.512 544.053 401.482Z" fill="#444961"/>
<path d="M540.559 405.846C541.659 405.776 542.63 406.564 542.786 407.656C542.942 408.749 542.232 409.778 541.155 410.02C540.379 410.196 539.572 409.919 539.065 409.306C538.558 408.694 538.437 407.851 538.749 407.118C539.065 406.388 539.763 405.897 540.559 405.846Z" fill="#DECEC3"/>
<path d="M527.075 433.748L527.699 434.025C528.288 435.449 528.791 442.046 528.982 443.996C525.8 445.272 522.992 446.114 519.704 447.062C519.08 443.977 517.781 439.506 519.033 436.775C519.895 435.843 520.078 435.823 521.338 435.609C521.904 435.96 522.177 436.202 522.843 436.268C524.423 434.552 524.809 434.423 527.075 433.748Z" fill="#444961"/>
<path d="M522.375 438.66C523.311 438.009 524.594 438.227 525.257 439.152C525.924 440.076 525.725 441.364 524.809 442.042C524.204 442.491 523.409 442.577 522.722 442.273C522.036 441.968 521.568 441.317 521.494 440.568C521.423 439.819 521.759 439.089 522.375 438.66Z" fill="#DECEC3"/>
<path d="M504.955 469.719L505.407 469.894C506.523 471.408 506.679 477.735 506.804 479.807C503.543 480.919 501.152 481.742 497.798 482.495C497.01 480.704 496.312 474.408 496.078 472.375C499.233 471.525 501.862 470.772 504.955 469.719Z" fill="#444961"/>
<path d="M500.506 474.523C501.489 473.996 502.718 474.343 503.275 475.311C503.833 476.282 503.525 477.519 502.573 478.108C501.93 478.506 501.122 478.521 500.467 478.151C499.808 477.78 499.406 477.082 499.414 476.325C499.422 475.572 499.839 474.878 500.506 474.523Z" fill="#DECEC3"/>
<path d="M575.109 378.1L577.191 379.598C563.057 398.148 555.265 412.89 543.833 433.199C533.853 450.929 523.276 470.294 512.636 487.583L509.785 487.568C510.039 486.238 528.775 454.483 531.236 450.11C541.236 432.34 551.513 413.416 562.156 395.963C564.641 391.89 571.95 380.852 575.109 378.1Z" fill="#DECEC3"/>
<path d="M557.086 367.83L558.939 368.812C560.187 369.371 561.158 369.673 562.075 370.675C563.28 371.253 564.824 371.93 565.924 372.639C567.488 373.386 568.237 373.674 569.536 374.836L571.01 375.534C570.507 376.719 570.425 377.472 569.118 377.983C565.55 379.377 561.614 379.586 557.976 380.887C558.408 384.655 559.204 390.033 559.302 393.653C556.146 395.077 549.126 397.511 546.692 398.986L546.217 398.556C545.238 381.987 541.24 385.812 557.831 380.242C557.445 376.769 556.688 371.168 557.086 367.83Z" fill="#DECEC3"/>
<path d="M558.938 368.811C560.186 369.37 561.157 369.672 562.073 370.674C563.278 371.252 564.823 371.929 565.923 372.637C567.487 373.385 568.235 373.673 569.534 374.835C568.048 376.724 562.186 377.813 559.374 378.648C559.253 375.367 559.105 372.089 558.938 368.811Z" fill="#444961"/>
<path d="M562.072 370.674C563.277 371.252 564.822 371.93 565.922 372.638C565.107 373.648 564.954 373.951 563.726 374.285C562.392 374.076 562.852 374.336 561.967 373.398C561.553 372.157 561.667 371.939 562.072 370.674Z" fill="#DECEC3"/>
<path d="M555.514 383.121L555.845 383.163C556.731 384.089 557.222 390.64 557.433 392.423C555.034 393.543 551.161 394.9 548.595 395.88C548.334 395.837 548.158 395.61 547.893 395.396C547.429 393.672 547.011 387.989 546.816 385.928C549.913 384.711 552.316 384.027 555.514 383.121Z" fill="#40455B"/>
<path d="M551.116 387.483C551.779 387.144 552.575 387.19 553.195 387.605C553.815 388.021 554.162 388.739 554.1 389.483C554.042 390.228 553.581 390.879 552.903 391.187C551.885 391.648 550.687 391.215 550.2 390.208C549.716 389.201 550.122 387.992 551.116 387.483Z" fill="#DECEC3"/>
<path d="M528.874 424.966C529.584 424.666 530.399 424.786 530.992 425.274C531.585 425.758 531.858 426.534 531.702 427.287C531.546 428.04 530.988 428.645 530.251 428.855C529.198 429.156 528.094 428.59 527.731 427.556C527.369 426.526 527.868 425.391 528.874 424.966Z" fill="#DECEC3"/>
<path d="M565.196 382.748C565.598 382.846 565.403 382.767 565.734 383.233C564.954 385.169 564.373 385.856 563.121 387.545C562.36 386.797 561.9 385.303 562.165 384.251C563.398 382.905 563.164 383.287 565.196 382.748Z" fill="#DECEC3"/>
<path d="M514.796 468.969C515.073 470.26 513.575 472.753 512.436 473.432C511.812 472.25 511.317 471.641 511.469 470.338C512.62 469.234 513.021 469.429 514.796 468.969Z" fill="#DECEC3"/>
<path d="M541.733 418.775C542.622 419.037 542.303 418.775 542.755 419.54C542.525 420.991 541.53 422.126 540.664 423.371C539.904 422.614 539.483 421.549 539.545 420.48C540.349 419.041 539.869 419.528 541.733 418.775Z" fill="#DECEC3"/>
<path d="M551.117 400.646C552.279 400.561 552.595 400.436 553.59 400.931C553.738 402.168 552.954 403.061 552.264 404.372L551.554 404.758C550.645 403.744 550.563 401.856 551.117 400.646Z" fill="#DECEC3"/>
<path d="M524.696 451.178L525.55 451.474C525.565 452.773 524.341 454.548 523.635 455.781C522.87 455.059 522.414 454.1 522.359 453.05C523.163 451.587 522.94 452.013 524.696 451.178Z" fill="#DECEC3"/>
<path d="M466.812 335.831C469.355 335.387 475.575 335.402 478.247 335.693C477.759 335.784 477.151 335.895 476.422 336.029C472.206 339.842 465.513 347.285 461.862 351.161C435.248 379.856 408.259 408.203 380.903 436.193C377.043 440.074 361.989 455.53 358.156 458.031C361.253 451.36 379.31 433.684 385.066 427.131C387.539 424.31 391.894 420.144 393.224 416.621C395.712 415.732 400.072 410.777 402.377 408.655C405.314 406.154 409.862 400.529 412.412 397.385C413.481 397.139 413.676 396.636 414.55 395.746L414.811 395.122C418.922 391.966 418.259 389.383 421.363 385.627C422.479 384.278 424.362 385.595 426.429 383.424C429.132 380.471 432.096 377.555 434.904 374.678L436.496 372.693C437.646 372.059 438.692 370.715 439.296 369.558L439.542 369.016C442.424 367.319 451.566 357.079 453.613 354.289C455.864 353.046 458.485 349.725 460.205 347.704C462.128 346.247 469.838 338.247 471.519 336.243C470.599 335.787 467.97 335.857 466.812 335.831Z" fill="#34353D"/>
<path d="M452.722 392.521C455.058 389.712 458.381 384.39 460.444 381.2C464.683 374.627 468.88 368.025 473.033 361.394C475.806 357 478.88 351.915 482.406 348.115C478.189 359.019 464.519 380.714 458.041 390.942C443.915 413.423 429.169 435.511 413.821 457.182C410.85 461.328 392.176 485.597 391.528 487.587L387.594 487.626C390.292 484.645 401.38 468.627 403.728 464.839C405.124 463.634 406.091 461.879 407.082 460.299C407.69 459.089 408.771 457.736 409.59 456.62C410.877 454.896 412.176 453.226 413.272 451.373C423.303 438.421 432.671 421.733 442.417 408.442L443.736 405.777L443.837 404.767C444.699 403.538 444.235 403.901 445.565 403.327C446.754 401.74 448.088 399.641 449.18 397.96C450.073 397.136 450.346 396.325 450.877 395.225L452.722 392.521Z" fill="#34353D"/>
<path d="M409.591 456.62C400.332 460.381 394.544 456.234 390.94 446.824C388.279 439.869 390.667 424.343 401.623 428.844C402.789 429.324 403.783 430.791 404.103 432.102C403.776 433.982 402.508 435.133 400.503 434.801C399.364 433.931 399.181 432.305 398.596 430.697C397.594 430.015 398.14 430.151 396.888 430.331C396.108 431.01 395.753 431.407 395.722 432.636C395.566 439.241 407.173 437.056 411.045 441.979C413.803 445.49 413.506 447.183 413.272 451.373C412.176 453.226 410.878 454.896 409.591 456.62Z" fill="#DECEC3"/>
<path d="M393.544 435.273C397.412 441.636 403.59 439.779 408.805 444.359C411.761 446.957 410.782 451.202 408.235 453.62C406.878 454.416 405.388 454.849 403.894 455.356C403.575 455.282 403.255 455.2 402.939 455.11C394.207 452.707 391.122 443.388 393.544 435.273Z" fill="#444961"/>
<path d="M395.695 441.66C400.676 443.291 409.646 444.516 406.826 451.425C400.477 455.439 396.148 447.114 395.695 441.66Z" fill="#DECEC3"/>
<path d="M550.91 364.969L554.042 366.131C546.783 374.567 537.212 391.562 531.409 401.448L495.539 463.545C492.622 468.534 484.256 483.319 480.906 487.626L478.25 487.579C478.617 486.093 487.361 471.757 488.73 469.568C510.04 435.438 527.922 397.933 550.91 364.969Z" fill="#DECEC3"/>
<path d="M335.485 487.669C332.147 481.521 331.844 469.279 338.469 464.711C340.579 463.256 345.466 464.305 346.816 466.443C347.867 468.023 347.155 470.91 345.355 471.616C342.34 470.453 343.267 466.01 340.339 466.49C338.761 468.316 339.089 470.844 340.869 472.08C348.953 477.702 357.348 473.836 355.128 487.681L351.966 487.645L348.533 487.657L343.701 487.653L338.297 487.622L335.485 487.669Z" fill="#DECEC3"/>
<path d="M336.526 471.256C336.982 471.9 338.268 473.737 338.853 474.096C344.941 477.825 354.845 477.65 351.965 487.644L348.533 487.656L343.701 487.652L338.296 487.621C335.57 481.387 335.611 477.962 336.526 471.256Z" fill="#444961"/>
<path d="M343.699 487.653C340.702 485.508 338.044 482.087 339.08 478.119C342.715 478.42 349.297 480.959 350.02 485.059C349.842 486.425 349.504 486.647 348.531 487.657L343.699 487.653Z" fill="#DECEC3"/>
<path d="M442.418 408.443C434.021 405.018 431.12 394.2 433.553 385.736C435.617 378.546 443.608 376.332 446.139 383.293C445.956 384.939 446.217 384.367 445.262 385.56C444.029 386.09 443.904 386.236 442.676 385.934C441.502 384.923 441.307 383.12 440.726 381.448L440.07 381.184C434.758 383.936 440.449 388.019 443.491 389.212C446.904 390.549 449.567 390.248 452.723 392.523L450.878 395.226C450.347 396.326 450.074 397.138 449.181 397.961C448.089 399.642 446.755 401.741 445.566 403.329C444.236 403.902 444.7 403.539 443.838 404.768L443.737 405.779L442.418 408.443Z" fill="#DECEC3"/>
<path d="M435.844 386.178C439.763 391.897 444.67 391.565 450.875 395.224C450.345 396.324 450.072 397.136 449.178 397.959C448.086 399.64 446.753 401.739 445.563 403.327C444.233 403.9 444.697 403.537 443.835 404.766L443.734 405.777C435.524 402.219 434.81 393.992 435.844 386.178Z" fill="#444961"/>
<path d="M437.277 391.273C441.552 394.621 445.936 394.269 449.181 397.96C448.089 399.641 446.755 401.74 445.565 403.328C439.653 401.635 438.674 396.485 437.277 391.273Z" fill="#DECEC3"/>
<path d="M403.726 464.84C402.466 464.746 402.138 464.754 400.953 464.383L400.676 463.704C401.456 461.707 405.044 460.435 407.08 460.299C406.089 461.879 405.122 463.634 403.726 464.84Z" fill="#DECEC3"/>
<path d="M357.457 487.639C358.611 485.704 359.366 483.886 361.47 483.238C362.782 484.366 362.377 485.903 362.306 487.592L357.457 487.639Z" fill="#DECEC3"/>
<path d="M462.178 487.649C460.708 486.553 459.269 485.819 458.734 484.177L459.101 483.693C461.636 484.025 462.584 485.226 464.393 486.966L464.241 487.528L462.178 487.649Z" fill="#DECEC3"/>
<path d="M472.227 405.359C476.384 405.605 480.604 409.307 475.374 412.167C472.371 412.089 473.366 408.983 471.256 407.954C470.043 408.383 470.464 408.153 469.579 409.245C467.707 420.589 495.674 408.558 490.117 428.84C475.819 450.6 452.71 410.38 472.227 405.359Z" fill="#DECEC3"/>
<path d="M468.02 414.562C473.16 418.998 478.577 416.622 484.357 419.677C488.874 422.06 488.254 426.223 485.874 429.89C475.254 436.736 468.051 424.202 468.02 414.562Z" fill="#444961"/>
<path d="M471.582 419.832C475.712 420.64 488.828 420.132 483.778 428.176C477.249 431.005 472.885 425.746 471.582 419.832Z" fill="#DECEC3"/>
<path d="M440.052 457.688C443.909 457.703 447.802 460.769 444.678 464.05C441.577 465.096 440.977 463.032 440.481 460.684C439.315 460.297 438.972 460.044 437.876 460.399C436.347 462.65 439.834 465.927 441.421 467.132C450.302 468.162 461.074 467.167 458.57 480.532C457.603 483.446 454.806 485.565 451.975 486.509C443.083 489.469 436.012 480.669 433.839 473.038C432.119 466.999 433.032 459.494 440.052 457.688Z" fill="#DECEC3"/>
<path d="M436.051 466.764C441.842 470.977 446.371 469.284 452.455 471.839C457.135 473.805 455.926 478.646 454.05 482.095C443.032 488.122 436.187 476.688 436.051 466.764Z" fill="#444961"/>
<path d="M439.527 471.811C443.416 472.887 456.914 472.813 452.129 480.042C445.873 484.021 440.978 477.405 439.527 471.811Z" fill="#DECEC3"/>
<path d="M502.277 353.086C504.991 352.952 506.403 353.411 508.353 355.345C508.923 357.131 508.478 358.718 506.532 359.326C504.578 358.719 504.445 357.073 502.331 355.92C500.927 356.027 501.473 355.825 500.268 356.888C500.097 357.663 499.882 358.344 500.53 358.998C507.913 366.489 523.837 357.633 521.064 375.485C520.943 375.795 520.806 376.1 520.658 376.398C519.539 378.69 517.012 380.945 514.535 381.778C500.358 386.543 487.179 357.601 502.277 353.086Z" fill="#DECEC3"/>
<path d="M498.8 361.809C499.471 362.332 501.838 364.194 502.463 364.372C507.069 365.602 511.616 364.721 515.891 367.377C519.428 369.575 518.867 373.839 516.764 376.901C510.052 382.489 502.638 376.158 500.091 369.618C498.902 366.573 498.754 365.061 498.8 361.809Z" fill="#444961"/>
<path d="M502.168 367.273C506.731 367.987 518.716 367.364 514.843 375.231C508.529 378.681 503.868 372.703 502.168 367.273Z" fill="#DECEC3"/>
<path d="M464.483 471.482L465.041 471.849C467.081 477.143 467.6 480.825 463.707 485.304L463.387 485.183C460.415 481.434 460.876 474.748 464.483 471.482Z" fill="#DECEC3"/>
<path d="M525.51 380.612C524.679 377.341 522.28 367.506 527.565 366.396C528.595 372.241 531.461 376.274 525.51 380.612Z" fill="#DECEC3"/>
<path d="M496.763 419.293C497.563 419.964 498.491 425.347 498.409 426.654C498.199 430.068 497.497 430.895 494.997 433.107C494.029 430.782 493.53 428.878 492.859 426.471C493.916 422.765 494.045 421.875 496.763 419.293Z" fill="#DECEC3"/>
<path d="M487.127 435.423C489.362 435.31 491.089 434.728 492.427 436.616L492.24 437.666C490.855 439.585 489.252 440.479 487.061 441.228C485.579 441.255 482.049 441.485 480.859 440.99L480.945 440.186C482.17 438.52 485.165 436.137 487.127 435.423Z" fill="#DECEC3"/>
<path d="M518.075 382.746C519.958 382.639 522.236 382.743 524.155 382.78C522.271 385.754 521.343 387.666 517.646 388.248C515.415 388.231 513.118 388.409 510.887 388.544C513.605 385.386 514.171 384.118 518.075 382.746Z" fill="#DECEC3"/>
<path d="M490.981 430.982C492.268 431.497 497.167 435.16 497.802 436.522C498.071 437.091 497.709 437.579 497.44 438.336C496.086 437.942 491.414 433.854 490.603 432.531C490.291 432.024 490.739 431.493 490.981 430.982Z" fill="#DECEC3"/>
<path d="M524.125 382.136C522.927 381.241 521.929 380.739 521.512 379.368L521.913 378.848C523.434 378.827 524.23 379.668 525.509 380.612C526.387 381.964 528.411 382.325 528.501 384.07L527.877 384.546C526.453 384.291 525.268 383.085 524.125 382.136Z" fill="#DECEC3"/>
<path d="M489.754 361.929C491.15 361.884 491.591 361.826 492.956 362.213C493.993 363.247 493.705 362.718 493.954 364.297C492.624 364.382 492.164 364.421 490.854 364.227C489.742 363.211 490.085 363.725 489.754 361.929Z" fill="#DECEC3"/>
<path d="M291.307 175.51C287.591 168.857 285.596 147.546 285.815 139.886C286.57 113.445 295.638 88.2904 314.633 69.6476C334.942 49.7144 362.421 38.8024 390.87 39.375C404.688 39.5318 417.216 41.6103 427.27 51.9009C436.962 49.6227 447.126 50.4688 456.307 54.3188C476.006 62.4291 491.365 79.8255 499.29 99.2778C506.837 117.798 508.931 137.374 506.607 157.147C505.924 162.952 505.137 169.536 502.898 174.967C520.991 195.928 506.174 223.344 483.577 232.541C488.124 247.324 489.384 257.71 482.013 272.07C473.53 288.592 454.01 299.874 435.515 299.241C433.639 289.727 433.487 285.424 433.023 275.682L432.945 272.396C415.297 281.941 395.383 284.33 376.274 278.283C373.623 277.444 368.074 275.711 365.736 274.56C365.818 279.157 365.855 288.691 364.62 293.137C364.524 295.002 363.833 297.637 363.406 299.522C354.334 299.158 348.598 299.041 340.11 295.558C314.364 284.993 301.899 259.036 312.407 232.977C306.434 230.798 302.336 228.51 297.591 224.296C284.264 212.462 277.955 189.932 291.307 175.51Z" fill="#34353D"/>
<path d="M478.304 171.96C479.407 172.163 481.802 171.056 483.343 170.528C489.275 168.497 498.709 169.965 502.898 174.967C520.991 195.928 506.174 223.344 483.577 232.542C488.124 247.325 489.384 257.71 482.013 272.071C473.53 288.592 454.01 299.874 435.515 299.241C433.639 289.727 433.487 285.424 433.023 275.683L432.945 272.396C415.297 281.941 395.383 284.33 376.274 278.284C373.623 277.444 368.074 275.711 365.736 274.56C365.818 279.157 365.855 288.691 364.62 293.137C364.524 295.002 363.833 297.637 363.406 299.522C354.334 299.158 348.598 299.041 340.11 295.558C314.364 284.993 301.899 259.036 312.407 232.977C306.434 230.799 302.336 228.51 297.591 224.297C284.264 212.462 277.955 189.932 291.307 175.51C296.603 169.354 305.832 168.428 312.923 171.175C314.044 171.61 315.265 172.095 316.43 171.817L325.684 174.389C326.637 181.834 327.768 189.207 333.089 194.886C340.037 199.984 355.397 199.527 363.908 199.257C369.269 199.087 377.447 198.371 381.575 194.734C384.557 192.107 386.922 184.138 387.045 180.174C388.537 178.9 388.923 178.729 390.714 177.888L392.528 177.579C395.726 177.132 406.806 176.755 407.625 180.92L408.791 180.537C409.669 185.206 410.702 192.38 415.219 194.853C425.698 200.596 450.09 199.935 460.289 194.307L461.053 195.179C466.751 189.842 467.629 181.807 468.807 174.371C470.776 173.745 476.615 171.671 478.304 171.96Z" fill="#F6AB91"/>
<path d="M312.406 232.977C318.213 234.376 321.15 235.064 327.099 233.222C335.498 251.076 345.039 265.346 363.963 273.612L365.735 274.56C365.816 279.157 365.854 288.69 364.619 293.137C364.523 295.002 363.832 297.637 363.405 299.522C354.332 299.158 348.597 299.041 340.108 295.558C314.363 284.993 301.898 259.036 312.406 232.977Z" fill="#34353D"/>
<path d="M363.964 273.611L365.736 274.56C365.817 279.156 365.855 288.69 364.62 293.137C363.734 290.428 366.178 278.678 363.946 274.596C363.737 274.215 363.86 274.152 363.964 273.611Z" fill="#201B1F"/>
<path d="M483.577 232.541C488.125 247.324 489.384 257.71 482.013 272.07C473.53 288.592 454.01 299.874 435.516 299.24C433.64 289.726 433.487 285.423 433.023 275.682L432.945 272.396C435.453 270.702 438.445 269.296 440.718 267.649C453.004 258.748 461.452 247.261 467.048 233.251C473.862 235.26 477.001 234.572 483.577 232.541Z" fill="#34353D"/>
<path d="M478.303 171.96C479.406 172.163 481.801 171.056 483.342 170.528C489.274 168.497 498.708 169.965 502.897 174.967C520.99 195.928 506.173 223.344 483.576 232.542C477 234.572 473.86 235.261 467.047 233.252C468.646 230.279 469.972 225.592 470.935 222.342C476.013 205.197 478.073 189.766 478.303 171.96Z" fill="#E68470"/>
<path d="M494.307 188.488C495.718 188.308 496.904 188.105 498.168 188.696L498.312 189.241C497.555 190.382 492.364 191.849 491.112 192.769C488.792 194.475 486.424 197.735 484.704 200.048C499.041 198.005 495.917 212.142 488.382 212.696L488.289 212.301C488.741 210.953 489.954 210.279 491.116 209.436C492.661 206.245 492.602 202.405 487.688 202.108C484.81 201.935 482.165 207.489 480.438 209.753L480.059 209.429C479.662 199.608 485.145 191.839 494.307 188.488Z" fill="#C55D4D"/>
<path d="M477.938 221.099C480.22 220.063 482.911 221.05 483.984 223.316C485.052 225.582 484.108 228.288 481.858 229.392C480.372 230.122 478.609 229.994 477.244 229.059C475.879 228.123 475.126 226.524 475.267 224.876C475.411 223.227 476.433 221.784 477.938 221.099Z" fill="#FEC656"/>
<path d="M291.307 175.51C296.603 169.354 305.832 168.428 312.923 171.175C314.044 171.61 315.265 172.094 316.43 171.816C314.437 176.163 318.739 203.967 320.136 210.053C321.406 215.592 323.799 224.44 325.846 229.971C326.25 231.06 326.668 232.144 327.1 233.222C321.152 235.064 318.214 234.376 312.407 232.977C306.434 230.798 302.336 228.51 297.591 224.296C284.264 212.462 277.955 189.931 291.307 175.51Z" fill="#E68470"/>
<path d="M309.632 200.113C308.078 197.706 306.338 195.194 304.103 193.344C301.989 191.594 297.383 191.123 296.094 188.673L296.787 188.225C304.58 187.834 310.865 194.619 313.613 201.34C311.922 201.653 309.552 201.949 308.128 202.774C305.715 202.794 304.712 202.636 302.918 204.327C301.415 208.329 306.047 209.928 306.914 212.748C305.693 212.938 304.505 212.365 303.437 211.819C299.431 209.772 298.646 204.499 302.182 201.569C304.611 199.557 306.717 199.926 309.632 200.113Z" fill="#C86754"/>
<path d="M313.001 221.038C315.345 220.048 318.05 221.123 319.075 223.453C320.1 225.783 319.065 228.504 316.751 229.564C315.224 230.263 313.438 230.085 312.078 229.098C310.718 228.111 309.995 226.468 310.187 224.798C310.378 223.129 311.453 221.692 313.001 221.038Z" fill="#FEC656"/>
<path d="M313.61 201.34C314.756 204.885 315.177 205.725 314.742 209.437L314.331 209.788C311.491 207.23 312.151 203.857 308.125 202.773C309.549 201.949 311.919 201.652 313.61 201.34Z" fill="#C05546"/>
<path d="M392.526 177.578C392.511 182.411 391.524 195.867 390.534 199.992C387.009 214.7 402.031 209.108 402.409 212.372C400.97 213.871 397.047 213.931 395.081 213.538C383.508 211.215 388.596 197.365 389.294 189.38C389.637 185.46 390.623 181.836 390.713 177.887L392.526 177.578Z" fill="#C86754"/>
<path d="M407.625 180.92L408.791 180.537C409.669 185.206 410.702 192.38 415.219 194.853C425.698 200.596 450.09 199.934 460.289 194.307L461.053 195.179C450.788 200.808 435.823 199.669 424.45 198.777C411.708 197.779 409.829 192.115 407.625 180.92Z" fill="#705252"/>
<path d="M440.717 201.327C441.965 201.234 443.217 201.189 444.469 201.194C451.821 201.199 456.24 202.18 461.435 207.377C461.641 208.04 461.832 208.706 462.012 209.375C463.915 216.561 456.735 220.116 450.959 221.531C444.917 222.129 439.715 222.332 434.309 219.25C427.897 215.592 426.524 208.681 433.092 204.437C435.807 202.682 437.585 202.036 440.717 201.327Z" fill="#E68470"/>
<path d="M345.363 201.423C352.27 200.314 364.268 202.423 365.398 210.887C365.661 212.945 365.09 215.022 363.812 216.655C361.53 219.618 357.026 221.119 353.451 221.603C344.782 222.468 335.051 221.455 332.062 211.959C332.423 210.365 332.914 208.661 333.339 207.07C337.396 202.788 339.817 202.307 345.363 201.423Z" fill="#E68470"/>
<path d="M421.42 226.963C422.882 227.433 422.562 227.112 423.467 228.132L423.358 229.083C421.556 232.222 413.405 236.778 409.942 237.796C398.635 241.119 387.068 240.773 376.515 235.77C375.454 235.281 375.153 235.066 374.21 234.37C373.834 233.12 373.763 233.56 374.25 232.593C377.033 231.628 383.449 235.387 386.414 235.772C401.314 237.706 409.754 235.566 421.42 226.963Z" fill="#C86754"/>
<path d="M422.859 220.379C427.918 220.652 433.035 227.95 431.268 232.892C431.019 232.839 430.461 232.577 430.231 232.48C429.338 230.652 429.065 227.827 428.327 226.46C427.267 224.493 423.382 222.773 422.859 220.379Z" fill="#C05546"/>
<path d="M404.528 248.5L405.249 248.542C406.022 249.313 405.827 248.86 405.858 249.941C403.463 252.318 397.071 252.05 393.834 252.02C393.038 251.887 392.968 251.75 392.324 251.271C393.124 248.645 399.411 251.5 404.528 248.5Z" fill="#C86754"/>
<path d="M333.846 193.86C328.944 187.792 321.914 167.033 335.762 166.732C350.879 166.405 369.474 164.141 383.607 170.179C385.139 170.834 385.621 173.999 385.779 175.473C385.999 177.075 386.036 179.06 387.045 180.173C386.922 184.138 384.557 192.106 381.574 194.734C377.446 198.371 369.269 199.087 363.908 199.257C355.397 199.527 340.037 199.984 333.089 194.886L333.846 193.86Z" fill="#F6AB91"/>
<path d="M385.777 175.473C385.996 177.074 386.033 179.059 387.042 180.173C386.919 184.137 384.554 192.106 381.571 194.733C377.443 198.37 369.266 199.086 363.905 199.256C355.394 199.526 340.034 199.983 333.086 194.885L333.843 193.86C339.985 197.939 349.405 198.679 356.617 198.615C376.472 198.439 385.685 197.759 385.777 175.473Z" fill="#705252"/>
<path d="M361.166 173.117C368.614 174.526 368.356 185.02 362.262 188.357C354.945 187.023 354.537 176.307 361.166 173.117Z" fill="#474247"/>
<path d="M410.246 170.629C418.568 165.406 435.011 166.375 444.462 166.153C449.391 166.038 463.35 165.712 465.725 170.036C468.876 175.774 464.376 189.855 460.288 194.307C450.089 199.935 425.698 200.596 415.218 194.853C410.702 192.38 409.668 185.206 408.791 180.537C408.432 176.507 408.401 174.325 410.246 170.629Z" fill="#F6AB91"/>
<path d="M432.104 173.141C439.21 173.651 439.701 184.909 434.292 188.174C426.764 188.047 425.7 176.755 432.104 173.141Z" fill="#34353D"/>
<path d="M423.719 84.7207C429.058 100.089 441.086 116.105 451.616 128.475C458.789 136.901 467.751 144.256 475.805 151.8C476.581 152.529 476.663 153.261 476.835 154.239C477.225 158.365 478.067 164.366 478.207 168.326L468.859 171.067C464.955 162.448 454.861 164.592 446.616 164.085C439.038 163.619 430.747 164.226 423.176 164.74C414.155 165.924 407.143 165.551 406.69 176.422C400.735 174.607 398.598 173.906 392.408 175.426C391.952 175.541 390.758 175.816 390.388 175.97C389.373 176.227 389.103 176.399 388.169 176.068C387.472 174.974 387.385 172.229 387.024 170.445C385.788 169.103 384.359 167.721 382.702 166.916C375.749 163.539 338.426 162.86 330.576 165.658C327.737 166.669 326.838 168.731 325.665 171.289C322.301 170.215 319.655 169.393 316.219 168.618C316.802 162.585 317.62 151.46 319.278 145.296C319.426 144.744 320.919 144.527 321.65 144.337C323.789 143.808 326.066 143.239 328.163 142.572C361.718 131.901 404.58 115.942 423.719 84.7207Z" fill="#F6AB91"/>
<path d="M423.721 84.7207C429.06 100.089 441.088 116.105 451.619 128.475C458.791 136.901 467.754 144.256 475.808 151.8C476.584 152.529 476.666 153.261 476.837 154.239C470.628 152.142 464.298 147.877 459.014 144.059C442.325 132.007 431.307 118.117 422.481 99.6618C418.889 104.901 411.724 111.711 406.814 115.753C390.273 129.362 368.962 138.028 348.16 142.595C342.836 143.763 326.104 146.48 321.652 144.337C323.792 143.808 326.069 143.239 328.166 142.572C361.72 131.901 404.583 115.942 423.721 84.7207Z" fill="#E68470"/>
<path d="M390.04 168.472C389.683 166.429 388.938 162.734 390.157 160.949C392.052 163.906 392.208 171.769 392.411 175.427C391.955 175.542 390.761 175.817 390.391 175.971C389.376 176.228 389.106 176.4 388.172 176.069C387.475 174.975 387.388 172.23 387.027 170.446C387.735 169.083 388.309 169.221 390.04 168.472Z" fill="#C86754"/>
<path d="M387.027 170.445C387.735 169.082 388.309 169.22 390.04 168.471C390.274 171.207 390.449 173.209 390.391 175.97C389.376 176.227 389.106 176.399 388.172 176.068C387.475 174.974 387.388 172.229 387.027 170.445Z" fill="#F6AB91"/>
<path d="M430.455 149.951C430.662 149.921 430.872 149.896 431.083 149.876C436.348 149.376 450.291 151.801 450.806 158.335L450.123 158.986C448.704 159.349 447.132 158.679 445.697 158.237C442.549 157.486 438.809 156.446 435.584 156.155C432.062 155.837 425.03 157.472 422.366 154.534C422.222 150.659 427.67 150.281 430.455 149.951Z" fill="#34353D"/>
<path d="M358.801 149.947C362.163 149.603 372.432 149.293 371.553 154.531C369.205 157.462 360.856 155.702 355.217 156.85C352.385 157.459 345.765 159.737 343.407 158.128C342.753 153.855 355.36 150.327 358.801 149.947Z" fill="#34353D"/>
<path d="M417.717 70.5391L418.095 71.1145C414.756 78.1504 408.824 84.5634 403.255 89.7815C380.665 110.942 348.202 110.687 323.122 126.397C310.183 134.502 306.269 146.797 303.525 161.353C302.463 135.759 320.398 119.662 343.09 112.11C373.233 102.078 397.463 97.0176 417.717 70.5391Z" fill="#797F8F"/>
<path d="M296.668 130.948C298.611 116.135 309.341 101.261 319.386 90.7331C336.499 72.512 359.549 60.9953 384.393 58.2532C390.465 57.6041 396.916 57.867 403.074 57.7266L405.863 58.7759C397.033 58.6636 383.787 61.0963 374.995 63.3398C345.159 70.9539 321.136 91.344 304.229 116.591C301.114 121.244 299.435 126.198 296.668 130.948Z" fill="#797F8F"/>
<path d="M433.574 77.9258C434.561 78.9369 435.314 80.4708 435.965 81.7239C443.543 96.2955 452.798 108.46 464.35 120.071C472.977 128.741 484.272 138.264 490.544 148.78C490.255 148.656 489.974 148.512 489.709 148.351C488.574 147.674 482.49 140.844 480.559 139.392C477.03 136.74 473.005 133.522 469.576 130.756C453.161 117.518 438.204 99.0052 433.574 77.9258Z" fill="#878589"/>
<path d="M438.016 67.5078C440.27 67.5577 443.597 68.3692 445.832 68.9184C464.817 73.5837 481.853 91.0359 484.583 110.61C483.94 109.818 483.097 108.393 482.629 107.5C474.533 92.1337 463.066 79.9752 447.516 72.0014C444.505 70.4566 441.081 69.1424 438.016 67.5078Z" fill="#797F8F"/>
<path d="M403.078 57.7266C405.067 57.7613 407.992 57.8194 409.794 58.6702C408.234 59.0283 407.454 58.893 405.867 58.7759L403.078 57.7266Z" fill="#545E70"/>
<path d="M417.719 70.5375C418.499 69.2681 418.499 68.7766 419.661 68.209C419.723 69.4058 418.92 70.2539 418.097 71.1129L417.719 70.5375Z" fill="#545E70"/>
<path d="M586.898 386.596C590.49 400.826 588.419 423.113 585.852 437.781C584.351 434.095 583.189 427.822 581.535 423.363C581.246 422.825 580.182 419.762 579.811 418.884C578.013 414.636 576.297 409.951 573.934 405.988L573.883 405.652C578.122 400.257 581.718 393.169 586.898 386.596Z" fill="#34353D"/>
</svg>
