<svg width="771" height="477" viewBox="0 0 771 477" fill="none" xmlns="http://www.w3.org/2000/svg">
<g clip-path="url(#clip0_9359_8844)">
<path d="M348.36 234.641C359.254 240.797 362.776 245.293 376.421 247.326C399.089 250.704 411.296 242.66 428.759 229.983C428.755 233.39 428.538 246.836 429.283 249.235L429.774 249.53C432.925 250.413 439.825 251.856 441.621 254.355C444.265 258.909 457.206 281.29 457.897 285.085L458.072 285.551C461.236 286.82 464.415 288.066 467.598 289.291L468.649 289.839C471.86 291.27 476.75 293.041 479.537 294.445C479.868 294.605 480.645 294.954 480.913 295.135C484.562 296.4 489.038 298.983 492.431 299.74L493.097 300.199C496.733 301.736 501.644 303.747 505.065 305.56C506.441 305.773 508.379 306.535 509.377 307.537C511.295 307.814 515.211 309.833 517.139 310.754L518.262 311.142C520.924 312.269 527.46 314.854 529.41 316.442L530.329 316.663L535.012 318.504C535.832 318.881 536.459 319.191 537.247 319.631C538.544 320.172 540.65 320.968 541.741 321.707L542.561 322.162C547.019 324.629 550.736 326.535 554.581 329.925C555.708 330.304 555.309 330.057 556.075 331.124C558.819 332.718 565.202 339.002 566.638 341.746C566.898 341.989 567.476 342.49 567.64 342.756C570.59 346.853 572.743 349.646 574.689 354.278L575.177 355.133C576.517 357.898 578.274 361.396 579.051 364.372L580.031 367.026C580.911 369.72 582.458 375.755 583.371 377.782L583.641 379.054C584.34 382.097 585.32 387.035 586.211 389.875L586.25 391.086C587.095 394.71 587.512 398.608 588.356 402.003L588.321 403.414C589.401 407.031 589.896 410.337 590.83 413.8L591.122 415.069L591.247 418.29C591.703 419.594 592.252 420.88 592.302 422.252C592.555 423.573 592.897 425.134 593.086 426.442L593.136 426.898L593.595 428.601C594.119 431.765 594.632 435.306 595.424 438.377L595.612 439.386C596.051 440.996 596.332 442.361 596.65 444H592.098H591.136H579.678H578.798H567.376H566.374H555.038H554.136H542.586H541.727H530.333H529.342H523.444H521.174H517.948H516.947H505.439H504.555H493.08H492.231H480.841H479.843H468.421H467.495H454.75H453.738H442.344H441.321H429.935H429.115H417.486H416.599H405.173H404.214H378.547H376.217C376.115 442.649 376.141 440.804 376.119 439.407L376.341 438.659C376.028 436.215 376.31 429.655 376.364 426.958L376.338 426.499C376.238 422.629 376.248 418.753 376.365 414.88L376.349 414.367C376.38 410.743 376.385 407.123 376.364 403.5L376.338 402.377C376.435 398.686 376.381 394.877 376.373 391.176L376.413 389.914C376.434 386.301 376.372 382.343 376.743 378.78C376.632 375.377 376.769 369.452 377.104 366.189C376.936 361.496 377.421 359.747 378.576 355.225L379.189 354.246C379.342 352.272 381.851 345.184 382.546 343.193L382.885 342.603C383.711 340.796 383.729 338.213 385.058 336.11C384.577 334.171 384.303 333.397 383.519 331.551L383.426 330.792C382.122 328.531 379.77 321.368 378.779 318.55L372.856 302.111C366.342 297.05 340.843 277.697 338.765 270.759L338.237 270.643C333.758 266.744 331.546 259.595 329.481 254.652L329.367 254.387C331.591 251.635 338.427 250.34 342.029 249.437C342.334 244 342.477 238.555 342.457 233.109C343.552 234.3 344.358 235.176 345.572 236.242C347.34 236.071 347.658 236.143 348.36 234.641Z" fill="#ACCEF4"/>
<path d="M348.36 234.641C359.254 240.797 362.776 245.293 376.421 247.326C399.089 250.704 411.296 242.66 428.759 229.983C428.755 233.39 428.538 246.836 429.283 249.235L429.774 249.53C432.925 250.413 439.825 251.856 441.621 254.355C444.265 258.909 457.206 281.29 457.897 285.085L458.072 285.551C458.089 287.336 455.837 292.75 455.089 294.733L454.654 295.612L454.565 296.477L453.742 299.011C452.409 301.628 451.432 304.253 450.092 306.833L449.754 307.296C448.071 311.207 446.432 315.154 444.026 318.683L443.581 319.458C443.157 320.202 442.444 321.356 442.113 322.098L441.318 324.156C439.775 326.362 438.549 328.555 437.073 330.732L436.475 331.631C434.233 335.936 432.426 338.295 429.561 342.198L429.019 342.864C428.028 343.76 428.331 343.743 427.191 343.992L425.772 343.058L425.052 342.239C423.028 338.76 418.744 333.783 417.458 331.254L417.101 330.708C415.041 330.714 411.805 330.624 409.86 330.929L409.571 331.392L409.378 331.377L409.332 331.003L408.619 331.296L408.776 331.194L409.478 331.494L409.578 331.083L409.763 331.068L410.016 331.556C412.379 331.73 414.272 331.683 416.624 331.631L416.61 342.278L404.913 342.239C403.584 347.369 404.827 350.28 404.022 353.982C403.17 354.424 402.821 354.349 401.823 354.37L401.613 354.94C402.297 355.325 402.835 355.218 403.63 355.197L404.136 355.639C404.371 359.309 404.175 362.608 404.218 366.228C402.81 366.224 401.231 366.043 400.041 366.652C400.9 367.329 403.035 367.143 404.204 367.111L404.225 378.085C402.739 378.057 401.11 377.857 399.813 378.488L399.959 378.844C401.513 379.329 402.603 379.183 404.229 379.111L404.214 389.882C402.671 389.843 401.107 389.626 399.777 390.328V390.784C401.11 391.475 402.675 391.24 404.214 391.186L404.211 402.356C402.703 402.32 401.11 402.114 399.788 402.759L399.856 403.147C401.285 403.731 402.668 403.539 404.218 403.475L404.207 414.117C402.725 414.107 401.11 413.932 399.806 414.552C400.49 415.396 403.124 415.147 404.218 415.111L404.243 426.263C402.742 426.231 401.11 426.028 399.792 426.662C400.504 427.535 403.095 427.268 404.218 427.225V438.602C402.824 438.584 401.089 438.42 399.852 438.969C400.654 439.596 403.142 439.425 404.229 439.4L404.214 444H378.547H376.217C376.115 442.649 376.141 440.804 376.119 439.407L376.341 438.659C376.028 436.215 376.31 429.655 376.364 426.958L376.338 426.499C376.238 422.629 376.248 418.753 376.365 414.88L376.349 414.367C376.38 410.743 376.385 407.123 376.364 403.5L376.338 402.377C376.435 398.686 376.381 394.877 376.373 391.176L376.413 389.914C376.434 386.301 376.372 382.343 376.743 378.78C376.632 375.377 376.769 369.452 377.104 366.189C376.936 361.496 377.421 359.747 378.576 355.225L379.189 354.246C379.342 352.272 381.851 345.184 382.546 343.193L382.885 342.603C383.711 340.796 383.729 338.213 385.058 336.11C384.577 334.171 384.303 333.397 383.519 331.551L383.426 330.792C382.122 328.531 379.77 321.368 378.779 318.55L372.856 302.111C366.342 297.05 340.843 277.697 338.765 270.759L338.237 270.643C333.758 266.744 331.546 259.595 329.481 254.652L329.367 254.387C331.591 251.635 338.427 250.34 342.029 249.437C342.334 244 342.477 238.555 342.457 233.109C343.552 234.3 344.358 235.176 345.572 236.242C347.34 236.071 347.658 236.143 348.36 234.641Z" fill="#283863"/>
<path d="M348.36 234.641C359.254 240.797 362.776 245.293 376.421 247.326C399.089 250.704 411.296 242.66 428.759 229.983C428.755 233.39 428.538 246.836 429.283 249.235L429.774 249.53C428.998 250.46 429.172 250.919 429.308 252.36C429.653 255.945 430.206 259.583 430.747 263.143C431.09 264.782 431.966 269.452 432.458 270.815C429.058 278.717 405.879 296.098 398.102 302.13L389.656 326.094C388.508 329.431 386.979 333.165 386.181 336.519L385.058 336.11C384.577 334.171 384.303 333.397 383.519 331.551L383.426 330.792C382.122 328.531 379.77 321.368 378.779 318.55L372.856 302.111C366.342 297.05 340.843 277.697 338.765 270.759L338.237 270.643C333.758 266.744 331.546 259.595 329.481 254.652L329.367 254.387C331.591 251.635 338.427 250.34 342.029 249.437C342.334 244 342.477 238.555 342.457 233.109C343.552 234.3 344.358 235.176 345.572 236.242C347.34 236.071 347.658 236.143 348.36 234.641Z" fill="#E19970"/>
<path d="M348.363 234.641C359.256 240.797 362.778 245.293 376.424 247.326C399.092 250.704 411.298 242.66 428.761 229.983C428.758 233.39 428.54 246.836 429.285 249.235L429.777 249.53C429 250.46 429.175 250.919 429.31 252.36C429.656 255.945 430.208 259.583 430.75 263.143C420.236 266.123 416.466 267.806 404.894 267.34C379.27 266.308 362.456 253.976 345.574 236.242C347.342 236.071 347.66 236.143 348.363 234.641Z" fill="#CA7354"/>
<path d="M342.029 249.437C341.463 257.274 340.596 263.144 338.765 270.759L338.237 270.643C333.758 266.744 331.546 259.595 329.481 254.652L329.367 254.387C331.591 251.635 338.427 250.34 342.029 249.437Z" fill="#192033"/>
<path d="M457.898 285.085L458.073 285.551C458.091 287.336 455.838 292.75 455.09 294.733L454.655 295.612L454.566 296.477L453.743 299.011C452.41 301.628 451.433 304.253 450.093 306.833L449.755 307.296C448.073 311.207 446.433 315.154 444.028 318.683L443.582 319.458C443.158 320.202 442.445 321.356 442.114 322.098L441.319 324.155C439.776 326.362 438.55 328.555 437.075 330.732L436.476 331.631C434.234 335.936 432.427 338.295 429.562 342.198L429.02 342.864C428.029 343.76 428.332 343.743 427.192 343.992L425.774 343.058L425.054 342.239C423.029 338.76 418.746 333.783 417.459 331.254L417.103 330.708C415.349 328.555 400.31 307.058 400.117 305.558L400.566 305.014C402.787 304.97 406.162 310.956 407.541 312.916C411.586 318.66 415.599 324.427 419.576 330.215C421.992 333.717 424.786 338.221 427.58 341.254C428.753 338.834 431.344 335.508 432.869 333.133C435.539 328.985 438.29 324.826 440.635 320.481C444.83 312.803 448.65 304.926 452.086 296.88C453.518 293.55 454.616 289.95 456.12 286.632C456.687 285.384 456.879 285.417 457.898 285.085Z" fill="#192033"/>
<path d="M382.887 342.603C383.714 340.795 383.731 338.213 385.061 336.109L386.183 336.519C386.661 338.167 385.349 341.922 384.64 343.593C377.509 360.47 378.535 375.142 378.475 393.317L378.55 444H376.219C376.117 442.649 376.143 440.804 376.121 439.407L376.343 438.659C376.03 436.215 376.312 429.655 376.366 426.958L376.34 426.498C376.24 422.629 376.25 418.753 376.368 414.88L376.351 414.367C376.383 410.743 376.388 407.123 376.367 403.5L376.341 402.377C376.437 398.686 376.383 394.877 376.375 391.175L376.415 389.914C376.437 386.301 376.374 382.343 376.745 378.78C376.635 375.377 376.771 369.452 377.106 366.188C376.939 361.496 377.423 359.747 378.578 355.225L379.191 354.245C379.344 352.272 381.853 345.184 382.548 343.193L382.887 342.603Z" fill="#192033"/>
<path d="M430.749 263.143C430.208 259.583 429.655 255.945 429.309 252.36C429.174 250.919 428.999 250.459 429.776 249.53C432.927 250.413 439.826 251.856 441.623 254.354C439.705 259.132 436.961 266.97 432.966 270.668L432.46 270.815C431.968 269.452 431.091 264.782 430.749 263.143Z" fill="#192033"/>
<path d="M386.507 426.438C388.132 425.818 389.967 426.125 391.307 427.233C392.647 428.344 393.285 430.087 392.982 431.8C392.676 433.514 391.471 434.929 389.832 435.509C387.337 436.389 384.597 435.096 383.688 432.613C382.775 430.129 384.033 427.379 386.507 426.438Z" fill="#182449"/>
<path d="M387.293 427.856C388.362 427.514 389.531 427.777 390.351 428.54C391.17 429.302 391.516 430.45 391.252 431.54C390.989 432.627 390.158 433.489 389.078 433.795C387.45 434.255 385.753 433.321 385.265 431.7C384.777 430.083 385.682 428.369 387.293 427.856Z" fill="#7398C1"/>
<path d="M387.746 361.496C390.362 361.24 392.689 363.149 392.956 365.761C393.22 368.376 391.324 370.71 388.708 370.988C386.081 371.266 383.726 369.356 383.458 366.723C383.191 364.094 385.116 361.749 387.746 361.496Z" fill="#192033"/>
<path d="M387.241 363.292C388.816 362.765 390.523 363.581 391.108 365.134C391.689 366.688 390.94 368.426 389.408 369.068C388.364 369.502 387.166 369.335 386.282 368.626C385.402 367.92 384.978 366.787 385.178 365.676C385.377 364.564 386.168 363.648 387.241 363.292Z" fill="#7398C1"/>
<path d="M454.656 295.612L467.453 295.609L467.407 306.782L454.762 306.783C454.78 304.163 454.933 298.857 454.566 296.477L454.656 295.612Z" fill="#283863"/>
<path d="M579.668 415.09L591.126 415.068L591.251 418.289C591.058 420.808 591.147 423.705 591.165 426.256L579.697 426.242L579.668 415.09Z" fill="#283863"/>
<path d="M425.774 343.058L427.193 343.992C428.333 343.743 428.03 343.759 429.021 342.864L429.1 354.253L417.449 354.278L417.474 343.185C420.215 343.209 423.055 343.299 425.774 343.058Z" fill="#283863"/>
<path d="M442.113 322.098C442.445 321.356 443.157 320.203 443.582 319.458C445.756 319.866 451.276 319.654 453.789 319.634L453.796 330.748L442.331 330.722C442.345 328.442 442.473 324.181 442.113 322.098Z" fill="#283863"/>
<path d="M537.249 319.631C538.547 320.172 540.653 320.968 541.743 321.707L541.715 330.71L530.293 330.751L530.289 319.633L537.249 319.631Z" fill="#283863"/>
<path d="M509.38 307.537C511.297 307.814 515.214 309.833 517.142 310.754L517.013 318.699C513.154 318.769 509.291 318.787 505.427 318.751C505.427 315.647 505.292 310.938 505.652 307.988C506.365 307.42 508.343 307.558 509.38 307.537Z" fill="#283863"/>
<path d="M524.376 427.208L529.336 427.215L529.379 438.613C527.907 438.581 525.83 438.392 524.543 438.944C525.466 439.671 528.128 439.443 529.376 439.404L529.344 444H523.445H521.175C521.154 441.959 521.236 440.658 521.428 438.617L521.442 435.524L521.788 432.349L523.941 431.833C524.044 430.34 524.233 428.712 524.376 427.208Z" fill="#283863"/>
<path d="M521.442 435.524C522.455 434.893 522.134 434.875 523.082 434.986C523.698 435.876 523.599 436.952 523.656 438.092C523.381 440.016 523.62 442.015 523.445 444H521.175C521.154 441.958 521.236 440.658 521.428 438.616L521.442 435.524Z" fill="#192033"/>
<path d="M521.791 432.349L523.944 431.833C523.922 433.578 523.983 436.468 523.659 438.093C523.601 436.952 523.701 435.876 523.085 434.986C522.137 434.875 522.457 434.893 521.445 435.524L521.791 432.349Z" fill="#182449"/>
<path d="M567.335 355.119C569.925 355.158 572.581 355.133 575.179 355.133C576.519 357.898 578.276 361.397 579.053 364.372L578.743 365.626C577.296 366.805 569.573 366.31 567.32 366.285L567.335 355.119Z" fill="#283863"/>
<path d="M517.944 403.496L529.341 403.475L529.359 414.153C528.35 414.167 525.72 414.135 524.85 414.257C524.391 412.297 525.136 408.759 523.995 406.635C522.744 407.961 522.666 412.382 522.537 414.303C520.802 414.125 519.679 414.128 517.926 414.16L517.944 403.496Z" fill="#283863"/>
<path d="M579.688 403.468C582.567 403.478 585.443 403.46 588.323 403.414C589.403 407.03 589.898 410.337 590.832 413.8C589.659 414.509 581.648 414.188 579.702 414.163L579.688 403.468Z" fill="#283863"/>
<path d="M480.914 295.135C484.563 296.4 489.04 298.983 492.433 299.74C492.155 301.447 492.251 304.965 492.247 306.819L480.814 306.804C480.779 302.914 480.814 299.024 480.914 295.135Z" fill="#283863"/>
<path d="M436.476 331.63C438.123 331.669 439.723 331.719 441.37 331.667L441.359 342.309C437.563 342.306 433.315 342.394 429.562 342.197C432.428 338.295 434.235 335.936 436.476 331.63Z" fill="#283863"/>
<path d="M579.722 391.215L586.251 391.086C587.095 394.71 587.512 398.608 588.357 402.003C587.341 402.588 581.276 402.385 579.672 402.374L579.722 391.215Z" fill="#283863"/>
<path d="M458.073 285.551C461.238 286.82 464.417 288.066 467.599 289.291C467.549 291.091 467.467 292.951 467.453 294.745L455.09 294.733C455.838 292.75 458.091 287.336 458.073 285.551Z" fill="#283863"/>
<path d="M556.077 331.124C558.821 332.718 565.204 339.002 566.64 341.747C565.418 342.637 556.879 342.328 555.011 342.314C554.976 339.577 554.919 336.772 554.951 334.038C554.972 332.22 555.011 332.122 556.077 331.124Z" fill="#283863"/>
<path d="M444.027 318.683C446.433 315.154 448.072 311.207 449.755 307.296C451.023 307.667 452.837 307.492 453.611 308.079C453.935 311.238 453.8 315.495 453.785 318.758L444.027 318.683Z" fill="#283863"/>
<path d="M441.424 439.599L442.358 439.453C446.153 439.4 449.952 439.389 453.751 439.418L454.56 439.607C454.657 441.075 454.774 442.528 454.753 444H453.741H442.347H441.324L441.424 439.599Z" fill="#283863"/>
<path d="M441.424 439.6L442.358 439.454L442.347 444H441.324L441.424 439.6Z" fill="#9FBFE5"/>
<path d="M453.749 439.418L454.558 439.607C454.654 441.075 454.772 442.528 454.75 444H453.738L453.749 439.418Z" fill="#9FBFE5"/>
<path d="M517.941 318.722C517.933 316.985 517.666 312.522 518.265 311.142C520.927 312.269 527.463 314.853 529.413 316.442C529.359 317.362 529.366 317.361 529.067 318.23C527.118 319.261 520.482 318.761 517.941 318.722Z" fill="#283863"/>
<path d="M454.559 439.607C457.232 439.229 464.459 439.439 467.517 439.425L467.495 444H454.751C454.772 442.528 454.655 441.075 454.559 439.607Z" fill="#283863"/>
<path d="M542.562 322.163C547.021 324.63 550.738 326.535 554.583 329.925C553.276 331.335 544.99 330.741 542.641 330.711L542.562 322.163Z" fill="#283863"/>
<path d="M492.969 439.61C494.533 439.297 502.923 439.247 504.573 439.553L505.385 439.571L505.442 444H504.558H493.083L492.969 439.61Z" fill="#283863"/>
<path d="M504.573 439.553L505.385 439.571L505.442 444H504.559L504.573 439.553Z" fill="#9FBFE5"/>
<path d="M468.406 439.418C472.22 439.375 476.037 439.39 479.85 439.461L480.673 439.675C480.78 441.203 480.858 442.468 480.844 444H479.846H468.424L468.406 439.418Z" fill="#283863"/>
<path d="M479.847 439.46L480.671 439.674C480.778 441.203 480.856 442.468 480.842 444H479.844L479.847 439.46Z" fill="#9FBFE5"/>
<path d="M566.276 439.457L567.184 439.689C567.334 441.324 567.405 442.364 567.38 444H566.379H555.042L555.035 439.411L566.276 439.457Z" fill="#283863"/>
<path d="M566.273 439.457L567.182 439.689C567.332 441.324 567.403 442.364 567.378 444H566.377C566.398 442.503 566.323 440.961 566.273 439.457Z" fill="#9FBFE5"/>
<path d="M579.73 389.875C579.772 386.519 578.817 381.848 580.229 379.571C581.194 378.816 582.331 379.033 583.643 379.054C584.341 382.097 585.321 387.035 586.212 389.875C584.174 389.943 581.797 389.879 579.73 389.875Z" fill="#283863"/>
<path d="M524.7 415.119L529.369 415.09L529.344 426.253L524.404 426.317C524.044 424.008 524.522 417.499 524.7 415.119Z" fill="#283863"/>
<path d="M480.672 439.674C483.17 439.19 489.393 439.411 492.226 439.471L492.967 439.61L493.081 444H492.233H480.843C480.857 442.468 480.779 441.203 480.672 439.674Z" fill="#283863"/>
<path d="M492.227 439.472L492.968 439.611L493.082 444H492.234L492.227 439.472Z" fill="#9FBFE5"/>
<path d="M542.441 439.297C546.347 439.429 550.253 439.475 554.159 439.432L554.138 444H542.588C542.609 442.272 542.566 441.018 542.441 439.297Z" fill="#283863"/>
<path d="M505.383 439.571C508.38 439.225 513.801 439.403 516.99 439.421L516.948 443.999H505.44L505.383 439.571Z" fill="#283863"/>
<path d="M405.078 439.389L416.611 439.421L416.6 444H405.174L405.078 439.389Z" fill="#283863"/>
<path d="M579.672 439.389L591.137 439.414V444H579.679L579.672 439.389Z" fill="#283863"/>
<path d="M417.473 439.4C421.329 439.468 425.188 439.45 429.041 439.347C429.07 440.879 429.123 442.475 429.116 444H417.487L417.473 439.4Z" fill="#283863"/>
<path d="M567.18 439.688C569.243 439.218 576.235 439.403 578.787 439.411L578.798 444H567.376C567.401 442.364 567.329 441.324 567.18 439.688Z" fill="#283863"/>
<path d="M530.281 439.393C534.038 439.386 538.043 439.307 541.775 439.51L541.728 444H530.335L530.281 439.393Z" fill="#283863"/>
<path d="M522.538 414.303C522.666 412.382 522.745 407.961 523.996 406.635C525.136 408.759 524.391 412.297 524.851 414.256L524.701 415.119C524.523 417.499 524.046 424.008 524.406 426.317L524.377 427.208C524.234 428.711 524.046 430.34 523.942 431.832L521.79 432.349C521.783 430.318 521.84 428.879 522.021 426.855C522.228 426.335 522.492 416.451 522.534 414.951L522.538 414.303Z" fill="#192033"/>
<path d="M429.941 439.378C432.389 439.378 439.371 439.239 441.424 439.599L441.324 444H429.938L429.941 439.378Z" fill="#283863"/>
<path d="M522.532 414.951C522.489 416.451 522.225 426.335 522.019 426.855C521.331 425.936 519.053 426.246 517.906 426.267L517.902 415.101C519.659 415.129 520.786 415.112 522.532 414.951Z" fill="#283863"/>
<path d="M567.356 354.274C567.339 351.352 567.182 345.346 567.642 342.755C570.592 346.852 572.745 349.646 574.691 354.278L567.356 354.274Z" fill="#283863"/>
<path d="M493.1 300.199C496.735 301.736 501.646 303.747 505.068 305.56L504.291 306.528C502.152 307.117 495.484 306.847 493.086 306.804L493.1 300.199Z" fill="#283863"/>
<path d="M521.215 438.712C519.947 438.673 519.458 438.666 518.19 438.395C517.651 437.02 517.929 429.688 518.019 427.781C518.571 427.151 520.855 427.055 522.021 426.855C521.839 428.879 521.782 430.318 521.789 432.349L521.443 435.524L521.429 438.616L521.215 438.712Z" fill="#283863"/>
<path d="M417.461 331.254C418.747 333.783 423.031 338.76 425.056 342.239L417.468 342.292L417.461 331.254Z" fill="#283863"/>
<path d="M468.369 294.745C468.334 293.227 468.166 291.224 468.651 289.839C471.862 291.27 476.752 293.041 479.539 294.445C477.682 294.882 470.65 294.748 468.369 294.745Z" fill="#283863"/>
<path d="M592.08 428.12L592.173 427.539L593.135 426.897L593.595 428.601C594.119 431.764 594.632 435.306 595.423 438.377C594.276 438.62 593.884 438.805 592.782 438.456C591.332 436.738 592.016 430.607 592.08 428.12Z" fill="#283863"/>
<path d="M580.032 367.026C580.912 369.719 582.459 375.755 583.371 377.782C582.423 378.26 581.211 378.253 580.278 377.807C578.902 375.702 579.618 369.563 580.032 367.026Z" fill="#283863"/>
<path d="M595.615 439.386C596.053 440.996 596.335 442.361 596.652 444H592.101C592.037 442.667 591.794 441.053 592.315 439.906C593.284 439.151 594.307 439.357 595.615 439.386Z" fill="#283863"/>
<path d="M521.215 438.712L521.429 438.616C521.237 440.658 521.155 441.958 521.176 444H517.951C517.616 437.565 518.492 441.046 521.215 438.712Z" fill="#283863"/>
<path d="M453.743 299.011C453.797 301.077 454.199 304.458 453.479 306.104C452.328 307.082 451.929 306.835 450.094 306.833C451.434 304.253 452.41 301.628 453.743 299.011Z" fill="#283863"/>
<path d="M437.074 330.732C438.55 328.555 439.776 326.363 441.319 324.156L441.344 330.696L437.074 330.732Z" fill="#283863"/>
<path d="M530.334 316.663L535.017 318.504C533.673 318.703 532.166 319.077 530.926 318.62C530.131 317.819 530.373 318.143 530.334 316.663Z" fill="#283863"/>
<path d="M592.303 422.251C592.556 423.573 592.898 425.134 593.087 426.441C592.788 426.399 592.506 426.206 592.211 426.05C591.794 424.763 592.104 423.623 592.303 422.251Z" fill="#283863"/>
<path d="M454.691 427.183L467.532 427.212L467.525 438.56L454.695 438.609C454.723 434.801 454.723 430.992 454.691 427.183Z" fill="#283863"/>
<path d="M454.717 415.097L467.526 415.09L467.522 426.207C463.37 426.367 458.876 426.282 454.699 426.278L454.717 415.097Z" fill="#283863"/>
<path d="M454.684 391.154L467.496 391.147L467.481 402.288C464.26 402.541 458.166 402.356 454.73 402.367C454.78 398.683 454.705 394.849 454.684 391.154Z" fill="#283863"/>
<path d="M454.684 355.125L467.403 355.19L467.499 366.242C463.558 366.384 458.757 366.245 454.748 366.242L454.684 355.125Z" fill="#283863"/>
<path d="M454.754 343.199L467.445 343.164L467.416 354.238L454.711 354.31L454.754 343.199Z" fill="#283863"/>
<path d="M454.719 319.632L467.435 319.636L467.395 330.715L454.737 330.742L454.719 319.632Z" fill="#283863"/>
<path d="M454.72 367.104L467.475 367.083L467.461 378.032C463.779 378.264 458.487 378.1 454.691 378.096L454.72 367.104Z" fill="#283863"/>
<path d="M454.757 307.604L467.38 307.619C467.387 309.919 467.637 317.108 467.202 318.776L454.746 318.799C454.778 315.067 454.782 311.336 454.757 307.604Z" fill="#283863"/>
<path d="M454.664 379.119L467.43 379.133L467.515 389.865C463.827 390.068 458.545 389.904 454.735 389.907C454.76 386.309 454.735 382.714 454.664 379.119Z" fill="#283863"/>
<path d="M454.703 403.464L467.465 403.492L467.526 414.142C463.777 414.327 458.602 414.163 454.739 414.163L454.703 403.464Z" fill="#283863"/>
<path d="M454.703 331.616L467.387 331.673L467.462 342.31L454.746 342.284C454.771 338.742 454.721 335.161 454.703 331.616Z" fill="#283863"/>
<path d="M417.434 427.161L429.063 427.229L429.098 438.598L417.459 438.584L417.434 427.161Z" fill="#283863"/>
<path d="M505.43 427.208L517.002 427.193L516.998 438.584L505.444 438.591L505.43 427.208Z" fill="#283863"/>
<path d="M468.375 427.201H479.876L479.886 438.609L468.396 438.602L468.375 427.201Z" fill="#283863"/>
<path d="M579.728 427.218L591.186 427.197L591.175 438.591L579.66 438.612L579.728 427.218Z" fill="#283863"/>
<path d="M442.32 427.218L453.76 427.211L453.77 438.605L442.312 438.616L442.32 427.218Z" fill="#283863"/>
<path d="M542.6 427.201L554.154 427.219L554.161 438.591L542.586 438.602C542.647 434.8 542.654 430.999 542.6 427.201Z" fill="#283863"/>
<path d="M480.804 427.201L492.222 427.215L492.229 438.581L480.793 438.616L480.804 427.201Z" fill="#283863"/>
<path d="M493.055 427.175L504.562 427.182C504.513 430.941 504.562 434.811 504.562 438.58L493.062 438.602L493.055 427.175Z" fill="#283863"/>
<path d="M417.445 391.144L429.06 391.183L429.078 402.317L417.452 402.402L417.445 391.144Z" fill="#283863"/>
<path d="M429.952 427.225L441.328 427.222L441.35 438.605L429.945 438.609L429.952 427.225Z" fill="#283863"/>
<path d="M405.141 427.197L416.634 427.183L416.613 438.563L405.173 438.599C405.183 434.797 405.173 430.995 405.141 427.197Z" fill="#283863"/>
<path d="M567.32 427.179L578.76 427.215L578.821 438.609C575.335 438.613 570.774 438.734 567.388 438.459L567.32 427.179Z" fill="#283863"/>
<path d="M555.035 427.197L566.396 427.183L566.343 438.563L555.031 438.588L555.035 427.197Z" fill="#283863"/>
<path d="M417.43 355.115C421.314 355.165 425.199 355.186 429.08 355.179L429.112 366.263L417.444 366.285L417.43 355.115Z" fill="#283863"/>
<path d="M468.359 391.154L479.831 391.168L479.899 402.384L468.409 402.363L468.359 391.154Z" fill="#283863"/>
<path d="M530.31 427.215L541.718 427.222C541.668 430.974 541.725 434.825 541.736 438.584L530.281 438.616L530.31 427.215Z" fill="#283863"/>
<path d="M417.454 415.097L429.083 415.111L429.08 426.242L417.426 426.31C417.458 422.572 417.465 418.835 417.454 415.097Z" fill="#283863"/>
<path d="M505.433 391.14L517.001 391.158L516.987 402.363L505.426 402.395C505.469 398.665 505.433 394.874 505.433 391.14Z" fill="#283863"/>
<path d="M442.305 391.172L453.763 391.162V402.364L442.326 402.371L442.305 391.172Z" fill="#283863"/>
<path d="M480.803 391.168L492.247 391.147L492.218 402.335L480.789 402.395L480.803 391.168Z" fill="#283863"/>
<path d="M542.63 355.194L554.155 355.176L554.18 366.26L542.598 366.285L542.63 355.194Z" fill="#283863"/>
<path d="M505.418 319.625L517.001 319.657L517.036 330.549C515.803 330.902 507.289 330.726 505.471 330.712L505.418 319.625Z" fill="#283863"/>
<path d="M405.145 391.179L416.634 391.129L416.627 402.356C412.946 402.452 408.904 402.366 405.194 402.366L405.145 391.179Z" fill="#283863"/>
<path d="M417.441 367.065L429.11 367.093L429.099 378.074L417.481 378.067L417.441 367.065Z" fill="#283863"/>
<path d="M517.902 391.136L529.346 391.168L529.342 402.338L517.924 402.352L517.902 391.136Z" fill="#283863"/>
<path d="M542.594 343.157L554.148 343.165V354.256L542.64 354.26L542.594 343.157Z" fill="#283863"/>
<path d="M505.426 343.161L516.955 343.181L517.012 354.245L505.454 354.263L505.426 343.161Z" fill="#283863"/>
<path d="M405.144 415.112L416.609 415.115L416.648 426.267C413.059 426.399 408.779 426.278 405.133 426.271L405.144 415.112Z" fill="#283863"/>
<path d="M542.594 415.076L554.159 415.101L554.166 426.246L542.608 426.274C542.64 422.54 542.633 418.81 542.594 415.076Z" fill="#283863"/>
<path d="M505.459 415.118L517.006 415.101C516.999 418.813 517.017 422.526 517.052 426.238C513.463 426.37 509.09 426.256 505.438 426.26L505.459 415.118Z" fill="#283863"/>
<path d="M468.389 355.201L479.882 355.154L479.904 366.274L468.371 366.278L468.389 355.201Z" fill="#283863"/>
<path d="M505.454 355.179C509.321 355.204 513.184 355.197 517.048 355.161L517.03 366.235C513.437 366.381 509.082 366.274 505.426 366.285L505.454 355.179Z" fill="#283863"/>
<path d="M542.602 391.222L554.145 391.19L554.181 402.353L542.634 402.381C542.659 398.676 542.616 394.931 542.602 391.222Z" fill="#283863"/>
<path d="M442.301 415.086L453.762 415.111L453.773 426.253L442.329 426.238L442.301 415.086Z" fill="#283863"/>
<path d="M468.363 415.097L479.832 415.119L479.9 426.253C476.136 426.328 472.173 426.256 468.395 426.249L468.363 415.097Z" fill="#283863"/>
<path d="M468.41 307.631L479.896 307.587C479.921 309.89 480.32 317.363 479.319 318.77L468.363 318.771L468.41 307.631Z" fill="#283863"/>
<path d="M429.949 391.172L441.35 391.144L441.343 402.363L429.978 402.356L429.949 391.172Z" fill="#283863"/>
<path d="M493.082 307.583L504.462 307.602L504.554 318.774L493.107 318.752L493.082 307.583Z" fill="#283863"/>
<path d="M542.586 367.069L554.169 367.08L554.183 378.082L542.618 378.078L542.586 367.069Z" fill="#283863"/>
<path d="M493.035 391.172L504.511 391.151C504.454 394.81 504.554 398.683 504.593 402.36C500.986 402.474 496.742 402.356 493.085 402.353L493.035 391.172Z" fill="#283863"/>
<path d="M480.819 415.115L492.241 415.079L492.227 426.238L480.805 426.26L480.819 415.115Z" fill="#283863"/>
<path d="M530.305 391.172L541.716 391.175V402.335L530.333 402.356L530.305 391.172Z" fill="#283863"/>
<path d="M517.898 355.143L529.385 355.111L529.349 366.224L517.92 366.249L517.898 355.143Z" fill="#283863"/>
<path d="M530.297 415.086H541.744L541.719 426.224L530.325 426.242L530.297 415.086Z" fill="#283863"/>
<path d="M493.039 415.083L504.465 415.119C504.547 418.81 504.543 422.565 504.575 426.26C500.78 426.331 496.87 426.278 493.068 426.274C493.093 422.544 493.082 418.813 493.039 415.083Z" fill="#283863"/>
<path d="M567.316 391.158L578.749 391.204L578.824 402.363C575.05 402.424 571.137 402.363 567.352 402.363C567.409 398.693 567.331 394.842 567.316 391.158Z" fill="#283863"/>
<path d="M405.129 355.137C408.967 355.158 412.806 355.144 416.64 355.094L416.637 366.267L405.193 366.246L405.129 355.137Z" fill="#283863"/>
<path d="M567.373 415.118L578.791 415.104L578.806 426.242C575.192 426.374 570.972 426.274 567.309 426.281L567.373 415.118Z" fill="#283863"/>
<path d="M493.083 319.658L504.569 319.631L504.519 330.435C503.258 330.936 494.979 330.752 493.051 330.743L493.083 319.658Z" fill="#283863"/>
<path d="M555.022 391.197L566.38 391.151L566.352 402.346L555.008 402.388L555.022 391.197Z" fill="#283863"/>
<path d="M429.949 415.09L441.364 415.083L441.329 426.242L429.96 426.239L429.949 415.09Z" fill="#283863"/>
<path d="M442.293 343.158L453.744 343.188L453.783 354.264L442.329 354.267L442.293 343.158Z" fill="#283863"/>
<path d="M405.195 343.177L416.61 343.186L416.632 354.263L405.152 354.288L405.195 343.177Z" fill="#283863"/>
<path d="M505.426 367.065L516.987 367.093L516.983 378.071L505.454 378.06L505.426 367.065Z" fill="#283863"/>
<path d="M555.02 415.083L566.353 415.112L566.41 426.278L555.027 426.239L555.02 415.083Z" fill="#283863"/>
<path d="M493.039 355.115C496.877 355.179 500.712 355.197 504.55 355.172C504.408 358.482 504.55 362.779 504.568 366.16C501.471 366.463 496.353 366.277 493.1 366.249L493.039 355.115Z" fill="#283863"/>
<path d="M480.793 343.176L492.215 343.192L492.244 354.281L480.814 354.284L480.793 343.176Z" fill="#283863"/>
<path d="M517.942 319.655L529.332 319.656L529.364 330.751L517.91 330.752L517.942 319.655Z" fill="#283863"/>
<path d="M517.95 343.189L529.322 343.191L529.383 354.281L517.918 354.292L517.95 343.189Z" fill="#283863"/>
<path d="M480.797 319.646L492.226 319.668L492.251 330.746L480.815 330.733L480.797 319.646Z" fill="#283863"/>
<path d="M468.842 295.568C472.421 295.682 476.259 295.636 479.855 295.657C479.865 297.599 480.179 305.846 479.359 306.802L468.39 306.78C468.365 304.751 468.008 296.681 468.842 295.568Z" fill="#283863"/>
<path d="M480.793 355.125C484.613 355.15 488.434 355.139 492.251 355.097L492.219 366.231L480.8 366.27L480.793 355.125Z" fill="#283863"/>
<path d="M530.329 343.193L541.747 343.161L541.715 354.221L530.293 354.299L530.329 343.193Z" fill="#283863"/>
<path d="M555.025 355.165L566.369 355.14L566.376 366.274L555 366.281L555.025 355.165Z" fill="#283863"/>
<path d="M468.367 343.166L479.882 343.17C479.807 346.796 479.878 350.611 479.886 354.253L468.399 354.26L468.367 343.166Z" fill="#283863"/>
<path d="M468.367 319.629L479.889 319.642C479.8 323.242 479.875 327.101 479.886 330.722L468.392 330.714L468.367 319.629Z" fill="#283863"/>
<path d="M442.324 355.179C446.123 355.19 449.969 355.126 453.771 355.094L453.75 366.235L442.324 366.264V355.179Z" fill="#283863"/>
<path d="M493.09 367.108L504.576 367.069L504.537 378.061L493.051 378.096L493.09 367.108Z" fill="#283863"/>
<path d="M493.093 343.186L504.525 343.162C504.579 346.822 504.543 350.572 504.547 354.242L493.039 354.288L493.093 343.186Z" fill="#283863"/>
<path d="M480.805 307.597L492.241 307.577C492.252 311.287 492.223 314.997 492.163 318.706L480.805 318.749V307.597Z" fill="#283863"/>
<path d="M429.966 355.211L441.321 355.176L441.36 366.264L429.938 366.271L429.966 355.211Z" fill="#283863"/>
<path d="M567.32 367.065L578.785 367.111L578.828 378.089L567.36 378.064L567.32 367.065Z" fill="#283863"/>
<path d="M429.984 343.194L441.367 343.153L441.328 354.239L429.988 354.26L429.984 343.194Z" fill="#283863"/>
<path d="M442.328 367.08L453.75 367.112L453.779 378.089L442.328 378.078V367.08Z" fill="#283863"/>
<path d="M530.258 355.111C534.078 355.168 537.902 355.186 541.723 355.158L541.737 366.26C537.97 366.274 534.082 366.338 530.329 366.164C530.343 362.497 530.286 358.781 530.258 355.111Z" fill="#283863"/>
<path d="M530.319 367.101L541.738 367.086L541.741 378.071L530.305 378.089L530.319 367.101Z" fill="#283863"/>
<path d="M429.957 367.083H441.369L441.354 378.085L429.957 378.082V367.083Z" fill="#283863"/>
<path d="M405.168 367.097L416.64 367.076L416.608 378.053C412.898 378.142 408.899 378.074 405.168 378.078V367.097Z" fill="#283863"/>
<path d="M468.371 367.069H479.868C479.79 370.671 479.861 374.455 479.875 378.075H468.396L468.371 367.069Z" fill="#283863"/>
<path d="M417.491 379.154L429.067 379.136L429.102 389.882L417.441 389.925L417.491 379.154Z" fill="#283863"/>
<path d="M555.016 367.072L566.377 367.069L566.349 378.057L555.023 378.078L555.016 367.072Z" fill="#283863"/>
<path d="M555.042 343.184L566.35 343.196L566.372 354.26C562.616 354.307 558.799 354.271 555.035 354.268L555.042 343.184Z" fill="#283863"/>
<path d="M480.777 367.076L492.221 367.115L492.246 378.089L480.817 378.082C480.841 374.422 480.799 370.735 480.777 367.076Z" fill="#283863"/>
<path d="M505.476 379.147L516.958 379.144L517.026 389.907L505.426 389.936L505.476 379.147Z" fill="#283863"/>
<path d="M417.449 403.436L429.092 403.507V414.124L417.453 414.174L417.449 403.436Z" fill="#283863"/>
<path d="M542.609 379.14L554.167 379.108L554.156 389.882L542.627 389.889L542.609 379.14Z" fill="#283863"/>
<path d="M517.945 367.09C521.423 367.086 525.946 366.965 529.332 367.233L529.385 378.089L517.941 378.078L517.945 367.09Z" fill="#283863"/>
<path d="M542.601 403.439L554.137 403.446L554.152 414.117L542.598 414.192L542.601 403.439Z" fill="#283863"/>
<path d="M505.465 331.666L517.047 331.642L517.015 342.285L505.422 342.326L505.465 331.666Z" fill="#283863"/>
<path d="M480.785 379.133L492.243 379.097L492.222 389.889L480.803 389.911L480.785 379.133Z" fill="#283863"/>
<path d="M493.055 379.111L504.488 379.136L504.591 389.918C500.831 389.993 496.861 389.914 493.083 389.903L493.055 379.111Z" fill="#283863"/>
<path d="M405.133 379.14L416.601 379.136L416.637 389.907C412.973 390.039 408.875 389.932 405.179 389.911L405.133 379.14Z" fill="#283863"/>
<path d="M505.438 403.436L516.96 403.471L516.977 414.128L505.459 414.124L505.438 403.436Z" fill="#283863"/>
<path d="M468.425 403.475L479.876 403.439L479.844 414.121L468.375 414.188L468.425 403.475Z" fill="#283863"/>
<path d="M493.077 403.482L504.553 403.436L504.535 414.121L493.066 414.174L493.077 403.482Z" fill="#283863"/>
<path d="M468.389 331.688L479.886 331.643L479.904 342.302L468.371 342.315L468.389 331.688Z" fill="#283863"/>
<path d="M567.389 379.158L578.794 379.122L578.776 389.85C574.963 389.911 571.149 389.932 567.336 389.911L567.389 379.158Z" fill="#283863"/>
<path d="M442.305 331.654L453.784 331.583L453.763 342.247L442.319 342.336L442.305 331.654Z" fill="#283863"/>
<path d="M530.273 379.129L541.713 379.094L541.717 389.868C538.178 390 533.937 389.886 530.341 389.882L530.273 379.129Z" fill="#283863"/>
<path d="M517.942 379.143L529.378 379.111L529.332 389.875C525.554 389.95 521.691 389.921 517.902 389.939L517.942 379.143Z" fill="#283863"/>
<path d="M542.664 331.66C546.505 331.68 550.344 331.667 554.186 331.619L554.15 342.299L542.617 342.342L542.664 331.66Z" fill="#283863"/>
<path d="M405.137 403.485L416.623 403.436L416.62 414.121L405.204 414.139L405.137 403.485Z" fill="#283863"/>
<path d="M468.411 379.154L479.865 379.129L479.876 389.893C476.095 389.964 472.171 389.914 468.379 389.918L468.411 379.154Z" fill="#283863"/>
<path d="M480.77 403.432L492.213 403.471L492.242 414.164L480.834 414.125L480.77 403.432Z" fill="#283863"/>
<path d="M493.051 331.613L504.502 331.648L504.566 342.314C500.838 342.379 496.843 342.292 493.094 342.28L493.051 331.613Z" fill="#283863"/>
<path d="M442.349 403.482L453.76 403.443L453.75 414.132L442.32 414.174L442.349 403.482Z" fill="#283863"/>
<path d="M480.781 331.635L492.253 331.596L492.225 342.253L480.81 342.289L480.781 331.635Z" fill="#283863"/>
<path d="M530.339 403.475L541.729 403.45V414.168L530.332 414.164L530.339 403.475Z" fill="#283863"/>
<path d="M517.898 331.618L529.356 331.613L529.335 342.275L517.938 342.28L517.898 331.618Z" fill="#283863"/>
<path d="M442.32 379.14C446.109 379.172 449.972 379.115 453.771 379.097L453.75 389.896C450.011 389.968 446.084 389.904 442.327 389.9L442.32 379.14Z" fill="#283863"/>
<path d="M567.366 403.464L578.785 403.457V414.11L567.355 414.121L567.366 403.464Z" fill="#283863"/>
<path d="M429.978 379.126L441.354 379.108L441.336 389.893C437.587 389.968 433.713 389.914 429.949 389.904L429.978 379.126Z" fill="#283863"/>
<path d="M555.057 379.136L566.35 379.143L566.383 389.907C562.644 389.985 558.784 389.911 555.035 389.886L555.057 379.136Z" fill="#283863"/>
<path d="M555.027 403.45L566.364 403.468L566.367 414.128L555.023 414.136L555.027 403.45Z" fill="#283863"/>
<path d="M530.246 331.608C534.07 331.65 537.891 331.663 541.715 331.65L541.754 342.316C538.062 342.389 534.059 342.295 530.339 342.281C530.328 338.723 530.3 335.166 530.246 331.608Z" fill="#283863"/>
<path d="M429.962 403.475L441.341 403.482L441.373 414.164L429.972 414.143C429.94 410.587 429.937 407.031 429.962 403.475Z" fill="#283863"/>
<path d="M305.349 131.212C301.25 115.376 297.776 93.9897 297.587 77.7744C296.821 11.825 378.227 -18.1943 430.284 10.9625C443.178 18.1829 449.839 30.5373 451.368 44.8051C461.354 49.5245 466.55 52.676 470.46 64.014C475.724 79.2762 471.483 101.47 468.799 117.165C468.182 120.782 466.899 127.944 465.941 131.145C464.401 131.777 460.666 133.152 460.427 134.801C457.918 152.094 456.425 170.654 453.913 187.919C449.832 208.008 444.304 216.915 428.762 229.983C411.299 242.66 399.093 250.704 376.425 247.326C362.78 245.293 359.257 240.797 348.364 234.64C347.661 236.143 347.343 236.071 345.575 236.242C344.361 235.176 343.555 234.3 342.461 233.109L342.432 230.224C327.077 216.804 321.041 208.726 317.09 187.971C315.312 176.39 314.38 164.143 312.647 152.468C311.925 146.747 311.812 140.868 310.632 135.224C310.08 132.581 307.419 132.432 305.349 131.212Z" fill="#192033"/>
<path d="M342.434 230.224C344.405 231.561 346.689 232.986 348.365 234.64C347.663 236.143 347.345 236.071 345.577 236.242C344.362 235.176 343.557 234.3 342.462 233.109L342.434 230.224Z" fill="#CA7354"/>
<path d="M317.354 111.888C317.679 111.267 318.929 109.361 319.381 108.895C329.88 98.0732 321.005 85.217 327.942 73.2886C331.161 67.9203 335.815 64.45 342.32 66.1499C374.003 74.4284 400.544 73.7418 432.227 65.2114C433.695 65.6411 435.089 66.2775 436.497 66.876C441.155 69.5504 443.642 73.5099 445.011 78.674C446.846 85.6111 444.761 92.8791 446.504 99.7271C448.275 106.682 454.598 111.483 456.793 118.332C461.462 132.907 452.16 173.572 444.733 186.136C440.157 193.872 432.908 201.072 424.504 204.577C423.382 187.726 424.387 181.752 405.398 178.034C397.116 176.412 393.324 172.824 385.448 179.017C382.418 176.877 378.787 174.881 374.935 176.05C368.196 178.095 353.64 180.592 349.634 186.334C347.119 189.939 346.623 200.061 346.425 204.537C336.404 200.03 326.515 189.769 322.857 179.361C317.95 165.397 306.845 123.95 317.354 111.888Z" fill="#E19970"/>
<path d="M317.352 111.888C317.677 111.267 318.927 109.361 319.379 108.895C329.878 98.0732 321.003 85.217 327.94 73.2886C331.158 67.9203 335.813 64.45 342.318 66.1499C374.001 74.4284 400.542 73.7418 432.225 65.2114C433.693 65.6411 435.087 66.2775 436.495 66.876C433.993 68.7665 427.546 71.4377 424.377 72.509C406.512 78.7068 389.309 80.9757 370.381 78.7011C358.451 77.2674 347.22 70.5544 335.92 77.712C325.58 84.2618 327.374 107.851 317.352 111.888Z" fill="#CA7354"/>
<path d="M425.962 154.412C447.081 153.398 449.893 171.153 431.5 173.837C411.863 174.976 406.71 158.144 425.962 154.412Z" fill="#CA7354"/>
<path d="M339.591 154.444C358.744 153.077 363.875 170.642 344.454 173.906C323.773 174.625 320.387 157.193 339.591 154.444Z" fill="#CA7354"/>
<path d="M350.283 111.726C353.331 111.529 356.392 111.766 359.373 112.43C362.197 113.063 367.081 114.105 366.03 118.004C365.347 118.757 364.255 119.392 363.252 119.406C357.706 119.479 352.807 119.035 347.212 119.594C343.279 120.075 335.729 123.631 333.015 121.88C329.999 117.357 340.782 113.906 343.829 112.797C345.761 112.094 348.219 111.895 350.283 111.726Z" fill="#192033"/>
<path d="M416.569 111.725C422.167 111.021 437.674 114.289 438.141 120.81C436.687 124.067 430.831 121.326 428.347 120.463C421.989 118.553 414.815 119.325 408.354 119.635C402.972 119.892 403.892 114.292 408.703 113.084C411.633 112.347 413.582 112.042 416.569 111.725Z" fill="#192033"/>
<path d="M374.333 124.143C374.901 124.255 375.257 124.379 375.803 124.549C379.072 128.67 377.618 147.138 377.119 152.687C377.005 160.06 371.135 168.261 381.371 170.616C388.146 172.175 392.383 167.489 395.096 167.543C395.905 168.435 395.705 167.988 395.791 169.256C394.554 170.227 393.421 170.948 392.095 171.835C386.221 175.769 372.257 173.424 372.917 164.463C373.674 154.193 376.294 143.782 374.861 133.245C374.56 131.031 374.103 126.289 374.333 124.143Z" fill="#CA7354"/>
<path d="M351.986 132.892C358.592 135.695 358.796 145.858 352.375 147.835C345.097 146.686 344.558 136.066 351.986 132.892Z" fill="#192033"/>
<path d="M417.956 133.184C425.29 133.368 425.907 144.386 420.037 147.723C412.25 147.6 411.968 137.401 417.956 133.184Z" fill="#192033"/>
<path d="M385.162 184.646C387.044 185.33 390.465 186.473 392.586 186.711C398.609 187.387 406.937 185.868 412.547 188.09C414.546 188.883 415.74 192.334 416.385 194.235C418.851 201.97 419.015 205.048 415.68 212.708C411.838 221.522 397.365 232.446 391.573 219.084C390.262 216.065 396.043 213.538 395.219 210.956C393.701 209.93 390.052 210.936 388.184 211.29C384.727 211.536 377.346 210.496 375.842 211.719C375.683 213.886 377.881 215.193 379.431 217.488C379.859 220.726 377.956 222.572 375.33 224.007C366.992 228.636 358.148 218.846 355.037 212.181C351.025 203.585 352.298 189.416 364.006 188.527C370.96 187.998 378.9 187.469 385.162 184.646Z" fill="#E19970"/>
<path d="M409.049 189.052C410.731 188.854 411.283 188.57 411.928 190.124C411.875 190.614 411.739 191.3 411.497 191.726C404.109 204.647 385.734 207.757 372.509 203.262C370.975 202.74 369.16 201.805 367.656 201.065C364.819 199.404 358.861 195.754 359.464 192.077C361.713 191.037 383.788 191.136 388.182 190.8C394.455 190.32 402.662 189.633 409.049 189.052Z" fill="#CA7354"/>
<path d="M406.196 191.9C406.637 191.837 407.336 191.874 407.803 191.88L407.778 192.419C398.148 203.643 383.059 204.621 370.004 199.387C366.45 197.624 365.632 196.799 363.027 193.921C367.678 193.369 374.995 193.603 379.944 193.468C388.708 193.193 397.464 192.669 406.196 191.9Z" fill="white"/>
<path d="M347.773 26.1965C353.211 25.2063 359.094 26.6275 364.199 27.5038C382.404 30.6284 392.422 44.2528 406.478 54.2732C408.862 55.9734 418.299 59.3568 419.165 60.7542L418.659 61.2469C415.701 61.6246 409.921 58.7397 407.294 57.2472C400.786 53.6696 396.043 49.2423 390.761 44.3276C376.962 31.4835 358.683 25.7065 340.141 29.9529C338.335 30.3662 335.135 31.4807 333.391 31.2135L333.191 30.7011C334.468 28.2594 344.922 26.5182 347.773 26.1965Z" fill="#283863"/>
<path d="M359.937 15.1733C384.357 12.7388 409.938 22.7663 421.197 45.5226C422.177 47.5082 425.669 53.795 425.399 55.7475L424.846 56.0899C423.47 55.0439 422.073 51.3687 421.286 49.6007C419.967 47.3739 418.627 45.1595 417.266 42.9576C405.868 24.7807 388.042 17.5524 366.9 16.879C362.408 16.7359 353.891 18.2034 350.071 17.3231L349.992 16.9652C352.764 15.6049 356.833 15.4153 359.937 15.1733Z" fill="#283863"/>
<path d="M342.347 41.1691C356.139 39.1568 369.871 47.2432 379.599 56.0451C382.322 58.5075 385.394 60.7664 387.764 63.5793C380.676 60.8907 375.756 55.4163 369.612 51.1055C365.847 48.4639 363.416 47.446 359.159 45.6125C347.695 40.6921 333.401 43.7516 323.217 50.1342C320.05 52.1191 315.572 56.4381 312.458 57.802L312.094 57.6235C312.289 57.0535 312.578 56.4453 312.98 55.9985C320.839 47.2636 330.971 42.4201 342.347 41.1691Z" fill="#283863"/>
<path d="M409.301 14.2856C415.046 14.8134 422.113 21.4286 425.887 25.6023C430.385 30.5788 439.341 46.218 437.637 52.8536C437.095 52.5928 436.515 52.275 436.343 51.6611C432.163 36.3824 424.925 24.256 410.833 16.3104C409.821 15.7391 409.5 15.3916 409.301 14.2856Z" fill="#283863"/>
<path d="M446.294 65.1294C453.168 67.1795 466.497 90.2777 463.322 95.3072C461.622 94.7841 460.995 91.1407 460.556 89.5071C458.065 80.2573 453.236 73.2558 446.365 66.7381C445.841 66.2417 446.133 65.7501 446.294 65.1294Z" fill="#283863"/>
<path d="M449.262 45.8608L449.986 46.1067C452.309 49.5129 437.758 62.9972 434.871 65.3904C434.055 65.0804 434.429 65.3124 433.816 64.5335C434.166 63.1158 439.487 58.2592 441.211 56.2393C444.013 52.9582 446.572 48.7732 449.262 45.8608Z" fill="#283863"/>
<path d="M452.008 56.6465C457.963 56.7348 468.366 73.1201 467.717 79.0025L466.784 78.7667C466.057 78.1592 465.654 75.8682 464.802 74.2649C462.439 69.8176 461.035 66.5087 457.535 62.7071C455.433 60.4221 452.457 59.3272 452.008 56.6465Z" fill="#283863"/>
<path d="M319.71 77.7163C320.481 78.172 320.21 77.8481 320.48 78.7749C319.177 80.4256 314.412 81.5597 312.461 82.8847C309.339 85.0054 306.267 87.5368 303.315 89.883C302.954 89.676 302.906 89.4936 302.625 89.1106L302.787 88.2437C305.914 83.794 314.479 79.2922 319.71 77.7163Z" fill="#283863"/>
<path d="M317.041 91.5439L317.893 91.7353L318.003 92.399C316.892 93.7715 307.844 99.2937 305.635 100.698C305.032 100.902 305.353 100.846 304.59 100.587L304.632 99.8292C307.09 96.1793 313.083 93.4074 317.041 91.5439Z" fill="#283863"/>
<path d="M312.961 285.233C316.598 275.805 324.277 263.203 329.37 254.387L329.483 254.652C331.549 259.595 333.76 266.744 338.24 270.643L338.768 270.759C340.845 277.697 366.344 297.05 372.858 302.111L378.782 318.55C379.772 321.368 382.125 328.531 383.429 330.792L383.522 331.551C384.306 333.397 384.58 334.171 385.061 336.11C383.732 338.214 383.714 340.796 382.887 342.603L382.549 343.193C381.854 345.184 379.345 352.272 379.192 354.246L378.579 355.226C377.424 359.747 376.939 361.496 377.107 366.189C376.772 369.452 376.635 375.378 376.746 378.78C376.375 382.343 376.437 386.301 376.416 389.914L376.375 391.176C376.384 394.878 376.438 398.686 376.341 402.378L376.367 403.5C376.388 407.123 376.383 410.743 376.352 414.367L376.368 414.88C376.25 418.753 376.241 422.629 376.34 426.499L376.367 426.958C376.313 429.655 376.031 436.215 376.343 438.659L376.122 439.407C376.143 440.804 376.118 442.649 376.22 444H365.362H364.317H352.88H351.863H340.477H339.646H328.185H327.218H315.825H314.803H303.358H302.329H290.891H289.909H278.443H277.585H266.194H265.207H253.858H252.887H249.493H247.497H241.421H240.527H228.95H228.086H216.747H215.698H204.297H203.303H191.947H191.064H179.695H178.65L178.615 439.457L175.453 439.357L175.512 438.31C176.318 435.249 177.085 430.361 177.694 427.126C177.574 427.318 179.471 417.855 179.626 417.103L179.84 415.094C179.892 414.506 180.022 414 180.144 413.426C180.871 410.091 181.644 406.767 182.462 403.457L182.686 402.374C182.66 400.589 184.191 392.932 184.692 391.165C184.679 390.72 184.751 390.018 184.782 389.551C185.613 386.07 186.397 382.578 187.135 379.076L187.476 378.107C188.678 374.978 189.331 371.063 190.805 367.315C191.125 366.053 191.561 364.66 191.928 363.399C193.251 360.231 194.173 358.122 195.82 355.126L196.159 354.235C198.183 349.76 200.245 346.855 203.119 342.864L204.006 342.04C205.338 339.37 211.693 333.067 214.192 331.475C215.069 330.512 215.194 330.386 216.363 329.82C220.751 326.339 223.088 325.024 228.078 322.324L228.811 321.7C230.417 320.979 232.036 320.289 233.668 319.63C234.431 319.125 235.099 318.838 235.916 318.454L240.601 316.647L241.093 316.806C243.282 314.727 249.889 312.204 252.983 310.885L253.638 310.437C256.017 310.155 258.604 307.924 261.55 307.546C262.35 306.453 264.295 305.753 265.605 305.577C269.296 303.693 273.757 301.828 277.597 300.21L278.206 299.763C280.431 299.517 286.84 296.134 289.824 295.175L291.123 294.46C294.042 293.018 298.991 291.342 302.31 289.86L303.269 289.469C304.914 288.493 310.405 286.529 312.404 285.843L312.961 285.233Z" fill="#ACCEF4"/>
<path d="M312.959 285.233C316.597 275.805 324.275 263.203 329.368 254.387L329.482 254.652C331.548 259.595 333.759 266.744 338.238 270.643L338.766 270.759C340.844 277.697 366.343 297.05 372.857 302.111L378.78 318.55C379.771 321.368 382.123 328.531 383.427 330.792C377.746 330.562 371.058 330.731 365.306 330.744C365.34 329.662 365.604 326.417 364.72 325.755C364.137 327.198 364.328 329.145 364.367 330.745C360.81 330.731 357.253 330.738 353.697 330.765L353.078 331.497L352.664 332.06L351.866 333.453C349.288 336.533 348.051 339.072 345.842 342.308L345.212 342.943C344.492 343.684 344.37 343.739 343.401 344.106C342.113 343.589 342.429 343.635 341.488 342.386C340.421 341.993 340.3 340.867 339.937 339.869C337.932 337.998 335.303 333.614 334.123 331.222L333.599 330.794C331.907 327.904 330.097 324.428 328.189 321.763L327.502 319.966L327.119 319.438L326.682 318.687C324.833 315.772 322.182 310.348 320.872 307.2L320.642 306.819C318.845 303.366 317.613 299.384 315.833 296.156C315.889 295.325 315.495 293.988 315.29 293.129C314.303 291.124 313.606 288.374 312.402 285.843L312.959 285.233Z" fill="#283863"/>
<path d="M312.959 285.232L313.924 285.329C315.313 287.039 317.811 295.026 318.972 297.563C321.188 302.403 323.471 307.258 325.772 312.064C330.804 322.579 336.913 331.397 343.402 340.98C347.414 336.221 366.995 306.22 369.769 304.823L370.47 304.923C371.148 307.339 368.813 308.627 367.666 310.616C363.67 317.542 357.733 323.98 353.697 330.765L353.078 331.497L352.664 332.059L351.866 333.453C349.288 336.533 348.051 339.072 345.842 342.308L345.212 342.943C344.492 343.684 344.37 343.739 343.401 344.106C342.113 343.588 342.429 343.634 341.488 342.386C340.421 341.993 340.3 340.867 339.937 339.869C337.932 337.998 335.303 333.614 334.123 331.221L333.599 330.794C331.907 327.904 330.097 324.428 328.189 321.763L327.502 319.965L327.119 319.437L326.682 318.687C324.833 315.772 322.182 310.348 320.872 307.2L320.642 306.819C318.845 303.366 317.613 299.384 315.833 296.156C315.889 295.325 315.495 293.988 315.29 293.129C314.303 291.124 313.606 288.374 312.402 285.843L312.959 285.232Z" fill="#192033"/>
<path d="M369.417 314.134C371.994 313.717 374.437 315.424 374.931 317.987C375.424 320.551 373.79 323.043 371.241 323.612C369.524 323.995 367.734 323.414 366.569 322.096C365.405 320.778 365.049 318.931 365.641 317.275C366.233 315.618 367.68 314.415 369.417 314.134Z" fill="#192033"/>
<path d="M369.517 315.929C371.174 315.58 372.803 316.628 373.17 318.28C373.537 319.932 372.507 321.572 370.858 321.957C369.776 322.21 368.641 321.862 367.887 321.046C367.132 320.23 366.875 319.072 367.212 318.013C367.549 316.954 368.43 316.158 369.517 315.929Z" fill="#7398C1"/>
<path d="M365.346 343.225C371.079 343.178 376.813 343.167 382.547 343.193C381.852 345.184 379.343 352.272 379.19 354.246L378.577 355.226C377.422 359.747 376.937 361.496 377.105 366.189L376.689 366.392C374.702 366.089 367.758 366.221 365.393 366.217C365.203 363.135 365.353 358.382 365.352 355.172L365.133 354.313C365.488 351.695 365.349 346.081 365.346 343.225Z" fill="#283863"/>
<path d="M365.352 355.172C369.636 355.193 374.326 355.304 378.577 355.225C377.422 359.747 376.938 361.496 377.105 366.188L376.689 366.392C374.702 366.089 367.758 366.221 365.393 366.217C365.203 363.135 365.354 358.382 365.352 355.172Z" fill="#283863"/>
<path d="M365.133 354.313C369.818 354.217 374.505 354.196 379.19 354.246L378.577 355.226C374.325 355.304 369.636 355.193 365.352 355.172L365.133 354.313Z" fill="#9FBFE5"/>
<path d="M383.523 331.551C384.307 333.397 384.581 334.171 385.062 336.11C383.733 338.213 383.715 340.796 382.889 342.603C380.95 341.873 368.045 342.296 365.301 342.333L365.33 331.612C371.394 331.682 377.461 331.661 383.523 331.551Z" fill="#283863"/>
<path d="M364.541 343.454L365.348 343.225C365.35 346.081 365.49 351.695 365.134 354.314L365.354 355.172C365.355 358.382 365.204 363.135 365.394 366.217L364.895 365.879L364.269 366.203C360.815 366.392 356.396 366.26 352.87 366.249L352.863 355.194C356.632 355.229 360.529 355.129 364.309 355.083L364.475 354.338C364.245 352.129 364.118 345.446 364.541 343.454Z" fill="#283863"/>
<path d="M364.54 343.454L365.347 343.225C365.349 346.081 365.489 351.695 365.133 354.314L365.353 355.172C365.354 358.382 365.204 363.135 365.393 366.217L364.894 365.879L364.268 366.203C364.477 363.317 364.309 358.14 364.308 355.083L364.475 354.338C364.244 352.129 364.117 345.446 364.54 343.454Z" fill="#9FBFE5"/>
<path d="M376.375 391.176C376.383 394.877 376.438 398.686 376.341 402.377C372.699 402.385 368.968 402.434 365.338 402.263L364.578 402.124C364.088 400.55 364.313 393.278 364.343 391.176L365.135 390.93C367.912 391.332 373.371 391.179 376.375 391.176Z" fill="#283863"/>
<path d="M364.343 391.176L365.135 390.93C365.479 394.197 365.375 398.879 365.338 402.263L364.578 402.124C364.088 400.55 364.313 393.278 364.343 391.176Z" fill="#9FBFE5"/>
<path d="M365.308 415.001C367.477 415.193 374.473 415.311 376.367 414.88C376.249 418.753 376.24 422.629 376.339 426.499C375.037 425.943 366.823 426.26 365.169 426.556C364.981 426.744 364.825 426.744 364.525 426.848C364.652 426.007 364.637 425.693 364.444 424.863C364.207 422.02 364.311 418.111 364.315 415.176L365.308 415.001Z" fill="#283863"/>
<path d="M364.315 415.176L365.308 415.001C365.345 418.56 365.49 423.089 365.169 426.556C364.981 426.744 364.825 426.744 364.525 426.848C364.652 426.007 364.637 425.693 364.444 424.863C364.207 422.02 364.311 418.111 364.315 415.176Z" fill="#9FBFE5"/>
<path d="M352.859 391.197C356.688 391.168 360.516 391.161 364.345 391.176C364.315 393.278 364.09 400.55 364.58 402.124C362.442 402.581 355.416 402.377 352.866 402.353L352.859 391.197Z" fill="#283863"/>
<path d="M352.847 415.094C356.67 415.101 360.493 415.126 364.316 415.176C364.312 418.112 364.209 422.02 364.445 424.863C364.393 425.462 364.353 425.384 364.106 425.964C362.243 426.666 355.038 426.331 352.84 426.278L352.847 415.094Z" fill="#283863"/>
<path d="M179.838 415.094L191.047 415.112L191.072 426.264L179.683 426.235L179.625 417.103L179.838 415.094Z" fill="#283863"/>
<path d="M352.836 343.161C355.771 343.166 362.036 342.981 364.539 343.454C364.116 345.446 364.242 352.129 364.473 354.338C360.806 354.196 356.586 354.274 352.874 354.249L352.836 343.161Z" fill="#283863"/>
<path d="M327.118 319.438L327.501 319.966C326.976 321.69 327.223 328.508 327.257 330.744L315.793 330.736L315.814 319.654C318.545 319.674 324.764 319.868 327.118 319.438Z" fill="#283863"/>
<path d="M376.692 366.392L377.109 366.188C376.774 369.452 376.637 375.377 376.748 378.78C375.321 377.561 367.778 378.046 365.324 378.06L365.33 367.09C368.543 367.111 371.876 367.218 375.075 367.101C376.282 367.054 376.082 367.104 376.692 366.392Z" fill="#283863"/>
<path d="M365.305 427.179C367.543 427.215 374.592 427.478 376.365 426.958C376.311 429.655 376.029 436.215 376.342 438.659C372.845 438.534 368.849 438.62 365.313 438.609L365.305 427.179Z" fill="#283863"/>
<path d="M341.491 342.386C342.432 343.635 342.117 343.589 343.404 344.106C344.374 343.739 344.495 343.684 345.215 342.943C346.692 343.333 350.225 343.17 351.902 343.152L351.865 354.239L340.519 354.253C340.473 350.996 339.545 344.962 341.491 342.386Z" fill="#283863"/>
<path d="M233.666 319.63L240.5 319.646L240.541 330.746L228.966 330.714C228.943 328.159 229.021 324.13 228.809 321.7C230.414 320.979 232.034 320.289 233.666 319.63Z" fill="#283863"/>
<path d="M353.077 331.497C356.022 331.875 361.181 331.682 364.319 331.621L364.34 342.297L352.861 342.318C352.876 339.981 353.045 334.069 352.664 332.06L353.077 331.497Z" fill="#283863"/>
<path d="M365.322 379.161C368.071 379.179 374.351 379.4 376.744 378.78C376.373 382.343 376.436 386.301 376.415 389.914L365.285 389.935L365.322 379.161Z" fill="#283863"/>
<path d="M365.305 403.461L376.365 403.5C376.386 407.124 376.381 410.744 376.35 414.367C375.184 413.954 367.113 414.121 365.328 414.132L365.305 403.461Z" fill="#283863"/>
<path d="M261.55 307.546C262.586 307.569 264.244 307.449 265.029 307.976C265.386 310.919 265.244 315.668 265.237 318.767C261.611 318.775 257.41 318.886 253.83 318.746C253.829 316.473 253.923 312.534 253.637 310.437C256.016 310.156 258.603 307.924 261.55 307.546Z" fill="#283863"/>
<path d="M195.818 355.126L203.317 355.122L203.336 366.274C200.551 366.295 194.603 366.83 192.443 365.761C191.871 364.881 191.964 364.5 191.926 363.399C193.249 360.231 194.171 358.122 195.818 355.126Z" fill="#283863"/>
<path d="M241.41 403.514L252.891 403.482C252.897 406.984 252.847 410.658 252.946 414.142C251.934 414.156 248.949 414.135 248.134 414.331C247.987 411.866 248.032 409.535 247.094 407.255L246.673 407.366C245.796 409.924 245.999 411.488 245.957 414.178L241.432 414.121L241.41 403.514Z" fill="#283863"/>
<path d="M289.825 295.175L289.883 306.808L278.415 306.811C278.415 304.849 278.515 301.599 278.207 299.763C280.432 299.517 286.841 296.134 289.825 295.175Z" fill="#283863"/>
<path d="M182.462 403.457L191.062 403.443L191.039 414.121C187.858 414.182 183.868 414.367 180.77 414.089C180.582 413.904 180.268 413.629 180.145 413.426C180.872 410.091 181.645 406.767 182.462 403.457Z" fill="#283863"/>
<path d="M334.123 331.222C335.303 333.614 337.932 337.998 339.937 339.869C339.79 340.766 339.751 340.931 339.456 341.788C337.529 342.89 330.763 342.348 328.129 342.32L328.143 331.625C329.716 331.641 333.045 331.935 334.123 331.222Z" fill="#283863"/>
<path d="M320.87 307.2C322.181 310.348 324.832 315.772 326.681 318.687L315.811 318.706L315.801 307.605C317.381 307.63 319.492 307.823 320.87 307.2Z" fill="#283863"/>
<path d="M184.694 391.165L191.03 391.204L191.08 402.374H182.688C182.662 400.589 184.192 392.932 184.694 391.165Z" fill="#283863"/>
<path d="M303.266 289.469C304.911 288.493 310.402 286.529 312.401 285.843C313.604 288.374 314.301 291.124 315.289 293.129L314.815 294.198C313.534 295.22 305.394 294.772 303.311 294.742L303.266 289.469Z" fill="#283863"/>
<path d="M245.957 414.178C245.999 411.488 245.796 409.924 246.673 407.366L247.094 407.255C248.033 409.536 247.987 411.866 248.134 414.331L248.131 414.919C248.23 417.634 248.362 424.097 249.007 426.395L248.89 427.226C248.89 430.065 249.095 435.855 249.516 438.62L249.566 439.4L249.492 444H247.496C247.238 442.543 247.121 440.9 246.982 439.415L246.898 438.62C247.099 435.513 246.553 430.621 246.616 427.087L246.331 426.303C246.343 422.768 246.495 417.78 246.024 414.413L245.957 414.178Z" fill="#192033"/>
<path d="M214.194 331.475C214.786 331.635 215.356 331.641 215.486 332.088C216.234 334.65 215.705 339.676 215.72 342.276C212.529 342.276 206.997 342.431 204.008 342.04C205.34 339.37 211.695 333.067 214.194 331.475Z" fill="#283863"/>
<path d="M241.398 427.197C243.293 427.229 244.732 427.211 246.62 427.086C246.556 430.621 247.103 435.513 246.901 438.62L241.425 438.605L241.398 427.197Z" fill="#283863"/>
<path d="M252.984 310.886L252.926 318.712C250.543 318.749 243.209 319.259 241.525 318.168L241.094 316.806C243.283 314.727 249.89 312.204 252.984 310.886Z" fill="#283863"/>
<path d="M302.528 439.689L303.369 439.45L314.808 439.421L314.802 444H303.358H302.328C302.299 442.261 302.284 441.402 302.528 439.689Z" fill="#283863"/>
<path d="M302.528 439.688L303.369 439.45L303.358 444H302.328C302.299 442.261 302.284 441.402 302.528 439.688Z" fill="#9FBFE5"/>
<path d="M228.075 322.324L228.03 330.719C225.766 330.748 217.445 331.366 216.359 329.82C220.748 326.339 223.084 325.024 228.075 322.324Z" fill="#283863"/>
<path d="M178.613 439.457L179.237 440.038L179.71 439.414C183.149 439.407 187.67 439.532 191.019 439.35L191.062 444H179.694H178.649L178.613 439.457Z" fill="#283863"/>
<path d="M178.613 439.457L179.237 440.038L179.71 439.414L179.694 444H178.649L178.613 439.457Z" fill="#9FBFE5"/>
<path d="M215.773 439.603L216.769 439.475C220.479 439.454 224.343 439.489 228.036 439.336C228.057 440.861 228.107 442.482 228.087 444H216.749H215.699L215.773 439.603Z" fill="#283863"/>
<path d="M215.773 439.603L216.769 439.475L216.749 444H215.699L215.773 439.603Z" fill="#9FBFE5"/>
<path d="M187.134 379.076C189.06 379.101 189.241 378.787 190.602 379.681C191.802 382.104 190.99 386.49 191.037 389.878C189.452 389.907 186.063 390.171 184.781 389.551C185.612 386.07 186.396 382.578 187.134 379.076Z" fill="#283863"/>
<path d="M246.026 414.413C246.497 417.78 246.345 422.768 246.332 426.303L241.4 426.281L241.383 415.101C243.031 415.151 244.92 415.446 246.026 414.413Z" fill="#283863"/>
<path d="M364.227 439.489L364.888 439.813L365.364 439.461L376.12 439.407C376.142 440.804 376.116 442.65 376.219 444H365.36H364.315C364.304 442.496 364.275 440.993 364.227 439.489Z" fill="#283863"/>
<path d="M364.227 439.489L364.888 439.813L365.364 439.46L365.36 444H364.315C364.304 442.496 364.275 440.992 364.227 439.489Z" fill="#9FBFE5"/>
<path d="M278.438 439.41L289.947 439.403L289.908 444H278.442L278.438 439.41Z" fill="#283863"/>
<path d="M266.105 439.378L277.592 439.425L277.584 444H266.193L266.105 439.378Z" fill="#283863"/>
<path d="M315.82 439.4L327.237 439.403L327.217 444H315.824L315.82 439.4Z" fill="#283863"/>
<path d="M364.227 439.489C364.276 440.993 364.305 442.496 364.316 444H352.879L352.848 439.418L364.227 439.489Z" fill="#283863"/>
<path d="M340.477 439.364L351.864 439.439L351.865 444H340.478L340.477 439.364Z" fill="#283863"/>
<path d="M228.941 439.375C232.788 439.404 236.668 439.457 240.511 439.436L240.528 444H228.951L228.941 439.375Z" fill="#283863"/>
<path d="M328.164 439.382C331.506 439.403 336.524 439.599 339.665 439.186L339.646 444H328.185L328.164 439.382Z" fill="#283863"/>
<path d="M191.785 439.61C193.513 439.329 201.822 439.254 203.483 439.603C203.406 441.06 203.304 442.546 203.305 444H191.949C191.91 442.542 191.84 441.067 191.785 439.61Z" fill="#283863"/>
<path d="M290.863 439.389C293.822 439.407 300.013 439.225 302.531 439.689C302.287 441.402 302.302 442.261 302.331 444H290.894L290.863 439.389Z" fill="#283863"/>
<path d="M204.289 439.407C207.1 439.4 213.255 439.24 215.773 439.603L215.699 444H204.298L204.289 439.407Z" fill="#283863"/>
<path d="M253.82 439.386C257.59 439.4 261.48 439.464 265.239 439.393L265.207 444H253.858L253.82 439.386Z" fill="#283863"/>
<path d="M248.133 414.919C249.898 415.197 251.092 415.137 252.883 415.105L252.97 426.257C252.095 426.275 249.753 426.275 249.008 426.396C248.363 424.098 248.231 417.634 248.133 414.919Z" fill="#283863"/>
<path d="M277.598 300.21L277.596 306.806C275.372 306.843 268.302 307.096 266.371 306.525L265.605 305.576C269.297 303.692 273.758 301.828 277.598 300.21Z" fill="#283863"/>
<path d="M203.117 342.863C203.403 346.478 203.316 350.615 203.321 354.281C201.119 354.27 198.31 354.335 196.156 354.235C198.181 349.76 200.243 346.854 203.117 342.863Z" fill="#283863"/>
<path d="M248.887 427.226L252.96 427.233C252.928 430.343 253.604 436.115 252.4 438.235C251.476 438.859 250.672 438.666 249.513 438.62C249.092 435.855 248.887 430.065 248.887 427.226Z" fill="#283863"/>
<path d="M345.844 342.309C348.053 339.072 349.29 336.533 351.868 333.454L351.889 342.31L345.844 342.309Z" fill="#283863"/>
<path d="M302.308 289.86C302.329 291.45 302.383 293.156 302.356 294.735C299.575 294.738 293.61 294.887 291.121 294.46C294.04 293.017 298.989 291.342 302.308 289.86Z" fill="#283863"/>
<path d="M241.429 439.414H246.981C247.12 440.9 247.237 442.542 247.495 444H241.418L241.429 439.414Z" fill="#283863"/>
<path d="M315.831 296.156C317.612 299.384 318.844 303.366 320.641 306.819L315.789 306.803L315.831 296.156Z" fill="#283863"/>
<path d="M328.189 321.763C330.096 324.428 331.907 327.904 333.598 330.794C331.938 330.709 329.824 330.755 328.125 330.741L328.189 321.763Z" fill="#283863"/>
<path d="M177.693 427.125L178.397 427.421C179.005 429.915 179.262 435.484 178.306 438.003C177.935 438.983 176.317 438.53 175.512 438.31C176.318 435.249 177.084 430.361 177.693 427.125Z" fill="#283863"/>
<path d="M190.802 367.315C191.106 369.748 191.252 375.303 190.908 377.672C190.084 378.289 188.606 378.1 187.473 378.107C188.674 374.979 189.328 371.063 190.802 367.315Z" fill="#283863"/>
<path d="M249.566 439.4C251.369 439.422 251.493 439.119 252.705 439.984C253.13 441.26 252.945 442.625 252.886 444H249.492L249.566 439.4Z" fill="#283863"/>
<path d="M240.599 316.647L240.392 318.204C238.936 319.222 238.299 318.88 236.399 318.542L235.914 318.454L240.599 316.647Z" fill="#283863"/>
<path d="M290.855 427.186L302.374 427.197L302.354 438.591L290.859 438.62L290.855 427.186Z" fill="#283863"/>
<path d="M303.301 427.193L314.833 427.208L314.858 438.588L303.334 438.595L303.301 427.193Z" fill="#283863"/>
<path d="M352.824 427.193H364.357L364.363 438.588L352.867 438.591L352.824 427.193Z" fill="#283863"/>
<path d="M328.188 427.222L339.603 427.232L339.659 438.602L328.102 438.62L328.188 427.222Z" fill="#283863"/>
<path d="M204.254 427.186L215.724 427.222L215.73 438.584L204.287 438.602L204.254 427.186Z" fill="#283863"/>
<path d="M315.801 427.183L327.199 427.229L327.242 438.606L315.801 438.602L315.801 427.183Z" fill="#283863"/>
<path d="M228.958 427.211L240.506 427.225L240.512 438.584L228.945 438.616C228.991 434.839 228.954 430.991 228.958 427.211Z" fill="#283863"/>
<path d="M179.66 427.222H191.044L191.062 438.595L179.641 438.612L179.66 427.222Z" fill="#283863"/>
<path d="M253.812 427.211L265.202 427.218L265.227 438.591L253.82 438.612L253.812 427.211Z" fill="#283863"/>
<path d="M278.418 427.212L289.908 427.208C289.856 430.967 289.916 434.833 289.929 438.602L278.441 438.588L278.418 427.212Z" fill="#283863"/>
<path d="M266.139 427.19L277.591 427.194L277.6 438.57L266.121 438.616C266.241 434.854 266.164 430.963 266.139 427.19Z" fill="#283863"/>
<path d="M228.938 415.079L240.524 415.097L240.534 426.245L228.96 426.249L228.938 415.079Z" fill="#283863"/>
<path d="M290.865 391.136L302.342 391.186L302.389 402.377L290.855 402.384L290.865 391.136Z" fill="#283863"/>
<path d="M328.139 391.168L339.606 391.147L339.653 402.37H328.129L328.139 391.168Z" fill="#283863"/>
<path d="M191.918 427.197L203.349 427.19L203.294 438.595L191.924 438.602C192.008 434.886 191.929 430.931 191.918 427.197Z" fill="#283863"/>
<path d="M303.326 391.194L314.812 391.165L314.813 402.338L303.309 402.374L303.326 391.194Z" fill="#283863"/>
<path d="M290.888 415.119L302.369 415.094L302.379 426.253L290.852 426.281L290.888 415.119Z" fill="#283863"/>
<path d="M228.961 355.204L240.536 355.122L240.509 366.214L228.918 366.274L228.961 355.204Z" fill="#283863"/>
<path d="M228.958 391.225C232.67 391.104 236.76 391.172 240.502 391.158L240.513 402.317C236.883 402.452 232.619 402.356 228.938 402.367L228.958 391.225Z" fill="#283863"/>
<path d="M241.387 391.186C245.166 391.104 249.151 391.158 252.948 391.147L252.928 402.228C250.025 402.527 244.538 402.356 241.437 402.349L241.387 391.186Z" fill="#283863"/>
<path d="M216.703 427.211L228.067 427.186C228.008 430.941 228.072 434.832 228.084 438.598C224.676 438.609 220.005 438.751 216.71 438.459L216.703 427.211Z" fill="#283863"/>
<path d="M278.41 415.076L289.853 415.115L289.942 426.288L278.43 426.253L278.41 415.076Z" fill="#283863"/>
<path d="M204.258 391.151L215.711 391.19L215.746 402.381L204.303 402.353L204.258 391.151Z" fill="#283863"/>
<path d="M241.435 343.193L252.926 343.194L252.995 354.278L241.383 354.295L241.435 343.193Z" fill="#283863"/>
<path d="M228.926 343.164L240.453 343.193L240.536 354.274L228.965 354.253L228.926 343.164Z" fill="#283863"/>
<path d="M340.511 427.232L351.887 427.211L351.844 438.58L340.465 438.609C340.536 434.861 340.498 430.991 340.511 427.232Z" fill="#283863"/>
<path d="M303.293 343.162L314.797 343.194L314.876 354.278L303.338 354.26L303.293 343.162Z" fill="#283863"/>
<path d="M191.953 391.197L203.354 391.136L203.305 402.345L191.902 402.395L191.953 391.197Z" fill="#283863"/>
<path d="M303.297 415.083L314.85 415.087C314.802 418.774 314.847 422.551 314.848 426.246L303.329 426.26L303.297 415.083Z" fill="#283863"/>
<path d="M266.148 415.108L277.612 415.083L277.616 426.231C273.929 426.363 269.875 426.278 266.158 426.267L266.148 415.108Z" fill="#283863"/>
<path d="M204.27 355.129L215.727 355.151L215.739 366.264L204.272 366.281L204.27 355.129Z" fill="#283863"/>
<path d="M253.805 391.176L265.2 391.162L265.235 402.371L253.845 402.36L253.805 391.176Z" fill="#283863"/>
<path d="M241.375 355.136C245.243 355.151 249.11 355.143 252.978 355.111L252.923 366.21C249.57 366.381 244.887 366.235 241.43 366.235L241.375 355.136Z" fill="#283863"/>
<path d="M278.406 391.154L289.898 391.144C289.846 394.86 289.905 398.676 289.92 402.399L278.453 402.353L278.406 391.154Z" fill="#283863"/>
<path d="M290.864 319.634L302.373 319.635L302.333 330.711L290.84 330.724L290.864 319.634Z" fill="#283863"/>
<path d="M290.86 343.176L302.365 343.164L302.348 354.246L290.855 354.263L290.86 343.176Z" fill="#283863"/>
<path d="M303.293 319.629L314.802 319.661L314.841 330.74L303.345 330.711L303.293 319.629Z" fill="#283863"/>
<path d="M328.172 343.174L339.651 343.153L339.627 354.221L328.121 354.285L328.172 343.174Z" fill="#283863"/>
<path d="M315.801 391.168L327.223 391.147L327.234 402.367C323.448 402.395 319.605 402.349 315.814 402.338L315.801 391.168Z" fill="#283863"/>
<path d="M315.789 415.083L327.221 415.104L327.211 426.228L315.802 426.267L315.789 415.083Z" fill="#283863"/>
<path d="M228.925 367.076L240.485 367.122L240.527 378.096L228.922 378.085L228.925 367.076Z" fill="#283863"/>
<path d="M303.355 307.63L314.812 307.583C314.84 311.28 314.908 315.024 314.735 318.713C311.015 318.816 307.048 318.757 303.309 318.766L303.355 307.63Z" fill="#283863"/>
<path d="M328.161 415.101L339.652 415.083L339.63 426.242L328.169 426.235C328.145 422.526 328.142 418.813 328.161 415.101Z" fill="#283863"/>
<path d="M278.445 343.19L289.872 343.187L289.921 354.278L278.418 354.292L278.445 343.19Z" fill="#283863"/>
<path d="M290.875 307.606L302.306 307.62C302.343 311.304 302.423 315.061 302.278 318.736C298.507 318.829 294.622 318.759 290.84 318.734L290.875 307.606Z" fill="#283863"/>
<path d="M303.333 355.19C307.175 355.183 311.017 355.154 314.858 355.108L314.823 366.224L303.305 366.288L303.333 355.19Z" fill="#283863"/>
<path d="M328.141 355.108C331.968 355.197 335.795 355.218 339.622 355.179L339.664 366.271L328.121 366.253L328.141 355.108Z" fill="#283863"/>
<path d="M290.86 355.14C294.626 355.258 298.561 355.186 302.342 355.172L302.404 366.271H290.855L290.86 355.14Z" fill="#283863"/>
<path d="M266.158 391.179L277.615 391.151L277.582 402.335L266.09 402.396C266.227 398.708 266.166 394.881 266.158 391.179Z" fill="#283863"/>
<path d="M266.121 343.158L277.574 343.187L277.635 354.26L266.169 354.249L266.121 343.158Z" fill="#283863"/>
<path d="M315.814 343.186L327.207 343.189L327.243 354.299H315.789L315.814 343.186Z" fill="#283863"/>
<path d="M278.43 307.59L289.886 307.583C289.903 311.222 289.986 315.091 289.796 318.705L278.444 318.768L278.43 307.59Z" fill="#283863"/>
<path d="M278.414 355.111C282.203 355.19 286.118 355.136 289.919 355.133L289.885 366.256L278.455 366.242L278.414 355.111Z" fill="#283863"/>
<path d="M266.098 319.626L277.592 319.668L277.613 330.717L266.197 330.707L266.098 319.626Z" fill="#283863"/>
<path d="M204.314 343.203L215.722 343.184L215.725 354.267L204.277 354.292L204.314 343.203Z" fill="#283863"/>
<path d="M253.839 415.119L265.201 415.115L265.211 426.232L253.824 426.274L253.839 415.119Z" fill="#283863"/>
<path d="M303.293 367.069L314.798 367.108L314.85 378.089L303.341 378.071L303.293 367.069Z" fill="#283863"/>
<path d="M241.428 319.659L252.93 319.668C252.914 323.347 252.932 327.026 252.985 330.705C249.406 330.846 245.037 330.736 241.395 330.744L241.428 319.659Z" fill="#283863"/>
<path d="M315.793 355.101C319.605 355.136 323.418 355.143 327.229 355.129L327.225 366.245L315.809 366.242L315.793 355.101Z" fill="#283863"/>
<path d="M253.823 319.644L265.241 319.629L265.199 330.71L253.816 330.739L253.823 319.644Z" fill="#283863"/>
<path d="M216.719 391.187L228.026 391.194L228.08 402.353C224.429 402.46 220.372 402.381 216.688 402.392L216.719 391.187Z" fill="#283863"/>
<path d="M241.437 367.104H252.927L252.937 377.825C251.541 378.306 243.42 378.103 241.391 378.085L241.437 367.104Z" fill="#283863"/>
<path d="M266.165 355.165C269.986 355.215 273.809 355.193 277.63 355.108L277.575 366.214L266.129 366.288L266.165 355.165Z" fill="#283863"/>
<path d="M290.876 367.076L302.381 367.083L302.352 378.064H290.875L290.876 367.076Z" fill="#283863"/>
<path d="M253.836 343.19L265.231 343.163L265.2 354.235L253.816 354.274L253.836 343.19Z" fill="#283863"/>
<path d="M204.282 415.108L215.705 415.122L215.712 426.228L204.27 426.299C204.313 422.586 204.281 418.824 204.282 415.108Z" fill="#283863"/>
<path d="M191.932 415.115L203.31 415.119C203.283 418.806 203.341 422.562 203.36 426.257L191.91 426.278L191.932 415.115Z" fill="#283863"/>
<path d="M340.449 415.086L351.869 415.104L351.88 426.253L340.49 426.246C340.532 422.572 340.465 418.774 340.449 415.086Z" fill="#283863"/>
<path d="M340.481 355.204L351.866 355.186L351.881 366.228L340.465 366.285L340.481 355.204Z" fill="#283863"/>
<path d="M303.328 295.501C307.01 295.691 311.082 295.609 314.799 295.606L314.811 306.807L303.351 306.776L303.328 295.501Z" fill="#283863"/>
<path d="M328.18 367.104L339.656 367.083L339.665 378.075L328.156 378.06L328.18 367.104Z" fill="#283863"/>
<path d="M216.719 415.118L228.081 415.079L228.08 426.231C224.587 426.374 220.276 426.245 216.721 426.235L216.719 415.118Z" fill="#283863"/>
<path d="M290.911 295.548C294.663 295.681 298.589 295.591 302.358 295.557L302.323 306.782L290.863 306.791L290.911 295.548Z" fill="#283863"/>
<path d="M204.27 367.065L215.745 367.079L215.738 378.078L204.308 378.06L204.27 367.065Z" fill="#283863"/>
<path d="M352.859 367.086L364.333 367.101L364.331 378.071H352.862L352.859 367.086Z" fill="#283863"/>
<path d="M278.438 319.662L289.872 319.662C289.838 323.328 289.902 327.077 289.924 330.75L278.44 330.733L278.438 319.662Z" fill="#283863"/>
<path d="M278.453 367.108L289.883 367.111L289.895 378.082L278.41 378.089L278.453 367.108Z" fill="#283863"/>
<path d="M253.805 355.154C257.604 355.201 261.403 355.208 265.202 355.179L265.23 366.267L253.822 366.274L253.805 355.154Z" fill="#283863"/>
<path d="M266.181 307.627L277.622 307.574L277.555 318.711C273.736 318.761 269.917 318.783 266.098 318.78L266.181 307.627Z" fill="#283863"/>
<path d="M340.465 367.076L351.899 367.104L351.859 378.067L340.465 378.092V367.076Z" fill="#283863"/>
<path d="M216.707 343.179L228.076 343.157L228.046 354.203C224.709 354.384 220.148 354.26 216.716 354.274L216.707 343.179Z" fill="#283863"/>
<path d="M216.68 367.072L228.079 367.065L228.083 378.064L216.701 378.071L216.68 367.072Z" fill="#283863"/>
<path d="M216.708 355.15C220.486 355.204 224.264 355.207 228.042 355.154C228.015 358.831 228.08 362.59 228.102 366.27L216.691 366.285L216.708 355.15Z" fill="#283863"/>
<path d="M266.102 367.065L277.579 367.111L277.635 378.092L266.166 378.057C266.185 374.419 266.124 370.71 266.102 367.065Z" fill="#283863"/>
<path d="M315.825 367.098L327.206 367.115L327.21 378.061L315.789 378.1L315.825 367.098Z" fill="#283863"/>
<path d="M253.816 367.076L265.231 367.065L265.197 378.06L253.838 378.053L253.816 367.076Z" fill="#283863"/>
<path d="M191.983 367.097L203.335 367.069L203.307 378.071L191.926 378.082L191.983 367.097Z" fill="#283863"/>
<path d="M340.473 391.176L351.852 391.19C351.926 394.846 351.863 398.683 351.86 402.349L340.461 402.381C340.512 398.672 340.473 394.892 340.473 391.176Z" fill="#283863"/>
<path d="M303.316 379.15L314.845 379.101L314.824 389.896H303.324L303.316 379.15Z" fill="#283863"/>
<path d="M241.395 379.126L252.929 379.133L252.954 389.9C249.171 389.982 245.199 389.918 241.4 389.922L241.395 379.126Z" fill="#283863"/>
<path d="M228.971 379.14L240.504 379.119L240.541 389.904C236.76 389.975 232.772 389.897 228.975 389.882C228.952 386.302 228.951 382.721 228.971 379.14Z" fill="#283863"/>
<path d="M278.414 379.13L289.875 379.126L289.935 389.918L278.444 389.911L278.414 379.13Z" fill="#283863"/>
<path d="M352.84 379.151L364.338 379.144L364.374 389.914C360.602 389.993 356.655 389.911 352.869 389.889L352.84 379.151Z" fill="#283863"/>
<path d="M303.331 403.453L314.829 403.475L314.837 414.16L303.32 414.188L303.331 403.453Z" fill="#283863"/>
<path d="M266.176 379.158L277.619 379.097L277.583 389.861L266.141 389.918L266.176 379.158Z" fill="#283863"/>
<path d="M228.954 331.687L240.535 331.633L240.506 342.233L228.91 342.317L228.954 331.687Z" fill="#283863"/>
<path d="M328.22 379.158L339.63 379.108L339.66 389.914L328.151 389.9C328.107 386.319 328.129 382.739 328.22 379.158Z" fill="#283863"/>
<path d="M204.301 379.151L215.721 379.122L215.709 389.871L204.277 389.925L204.301 379.151Z" fill="#283863"/>
<path d="M290.871 403.439L302.349 403.428L302.369 414.146L290.877 414.128L290.871 403.439Z" fill="#283863"/>
<path d="M290.88 379.147L302.346 379.144C302.397 382.692 302.361 386.33 302.367 389.886L290.852 389.921L290.88 379.147Z" fill="#283863"/>
<path d="M315.785 379.122L327.2 379.143L327.232 389.911C323.513 389.996 319.543 389.918 315.803 389.907L315.785 379.122Z" fill="#283863"/>
<path d="M241.375 331.656L252.954 331.603L252.931 342.24C249.519 342.406 244.933 342.272 241.43 342.278L241.375 331.656Z" fill="#283863"/>
<path d="M303.334 331.681L314.847 331.598L314.812 342.25L303.312 342.339L303.334 331.681Z" fill="#283863"/>
<path d="M278.418 331.607L289.913 331.613L289.884 342.278L278.434 342.276L278.418 331.607Z" fill="#283863"/>
<path d="M278.455 403.479L289.906 403.45L289.858 414.118L278.418 414.175L278.455 403.479Z" fill="#283863"/>
<path d="M266.102 403.439L277.573 403.489L277.618 414.131C274.037 414.267 269.803 414.153 266.174 414.142L266.102 403.439Z" fill="#283863"/>
<path d="M290.852 331.618C294.676 331.656 298.501 331.672 302.327 331.665L302.401 342.306L290.859 342.307L290.852 331.618Z" fill="#283863"/>
<path d="M315.819 403.482L327.227 403.439L327.205 414.117L315.797 414.185L315.819 403.482Z" fill="#283863"/>
<path d="M228.947 403.475L240.501 403.489C240.52 407.034 240.491 410.576 240.412 414.118L228.93 414.182L228.947 403.475Z" fill="#283863"/>
<path d="M352.884 403.475L364.34 403.428L364.335 414.113L352.849 414.167C352.836 410.604 352.848 407.037 352.884 403.475Z" fill="#283863"/>
<path d="M204.327 403.496L215.74 403.453L215.715 414.106L204.281 414.17L204.327 403.496Z" fill="#283863"/>
<path d="M315.797 331.59L327.238 331.62L327.232 342.256L315.818 342.263L315.797 331.59Z" fill="#283863"/>
<path d="M253.83 379.158L265.194 379.144L265.223 389.904C261.489 389.982 257.566 389.918 253.816 389.914L253.83 379.158Z" fill="#283863"/>
<path d="M328.125 403.486L339.653 403.45C339.616 406.999 339.657 410.615 339.663 414.171L328.179 414.132L328.125 403.486Z" fill="#283863"/>
<path d="M216.699 403.453L228.07 403.439L228.079 414.171L216.74 414.11L216.699 403.453Z" fill="#283863"/>
<path d="M266.154 331.675C269.959 331.7 273.824 331.635 277.635 331.605L277.616 342.242C273.889 342.35 269.895 342.297 266.146 342.313C266.126 338.767 266.129 335.221 266.154 331.675Z" fill="#283863"/>
<path d="M191.906 403.45L203.286 403.479L203.33 414.132L191.976 414.125L191.906 403.45Z" fill="#283863"/>
<path d="M340.465 403.457L351.864 403.475C351.907 407.006 351.877 410.594 351.882 414.128L340.466 414.171L340.465 403.457Z" fill="#283863"/>
<path d="M253.859 403.507L265.234 403.428L265.204 414.117L253.844 414.131L253.859 403.507Z" fill="#283863"/>
<path d="M340.48 379.126L351.881 379.147L351.854 389.882L340.457 389.922C340.543 386.391 340.482 382.671 340.48 379.126Z" fill="#283863"/>
<path d="M191.902 379.126L203.286 379.147L203.338 389.915C199.627 389.986 195.701 389.904 191.972 389.886L191.902 379.126Z" fill="#283863"/>
<path d="M216.719 379.14L228.065 379.094C228.099 382.657 228.05 386.277 228.036 389.843C224.537 390.003 220.286 389.889 216.731 389.886L216.719 379.14Z" fill="#283863"/>
<path d="M216.703 331.625C220.479 331.662 224.255 331.676 228.031 331.666L228.085 342.273C224.392 342.364 220.436 342.307 216.72 342.322L216.703 331.625Z" fill="#283863"/>
<path d="M253.809 331.625C257.605 331.675 261.401 331.682 265.197 331.648L265.228 342.292C261.593 342.395 257.51 342.287 253.841 342.269L253.809 331.625Z" fill="#283863"/>
<path d="M317.09 187.971C316.574 187.944 316.06 187.909 315.546 187.866C306.585 187.191 299.627 182.498 293.852 175.921C284.466 165.233 279.836 144.537 291.839 134.066C296.014 130.424 300.268 130.757 305.348 131.212C307.419 132.432 310.079 132.58 310.632 135.224C311.812 140.868 311.925 146.747 312.646 152.468C314.379 164.143 315.312 176.39 317.09 187.971Z" fill="#E19970"/>
<path d="M306.196 150.477C308.529 153.259 313.113 163.879 310.595 167.026L309.907 167.218C308.538 165.676 308.873 161.295 307.237 160.107C298.82 153.993 301.469 165.333 300.536 167.209C296.837 166.414 295.162 155.03 306.833 156.456C305.868 154.854 304.847 153.075 303.828 151.524C304.4 150.865 305.325 150.728 306.196 150.477Z" fill="#CA7354"/>
<path d="M303.829 151.524C299.462 147.256 298.439 148.708 293.575 145.811C293.14 145.552 293.214 145.302 293.184 144.878C296.97 141.926 303.869 147.942 306.197 150.477C305.326 150.728 304.401 150.865 303.829 151.524Z" fill="#CA7354"/>
<path d="M453.914 187.919C456.427 170.654 457.92 152.094 460.429 134.801C460.668 133.152 464.403 131.777 465.942 131.145C478.729 129.59 484.745 137.09 486.075 149.218C487.86 165.533 473.797 186.049 456.993 187.707C455.97 187.804 454.944 187.875 453.914 187.919Z" fill="#E19970"/>
<path d="M473.868 144.425C475.386 144.235 475.924 144.209 477.271 144.859L477.353 145.526C472.702 150.487 471.081 144.193 464.26 156.375C467.706 155.971 467.92 155.841 471.188 157.477C472.884 160.314 474.178 165.943 470.115 167.279L469.695 166.864C469.466 165.365 470.482 164.075 470.614 161.688L470.632 161.322C470.475 161.13 470.315 160.94 470.154 160.752C463.946 153.545 462.364 165.361 460.496 167.178L459.912 166.911C459.028 164.696 460.575 157.905 461.526 155.697C464.131 149.643 468.012 146.84 473.868 144.425Z" fill="#CA7354"/>
<path d="M175.452 439.357L178.613 439.457L178.649 444H174.246C174.599 442.115 174.753 441.125 175.452 439.357Z" fill="#283863"/>
</g>
<defs>
<clipPath id="clip0_9359_8844">
<rect width="770.625" height="477" fill="white"/>
</clipPath>
</defs>
</svg>
