<svg width="801" height="495" viewBox="0 0 801 495" fill="none" xmlns="http://www.w3.org/2000/svg">
<path d="M235.366 457.724C224.683 453.259 215.901 448.696 208.634 439.679C199.481 428.325 197.297 417.142 195.798 403.149C195.672 401.979 192.714 396.764 191.94 395.204C187.131 385.488 186.388 375.549 188.848 365.087C190.603 357.371 194.147 350.176 199.195 344.081C204.83 337.229 215.514 329.137 217.322 320.893C220.407 306.835 210.398 294.48 212.388 279.185C215.055 258.684 224.487 248.844 240.276 236.967C250.063 229.605 255.672 222.12 254.778 209.644C254.544 206.379 254.65 200.471 255.004 197.07C257.536 172.755 280.781 163.717 292.204 144.518C297.663 135.343 300.636 126.053 304.104 116.046C312.972 90.4524 322.602 71.7183 344.224 54.7252C362.122 40.4105 385.001 33.8423 407.768 36.4822C415.833 37.4678 424.246 40.8813 429.374 47.4046C446.383 46.6074 452.754 48.8959 465.778 60.0647C484.309 75.9543 488.878 96.2122 497.118 117.808C500.623 127.22 504.858 136.344 509.783 145.097C517.773 159.086 530.562 167.535 535.956 182.725C537.243 186.84 539.331 195.567 538.858 199.698C536.828 217.377 537.728 225.836 553.169 236.822C565.774 245.79 576.698 254.702 582.127 270.193C584.524 277.191 585.326 284.635 584.485 291.984C583.316 301.808 578.341 311.788 582.252 320.66C584.998 326.892 590.571 331.665 595.307 336.509C600.971 342.301 606.376 348.457 609.528 356.078C614.171 367.051 614.796 382.155 610.025 393.221C606.783 400.736 604.064 403.016 604.186 412.22C604.229 415.277 601.643 423.199 600.321 426.346C594.517 440.172 583.996 449.951 570.213 455.694C569.529 460.077 574.84 474.623 575.904 479.709C576.87 484.327 576.475 489.132 576.029 493.793C560.131 493.879 544.232 493.879 528.333 493.789C524.058 493.867 519.643 493.793 515.36 493.777C515.156 492.632 514.871 491.482 514.597 490.344C512.368 481.117 510.717 471.8 508.695 462.521L508.12 462.197C507.608 472.98 507.182 483.005 507.358 493.805L482.987 493.828L479.749 493.809L476.448 493.824L434.939 493.856L424.305 493.852C421.129 493.848 417.953 493.863 414.781 493.902L413.459 493.84L403.138 493.879L401.409 493.84L391.134 493.816L390.008 493.996C387.71 493.715 382.655 493.852 380.139 493.859L370.214 493.824L367.538 493.867C349.426 493.648 331.077 493.922 312.915 493.801L310.7 493.816L307.132 493.824L303.795 493.84L297.939 493.836C297.908 491.717 297.948 490.141 298.099 488.026C296.385 489.097 296.236 489.074 293.967 488.628C292.686 489.797 292.429 492.022 292.005 493.82C284.136 493.836 275.936 493.957 268.095 493.754C264.786 494.028 258.554 493.832 254.97 493.828L229.39 493.797C227.719 476.675 233.409 473.07 235.366 457.724ZM195.144 392.236L195.7 391.915C197.165 379.701 195.643 379.17 200.611 366.503C202.878 360.732 205.671 355.182 208.956 349.924C209.977 348.274 213.483 343.199 213.655 341.81L213.252 341.647C202.094 352.693 193.73 362.883 193.145 379.689C193.027 383.095 193.887 389.034 195.144 392.236ZM606.325 390.662C611.042 373.157 603.99 356.891 591.134 344.83C590.141 343.902 588.388 342.166 587.235 341.611C594.623 355.268 601.757 363.817 604.33 379.857C604.616 381.637 604.933 390.929 605.707 391.493L606.325 390.662ZM243.035 251.347C225.269 260.061 218.264 274.189 220.623 293.591C220.74 294.747 220.724 296.196 221.362 297.072C221.947 295.951 221.757 294.607 221.732 293.283C222.7 277.381 230.047 262.543 242.109 252.131C242.414 251.866 242.723 251.604 243.035 251.347ZM294.574 484.98C295.554 484.976 297.167 485.113 297.912 484.624C298.387 481.926 297.922 474.067 297.006 471.538C296.468 474.458 293.991 483.068 294.574 484.98ZM575.196 287.892C575.642 277.715 572.302 269.384 565.567 261.723C562.63 258.383 553.341 250.538 549.105 250.115C557.792 257.554 566.322 266.619 570.714 277.289C571.387 278.922 574.394 287.216 575.196 287.892Z" fill="#252330"/>
<path d="M502.711 309.98C503.787 310.564 504.757 311.188 505.938 311.449C507.495 313.277 507.366 314.699 507.401 317.021L502.136 317.285C501.174 316.593 495.628 316.647 492.969 316.061C495.108 316.094 499.852 316.272 501.808 316.06C503.568 315.979 504.1 316.03 504.73 314.392C504.604 312.929 503.486 311.304 502.711 309.98Z" fill="#9A5539"/>
<path d="M435.686 241.184C443.806 243.884 439.636 247.287 441.752 250.541L442.269 250.697C439.069 254.377 444.772 268.272 444.639 271.723C445.351 273.303 445.468 273.958 445.843 275.634C447.514 278.173 447.381 288.308 447.361 291.648C446.817 295.899 447.388 299.378 447.083 303.245C444.514 324.701 441.717 346.129 438.694 367.527C433.926 403.288 429.503 436.593 432.518 472.921C432.988 478.582 433.476 488.689 434.939 493.854L424.305 493.851C421.129 493.847 417.953 493.862 414.781 493.901L413.459 493.839L403.138 493.878L401.409 493.839L391.135 493.815L390.008 493.995C387.71 493.714 382.655 493.851 380.139 493.858L370.214 493.823C372.537 483.833 372.7 466.735 372.796 456.315C373.422 452.683 373.206 445.461 373.107 441.59C371.919 395.476 362.808 349.709 357.582 303.95C357.112 299.837 356.999 279.153 358.792 275.659C358.439 273.733 358.828 273.041 359.887 271.538C360.823 267.119 364.715 254.748 363.012 250.669C364.965 248.933 362.386 243.162 366.267 242.264C367.701 242.643 367.917 242.813 369.154 243.652C369.375 243.915 369.811 244.471 370.044 244.676L370.769 245.039C372.653 245.902 374.746 246.957 376.796 247.204L377.712 247.646C380.032 248.338 382.363 248.991 384.705 249.604C386.736 250.024 390.696 250.903 392.625 250.621L393.599 250.937L400.42 250.975L405.958 250.991C408.476 250.471 411.296 250.917 414.179 250.364C421.677 249.991 428.99 247.927 435.577 244.328C435.678 243.55 435.667 242.027 435.686 241.184Z" fill="#2D4C55"/>
<path d="M445.844 275.633C447.514 278.172 447.381 288.307 447.361 291.646C446.818 295.898 447.389 299.377 447.083 303.243C444.514 324.7 441.717 346.128 438.694 367.525C433.926 403.287 429.503 436.592 432.518 472.919C432.988 478.581 433.477 488.688 434.939 493.853L424.305 493.849C421.129 493.845 417.953 493.861 414.781 493.9L413.459 493.837L403.138 493.877L401.409 493.837C401.554 477.682 401.222 460.908 401.214 444.674C401.441 442.433 401.292 438.035 401.272 435.638C401.542 427.775 401.292 418.438 401.292 410.462L401.214 364.058C401.167 357.184 400.963 348.09 401.143 340.989C401.378 340.613 401.577 340.296 401.738 340.04L403.134 340.115C403.846 338.456 406.533 336.101 407.917 334.777C406.67 332.843 405.821 331.325 404.745 329.285C407.069 327.391 409.325 325.767 411.653 323.769L412.865 322.605C415.169 321.243 420.237 315.898 422.107 313.895L422.412 313.581C423.351 312.104 428.506 306.356 430.266 303.901C432.335 301.39 435.108 296.829 437.067 293.999C441.205 286.785 442.277 283.084 445.574 276.392L445.844 275.633Z" fill="#1C3942"/>
<path d="M404.745 329.285C407.069 327.391 409.325 325.767 411.653 323.77C412.822 331.05 412.29 339.712 412.834 347.114C414.519 371.34 415.231 395.624 414.973 419.908C414.946 422.227 414.918 424.561 414.824 426.88C413.89 449.268 413.506 471.434 413.459 493.838L403.138 493.877L401.409 493.838C401.554 477.682 401.222 460.908 401.214 444.674C401.441 442.433 401.292 438.035 401.272 435.638C401.542 427.775 401.292 418.438 401.292 410.462L401.214 364.058C401.167 357.184 400.963 348.09 401.143 340.989C401.378 340.613 401.577 340.297 401.738 340.04L403.134 340.115C403.846 338.456 406.533 336.102 407.917 334.777C406.67 332.843 405.821 331.325 404.745 329.285Z" fill="#2D4C55"/>
<path d="M401.738 340.041L403.134 340.116C403.525 343.137 403.244 352.529 403.224 355.909L403.169 386.023L403.138 493.877L401.409 493.838C401.554 477.682 401.222 460.909 401.214 444.674C401.441 442.434 401.292 438.035 401.272 435.639C401.542 427.776 401.292 418.439 401.292 410.462L401.214 364.059C401.167 357.185 400.963 348.091 401.143 340.99C401.378 340.613 401.577 340.297 401.738 340.041Z" fill="#183843"/>
<path d="M422.103 313.896C421.903 328.66 423.824 341.681 424.735 356.292C425.881 374.69 427.418 393.228 428.337 411.632C428.732 419.628 425.979 428.507 425.619 436.574C424.035 455.74 422.768 474.653 424.301 493.851C421.125 493.847 417.949 493.862 414.777 493.901L413.455 493.839C413.502 471.435 413.886 449.269 414.82 426.881C414.914 424.562 414.942 422.228 414.969 419.909C415.227 395.625 414.515 371.341 412.83 347.115C412.286 339.713 412.818 331.051 411.648 323.771L412.861 322.606C415.165 321.244 420.233 315.9 422.103 313.896Z" fill="#2D4C55"/>
<path d="M412.861 322.605C414.683 324.882 414.66 355.665 415.004 361.278C416.416 384.489 416.166 408.073 416.443 431.33C416.498 435.975 415.892 440.811 415.759 445.472C415.595 453.182 415.384 460.877 415.012 468.584C414.613 476.767 415.172 485.842 414.777 493.9L413.455 493.838C413.502 471.434 413.886 449.268 414.82 426.88C414.914 424.561 414.942 422.227 414.969 419.909C415.227 395.624 414.515 371.34 412.83 347.114C412.286 339.712 412.818 331.051 411.648 323.77L412.861 322.605Z" fill="#183843"/>
<path d="M422.41 313.583C423.349 312.105 428.504 306.357 430.264 303.902C431.285 307.061 431.922 317.691 432.125 321.602C432.634 331.359 435.696 344.206 435.293 353.686C434.789 365.61 432.133 378.069 431.351 390.039C430.929 394.323 430.021 398.53 429.841 402.843C428.273 379.137 426.047 355.571 424.792 331.852C424.487 326.128 423.263 319.6 423.204 314.232L422.41 313.583Z" fill="#2D4C55"/>
<path d="M445.573 276.393C445.577 277.754 440.219 294.357 439.538 294.857L438.999 294.541C438.854 293.907 438.701 293.307 438.611 292.664L437.751 294.172L437.066 294C441.204 286.786 442.276 283.085 445.573 276.393Z" fill="#183843"/>
<path d="M435.686 241.184C443.805 243.884 439.636 247.287 441.752 250.541L442.268 250.697C439.069 254.377 444.771 268.272 444.638 271.723C445.35 273.303 445.467 273.958 445.843 275.634L445.573 276.393C442.276 283.085 441.204 286.786 437.066 294C435.107 296.83 432.334 301.392 430.265 303.902C428.505 306.357 423.35 312.105 422.411 313.583L422.106 313.897C420.237 315.9 415.168 321.245 412.864 322.606L411.652 323.771C409.325 325.768 407.068 327.392 404.745 329.287C404.303 328.846 403.978 328.265 403.638 327.734C402.946 326.692 402.844 326.587 401.694 326.105L400.794 327.437L400.044 329.256C397.536 327.465 395.112 325.563 392.777 323.557L391.681 322.542C388.928 320.401 385.265 316.404 382.87 313.851C382.433 313.208 380.995 311.812 380.388 311.191C379.666 310.023 376.871 306.853 375.872 305.584C372.754 301.622 369.798 297.68 367.362 293.243C367.976 292.602 367.923 292.788 368.961 292.543C368.401 290.989 365.139 286.032 363.869 282.97L362.95 281.183C361.225 277.525 360.536 275.479 359.887 271.538C360.823 267.119 364.715 254.748 363.012 250.669C364.964 248.933 362.385 243.162 366.267 242.264C367.701 242.643 367.917 242.813 369.154 243.652C369.375 243.915 369.81 244.471 370.043 244.676L370.769 245.039C372.653 245.902 374.745 246.957 376.795 247.204L377.712 247.646C380.031 248.338 382.363 248.991 384.705 249.604C386.735 250.024 390.696 250.903 392.624 250.621L393.598 250.937L400.419 250.975L405.957 250.991C408.476 250.471 411.296 250.917 414.178 250.364C421.676 249.991 428.99 247.927 435.576 244.328C435.678 243.55 435.666 242.027 435.686 241.184Z" fill="#183843"/>
<path d="M435.686 241.184C443.805 243.884 439.636 247.287 441.752 250.541L442.268 250.697C439.069 254.377 444.771 268.272 444.638 271.723C444.145 273.915 443.144 279.035 441.83 280.677C438.951 275.51 437.262 265.477 436.288 259.448C435.736 256.037 437.453 250.066 435.341 246.395L434.982 246.788C434.457 250.991 435.056 255.617 434.997 259.849C434.895 267.264 437.391 273.033 439.648 279.866C437.324 281.286 435.173 282.738 432.607 283.655C430.347 274.976 429.181 266.048 429.138 257.079C429.13 254.878 429.529 250.092 428.278 248.557L427.781 248.864C428.114 254.843 428.028 259.296 427.816 265.229C425.337 265.44 422.916 265.25 421.308 267.069C421.203 268.006 421.191 268.513 421.195 269.457C420.608 267.175 420.831 254.861 420.135 250.507L419.81 250.797C419.118 253.804 418.692 264.467 419.02 267.644C412.657 268.734 411.965 267.494 411.777 273.901C411.1 270.195 411.871 256.439 411.593 251.098C409.278 251.231 408.261 251.222 405.957 250.991C408.476 250.471 411.296 250.917 414.178 250.364C421.676 249.991 428.99 247.927 435.576 244.328C435.678 243.55 435.666 242.027 435.686 241.184Z" fill="#28464F"/>
<path d="M384.073 291.355C386.796 291.982 389.537 292.531 392.293 293.003C391.647 301.578 390.395 313.137 391.581 321.465C392.832 317.328 393.572 298.923 393.83 293.612L400.999 293.844C401.672 304.161 401.147 314.518 400.979 324.843C400.971 325.473 401.214 325.756 401.691 326.105L400.792 327.437C394.276 322.867 388.277 317.691 383.133 311.593C383.819 307.109 383.865 296.457 384.073 291.355Z" fill="#2D4C55"/>
<path d="M393.595 250.938L400.416 250.975L400.94 251.367C401.66 259.761 401.16 267.922 401.445 276.338C401.598 280.75 401.633 285.203 401.539 289.617C398.75 289.662 395.14 289.435 392.297 289.332C394.37 274.126 393.732 266.129 393.595 250.938Z" fill="#2D4C55"/>
<path d="M403.312 293.993C405.753 293.949 408.624 293.739 411.092 293.613C411.096 297.555 410.978 318.066 412.687 320.192C410.923 322.597 406.711 325.481 404.2 327.289C402.311 322.548 403.195 300.239 403.312 293.993Z" fill="#2D4C55"/>
<path d="M375.877 289.064C378.153 289.729 380.559 290.478 382.855 291.026C382.876 296.431 382.217 304.258 381.677 309.753L383.136 311.592C388.28 317.69 394.279 322.866 400.795 327.436L400.044 329.256C397.537 327.464 395.112 325.563 392.777 323.556L391.682 322.542C388.929 320.4 385.266 316.403 382.871 313.85C382.434 313.207 380.996 311.812 380.389 311.19C379.667 310.023 376.872 306.853 375.873 305.583C372.754 301.621 369.798 297.68 367.363 293.243C367.977 292.602 367.923 292.788 368.962 292.543C370.2 294.447 371.466 296.333 372.758 298.2L374.154 300.186C374.927 298.382 375.605 291.451 375.877 289.064Z" fill="#2D4C55"/>
<path d="M367.363 293.243C367.977 292.602 367.923 292.788 368.962 292.543C370.2 294.447 371.466 296.333 372.758 298.201L374.154 300.187C375.937 302.738 379.539 307.561 381.677 309.753L383.136 311.593C388.28 317.69 394.279 322.866 400.795 327.437L400.044 329.256C397.537 327.465 395.112 325.563 392.777 323.556L391.682 322.542C388.929 320.401 385.266 316.403 382.871 313.851C382.434 313.207 380.996 311.812 380.389 311.19C379.667 310.023 376.872 306.853 375.873 305.583C372.754 301.621 369.798 297.68 367.363 293.243Z" fill="#D2C7A4"/>
<path d="M385.29 262.68C387.795 264.321 389.579 264.994 392.321 266.148C392.939 274.64 392.176 280.283 390.91 288.522C387.88 287.962 384.86 287.348 381.852 286.679C383.75 280.658 385.371 268.951 385.29 262.68Z" fill="#2D4C55"/>
<path d="M363.012 250.668C364.964 248.932 362.385 243.162 366.267 242.264C367.701 242.643 367.917 242.812 369.154 243.651C369.375 243.915 369.81 244.47 370.043 244.675C367.969 246.688 367.824 273.277 362.95 281.183C361.225 277.524 360.536 275.478 359.887 271.537C360.823 267.119 364.715 254.747 363.012 250.668Z" fill="#28464F"/>
<path d="M412.148 293.405C414.28 293.25 417.561 292.559 419.752 292.166C419.916 295.373 420.945 309.505 421.414 311.958C418.93 314.542 415.594 318.082 412.688 320.193C414.081 315.037 412.238 299.784 412.148 293.405Z" fill="#2D4C55"/>
<path d="M377.063 260.331C378.736 259.858 381.719 261.484 383.324 262.311C383.264 272.198 382.942 276.8 380.738 286.372C378.106 285.593 375.299 284.514 372.699 283.578C375.899 275.82 377.081 268.802 377.063 260.331Z" fill="#2D4C55"/>
<path d="M411.777 273.9C411.965 267.493 412.657 268.733 419.021 267.643C419.568 274.29 421.414 280.829 421.684 287.301C413.702 288.737 412.008 288.907 412.176 279.783C412.211 277.986 411.824 275.748 411.777 273.9Z" fill="#2D4C55"/>
<path d="M370.434 258.953C370.624 258.332 370.833 257.734 371.044 257.12C372.434 256.553 373.666 257.403 375.412 258.033C375.646 263.028 373.724 278.045 371.823 282.295L371.216 282.747C369.21 282.414 366.844 280.572 365.156 279.387C367.344 272.385 368.509 264.852 370.434 258.953Z" fill="#2D4C55"/>
<path d="M421.192 269.457C421.188 268.512 421.2 268.006 421.305 267.069C422.913 265.25 425.334 265.44 427.814 265.229C428.623 273.261 428.787 276.194 431.975 283.646C424.908 286.778 422.315 287.532 421.865 278.212C421.728 275.431 421.446 272.248 421.192 269.457Z" fill="#2D4C55"/>
<path d="M444.637 271.723C445.349 273.303 445.466 273.957 445.842 275.633L445.572 276.392C442.275 283.085 441.203 286.785 437.065 294C435.106 296.829 432.333 301.391 430.264 303.902C428.504 306.357 423.349 312.105 422.41 313.582L422.105 313.896C420.236 315.899 415.167 321.244 412.863 322.606L411.651 323.77C409.324 325.767 407.067 327.391 404.744 329.286C404.302 328.845 403.977 328.264 403.637 327.733L404.2 327.289C406.711 325.48 410.923 322.597 412.687 320.191C415.593 318.081 418.929 314.541 421.413 311.957L423.63 309.193C425.324 307.458 429.055 302.425 430.788 300.23L431.895 298.722C435.125 293.256 437.394 290.182 440.241 284.145L441.829 280.676C443.143 279.034 444.144 273.914 444.637 271.723Z" fill="#D2C7A4"/>
<path d="M421.27 291.742C423.847 291.255 426.46 290.523 429.002 289.859C429.033 293.69 429.186 296.731 430.789 300.231C429.057 302.425 425.325 307.458 423.632 309.194C422.388 305.107 421.684 296.339 421.27 291.742Z" fill="#2D4C55"/>
<path d="M384.703 249.604C386.734 250.023 390.694 250.902 392.622 250.62C392.36 255.679 392.466 261.035 392.321 266.148C389.579 264.994 387.795 264.321 385.291 262.68C385.297 259.772 385.429 252.16 384.703 249.604Z" fill="#28464F"/>
<path d="M377.712 247.646C380.032 248.339 382.363 248.992 384.705 249.605C383.627 251.843 383.112 259.81 383.325 262.313C381.72 261.487 378.737 259.861 377.064 260.333C377.137 259.254 376.974 258.192 376.922 257.116C376.769 253.937 377.286 250.786 377.712 247.646Z" fill="#28464F"/>
<path d="M370.768 245.039C372.652 245.902 374.744 246.957 376.794 247.204C375.606 250.21 375.555 254.746 375.412 258.034C373.667 257.404 372.435 256.554 371.044 257.121C370.833 257.735 370.624 258.333 370.434 258.955C370.692 254.419 370.425 250.03 370.768 245.039Z" fill="#28464F"/>
<path d="M363.867 282.969C367.131 284.194 370.001 286.5 374.275 288.156C373.045 292.131 372.756 293.899 372.756 298.2C371.464 296.332 370.198 294.446 368.959 292.542C368.399 290.988 365.138 286.031 363.867 282.969Z" fill="#2D4C55"/>
<path d="M429.984 289.437C432.675 287.833 437.345 285.631 440.239 284.145C437.392 290.182 435.124 293.255 431.893 298.722C431.24 295.63 430.606 292.535 429.984 289.437Z" fill="#2D4C55"/>
<path d="M403.102 264.125L403.329 264.205C403.864 265.032 403.649 268 403.63 269.177L410.502 269.331C410.67 277.3 410.725 281.095 411.949 289.049C408.761 289.427 406.172 289.442 402.965 289.487C403.454 284.582 403.332 269.218 403.102 264.125Z" fill="#2D4C55"/>
<path d="M358.792 275.66C358.439 273.734 358.828 273.042 359.887 271.539C360.537 275.48 361.226 277.526 362.951 281.184L363.87 282.971C365.14 286.033 368.401 290.99 368.962 292.544C367.923 292.789 367.977 292.603 367.363 293.244C369.798 297.681 372.754 301.623 375.873 305.585C376.872 306.854 379.667 310.024 380.388 311.191C380.995 311.813 382.434 313.209 382.87 313.852C382.154 320.35 382.001 327.076 381.611 333.619C380.005 360.512 376.425 388.216 376.656 415.152C377.181 418.499 378.228 431.656 379.118 433.677C381.756 434.444 384.736 433.803 386.485 434.663L386.107 435.089L386.378 435.093C387.066 435.105 387.403 435.05 388.011 435.37C388.331 436.981 388.16 439.194 388.324 439.867C389.951 443.636 389.631 486.321 390.008 493.996C387.71 493.715 382.655 493.852 380.139 493.859L370.214 493.824C372.537 483.834 372.7 466.736 372.796 456.316C373.422 452.684 373.206 445.462 373.107 441.591C371.919 395.477 362.808 349.71 357.582 303.951C357.112 299.838 356.999 279.154 358.792 275.66Z" fill="#23404A"/>
<path d="M388.322 439.865C389.949 443.634 389.629 486.319 390.006 493.995C387.708 493.713 382.653 493.85 380.137 493.858C380.136 490.378 380.129 486.867 380.264 483.391C380.816 469.221 379.681 455.095 379.445 440.96C382.662 441.214 385.678 441.82 388.322 439.865Z" fill="#2D4C55"/>
<path d="M380.387 311.191C380.994 311.813 382.433 313.209 382.869 313.852C382.153 320.35 382 327.076 381.609 333.619C380.003 360.512 376.424 388.216 376.654 415.152C376.591 416.204 376.505 417.252 376.394 418.299C376.177 414.62 376.407 410.874 376.188 407.32C375.838 401.627 375.414 397.131 375.614 391.403C376.308 370.759 379.017 350.258 380.072 329.645C380.299 325.208 382.077 314.715 380.387 311.191Z" fill="#183843"/>
<path d="M358.791 275.66C358.438 273.734 358.827 273.042 359.886 271.539C360.535 275.48 361.224 277.526 362.95 281.184L363.868 282.971C365.139 286.033 368.4 290.99 368.96 292.544C367.922 292.789 367.975 292.603 367.362 293.244C364.629 289.952 360.763 279.988 358.791 275.66Z" fill="#D2C7A4"/>
<path d="M392.776 323.557C395.111 325.563 397.536 327.465 400.043 329.256L400.794 327.437L401.693 326.105C402.843 326.587 402.945 326.692 403.637 327.734C403.977 328.265 404.302 328.846 404.744 329.287C405.819 331.326 406.668 332.845 407.916 334.779C406.531 336.103 403.844 338.458 403.132 340.116L401.736 340.042C401.576 340.298 401.376 340.614 401.142 340.99C400.962 348.092 401.165 357.185 401.212 364.06L401.29 410.463C401.29 418.439 401.541 427.776 401.271 435.639C397.575 435.393 393.973 435.307 390.27 435.213C389.636 427.292 389.661 417.102 389.656 409.067C389.753 391.566 390.228 374.069 391.08 356.587C391.325 352.327 391.845 348.116 392.142 343.856C392.588 337.488 391.782 329.711 392.776 323.557Z" fill="#2D4C55"/>
<path d="M401.694 326.104C402.844 326.586 402.945 326.691 403.637 327.732C403.978 328.264 404.302 328.844 404.744 329.285C405.82 331.325 406.669 332.844 407.916 334.777C406.532 336.102 403.845 338.457 403.133 340.115L401.737 340.041C400.497 338.203 398.451 336.54 396.777 335.035L400.043 329.255L400.794 327.436L401.694 326.104Z" fill="#EFC277"/>
<path d="M390.27 435.213C393.972 435.307 397.574 435.393 401.27 435.639C401.29 438.036 401.438 442.435 401.211 444.675C401.219 460.909 401.552 477.683 401.407 493.839L391.132 493.815C391.449 475.845 390.338 457.781 390.338 439.913L390.27 435.213Z" fill="#2D4C55"/>
<path d="M390.27 435.213C393.972 435.307 397.574 435.393 401.27 435.639C401.29 438.036 401.438 442.435 401.211 444.675C401.027 442.888 400.996 440.444 400.914 438.599C396.944 439.745 394.363 439.842 390.338 439.913L390.27 435.213Z" fill="#28464F"/>
<path d="M391.681 322.543L392.776 323.557C391.782 329.711 392.588 337.489 392.142 343.857C391.845 348.117 391.325 352.328 391.08 356.588C390.228 374.069 389.753 391.567 389.656 409.068C389.661 417.103 389.636 427.292 390.27 435.214L390.339 439.913C390.339 457.782 391.45 475.846 391.133 493.816L390.007 493.996C389.629 486.321 389.95 443.636 388.323 439.867C388.159 439.194 388.33 436.981 388.01 435.37C387.402 435.049 387.064 435.104 386.377 435.093L386.105 435.089L386.484 434.662C386.741 434.698 386.998 434.733 387.255 434.768C389.263 435.026 388.313 424.434 388.259 422.42C387.658 399.379 389.153 376.337 389.801 353.307C389.938 348.444 390.136 324.36 391.681 322.543Z" fill="#183843"/>
<path d="M363.011 250.668C364.714 254.747 360.822 267.119 359.886 271.537C358.827 273.04 358.438 273.732 358.791 275.658C356.997 279.152 357.11 299.836 357.58 303.95C362.806 349.709 371.917 395.475 373.105 441.589C373.205 445.46 373.42 452.682 372.795 456.314C372.698 466.734 372.536 483.833 370.213 493.822L367.537 493.865C349.425 493.646 331.076 493.92 312.914 493.799L310.698 493.815L307.131 493.822L303.794 493.838L297.938 493.834C297.907 491.715 297.947 490.139 298.097 488.024C298.125 487.57 298.083 486.867 298.071 486.39C296.965 485.432 296.788 486.061 294.808 485.713L294.572 484.978C295.552 484.974 297.166 485.111 297.91 484.622C298.386 481.924 297.92 474.065 297.005 471.536C296.694 470.218 297.253 462.242 296.839 459.157C296.777 450.922 294.821 438.97 294.16 430.231C293.286 418.681 292.776 406.689 291.792 395.241C290.766 384.346 289.263 373.503 287.29 362.741C287.3 363.591 282.657 346.157 282.341 344.859C280.613 337.985 278.825 331.126 276.978 324.283C275.978 320.603 274.728 315.394 273.301 311.964C283.749 305.721 297.093 300.665 308.518 296.471C309.823 295.03 317.361 284.448 317.123 283.233C318.442 282.586 320.249 281.053 321.469 280.093C324.556 277.05 325.591 275.956 329.129 273.468C329.812 272.674 331.141 272.038 332.093 271.496C332.713 270.913 334.51 269.575 335.254 269.136C344.109 263.917 353.325 253.65 363.011 250.668Z" fill="#B6744E"/>
<path d="M363.011 250.668C364.714 254.747 360.822 267.119 359.886 271.537C358.827 273.04 358.438 273.732 358.791 275.658C356.997 279.152 357.111 299.836 357.58 303.95C362.806 349.709 371.917 395.475 373.105 441.589C373.205 445.46 373.42 452.682 372.795 456.314C372.798 456.029 372.795 455.74 372.785 455.454C372.682 452.342 371.594 449.233 370.704 446.238C363.704 422.673 342.657 403.123 327.131 384.478C323.086 379.62 319.016 375.122 314.782 370.452C312.156 367.556 310.862 365.038 307.737 362.143C306.561 362.257 305.636 362.19 304.752 362.9C303.978 361.88 303.288 360.16 302.737 358.951C302.208 356.941 302.377 354.868 302.429 352.786C302.463 352.73 302.496 352.674 302.531 352.619C302.589 352.527 302.65 352.437 302.707 352.345C305.253 348.271 329.303 327.606 333.932 324.7C332.561 324.095 327.373 323.633 325.596 323.382C317.64 322.257 309.355 321.468 301.469 320.002C299.362 319.611 299.132 319.034 298.1 317.278C296.645 314.562 297.428 313.274 298.871 310.898C301.8 305.573 305.73 301.538 308.518 296.471C309.823 295.03 317.361 284.448 317.124 283.233C318.442 282.586 320.249 281.053 321.469 280.093C324.556 277.05 325.591 275.956 329.13 273.468C329.812 272.674 331.141 272.038 332.093 271.496C332.713 270.913 334.51 269.575 335.254 269.136C344.109 263.917 353.325 253.65 363.011 250.668Z" fill="#B6744E"/>
<path d="M298.871 310.898L300.589 312.398C299.934 313.639 299.855 313.801 300.111 315.17C300.938 316.123 301.345 316.306 302.763 316.354C315.506 316.794 331.315 314.34 343.503 317.984C331.958 329.454 319.706 339.532 307.429 350.17C303.031 353.98 306.053 355.909 305.11 357.676L304.692 357.787L302.737 358.952C302.208 356.942 302.377 354.869 302.429 352.787C302.463 352.731 302.496 352.675 302.531 352.62C302.589 352.528 302.65 352.438 302.707 352.346C305.253 348.271 329.303 327.607 333.932 324.701C332.561 324.095 327.373 323.634 325.596 323.383C317.64 322.258 309.355 321.469 301.469 320.003C299.362 319.612 299.132 319.035 298.1 317.279C296.645 314.563 297.428 313.275 298.871 310.898Z" fill="#7B321D"/>
<path d="M298.098 317.279C309.709 317.859 321.336 318.737 332.984 318.827C333.983 318.835 336.832 319.334 337.749 319.992C338.859 321.283 334.88 324.255 333.93 324.701C332.559 324.096 327.371 323.634 325.594 323.383C317.638 322.258 309.353 321.469 301.467 320.003C299.36 319.612 299.129 319.035 298.098 317.279Z" fill="#A7533A"/>
<path d="M332.095 271.496C327.482 281.212 320.497 289.537 314.407 298.34C311.328 302.789 309.99 306.466 308.259 311.508C312.388 311.518 334.255 311.163 336.303 312.691C335.229 312.893 330.855 313.043 329.821 312.885C325.141 312.172 309.13 314.25 305.963 312.52C303.825 308.356 312.228 300.296 313.898 296.617C316.149 291.655 328.571 277.669 329.131 273.468C329.814 272.675 331.142 272.038 332.095 271.496Z" fill="#9A5539"/>
<path d="M317.124 283.233C318.442 282.587 320.249 281.054 321.47 280.094C321.151 283.554 307.819 300.113 305.827 304.415C305.276 305.606 301.533 311.1 300.589 312.397L298.871 310.898C301.801 305.574 305.73 301.539 308.519 296.472C309.823 295.031 317.362 284.449 317.124 283.233Z" fill="#7B321D"/>
<path d="M304.689 357.787C306.14 359.371 306.588 360.738 307.735 362.144C306.559 362.258 305.633 362.19 304.75 362.901C303.976 361.88 303.286 360.161 302.734 358.952L304.689 357.787Z" fill="#CDA89E"/>
<path d="M346.701 320.215L347.03 320.236L347.068 320.837C346.143 322.489 342.833 325.388 341.334 326.806C335.263 332.56 329.031 338.14 322.643 343.539C319.566 346.119 316.261 348.604 313.171 351.163C311.608 352.457 311.715 356.115 311.684 358.098C314.737 362.056 320.389 367.572 323.557 371.133C331.965 380.583 369.857 423.366 369.602 434.161C365.805 428.629 362.662 422.619 358.756 416.942C344.671 396.415 327.367 378.666 311.335 359.699C305.008 352.213 325.398 339.379 330.236 334.46C335.033 329.583 341.69 325.181 346.701 320.215Z" fill="#9A5539"/>
<path d="M314.85 351.129C320.537 350.247 324.412 354.66 319.734 358.832C313.278 361.42 312.069 356.19 314.85 351.129Z" fill="#CDA89E"/>
<path d="M313.929 303.06C315.162 302.839 316.417 303.301 317.213 304.267C318.009 305.234 318.221 306.555 317.767 307.721C317.313 308.888 316.265 309.719 315.025 309.894C313.156 310.158 311.421 308.877 311.122 307.015C310.824 305.152 312.072 303.393 313.929 303.06Z" fill="#CDA89E"/>
<path d="M356.51 302.154L356.655 303.192C353.901 307.826 349.359 312.24 345.42 315.884L345.367 315.73C346.841 311.415 353.1 305.283 356.51 302.154Z" fill="#9A5539"/>
<path d="M304.75 362.901C305.634 362.191 306.559 362.258 307.735 362.145C310.86 365.039 312.153 367.557 314.78 370.454C319.014 375.124 323.083 379.622 327.129 384.48C342.654 403.125 363.701 422.675 370.702 446.24C371.592 449.235 372.68 452.343 372.783 455.456C372.792 455.741 372.796 456.03 372.792 456.316C372.696 466.736 372.534 483.834 370.211 493.824L367.535 493.867C367.827 482.696 370.97 465.309 369.081 454.111C363.881 423.304 332.984 398.441 314.633 374.67C311.505 370.618 307.714 367.344 304.948 363.202L304.75 362.901Z" fill="#CCAAA5"/>
<path d="M303.793 493.838C307.133 487.918 309.558 481.158 312.162 474.882C313.238 472.29 314.414 468.771 315.741 466.374C318.295 466.046 319.531 467.383 321.5 468.9L322.735 469.862C320.235 476.759 317.163 483.449 314.335 490.217C313.838 491.406 313.285 492.563 312.913 493.799L310.697 493.814L307.13 493.822L303.793 493.838Z" fill="#9A5539"/>
<path d="M307.129 493.824C309.385 488.455 311.654 483.075 313.852 477.68C315.207 474.352 314.966 471.823 318.192 469.527L318.939 469.453C320.093 472.726 311.785 488.702 310.697 493.816L307.129 493.824Z" fill="#CDA89E"/>
<path d="M297.441 386.521C298.941 385.21 301.944 382.164 303.848 381.999C304.767 381.919 305.135 382.589 305.869 383.303C309.155 388.2 312.46 392.347 315.888 397.059C320.808 403.823 324.873 410.36 330.673 416.554C333.774 419.865 336.329 424.518 339.672 427.752C337.823 429.613 335.868 431.529 334.066 433.421C328.155 426.645 319.521 415.858 314.398 408.538C312.788 406.274 310.388 403.092 308.378 401.266C307.893 401.973 307.085 402.314 306.335 402.622C303.395 401.575 303.619 397.121 303.447 394.392L303.273 393.458C301.144 391.346 299.303 388.879 297.441 386.521Z" fill="#9A5539"/>
<path d="M308.443 392.098C315.576 400.891 328.141 418.083 335.84 427.67C335.82 428.128 335.802 428.519 335.787 428.851C334.811 429.625 333.646 429.422 332.94 428.398C327.321 420.242 319.993 412.644 314.538 404.461C314.383 404.23 314.231 403.996 314.08 403.761C313.759 405.708 314.008 406.029 314.928 407.796L314.401 408.539C312.79 406.275 310.391 403.092 308.38 401.267C307.896 401.974 307.087 402.314 306.338 402.623C303.397 401.575 303.622 397.122 303.449 394.393C304.006 395.925 303.797 396.18 304.97 396.934C305.912 396.883 306.887 396.844 307.825 396.766C308.149 395.871 308.338 393.177 308.443 392.098Z" fill="#CDA89E"/>
<path d="M308.379 401.267C308.457 400.024 308.365 398.808 309.06 397.854C310.21 398.331 310.663 399.269 311.544 400.364C312.332 401.701 313.095 402.573 314.079 403.761C313.757 405.709 314.007 406.029 314.926 407.797L314.399 408.539C312.789 406.276 310.389 403.093 308.379 401.267Z" fill="#A7533A"/>
<path d="M297.441 386.521C298.941 385.21 301.944 382.164 303.848 381.999C304.767 381.919 305.135 382.589 305.869 383.303L304.008 384.96C305.74 387.161 307.469 389.442 308.441 392.097C308.336 393.176 308.147 395.87 307.823 396.765C306.885 396.844 305.91 396.883 304.968 396.934C303.795 396.179 304.004 395.925 303.447 394.392L303.273 393.458C301.144 391.346 299.303 388.879 297.441 386.521Z" fill="#D3BDB9"/>
<path d="M297.441 386.521C298.941 385.21 301.944 382.164 303.848 381.999C304.767 381.919 305.135 382.589 305.869 383.303L304.008 384.96C302.977 384.858 302.896 384.962 301.927 385.443C300.588 387.702 303.069 390.192 303.273 393.458C301.144 391.346 299.303 388.879 297.441 386.521Z" fill="#A7533A"/>
<path d="M419.513 89.0762C429.502 92.1971 438.881 102.921 443.198 112.125C448.326 123.064 453.371 132.716 460.533 142.496C462.05 144.571 463.098 147.462 464.706 149.494C465.605 157.491 464.318 168.479 462.539 176.322C461.115 180.276 460.877 187.162 458.628 193.473C455.577 208.328 446.765 217.508 435.771 227.019C435.677 231.653 435.497 236.576 435.685 241.183C435.666 242.026 435.677 243.55 435.576 244.327C428.989 247.927 421.675 249.991 414.178 250.364C411.295 250.917 408.475 250.471 405.957 250.991L400.418 250.974L393.597 250.937L392.624 250.621C390.695 250.903 386.735 250.024 384.704 249.604C382.362 248.991 380.031 248.338 377.711 247.645L376.794 247.204C374.745 246.957 372.652 245.902 370.768 245.039L370.043 244.676C369.81 244.471 369.374 243.915 369.153 243.651C369.496 238.493 369.557 231.913 368.863 226.879C356.753 216.303 350.767 209.655 346.325 193.903C345.193 190.075 344.572 187.473 343.907 183.543C343.584 181.637 342.897 176.679 342.383 175.26L341.553 175.4C340.304 174.468 339.314 172.299 338.527 170.853L337.358 167.674L336.551 164.812C337.451 165.416 337.495 165.46 338.533 165.71C340.02 165.085 339.745 164.99 340.826 163.495L341.079 164.628C341.661 163.626 342.485 160.14 342.89 158.843C344.887 152.448 347.896 146.628 350.901 140.674C349.86 140.135 350.181 140.527 349.745 139.618L350.238 138.295C352.222 136.525 353.182 135.603 354.912 133.571C354.993 131.376 360.603 125.745 362.081 123.429C364.454 119.71 366.809 115.59 369.474 112.103C371.301 109.679 373.328 107.414 375.535 105.331C384.553 96.9614 395.53 95.6175 406.962 92.9822C410.458 92.1764 415.981 90.239 419.513 89.0762Z" fill="#CD7A59"/>
<path d="M368.863 226.879C380.493 234.306 393.523 245.647 408.78 242.323C418.558 240.192 427.964 232.948 435.771 227.018C435.677 231.653 435.497 236.575 435.685 241.183C435.665 242.026 435.677 243.549 435.576 244.327C428.989 247.927 421.675 249.99 414.178 250.364C411.295 250.917 408.475 250.47 405.956 250.99L400.418 250.974L393.597 250.937L392.623 250.621C390.695 250.902 386.735 250.023 384.704 249.604C382.362 248.99 380.031 248.338 377.711 247.645L376.794 247.204C374.744 246.957 372.652 245.901 370.768 245.038L370.042 244.675C369.81 244.471 369.374 243.915 369.153 243.651C369.496 238.493 369.557 231.913 368.863 226.879Z" fill="#A7533A"/>
<path d="M414.176 250.364L414.07 250.069C414.559 249.246 419.605 246.673 421.58 245.014C426.527 240.824 431.103 236.219 435.269 231.25C435.233 235.895 435.253 239.66 435.574 244.328C428.987 247.927 421.674 249.991 414.176 250.364Z" fill="#CD7A59"/>
<path d="M354.913 133.572C356.748 132.432 358.736 130.989 360.782 130.293C366.603 128.313 375.057 130.031 380.879 131.388C383.852 132.082 388.702 132.871 390.376 135.738C390.77 136.412 391.017 137.373 390.821 138.147C390.632 138.895 390.216 139.301 389.541 139.615C383.993 142.192 364.78 128.162 350.902 140.675C349.861 140.135 350.183 140.528 349.746 139.619L350.239 138.296C352.223 136.525 353.183 135.604 354.913 133.572Z" fill="#252330"/>
<path d="M340.826 163.496L341.079 164.629C341.464 168.188 341.952 171.71 342.383 175.26L341.553 175.401C340.304 174.469 339.314 172.299 338.527 170.854L337.358 167.674L336.551 164.813C337.451 165.416 337.495 165.46 338.533 165.711C340.02 165.085 339.745 164.99 340.826 163.496Z" fill="#552E2A"/>
<path d="M422.653 200.186C424.937 199.221 425.496 197.61 427.612 197.223L428.097 197.772C427.213 200.183 426.807 200.307 424.632 201.553C421.03 207.546 416.184 210.979 409.469 212.978C399.358 215.987 386.245 211.487 380.461 202.281C378.581 201.462 378.308 201.355 377.777 199.501L378.241 199.053C380.358 199.182 381.356 200.632 383.614 200.95C387.118 200.065 395.338 198.463 398.807 198.88C399.663 198.983 401.932 199.955 402.82 200.345C409.203 196.806 415.629 199.077 422.653 200.186Z" fill="#A7533A"/>
<path d="M402.819 200.344C409.202 196.805 415.628 199.076 422.652 200.185C412.491 205.592 393.741 206.431 383.613 200.949C387.117 200.064 395.337 198.462 398.806 198.879C399.663 198.982 401.931 199.954 402.819 200.344Z" fill="#A7533A"/>
<path d="M422.653 200.186C424.937 199.221 425.496 197.61 427.612 197.223L428.097 197.772C427.213 200.183 426.807 200.307 424.632 201.553C410.79 207.888 397.137 208.688 382.791 203.264C382.003 202.963 381.226 202.635 380.461 202.281C378.581 201.462 378.308 201.355 377.777 199.501L378.241 199.053C380.358 199.182 381.356 200.632 383.614 200.95C393.742 206.433 412.492 205.593 422.653 200.186Z" fill="#7B321D"/>
<path d="M408.167 209.254C409.367 209.07 410.24 208.915 411.206 209.658C410.498 211.342 408.147 211.477 406.583 211.708C405.124 211.748 404.435 211.844 403.023 211.36L403.02 210.932C404.467 209.995 406.457 209.657 408.167 209.254Z" fill="#CD7A59"/>
<path d="M433.438 129.571C444.491 127.656 451.922 132.864 458.023 141.596C449.794 138.087 451.01 135.554 439.899 135.147C432.225 135.238 419.588 140.055 416.092 139.47C415.028 138.639 414.962 138.475 414.453 137.218C414.981 131.774 428.928 130.076 433.438 129.571Z" fill="#252330"/>
<path d="M394.985 146.023C400.601 148.919 396.229 171.351 394.449 176.396C393.819 178.176 393.381 181.175 395.145 182.423C400.648 186.316 405.486 183.633 411.33 182.563C412.26 182.394 412.542 182.566 413.148 183.11C412.898 184.449 412.722 184.289 411.689 185.381C402.96 189.072 396.111 191.36 390.414 181.286C391.014 178.142 392.454 173.865 393.241 170.666C395.38 161.969 396.053 154.864 394.985 146.023Z" fill="#A7533A"/>
<path d="M368.849 145.32C372.613 145.045 376.497 144.845 379.821 146.9C381.397 147.875 383.948 149.526 384.437 151.371L384.027 151.863C381.962 151.374 380.88 148.986 378.813 148.525C378.566 149.261 379.484 151.925 379.757 152.906C378.664 156.682 378.607 158.701 374.396 159.778C367.446 158.134 368.146 152.481 370.756 147.421C367.734 148.178 362.11 151.823 360.448 151.622C360.139 148.508 366.447 146.007 368.849 145.32Z" fill="#1E2630"/>
<path d="M432.688 145.383C438.8 144.866 441.958 144.777 447.37 148.828C448.353 149.563 448.813 150.527 448.912 151.736L448.428 152.225C446.941 152.017 444.896 149.583 443.114 148.856C441.474 148.188 440.306 147.904 438.611 147.484C440.448 150.754 440.64 152.014 439.995 155.698C438.788 157.762 436.597 160.772 434.076 159.743C428.924 157.638 429.923 151.412 430.733 147.89C429.203 148.971 427.122 151.382 425.242 151.112C426.013 148.425 430.32 146.388 432.688 145.383Z" fill="#1E2630"/>
<path d="M497.576 298.312L497.752 297.18C503.114 297.198 526.964 308.689 531.63 312.009C529.659 317.184 518.551 358.112 519.368 361.217C520.855 362.554 520.847 362.695 520.823 364.826C520.522 366.337 519.893 369.038 519.732 370.474C519.314 370.164 519.118 369.724 518.825 369.255L518.344 369.363C517.382 378.479 515.668 387.71 515.09 396.904C513.948 414.96 513.204 432.973 510.502 450.908C510.271 452.449 509.829 456.234 509.305 457.368C508.566 457.508 508.89 457.579 508.284 457.207C507.881 458.556 507.944 460.808 508.12 462.196C507.608 472.98 507.181 483.005 507.357 493.805L482.987 493.828L479.749 493.808L476.448 493.824L434.939 493.855C433.476 488.69 432.987 478.583 432.518 472.921C429.502 436.594 433.926 403.289 438.694 367.528C441.717 346.13 444.513 324.702 447.083 303.246C450.869 307.715 454.843 311.906 459.031 316.005C459.821 316.78 460.541 317.439 461.171 318.359C461.894 317 465.121 317.05 466.721 316.754C476.843 316.085 482.588 315.989 492.968 316.062C495.628 316.649 501.174 316.594 502.136 317.287L507.4 317.022C507.365 314.701 507.494 313.279 505.938 311.451C504.756 311.189 503.786 310.566 502.711 309.982C501.448 308.424 500.626 306.837 499.648 305.096L500.748 303.023C500.372 301.957 498.518 300.161 497.576 298.312Z" fill="#B6744E"/>
<path d="M497.573 298.312L497.749 297.18C503.111 297.198 526.961 308.689 531.627 312.009C529.656 317.184 518.548 358.112 519.366 361.217C520.852 362.554 520.844 362.695 520.821 364.826C520.52 366.337 519.89 369.038 519.729 370.474C519.311 370.164 519.115 369.724 518.822 369.255L518.341 369.363C517.379 378.479 515.666 387.71 515.087 396.904C513.945 414.96 513.202 432.973 510.499 450.908C510.268 452.449 509.826 456.234 509.302 457.368C508.563 457.508 508.888 457.579 508.282 457.207C507.879 458.556 507.941 460.808 508.117 462.196C507.605 472.98 507.179 483.005 507.355 493.805L482.984 493.828C483.684 487.154 483.677 479.67 484.255 472.734C485.969 452.187 487.302 431.445 488.022 410.839C488.366 400.978 486.985 391.141 487.244 381.407C491.253 377.39 501.171 360.113 503.154 354.718C499.794 348.395 492.41 341.787 486.606 337.74C485.468 337.272 483.868 335.979 483.446 334.797C483.849 333.645 483.356 322.447 483.571 319.686C483.876 320.929 483.997 324.532 484.079 325.977C484.318 325.67 484.537 320.391 484.588 319.535C490.408 319.258 494.413 317.234 502.133 317.287L507.398 317.022C507.362 314.701 507.492 313.279 505.935 311.451C504.754 311.189 503.784 310.566 502.708 309.982C501.445 308.424 500.624 306.837 499.646 305.096L500.745 303.023C500.369 301.957 498.515 300.161 497.573 298.312Z" fill="#B6744E"/>
<path d="M517.574 361.221C517.762 360.24 517.727 359.42 518.337 358.842L518.834 361.256L519.365 361.217C520.852 362.554 520.844 362.695 520.82 364.826C520.519 366.336 519.889 369.037 519.729 370.474C519.311 370.163 519.115 369.724 518.822 369.255L518.341 369.363C517.379 378.479 515.665 387.709 515.087 396.904C513.945 414.96 513.201 432.973 510.499 450.908C510.268 452.449 509.826 456.234 509.302 457.368C508.563 457.508 508.887 457.579 508.281 457.207C510.073 440.832 511.234 425.65 512.353 409.177C513.374 394.144 514.492 375.875 517.574 361.221Z" fill="#7B321D"/>
<path d="M517.578 361.221C517.766 360.24 517.731 359.42 518.341 358.842L518.838 361.256L519.369 361.217C520.856 362.554 520.848 362.695 520.824 364.826C520.523 366.336 519.894 369.037 519.733 370.474C519.315 370.163 519.119 369.724 518.826 369.255L518.345 369.363C518.106 366.914 518.794 364.446 518.208 361.556L517.578 361.221Z" fill="#9A5539"/>
<path d="M507.401 317.021C506.939 318.008 506.627 319.141 505.516 319.391C499.833 320.665 492.828 321.237 487.067 322.235C486.946 324.746 486.277 335.909 486.609 337.74C485.471 337.272 483.872 335.978 483.449 334.796C483.852 333.645 483.359 322.446 483.574 319.685C483.879 320.928 484.001 324.531 484.083 325.976C484.321 325.669 484.54 320.39 484.591 319.534C490.411 319.257 494.416 317.233 502.137 317.286L507.401 317.021Z" fill="#A7533A"/>
<path d="M499.648 305.095L500.747 303.021C502.574 305.781 504.459 308.49 505.938 311.45C504.756 311.188 503.786 310.565 502.711 309.981C501.448 308.422 500.626 306.836 499.648 305.095Z" fill="#7B321D"/>
<path d="M498.965 351.49C498.898 347.984 474.231 332.234 474.035 327.041L474.274 327.24C476.597 329.207 480.77 334.48 483.215 334.681L483.445 334.795C483.868 335.977 485.467 337.271 486.606 337.739C492.41 341.785 499.794 348.393 503.154 354.716C501.171 360.112 491.252 377.389 487.243 381.406C486.985 391.139 488.366 400.977 488.021 410.838C487.302 431.443 485.968 452.185 484.255 472.732C483.676 479.668 483.684 487.152 482.984 493.826L479.745 493.807L476.444 493.822C476.319 489.834 477.927 477.311 478.165 472.427C479.237 450.531 482.151 428.421 482.229 406.509C482.237 404.23 482.397 397.016 481.889 395.342C481.81 391.405 481.408 387.006 482.225 383.155C482.428 382.198 483.703 381.014 484.407 380.318C485.679 379.024 487.192 377.492 487.446 375.688L486.512 374.606C490.176 368.912 502.504 358.455 498.965 351.49Z" fill="#9A5539"/>
<path d="M484.411 380.318C484.92 387.596 484.505 395.03 484.994 402.377C485.843 415.112 484.482 428.234 483.57 440.957L479.749 493.807L476.448 493.823C476.323 489.835 477.931 477.311 478.169 472.428C479.241 450.532 482.155 428.421 482.233 406.51C482.241 404.23 482.401 397.017 481.893 395.343C481.814 391.406 481.412 387.007 482.229 383.156C482.432 382.199 483.707 381.015 484.411 380.318Z" fill="#CDA89E"/>
<path d="M486.512 374.607L487.447 375.689C487.193 377.493 485.679 379.025 484.408 380.319C483.704 381.015 482.429 382.199 482.226 383.157C481.408 387.007 481.811 391.406 481.889 395.343L481.549 395.433C481.025 394.636 481.291 393.748 481.346 392.599L481.009 392.509C478.205 395.113 471.58 405.775 469.151 409.443C460.922 421.865 451.59 434.095 444.382 447.1C440.948 453.297 437.701 460.964 434.948 467.486C434.674 436.382 456.35 413.74 474.102 390.515C478.002 385.416 482.984 380.39 486.317 374.935L486.512 374.607Z" fill="#A7533A"/>
<path d="M464.473 319.703C470.523 318.778 476.632 318.828 482.769 318.648L483.571 319.684C483.356 322.445 483.848 333.644 483.446 334.795L483.215 334.681C480.77 334.48 476.597 329.207 474.274 327.241L474.035 327.041C473.679 326.522 465.978 320.972 464.473 319.703Z" fill="#A7533A"/>
<path d="M482.772 318.648L483.574 319.684C483.359 322.445 483.851 333.644 483.449 334.795L483.218 334.681C482.42 333.76 481.274 332.948 480.3 332.187C480.378 329.027 479.901 322.434 480.832 319.448C480.977 318.987 482.123 318.826 482.772 318.648Z" fill="#CDA89E"/>
<path d="M466.718 316.751C476.84 316.083 482.585 315.986 492.965 316.06C495.625 316.646 501.171 316.592 502.133 317.285C494.413 317.231 490.408 319.256 484.588 319.532C484.537 320.389 484.318 325.667 484.079 325.974C483.997 324.529 483.876 320.927 483.571 319.683L482.769 318.648C476.633 318.827 470.523 318.777 464.473 319.702C465.979 320.971 473.68 326.521 474.036 327.04C474.231 332.234 498.899 347.983 498.965 351.49C490.709 343.848 481.623 336.65 473.175 329.189C469.241 325.715 464.751 322.149 461.168 318.357C461.892 316.998 465.118 317.047 466.718 316.751Z" fill="#7B321D"/>
<path d="M456.636 320.137C457.066 320.166 457.543 320.224 457.926 320.467C466.39 325.92 473.348 333.265 480.936 339.901C485.167 343.604 492.168 347.632 494.366 353.023C495.063 354.731 494.617 357.938 493.541 359.474C489.008 365.954 483.415 371.741 478.495 377.938C462.745 398.185 447.147 416.261 435.805 439.549L435.547 439.615C435.739 436.937 437.581 433.754 438.766 431.369C449.083 410.611 465.839 390.825 480.674 373.029C483.662 369.447 491.343 362.161 492.837 358.312C493.561 356.45 493.745 354.186 492.771 352.373C491.183 349.423 486.712 346.763 484.104 344.593C480.275 341.412 457.7 322.766 456.73 320.392C456.698 320.308 456.667 320.222 456.636 320.137Z" fill="#9A5539"/>
<path d="M485.276 351.153C487.572 350.985 489.093 350.879 490.849 352.758C491.561 353.523 491.937 354.544 491.886 355.588C491.788 357.505 490.572 358.46 489.226 359.576C487.185 359.77 485.327 359.674 483.798 358.055C483.078 357.3 482.695 356.286 482.738 355.244C482.812 353.256 483.911 352.326 485.276 351.153Z" fill="#CDA89E"/>
<path d="M269.746 306.473C269.381 305.31 269.021 304.636 269.355 303.488C270.983 304.082 272.775 310.285 273.302 311.964C274.729 315.394 275.979 320.603 276.979 324.283C278.826 331.126 280.614 337.985 282.342 344.859C282.657 346.157 287.3 363.591 287.291 362.741C289.264 373.503 290.766 384.346 291.793 395.241C292.777 406.689 293.287 418.681 294.161 430.231C294.821 438.97 296.778 450.922 296.84 459.157C297.253 462.242 296.695 470.218 297.005 471.536C296.467 474.456 293.99 483.066 294.573 484.978L294.809 485.713C296.788 486.061 296.966 485.432 298.072 486.39C298.084 486.867 298.126 487.57 298.098 488.024C296.384 489.095 296.236 489.072 293.967 488.626C292.685 489.795 292.428 492.02 292.005 493.819C284.135 493.834 275.936 493.955 268.094 493.752C264.785 494.026 258.554 493.83 254.97 493.826L229.389 493.795C227.719 476.673 233.408 473.068 235.366 457.722C235.734 451.2 238.004 440.268 238.794 433.39C240.398 419.412 243.253 404.144 245.321 390.37C248.158 371.469 256.126 321.664 265.73 306.479L266.427 306.679C267.057 306.004 267.264 305.71 267.785 304.943L268.483 304.931L269.255 306.632L269.746 306.473Z" fill="#B6744E"/>
<path d="M269.747 306.473C269.382 305.31 269.021 304.636 269.355 303.488C270.983 304.082 272.775 310.285 273.302 311.964C274.729 315.394 275.979 320.603 276.979 324.283C278.826 331.126 280.614 337.985 282.343 344.859C282.658 346.157 287.301 363.591 287.291 362.741C289.265 373.503 290.767 384.346 291.794 395.241C292.777 406.689 293.287 418.681 294.161 430.231C294.822 438.97 296.779 450.922 296.841 459.157C297.254 462.242 296.696 470.218 297.006 471.536C296.468 474.456 293.991 483.066 294.574 484.978L294.809 485.713C296.789 486.061 296.967 485.432 298.073 486.39C298.084 486.867 298.127 487.57 298.099 488.024C296.385 489.095 296.236 489.072 293.967 488.626C292.686 489.795 292.429 492.02 292.005 493.819C284.136 493.834 275.936 493.955 268.095 493.752C269.188 493.564 271.036 493.678 271.78 493.103C270.058 491.578 256.9 487.668 254.31 487.52C250.221 487.281 243.31 487.492 239.02 487.563C251.226 479.352 265.648 481.244 278.543 486.464C276.647 483.062 275.731 481.78 273.205 478.972C269.81 475.203 258.911 466.304 257.096 462.124L257.516 461.342C259.692 460.65 260.754 462.426 262.503 463.297C265.851 464.967 278.701 473.553 281.348 472.079C282.946 467.141 268.183 436.272 265.663 429.5C269.384 432.092 272.455 434.305 275.902 437.249C278.839 439.76 282.021 443.06 285.091 445.245C284.808 433.82 278.039 421.961 276.237 410.517C275.959 408.754 275.513 406.728 276.546 405.289C278.056 405.192 278.993 406.771 281.234 407.35C281.85 407.104 282.335 407.061 282.506 406.318C285.482 393.411 279.544 376.975 275.682 365.242C281.087 371.687 284.246 380.906 287.57 388.556C288.778 376.593 276.183 329.771 272.55 316.906C271.709 313.927 271.099 309.12 269.747 306.473Z" fill="#9A5539"/>
<path d="M288.907 388.928C288.925 386.485 288.865 384.387 288.688 381.998C288.426 378.446 285.61 365.155 287.289 362.742C289.263 373.504 290.765 384.347 291.792 395.242C292.775 406.69 293.285 418.682 294.159 430.232C294.82 438.971 296.777 450.923 296.838 459.158C295.632 457.625 294.859 453.758 294.611 451.725C292.664 435.733 291.581 419.558 290.28 403.5C289.886 398.643 289.142 393.787 288.907 388.928Z" fill="#7B321D"/>
<path d="M535.307 301.717L536.794 303.406C545.707 312.036 549.34 334.323 552.25 346.359C557.081 366.342 560.096 386.911 563.174 407.218L566.111 427.675C567.034 433.688 568.196 439.768 568.837 445.833C569.225 447.436 570.234 454.141 570.21 455.693C569.526 460.077 574.837 474.622 575.901 479.708C576.867 484.326 576.472 489.131 576.026 493.792C560.127 493.878 544.229 493.878 528.33 493.788C524.055 493.866 519.639 493.792 515.357 493.776C515.153 492.631 514.868 491.481 514.594 490.343C512.365 481.116 510.714 471.799 508.692 462.52L508.117 462.196C507.941 460.808 507.879 458.556 508.281 457.207C508.888 457.578 508.563 457.508 509.302 457.367C509.826 456.233 510.268 452.448 510.499 450.908C513.202 432.973 513.945 414.96 515.087 396.903C515.666 387.709 517.379 378.478 518.341 369.362L518.822 369.255C519.115 369.723 519.311 370.163 519.729 370.473C519.89 369.037 520.519 366.336 520.82 364.825C520.844 362.694 520.852 362.554 519.366 361.216C518.548 358.111 529.656 317.183 531.627 312.009C532.945 308 533.375 305.55 535.307 301.717Z" fill="#B6744E"/>
<path d="M518.091 387.734C521.059 381.449 525.811 369.041 529.335 364.234C527.692 372.068 524.665 379.895 523.022 387.343C520.969 396.662 521.489 410.827 521.845 420.755C527.231 415.777 530.109 409.142 536.34 405.021C532.749 419.027 523.629 436.281 523.136 451.1C527.907 443.667 532.871 438.279 540.951 434.58C537.693 446.674 528.119 458.298 525.295 471.909C530.434 465.054 537.29 459.491 546.012 458.243C546.685 458.146 547.357 458.071 548.034 458.024C542.414 466.169 532.605 473.613 530.371 481.938C538.976 479.451 550.526 479.787 559.103 483.279C559.901 483.603 560.342 484.319 560.671 485.097L560.577 485.84C559.208 486.266 555.023 486.039 553.392 485.898C547.866 485.41 528.991 486.145 528.33 493.789C524.055 493.867 519.639 493.793 515.357 493.777C515.153 492.631 514.868 491.482 514.594 490.344C512.365 481.117 510.714 471.799 508.692 462.521L508.117 462.196C507.941 460.808 507.879 458.556 508.281 457.207C508.888 457.579 508.563 457.508 509.302 457.368C509.826 456.234 510.268 452.449 510.499 450.908C513.202 432.973 513.945 414.96 515.087 396.904C515.666 387.709 517.379 378.479 518.341 369.363L518.822 369.255C519.115 369.724 519.311 370.163 519.729 370.474C519.064 376.216 518.521 381.97 518.091 387.734Z" fill="#9A5539"/>
<path d="M536.794 303.406C545.707 312.036 549.34 334.323 552.25 346.359C557.081 366.342 560.096 386.911 563.174 407.218L566.111 427.675C567.034 433.688 568.196 439.768 568.837 445.833L568.63 446.141L568.087 446.165C566.901 444.19 564.469 430.916 563.804 427.839C556.33 393.322 550.87 357.861 539.625 324.309C538.456 320.81 535.413 316.455 533.195 313.556C534.114 310.244 535.378 306.531 536.794 303.406Z" fill="#CD7A59"/>
<path d="M535.309 301.717L536.795 303.406C535.379 306.531 534.116 310.244 533.197 313.556C532.716 316.968 531.124 320.425 530.232 323.73C527.776 332.835 525.519 341.992 523.466 351.196C522.735 354.477 521.111 361.581 520.822 364.825C520.846 362.694 520.853 362.554 519.367 361.216C518.55 358.111 529.657 317.183 531.629 312.009C532.947 308 533.377 305.55 535.309 301.717Z" fill="#9A5539"/>
<path d="M444.639 271.724C444.772 268.272 439.07 254.377 442.269 250.697C448.499 252.477 453.807 257.564 459.028 261.375C463.225 264.439 467.597 267.519 471.704 270.674C472.623 271.286 475.58 273.123 476.096 273.826C479.217 275.844 481.024 277.606 483.555 280.35L486.711 282.557C487.38 284.028 489.742 286.828 490.822 288.325C493.188 291.575 495.441 294.906 497.576 298.312C498.519 300.161 500.373 301.957 500.748 303.022L499.649 305.095C500.627 306.837 501.448 308.423 502.712 309.982C503.486 311.305 504.605 312.93 504.73 314.394C504.1 316.031 503.568 315.98 501.808 316.061C499.853 316.273 495.108 316.095 492.969 316.062C482.589 315.988 476.843 316.085 466.721 316.753C465.122 317.049 461.895 317 461.171 318.359C460.542 317.438 459.822 316.779 459.032 316.005C454.843 311.905 450.869 307.715 447.083 303.245C447.389 299.379 446.818 295.899 447.361 291.648C447.381 288.308 447.514 278.173 445.844 275.635C445.468 273.958 445.351 273.304 444.639 271.724Z" fill="#B6744E"/>
<path d="M476.094 273.826C479.215 275.844 481.022 277.606 483.552 280.35L486.709 282.557C487.377 284.028 489.74 286.828 490.819 288.325C493.185 291.575 495.438 294.906 497.574 298.312C498.516 300.161 500.37 301.957 500.746 303.022L499.647 305.095C500.624 306.837 501.446 308.423 502.709 309.981C503.483 311.305 504.602 312.93 504.727 314.393C504.097 316.031 503.566 315.98 501.806 316.061L499.341 315.704C500.965 315.645 502.689 315.611 503.98 314.637C504.191 313.446 503.652 313.151 502.846 311.849C499.963 312.455 501.684 314.946 497.316 314.183L496.913 314.112L497.159 314.093C498.72 313.963 499.342 313.977 500.249 312.914C500.867 308.458 476.649 278.264 476.094 273.826Z" fill="#CD7A59"/>
<path d="M483.555 280.35L486.711 282.556C487.38 284.027 489.742 286.828 490.822 288.324C493.188 291.575 495.441 294.906 497.576 298.311C498.519 300.16 500.373 301.956 500.748 303.021L499.649 305.095C498.175 303.543 484.047 281.896 483.555 280.35Z" fill="#7B321D"/>
<path d="M471.704 270.674C472.623 271.286 475.58 273.123 476.096 273.826C476.652 278.263 500.869 308.458 500.251 312.914C499.344 313.977 498.722 313.962 497.162 314.093L496.915 314.111C489.652 312.791 477.015 313.572 469.42 313.644C467.324 313.664 466.475 314.581 464.703 312.942L465.028 312.404C468.759 310.983 491.401 312.095 497.216 311.466C499.242 307.63 472.083 275.436 471.704 270.674Z" fill="#9A5539"/>
<path d="M447.36 291.648C447.391 295.309 447.446 298.968 447.516 302.628C453.136 306.808 457.791 312.684 463.548 316.633C463.88 316.862 466.161 316.775 466.72 316.753C465.12 317.049 461.893 317 461.17 318.359C460.54 317.438 459.821 316.78 459.031 316.005C454.842 311.906 450.868 307.715 447.082 303.245C447.387 299.379 446.816 295.9 447.36 291.648Z" fill="#9A5539"/>
<path d="M488.012 303.393C492.56 303.028 496.69 305.471 492.498 309.567C488.559 310.728 484.855 307.418 488.012 303.393Z" fill="#CDA89E"/>
<path d="M349.961 137.941C357.582 121.022 363.552 100.053 382.712 93.0278C394.571 88.68 409.339 90.8211 420.85 84.521C421.601 84.1108 423.525 82.6348 424.221 82.6426C423.963 84.1147 423.498 85.7248 423.928 87.0796C427.033 90.2791 434.351 94.3146 438.536 98.0795C449.612 108.042 451.49 119.911 457.262 132.544C460.544 139.721 464.913 137.722 464.713 149.148L464.705 149.494C463.098 147.462 462.05 144.572 460.532 142.497C453.371 132.716 448.326 123.065 443.198 112.125C438.88 102.921 429.501 92.1977 419.512 89.0768C415.98 90.2396 410.458 92.177 406.961 92.9829C395.529 95.6182 384.552 96.962 375.535 105.332C373.328 107.415 371.3 109.68 369.474 112.104C366.809 115.59 364.454 119.711 362.08 123.43C360.602 125.746 354.992 131.376 354.912 133.572C353.181 135.604 352.221 136.525 350.237 138.296L349.961 137.941Z" fill="#A7533A"/>
<path d="M317.125 283.234C317.363 284.45 309.824 295.032 308.519 296.473C297.094 300.667 283.75 305.722 273.302 311.966C272.775 310.287 270.983 304.083 269.355 303.49C269.021 304.638 269.382 305.311 269.747 306.475L269.255 306.634L268.483 304.933L267.786 304.945C267.264 305.712 267.057 306.005 266.428 306.681L265.73 306.481C266.928 304.852 268.538 302.694 270.273 301.653C284.067 293.373 302.265 288.645 317.125 283.234Z" fill="#CD7A59"/>
<path d="M486.711 282.557C494.177 285.11 501.624 287.714 509.055 290.37C511.464 291.233 516.467 293.32 518.555 293.931C523.816 296.052 530.778 298.487 535.311 301.717C533.379 305.55 532.948 308 531.63 312.008C526.964 308.688 503.114 297.197 497.752 297.179L497.576 298.311C495.441 294.906 493.188 291.575 490.822 288.325C489.742 286.828 487.38 284.028 486.711 282.557Z" fill="#CD7A59"/>
<path d="M468.72 164.908L469.06 163.521L469.838 164.98C471.618 164.819 471.817 164.739 473.28 163.71C475.533 166.386 477.59 168.875 479.616 171.739C477.641 180.164 475.083 182.738 470.71 189.397C471.383 191.335 470.624 193.48 468.884 194.564C467.14 195.648 464.879 195.382 463.436 193.923L458.629 193.473C460.878 187.161 461.116 180.276 462.54 176.321C463.792 175.406 465.082 173.427 466.048 172.106C467.335 169.449 467.851 167.702 468.72 164.908Z" fill="#BC6647"/>
<path d="M463.436 193.924C462.168 192.641 461.813 190.712 462.544 189.062C463.271 187.411 464.938 186.375 466.741 186.449C468.548 186.523 470.12 187.693 470.71 189.398C471.383 191.336 470.624 193.481 468.884 194.565C467.139 195.649 464.879 195.383 463.436 193.924Z" fill="#F5B36E"/>
<path d="M468.718 164.908C470.102 166.961 470.935 171.044 471.08 173.543C469.762 175.304 467.47 175.974 465.659 174.541C465.511 173.62 465.784 173.008 466.046 172.106C467.333 169.45 467.849 167.702 468.718 164.908Z" fill="#B6744E"/>
<path d="M468.719 164.908L469.059 163.521L469.837 164.98C474.37 166.654 473.819 173.895 471.621 177.191L470.322 175.928C470.674 175.258 470.882 174.3 471.081 173.543C470.936 171.044 470.103 166.961 468.719 164.908Z" fill="#A7533A"/>
<path d="M470.323 175.928L471.622 177.191C470.241 179.308 467.722 181.758 465.047 181.754L464.918 180.602C466.4 178.376 467.754 178.525 470.006 176.252L470.323 175.928Z" fill="#9A5539"/>
<path d="M337.356 167.673L338.525 170.853C339.311 172.298 340.301 174.468 341.55 175.4L342.381 175.259C342.894 176.679 343.581 181.637 343.904 183.542C344.569 187.472 345.19 190.074 346.323 193.902C345.16 193.987 343.223 194.064 342.134 194.222C338.255 196.082 334.901 195.373 334.22 190.705C333.686 188.742 330.023 184.02 328.9 181.776C327.855 179.687 327.371 177.975 326.664 175.766C328.203 172.842 329.435 170.809 331.737 168.441L332.603 168.799C333.375 168.129 334.031 167.94 334.981 167.553L337.356 167.673Z" fill="#BC6647"/>
<path d="M334.223 190.705C337.464 182.907 344.133 186.4 342.137 194.223C338.259 196.083 334.904 195.374 334.223 190.705Z" fill="#F5B36E"/>
<path d="M334.985 167.553L335 169.783C331.214 177.156 340.47 177.056 340.781 181.443C338.014 183.561 334.948 179.9 333.224 178.028C332.456 174.275 332.569 172.622 332.606 168.799C333.378 168.129 334.035 167.94 334.985 167.553Z" fill="#9A5539"/>
<path d="M337.358 167.673L338.527 170.853L337.854 171.012C336.652 170.709 335.852 170.651 335 169.783L334.984 167.553L337.358 167.673Z" fill="#B6744E"/>
<path d="M340.488 155.434C342.864 152.181 347.81 142.019 349.961 137.941L350.238 138.296L349.745 139.619C350.182 140.528 349.86 140.136 350.901 140.675C347.896 146.629 344.888 152.449 342.891 158.844C342.485 160.141 341.661 163.627 341.079 164.629L340.826 163.496C340.622 161.09 340.585 157.903 340.488 155.434Z" fill="#A7533A"/>
<path d="M469.059 163.522L470.001 158.732L473.279 163.711C471.816 164.74 471.616 164.82 469.837 164.98L469.059 163.522Z" fill="#CD7A59"/>
<path d="M331.738 168.441C332.635 167.201 334.867 163.758 336.15 163.471L336.549 164.813L337.357 167.674L334.983 167.553C334.033 167.941 333.376 168.129 332.604 168.8L331.738 168.441Z" fill="#CD7A59"/>
<path d="M395.287 71.6717C402.316 70.6493 409.395 72.0924 415.062 76.4262C413.486 75.7091 411.882 75.0523 410.259 74.4564C402.984 71.8324 395.717 72.6754 388.653 75.2736C352.501 88.5944 348.734 129.831 328.525 157.595C315.831 175.034 303.771 183.579 284.783 192.452C278.985 194.524 272.381 197.871 266.582 199.033C272.454 196.028 278.33 192.869 284.4 190.303C310.921 179.093 329.837 155.027 341.107 129.119C352.57 102.772 363.566 77.1496 395.287 71.6717Z" fill="#413F49"/>
<path d="M505.024 223.961C505.752 224.786 507.641 232.75 508.76 235.223C510.926 240.003 513.269 245.076 516.66 249.159C531.159 266.606 551 269.922 560.484 292.903C564.622 302.935 567.09 315.026 562.897 325.585C562.682 326.258 562.839 325.945 562.283 326.448C561.873 325.701 562.499 317.721 562.522 316.119C563.066 299.231 554.348 282.759 540.514 272.923C523.853 261.078 504.668 247.204 505.024 223.961Z" fill="#413F49"/>
<path d="M392.111 59.1716C397.051 58.4881 401.42 59.4132 406.133 60.6527C344.124 59.6126 350.097 105.815 313.461 135.38C311.157 136.804 308.532 138.881 306.143 139.914L306.059 139.537C307.264 138.153 310.49 135.805 312.074 134.611C330.396 120.791 335.712 97.6311 350.792 80.9426C363.935 66.3984 373.37 62.341 392.111 59.1716Z" fill="#413F49"/>
<path d="M386.662 47.0911C391.871 46.5637 398.958 47.242 403.906 48.9354L403.882 48.9163L404.5 49.3663C366.766 45.2397 339.264 68.0969 322.119 99.8172C321.285 101.37 315.523 113.062 315.122 113.41L314.977 112.824C315.799 110.307 317.11 108.044 318.094 105.596C329.754 76.5909 353.122 49.1958 386.662 47.0911Z" fill="#413F49"/>
<path d="M220.736 354.172C220.82 355.319 216.114 365.402 215.429 367.66C209.752 386.382 210.834 405.254 218.81 423.127C219.809 425.367 222.729 430.997 222.67 431.885L221.635 431.056C214.218 420.057 209.655 407.299 208.582 394.052C207.635 382.373 212.944 363.072 220.736 354.172Z" fill="#413F49"/>
<path d="M441.832 72.4883C442.09 72.5164 442.348 72.5469 442.606 72.5798C465.049 75.4028 474.928 99.7324 484.733 116.758C488.183 122.744 491.75 126.348 495.723 131.512C494.507 131.314 492.986 129.748 492.039 128.909C478.186 116.671 473.5 97.7806 460.774 84.5825C456.69 80.3481 451.782 77.3921 446.58 74.724C444.945 73.8849 443.299 73.5448 441.832 72.4883Z" fill="#413F49"/>
<path d="M279.01 274.639L279.373 274.884C277.58 275.844 275.442 276.406 273.721 277.378C253.871 288.596 242.467 313.878 240.245 335.93L240.202 335.949L239.914 335.715C240.26 328.486 240.131 323.485 241.851 316.287C246.785 295.64 258.337 280.649 279.01 274.639Z" fill="#413F49"/>
<path d="M333.072 213.07L333.41 213.665C333.557 222.872 330.324 234.801 326.936 243.218C323.085 252.785 316.408 263.248 308.333 269.785C307.071 270.806 305.481 272.27 304 272.888L303.859 272.808C304.072 271.557 305.944 270.687 306.9 269.653C318.755 256.838 326.501 241.132 330.698 224.261C331.621 220.549 332.901 216.875 333.072 213.07Z" fill="#413F49"/>
<path d="M334.748 121.939C334.966 122.179 334.915 122.325 334.998 122.749C324.457 141.605 310.061 152.102 289.962 159.511L289.676 159.324L289.846 158.856C293.632 156.974 297.303 154.367 300.956 152.255C314.571 144.386 325.758 135.059 334.748 121.939Z" fill="#413F49"/>
<path d="M477.949 216.848C478.72 218.701 478.102 228.364 478.376 231.315C479.514 243.686 483.949 255.184 490.043 265.934C490.739 267.164 492.045 268.641 492.319 269.939L491.58 269.99C484.72 260.771 480.018 253.79 477.519 242.433C475.458 233.059 475.094 226.072 477.949 216.848Z" fill="#413F49"/>
<path d="M284.139 200.953C284.194 201.769 283.104 205.192 282.728 206.064C276.862 219.661 267.845 226.236 255.337 232.169C255.313 232.038 255.289 231.906 255.266 231.775C258.95 229.379 262.678 226.751 266.083 223.971C269.905 220.852 273.492 217.048 276.511 213.159C279.474 209.344 281.616 205.048 284.139 200.953Z" fill="#413F49"/>
<path d="M436.965 82.9397C446.629 81.805 455.097 92.1108 458.335 100.256C457.639 99.7407 454.475 95.9981 453.779 95.161C448.456 88.7827 444.459 86.1036 436.965 82.9397Z" fill="#413F49"/>
<path d="M310.209 161.449L310.443 161.697C310.118 163.594 302.767 169.034 300.703 170.877L300.453 170.585C300.83 168.903 308.159 163.387 310.209 161.449Z" fill="#413F49"/>
<path d="M221.73 293.281C221.755 294.605 221.944 295.949 221.359 297.07C220.721 296.195 220.737 294.745 220.621 293.589L221.73 293.281Z" fill="black" fill-opacity="0.109804"/>
</svg>
